<?xml version="1.0" encoding="UTF-8" standalone="no"?>
<!DOCTYPE svg PUBLIC "-//W3C//DTD SVG 1.1//EN"
 "http://www.w3.org/Graphics/SVG/1.1/DTD/svg11.dtd">
<!-- Generated by graphviz version 2.38.0 (20140413.2041)
 -->
<!-- Title: GPDB Pages: 1 -->
<svg width="739pt" height="428pt"
 viewBox="0.00 0.00 739.00 428.00" xmlns="http://www.w3.org/2000/svg" xmlns:xlink="http://www.w3.org/1999/xlink">
<g id="graph0" class="graph" transform="scale(1 1) rotate(0) translate(36 392)">
<title>GPDB</title>
<polygon fill="white" stroke="none" points="-36,36 -36,-392 703,-392 703,36 -36,36"/>
<text text-anchor="middle" x="333.5" y="-326.4" font-family="Helvetica,sans-Serif" font-size="32.00">Greenplum System Catalog: gp_configuration</text>
<g id="clust2" class="cluster"><title>cluster_selected</title>
</g>
<!-- gp_configuration -->
<g id="node1" class="node"><title>gp_configuration</title>
<g id="a_node1"><a xlink:href="gp_configuration.svg" xlink:title="&lt;TABLE&gt;">
<polygon fill="#2c3e50" stroke="none" points="232.5,-220 232.5,-250 435.5,-250 435.5,-220 232.5,-220"/>
<polygon fill="none" stroke="black" points="232.5,-220 232.5,-250 435.5,-250 435.5,-220 232.5,-220"/>
<text text-anchor="start" x="249.5" y="-231.6" font-family="monospace" font-weight="bold" font-size="18.00" fill="#ffffff">gp_configuration</text>
<polygon fill="#ffffff" stroke="none" points="232.5,-195 232.5,-220 358.5,-220 358.5,-195 232.5,-195"/>
<polygon fill="none" stroke="#2c3e50" points="232.5,-195 232.5,-220 358.5,-220 358.5,-195 232.5,-195"/>
<text text-anchor="start" x="237.5" y="-203.8" font-family="monospace" font-size="14.00" fill="#000000">content</text>
<polygon fill="#ffffff" stroke="none" points="358.5,-195 358.5,-220 435.5,-220 435.5,-195 358.5,-195"/>
<polygon fill="none" stroke="#2c3e50" points="358.5,-195 358.5,-220 435.5,-220 435.5,-195 358.5,-195"/>
<text text-anchor="start" x="363.5" y="-204.8" font-family="monospace" font-style="italic" font-size="14.00" fill="#95a5a6">smallint</text>
<polygon fill="#ffffff" stroke="none" points="232.5,-170 232.5,-195 358.5,-195 358.5,-170 232.5,-170"/>
<polygon fill="none" stroke="#2c3e50" points="232.5,-170 232.5,-195 358.5,-195 358.5,-170 232.5,-170"/>
<text text-anchor="start" x="237.5" y="-178.8" font-family="monospace" font-size="14.00" fill="#000000">definedprimary</text>
<polygon fill="#ffffff" stroke="none" points="358.5,-170 358.5,-195 435.5,-195 435.5,-170 358.5,-170"/>
<polygon fill="none" stroke="#2c3e50" points="358.5,-170 358.5,-195 435.5,-195 435.5,-170 358.5,-170"/>
<text text-anchor="start" x="363.5" y="-179.8" font-family="monospace" font-style="italic" font-size="14.00" fill="#95a5a6">boolean</text>
<polygon fill="#ffffff" stroke="none" points="232.5,-145 232.5,-170 358.5,-170 358.5,-145 232.5,-145"/>
<polygon fill="none" stroke="#2c3e50" points="232.5,-145 232.5,-170 358.5,-170 358.5,-145 232.5,-145"/>
<text text-anchor="start" x="237.5" y="-153.8" font-family="monospace" font-size="14.00" fill="#000000">dbid</text>
<polygon fill="#ffffff" stroke="none" points="358.5,-145 358.5,-170 435.5,-170 435.5,-145 358.5,-145"/>
<polygon fill="none" stroke="#2c3e50" points="358.5,-145 358.5,-170 435.5,-170 435.5,-145 358.5,-145"/>
<text text-anchor="start" x="363.5" y="-154.8" font-family="monospace" font-style="italic" font-size="14.00" fill="#95a5a6">smallint</text>
<polygon fill="#ffffff" stroke="none" points="232.5,-120 232.5,-145 358.5,-145 358.5,-120 232.5,-120"/>
<polygon fill="none" stroke="#2c3e50" points="232.5,-120 232.5,-145 358.5,-145 358.5,-120 232.5,-120"/>
<text text-anchor="start" x="237.5" y="-128.8" font-family="monospace" font-size="14.00" fill="#000000">isprimary</text>
<polygon fill="#ffffff" stroke="none" points="358.5,-120 358.5,-145 435.5,-145 435.5,-120 358.5,-120"/>
<polygon fill="none" stroke="#2c3e50" points="358.5,-120 358.5,-145 435.5,-145 435.5,-120 358.5,-120"/>
<text text-anchor="start" x="363.5" y="-129.8" font-family="monospace" font-style="italic" font-size="14.00" fill="#95a5a6">boolean</text>
<polygon fill="#ffffff" stroke="none" points="232.5,-95 232.5,-120 358.5,-120 358.5,-95 232.5,-95"/>
<polygon fill="none" stroke="#2c3e50" points="232.5,-95 232.5,-120 358.5,-120 358.5,-95 232.5,-95"/>
<text text-anchor="start" x="237.5" y="-103.8" font-family="monospace" font-size="14.00" fill="#000000">valid</text>
<polygon fill="#ffffff" stroke="none" points="358.5,-95 358.5,-120 435.5,-120 435.5,-95 358.5,-95"/>
<polygon fill="none" stroke="#2c3e50" points="358.5,-95 358.5,-120 435.5,-120 435.5,-95 358.5,-95"/>
<text text-anchor="start" x="363.5" y="-104.8" font-family="monospace" font-style="italic" font-size="14.00" fill="#95a5a6">boolean</text>
<polygon fill="#ffffff" stroke="none" points="232.5,-70 232.5,-95 358.5,-95 358.5,-70 232.5,-70"/>
<polygon fill="none" stroke="#2c3e50" points="232.5,-70 232.5,-95 358.5,-95 358.5,-70 232.5,-70"/>
<text text-anchor="start" x="237.5" y="-78.8" font-family="monospace" font-size="14.00" fill="#000000">hostname</text>
<polygon fill="#ffffff" stroke="none" points="358.5,-70 358.5,-95 435.5,-95 435.5,-70 358.5,-70"/>
<polygon fill="none" stroke="#2c3e50" points="358.5,-70 358.5,-95 435.5,-95 435.5,-70 358.5,-70"/>
<text text-anchor="start" x="363.5" y="-79.8" font-family="monospace" font-style="italic" font-size="14.00" fill="#95a5a6">name</text>
<polygon fill="#ffffff" stroke="none" points="232.5,-45 232.5,-70 358.5,-70 358.5,-45 232.5,-45"/>
<polygon fill="none" stroke="#2c3e50" points="232.5,-45 232.5,-70 358.5,-70 358.5,-45 232.5,-45"/>
<text text-anchor="start" x="237.5" y="-53.8" font-family="monospace" font-size="14.00" fill="#000000">port</text>
<polygon fill="#ffffff" stroke="none" points="358.5,-45 358.5,-70 435.5,-70 435.5,-45 358.5,-45"/>
<polygon fill="none" stroke="#2c3e50" points="358.5,-45 358.5,-70 435.5,-70 435.5,-45 358.5,-45"/>
<text text-anchor="start" x="363.5" y="-54.8" font-family="monospace" font-style="italic" font-size="14.00" fill="#95a5a6">integer</text>
<polygon fill="#ffffff" stroke="none" points="232.5,-20 232.5,-45 358.5,-45 358.5,-20 232.5,-20"/>
<polygon fill="none" stroke="#2c3e50" points="232.5,-20 232.5,-45 358.5,-45 358.5,-20 232.5,-20"/>
<text text-anchor="start" x="237.5" y="-28.8" font-family="monospace" font-size="14.00" fill="#000000">datadir</text>
<polygon fill="#ffffff" stroke="none" points="358.5,-20 358.5,-45 435.5,-45 435.5,-20 358.5,-20"/>
<polygon fill="none" stroke="#2c3e50" points="358.5,-20 358.5,-45 435.5,-45 435.5,-20 358.5,-20"/>
<text text-anchor="start" x="363.5" y="-29.8" font-family="monospace" font-style="italic" font-size="14.00" fill="#95a5a6">text</text>
</a>
</g>
</g>
</g>
</svg>
