<?xml version="1.0" encoding="UTF-8" standalone="no"?>
<!DOCTYPE svg PUBLIC "-//W3C//DTD SVG 1.1//EN"
 "http://www.w3.org/Graphics/SVG/1.1/DTD/svg11.dtd">
<!-- Generated by graphviz version 2.38.0 (20140413.2041)
 -->
<!-- Title: GPDB Pages: 1 -->
<svg width="851pt" height="304pt"
 viewBox="0.00 0.00 851.00 304.00" xmlns="http://www.w3.org/2000/svg" xmlns:xlink="http://www.w3.org/1999/xlink">
<g id="graph0" class="graph" transform="scale(1 1) rotate(0) translate(36 268)">
<title>GPDB</title>
<polygon fill="white" stroke="none" points="-36,36 -36,-268 815,-268 815,36 -36,36"/>
<text text-anchor="middle" x="389.5" y="-202.4" font-family="Helvetica,sans-Serif" font-size="32.00">Greenplum System Catalog: gp_configuration_history</text>
<g id="clust2" class="cluster"><title>cluster_selected</title>
</g>
<!-- gp_configuration_history -->
<g id="node1" class="node"><title>gp_configuration_history</title>
<polygon fill="#2c3e50" stroke="none" points="258.5,-95 258.5,-125 521.5,-125 521.5,-95 258.5,-95"/>
<polygon fill="none" stroke="black" points="258.5,-95 258.5,-125 521.5,-125 521.5,-95 258.5,-95"/>
<text text-anchor="start" x="263.5" y="-106.6" font-family="monospace" font-weight="bold" font-size="18.00" fill="#ffffff">gp_configuration_history</text>
<polygon fill="#ffffff" stroke="none" points="258.5,-70 258.5,-95 307.5,-95 307.5,-70 258.5,-70"/>
<polygon fill="none" stroke="#2c3e50" points="258.5,-70 258.5,-95 307.5,-95 307.5,-70 258.5,-70"/>
<text text-anchor="start" x="263.5" y="-78.8" font-family="monospace" font-size="14.00" fill="#000000">time</text>
<polygon fill="#ffffff" stroke="none" points="307.5,-70 307.5,-95 521.5,-95 521.5,-70 307.5,-70"/>
<polygon fill="none" stroke="#2c3e50" points="307.5,-70 307.5,-95 521.5,-95 521.5,-70 307.5,-70"/>
<text text-anchor="start" x="312.5" y="-79.8" font-family="monospace" font-style="italic" font-size="14.00" fill="#95a5a6">timestamp_with_time_zone</text>
<polygon fill="#ffffff" stroke="none" points="258.5,-45 258.5,-70 307.5,-70 307.5,-45 258.5,-45"/>
<polygon fill="none" stroke="#2c3e50" points="258.5,-45 258.5,-70 307.5,-70 307.5,-45 258.5,-45"/>
<text text-anchor="start" x="263.5" y="-53.8" font-family="monospace" font-size="14.00" fill="#000000">dbid</text>
<polygon fill="#ffffff" stroke="none" points="307.5,-45 307.5,-70 521.5,-70 521.5,-45 307.5,-45"/>
<polygon fill="none" stroke="#2c3e50" points="307.5,-45 307.5,-70 521.5,-70 521.5,-45 307.5,-45"/>
<text text-anchor="start" x="312.5" y="-54.8" font-family="monospace" font-style="italic" font-size="14.00" fill="#95a5a6">smallint</text>
<polygon fill="#ffffff" stroke="none" points="258.5,-20 258.5,-45 307.5,-45 307.5,-20 258.5,-20"/>
<polygon fill="none" stroke="#2c3e50" points="258.5,-20 258.5,-45 307.5,-45 307.5,-20 258.5,-20"/>
<text text-anchor="start" x="263.5" y="-28.8" font-family="monospace" font-size="14.00" fill="#000000">desc</text>
<polygon fill="#ffffff" stroke="none" points="307.5,-20 307.5,-45 521.5,-45 521.5,-20 307.5,-20"/>
<polygon fill="none" stroke="#2c3e50" points="307.5,-20 307.5,-45 521.5,-45 521.5,-20 307.5,-20"/>
<text text-anchor="start" x="312.5" y="-29.8" font-family="monospace" font-style="italic" font-size="14.00" fill="#95a5a6">text</text>
</g>
</g>
</svg>
