<?xml version="1.0" encoding="UTF-8" standalone="no"?>
<!DOCTYPE svg PUBLIC "-//W3C//DTD SVG 1.1//EN"
 "http://www.w3.org/Graphics/SVG/1.1/DTD/svg11.dtd">
<!-- Generated by graphviz version 2.38.0 (20140413.2041)
 -->
<!-- Title: GPDB Pages: 1 -->
<svg width="1566pt" height="1004pt"
 viewBox="0.00 0.00 1566.00 1004.00" xmlns="http://www.w3.org/2000/svg" xmlns:xlink="http://www.w3.org/1999/xlink">
<g id="graph0" class="graph" transform="scale(1 1) rotate(0) translate(36 968)">
<title>GPDB</title>
<polygon fill="white" stroke="none" points="-36,36 -36,-968 1530,-968 1530,36 -36,36"/>
<text text-anchor="middle" x="747" y="-902.4" font-family="Helvetica,sans-Serif" font-size="32.00">Greenplum System Catalog: gp_distribution_policy</text>
<g id="clust2" class="cluster"><title>cluster_selected</title>
</g>
<g id="clust3" class="cluster"><title>cluster_to</title>
</g>
<!-- gp_distribution_policy -->
<g id="node1" class="node"><title>gp_distribution_policy</title>
<g id="a_node1"><a xlink:href="gp_distribution_policy.svg" xlink:title="&lt;TABLE&gt;">
<polygon fill="#2c3e50" stroke="none" points="247,-796 247,-826 489,-826 489,-796 247,-796"/>
<polygon fill="none" stroke="black" points="247,-796 247,-826 489,-826 489,-796 247,-796"/>
<text text-anchor="start" x="252" y="-807.6" font-family="monospace" font-weight="bold" font-size="18.00" fill="#ffffff">gp_distribution_policy</text>
<polygon fill="#ffffff" stroke="none" points="247,-771 247,-796 360,-796 360,-771 247,-771"/>
<polygon fill="none" stroke="#2c3e50" points="247,-771 247,-796 360,-796 360,-771 247,-771"/>
<text text-anchor="start" x="252" y="-779.8" font-family="monospace" font-size="14.00" fill="#000000">localoid</text>
<polygon fill="#18bc9c" stroke="none" points="360,-771 360,-796 489,-796 489,-771 360,-771"/>
<polygon fill="none" stroke="#2c3e50" points="360,-771 360,-796 489,-796 489,-771 360,-771"/>
<text text-anchor="start" x="365" y="-780.8" font-family="monospace" font-style="italic" font-size="14.00" fill="#ffffff">oid</text>
<polygon fill="#ffffff" stroke="none" points="247,-746 247,-771 360,-771 360,-746 247,-746"/>
<polygon fill="none" stroke="#2c3e50" points="247,-746 247,-771 360,-771 360,-746 247,-746"/>
<text text-anchor="start" x="252" y="-754.8" font-family="monospace" font-size="14.00" fill="#000000">attrnums</text>
<polygon fill="#ffffff" stroke="none" points="360,-746 360,-771 489,-771 489,-746 360,-746"/>
<polygon fill="none" stroke="#2c3e50" points="360,-746 360,-771 489,-771 489,-746 360,-746"/>
<text text-anchor="start" x="365" y="-755.8" font-family="monospace" font-style="italic" font-size="14.00" fill="#95a5a6">smallint[]</text>
</a>
</g>
</g>
<!-- pg_class -->
<g id="node2" class="node"><title>pg_class</title>
<g id="a_node2"><a xlink:href="pg_class.svg" xlink:title="&lt;TABLE&gt;">
<polygon fill="#2c3e50" stroke="none" points="1012.5,-795 1012.5,-825 1239.5,-825 1239.5,-795 1012.5,-795"/>
<polygon fill="none" stroke="black" points="1012.5,-795 1012.5,-825 1239.5,-825 1239.5,-795 1012.5,-795"/>
<text text-anchor="start" x="1083.5" y="-806.6" font-family="monospace" font-weight="bold" font-size="18.00" fill="#ffffff">pg_class</text>
<polygon fill="#18bc9c" stroke="none" points="1012.5,-770 1012.5,-795 1138.5,-795 1138.5,-770 1012.5,-770"/>
<polygon fill="none" stroke="#2c3e50" points="1012.5,-770 1012.5,-795 1138.5,-795 1138.5,-770 1012.5,-770"/>
<text text-anchor="start" x="1017.5" y="-778.8" font-family="monospace" font-size="14.00" fill="#ffffff">oid</text>
<polygon fill="#ffffff" stroke="none" points="1138.5,-770 1138.5,-795 1239.5,-795 1239.5,-770 1138.5,-770"/>
<polygon fill="none" stroke="#2c3e50" points="1138.5,-770 1138.5,-795 1239.5,-795 1239.5,-770 1138.5,-770"/>
<text text-anchor="start" x="1143.5" y="-779.8" font-family="monospace" font-style="italic" font-size="14.00" fill="#95a5a6">oid</text>
<polygon fill="#ffffff" stroke="none" points="1012.5,-745 1012.5,-770 1138.5,-770 1138.5,-745 1012.5,-745"/>
<polygon fill="none" stroke="#2c3e50" points="1012.5,-745 1012.5,-770 1138.5,-770 1138.5,-745 1012.5,-745"/>
<text text-anchor="start" x="1017.5" y="-753.8" font-family="monospace" font-size="14.00" fill="#000000">relname</text>
<polygon fill="#ffffff" stroke="none" points="1138.5,-745 1138.5,-770 1239.5,-770 1239.5,-745 1138.5,-745"/>
<polygon fill="none" stroke="#2c3e50" points="1138.5,-745 1138.5,-770 1239.5,-770 1239.5,-745 1138.5,-745"/>
<text text-anchor="start" x="1143.5" y="-754.8" font-family="monospace" font-style="italic" font-size="14.00" fill="#95a5a6">name</text>
<polygon fill="#ffffff" stroke="none" points="1012.5,-720 1012.5,-745 1138.5,-745 1138.5,-720 1012.5,-720"/>
<polygon fill="none" stroke="#2c3e50" points="1012.5,-720 1012.5,-745 1138.5,-745 1138.5,-720 1012.5,-720"/>
<text text-anchor="start" x="1017.5" y="-728.8" font-family="monospace" font-size="14.00" fill="#000000">relnamespace</text>
<polygon fill="#ffffff" stroke="none" points="1138.5,-720 1138.5,-745 1239.5,-745 1239.5,-720 1138.5,-720"/>
<polygon fill="none" stroke="#2c3e50" points="1138.5,-720 1138.5,-745 1239.5,-745 1239.5,-720 1138.5,-720"/>
<text text-anchor="start" x="1143.5" y="-729.8" font-family="monospace" font-style="italic" font-size="14.00" fill="#95a5a6">oid</text>
<polygon fill="#ffffff" stroke="none" points="1012.5,-695 1012.5,-720 1138.5,-720 1138.5,-695 1012.5,-695"/>
<polygon fill="none" stroke="#2c3e50" points="1012.5,-695 1012.5,-720 1138.5,-720 1138.5,-695 1012.5,-695"/>
<text text-anchor="start" x="1017.5" y="-703.8" font-family="monospace" font-size="14.00" fill="#000000">reltype</text>
<polygon fill="#ffffff" stroke="none" points="1138.5,-695 1138.5,-720 1239.5,-720 1239.5,-695 1138.5,-695"/>
<polygon fill="none" stroke="#2c3e50" points="1138.5,-695 1138.5,-720 1239.5,-720 1239.5,-695 1138.5,-695"/>
<text text-anchor="start" x="1143.5" y="-704.8" font-family="monospace" font-style="italic" font-size="14.00" fill="#95a5a6">oid</text>
<polygon fill="#ffffff" stroke="none" points="1012.5,-670 1012.5,-695 1138.5,-695 1138.5,-670 1012.5,-670"/>
<polygon fill="none" stroke="#2c3e50" points="1012.5,-670 1012.5,-695 1138.5,-695 1138.5,-670 1012.5,-670"/>
<text text-anchor="start" x="1017.5" y="-678.8" font-family="monospace" font-size="14.00" fill="#000000">relowner</text>
<polygon fill="#ffffff" stroke="none" points="1138.5,-670 1138.5,-695 1239.5,-695 1239.5,-670 1138.5,-670"/>
<polygon fill="none" stroke="#2c3e50" points="1138.5,-670 1138.5,-695 1239.5,-695 1239.5,-670 1138.5,-670"/>
<text text-anchor="start" x="1143.5" y="-679.8" font-family="monospace" font-style="italic" font-size="14.00" fill="#95a5a6">oid</text>
<polygon fill="#ffffff" stroke="none" points="1012.5,-645 1012.5,-670 1138.5,-670 1138.5,-645 1012.5,-645"/>
<polygon fill="none" stroke="#2c3e50" points="1012.5,-645 1012.5,-670 1138.5,-670 1138.5,-645 1012.5,-645"/>
<text text-anchor="start" x="1017.5" y="-653.8" font-family="monospace" font-size="14.00" fill="#000000">relam</text>
<polygon fill="#ffffff" stroke="none" points="1138.5,-645 1138.5,-670 1239.5,-670 1239.5,-645 1138.5,-645"/>
<polygon fill="none" stroke="#2c3e50" points="1138.5,-645 1138.5,-670 1239.5,-670 1239.5,-645 1138.5,-645"/>
<text text-anchor="start" x="1143.5" y="-654.8" font-family="monospace" font-style="italic" font-size="14.00" fill="#95a5a6">oid</text>
<polygon fill="#ffffff" stroke="none" points="1012.5,-620 1012.5,-645 1138.5,-645 1138.5,-620 1012.5,-620"/>
<polygon fill="none" stroke="#2c3e50" points="1012.5,-620 1012.5,-645 1138.5,-645 1138.5,-620 1012.5,-620"/>
<text text-anchor="start" x="1017.5" y="-628.8" font-family="monospace" font-size="14.00" fill="#000000">relfilenode</text>
<polygon fill="#ffffff" stroke="none" points="1138.5,-620 1138.5,-645 1239.5,-645 1239.5,-620 1138.5,-620"/>
<polygon fill="none" stroke="#2c3e50" points="1138.5,-620 1138.5,-645 1239.5,-645 1239.5,-620 1138.5,-620"/>
<text text-anchor="start" x="1143.5" y="-629.8" font-family="monospace" font-style="italic" font-size="14.00" fill="#95a5a6">oid</text>
<polygon fill="#ffffff" stroke="none" points="1012.5,-595 1012.5,-620 1138.5,-620 1138.5,-595 1012.5,-595"/>
<polygon fill="none" stroke="#2c3e50" points="1012.5,-595 1012.5,-620 1138.5,-620 1138.5,-595 1012.5,-595"/>
<text text-anchor="start" x="1017.5" y="-603.8" font-family="monospace" font-size="14.00" fill="#000000">reltablespace</text>
<polygon fill="#ffffff" stroke="none" points="1138.5,-595 1138.5,-620 1239.5,-620 1239.5,-595 1138.5,-595"/>
<polygon fill="none" stroke="#2c3e50" points="1138.5,-595 1138.5,-620 1239.5,-620 1239.5,-595 1138.5,-595"/>
<text text-anchor="start" x="1143.5" y="-604.8" font-family="monospace" font-style="italic" font-size="14.00" fill="#95a5a6">oid</text>
<polygon fill="#ffffff" stroke="none" points="1012.5,-570 1012.5,-595 1138.5,-595 1138.5,-570 1012.5,-570"/>
<polygon fill="none" stroke="#2c3e50" points="1012.5,-570 1012.5,-595 1138.5,-595 1138.5,-570 1012.5,-570"/>
<text text-anchor="start" x="1017.5" y="-578.8" font-family="monospace" font-size="14.00" fill="#000000">relpages</text>
<polygon fill="#ffffff" stroke="none" points="1138.5,-570 1138.5,-595 1239.5,-595 1239.5,-570 1138.5,-570"/>
<polygon fill="none" stroke="#2c3e50" points="1138.5,-570 1138.5,-595 1239.5,-595 1239.5,-570 1138.5,-570"/>
<text text-anchor="start" x="1143.5" y="-579.8" font-family="monospace" font-style="italic" font-size="14.00" fill="#95a5a6">integer</text>
<polygon fill="#ffffff" stroke="none" points="1012.5,-545 1012.5,-570 1138.5,-570 1138.5,-545 1012.5,-545"/>
<polygon fill="none" stroke="#2c3e50" points="1012.5,-545 1012.5,-570 1138.5,-570 1138.5,-545 1012.5,-545"/>
<text text-anchor="start" x="1017.5" y="-553.8" font-family="monospace" font-size="14.00" fill="#000000">reltuples</text>
<polygon fill="#ffffff" stroke="none" points="1138.5,-545 1138.5,-570 1239.5,-570 1239.5,-545 1138.5,-545"/>
<polygon fill="none" stroke="#2c3e50" points="1138.5,-545 1138.5,-570 1239.5,-570 1239.5,-545 1138.5,-545"/>
<text text-anchor="start" x="1143.5" y="-554.8" font-family="monospace" font-style="italic" font-size="14.00" fill="#95a5a6">real</text>
<polygon fill="#ffffff" stroke="none" points="1012.5,-520 1012.5,-545 1138.5,-545 1138.5,-520 1012.5,-520"/>
<polygon fill="none" stroke="#2c3e50" points="1012.5,-520 1012.5,-545 1138.5,-545 1138.5,-520 1012.5,-520"/>
<text text-anchor="start" x="1017.5" y="-528.8" font-family="monospace" font-size="14.00" fill="#000000">reltoastrelid</text>
<polygon fill="#ffffff" stroke="none" points="1138.5,-520 1138.5,-545 1239.5,-545 1239.5,-520 1138.5,-520"/>
<polygon fill="none" stroke="#2c3e50" points="1138.5,-520 1138.5,-545 1239.5,-545 1239.5,-520 1138.5,-520"/>
<text text-anchor="start" x="1143.5" y="-529.8" font-family="monospace" font-style="italic" font-size="14.00" fill="#95a5a6">oid</text>
<polygon fill="#ffffff" stroke="none" points="1012.5,-495 1012.5,-520 1138.5,-520 1138.5,-495 1012.5,-495"/>
<polygon fill="none" stroke="#2c3e50" points="1012.5,-495 1012.5,-520 1138.5,-520 1138.5,-495 1012.5,-495"/>
<text text-anchor="start" x="1017.5" y="-503.8" font-family="monospace" font-size="14.00" fill="#000000">reltoastidxid</text>
<polygon fill="#ffffff" stroke="none" points="1138.5,-495 1138.5,-520 1239.5,-520 1239.5,-495 1138.5,-495"/>
<polygon fill="none" stroke="#2c3e50" points="1138.5,-495 1138.5,-520 1239.5,-520 1239.5,-495 1138.5,-495"/>
<text text-anchor="start" x="1143.5" y="-504.8" font-family="monospace" font-style="italic" font-size="14.00" fill="#95a5a6">oid</text>
<polygon fill="#ffffff" stroke="none" points="1012.5,-470 1012.5,-495 1138.5,-495 1138.5,-470 1012.5,-470"/>
<polygon fill="none" stroke="#2c3e50" points="1012.5,-470 1012.5,-495 1138.5,-495 1138.5,-470 1012.5,-470"/>
<text text-anchor="start" x="1017.5" y="-478.8" font-family="monospace" font-size="14.00" fill="#000000">relaosegrelid</text>
<polygon fill="#ffffff" stroke="none" points="1138.5,-470 1138.5,-495 1239.5,-495 1239.5,-470 1138.5,-470"/>
<polygon fill="none" stroke="#2c3e50" points="1138.5,-470 1138.5,-495 1239.5,-495 1239.5,-470 1138.5,-470"/>
<text text-anchor="start" x="1143.5" y="-479.8" font-family="monospace" font-style="italic" font-size="14.00" fill="#95a5a6">oid</text>
<polygon fill="#ffffff" stroke="none" points="1012.5,-445 1012.5,-470 1138.5,-470 1138.5,-445 1012.5,-445"/>
<polygon fill="none" stroke="#2c3e50" points="1012.5,-445 1012.5,-470 1138.5,-470 1138.5,-445 1012.5,-445"/>
<text text-anchor="start" x="1017.5" y="-453.8" font-family="monospace" font-size="14.00" fill="#000000">relaosegidxid</text>
<polygon fill="#ffffff" stroke="none" points="1138.5,-445 1138.5,-470 1239.5,-470 1239.5,-445 1138.5,-445"/>
<polygon fill="none" stroke="#2c3e50" points="1138.5,-445 1138.5,-470 1239.5,-470 1239.5,-445 1138.5,-445"/>
<text text-anchor="start" x="1143.5" y="-454.8" font-family="monospace" font-style="italic" font-size="14.00" fill="#95a5a6">oid</text>
<polygon fill="#ffffff" stroke="none" points="1012.5,-420 1012.5,-445 1138.5,-445 1138.5,-420 1012.5,-420"/>
<polygon fill="none" stroke="#2c3e50" points="1012.5,-420 1012.5,-445 1138.5,-445 1138.5,-420 1012.5,-420"/>
<text text-anchor="start" x="1017.5" y="-428.8" font-family="monospace" font-size="14.00" fill="#000000">relhasindex</text>
<polygon fill="#ffffff" stroke="none" points="1138.5,-420 1138.5,-445 1239.5,-445 1239.5,-420 1138.5,-420"/>
<polygon fill="none" stroke="#2c3e50" points="1138.5,-420 1138.5,-445 1239.5,-445 1239.5,-420 1138.5,-420"/>
<text text-anchor="start" x="1143.5" y="-429.8" font-family="monospace" font-style="italic" font-size="14.00" fill="#95a5a6">boolean</text>
<polygon fill="#ffffff" stroke="none" points="1012.5,-395 1012.5,-420 1138.5,-420 1138.5,-395 1012.5,-395"/>
<polygon fill="none" stroke="#2c3e50" points="1012.5,-395 1012.5,-420 1138.5,-420 1138.5,-395 1012.5,-395"/>
<text text-anchor="start" x="1017.5" y="-403.8" font-family="monospace" font-size="14.00" fill="#000000">relisshared</text>
<polygon fill="#ffffff" stroke="none" points="1138.5,-395 1138.5,-420 1239.5,-420 1239.5,-395 1138.5,-395"/>
<polygon fill="none" stroke="#2c3e50" points="1138.5,-395 1138.5,-420 1239.5,-420 1239.5,-395 1138.5,-395"/>
<text text-anchor="start" x="1143.5" y="-404.8" font-family="monospace" font-style="italic" font-size="14.00" fill="#95a5a6">boolean</text>
<polygon fill="#ffffff" stroke="none" points="1012.5,-370 1012.5,-395 1138.5,-395 1138.5,-370 1012.5,-370"/>
<polygon fill="none" stroke="#2c3e50" points="1012.5,-370 1012.5,-395 1138.5,-395 1138.5,-370 1012.5,-370"/>
<text text-anchor="start" x="1017.5" y="-378.8" font-family="monospace" font-size="14.00" fill="#000000">relkind</text>
<polygon fill="#ffffff" stroke="none" points="1138.5,-370 1138.5,-395 1239.5,-395 1239.5,-370 1138.5,-370"/>
<polygon fill="none" stroke="#2c3e50" points="1138.5,-370 1138.5,-395 1239.5,-395 1239.5,-370 1138.5,-370"/>
<text text-anchor="start" x="1143.5" y="-379.8" font-family="monospace" font-style="italic" font-size="14.00" fill="#95a5a6">quoted_char</text>
<polygon fill="#ffffff" stroke="none" points="1012.5,-345 1012.5,-370 1138.5,-370 1138.5,-345 1012.5,-345"/>
<polygon fill="none" stroke="#2c3e50" points="1012.5,-345 1012.5,-370 1138.5,-370 1138.5,-345 1012.5,-345"/>
<text text-anchor="start" x="1017.5" y="-353.8" font-family="monospace" font-size="14.00" fill="#000000">relstorage</text>
<polygon fill="#ffffff" stroke="none" points="1138.5,-345 1138.5,-370 1239.5,-370 1239.5,-345 1138.5,-345"/>
<polygon fill="none" stroke="#2c3e50" points="1138.5,-345 1138.5,-370 1239.5,-370 1239.5,-345 1138.5,-345"/>
<text text-anchor="start" x="1143.5" y="-354.8" font-family="monospace" font-style="italic" font-size="14.00" fill="#95a5a6">quoted_char</text>
<polygon fill="#ffffff" stroke="none" points="1012.5,-320 1012.5,-345 1138.5,-345 1138.5,-320 1012.5,-320"/>
<polygon fill="none" stroke="#2c3e50" points="1012.5,-320 1012.5,-345 1138.5,-345 1138.5,-320 1012.5,-320"/>
<text text-anchor="start" x="1017.5" y="-328.8" font-family="monospace" font-size="14.00" fill="#000000">relnatts</text>
<polygon fill="#ffffff" stroke="none" points="1138.5,-320 1138.5,-345 1239.5,-345 1239.5,-320 1138.5,-320"/>
<polygon fill="none" stroke="#2c3e50" points="1138.5,-320 1138.5,-345 1239.5,-345 1239.5,-320 1138.5,-320"/>
<text text-anchor="start" x="1143.5" y="-329.8" font-family="monospace" font-style="italic" font-size="14.00" fill="#95a5a6">smallint</text>
<polygon fill="#ffffff" stroke="none" points="1012.5,-295 1012.5,-320 1138.5,-320 1138.5,-295 1012.5,-295"/>
<polygon fill="none" stroke="#2c3e50" points="1012.5,-295 1012.5,-320 1138.5,-320 1138.5,-295 1012.5,-295"/>
<text text-anchor="start" x="1017.5" y="-303.8" font-family="monospace" font-size="14.00" fill="#000000">relchecks</text>
<polygon fill="#ffffff" stroke="none" points="1138.5,-295 1138.5,-320 1239.5,-320 1239.5,-295 1138.5,-295"/>
<polygon fill="none" stroke="#2c3e50" points="1138.5,-295 1138.5,-320 1239.5,-320 1239.5,-295 1138.5,-295"/>
<text text-anchor="start" x="1143.5" y="-304.8" font-family="monospace" font-style="italic" font-size="14.00" fill="#95a5a6">smallint</text>
<polygon fill="#ffffff" stroke="none" points="1012.5,-270 1012.5,-295 1138.5,-295 1138.5,-270 1012.5,-270"/>
<polygon fill="none" stroke="#2c3e50" points="1012.5,-270 1012.5,-295 1138.5,-295 1138.5,-270 1012.5,-270"/>
<text text-anchor="start" x="1017.5" y="-278.8" font-family="monospace" font-size="14.00" fill="#000000">reltriggers</text>
<polygon fill="#ffffff" stroke="none" points="1138.5,-270 1138.5,-295 1239.5,-295 1239.5,-270 1138.5,-270"/>
<polygon fill="none" stroke="#2c3e50" points="1138.5,-270 1138.5,-295 1239.5,-295 1239.5,-270 1138.5,-270"/>
<text text-anchor="start" x="1143.5" y="-279.8" font-family="monospace" font-style="italic" font-size="14.00" fill="#95a5a6">smallint</text>
<polygon fill="#ffffff" stroke="none" points="1012.5,-245 1012.5,-270 1138.5,-270 1138.5,-245 1012.5,-245"/>
<polygon fill="none" stroke="#2c3e50" points="1012.5,-245 1012.5,-270 1138.5,-270 1138.5,-245 1012.5,-245"/>
<text text-anchor="start" x="1017.5" y="-253.8" font-family="monospace" font-size="14.00" fill="#000000">relukeys</text>
<polygon fill="#ffffff" stroke="none" points="1138.5,-245 1138.5,-270 1239.5,-270 1239.5,-245 1138.5,-245"/>
<polygon fill="none" stroke="#2c3e50" points="1138.5,-245 1138.5,-270 1239.5,-270 1239.5,-245 1138.5,-245"/>
<text text-anchor="start" x="1143.5" y="-254.8" font-family="monospace" font-style="italic" font-size="14.00" fill="#95a5a6">smallint</text>
<polygon fill="#ffffff" stroke="none" points="1012.5,-220 1012.5,-245 1138.5,-245 1138.5,-220 1012.5,-220"/>
<polygon fill="none" stroke="#2c3e50" points="1012.5,-220 1012.5,-245 1138.5,-245 1138.5,-220 1012.5,-220"/>
<text text-anchor="start" x="1017.5" y="-228.8" font-family="monospace" font-size="14.00" fill="#000000">relfkeys</text>
<polygon fill="#ffffff" stroke="none" points="1138.5,-220 1138.5,-245 1239.5,-245 1239.5,-220 1138.5,-220"/>
<polygon fill="none" stroke="#2c3e50" points="1138.5,-220 1138.5,-245 1239.5,-245 1239.5,-220 1138.5,-220"/>
<text text-anchor="start" x="1143.5" y="-229.8" font-family="monospace" font-style="italic" font-size="14.00" fill="#95a5a6">smallint</text>
<polygon fill="#ffffff" stroke="none" points="1012.5,-195 1012.5,-220 1138.5,-220 1138.5,-195 1012.5,-195"/>
<polygon fill="none" stroke="#2c3e50" points="1012.5,-195 1012.5,-220 1138.5,-220 1138.5,-195 1012.5,-195"/>
<text text-anchor="start" x="1017.5" y="-203.8" font-family="monospace" font-size="14.00" fill="#000000">relrefs</text>
<polygon fill="#ffffff" stroke="none" points="1138.5,-195 1138.5,-220 1239.5,-220 1239.5,-195 1138.5,-195"/>
<polygon fill="none" stroke="#2c3e50" points="1138.5,-195 1138.5,-220 1239.5,-220 1239.5,-195 1138.5,-195"/>
<text text-anchor="start" x="1143.5" y="-204.8" font-family="monospace" font-style="italic" font-size="14.00" fill="#95a5a6">smallint</text>
<polygon fill="#ffffff" stroke="none" points="1012.5,-170 1012.5,-195 1138.5,-195 1138.5,-170 1012.5,-170"/>
<polygon fill="none" stroke="#2c3e50" points="1012.5,-170 1012.5,-195 1138.5,-195 1138.5,-170 1012.5,-170"/>
<text text-anchor="start" x="1017.5" y="-178.8" font-family="monospace" font-size="14.00" fill="#000000">relhasoids</text>
<polygon fill="#ffffff" stroke="none" points="1138.5,-170 1138.5,-195 1239.5,-195 1239.5,-170 1138.5,-170"/>
<polygon fill="none" stroke="#2c3e50" points="1138.5,-170 1138.5,-195 1239.5,-195 1239.5,-170 1138.5,-170"/>
<text text-anchor="start" x="1143.5" y="-179.8" font-family="monospace" font-style="italic" font-size="14.00" fill="#95a5a6">boolean</text>
<polygon fill="#ffffff" stroke="none" points="1012.5,-145 1012.5,-170 1138.5,-170 1138.5,-145 1012.5,-145"/>
<polygon fill="none" stroke="#2c3e50" points="1012.5,-145 1012.5,-170 1138.5,-170 1138.5,-145 1012.5,-145"/>
<text text-anchor="start" x="1017.5" y="-153.8" font-family="monospace" font-size="14.00" fill="#000000">relhaspkey</text>
<polygon fill="#ffffff" stroke="none" points="1138.5,-145 1138.5,-170 1239.5,-170 1239.5,-145 1138.5,-145"/>
<polygon fill="none" stroke="#2c3e50" points="1138.5,-145 1138.5,-170 1239.5,-170 1239.5,-145 1138.5,-145"/>
<text text-anchor="start" x="1143.5" y="-154.8" font-family="monospace" font-style="italic" font-size="14.00" fill="#95a5a6">boolean</text>
<polygon fill="#ffffff" stroke="none" points="1012.5,-120 1012.5,-145 1138.5,-145 1138.5,-120 1012.5,-120"/>
<polygon fill="none" stroke="#2c3e50" points="1012.5,-120 1012.5,-145 1138.5,-145 1138.5,-120 1012.5,-120"/>
<text text-anchor="start" x="1017.5" y="-128.8" font-family="monospace" font-size="14.00" fill="#000000">relhasrules</text>
<polygon fill="#ffffff" stroke="none" points="1138.5,-120 1138.5,-145 1239.5,-145 1239.5,-120 1138.5,-120"/>
<polygon fill="none" stroke="#2c3e50" points="1138.5,-120 1138.5,-145 1239.5,-145 1239.5,-120 1138.5,-120"/>
<text text-anchor="start" x="1143.5" y="-129.8" font-family="monospace" font-style="italic" font-size="14.00" fill="#95a5a6">boolean</text>
<polygon fill="#ffffff" stroke="none" points="1012.5,-95 1012.5,-120 1138.5,-120 1138.5,-95 1012.5,-95"/>
<polygon fill="none" stroke="#2c3e50" points="1012.5,-95 1012.5,-120 1138.5,-120 1138.5,-95 1012.5,-95"/>
<text text-anchor="start" x="1017.5" y="-103.8" font-family="monospace" font-size="14.00" fill="#000000">relhassubclass</text>
<polygon fill="#ffffff" stroke="none" points="1138.5,-95 1138.5,-120 1239.5,-120 1239.5,-95 1138.5,-95"/>
<polygon fill="none" stroke="#2c3e50" points="1138.5,-95 1138.5,-120 1239.5,-120 1239.5,-95 1138.5,-95"/>
<text text-anchor="start" x="1143.5" y="-104.8" font-family="monospace" font-style="italic" font-size="14.00" fill="#95a5a6">boolean</text>
<polygon fill="#ffffff" stroke="none" points="1012.5,-70 1012.5,-95 1138.5,-95 1138.5,-70 1012.5,-70"/>
<polygon fill="none" stroke="#2c3e50" points="1012.5,-70 1012.5,-95 1138.5,-95 1138.5,-70 1012.5,-70"/>
<text text-anchor="start" x="1017.5" y="-78.8" font-family="monospace" font-size="14.00" fill="#000000">relfrozenxid</text>
<polygon fill="#ffffff" stroke="none" points="1138.5,-70 1138.5,-95 1239.5,-95 1239.5,-70 1138.5,-70"/>
<polygon fill="none" stroke="#2c3e50" points="1138.5,-70 1138.5,-95 1239.5,-95 1239.5,-70 1138.5,-70"/>
<text text-anchor="start" x="1143.5" y="-79.8" font-family="monospace" font-style="italic" font-size="14.00" fill="#95a5a6">xid</text>
<polygon fill="#ffffff" stroke="none" points="1012.5,-45 1012.5,-70 1138.5,-70 1138.5,-45 1012.5,-45"/>
<polygon fill="none" stroke="#2c3e50" points="1012.5,-45 1012.5,-70 1138.5,-70 1138.5,-45 1012.5,-45"/>
<text text-anchor="start" x="1017.5" y="-53.8" font-family="monospace" font-size="14.00" fill="#000000">relacl</text>
<polygon fill="#ffffff" stroke="none" points="1138.5,-45 1138.5,-70 1239.5,-70 1239.5,-45 1138.5,-45"/>
<polygon fill="none" stroke="#2c3e50" points="1138.5,-45 1138.5,-70 1239.5,-70 1239.5,-45 1138.5,-45"/>
<text text-anchor="start" x="1143.5" y="-54.8" font-family="monospace" font-style="italic" font-size="14.00" fill="#95a5a6">aclitem[]</text>
<polygon fill="#ffffff" stroke="none" points="1012.5,-20 1012.5,-45 1138.5,-45 1138.5,-20 1012.5,-20"/>
<polygon fill="none" stroke="#2c3e50" points="1012.5,-20 1012.5,-45 1138.5,-45 1138.5,-20 1012.5,-20"/>
<text text-anchor="start" x="1017.5" y="-28.8" font-family="monospace" font-size="14.00" fill="#000000">reloptions</text>
<polygon fill="#ffffff" stroke="none" points="1138.5,-20 1138.5,-45 1239.5,-45 1239.5,-20 1138.5,-20"/>
<polygon fill="none" stroke="#2c3e50" points="1138.5,-20 1138.5,-45 1239.5,-45 1239.5,-20 1138.5,-20"/>
<text text-anchor="start" x="1143.5" y="-29.8" font-family="monospace" font-style="italic" font-size="14.00" fill="#95a5a6">text[]</text>
</a>
</g>
</g>
<!-- gp_distribution_policy&#45;&gt;pg_class -->
<g id="edge1" class="edge"><title>gp_distribution_policy:localoid_out&#45;&gt;pg_class:oid_in</title>
<path fill="none" stroke="#2c3e50" d="M490,-783C718.383,-783 777.987,-783 1001.43,-783"/>
<polygon fill="#2c3e50" stroke="#2c3e50" points="1001.5,-786.5 1011.5,-783 1001.5,-779.5 1001.5,-786.5"/>
</g>
</g>
</svg>
