<?xml version="1.0" encoding="UTF-8" standalone="no"?>
<!DOCTYPE svg PUBLIC "-//W3C//DTD SVG 1.1//EN"
 "http://www.w3.org/Graphics/SVG/1.1/DTD/svg11.dtd">
<!-- Generated by graphviz version 2.38.0 (20140413.2041)
 -->
<!-- Title: GPDB Pages: 1 -->
<svg width="748pt" height="304pt"
 viewBox="0.00 0.00 748.00 304.00" xmlns="http://www.w3.org/2000/svg" xmlns:xlink="http://www.w3.org/1999/xlink">
<g id="graph0" class="graph" transform="scale(1 1) rotate(0) translate(36 268)">
<title>GPDB</title>
<polygon fill="white" stroke="none" points="-36,36 -36,-268 712,-268 712,36 -36,36"/>
<text text-anchor="middle" x="338" y="-202.4" font-family="Helvetica,sans-Serif" font-size="32.00">Greenplum System Catalog: gp_db_interfaces</text>
<g id="clust2" class="cluster"><title>cluster_selected</title>
</g>
<!-- gp_db_interfaces -->
<g id="node1" class="node"><title>gp_db_interfaces</title>
<g id="a_node1"><a xlink:href="gp_db_interfaces.svg" xlink:title="&lt;TABLE&gt;">
<polygon fill="#2c3e50" stroke="none" points="248.5,-95 248.5,-125 427.5,-125 427.5,-95 248.5,-95"/>
<polygon fill="none" stroke="black" points="248.5,-95 248.5,-125 427.5,-125 427.5,-95 248.5,-95"/>
<text text-anchor="start" x="253.5" y="-106.6" font-family="monospace" font-weight="bold" font-size="18.00" fill="#ffffff">gp_db_interfaces</text>
<polygon fill="#ffffff" stroke="none" points="248.5,-70 248.5,-95 349.5,-95 349.5,-70 248.5,-70"/>
<polygon fill="none" stroke="#2c3e50" points="248.5,-70 248.5,-95 349.5,-95 349.5,-70 248.5,-70"/>
<text text-anchor="start" x="253.5" y="-78.8" font-family="monospace" font-size="14.00" fill="#000000">dbid</text>
<polygon fill="#ffffff" stroke="none" points="349.5,-70 349.5,-95 427.5,-95 427.5,-70 349.5,-70"/>
<polygon fill="none" stroke="#2c3e50" points="349.5,-70 349.5,-95 427.5,-95 427.5,-70 349.5,-70"/>
<text text-anchor="start" x="354.5" y="-79.8" font-family="monospace" font-style="italic" font-size="14.00" fill="#95a5a6">smallint</text>
<polygon fill="#ffffff" stroke="none" points="248.5,-45 248.5,-70 349.5,-70 349.5,-45 248.5,-45"/>
<polygon fill="none" stroke="#2c3e50" points="248.5,-45 248.5,-70 349.5,-70 349.5,-45 248.5,-45"/>
<text text-anchor="start" x="253.5" y="-53.8" font-family="monospace" font-size="14.00" fill="#000000">interfaceid</text>
<polygon fill="#ffffff" stroke="none" points="349.5,-45 349.5,-70 427.5,-70 427.5,-45 349.5,-45"/>
<polygon fill="none" stroke="#2c3e50" points="349.5,-45 349.5,-70 427.5,-70 427.5,-45 349.5,-45"/>
<text text-anchor="start" x="354.5" y="-54.8" font-family="monospace" font-style="italic" font-size="14.00" fill="#95a5a6">smallint</text>
<polygon fill="#ffffff" stroke="none" points="248.5,-20 248.5,-45 349.5,-45 349.5,-20 248.5,-20"/>
<polygon fill="none" stroke="#2c3e50" points="248.5,-20 248.5,-45 349.5,-45 349.5,-20 248.5,-20"/>
<text text-anchor="start" x="253.5" y="-28.8" font-family="monospace" font-size="14.00" fill="#000000">priority</text>
<polygon fill="#ffffff" stroke="none" points="349.5,-20 349.5,-45 427.5,-45 427.5,-20 349.5,-20"/>
<polygon fill="none" stroke="#2c3e50" points="349.5,-20 349.5,-45 427.5,-45 427.5,-20 349.5,-20"/>
<text text-anchor="start" x="354.5" y="-29.8" font-family="monospace" font-style="italic" font-size="14.00" fill="#95a5a6">smallint</text>
</a>
</g>
</g>
</g>
</svg>
