<?xml version="1.0" encoding="UTF-8" standalone="no"?>
<!DOCTYPE svg PUBLIC "-//W3C//DTD SVG 1.1//EN"
 "http://www.w3.org/Graphics/SVG/1.1/DTD/svg11.dtd">
<!-- Generated by graphviz version 2.38.0 (20140413.2041)
 -->
<!-- Title: GPDB Pages: 1 -->
<svg width="748pt" height="254pt"
 viewBox="0.00 0.00 748.00 254.00" xmlns="http://www.w3.org/2000/svg" xmlns:xlink="http://www.w3.org/1999/xlink">
<g id="graph0" class="graph" transform="scale(1 1) rotate(0) translate(36 218)">
<title>GPDB</title>
<polygon fill="white" stroke="none" points="-36,36 -36,-218 712,-218 712,36 -36,36"/>
<text text-anchor="middle" x="338" y="-152.4" font-family="Helvetica,sans-Serif" font-size="32.00">Greenplum System Catalog: gp_fault_strategy</text>
<g id="clust2" class="cluster"><title>cluster_selected</title>
</g>
<!-- gp_fault_strategy -->
<g id="node1" class="node"><title>gp_fault_strategy</title>
<polygon fill="#2c3e50" stroke="none" points="224.5,-45 224.5,-75 451.5,-75 451.5,-45 224.5,-45"/>
<polygon fill="none" stroke="black" points="224.5,-45 224.5,-75 451.5,-75 451.5,-45 224.5,-45"/>
<text text-anchor="start" x="248.5" y="-56.6" font-family="monospace" font-weight="bold" font-size="18.00" fill="#ffffff">gp_fault_strategy</text>
<polygon fill="#ffffff" stroke="none" points="224.5,-20 224.5,-45 350.5,-45 350.5,-20 224.5,-20"/>
<polygon fill="none" stroke="#2c3e50" points="224.5,-20 224.5,-45 350.5,-45 350.5,-20 224.5,-20"/>
<text text-anchor="start" x="229.5" y="-28.8" font-family="monospace" font-size="14.00" fill="#000000">fault_strategy</text>
<polygon fill="#ffffff" stroke="none" points="350.5,-20 350.5,-45 451.5,-45 451.5,-20 350.5,-20"/>
<polygon fill="none" stroke="#2c3e50" points="350.5,-20 350.5,-45 451.5,-45 451.5,-20 350.5,-20"/>
<text text-anchor="start" x="355.5" y="-29.8" font-family="monospace" font-style="italic" font-size="14.00" fill="#95a5a6">quoted_char</text>
</g>
</g>
</svg>
