<?xml version="1.0" encoding="UTF-8" standalone="no"?>
<!DOCTYPE svg PUBLIC "-//W3C//DTD SVG 1.1//EN"
 "http://www.w3.org/Graphics/SVG/1.1/DTD/svg11.dtd">
<!-- Generated by graphviz version 2.38.0 (20140413.2041)
 -->
<!-- Title: GPDB Pages: 1 -->
<svg width="1440pt" height="1004pt"
 viewBox="0.00 0.00 1440.00 1004.00" xmlns="http://www.w3.org/2000/svg" xmlns:xlink="http://www.w3.org/1999/xlink">
<g id="graph0" class="graph" transform="scale(1 1) rotate(0) translate(36 968)">
<title>GPDB</title>
<polygon fill="white" stroke="none" points="-36,36 -36,-968 1404,-968 1404,36 -36,36"/>
<text text-anchor="middle" x="684" y="-902.4" font-family="Helvetica,sans-Serif" font-size="32.00">Greenplum System Catalog: gp_fastsequence</text>
<g id="clust2" class="cluster"><title>cluster_selected</title>
</g>
<g id="clust3" class="cluster"><title>cluster_to</title>
</g>
<!-- gp_fastsequence -->
<g id="node1" class="node"><title>gp_fastsequence</title>
<g id="a_node1"><a xlink:href="gp_fastsequence.svg" xlink:title="&lt;TABLE&gt;">
<polygon fill="#2c3e50" stroke="none" points="248,-795 248,-825 426,-825 426,-795 248,-795"/>
<polygon fill="none" stroke="black" points="248,-795 248,-825 426,-825 426,-795 248,-795"/>
<text text-anchor="start" x="258" y="-806.6" font-family="monospace" font-weight="bold" font-size="18.00" fill="#ffffff">gp_fastsequence</text>
<polygon fill="#ffffff" stroke="none" points="248,-770 248,-795 366,-795 366,-770 248,-770"/>
<polygon fill="none" stroke="#2c3e50" points="248,-770 248,-795 366,-795 366,-770 248,-770"/>
<text text-anchor="start" x="253" y="-778.8" font-family="monospace" font-size="14.00" fill="#000000">objid</text>
<polygon fill="#18bc9c" stroke="none" points="366,-770 366,-795 426,-795 426,-770 366,-770"/>
<polygon fill="none" stroke="#2c3e50" points="366,-770 366,-795 426,-795 426,-770 366,-770"/>
<text text-anchor="start" x="371" y="-779.8" font-family="monospace" font-style="italic" font-size="14.00" fill="#ffffff">oid</text>
<polygon fill="#ffffff" stroke="none" points="248,-745 248,-770 366,-770 366,-745 248,-745"/>
<polygon fill="none" stroke="#2c3e50" points="248,-745 248,-770 366,-770 366,-745 248,-745"/>
<text text-anchor="start" x="253" y="-753.8" font-family="monospace" font-size="14.00" fill="#000000">objmod</text>
<polygon fill="#ffffff" stroke="none" points="366,-745 366,-770 426,-770 426,-745 366,-745"/>
<polygon fill="none" stroke="#2c3e50" points="366,-745 366,-770 426,-770 426,-745 366,-745"/>
<text text-anchor="start" x="371" y="-754.8" font-family="monospace" font-style="italic" font-size="14.00" fill="#95a5a6">bigint</text>
<polygon fill="#ffffff" stroke="none" points="248,-720 248,-745 366,-745 366,-720 248,-720"/>
<polygon fill="none" stroke="#2c3e50" points="248,-720 248,-745 366,-745 366,-720 248,-720"/>
<text text-anchor="start" x="253" y="-728.8" font-family="monospace" font-size="14.00" fill="#000000">last_sequence</text>
<polygon fill="#ffffff" stroke="none" points="366,-720 366,-745 426,-745 426,-720 366,-720"/>
<polygon fill="none" stroke="#2c3e50" points="366,-720 366,-745 426,-745 426,-720 366,-720"/>
<text text-anchor="start" x="371" y="-729.8" font-family="monospace" font-style="italic" font-size="14.00" fill="#95a5a6">bigint</text>
</a>
</g>
</g>
<!-- pg_class -->
<g id="node2" class="node"><title>pg_class</title>
<g id="a_node2"><a xlink:href="pg_class.svg" xlink:title="&lt;TABLE&gt;">
<polygon fill="#2c3e50" stroke="none" points="917.5,-795 917.5,-825 1144.5,-825 1144.5,-795 917.5,-795"/>
<polygon fill="none" stroke="black" points="917.5,-795 917.5,-825 1144.5,-825 1144.5,-795 917.5,-795"/>
<text text-anchor="start" x="988.5" y="-806.6" font-family="monospace" font-weight="bold" font-size="18.00" fill="#ffffff">pg_class</text>
<polygon fill="#18bc9c" stroke="none" points="917.5,-770 917.5,-795 1043.5,-795 1043.5,-770 917.5,-770"/>
<polygon fill="none" stroke="#2c3e50" points="917.5,-770 917.5,-795 1043.5,-795 1043.5,-770 917.5,-770"/>
<text text-anchor="start" x="922.5" y="-778.8" font-family="monospace" font-size="14.00" fill="#ffffff">oid</text>
<polygon fill="#ffffff" stroke="none" points="1043.5,-770 1043.5,-795 1144.5,-795 1144.5,-770 1043.5,-770"/>
<polygon fill="none" stroke="#2c3e50" points="1043.5,-770 1043.5,-795 1144.5,-795 1144.5,-770 1043.5,-770"/>
<text text-anchor="start" x="1048.5" y="-779.8" font-family="monospace" font-style="italic" font-size="14.00" fill="#95a5a6">oid</text>
<polygon fill="#ffffff" stroke="none" points="917.5,-745 917.5,-770 1043.5,-770 1043.5,-745 917.5,-745"/>
<polygon fill="none" stroke="#2c3e50" points="917.5,-745 917.5,-770 1043.5,-770 1043.5,-745 917.5,-745"/>
<text text-anchor="start" x="922.5" y="-753.8" font-family="monospace" font-size="14.00" fill="#000000">relname</text>
<polygon fill="#ffffff" stroke="none" points="1043.5,-745 1043.5,-770 1144.5,-770 1144.5,-745 1043.5,-745"/>
<polygon fill="none" stroke="#2c3e50" points="1043.5,-745 1043.5,-770 1144.5,-770 1144.5,-745 1043.5,-745"/>
<text text-anchor="start" x="1048.5" y="-754.8" font-family="monospace" font-style="italic" font-size="14.00" fill="#95a5a6">name</text>
<polygon fill="#ffffff" stroke="none" points="917.5,-720 917.5,-745 1043.5,-745 1043.5,-720 917.5,-720"/>
<polygon fill="none" stroke="#2c3e50" points="917.5,-720 917.5,-745 1043.5,-745 1043.5,-720 917.5,-720"/>
<text text-anchor="start" x="922.5" y="-728.8" font-family="monospace" font-size="14.00" fill="#000000">relnamespace</text>
<polygon fill="#ffffff" stroke="none" points="1043.5,-720 1043.5,-745 1144.5,-745 1144.5,-720 1043.5,-720"/>
<polygon fill="none" stroke="#2c3e50" points="1043.5,-720 1043.5,-745 1144.5,-745 1144.5,-720 1043.5,-720"/>
<text text-anchor="start" x="1048.5" y="-729.8" font-family="monospace" font-style="italic" font-size="14.00" fill="#95a5a6">oid</text>
<polygon fill="#ffffff" stroke="none" points="917.5,-695 917.5,-720 1043.5,-720 1043.5,-695 917.5,-695"/>
<polygon fill="none" stroke="#2c3e50" points="917.5,-695 917.5,-720 1043.5,-720 1043.5,-695 917.5,-695"/>
<text text-anchor="start" x="922.5" y="-703.8" font-family="monospace" font-size="14.00" fill="#000000">reltype</text>
<polygon fill="#ffffff" stroke="none" points="1043.5,-695 1043.5,-720 1144.5,-720 1144.5,-695 1043.5,-695"/>
<polygon fill="none" stroke="#2c3e50" points="1043.5,-695 1043.5,-720 1144.5,-720 1144.5,-695 1043.5,-695"/>
<text text-anchor="start" x="1048.5" y="-704.8" font-family="monospace" font-style="italic" font-size="14.00" fill="#95a5a6">oid</text>
<polygon fill="#ffffff" stroke="none" points="917.5,-670 917.5,-695 1043.5,-695 1043.5,-670 917.5,-670"/>
<polygon fill="none" stroke="#2c3e50" points="917.5,-670 917.5,-695 1043.5,-695 1043.5,-670 917.5,-670"/>
<text text-anchor="start" x="922.5" y="-678.8" font-family="monospace" font-size="14.00" fill="#000000">relowner</text>
<polygon fill="#ffffff" stroke="none" points="1043.5,-670 1043.5,-695 1144.5,-695 1144.5,-670 1043.5,-670"/>
<polygon fill="none" stroke="#2c3e50" points="1043.5,-670 1043.5,-695 1144.5,-695 1144.5,-670 1043.5,-670"/>
<text text-anchor="start" x="1048.5" y="-679.8" font-family="monospace" font-style="italic" font-size="14.00" fill="#95a5a6">oid</text>
<polygon fill="#ffffff" stroke="none" points="917.5,-645 917.5,-670 1043.5,-670 1043.5,-645 917.5,-645"/>
<polygon fill="none" stroke="#2c3e50" points="917.5,-645 917.5,-670 1043.5,-670 1043.5,-645 917.5,-645"/>
<text text-anchor="start" x="922.5" y="-653.8" font-family="monospace" font-size="14.00" fill="#000000">relam</text>
<polygon fill="#ffffff" stroke="none" points="1043.5,-645 1043.5,-670 1144.5,-670 1144.5,-645 1043.5,-645"/>
<polygon fill="none" stroke="#2c3e50" points="1043.5,-645 1043.5,-670 1144.5,-670 1144.5,-645 1043.5,-645"/>
<text text-anchor="start" x="1048.5" y="-654.8" font-family="monospace" font-style="italic" font-size="14.00" fill="#95a5a6">oid</text>
<polygon fill="#ffffff" stroke="none" points="917.5,-620 917.5,-645 1043.5,-645 1043.5,-620 917.5,-620"/>
<polygon fill="none" stroke="#2c3e50" points="917.5,-620 917.5,-645 1043.5,-645 1043.5,-620 917.5,-620"/>
<text text-anchor="start" x="922.5" y="-628.8" font-family="monospace" font-size="14.00" fill="#000000">relfilenode</text>
<polygon fill="#ffffff" stroke="none" points="1043.5,-620 1043.5,-645 1144.5,-645 1144.5,-620 1043.5,-620"/>
<polygon fill="none" stroke="#2c3e50" points="1043.5,-620 1043.5,-645 1144.5,-645 1144.5,-620 1043.5,-620"/>
<text text-anchor="start" x="1048.5" y="-629.8" font-family="monospace" font-style="italic" font-size="14.00" fill="#95a5a6">oid</text>
<polygon fill="#ffffff" stroke="none" points="917.5,-595 917.5,-620 1043.5,-620 1043.5,-595 917.5,-595"/>
<polygon fill="none" stroke="#2c3e50" points="917.5,-595 917.5,-620 1043.5,-620 1043.5,-595 917.5,-595"/>
<text text-anchor="start" x="922.5" y="-603.8" font-family="monospace" font-size="14.00" fill="#000000">reltablespace</text>
<polygon fill="#ffffff" stroke="none" points="1043.5,-595 1043.5,-620 1144.5,-620 1144.5,-595 1043.5,-595"/>
<polygon fill="none" stroke="#2c3e50" points="1043.5,-595 1043.5,-620 1144.5,-620 1144.5,-595 1043.5,-595"/>
<text text-anchor="start" x="1048.5" y="-604.8" font-family="monospace" font-style="italic" font-size="14.00" fill="#95a5a6">oid</text>
<polygon fill="#ffffff" stroke="none" points="917.5,-570 917.5,-595 1043.5,-595 1043.5,-570 917.5,-570"/>
<polygon fill="none" stroke="#2c3e50" points="917.5,-570 917.5,-595 1043.5,-595 1043.5,-570 917.5,-570"/>
<text text-anchor="start" x="922.5" y="-578.8" font-family="monospace" font-size="14.00" fill="#000000">relpages</text>
<polygon fill="#ffffff" stroke="none" points="1043.5,-570 1043.5,-595 1144.5,-595 1144.5,-570 1043.5,-570"/>
<polygon fill="none" stroke="#2c3e50" points="1043.5,-570 1043.5,-595 1144.5,-595 1144.5,-570 1043.5,-570"/>
<text text-anchor="start" x="1048.5" y="-579.8" font-family="monospace" font-style="italic" font-size="14.00" fill="#95a5a6">integer</text>
<polygon fill="#ffffff" stroke="none" points="917.5,-545 917.5,-570 1043.5,-570 1043.5,-545 917.5,-545"/>
<polygon fill="none" stroke="#2c3e50" points="917.5,-545 917.5,-570 1043.5,-570 1043.5,-545 917.5,-545"/>
<text text-anchor="start" x="922.5" y="-553.8" font-family="monospace" font-size="14.00" fill="#000000">reltuples</text>
<polygon fill="#ffffff" stroke="none" points="1043.5,-545 1043.5,-570 1144.5,-570 1144.5,-545 1043.5,-545"/>
<polygon fill="none" stroke="#2c3e50" points="1043.5,-545 1043.5,-570 1144.5,-570 1144.5,-545 1043.5,-545"/>
<text text-anchor="start" x="1048.5" y="-554.8" font-family="monospace" font-style="italic" font-size="14.00" fill="#95a5a6">real</text>
<polygon fill="#ffffff" stroke="none" points="917.5,-520 917.5,-545 1043.5,-545 1043.5,-520 917.5,-520"/>
<polygon fill="none" stroke="#2c3e50" points="917.5,-520 917.5,-545 1043.5,-545 1043.5,-520 917.5,-520"/>
<text text-anchor="start" x="922.5" y="-528.8" font-family="monospace" font-size="14.00" fill="#000000">reltoastrelid</text>
<polygon fill="#ffffff" stroke="none" points="1043.5,-520 1043.5,-545 1144.5,-545 1144.5,-520 1043.5,-520"/>
<polygon fill="none" stroke="#2c3e50" points="1043.5,-520 1043.5,-545 1144.5,-545 1144.5,-520 1043.5,-520"/>
<text text-anchor="start" x="1048.5" y="-529.8" font-family="monospace" font-style="italic" font-size="14.00" fill="#95a5a6">oid</text>
<polygon fill="#ffffff" stroke="none" points="917.5,-495 917.5,-520 1043.5,-520 1043.5,-495 917.5,-495"/>
<polygon fill="none" stroke="#2c3e50" points="917.5,-495 917.5,-520 1043.5,-520 1043.5,-495 917.5,-495"/>
<text text-anchor="start" x="922.5" y="-503.8" font-family="monospace" font-size="14.00" fill="#000000">reltoastidxid</text>
<polygon fill="#ffffff" stroke="none" points="1043.5,-495 1043.5,-520 1144.5,-520 1144.5,-495 1043.5,-495"/>
<polygon fill="none" stroke="#2c3e50" points="1043.5,-495 1043.5,-520 1144.5,-520 1144.5,-495 1043.5,-495"/>
<text text-anchor="start" x="1048.5" y="-504.8" font-family="monospace" font-style="italic" font-size="14.00" fill="#95a5a6">oid</text>
<polygon fill="#ffffff" stroke="none" points="917.5,-470 917.5,-495 1043.5,-495 1043.5,-470 917.5,-470"/>
<polygon fill="none" stroke="#2c3e50" points="917.5,-470 917.5,-495 1043.5,-495 1043.5,-470 917.5,-470"/>
<text text-anchor="start" x="922.5" y="-478.8" font-family="monospace" font-size="14.00" fill="#000000">relaosegrelid</text>
<polygon fill="#ffffff" stroke="none" points="1043.5,-470 1043.5,-495 1144.5,-495 1144.5,-470 1043.5,-470"/>
<polygon fill="none" stroke="#2c3e50" points="1043.5,-470 1043.5,-495 1144.5,-495 1144.5,-470 1043.5,-470"/>
<text text-anchor="start" x="1048.5" y="-479.8" font-family="monospace" font-style="italic" font-size="14.00" fill="#95a5a6">oid</text>
<polygon fill="#ffffff" stroke="none" points="917.5,-445 917.5,-470 1043.5,-470 1043.5,-445 917.5,-445"/>
<polygon fill="none" stroke="#2c3e50" points="917.5,-445 917.5,-470 1043.5,-470 1043.5,-445 917.5,-445"/>
<text text-anchor="start" x="922.5" y="-453.8" font-family="monospace" font-size="14.00" fill="#000000">relaosegidxid</text>
<polygon fill="#ffffff" stroke="none" points="1043.5,-445 1043.5,-470 1144.5,-470 1144.5,-445 1043.5,-445"/>
<polygon fill="none" stroke="#2c3e50" points="1043.5,-445 1043.5,-470 1144.5,-470 1144.5,-445 1043.5,-445"/>
<text text-anchor="start" x="1048.5" y="-454.8" font-family="monospace" font-style="italic" font-size="14.00" fill="#95a5a6">oid</text>
<polygon fill="#ffffff" stroke="none" points="917.5,-420 917.5,-445 1043.5,-445 1043.5,-420 917.5,-420"/>
<polygon fill="none" stroke="#2c3e50" points="917.5,-420 917.5,-445 1043.5,-445 1043.5,-420 917.5,-420"/>
<text text-anchor="start" x="922.5" y="-428.8" font-family="monospace" font-size="14.00" fill="#000000">relhasindex</text>
<polygon fill="#ffffff" stroke="none" points="1043.5,-420 1043.5,-445 1144.5,-445 1144.5,-420 1043.5,-420"/>
<polygon fill="none" stroke="#2c3e50" points="1043.5,-420 1043.5,-445 1144.5,-445 1144.5,-420 1043.5,-420"/>
<text text-anchor="start" x="1048.5" y="-429.8" font-family="monospace" font-style="italic" font-size="14.00" fill="#95a5a6">boolean</text>
<polygon fill="#ffffff" stroke="none" points="917.5,-395 917.5,-420 1043.5,-420 1043.5,-395 917.5,-395"/>
<polygon fill="none" stroke="#2c3e50" points="917.5,-395 917.5,-420 1043.5,-420 1043.5,-395 917.5,-395"/>
<text text-anchor="start" x="922.5" y="-403.8" font-family="monospace" font-size="14.00" fill="#000000">relisshared</text>
<polygon fill="#ffffff" stroke="none" points="1043.5,-395 1043.5,-420 1144.5,-420 1144.5,-395 1043.5,-395"/>
<polygon fill="none" stroke="#2c3e50" points="1043.5,-395 1043.5,-420 1144.5,-420 1144.5,-395 1043.5,-395"/>
<text text-anchor="start" x="1048.5" y="-404.8" font-family="monospace" font-style="italic" font-size="14.00" fill="#95a5a6">boolean</text>
<polygon fill="#ffffff" stroke="none" points="917.5,-370 917.5,-395 1043.5,-395 1043.5,-370 917.5,-370"/>
<polygon fill="none" stroke="#2c3e50" points="917.5,-370 917.5,-395 1043.5,-395 1043.5,-370 917.5,-370"/>
<text text-anchor="start" x="922.5" y="-378.8" font-family="monospace" font-size="14.00" fill="#000000">relkind</text>
<polygon fill="#ffffff" stroke="none" points="1043.5,-370 1043.5,-395 1144.5,-395 1144.5,-370 1043.5,-370"/>
<polygon fill="none" stroke="#2c3e50" points="1043.5,-370 1043.5,-395 1144.5,-395 1144.5,-370 1043.5,-370"/>
<text text-anchor="start" x="1048.5" y="-379.8" font-family="monospace" font-style="italic" font-size="14.00" fill="#95a5a6">quoted_char</text>
<polygon fill="#ffffff" stroke="none" points="917.5,-345 917.5,-370 1043.5,-370 1043.5,-345 917.5,-345"/>
<polygon fill="none" stroke="#2c3e50" points="917.5,-345 917.5,-370 1043.5,-370 1043.5,-345 917.5,-345"/>
<text text-anchor="start" x="922.5" y="-353.8" font-family="monospace" font-size="14.00" fill="#000000">relstorage</text>
<polygon fill="#ffffff" stroke="none" points="1043.5,-345 1043.5,-370 1144.5,-370 1144.5,-345 1043.5,-345"/>
<polygon fill="none" stroke="#2c3e50" points="1043.5,-345 1043.5,-370 1144.5,-370 1144.5,-345 1043.5,-345"/>
<text text-anchor="start" x="1048.5" y="-354.8" font-family="monospace" font-style="italic" font-size="14.00" fill="#95a5a6">quoted_char</text>
<polygon fill="#ffffff" stroke="none" points="917.5,-320 917.5,-345 1043.5,-345 1043.5,-320 917.5,-320"/>
<polygon fill="none" stroke="#2c3e50" points="917.5,-320 917.5,-345 1043.5,-345 1043.5,-320 917.5,-320"/>
<text text-anchor="start" x="922.5" y="-328.8" font-family="monospace" font-size="14.00" fill="#000000">relnatts</text>
<polygon fill="#ffffff" stroke="none" points="1043.5,-320 1043.5,-345 1144.5,-345 1144.5,-320 1043.5,-320"/>
<polygon fill="none" stroke="#2c3e50" points="1043.5,-320 1043.5,-345 1144.5,-345 1144.5,-320 1043.5,-320"/>
<text text-anchor="start" x="1048.5" y="-329.8" font-family="monospace" font-style="italic" font-size="14.00" fill="#95a5a6">smallint</text>
<polygon fill="#ffffff" stroke="none" points="917.5,-295 917.5,-320 1043.5,-320 1043.5,-295 917.5,-295"/>
<polygon fill="none" stroke="#2c3e50" points="917.5,-295 917.5,-320 1043.5,-320 1043.5,-295 917.5,-295"/>
<text text-anchor="start" x="922.5" y="-303.8" font-family="monospace" font-size="14.00" fill="#000000">relchecks</text>
<polygon fill="#ffffff" stroke="none" points="1043.5,-295 1043.5,-320 1144.5,-320 1144.5,-295 1043.5,-295"/>
<polygon fill="none" stroke="#2c3e50" points="1043.5,-295 1043.5,-320 1144.5,-320 1144.5,-295 1043.5,-295"/>
<text text-anchor="start" x="1048.5" y="-304.8" font-family="monospace" font-style="italic" font-size="14.00" fill="#95a5a6">smallint</text>
<polygon fill="#ffffff" stroke="none" points="917.5,-270 917.5,-295 1043.5,-295 1043.5,-270 917.5,-270"/>
<polygon fill="none" stroke="#2c3e50" points="917.5,-270 917.5,-295 1043.5,-295 1043.5,-270 917.5,-270"/>
<text text-anchor="start" x="922.5" y="-278.8" font-family="monospace" font-size="14.00" fill="#000000">reltriggers</text>
<polygon fill="#ffffff" stroke="none" points="1043.5,-270 1043.5,-295 1144.5,-295 1144.5,-270 1043.5,-270"/>
<polygon fill="none" stroke="#2c3e50" points="1043.5,-270 1043.5,-295 1144.5,-295 1144.5,-270 1043.5,-270"/>
<text text-anchor="start" x="1048.5" y="-279.8" font-family="monospace" font-style="italic" font-size="14.00" fill="#95a5a6">smallint</text>
<polygon fill="#ffffff" stroke="none" points="917.5,-245 917.5,-270 1043.5,-270 1043.5,-245 917.5,-245"/>
<polygon fill="none" stroke="#2c3e50" points="917.5,-245 917.5,-270 1043.5,-270 1043.5,-245 917.5,-245"/>
<text text-anchor="start" x="922.5" y="-253.8" font-family="monospace" font-size="14.00" fill="#000000">relukeys</text>
<polygon fill="#ffffff" stroke="none" points="1043.5,-245 1043.5,-270 1144.5,-270 1144.5,-245 1043.5,-245"/>
<polygon fill="none" stroke="#2c3e50" points="1043.5,-245 1043.5,-270 1144.5,-270 1144.5,-245 1043.5,-245"/>
<text text-anchor="start" x="1048.5" y="-254.8" font-family="monospace" font-style="italic" font-size="14.00" fill="#95a5a6">smallint</text>
<polygon fill="#ffffff" stroke="none" points="917.5,-220 917.5,-245 1043.5,-245 1043.5,-220 917.5,-220"/>
<polygon fill="none" stroke="#2c3e50" points="917.5,-220 917.5,-245 1043.5,-245 1043.5,-220 917.5,-220"/>
<text text-anchor="start" x="922.5" y="-228.8" font-family="monospace" font-size="14.00" fill="#000000">relfkeys</text>
<polygon fill="#ffffff" stroke="none" points="1043.5,-220 1043.5,-245 1144.5,-245 1144.5,-220 1043.5,-220"/>
<polygon fill="none" stroke="#2c3e50" points="1043.5,-220 1043.5,-245 1144.5,-245 1144.5,-220 1043.5,-220"/>
<text text-anchor="start" x="1048.5" y="-229.8" font-family="monospace" font-style="italic" font-size="14.00" fill="#95a5a6">smallint</text>
<polygon fill="#ffffff" stroke="none" points="917.5,-195 917.5,-220 1043.5,-220 1043.5,-195 917.5,-195"/>
<polygon fill="none" stroke="#2c3e50" points="917.5,-195 917.5,-220 1043.5,-220 1043.5,-195 917.5,-195"/>
<text text-anchor="start" x="922.5" y="-203.8" font-family="monospace" font-size="14.00" fill="#000000">relrefs</text>
<polygon fill="#ffffff" stroke="none" points="1043.5,-195 1043.5,-220 1144.5,-220 1144.5,-195 1043.5,-195"/>
<polygon fill="none" stroke="#2c3e50" points="1043.5,-195 1043.5,-220 1144.5,-220 1144.5,-195 1043.5,-195"/>
<text text-anchor="start" x="1048.5" y="-204.8" font-family="monospace" font-style="italic" font-size="14.00" fill="#95a5a6">smallint</text>
<polygon fill="#ffffff" stroke="none" points="917.5,-170 917.5,-195 1043.5,-195 1043.5,-170 917.5,-170"/>
<polygon fill="none" stroke="#2c3e50" points="917.5,-170 917.5,-195 1043.5,-195 1043.5,-170 917.5,-170"/>
<text text-anchor="start" x="922.5" y="-178.8" font-family="monospace" font-size="14.00" fill="#000000">relhasoids</text>
<polygon fill="#ffffff" stroke="none" points="1043.5,-170 1043.5,-195 1144.5,-195 1144.5,-170 1043.5,-170"/>
<polygon fill="none" stroke="#2c3e50" points="1043.5,-170 1043.5,-195 1144.5,-195 1144.5,-170 1043.5,-170"/>
<text text-anchor="start" x="1048.5" y="-179.8" font-family="monospace" font-style="italic" font-size="14.00" fill="#95a5a6">boolean</text>
<polygon fill="#ffffff" stroke="none" points="917.5,-145 917.5,-170 1043.5,-170 1043.5,-145 917.5,-145"/>
<polygon fill="none" stroke="#2c3e50" points="917.5,-145 917.5,-170 1043.5,-170 1043.5,-145 917.5,-145"/>
<text text-anchor="start" x="922.5" y="-153.8" font-family="monospace" font-size="14.00" fill="#000000">relhaspkey</text>
<polygon fill="#ffffff" stroke="none" points="1043.5,-145 1043.5,-170 1144.5,-170 1144.5,-145 1043.5,-145"/>
<polygon fill="none" stroke="#2c3e50" points="1043.5,-145 1043.5,-170 1144.5,-170 1144.5,-145 1043.5,-145"/>
<text text-anchor="start" x="1048.5" y="-154.8" font-family="monospace" font-style="italic" font-size="14.00" fill="#95a5a6">boolean</text>
<polygon fill="#ffffff" stroke="none" points="917.5,-120 917.5,-145 1043.5,-145 1043.5,-120 917.5,-120"/>
<polygon fill="none" stroke="#2c3e50" points="917.5,-120 917.5,-145 1043.5,-145 1043.5,-120 917.5,-120"/>
<text text-anchor="start" x="922.5" y="-128.8" font-family="monospace" font-size="14.00" fill="#000000">relhasrules</text>
<polygon fill="#ffffff" stroke="none" points="1043.5,-120 1043.5,-145 1144.5,-145 1144.5,-120 1043.5,-120"/>
<polygon fill="none" stroke="#2c3e50" points="1043.5,-120 1043.5,-145 1144.5,-145 1144.5,-120 1043.5,-120"/>
<text text-anchor="start" x="1048.5" y="-129.8" font-family="monospace" font-style="italic" font-size="14.00" fill="#95a5a6">boolean</text>
<polygon fill="#ffffff" stroke="none" points="917.5,-95 917.5,-120 1043.5,-120 1043.5,-95 917.5,-95"/>
<polygon fill="none" stroke="#2c3e50" points="917.5,-95 917.5,-120 1043.5,-120 1043.5,-95 917.5,-95"/>
<text text-anchor="start" x="922.5" y="-103.8" font-family="monospace" font-size="14.00" fill="#000000">relhassubclass</text>
<polygon fill="#ffffff" stroke="none" points="1043.5,-95 1043.5,-120 1144.5,-120 1144.5,-95 1043.5,-95"/>
<polygon fill="none" stroke="#2c3e50" points="1043.5,-95 1043.5,-120 1144.5,-120 1144.5,-95 1043.5,-95"/>
<text text-anchor="start" x="1048.5" y="-104.8" font-family="monospace" font-style="italic" font-size="14.00" fill="#95a5a6">boolean</text>
<polygon fill="#ffffff" stroke="none" points="917.5,-70 917.5,-95 1043.5,-95 1043.5,-70 917.5,-70"/>
<polygon fill="none" stroke="#2c3e50" points="917.5,-70 917.5,-95 1043.5,-95 1043.5,-70 917.5,-70"/>
<text text-anchor="start" x="922.5" y="-78.8" font-family="monospace" font-size="14.00" fill="#000000">relfrozenxid</text>
<polygon fill="#ffffff" stroke="none" points="1043.5,-70 1043.5,-95 1144.5,-95 1144.5,-70 1043.5,-70"/>
<polygon fill="none" stroke="#2c3e50" points="1043.5,-70 1043.5,-95 1144.5,-95 1144.5,-70 1043.5,-70"/>
<text text-anchor="start" x="1048.5" y="-79.8" font-family="monospace" font-style="italic" font-size="14.00" fill="#95a5a6">xid</text>
<polygon fill="#ffffff" stroke="none" points="917.5,-45 917.5,-70 1043.5,-70 1043.5,-45 917.5,-45"/>
<polygon fill="none" stroke="#2c3e50" points="917.5,-45 917.5,-70 1043.5,-70 1043.5,-45 917.5,-45"/>
<text text-anchor="start" x="922.5" y="-53.8" font-family="monospace" font-size="14.00" fill="#000000">relacl</text>
<polygon fill="#ffffff" stroke="none" points="1043.5,-45 1043.5,-70 1144.5,-70 1144.5,-45 1043.5,-45"/>
<polygon fill="none" stroke="#2c3e50" points="1043.5,-45 1043.5,-70 1144.5,-70 1144.5,-45 1043.5,-45"/>
<text text-anchor="start" x="1048.5" y="-54.8" font-family="monospace" font-style="italic" font-size="14.00" fill="#95a5a6">aclitem[]</text>
<polygon fill="#ffffff" stroke="none" points="917.5,-20 917.5,-45 1043.5,-45 1043.5,-20 917.5,-20"/>
<polygon fill="none" stroke="#2c3e50" points="917.5,-20 917.5,-45 1043.5,-45 1043.5,-20 917.5,-20"/>
<text text-anchor="start" x="922.5" y="-28.8" font-family="monospace" font-size="14.00" fill="#000000">reloptions</text>
<polygon fill="#ffffff" stroke="none" points="1043.5,-20 1043.5,-45 1144.5,-45 1144.5,-20 1043.5,-20"/>
<polygon fill="none" stroke="#2c3e50" points="1043.5,-20 1043.5,-45 1144.5,-45 1144.5,-20 1043.5,-20"/>
<text text-anchor="start" x="1048.5" y="-29.8" font-family="monospace" font-style="italic" font-size="14.00" fill="#95a5a6">text[]</text>
</a>
</g>
</g>
<!-- gp_fastsequence&#45;&gt;pg_class -->
<g id="edge1" class="edge"><title>gp_fastsequence:objid_out&#45;&gt;pg_class:oid_in</title>
<path fill="none" stroke="#2c3e50" d="M427,-783C641.156,-783 697.205,-783 906.42,-783"/>
<polygon fill="#2c3e50" stroke="#2c3e50" points="906.5,-786.5 916.5,-783 906.5,-779.5 906.5,-786.5"/>
</g>
</g>
</svg>
