<?xml version="1.0" encoding="UTF-8" standalone="no"?>
<!DOCTYPE svg PUBLIC "-//W3C//DTD SVG 1.1//EN"
 "http://www.w3.org/Graphics/SVG/1.1/DTD/svg11.dtd">
<!-- Generated by graphviz version 2.38.0 (20140413.2041)
 -->
<!-- Title: GPDB Pages: 1 -->
<svg width="798pt" height="254pt"
 viewBox="0.00 0.00 798.00 254.00" xmlns="http://www.w3.org/2000/svg" xmlns:xlink="http://www.w3.org/1999/xlink">
<g id="graph0" class="graph" transform="scale(1 1) rotate(0) translate(36 218)">
<title>GPDB</title>
<polygon fill="white" stroke="none" points="-36,36 -36,-218 762,-218 762,36 -36,36"/>
<text text-anchor="middle" x="363" y="-152.4" font-family="Helvetica,sans-Serif" font-size="32.00">Greenplum System Catalog: gp_global_sequence</text>
<g id="clust2" class="cluster"><title>cluster_selected</title>
</g>
<!-- gp_global_sequence -->
<g id="node1" class="node"><title>gp_global_sequence</title>
<polygon fill="#2c3e50" stroke="none" points="263,-45 263,-75 463,-75 463,-45 263,-45"/>
<polygon fill="none" stroke="black" points="263,-45 263,-75 463,-75 463,-45 263,-45"/>
<text text-anchor="start" x="268" y="-56.6" font-family="monospace" font-weight="bold" font-size="18.00" fill="#ffffff">gp_global_sequence</text>
<polygon fill="#ffffff" stroke="none" points="263,-20 263,-45 388,-45 388,-20 263,-20"/>
<polygon fill="none" stroke="#2c3e50" points="263,-20 263,-45 388,-45 388,-20 263,-20"/>
<text text-anchor="start" x="268" y="-28.8" font-family="monospace" font-size="14.00" fill="#000000">sequence_num</text>
<polygon fill="#ffffff" stroke="none" points="388,-20 388,-45 463,-45 463,-20 388,-20"/>
<polygon fill="none" stroke="#2c3e50" points="388,-20 388,-45 463,-45 463,-20 388,-20"/>
<text text-anchor="start" x="393" y="-29.8" font-family="monospace" font-style="italic" font-size="14.00" fill="#95a5a6">bigint</text>
</g>
</g>
</svg>
