<?xml version="1.0" encoding="UTF-8" standalone="no"?>
<!DOCTYPE svg PUBLIC "-//W3C//DTD SVG 1.1//EN"
 "http://www.w3.org/Graphics/SVG/1.1/DTD/svg11.dtd">
<!-- Generated by graphviz version 2.38.0 (20140413.2041)
 -->
<!-- Title: GPDB Pages: 1 -->
<svg width="580pt" height="328pt"
 viewBox="0.00 0.00 580.00 328.00" xmlns="http://www.w3.org/2000/svg" xmlns:xlink="http://www.w3.org/1999/xlink">
<g id="graph0" class="graph" transform="scale(1 1) rotate(0) translate(36 292)">
<title>GPDB</title>
<polygon fill="white" stroke="none" points="-36,36 -36,-292 544,-292 544,36 -36,36"/>
<text text-anchor="middle" x="254" y="-226.4" font-family="Helvetica,sans-Serif" font-size="32.00">Greenplum System Catalog: gp_id</text>
<g id="clust2" class="cluster"><title>cluster_selected</title>
</g>
<!-- gp_id -->
<g id="node1" class="node"><title>gp_id</title>
<g id="a_node1"><a xlink:href="gp_id.svg" xlink:title="&lt;TABLE&gt;">
<polygon fill="#2c3e50" stroke="none" points="165,-120 165,-150 343,-150 343,-120 165,-120"/>
<polygon fill="none" stroke="black" points="165,-120 165,-150 343,-150 343,-120 165,-120"/>
<text text-anchor="start" x="227.5" y="-131.6" font-family="monospace" font-weight="bold" font-size="18.00" fill="#ffffff">gp_id</text>
<polygon fill="#ffffff" stroke="none" points="165,-95 165,-120 266,-120 266,-95 165,-95"/>
<polygon fill="none" stroke="#2c3e50" points="165,-95 165,-120 266,-120 266,-95 165,-95"/>
<text text-anchor="start" x="170" y="-103.8" font-family="monospace" font-size="14.00" fill="#000000">gpname</text>
<polygon fill="#ffffff" stroke="none" points="266,-95 266,-120 343,-120 343,-95 266,-95"/>
<polygon fill="none" stroke="#2c3e50" points="266,-95 266,-120 343,-120 343,-95 266,-95"/>
<text text-anchor="start" x="271" y="-104.8" font-family="monospace" font-style="italic" font-size="14.00" fill="#95a5a6">name</text>
<polygon fill="#ffffff" stroke="none" points="165,-70 165,-95 266,-95 266,-70 165,-70"/>
<polygon fill="none" stroke="#2c3e50" points="165,-70 165,-95 266,-95 266,-70 165,-70"/>
<text text-anchor="start" x="170" y="-78.8" font-family="monospace" font-size="14.00" fill="#000000">numsegments</text>
<polygon fill="#ffffff" stroke="none" points="266,-70 266,-95 343,-95 343,-70 266,-70"/>
<polygon fill="none" stroke="#2c3e50" points="266,-70 266,-95 343,-95 343,-70 266,-70"/>
<text text-anchor="start" x="271" y="-79.8" font-family="monospace" font-style="italic" font-size="14.00" fill="#95a5a6">smallint</text>
<polygon fill="#ffffff" stroke="none" points="165,-45 165,-70 266,-70 266,-45 165,-45"/>
<polygon fill="none" stroke="#2c3e50" points="165,-45 165,-70 266,-70 266,-45 165,-45"/>
<text text-anchor="start" x="170" y="-53.8" font-family="monospace" font-size="14.00" fill="#000000">dbid</text>
<polygon fill="#ffffff" stroke="none" points="266,-45 266,-70 343,-70 343,-45 266,-45"/>
<polygon fill="none" stroke="#2c3e50" points="266,-45 266,-70 343,-70 343,-45 266,-45"/>
<text text-anchor="start" x="271" y="-54.8" font-family="monospace" font-style="italic" font-size="14.00" fill="#95a5a6">smallint</text>
<polygon fill="#ffffff" stroke="none" points="165,-20 165,-45 266,-45 266,-20 165,-20"/>
<polygon fill="none" stroke="#2c3e50" points="165,-20 165,-45 266,-45 266,-20 165,-20"/>
<text text-anchor="start" x="170" y="-28.8" font-family="monospace" font-size="14.00" fill="#000000">content</text>
<polygon fill="#ffffff" stroke="none" points="266,-20 266,-45 343,-45 343,-20 266,-20"/>
<polygon fill="none" stroke="#2c3e50" points="266,-20 266,-45 343,-45 343,-20 266,-20"/>
<text text-anchor="start" x="271" y="-29.8" font-family="monospace" font-style="italic" font-size="14.00" fill="#95a5a6">smallint</text>
</a>
</g>
</g>
</g>
</svg>
