<?xml version="1.0" encoding="UTF-8" standalone="no"?>
<!DOCTYPE svg PUBLIC "-//W3C//DTD SVG 1.1//EN"
 "http://www.w3.org/Graphics/SVG/1.1/DTD/svg11.dtd">
<!-- Generated by graphviz version 2.38.0 (20140413.2041)
 -->
<!-- Title: GPDB Pages: 1 -->
<svg width="694pt" height="304pt"
 viewBox="0.00 0.00 694.00 304.00" xmlns="http://www.w3.org/2000/svg" xmlns:xlink="http://www.w3.org/1999/xlink">
<g id="graph0" class="graph" transform="scale(1 1) rotate(0) translate(36 268)">
<title>GPDB</title>
<polygon fill="white" stroke="none" points="-36,36 -36,-268 658,-268 658,36 -36,36"/>
<text text-anchor="middle" x="311" y="-202.4" font-family="Helvetica,sans-Serif" font-size="32.00">Greenplum System Catalog: gp_interfaces</text>
<g id="clust2" class="cluster"><title>cluster_selected</title>
</g>
<!-- gp_interfaces -->
<g id="node1" class="node"><title>gp_interfaces</title>
<polygon fill="#2c3e50" stroke="none" points="222,-95 222,-125 400,-125 400,-95 222,-95"/>
<polygon fill="none" stroke="black" points="222,-95 222,-125 400,-125 400,-95 222,-95"/>
<text text-anchor="start" x="242.5" y="-106.6" font-family="monospace" font-weight="bold" font-size="18.00" fill="#ffffff">gp_interfaces</text>
<polygon fill="#ffffff" stroke="none" points="222,-70 222,-95 323,-95 323,-70 222,-70"/>
<polygon fill="none" stroke="#2c3e50" points="222,-70 222,-95 323,-95 323,-70 222,-70"/>
<text text-anchor="start" x="227" y="-78.8" font-family="monospace" font-size="14.00" fill="#000000">interfaceid</text>
<polygon fill="#ffffff" stroke="none" points="323,-70 323,-95 400,-95 400,-70 323,-70"/>
<polygon fill="none" stroke="#2c3e50" points="323,-70 323,-95 400,-95 400,-70 323,-70"/>
<text text-anchor="start" x="328" y="-79.8" font-family="monospace" font-style="italic" font-size="14.00" fill="#95a5a6">smallint</text>
<polygon fill="#ffffff" stroke="none" points="222,-45 222,-70 323,-70 323,-45 222,-45"/>
<polygon fill="none" stroke="#2c3e50" points="222,-45 222,-70 323,-70 323,-45 222,-45"/>
<text text-anchor="start" x="227" y="-53.8" font-family="monospace" font-size="14.00" fill="#000000">address</text>
<polygon fill="#ffffff" stroke="none" points="323,-45 323,-70 400,-70 400,-45 323,-45"/>
<polygon fill="none" stroke="#2c3e50" points="323,-45 323,-70 400,-70 400,-45 323,-45"/>
<text text-anchor="start" x="328" y="-54.8" font-family="monospace" font-style="italic" font-size="14.00" fill="#95a5a6">name</text>
<polygon fill="#ffffff" stroke="none" points="222,-20 222,-45 323,-45 323,-20 222,-20"/>
<polygon fill="none" stroke="#2c3e50" points="222,-20 222,-45 323,-45 323,-20 222,-20"/>
<text text-anchor="start" x="227" y="-28.8" font-family="monospace" font-size="14.00" fill="#000000">status</text>
<polygon fill="#ffffff" stroke="none" points="323,-20 323,-45 400,-45 400,-20 323,-20"/>
<polygon fill="none" stroke="#2c3e50" points="323,-20 323,-45 400,-45 400,-20 323,-20"/>
<text text-anchor="start" x="328" y="-29.8" font-family="monospace" font-style="italic" font-size="14.00" fill="#95a5a6">smallint</text>
</g>
</g>
</svg>
