<?xml version="1.0" encoding="UTF-8" standalone="no"?>
<!DOCTYPE svg PUBLIC "-//W3C//DTD SVG 1.1//EN"
 "http://www.w3.org/Graphics/SVG/1.1/DTD/svg11.dtd">
<!-- Generated by graphviz version 2.38.0 (20140413.2041)
 -->
<!-- Title: GPDB Pages: 1 -->
<svg width="928pt" height="528pt"
 viewBox="0.00 0.00 928.00 528.00" xmlns="http://www.w3.org/2000/svg" xmlns:xlink="http://www.w3.org/1999/xlink">
<g id="graph0" class="graph" transform="scale(1 1) rotate(0) translate(36 492)">
<title>GPDB</title>
<polygon fill="white" stroke="none" points="-36,36 -36,-492 892,-492 892,36 -36,36"/>
<text text-anchor="middle" x="428" y="-426.4" font-family="Helvetica,sans-Serif" font-size="32.00">Greenplum System Catalog: gp_persistent_filespace_node</text>
<g id="clust2" class="cluster"><title>cluster_selected</title>
</g>
<!-- gp_persistent_filespace_node -->
<g id="node1" class="node"><title>gp_persistent_filespace_node</title>
<g id="a_node1"><a xlink:href="gp_persistent_filespace_node.svg" xlink:title="&lt;TABLE&gt;">
<polygon fill="#2c3e50" stroke="none" points="202.5,-320 202.5,-350 653.5,-350 653.5,-320 202.5,-320"/>
<polygon fill="none" stroke="black" points="202.5,-320 202.5,-350 653.5,-350 653.5,-320 202.5,-320"/>
<text text-anchor="start" x="280.5" y="-331.6" font-family="monospace" font-weight="bold" font-size="18.00" fill="#ffffff">gp_persistent_filespace_node</text>
<polygon fill="#ffffff" stroke="none" points="202.5,-295 202.5,-320 576.5,-320 576.5,-295 202.5,-295"/>
<polygon fill="none" stroke="#2c3e50" points="202.5,-295 202.5,-320 576.5,-320 576.5,-295 202.5,-295"/>
<text text-anchor="start" x="207.5" y="-303.8" font-family="monospace" font-size="14.00" fill="#000000">filespace_oid</text>
<polygon fill="#ffffff" stroke="none" points="576.5,-295 576.5,-320 653.5,-320 653.5,-295 576.5,-295"/>
<polygon fill="none" stroke="#2c3e50" points="576.5,-295 576.5,-320 653.5,-320 653.5,-295 576.5,-295"/>
<text text-anchor="start" x="581.5" y="-304.8" font-family="monospace" font-style="italic" font-size="14.00" fill="#95a5a6">oid</text>
<polygon fill="#ffffff" stroke="none" points="202.5,-270 202.5,-295 576.5,-295 576.5,-270 202.5,-270"/>
<polygon fill="none" stroke="#2c3e50" points="202.5,-270 202.5,-295 576.5,-295 576.5,-270 202.5,-270"/>
<text text-anchor="start" x="207.5" y="-278.8" font-family="monospace" font-size="14.00" fill="#000000">db_id_1</text>
<polygon fill="#ffffff" stroke="none" points="576.5,-270 576.5,-295 653.5,-295 653.5,-270 576.5,-270"/>
<polygon fill="none" stroke="#2c3e50" points="576.5,-270 576.5,-295 653.5,-295 653.5,-270 576.5,-270"/>
<text text-anchor="start" x="581.5" y="-279.8" font-family="monospace" font-style="italic" font-size="14.00" fill="#95a5a6">smallint</text>
<polygon fill="#ffffff" stroke="none" points="202.5,-245 202.5,-270 576.5,-270 576.5,-245 202.5,-245"/>
<polygon fill="none" stroke="#2c3e50" points="202.5,-245 202.5,-270 576.5,-270 576.5,-245 202.5,-245"/>
<text text-anchor="start" x="207.5" y="-253.8" font-family="monospace" font-size="14.00" fill="#000000">location_1</text>
<polygon fill="#ffffff" stroke="none" points="576.5,-245 576.5,-270 653.5,-270 653.5,-245 576.5,-245"/>
<polygon fill="none" stroke="#2c3e50" points="576.5,-245 576.5,-270 653.5,-270 653.5,-245 576.5,-245"/>
<text text-anchor="start" x="581.5" y="-254.8" font-family="monospace" font-style="italic" font-size="14.00" fill="#95a5a6">text</text>
<polygon fill="#ffffff" stroke="none" points="202.5,-220 202.5,-245 576.5,-245 576.5,-220 202.5,-220"/>
<polygon fill="none" stroke="#2c3e50" points="202.5,-220 202.5,-245 576.5,-245 576.5,-220 202.5,-220"/>
<text text-anchor="start" x="207.5" y="-228.8" font-family="monospace" font-size="14.00" fill="#000000">db_id_2</text>
<polygon fill="#ffffff" stroke="none" points="576.5,-220 576.5,-245 653.5,-245 653.5,-220 576.5,-220"/>
<polygon fill="none" stroke="#2c3e50" points="576.5,-220 576.5,-245 653.5,-245 653.5,-220 576.5,-220"/>
<text text-anchor="start" x="581.5" y="-229.8" font-family="monospace" font-style="italic" font-size="14.00" fill="#95a5a6">smallint</text>
<polygon fill="#ffffff" stroke="none" points="202.5,-195 202.5,-220 576.5,-220 576.5,-195 202.5,-195"/>
<polygon fill="none" stroke="#2c3e50" points="202.5,-195 202.5,-220 576.5,-220 576.5,-195 202.5,-195"/>
<text text-anchor="start" x="207.5" y="-203.8" font-family="monospace" font-size="14.00" fill="#000000">location_2</text>
<polygon fill="#ffffff" stroke="none" points="576.5,-195 576.5,-220 653.5,-220 653.5,-195 576.5,-195"/>
<polygon fill="none" stroke="#2c3e50" points="576.5,-195 576.5,-220 653.5,-220 653.5,-195 576.5,-195"/>
<text text-anchor="start" x="581.5" y="-204.8" font-family="monospace" font-style="italic" font-size="14.00" fill="#95a5a6">text</text>
<polygon fill="#ffffff" stroke="none" points="202.5,-170 202.5,-195 576.5,-195 576.5,-170 202.5,-170"/>
<polygon fill="none" stroke="#2c3e50" points="202.5,-170 202.5,-195 576.5,-195 576.5,-170 202.5,-170"/>
<text text-anchor="start" x="207.5" y="-178.8" font-family="monospace" font-size="14.00" fill="#000000">persistent_state</text>
<polygon fill="#ffffff" stroke="none" points="576.5,-170 576.5,-195 653.5,-195 653.5,-170 576.5,-170"/>
<polygon fill="none" stroke="#2c3e50" points="576.5,-170 576.5,-195 653.5,-195 653.5,-170 576.5,-170"/>
<text text-anchor="start" x="581.5" y="-179.8" font-family="monospace" font-style="italic" font-size="14.00" fill="#95a5a6">smallint</text>
<polygon fill="#ffffff" stroke="none" points="202.5,-145 202.5,-170 576.5,-170 576.5,-145 202.5,-145"/>
<polygon fill="none" stroke="#2c3e50" points="202.5,-145 202.5,-170 576.5,-170 576.5,-145 202.5,-145"/>
<text text-anchor="start" x="207.5" y="-153.8" font-family="monospace" font-size="14.00" fill="#000000">create_mirror_data_loss_tracking_session_num</text>
<polygon fill="#ffffff" stroke="none" points="576.5,-145 576.5,-170 653.5,-170 653.5,-145 576.5,-145"/>
<polygon fill="none" stroke="#2c3e50" points="576.5,-145 576.5,-170 653.5,-170 653.5,-145 576.5,-145"/>
<text text-anchor="start" x="581.5" y="-154.8" font-family="monospace" font-style="italic" font-size="14.00" fill="#95a5a6">bigint</text>
<polygon fill="#ffffff" stroke="none" points="202.5,-120 202.5,-145 576.5,-145 576.5,-120 202.5,-120"/>
<polygon fill="none" stroke="#2c3e50" points="202.5,-120 202.5,-145 576.5,-145 576.5,-120 202.5,-120"/>
<text text-anchor="start" x="207.5" y="-128.8" font-family="monospace" font-size="14.00" fill="#000000">mirror_existence_state</text>
<polygon fill="#ffffff" stroke="none" points="576.5,-120 576.5,-145 653.5,-145 653.5,-120 576.5,-120"/>
<polygon fill="none" stroke="#2c3e50" points="576.5,-120 576.5,-145 653.5,-145 653.5,-120 576.5,-120"/>
<text text-anchor="start" x="581.5" y="-129.8" font-family="monospace" font-style="italic" font-size="14.00" fill="#95a5a6">smallint</text>
<polygon fill="#ffffff" stroke="none" points="202.5,-95 202.5,-120 576.5,-120 576.5,-95 202.5,-95"/>
<polygon fill="none" stroke="#2c3e50" points="202.5,-95 202.5,-120 576.5,-120 576.5,-95 202.5,-95"/>
<text text-anchor="start" x="207.5" y="-103.8" font-family="monospace" font-size="14.00" fill="#000000">reserved</text>
<polygon fill="#ffffff" stroke="none" points="576.5,-95 576.5,-120 653.5,-120 653.5,-95 576.5,-95"/>
<polygon fill="none" stroke="#2c3e50" points="576.5,-95 576.5,-120 653.5,-120 653.5,-95 576.5,-95"/>
<text text-anchor="start" x="581.5" y="-104.8" font-family="monospace" font-style="italic" font-size="14.00" fill="#95a5a6">integer</text>
<polygon fill="#ffffff" stroke="none" points="202.5,-70 202.5,-95 576.5,-95 576.5,-70 202.5,-70"/>
<polygon fill="none" stroke="#2c3e50" points="202.5,-70 202.5,-95 576.5,-95 576.5,-70 202.5,-70"/>
<text text-anchor="start" x="207.5" y="-78.8" font-family="monospace" font-size="14.00" fill="#000000">parent_xid</text>
<polygon fill="#ffffff" stroke="none" points="576.5,-70 576.5,-95 653.5,-95 653.5,-70 576.5,-70"/>
<polygon fill="none" stroke="#2c3e50" points="576.5,-70 576.5,-95 653.5,-95 653.5,-70 576.5,-70"/>
<text text-anchor="start" x="581.5" y="-79.8" font-family="monospace" font-style="italic" font-size="14.00" fill="#95a5a6">integer</text>
<polygon fill="#ffffff" stroke="none" points="202.5,-45 202.5,-70 576.5,-70 576.5,-45 202.5,-45"/>
<polygon fill="none" stroke="#2c3e50" points="202.5,-45 202.5,-70 576.5,-70 576.5,-45 202.5,-45"/>
<text text-anchor="start" x="207.5" y="-53.8" font-family="monospace" font-size="14.00" fill="#000000">persistent_serial_num</text>
<polygon fill="#ffffff" stroke="none" points="576.5,-45 576.5,-70 653.5,-70 653.5,-45 576.5,-45"/>
<polygon fill="none" stroke="#2c3e50" points="576.5,-45 576.5,-70 653.5,-70 653.5,-45 576.5,-45"/>
<text text-anchor="start" x="581.5" y="-54.8" font-family="monospace" font-style="italic" font-size="14.00" fill="#95a5a6">bigint</text>
<polygon fill="#ffffff" stroke="none" points="202.5,-20 202.5,-45 576.5,-45 576.5,-20 202.5,-20"/>
<polygon fill="none" stroke="#2c3e50" points="202.5,-20 202.5,-45 576.5,-45 576.5,-20 202.5,-20"/>
<text text-anchor="start" x="207.5" y="-28.8" font-family="monospace" font-size="14.00" fill="#000000">previous_free_tid</text>
<polygon fill="#ffffff" stroke="none" points="576.5,-20 576.5,-45 653.5,-45 653.5,-20 576.5,-20"/>
<polygon fill="none" stroke="#2c3e50" points="576.5,-20 576.5,-45 653.5,-45 653.5,-20 576.5,-20"/>
<text text-anchor="start" x="581.5" y="-29.8" font-family="monospace" font-style="italic" font-size="14.00" fill="#95a5a6">tid</text>
</a>
</g>
</g>
</g>
</svg>
