<?xml version="1.0" encoding="UTF-8" standalone="no"?>
<!DOCTYPE svg PUBLIC "-//W3C//DTD SVG 1.1//EN"
 "http://www.w3.org/Graphics/SVG/1.1/DTD/svg11.dtd">
<!-- Generated by graphviz version 2.38.0 (20140413.2041)
 -->
<!-- Title: GPDB Pages: 1 -->
<svg width="957pt" height="454pt"
 viewBox="0.00 0.00 957.00 454.00" xmlns="http://www.w3.org/2000/svg" xmlns:xlink="http://www.w3.org/1999/xlink">
<g id="graph0" class="graph" transform="scale(1 1) rotate(0) translate(36 418)">
<title>GPDB</title>
<polygon fill="white" stroke="none" points="-36,36 -36,-418 921,-418 921,36 -36,36"/>
<text text-anchor="middle" x="442.5" y="-352.4" font-family="Helvetica,sans-Serif" font-size="32.00">Greenplum System Catalog: gp_persistent_tablespace_node</text>
<g id="clust2" class="cluster"><title>cluster_selected</title>
</g>
<!-- gp_persistent_tablespace_node -->
<g id="node1" class="node"><title>gp_persistent_tablespace_node</title>
<g id="a_node1"><a xlink:href="gp_persistent_tablespace_node.svg" xlink:title="&lt;TABLE&gt;">
<polygon fill="#2c3e50" stroke="none" points="217.5,-245 217.5,-275 668.5,-275 668.5,-245 217.5,-245"/>
<polygon fill="none" stroke="black" points="217.5,-245 217.5,-275 668.5,-275 668.5,-245 217.5,-245"/>
<text text-anchor="start" x="290.5" y="-256.6" font-family="monospace" font-weight="bold" font-size="18.00" fill="#ffffff">gp_persistent_tablespace_node</text>
<polygon fill="#ffffff" stroke="none" points="217.5,-220 217.5,-245 591.5,-245 591.5,-220 217.5,-220"/>
<polygon fill="none" stroke="#2c3e50" points="217.5,-220 217.5,-245 591.5,-245 591.5,-220 217.5,-220"/>
<text text-anchor="start" x="222.5" y="-228.8" font-family="monospace" font-size="14.00" fill="#000000">filespace_oid</text>
<polygon fill="#ffffff" stroke="none" points="591.5,-220 591.5,-245 668.5,-245 668.5,-220 591.5,-220"/>
<polygon fill="none" stroke="#2c3e50" points="591.5,-220 591.5,-245 668.5,-245 668.5,-220 591.5,-220"/>
<text text-anchor="start" x="596.5" y="-229.8" font-family="monospace" font-style="italic" font-size="14.00" fill="#95a5a6">oid</text>
<polygon fill="#ffffff" stroke="none" points="217.5,-195 217.5,-220 591.5,-220 591.5,-195 217.5,-195"/>
<polygon fill="none" stroke="#2c3e50" points="217.5,-195 217.5,-220 591.5,-220 591.5,-195 217.5,-195"/>
<text text-anchor="start" x="222.5" y="-203.8" font-family="monospace" font-size="14.00" fill="#000000">tablespace_oid</text>
<polygon fill="#ffffff" stroke="none" points="591.5,-195 591.5,-220 668.5,-220 668.5,-195 591.5,-195"/>
<polygon fill="none" stroke="#2c3e50" points="591.5,-195 591.5,-220 668.5,-220 668.5,-195 591.5,-195"/>
<text text-anchor="start" x="596.5" y="-204.8" font-family="monospace" font-style="italic" font-size="14.00" fill="#95a5a6">oid</text>
<polygon fill="#ffffff" stroke="none" points="217.5,-170 217.5,-195 591.5,-195 591.5,-170 217.5,-170"/>
<polygon fill="none" stroke="#2c3e50" points="217.5,-170 217.5,-195 591.5,-195 591.5,-170 217.5,-170"/>
<text text-anchor="start" x="222.5" y="-178.8" font-family="monospace" font-size="14.00" fill="#000000">persistent_state</text>
<polygon fill="#ffffff" stroke="none" points="591.5,-170 591.5,-195 668.5,-195 668.5,-170 591.5,-170"/>
<polygon fill="none" stroke="#2c3e50" points="591.5,-170 591.5,-195 668.5,-195 668.5,-170 591.5,-170"/>
<text text-anchor="start" x="596.5" y="-179.8" font-family="monospace" font-style="italic" font-size="14.00" fill="#95a5a6">smallint</text>
<polygon fill="#ffffff" stroke="none" points="217.5,-145 217.5,-170 591.5,-170 591.5,-145 217.5,-145"/>
<polygon fill="none" stroke="#2c3e50" points="217.5,-145 217.5,-170 591.5,-170 591.5,-145 217.5,-145"/>
<text text-anchor="start" x="222.5" y="-153.8" font-family="monospace" font-size="14.00" fill="#000000">create_mirror_data_loss_tracking_session_num</text>
<polygon fill="#ffffff" stroke="none" points="591.5,-145 591.5,-170 668.5,-170 668.5,-145 591.5,-145"/>
<polygon fill="none" stroke="#2c3e50" points="591.5,-145 591.5,-170 668.5,-170 668.5,-145 591.5,-145"/>
<text text-anchor="start" x="596.5" y="-154.8" font-family="monospace" font-style="italic" font-size="14.00" fill="#95a5a6">bigint</text>
<polygon fill="#ffffff" stroke="none" points="217.5,-120 217.5,-145 591.5,-145 591.5,-120 217.5,-120"/>
<polygon fill="none" stroke="#2c3e50" points="217.5,-120 217.5,-145 591.5,-145 591.5,-120 217.5,-120"/>
<text text-anchor="start" x="222.5" y="-128.8" font-family="monospace" font-size="14.00" fill="#000000">mirror_existence_state</text>
<polygon fill="#ffffff" stroke="none" points="591.5,-120 591.5,-145 668.5,-145 668.5,-120 591.5,-120"/>
<polygon fill="none" stroke="#2c3e50" points="591.5,-120 591.5,-145 668.5,-145 668.5,-120 591.5,-120"/>
<text text-anchor="start" x="596.5" y="-129.8" font-family="monospace" font-style="italic" font-size="14.00" fill="#95a5a6">smallint</text>
<polygon fill="#ffffff" stroke="none" points="217.5,-95 217.5,-120 591.5,-120 591.5,-95 217.5,-95"/>
<polygon fill="none" stroke="#2c3e50" points="217.5,-95 217.5,-120 591.5,-120 591.5,-95 217.5,-95"/>
<text text-anchor="start" x="222.5" y="-103.8" font-family="monospace" font-size="14.00" fill="#000000">reserved</text>
<polygon fill="#ffffff" stroke="none" points="591.5,-95 591.5,-120 668.5,-120 668.5,-95 591.5,-95"/>
<polygon fill="none" stroke="#2c3e50" points="591.5,-95 591.5,-120 668.5,-120 668.5,-95 591.5,-95"/>
<text text-anchor="start" x="596.5" y="-104.8" font-family="monospace" font-style="italic" font-size="14.00" fill="#95a5a6">integer</text>
<polygon fill="#ffffff" stroke="none" points="217.5,-70 217.5,-95 591.5,-95 591.5,-70 217.5,-70"/>
<polygon fill="none" stroke="#2c3e50" points="217.5,-70 217.5,-95 591.5,-95 591.5,-70 217.5,-70"/>
<text text-anchor="start" x="222.5" y="-78.8" font-family="monospace" font-size="14.00" fill="#000000">parent_xid</text>
<polygon fill="#ffffff" stroke="none" points="591.5,-70 591.5,-95 668.5,-95 668.5,-70 591.5,-70"/>
<polygon fill="none" stroke="#2c3e50" points="591.5,-70 591.5,-95 668.5,-95 668.5,-70 591.5,-70"/>
<text text-anchor="start" x="596.5" y="-79.8" font-family="monospace" font-style="italic" font-size="14.00" fill="#95a5a6">integer</text>
<polygon fill="#ffffff" stroke="none" points="217.5,-45 217.5,-70 591.5,-70 591.5,-45 217.5,-45"/>
<polygon fill="none" stroke="#2c3e50" points="217.5,-45 217.5,-70 591.5,-70 591.5,-45 217.5,-45"/>
<text text-anchor="start" x="222.5" y="-53.8" font-family="monospace" font-size="14.00" fill="#000000">persistent_serial_num</text>
<polygon fill="#ffffff" stroke="none" points="591.5,-45 591.5,-70 668.5,-70 668.5,-45 591.5,-45"/>
<polygon fill="none" stroke="#2c3e50" points="591.5,-45 591.5,-70 668.5,-70 668.5,-45 591.5,-45"/>
<text text-anchor="start" x="596.5" y="-54.8" font-family="monospace" font-style="italic" font-size="14.00" fill="#95a5a6">bigint</text>
<polygon fill="#ffffff" stroke="none" points="217.5,-20 217.5,-45 591.5,-45 591.5,-20 217.5,-20"/>
<polygon fill="none" stroke="#2c3e50" points="217.5,-20 217.5,-45 591.5,-45 591.5,-20 217.5,-20"/>
<text text-anchor="start" x="222.5" y="-28.8" font-family="monospace" font-size="14.00" fill="#000000">previous_free_tid</text>
<polygon fill="#ffffff" stroke="none" points="591.5,-20 591.5,-45 668.5,-45 668.5,-20 591.5,-20"/>
<polygon fill="none" stroke="#2c3e50" points="591.5,-20 591.5,-45 668.5,-45 668.5,-20 591.5,-20"/>
<text text-anchor="start" x="596.5" y="-29.8" font-family="monospace" font-style="italic" font-size="14.00" fill="#95a5a6">tid</text>
</a>
</g>
</g>
</g>
</svg>
