<?xml version="1.0" encoding="UTF-8" standalone="no"?>
<!DOCTYPE svg PUBLIC "-//W3C//DTD SVG 1.1//EN"
 "http://www.w3.org/Graphics/SVG/1.1/DTD/svg11.dtd">
<!-- Generated by graphviz version 2.38.0 (20140413.2041)
 -->
<!-- Title: GPDB Pages: 1 -->
<svg width="907pt" height="704pt"
 viewBox="0.00 0.00 907.00 704.00" xmlns="http://www.w3.org/2000/svg" xmlns:xlink="http://www.w3.org/1999/xlink">
<g id="graph0" class="graph" transform="scale(1 1) rotate(0) translate(36 668)">
<title>GPDB</title>
<polygon fill="white" stroke="none" points="-36,36 -36,-668 871,-668 871,36 -36,36"/>
<text text-anchor="middle" x="417.5" y="-602.4" font-family="Helvetica,sans-Serif" font-size="32.00">Greenplum System Catalog: gp_persistent_relation_node</text>
<g id="clust2" class="cluster"><title>cluster_selected</title>
</g>
<!-- gp_persistent_relation_node -->
<g id="node1" class="node"><title>gp_persistent_relation_node</title>
<g id="a_node1"><a xlink:href="gp_persistent_relation_node.svg" xlink:title="&lt;TABLE&gt;">
<polygon fill="#2c3e50" stroke="none" points="167,-495 167,-525 667,-525 667,-495 167,-495"/>
<polygon fill="none" stroke="black" points="167,-495 167,-525 667,-525 667,-495 167,-495"/>
<text text-anchor="start" x="275" y="-506.6" font-family="monospace" font-weight="bold" font-size="18.00" fill="#ffffff">gp_persistent_relation_node</text>
<polygon fill="#ffffff" stroke="none" points="167,-470 167,-495 582,-495 582,-470 167,-470"/>
<polygon fill="none" stroke="#2c3e50" points="167,-470 167,-495 582,-495 582,-470 167,-470"/>
<text text-anchor="start" x="172" y="-478.8" font-family="monospace" font-size="14.00" fill="#000000">tablespace_oid</text>
<polygon fill="#ffffff" stroke="none" points="582,-470 582,-495 667,-495 667,-470 582,-470"/>
<polygon fill="none" stroke="#2c3e50" points="582,-470 582,-495 667,-495 667,-470 582,-470"/>
<text text-anchor="start" x="587" y="-479.8" font-family="monospace" font-style="italic" font-size="14.00" fill="#95a5a6">oid</text>
<polygon fill="#ffffff" stroke="none" points="167,-445 167,-470 582,-470 582,-445 167,-445"/>
<polygon fill="none" stroke="#2c3e50" points="167,-445 167,-470 582,-470 582,-445 167,-445"/>
<text text-anchor="start" x="172" y="-453.8" font-family="monospace" font-size="14.00" fill="#000000">database_oid</text>
<polygon fill="#ffffff" stroke="none" points="582,-445 582,-470 667,-470 667,-445 582,-445"/>
<polygon fill="none" stroke="#2c3e50" points="582,-445 582,-470 667,-470 667,-445 582,-445"/>
<text text-anchor="start" x="587" y="-454.8" font-family="monospace" font-style="italic" font-size="14.00" fill="#95a5a6">oid</text>
<polygon fill="#ffffff" stroke="none" points="167,-420 167,-445 582,-445 582,-420 167,-420"/>
<polygon fill="none" stroke="#2c3e50" points="167,-420 167,-445 582,-445 582,-420 167,-420"/>
<text text-anchor="start" x="172" y="-428.8" font-family="monospace" font-size="14.00" fill="#000000">relfilenode_oid</text>
<polygon fill="#ffffff" stroke="none" points="582,-420 582,-445 667,-445 667,-420 582,-420"/>
<polygon fill="none" stroke="#2c3e50" points="582,-420 582,-445 667,-445 667,-420 582,-420"/>
<text text-anchor="start" x="587" y="-429.8" font-family="monospace" font-style="italic" font-size="14.00" fill="#95a5a6">oid</text>
<polygon fill="#ffffff" stroke="none" points="167,-395 167,-420 582,-420 582,-395 167,-395"/>
<polygon fill="none" stroke="#2c3e50" points="167,-395 167,-420 582,-420 582,-395 167,-395"/>
<text text-anchor="start" x="172" y="-403.8" font-family="monospace" font-size="14.00" fill="#000000">segment_file_num</text>
<polygon fill="#ffffff" stroke="none" points="582,-395 582,-420 667,-420 667,-395 582,-395"/>
<polygon fill="none" stroke="#2c3e50" points="582,-395 582,-420 667,-420 667,-395 582,-395"/>
<text text-anchor="start" x="587" y="-404.8" font-family="monospace" font-style="italic" font-size="14.00" fill="#95a5a6">integer</text>
<polygon fill="#ffffff" stroke="none" points="167,-370 167,-395 582,-395 582,-370 167,-370"/>
<polygon fill="none" stroke="#2c3e50" points="167,-370 167,-395 582,-395 582,-370 167,-370"/>
<text text-anchor="start" x="172" y="-378.8" font-family="monospace" font-size="14.00" fill="#000000">relation_storage_manager</text>
<polygon fill="#ffffff" stroke="none" points="582,-370 582,-395 667,-395 667,-370 582,-370"/>
<polygon fill="none" stroke="#2c3e50" points="582,-370 582,-395 667,-395 667,-370 582,-370"/>
<text text-anchor="start" x="587" y="-379.8" font-family="monospace" font-style="italic" font-size="14.00" fill="#95a5a6">smallint</text>
<polygon fill="#ffffff" stroke="none" points="167,-345 167,-370 582,-370 582,-345 167,-345"/>
<polygon fill="none" stroke="#2c3e50" points="167,-345 167,-370 582,-370 582,-345 167,-345"/>
<text text-anchor="start" x="172" y="-353.8" font-family="monospace" font-size="14.00" fill="#000000">persistent_state</text>
<polygon fill="#ffffff" stroke="none" points="582,-345 582,-370 667,-370 667,-345 582,-345"/>
<polygon fill="none" stroke="#2c3e50" points="582,-345 582,-370 667,-370 667,-345 582,-345"/>
<text text-anchor="start" x="587" y="-354.8" font-family="monospace" font-style="italic" font-size="14.00" fill="#95a5a6">smallint</text>
<polygon fill="#ffffff" stroke="none" points="167,-320 167,-345 582,-345 582,-320 167,-320"/>
<polygon fill="none" stroke="#2c3e50" points="167,-320 167,-345 582,-345 582,-320 167,-320"/>
<text text-anchor="start" x="172" y="-328.8" font-family="monospace" font-size="14.00" fill="#000000">create_mirror_data_loss_tracking_session_num</text>
<polygon fill="#ffffff" stroke="none" points="582,-320 582,-345 667,-345 667,-320 582,-320"/>
<polygon fill="none" stroke="#2c3e50" points="582,-320 582,-345 667,-345 667,-320 582,-320"/>
<text text-anchor="start" x="587" y="-329.8" font-family="monospace" font-style="italic" font-size="14.00" fill="#95a5a6">bigint</text>
<polygon fill="#ffffff" stroke="none" points="167,-295 167,-320 582,-320 582,-295 167,-295"/>
<polygon fill="none" stroke="#2c3e50" points="167,-295 167,-320 582,-320 582,-295 167,-295"/>
<text text-anchor="start" x="172" y="-303.8" font-family="monospace" font-size="14.00" fill="#000000">mirror_existence_state</text>
<polygon fill="#ffffff" stroke="none" points="582,-295 582,-320 667,-320 667,-295 582,-295"/>
<polygon fill="none" stroke="#2c3e50" points="582,-295 582,-320 667,-320 667,-295 582,-295"/>
<text text-anchor="start" x="587" y="-304.8" font-family="monospace" font-style="italic" font-size="14.00" fill="#95a5a6">smallint</text>
<polygon fill="#ffffff" stroke="none" points="167,-270 167,-295 582,-295 582,-270 167,-270"/>
<polygon fill="none" stroke="#2c3e50" points="167,-270 167,-295 582,-295 582,-270 167,-270"/>
<text text-anchor="start" x="172" y="-278.8" font-family="monospace" font-size="14.00" fill="#000000">mirror_data_synchronization_state</text>
<polygon fill="#ffffff" stroke="none" points="582,-270 582,-295 667,-295 667,-270 582,-270"/>
<polygon fill="none" stroke="#2c3e50" points="582,-270 582,-295 667,-295 667,-270 582,-270"/>
<text text-anchor="start" x="587" y="-279.8" font-family="monospace" font-style="italic" font-size="14.00" fill="#95a5a6">smallint</text>
<polygon fill="#ffffff" stroke="none" points="167,-245 167,-270 582,-270 582,-245 167,-245"/>
<polygon fill="none" stroke="#2c3e50" points="167,-245 167,-270 582,-270 582,-245 167,-245"/>
<text text-anchor="start" x="172" y="-253.8" font-family="monospace" font-size="14.00" fill="#000000">mirror_bufpool_marked_for_scan_incremental_resync</text>
<polygon fill="#ffffff" stroke="none" points="582,-245 582,-270 667,-270 667,-245 582,-245"/>
<polygon fill="none" stroke="#2c3e50" points="582,-245 582,-270 667,-270 667,-245 582,-245"/>
<text text-anchor="start" x="587" y="-254.8" font-family="monospace" font-style="italic" font-size="14.00" fill="#95a5a6">boolean</text>
<polygon fill="#ffffff" stroke="none" points="167,-220 167,-245 582,-245 582,-220 167,-220"/>
<polygon fill="none" stroke="#2c3e50" points="167,-220 167,-245 582,-245 582,-220 167,-220"/>
<text text-anchor="start" x="172" y="-228.8" font-family="monospace" font-size="14.00" fill="#000000">mirror_bufpool_resync_changed_page_count</text>
<polygon fill="#ffffff" stroke="none" points="582,-220 582,-245 667,-245 667,-220 582,-220"/>
<polygon fill="none" stroke="#2c3e50" points="582,-220 582,-245 667,-245 667,-220 582,-220"/>
<text text-anchor="start" x="587" y="-229.8" font-family="monospace" font-style="italic" font-size="14.00" fill="#95a5a6">bigint</text>
<polygon fill="#ffffff" stroke="none" points="167,-195 167,-220 582,-220 582,-195 167,-195"/>
<polygon fill="none" stroke="#2c3e50" points="167,-195 167,-220 582,-220 582,-195 167,-195"/>
<text text-anchor="start" x="172" y="-203.8" font-family="monospace" font-size="14.00" fill="#000000">mirror_bufpool_resync_ckpt_loc</text>
<polygon fill="#ffffff" stroke="none" points="582,-195 582,-220 667,-220 667,-195 582,-195"/>
<polygon fill="none" stroke="#2c3e50" points="582,-195 582,-220 667,-220 667,-195 582,-195"/>
<text text-anchor="start" x="587" y="-204.8" font-family="monospace" font-style="italic" font-size="14.00" fill="#95a5a6">gpxlogloc</text>
<polygon fill="#ffffff" stroke="none" points="167,-170 167,-195 582,-195 582,-170 167,-170"/>
<polygon fill="none" stroke="#2c3e50" points="167,-170 167,-195 582,-195 582,-170 167,-170"/>
<text text-anchor="start" x="172" y="-178.8" font-family="monospace" font-size="14.00" fill="#000000">mirror_bufpool_resync_ckpt_block_num</text>
<polygon fill="#ffffff" stroke="none" points="582,-170 582,-195 667,-195 667,-170 582,-170"/>
<polygon fill="none" stroke="#2c3e50" points="582,-170 582,-195 667,-195 667,-170 582,-170"/>
<text text-anchor="start" x="587" y="-179.8" font-family="monospace" font-style="italic" font-size="14.00" fill="#95a5a6">integer</text>
<polygon fill="#ffffff" stroke="none" points="167,-145 167,-170 582,-170 582,-145 167,-145"/>
<polygon fill="none" stroke="#2c3e50" points="167,-145 167,-170 582,-170 582,-145 167,-145"/>
<text text-anchor="start" x="172" y="-153.8" font-family="monospace" font-size="14.00" fill="#000000">mirror_append_only_loss_eof</text>
<polygon fill="#ffffff" stroke="none" points="582,-145 582,-170 667,-170 667,-145 582,-145"/>
<polygon fill="none" stroke="#2c3e50" points="582,-145 582,-170 667,-170 667,-145 582,-145"/>
<text text-anchor="start" x="587" y="-154.8" font-family="monospace" font-style="italic" font-size="14.00" fill="#95a5a6">bigint</text>
<polygon fill="#ffffff" stroke="none" points="167,-120 167,-145 582,-145 582,-120 167,-120"/>
<polygon fill="none" stroke="#2c3e50" points="167,-120 167,-145 582,-145 582,-120 167,-120"/>
<text text-anchor="start" x="172" y="-128.8" font-family="monospace" font-size="14.00" fill="#000000">mirror_append_only_new_eof</text>
<polygon fill="#ffffff" stroke="none" points="582,-120 582,-145 667,-145 667,-120 582,-120"/>
<polygon fill="none" stroke="#2c3e50" points="582,-120 582,-145 667,-145 667,-120 582,-120"/>
<text text-anchor="start" x="587" y="-129.8" font-family="monospace" font-style="italic" font-size="14.00" fill="#95a5a6">bigint</text>
<polygon fill="#ffffff" stroke="none" points="167,-95 167,-120 582,-120 582,-95 167,-95"/>
<polygon fill="none" stroke="#2c3e50" points="167,-95 167,-120 582,-120 582,-95 167,-95"/>
<text text-anchor="start" x="172" y="-103.8" font-family="monospace" font-size="14.00" fill="#000000">relation_bufpool_kind</text>
<polygon fill="#ffffff" stroke="none" points="582,-95 582,-120 667,-120 667,-95 582,-95"/>
<polygon fill="none" stroke="#2c3e50" points="582,-95 582,-120 667,-120 667,-95 582,-95"/>
<text text-anchor="start" x="587" y="-104.8" font-family="monospace" font-style="italic" font-size="14.00" fill="#95a5a6">integer</text>
<polygon fill="#ffffff" stroke="none" points="167,-70 167,-95 582,-95 582,-70 167,-70"/>
<polygon fill="none" stroke="#2c3e50" points="167,-70 167,-95 582,-95 582,-70 167,-70"/>
<text text-anchor="start" x="172" y="-78.8" font-family="monospace" font-size="14.00" fill="#000000">parent_xid</text>
<polygon fill="#ffffff" stroke="none" points="582,-70 582,-95 667,-95 667,-70 582,-70"/>
<polygon fill="none" stroke="#2c3e50" points="582,-70 582,-95 667,-95 667,-70 582,-70"/>
<text text-anchor="start" x="587" y="-79.8" font-family="monospace" font-style="italic" font-size="14.00" fill="#95a5a6">integer</text>
<polygon fill="#ffffff" stroke="none" points="167,-45 167,-70 582,-70 582,-45 167,-45"/>
<polygon fill="none" stroke="#2c3e50" points="167,-45 167,-70 582,-70 582,-45 167,-45"/>
<text text-anchor="start" x="172" y="-53.8" font-family="monospace" font-size="14.00" fill="#000000">persistent_serial_num</text>
<polygon fill="#ffffff" stroke="none" points="582,-45 582,-70 667,-70 667,-45 582,-45"/>
<polygon fill="none" stroke="#2c3e50" points="582,-45 582,-70 667,-70 667,-45 582,-45"/>
<text text-anchor="start" x="587" y="-54.8" font-family="monospace" font-style="italic" font-size="14.00" fill="#95a5a6">bigint</text>
<polygon fill="#ffffff" stroke="none" points="167,-20 167,-45 582,-45 582,-20 167,-20"/>
<polygon fill="none" stroke="#2c3e50" points="167,-20 167,-45 582,-45 582,-20 167,-20"/>
<text text-anchor="start" x="172" y="-28.8" font-family="monospace" font-size="14.00" fill="#000000">previous_free_tid</text>
<polygon fill="#ffffff" stroke="none" points="582,-20 582,-45 667,-45 667,-20 582,-20"/>
<polygon fill="none" stroke="#2c3e50" points="582,-20 582,-45 667,-45 667,-20 582,-20"/>
<text text-anchor="start" x="587" y="-29.8" font-family="monospace" font-style="italic" font-size="14.00" fill="#95a5a6">tid</text>
</a>
</g>
</g>
</g>
</svg>
