<?xml version="1.0" encoding="UTF-8" standalone="no"?>
<!DOCTYPE svg PUBLIC "-//W3C//DTD SVG 1.1//EN"
 "http://www.w3.org/Graphics/SVG/1.1/DTD/svg11.dtd">
<!-- Generated by graphviz version 2.38.0 (20140413.2041)
 -->
<!-- Title: GPDB Pages: 1 -->
<svg width="881pt" height="504pt"
 viewBox="0.00 0.00 881.00 504.00" xmlns="http://www.w3.org/2000/svg" xmlns:xlink="http://www.w3.org/1999/xlink">
<g id="graph0" class="graph" transform="scale(1 1) rotate(0) translate(36 468)">
<title>GPDB</title>
<polygon fill="white" stroke="none" points="-36,36 -36,-468 845,-468 845,36 -36,36"/>
<text text-anchor="middle" x="404.5" y="-402.4" font-family="Helvetica,sans-Serif" font-size="32.00">Greenplum System Catalog: gp_segment_configuration</text>
<g id="clust2" class="cluster"><title>cluster_selected</title>
</g>
<!-- gp_segment_configuration -->
<g id="node1" class="node"><title>gp_segment_configuration</title>
<g id="a_node1"><a xlink:href="gp_segment_configuration.svg" xlink:title="&lt;TABLE&gt;">
<polygon fill="#2c3e50" stroke="none" points="273.5,-295 273.5,-325 536.5,-325 536.5,-295 273.5,-295"/>
<polygon fill="none" stroke="black" points="273.5,-295 273.5,-325 536.5,-325 536.5,-295 273.5,-295"/>
<text text-anchor="start" x="278.5" y="-306.6" font-family="monospace" font-weight="bold" font-size="18.00" fill="#ffffff">gp_segment_configuration</text>
<polygon fill="#ffffff" stroke="none" points="273.5,-270 273.5,-295 425.5,-295 425.5,-270 273.5,-270"/>
<polygon fill="none" stroke="#2c3e50" points="273.5,-270 273.5,-295 425.5,-295 425.5,-270 273.5,-270"/>
<text text-anchor="start" x="278.5" y="-278.8" font-family="monospace" font-size="14.00" fill="#000000">dbid</text>
<polygon fill="#ffffff" stroke="none" points="425.5,-270 425.5,-295 536.5,-295 536.5,-270 425.5,-270"/>
<polygon fill="none" stroke="#2c3e50" points="425.5,-270 425.5,-295 536.5,-295 536.5,-270 425.5,-270"/>
<text text-anchor="start" x="430.5" y="-279.8" font-family="monospace" font-style="italic" font-size="14.00" fill="#95a5a6">smallint</text>
<polygon fill="#ffffff" stroke="none" points="273.5,-245 273.5,-270 425.5,-270 425.5,-245 273.5,-245"/>
<polygon fill="none" stroke="#2c3e50" points="273.5,-245 273.5,-270 425.5,-270 425.5,-245 273.5,-245"/>
<text text-anchor="start" x="278.5" y="-253.8" font-family="monospace" font-size="14.00" fill="#000000">content</text>
<polygon fill="#ffffff" stroke="none" points="425.5,-245 425.5,-270 536.5,-270 536.5,-245 425.5,-245"/>
<polygon fill="none" stroke="#2c3e50" points="425.5,-245 425.5,-270 536.5,-270 536.5,-245 425.5,-245"/>
<text text-anchor="start" x="430.5" y="-254.8" font-family="monospace" font-style="italic" font-size="14.00" fill="#95a5a6">smallint</text>
<polygon fill="#ffffff" stroke="none" points="273.5,-220 273.5,-245 425.5,-245 425.5,-220 273.5,-220"/>
<polygon fill="none" stroke="#2c3e50" points="273.5,-220 273.5,-245 425.5,-245 425.5,-220 273.5,-220"/>
<text text-anchor="start" x="278.5" y="-228.8" font-family="monospace" font-size="14.00" fill="#000000">role</text>
<polygon fill="#ffffff" stroke="none" points="425.5,-220 425.5,-245 536.5,-245 536.5,-220 425.5,-220"/>
<polygon fill="none" stroke="#2c3e50" points="425.5,-220 425.5,-245 536.5,-245 536.5,-220 425.5,-220"/>
<text text-anchor="start" x="430.5" y="-229.8" font-family="monospace" font-style="italic" font-size="14.00" fill="#95a5a6">quoted_char</text>
<polygon fill="#ffffff" stroke="none" points="273.5,-195 273.5,-220 425.5,-220 425.5,-195 273.5,-195"/>
<polygon fill="none" stroke="#2c3e50" points="273.5,-195 273.5,-220 425.5,-220 425.5,-195 273.5,-195"/>
<text text-anchor="start" x="278.5" y="-203.8" font-family="monospace" font-size="14.00" fill="#000000">preferred_role</text>
<polygon fill="#ffffff" stroke="none" points="425.5,-195 425.5,-220 536.5,-220 536.5,-195 425.5,-195"/>
<polygon fill="none" stroke="#2c3e50" points="425.5,-195 425.5,-220 536.5,-220 536.5,-195 425.5,-195"/>
<text text-anchor="start" x="430.5" y="-204.8" font-family="monospace" font-style="italic" font-size="14.00" fill="#95a5a6">quoted_char</text>
<polygon fill="#ffffff" stroke="none" points="273.5,-170 273.5,-195 425.5,-195 425.5,-170 273.5,-170"/>
<polygon fill="none" stroke="#2c3e50" points="273.5,-170 273.5,-195 425.5,-195 425.5,-170 273.5,-170"/>
<text text-anchor="start" x="278.5" y="-178.8" font-family="monospace" font-size="14.00" fill="#000000">mode</text>
<polygon fill="#ffffff" stroke="none" points="425.5,-170 425.5,-195 536.5,-195 536.5,-170 425.5,-170"/>
<polygon fill="none" stroke="#2c3e50" points="425.5,-170 425.5,-195 536.5,-195 536.5,-170 425.5,-170"/>
<text text-anchor="start" x="430.5" y="-179.8" font-family="monospace" font-style="italic" font-size="14.00" fill="#95a5a6">quoted_char</text>
<polygon fill="#ffffff" stroke="none" points="273.5,-145 273.5,-170 425.5,-170 425.5,-145 273.5,-145"/>
<polygon fill="none" stroke="#2c3e50" points="273.5,-145 273.5,-170 425.5,-170 425.5,-145 273.5,-145"/>
<text text-anchor="start" x="278.5" y="-153.8" font-family="monospace" font-size="14.00" fill="#000000">status</text>
<polygon fill="#ffffff" stroke="none" points="425.5,-145 425.5,-170 536.5,-170 536.5,-145 425.5,-145"/>
<polygon fill="none" stroke="#2c3e50" points="425.5,-145 425.5,-170 536.5,-170 536.5,-145 425.5,-145"/>
<text text-anchor="start" x="430.5" y="-154.8" font-family="monospace" font-style="italic" font-size="14.00" fill="#95a5a6">quoted_char</text>
<polygon fill="#ffffff" stroke="none" points="273.5,-120 273.5,-145 425.5,-145 425.5,-120 273.5,-120"/>
<polygon fill="none" stroke="#2c3e50" points="273.5,-120 273.5,-145 425.5,-145 425.5,-120 273.5,-120"/>
<text text-anchor="start" x="278.5" y="-128.8" font-family="monospace" font-size="14.00" fill="#000000">port</text>
<polygon fill="#ffffff" stroke="none" points="425.5,-120 425.5,-145 536.5,-145 536.5,-120 425.5,-120"/>
<polygon fill="none" stroke="#2c3e50" points="425.5,-120 425.5,-145 536.5,-145 536.5,-120 425.5,-120"/>
<text text-anchor="start" x="430.5" y="-129.8" font-family="monospace" font-style="italic" font-size="14.00" fill="#95a5a6">integer</text>
<polygon fill="#ffffff" stroke="none" points="273.5,-95 273.5,-120 425.5,-120 425.5,-95 273.5,-95"/>
<polygon fill="none" stroke="#2c3e50" points="273.5,-95 273.5,-120 425.5,-120 425.5,-95 273.5,-95"/>
<text text-anchor="start" x="278.5" y="-103.8" font-family="monospace" font-size="14.00" fill="#000000">hostname</text>
<polygon fill="#ffffff" stroke="none" points="425.5,-95 425.5,-120 536.5,-120 536.5,-95 425.5,-95"/>
<polygon fill="none" stroke="#2c3e50" points="425.5,-95 425.5,-120 536.5,-120 536.5,-95 425.5,-95"/>
<text text-anchor="start" x="430.5" y="-104.8" font-family="monospace" font-style="italic" font-size="14.00" fill="#95a5a6">text</text>
<polygon fill="#ffffff" stroke="none" points="273.5,-70 273.5,-95 425.5,-95 425.5,-70 273.5,-70"/>
<polygon fill="none" stroke="#2c3e50" points="273.5,-70 273.5,-95 425.5,-95 425.5,-70 273.5,-70"/>
<text text-anchor="start" x="278.5" y="-78.8" font-family="monospace" font-size="14.00" fill="#000000">address</text>
<polygon fill="#ffffff" stroke="none" points="425.5,-70 425.5,-95 536.5,-95 536.5,-70 425.5,-70"/>
<polygon fill="none" stroke="#2c3e50" points="425.5,-70 425.5,-95 536.5,-95 536.5,-70 425.5,-70"/>
<text text-anchor="start" x="430.5" y="-79.8" font-family="monospace" font-style="italic" font-size="14.00" fill="#95a5a6">text</text>
<polygon fill="#ffffff" stroke="none" points="273.5,-45 273.5,-70 425.5,-70 425.5,-45 273.5,-45"/>
<polygon fill="none" stroke="#2c3e50" points="273.5,-45 273.5,-70 425.5,-70 425.5,-45 273.5,-45"/>
<text text-anchor="start" x="278.5" y="-53.8" font-family="monospace" font-size="14.00" fill="#000000">replication_port</text>
<polygon fill="#ffffff" stroke="none" points="425.5,-45 425.5,-70 536.5,-70 536.5,-45 425.5,-45"/>
<polygon fill="none" stroke="#2c3e50" points="425.5,-45 425.5,-70 536.5,-70 536.5,-45 425.5,-45"/>
<text text-anchor="start" x="430.5" y="-54.8" font-family="monospace" font-style="italic" font-size="14.00" fill="#95a5a6">integer</text>
<polygon fill="#ffffff" stroke="none" points="273.5,-20 273.5,-45 425.5,-45 425.5,-20 273.5,-20"/>
<polygon fill="none" stroke="#2c3e50" points="273.5,-20 273.5,-45 425.5,-45 425.5,-20 273.5,-20"/>
<text text-anchor="start" x="278.5" y="-28.8" font-family="monospace" font-size="14.00" fill="#000000">san_mounts</text>
<polygon fill="#ffffff" stroke="none" points="425.5,-20 425.5,-45 536.5,-45 536.5,-20 425.5,-20"/>
<polygon fill="none" stroke="#2c3e50" points="425.5,-20 425.5,-45 536.5,-45 536.5,-20 425.5,-20"/>
<text text-anchor="start" x="430.5" y="-29.8" font-family="monospace" font-style="italic" font-size="14.00" fill="#95a5a6">int2vector</text>
</a>
</g>
</g>
</g>
</svg>
