<?xml version="1.0" encoding="UTF-8" standalone="no"?>
<!DOCTYPE svg PUBLIC "-//W3C//DTD SVG 1.1//EN"
 "http://www.w3.org/Graphics/SVG/1.1/DTD/svg11.dtd">
<!-- Generated by graphviz version 2.38.0 (20140413.2041)
 -->
<!-- Title: GPDB Pages: 1 -->
<svg width="809pt" height="454pt"
 viewBox="0.00 0.00 809.00 454.00" xmlns="http://www.w3.org/2000/svg" xmlns:xlink="http://www.w3.org/1999/xlink">
<g id="graph0" class="graph" transform="scale(1 1) rotate(0) translate(36 418)">
<title>GPDB</title>
<polygon fill="white" stroke="none" points="-36,36 -36,-418 773,-418 773,36 -36,36"/>
<text text-anchor="middle" x="368.5" y="-352.4" font-family="Helvetica,sans-Serif" font-size="32.00">Greenplum System Catalog: gp_san_configuration</text>
<g id="clust2" class="cluster"><title>cluster_selected</title>
</g>
<!-- gp_san_configuration -->
<g id="node1" class="node"><title>gp_san_configuration</title>
<polygon fill="#2c3e50" stroke="none" points="238,-245 238,-275 498,-275 498,-245 238,-245"/>
<polygon fill="none" stroke="black" points="238,-245 238,-275 498,-275 498,-245 238,-245"/>
<text text-anchor="start" x="262.5" y="-256.6" font-family="monospace" font-weight="bold" font-size="18.00" fill="#ffffff">gp_san_configuration</text>
<polygon fill="#ffffff" stroke="none" points="238,-220 238,-245 397,-245 397,-220 238,-220"/>
<polygon fill="none" stroke="#2c3e50" points="238,-220 238,-245 397,-245 397,-220 238,-220"/>
<text text-anchor="start" x="243" y="-228.8" font-family="monospace" font-size="14.00" fill="#000000">mountid</text>
<polygon fill="#ffffff" stroke="none" points="397,-220 397,-245 498,-245 498,-220 397,-220"/>
<polygon fill="none" stroke="#2c3e50" points="397,-220 397,-245 498,-245 498,-220 397,-220"/>
<text text-anchor="start" x="402" y="-229.8" font-family="monospace" font-style="italic" font-size="14.00" fill="#95a5a6">smallint</text>
<polygon fill="#ffffff" stroke="none" points="238,-195 238,-220 397,-220 397,-195 238,-195"/>
<polygon fill="none" stroke="#2c3e50" points="238,-195 238,-220 397,-220 397,-195 238,-195"/>
<text text-anchor="start" x="243" y="-203.8" font-family="monospace" font-size="14.00" fill="#000000">active_host</text>
<polygon fill="#ffffff" stroke="none" points="397,-195 397,-220 498,-220 498,-195 397,-195"/>
<polygon fill="none" stroke="#2c3e50" points="397,-195 397,-220 498,-220 498,-195 397,-195"/>
<text text-anchor="start" x="402" y="-204.8" font-family="monospace" font-style="italic" font-size="14.00" fill="#95a5a6">quoted_char</text>
<polygon fill="#ffffff" stroke="none" points="238,-170 238,-195 397,-195 397,-170 238,-170"/>
<polygon fill="none" stroke="#2c3e50" points="238,-170 238,-195 397,-195 397,-170 238,-170"/>
<text text-anchor="start" x="243" y="-178.8" font-family="monospace" font-size="14.00" fill="#000000">san_type</text>
<polygon fill="#ffffff" stroke="none" points="397,-170 397,-195 498,-195 498,-170 397,-170"/>
<polygon fill="none" stroke="#2c3e50" points="397,-170 397,-195 498,-195 498,-170 397,-170"/>
<text text-anchor="start" x="402" y="-179.8" font-family="monospace" font-style="italic" font-size="14.00" fill="#95a5a6">quoted_char</text>
<polygon fill="#ffffff" stroke="none" points="238,-145 238,-170 397,-170 397,-145 238,-145"/>
<polygon fill="none" stroke="#2c3e50" points="238,-145 238,-170 397,-170 397,-145 238,-145"/>
<text text-anchor="start" x="243" y="-153.8" font-family="monospace" font-size="14.00" fill="#000000">primary_host</text>
<polygon fill="#ffffff" stroke="none" points="397,-145 397,-170 498,-170 498,-145 397,-145"/>
<polygon fill="none" stroke="#2c3e50" points="397,-145 397,-170 498,-170 498,-145 397,-145"/>
<text text-anchor="start" x="402" y="-154.8" font-family="monospace" font-style="italic" font-size="14.00" fill="#95a5a6">text</text>
<polygon fill="#ffffff" stroke="none" points="238,-120 238,-145 397,-145 397,-120 238,-120"/>
<polygon fill="none" stroke="#2c3e50" points="238,-120 238,-145 397,-145 397,-120 238,-120"/>
<text text-anchor="start" x="243" y="-128.8" font-family="monospace" font-size="14.00" fill="#000000">primary_mountpoint</text>
<polygon fill="#ffffff" stroke="none" points="397,-120 397,-145 498,-145 498,-120 397,-120"/>
<polygon fill="none" stroke="#2c3e50" points="397,-120 397,-145 498,-145 498,-120 397,-120"/>
<text text-anchor="start" x="402" y="-129.8" font-family="monospace" font-style="italic" font-size="14.00" fill="#95a5a6">text</text>
<polygon fill="#ffffff" stroke="none" points="238,-95 238,-120 397,-120 397,-95 238,-95"/>
<polygon fill="none" stroke="#2c3e50" points="238,-95 238,-120 397,-120 397,-95 238,-95"/>
<text text-anchor="start" x="243" y="-103.8" font-family="monospace" font-size="14.00" fill="#000000">primary_device</text>
<polygon fill="#ffffff" stroke="none" points="397,-95 397,-120 498,-120 498,-95 397,-95"/>
<polygon fill="none" stroke="#2c3e50" points="397,-95 397,-120 498,-120 498,-95 397,-95"/>
<text text-anchor="start" x="402" y="-104.8" font-family="monospace" font-style="italic" font-size="14.00" fill="#95a5a6">text</text>
<polygon fill="#ffffff" stroke="none" points="238,-70 238,-95 397,-95 397,-70 238,-70"/>
<polygon fill="none" stroke="#2c3e50" points="238,-70 238,-95 397,-95 397,-70 238,-70"/>
<text text-anchor="start" x="243" y="-78.8" font-family="monospace" font-size="14.00" fill="#000000">mirror_host</text>
<polygon fill="#ffffff" stroke="none" points="397,-70 397,-95 498,-95 498,-70 397,-70"/>
<polygon fill="none" stroke="#2c3e50" points="397,-70 397,-95 498,-95 498,-70 397,-70"/>
<text text-anchor="start" x="402" y="-79.8" font-family="monospace" font-style="italic" font-size="14.00" fill="#95a5a6">text</text>
<polygon fill="#ffffff" stroke="none" points="238,-45 238,-70 397,-70 397,-45 238,-45"/>
<polygon fill="none" stroke="#2c3e50" points="238,-45 238,-70 397,-70 397,-45 238,-45"/>
<text text-anchor="start" x="243" y="-53.8" font-family="monospace" font-size="14.00" fill="#000000">mirror_mountpoint</text>
<polygon fill="#ffffff" stroke="none" points="397,-45 397,-70 498,-70 498,-45 397,-45"/>
<polygon fill="none" stroke="#2c3e50" points="397,-45 397,-70 498,-70 498,-45 397,-45"/>
<text text-anchor="start" x="402" y="-54.8" font-family="monospace" font-style="italic" font-size="14.00" fill="#95a5a6">text</text>
<polygon fill="#ffffff" stroke="none" points="238,-20 238,-45 397,-45 397,-20 238,-20"/>
<polygon fill="none" stroke="#2c3e50" points="238,-20 238,-45 397,-45 397,-20 238,-20"/>
<text text-anchor="start" x="243" y="-28.8" font-family="monospace" font-size="14.00" fill="#000000">mirror_device</text>
<polygon fill="#ffffff" stroke="none" points="397,-20 397,-45 498,-45 498,-20 397,-20"/>
<polygon fill="none" stroke="#2c3e50" points="397,-20 397,-45 498,-45 498,-20 397,-20"/>
<text text-anchor="start" x="402" y="-29.8" font-family="monospace" font-style="italic" font-size="14.00" fill="#95a5a6">text</text>
</g>
</g>
</svg>
