<?xml version="1.0" encoding="UTF-8" standalone="no"?>
<!DOCTYPE svg PUBLIC "-//W3C//DTD SVG 1.1//EN"
 "http://www.w3.org/Graphics/SVG/1.1/DTD/svg11.dtd">
<!-- Generated by graphviz version 2.38.0 (20140413.2041)
 -->
<!-- Title: GPDB Pages: 1 -->
<svg width="819pt" height="428pt"
 viewBox="0.00 0.00 819.00 428.00" xmlns="http://www.w3.org/2000/svg" xmlns:xlink="http://www.w3.org/1999/xlink">
<g id="graph0" class="graph" transform="scale(1 1) rotate(0) translate(36 392)">
<title>GPDB</title>
<polygon fill="white" stroke="none" points="-36,36 -36,-392 783,-392 783,36 -36,36"/>
<text text-anchor="middle" x="373.5" y="-326.4" font-family="Helvetica,sans-Serif" font-size="32.00">Greenplum System Catalog: gp_verification_history</text>
<g id="clust2" class="cluster"><title>cluster_selected</title>
</g>
<!-- gp_verification_history -->
<g id="node1" class="node"><title>gp_verification_history</title>
<polygon fill="#2c3e50" stroke="none" points="214.5,-220 214.5,-250 533.5,-250 533.5,-220 214.5,-220"/>
<polygon fill="none" stroke="black" points="214.5,-220 214.5,-250 533.5,-250 533.5,-220 214.5,-220"/>
<text text-anchor="start" x="253" y="-231.6" font-family="monospace" font-weight="bold" font-size="18.00" fill="#ffffff">gp_verification_history</text>
<polygon fill="#ffffff" stroke="none" points="214.5,-195 214.5,-220 324.5,-220 324.5,-195 214.5,-195"/>
<polygon fill="none" stroke="#2c3e50" points="214.5,-195 214.5,-220 324.5,-220 324.5,-195 214.5,-195"/>
<text text-anchor="start" x="219.5" y="-203.8" font-family="monospace" font-size="14.00" fill="#000000">vertoken</text>
<polygon fill="#ffffff" stroke="none" points="324.5,-195 324.5,-220 533.5,-220 533.5,-195 324.5,-195"/>
<polygon fill="none" stroke="#2c3e50" points="324.5,-195 324.5,-220 533.5,-220 533.5,-195 324.5,-195"/>
<text text-anchor="start" x="329.5" y="-204.8" font-family="monospace" font-style="italic" font-size="14.00" fill="#95a5a6">name</text>
<polygon fill="#ffffff" stroke="none" points="214.5,-170 214.5,-195 324.5,-195 324.5,-170 214.5,-170"/>
<polygon fill="none" stroke="#2c3e50" points="214.5,-170 214.5,-195 324.5,-195 324.5,-170 214.5,-170"/>
<text text-anchor="start" x="219.5" y="-178.8" font-family="monospace" font-size="14.00" fill="#000000">vertype</text>
<polygon fill="#ffffff" stroke="none" points="324.5,-170 324.5,-195 533.5,-195 533.5,-170 324.5,-170"/>
<polygon fill="none" stroke="#2c3e50" points="324.5,-170 324.5,-195 533.5,-195 533.5,-170 324.5,-170"/>
<text text-anchor="start" x="329.5" y="-179.8" font-family="monospace" font-style="italic" font-size="14.00" fill="#95a5a6">smallint</text>
<polygon fill="#ffffff" stroke="none" points="214.5,-145 214.5,-170 324.5,-170 324.5,-145 214.5,-145"/>
<polygon fill="none" stroke="#2c3e50" points="214.5,-145 214.5,-170 324.5,-170 324.5,-145 214.5,-145"/>
<text text-anchor="start" x="219.5" y="-153.8" font-family="monospace" font-size="14.00" fill="#000000">vercontent</text>
<polygon fill="#ffffff" stroke="none" points="324.5,-145 324.5,-170 533.5,-170 533.5,-145 324.5,-145"/>
<polygon fill="none" stroke="#2c3e50" points="324.5,-145 324.5,-170 533.5,-170 533.5,-145 324.5,-145"/>
<text text-anchor="start" x="329.5" y="-154.8" font-family="monospace" font-style="italic" font-size="14.00" fill="#95a5a6">smallint</text>
<polygon fill="#ffffff" stroke="none" points="214.5,-120 214.5,-145 324.5,-145 324.5,-120 214.5,-120"/>
<polygon fill="none" stroke="#2c3e50" points="214.5,-120 214.5,-145 324.5,-145 324.5,-120 214.5,-120"/>
<text text-anchor="start" x="219.5" y="-128.8" font-family="monospace" font-size="14.00" fill="#000000">verstarttime</text>
<polygon fill="#ffffff" stroke="none" points="324.5,-120 324.5,-145 533.5,-145 533.5,-120 324.5,-120"/>
<polygon fill="none" stroke="#2c3e50" points="324.5,-120 324.5,-145 533.5,-145 533.5,-120 324.5,-120"/>
<text text-anchor="start" x="329.5" y="-129.8" font-family="monospace" font-style="italic" font-size="14.00" fill="#95a5a6">timestamp_with_time_zone</text>
<polygon fill="#ffffff" stroke="none" points="214.5,-95 214.5,-120 324.5,-120 324.5,-95 214.5,-95"/>
<polygon fill="none" stroke="#2c3e50" points="214.5,-95 214.5,-120 324.5,-120 324.5,-95 214.5,-95"/>
<text text-anchor="start" x="219.5" y="-103.8" font-family="monospace" font-size="14.00" fill="#000000">verstate</text>
<polygon fill="#ffffff" stroke="none" points="324.5,-95 324.5,-120 533.5,-120 533.5,-95 324.5,-95"/>
<polygon fill="none" stroke="#2c3e50" points="324.5,-95 324.5,-120 533.5,-120 533.5,-95 324.5,-95"/>
<text text-anchor="start" x="329.5" y="-104.8" font-family="monospace" font-style="italic" font-size="14.00" fill="#95a5a6">smallint</text>
<polygon fill="#ffffff" stroke="none" points="214.5,-70 214.5,-95 324.5,-95 324.5,-70 214.5,-70"/>
<polygon fill="none" stroke="#2c3e50" points="214.5,-70 214.5,-95 324.5,-95 324.5,-70 214.5,-70"/>
<text text-anchor="start" x="219.5" y="-78.8" font-family="monospace" font-size="14.00" fill="#000000">verdone</text>
<polygon fill="#ffffff" stroke="none" points="324.5,-70 324.5,-95 533.5,-95 533.5,-70 324.5,-70"/>
<polygon fill="none" stroke="#2c3e50" points="324.5,-70 324.5,-95 533.5,-95 533.5,-70 324.5,-70"/>
<text text-anchor="start" x="329.5" y="-79.8" font-family="monospace" font-style="italic" font-size="14.00" fill="#95a5a6">boolean</text>
<polygon fill="#ffffff" stroke="none" points="214.5,-45 214.5,-70 324.5,-70 324.5,-45 214.5,-45"/>
<polygon fill="none" stroke="#2c3e50" points="214.5,-45 214.5,-70 324.5,-70 324.5,-45 214.5,-45"/>
<text text-anchor="start" x="219.5" y="-53.8" font-family="monospace" font-size="14.00" fill="#000000">verendtime</text>
<polygon fill="#ffffff" stroke="none" points="324.5,-45 324.5,-70 533.5,-70 533.5,-45 324.5,-45"/>
<polygon fill="none" stroke="#2c3e50" points="324.5,-45 324.5,-70 533.5,-70 533.5,-45 324.5,-45"/>
<text text-anchor="start" x="329.5" y="-54.8" font-family="monospace" font-style="italic" font-size="14.00" fill="#95a5a6">timestamp_with_time_zone</text>
<polygon fill="#ffffff" stroke="none" points="214.5,-20 214.5,-45 324.5,-45 324.5,-20 214.5,-20"/>
<polygon fill="none" stroke="#2c3e50" points="214.5,-20 214.5,-45 324.5,-45 324.5,-20 214.5,-20"/>
<text text-anchor="start" x="219.5" y="-28.8" font-family="monospace" font-size="14.00" fill="#000000">vermismatch</text>
<polygon fill="#ffffff" stroke="none" points="324.5,-20 324.5,-45 533.5,-45 533.5,-20 324.5,-20"/>
<polygon fill="none" stroke="#2c3e50" points="324.5,-20 324.5,-45 533.5,-45 533.5,-20 324.5,-20"/>
<text text-anchor="start" x="329.5" y="-29.8" font-family="monospace" font-style="italic" font-size="14.00" fill="#95a5a6">boolean</text>
</g>
</g>
</svg>
