<?xml version="1.0" encoding="UTF-8" standalone="no"?>
<!DOCTYPE svg PUBLIC "-//W3C//DTD SVG 1.1//EN"
 "http://www.w3.org/Graphics/SVG/1.1/DTD/svg11.dtd">
<!-- Generated by graphviz version 2.38.0 (20140413.2041)
 -->
<!-- Title: GPDB Pages: 1 -->
<svg width="797pt" height="278pt"
 viewBox="0.00 0.00 797.00 278.00" xmlns="http://www.w3.org/2000/svg" xmlns:xlink="http://www.w3.org/1999/xlink">
<g id="graph0" class="graph" transform="scale(1 1) rotate(0) translate(36 242)">
<title>GPDB</title>
<polygon fill="white" stroke="none" points="-36,36 -36,-242 761,-242 761,36 -36,36"/>
<text text-anchor="middle" x="362.5" y="-176.4" font-family="Helvetica,sans-Serif" font-size="32.00">Greenplum System Catalog: gp_version_at_initdb</text>
<g id="clust2" class="cluster"><title>cluster_selected</title>
</g>
<!-- gp_version_at_initdb -->
<g id="node1" class="node"><title>gp_version_at_initdb</title>
<polygon fill="#2c3e50" stroke="none" points="252.5,-70 252.5,-100 473.5,-100 473.5,-70 252.5,-70"/>
<polygon fill="none" stroke="black" points="252.5,-70 252.5,-100 473.5,-100 473.5,-70 252.5,-70"/>
<text text-anchor="start" x="257.5" y="-81.6" font-family="monospace" font-weight="bold" font-size="18.00" fill="#ffffff">gp_version_at_initdb</text>
<polygon fill="#ffffff" stroke="none" points="252.5,-45 252.5,-70 387.5,-70 387.5,-45 252.5,-45"/>
<polygon fill="none" stroke="#2c3e50" points="252.5,-45 252.5,-70 387.5,-70 387.5,-45 252.5,-45"/>
<text text-anchor="start" x="257.5" y="-53.8" font-family="monospace" font-size="14.00" fill="#000000">schemaversion</text>
<polygon fill="#ffffff" stroke="none" points="387.5,-45 387.5,-70 473.5,-70 473.5,-45 387.5,-45"/>
<polygon fill="none" stroke="#2c3e50" points="387.5,-45 387.5,-70 473.5,-70 473.5,-45 387.5,-45"/>
<text text-anchor="start" x="392.5" y="-54.8" font-family="monospace" font-style="italic" font-size="14.00" fill="#95a5a6">smallint</text>
<polygon fill="#ffffff" stroke="none" points="252.5,-20 252.5,-45 387.5,-45 387.5,-20 252.5,-20"/>
<polygon fill="none" stroke="#2c3e50" points="252.5,-20 252.5,-45 387.5,-45 387.5,-20 252.5,-20"/>
<text text-anchor="start" x="257.5" y="-28.8" font-family="monospace" font-size="14.00" fill="#000000">productversion</text>
<polygon fill="#ffffff" stroke="none" points="387.5,-20 387.5,-45 473.5,-45 473.5,-20 387.5,-20"/>
<polygon fill="none" stroke="#2c3e50" points="387.5,-20 387.5,-45 473.5,-45 473.5,-20 387.5,-20"/>
<text text-anchor="start" x="392.5" y="-29.8" font-family="monospace" font-style="italic" font-size="14.00" fill="#95a5a6">text</text>
</g>
</g>
</svg>
