<?xml version="1.0" encoding="UTF-8" standalone="no"?>
<!DOCTYPE svg PUBLIC "-//W3C//DTD SVG 1.1//EN"
 "http://www.w3.org/Graphics/SVG/1.1/DTD/svg11.dtd">
<!-- Generated by graphviz version 2.38.0 (20140413.2041)
 -->
<!-- Title: GPDB Pages: 1 -->
<svg width="1220pt" height="1626pt"
 viewBox="0.00 0.00 1220.00 1626.00" xmlns="http://www.w3.org/2000/svg" xmlns:xlink="http://www.w3.org/1999/xlink">
<g id="graph0" class="graph" transform="scale(1 1) rotate(0) translate(36 1590)">
<title>GPDB</title>
<polygon fill="white" stroke="none" points="-36,36 -36,-1590 1184,-1590 1184,36 -36,36"/>
<text text-anchor="middle" x="574" y="-1524.4" font-family="Helvetica,sans-Serif" font-size="32.00">Greenplum System Catalog: pg_amop</text>
<g id="clust2" class="cluster"><title>cluster_selected</title>
</g>
<g id="clust3" class="cluster"><title>cluster_to</title>
</g>
<!-- pg_amop -->
<g id="node1" class="node"><title>pg_amop</title>
<g id="a_node1"><a xlink:href="pg_amop.svg" xlink:title="&lt;TABLE&gt;">
<polygon fill="#2c3e50" stroke="none" points="188.5,-1169 188.5,-1199 375.5,-1199 375.5,-1169 188.5,-1169"/>
<polygon fill="none" stroke="black" points="188.5,-1169 188.5,-1199 375.5,-1199 375.5,-1169 188.5,-1169"/>
<text text-anchor="start" x="245" y="-1180.6" font-family="monospace" font-weight="bold" font-size="18.00" fill="#ffffff">pg_amop</text>
<polygon fill="#ffffff" stroke="none" points="188.5,-1144 188.5,-1169 298.5,-1169 298.5,-1144 188.5,-1144"/>
<polygon fill="none" stroke="#2c3e50" points="188.5,-1144 188.5,-1169 298.5,-1169 298.5,-1144 188.5,-1144"/>
<text text-anchor="start" x="193.5" y="-1152.8" font-family="monospace" font-size="14.00" fill="#000000">amopclaid</text>
<polygon fill="#18bc9c" stroke="none" points="298.5,-1144 298.5,-1169 375.5,-1169 375.5,-1144 298.5,-1144"/>
<polygon fill="none" stroke="#2c3e50" points="298.5,-1144 298.5,-1169 375.5,-1169 375.5,-1144 298.5,-1144"/>
<text text-anchor="start" x="303.5" y="-1153.8" font-family="monospace" font-style="italic" font-size="14.00" fill="#ffffff">oid</text>
<polygon fill="#ffffff" stroke="none" points="188.5,-1119 188.5,-1144 298.5,-1144 298.5,-1119 188.5,-1119"/>
<polygon fill="none" stroke="#2c3e50" points="188.5,-1119 188.5,-1144 298.5,-1144 298.5,-1119 188.5,-1119"/>
<text text-anchor="start" x="193.5" y="-1127.8" font-family="monospace" font-size="14.00" fill="#000000">amopsubtype</text>
<polygon fill="#18bc9c" stroke="none" points="298.5,-1119 298.5,-1144 375.5,-1144 375.5,-1119 298.5,-1119"/>
<polygon fill="none" stroke="#2c3e50" points="298.5,-1119 298.5,-1144 375.5,-1144 375.5,-1119 298.5,-1119"/>
<text text-anchor="start" x="303.5" y="-1128.8" font-family="monospace" font-style="italic" font-size="14.00" fill="#ffffff">oid</text>
<polygon fill="#ffffff" stroke="none" points="188.5,-1094 188.5,-1119 298.5,-1119 298.5,-1094 188.5,-1094"/>
<polygon fill="none" stroke="#2c3e50" points="188.5,-1094 188.5,-1119 298.5,-1119 298.5,-1094 188.5,-1094"/>
<text text-anchor="start" x="193.5" y="-1102.8" font-family="monospace" font-size="14.00" fill="#000000">amopstrategy</text>
<polygon fill="#ffffff" stroke="none" points="298.5,-1094 298.5,-1119 375.5,-1119 375.5,-1094 298.5,-1094"/>
<polygon fill="none" stroke="#2c3e50" points="298.5,-1094 298.5,-1119 375.5,-1119 375.5,-1094 298.5,-1094"/>
<text text-anchor="start" x="303.5" y="-1103.8" font-family="monospace" font-style="italic" font-size="14.00" fill="#95a5a6">smallint</text>
<polygon fill="#ffffff" stroke="none" points="188.5,-1069 188.5,-1094 298.5,-1094 298.5,-1069 188.5,-1069"/>
<polygon fill="none" stroke="#2c3e50" points="188.5,-1069 188.5,-1094 298.5,-1094 298.5,-1069 188.5,-1069"/>
<text text-anchor="start" x="193.5" y="-1077.8" font-family="monospace" font-size="14.00" fill="#000000">amopreqcheck</text>
<polygon fill="#ffffff" stroke="none" points="298.5,-1069 298.5,-1094 375.5,-1094 375.5,-1069 298.5,-1069"/>
<polygon fill="none" stroke="#2c3e50" points="298.5,-1069 298.5,-1094 375.5,-1094 375.5,-1069 298.5,-1069"/>
<text text-anchor="start" x="303.5" y="-1078.8" font-family="monospace" font-style="italic" font-size="14.00" fill="#95a5a6">boolean</text>
<polygon fill="#ffffff" stroke="none" points="188.5,-1044 188.5,-1069 298.5,-1069 298.5,-1044 188.5,-1044"/>
<polygon fill="none" stroke="#2c3e50" points="188.5,-1044 188.5,-1069 298.5,-1069 298.5,-1044 188.5,-1044"/>
<text text-anchor="start" x="193.5" y="-1052.8" font-family="monospace" font-size="14.00" fill="#000000">amopopr</text>
<polygon fill="#18bc9c" stroke="none" points="298.5,-1044 298.5,-1069 375.5,-1069 375.5,-1044 298.5,-1044"/>
<polygon fill="none" stroke="#2c3e50" points="298.5,-1044 298.5,-1069 375.5,-1069 375.5,-1044 298.5,-1044"/>
<text text-anchor="start" x="303.5" y="-1053.8" font-family="monospace" font-style="italic" font-size="14.00" fill="#ffffff">oid</text>
</a>
</g>
</g>
<!-- pg_opclass -->
<g id="node2" class="node"><title>pg_opclass</title>
<g id="a_node2"><a xlink:href="pg_opclass.svg" xlink:title="&lt;TABLE&gt;">
<polygon fill="#2c3e50" stroke="none" points="776.5,-1418 776.5,-1448 954.5,-1448 954.5,-1418 776.5,-1418"/>
<polygon fill="none" stroke="black" points="776.5,-1418 776.5,-1448 954.5,-1448 954.5,-1418 776.5,-1418"/>
<text text-anchor="start" x="812.5" y="-1429.6" font-family="monospace" font-weight="bold" font-size="18.00" fill="#ffffff">pg_opclass</text>
<polygon fill="#18bc9c" stroke="none" points="776.5,-1393 776.5,-1418 886.5,-1418 886.5,-1393 776.5,-1393"/>
<polygon fill="none" stroke="#2c3e50" points="776.5,-1393 776.5,-1418 886.5,-1418 886.5,-1393 776.5,-1393"/>
<text text-anchor="start" x="781.5" y="-1401.8" font-family="monospace" font-size="14.00" fill="#ffffff">oid</text>
<polygon fill="#ffffff" stroke="none" points="886.5,-1393 886.5,-1418 954.5,-1418 954.5,-1393 886.5,-1393"/>
<polygon fill="none" stroke="#2c3e50" points="886.5,-1393 886.5,-1418 954.5,-1418 954.5,-1393 886.5,-1393"/>
<text text-anchor="start" x="891.5" y="-1402.8" font-family="monospace" font-style="italic" font-size="14.00" fill="#95a5a6">oid</text>
<polygon fill="#ffffff" stroke="none" points="776.5,-1368 776.5,-1393 886.5,-1393 886.5,-1368 776.5,-1368"/>
<polygon fill="none" stroke="#2c3e50" points="776.5,-1368 776.5,-1393 886.5,-1393 886.5,-1368 776.5,-1368"/>
<text text-anchor="start" x="781.5" y="-1376.8" font-family="monospace" font-size="14.00" fill="#000000">opcamid</text>
<polygon fill="#ffffff" stroke="none" points="886.5,-1368 886.5,-1393 954.5,-1393 954.5,-1368 886.5,-1368"/>
<polygon fill="none" stroke="#2c3e50" points="886.5,-1368 886.5,-1393 954.5,-1393 954.5,-1368 886.5,-1368"/>
<text text-anchor="start" x="891.5" y="-1377.8" font-family="monospace" font-style="italic" font-size="14.00" fill="#95a5a6">oid</text>
<polygon fill="#ffffff" stroke="none" points="776.5,-1343 776.5,-1368 886.5,-1368 886.5,-1343 776.5,-1343"/>
<polygon fill="none" stroke="#2c3e50" points="776.5,-1343 776.5,-1368 886.5,-1368 886.5,-1343 776.5,-1343"/>
<text text-anchor="start" x="781.5" y="-1351.8" font-family="monospace" font-size="14.00" fill="#000000">opcname</text>
<polygon fill="#ffffff" stroke="none" points="886.5,-1343 886.5,-1368 954.5,-1368 954.5,-1343 886.5,-1343"/>
<polygon fill="none" stroke="#2c3e50" points="886.5,-1343 886.5,-1368 954.5,-1368 954.5,-1343 886.5,-1343"/>
<text text-anchor="start" x="891.5" y="-1352.8" font-family="monospace" font-style="italic" font-size="14.00" fill="#95a5a6">name</text>
<polygon fill="#ffffff" stroke="none" points="776.5,-1318 776.5,-1343 886.5,-1343 886.5,-1318 776.5,-1318"/>
<polygon fill="none" stroke="#2c3e50" points="776.5,-1318 776.5,-1343 886.5,-1343 886.5,-1318 776.5,-1318"/>
<text text-anchor="start" x="781.5" y="-1326.8" font-family="monospace" font-size="14.00" fill="#000000">opcnamespace</text>
<polygon fill="#ffffff" stroke="none" points="886.5,-1318 886.5,-1343 954.5,-1343 954.5,-1318 886.5,-1318"/>
<polygon fill="none" stroke="#2c3e50" points="886.5,-1318 886.5,-1343 954.5,-1343 954.5,-1318 886.5,-1318"/>
<text text-anchor="start" x="891.5" y="-1327.8" font-family="monospace" font-style="italic" font-size="14.00" fill="#95a5a6">oid</text>
<polygon fill="#ffffff" stroke="none" points="776.5,-1293 776.5,-1318 886.5,-1318 886.5,-1293 776.5,-1293"/>
<polygon fill="none" stroke="#2c3e50" points="776.5,-1293 776.5,-1318 886.5,-1318 886.5,-1293 776.5,-1293"/>
<text text-anchor="start" x="781.5" y="-1301.8" font-family="monospace" font-size="14.00" fill="#000000">opcowner</text>
<polygon fill="#ffffff" stroke="none" points="886.5,-1293 886.5,-1318 954.5,-1318 954.5,-1293 886.5,-1293"/>
<polygon fill="none" stroke="#2c3e50" points="886.5,-1293 886.5,-1318 954.5,-1318 954.5,-1293 886.5,-1293"/>
<text text-anchor="start" x="891.5" y="-1302.8" font-family="monospace" font-style="italic" font-size="14.00" fill="#95a5a6">oid</text>
<polygon fill="#ffffff" stroke="none" points="776.5,-1268 776.5,-1293 886.5,-1293 886.5,-1268 776.5,-1268"/>
<polygon fill="none" stroke="#2c3e50" points="776.5,-1268 776.5,-1293 886.5,-1293 886.5,-1268 776.5,-1268"/>
<text text-anchor="start" x="781.5" y="-1276.8" font-family="monospace" font-size="14.00" fill="#000000">opcintype</text>
<polygon fill="#ffffff" stroke="none" points="886.5,-1268 886.5,-1293 954.5,-1293 954.5,-1268 886.5,-1268"/>
<polygon fill="none" stroke="#2c3e50" points="886.5,-1268 886.5,-1293 954.5,-1293 954.5,-1268 886.5,-1268"/>
<text text-anchor="start" x="891.5" y="-1277.8" font-family="monospace" font-style="italic" font-size="14.00" fill="#95a5a6">oid</text>
<polygon fill="#ffffff" stroke="none" points="776.5,-1243 776.5,-1268 886.5,-1268 886.5,-1243 776.5,-1243"/>
<polygon fill="none" stroke="#2c3e50" points="776.5,-1243 776.5,-1268 886.5,-1268 886.5,-1243 776.5,-1243"/>
<text text-anchor="start" x="781.5" y="-1251.8" font-family="monospace" font-size="14.00" fill="#000000">opcdefault</text>
<polygon fill="#ffffff" stroke="none" points="886.5,-1243 886.5,-1268 954.5,-1268 954.5,-1243 886.5,-1243"/>
<polygon fill="none" stroke="#2c3e50" points="886.5,-1243 886.5,-1268 954.5,-1268 954.5,-1243 886.5,-1243"/>
<text text-anchor="start" x="891.5" y="-1252.8" font-family="monospace" font-style="italic" font-size="14.00" fill="#95a5a6">boolean</text>
<polygon fill="#ffffff" stroke="none" points="776.5,-1218 776.5,-1243 886.5,-1243 886.5,-1218 776.5,-1218"/>
<polygon fill="none" stroke="#2c3e50" points="776.5,-1218 776.5,-1243 886.5,-1243 886.5,-1218 776.5,-1218"/>
<text text-anchor="start" x="781.5" y="-1226.8" font-family="monospace" font-size="14.00" fill="#000000">opckeytype</text>
<polygon fill="#ffffff" stroke="none" points="886.5,-1218 886.5,-1243 954.5,-1243 954.5,-1218 886.5,-1218"/>
<polygon fill="none" stroke="#2c3e50" points="886.5,-1218 886.5,-1243 954.5,-1243 954.5,-1218 886.5,-1218"/>
<text text-anchor="start" x="891.5" y="-1227.8" font-family="monospace" font-style="italic" font-size="14.00" fill="#95a5a6">oid</text>
</a>
</g>
</g>
<!-- pg_amop&#45;&gt;pg_opclass -->
<g id="edge1" class="edge"><title>pg_amop:amopclaid_out&#45;&gt;pg_opclass:oid_in</title>
<path fill="none" stroke="#2c3e50" d="M376.5,-1157C582.061,-1157 567.038,-1397.8 765.276,-1405.8"/>
<polygon fill="#2c3e50" stroke="#2c3e50" points="765.432,-1409.3 775.5,-1406 765.572,-1402.3 765.432,-1409.3"/>
</g>
<!-- pg_type -->
<g id="node3" class="node"><title>pg_type</title>
<g id="a_node3"><a xlink:href="pg_type.svg" xlink:title="&lt;TABLE&gt;">
<polygon fill="#2c3e50" stroke="none" points="756.5,-1144 756.5,-1174 975.5,-1174 975.5,-1144 756.5,-1144"/>
<polygon fill="none" stroke="black" points="756.5,-1144 756.5,-1174 975.5,-1174 975.5,-1144 756.5,-1144"/>
<text text-anchor="start" x="829" y="-1155.6" font-family="monospace" font-weight="bold" font-size="18.00" fill="#ffffff">pg_type</text>
<polygon fill="#18bc9c" stroke="none" points="756.5,-1119 756.5,-1144 874.5,-1144 874.5,-1119 756.5,-1119"/>
<polygon fill="none" stroke="#2c3e50" points="756.5,-1119 756.5,-1144 874.5,-1144 874.5,-1119 756.5,-1119"/>
<text text-anchor="start" x="761.5" y="-1127.8" font-family="monospace" font-size="14.00" fill="#ffffff">oid</text>
<polygon fill="#ffffff" stroke="none" points="874.5,-1119 874.5,-1144 975.5,-1144 975.5,-1119 874.5,-1119"/>
<polygon fill="none" stroke="#2c3e50" points="874.5,-1119 874.5,-1144 975.5,-1144 975.5,-1119 874.5,-1119"/>
<text text-anchor="start" x="879.5" y="-1128.8" font-family="monospace" font-style="italic" font-size="14.00" fill="#95a5a6">oid</text>
<polygon fill="#ffffff" stroke="none" points="756.5,-1094 756.5,-1119 874.5,-1119 874.5,-1094 756.5,-1094"/>
<polygon fill="none" stroke="#2c3e50" points="756.5,-1094 756.5,-1119 874.5,-1119 874.5,-1094 756.5,-1094"/>
<text text-anchor="start" x="761.5" y="-1102.8" font-family="monospace" font-size="14.00" fill="#000000">typname</text>
<polygon fill="#ffffff" stroke="none" points="874.5,-1094 874.5,-1119 975.5,-1119 975.5,-1094 874.5,-1094"/>
<polygon fill="none" stroke="#2c3e50" points="874.5,-1094 874.5,-1119 975.5,-1119 975.5,-1094 874.5,-1094"/>
<text text-anchor="start" x="879.5" y="-1103.8" font-family="monospace" font-style="italic" font-size="14.00" fill="#95a5a6">name</text>
<polygon fill="#ffffff" stroke="none" points="756.5,-1069 756.5,-1094 874.5,-1094 874.5,-1069 756.5,-1069"/>
<polygon fill="none" stroke="#2c3e50" points="756.5,-1069 756.5,-1094 874.5,-1094 874.5,-1069 756.5,-1069"/>
<text text-anchor="start" x="761.5" y="-1077.8" font-family="monospace" font-size="14.00" fill="#000000">typnamespace</text>
<polygon fill="#ffffff" stroke="none" points="874.5,-1069 874.5,-1094 975.5,-1094 975.5,-1069 874.5,-1069"/>
<polygon fill="none" stroke="#2c3e50" points="874.5,-1069 874.5,-1094 975.5,-1094 975.5,-1069 874.5,-1069"/>
<text text-anchor="start" x="879.5" y="-1078.8" font-family="monospace" font-style="italic" font-size="14.00" fill="#95a5a6">oid</text>
<polygon fill="#ffffff" stroke="none" points="756.5,-1044 756.5,-1069 874.5,-1069 874.5,-1044 756.5,-1044"/>
<polygon fill="none" stroke="#2c3e50" points="756.5,-1044 756.5,-1069 874.5,-1069 874.5,-1044 756.5,-1044"/>
<text text-anchor="start" x="761.5" y="-1052.8" font-family="monospace" font-size="14.00" fill="#000000">typowner</text>
<polygon fill="#ffffff" stroke="none" points="874.5,-1044 874.5,-1069 975.5,-1069 975.5,-1044 874.5,-1044"/>
<polygon fill="none" stroke="#2c3e50" points="874.5,-1044 874.5,-1069 975.5,-1069 975.5,-1044 874.5,-1044"/>
<text text-anchor="start" x="879.5" y="-1053.8" font-family="monospace" font-style="italic" font-size="14.00" fill="#95a5a6">oid</text>
<polygon fill="#ffffff" stroke="none" points="756.5,-1019 756.5,-1044 874.5,-1044 874.5,-1019 756.5,-1019"/>
<polygon fill="none" stroke="#2c3e50" points="756.5,-1019 756.5,-1044 874.5,-1044 874.5,-1019 756.5,-1019"/>
<text text-anchor="start" x="761.5" y="-1027.8" font-family="monospace" font-size="14.00" fill="#000000">typlen</text>
<polygon fill="#ffffff" stroke="none" points="874.5,-1019 874.5,-1044 975.5,-1044 975.5,-1019 874.5,-1019"/>
<polygon fill="none" stroke="#2c3e50" points="874.5,-1019 874.5,-1044 975.5,-1044 975.5,-1019 874.5,-1019"/>
<text text-anchor="start" x="879.5" y="-1028.8" font-family="monospace" font-style="italic" font-size="14.00" fill="#95a5a6">smallint</text>
<polygon fill="#ffffff" stroke="none" points="756.5,-994 756.5,-1019 874.5,-1019 874.5,-994 756.5,-994"/>
<polygon fill="none" stroke="#2c3e50" points="756.5,-994 756.5,-1019 874.5,-1019 874.5,-994 756.5,-994"/>
<text text-anchor="start" x="761.5" y="-1002.8" font-family="monospace" font-size="14.00" fill="#000000">typbyval</text>
<polygon fill="#ffffff" stroke="none" points="874.5,-994 874.5,-1019 975.5,-1019 975.5,-994 874.5,-994"/>
<polygon fill="none" stroke="#2c3e50" points="874.5,-994 874.5,-1019 975.5,-1019 975.5,-994 874.5,-994"/>
<text text-anchor="start" x="879.5" y="-1003.8" font-family="monospace" font-style="italic" font-size="14.00" fill="#95a5a6">boolean</text>
<polygon fill="#ffffff" stroke="none" points="756.5,-969 756.5,-994 874.5,-994 874.5,-969 756.5,-969"/>
<polygon fill="none" stroke="#2c3e50" points="756.5,-969 756.5,-994 874.5,-994 874.5,-969 756.5,-969"/>
<text text-anchor="start" x="761.5" y="-977.8" font-family="monospace" font-size="14.00" fill="#000000">typtype</text>
<polygon fill="#ffffff" stroke="none" points="874.5,-969 874.5,-994 975.5,-994 975.5,-969 874.5,-969"/>
<polygon fill="none" stroke="#2c3e50" points="874.5,-969 874.5,-994 975.5,-994 975.5,-969 874.5,-969"/>
<text text-anchor="start" x="879.5" y="-978.8" font-family="monospace" font-style="italic" font-size="14.00" fill="#95a5a6">quoted_char</text>
<polygon fill="#ffffff" stroke="none" points="756.5,-944 756.5,-969 874.5,-969 874.5,-944 756.5,-944"/>
<polygon fill="none" stroke="#2c3e50" points="756.5,-944 756.5,-969 874.5,-969 874.5,-944 756.5,-944"/>
<text text-anchor="start" x="761.5" y="-952.8" font-family="monospace" font-size="14.00" fill="#000000">typisdefined</text>
<polygon fill="#ffffff" stroke="none" points="874.5,-944 874.5,-969 975.5,-969 975.5,-944 874.5,-944"/>
<polygon fill="none" stroke="#2c3e50" points="874.5,-944 874.5,-969 975.5,-969 975.5,-944 874.5,-944"/>
<text text-anchor="start" x="879.5" y="-953.8" font-family="monospace" font-style="italic" font-size="14.00" fill="#95a5a6">boolean</text>
<polygon fill="#ffffff" stroke="none" points="756.5,-919 756.5,-944 874.5,-944 874.5,-919 756.5,-919"/>
<polygon fill="none" stroke="#2c3e50" points="756.5,-919 756.5,-944 874.5,-944 874.5,-919 756.5,-919"/>
<text text-anchor="start" x="761.5" y="-927.8" font-family="monospace" font-size="14.00" fill="#000000">typdelim</text>
<polygon fill="#ffffff" stroke="none" points="874.5,-919 874.5,-944 975.5,-944 975.5,-919 874.5,-919"/>
<polygon fill="none" stroke="#2c3e50" points="874.5,-919 874.5,-944 975.5,-944 975.5,-919 874.5,-919"/>
<text text-anchor="start" x="879.5" y="-928.8" font-family="monospace" font-style="italic" font-size="14.00" fill="#95a5a6">quoted_char</text>
<polygon fill="#ffffff" stroke="none" points="756.5,-894 756.5,-919 874.5,-919 874.5,-894 756.5,-894"/>
<polygon fill="none" stroke="#2c3e50" points="756.5,-894 756.5,-919 874.5,-919 874.5,-894 756.5,-894"/>
<text text-anchor="start" x="761.5" y="-902.8" font-family="monospace" font-size="14.00" fill="#000000">typrelid</text>
<polygon fill="#ffffff" stroke="none" points="874.5,-894 874.5,-919 975.5,-919 975.5,-894 874.5,-894"/>
<polygon fill="none" stroke="#2c3e50" points="874.5,-894 874.5,-919 975.5,-919 975.5,-894 874.5,-894"/>
<text text-anchor="start" x="879.5" y="-903.8" font-family="monospace" font-style="italic" font-size="14.00" fill="#95a5a6">oid</text>
<polygon fill="#ffffff" stroke="none" points="756.5,-869 756.5,-894 874.5,-894 874.5,-869 756.5,-869"/>
<polygon fill="none" stroke="#2c3e50" points="756.5,-869 756.5,-894 874.5,-894 874.5,-869 756.5,-869"/>
<text text-anchor="start" x="761.5" y="-877.8" font-family="monospace" font-size="14.00" fill="#000000">typelem</text>
<polygon fill="#ffffff" stroke="none" points="874.5,-869 874.5,-894 975.5,-894 975.5,-869 874.5,-869"/>
<polygon fill="none" stroke="#2c3e50" points="874.5,-869 874.5,-894 975.5,-894 975.5,-869 874.5,-869"/>
<text text-anchor="start" x="879.5" y="-878.8" font-family="monospace" font-style="italic" font-size="14.00" fill="#95a5a6">oid</text>
<polygon fill="#ffffff" stroke="none" points="756.5,-844 756.5,-869 874.5,-869 874.5,-844 756.5,-844"/>
<polygon fill="none" stroke="#2c3e50" points="756.5,-844 756.5,-869 874.5,-869 874.5,-844 756.5,-844"/>
<text text-anchor="start" x="761.5" y="-852.8" font-family="monospace" font-size="14.00" fill="#000000">typinput</text>
<polygon fill="#ffffff" stroke="none" points="874.5,-844 874.5,-869 975.5,-869 975.5,-844 874.5,-844"/>
<polygon fill="none" stroke="#2c3e50" points="874.5,-844 874.5,-869 975.5,-869 975.5,-844 874.5,-844"/>
<text text-anchor="start" x="879.5" y="-853.8" font-family="monospace" font-style="italic" font-size="14.00" fill="#95a5a6">regproc</text>
<polygon fill="#ffffff" stroke="none" points="756.5,-819 756.5,-844 874.5,-844 874.5,-819 756.5,-819"/>
<polygon fill="none" stroke="#2c3e50" points="756.5,-819 756.5,-844 874.5,-844 874.5,-819 756.5,-819"/>
<text text-anchor="start" x="761.5" y="-827.8" font-family="monospace" font-size="14.00" fill="#000000">typoutput</text>
<polygon fill="#ffffff" stroke="none" points="874.5,-819 874.5,-844 975.5,-844 975.5,-819 874.5,-819"/>
<polygon fill="none" stroke="#2c3e50" points="874.5,-819 874.5,-844 975.5,-844 975.5,-819 874.5,-819"/>
<text text-anchor="start" x="879.5" y="-828.8" font-family="monospace" font-style="italic" font-size="14.00" fill="#95a5a6">regproc</text>
<polygon fill="#ffffff" stroke="none" points="756.5,-794 756.5,-819 874.5,-819 874.5,-794 756.5,-794"/>
<polygon fill="none" stroke="#2c3e50" points="756.5,-794 756.5,-819 874.5,-819 874.5,-794 756.5,-794"/>
<text text-anchor="start" x="761.5" y="-802.8" font-family="monospace" font-size="14.00" fill="#000000">typreceive</text>
<polygon fill="#ffffff" stroke="none" points="874.5,-794 874.5,-819 975.5,-819 975.5,-794 874.5,-794"/>
<polygon fill="none" stroke="#2c3e50" points="874.5,-794 874.5,-819 975.5,-819 975.5,-794 874.5,-794"/>
<text text-anchor="start" x="879.5" y="-803.8" font-family="monospace" font-style="italic" font-size="14.00" fill="#95a5a6">regproc</text>
<polygon fill="#ffffff" stroke="none" points="756.5,-769 756.5,-794 874.5,-794 874.5,-769 756.5,-769"/>
<polygon fill="none" stroke="#2c3e50" points="756.5,-769 756.5,-794 874.5,-794 874.5,-769 756.5,-769"/>
<text text-anchor="start" x="761.5" y="-777.8" font-family="monospace" font-size="14.00" fill="#000000">typsend</text>
<polygon fill="#ffffff" stroke="none" points="874.5,-769 874.5,-794 975.5,-794 975.5,-769 874.5,-769"/>
<polygon fill="none" stroke="#2c3e50" points="874.5,-769 874.5,-794 975.5,-794 975.5,-769 874.5,-769"/>
<text text-anchor="start" x="879.5" y="-778.8" font-family="monospace" font-style="italic" font-size="14.00" fill="#95a5a6">regproc</text>
<polygon fill="#ffffff" stroke="none" points="756.5,-744 756.5,-769 874.5,-769 874.5,-744 756.5,-744"/>
<polygon fill="none" stroke="#2c3e50" points="756.5,-744 756.5,-769 874.5,-769 874.5,-744 756.5,-744"/>
<text text-anchor="start" x="761.5" y="-752.8" font-family="monospace" font-size="14.00" fill="#000000">typanalyze</text>
<polygon fill="#ffffff" stroke="none" points="874.5,-744 874.5,-769 975.5,-769 975.5,-744 874.5,-744"/>
<polygon fill="none" stroke="#2c3e50" points="874.5,-744 874.5,-769 975.5,-769 975.5,-744 874.5,-744"/>
<text text-anchor="start" x="879.5" y="-753.8" font-family="monospace" font-style="italic" font-size="14.00" fill="#95a5a6">regproc</text>
<polygon fill="#ffffff" stroke="none" points="756.5,-719 756.5,-744 874.5,-744 874.5,-719 756.5,-719"/>
<polygon fill="none" stroke="#2c3e50" points="756.5,-719 756.5,-744 874.5,-744 874.5,-719 756.5,-719"/>
<text text-anchor="start" x="761.5" y="-727.8" font-family="monospace" font-size="14.00" fill="#000000">typalign</text>
<polygon fill="#ffffff" stroke="none" points="874.5,-719 874.5,-744 975.5,-744 975.5,-719 874.5,-719"/>
<polygon fill="none" stroke="#2c3e50" points="874.5,-719 874.5,-744 975.5,-744 975.5,-719 874.5,-719"/>
<text text-anchor="start" x="879.5" y="-728.8" font-family="monospace" font-style="italic" font-size="14.00" fill="#95a5a6">quoted_char</text>
<polygon fill="#ffffff" stroke="none" points="756.5,-694 756.5,-719 874.5,-719 874.5,-694 756.5,-694"/>
<polygon fill="none" stroke="#2c3e50" points="756.5,-694 756.5,-719 874.5,-719 874.5,-694 756.5,-694"/>
<text text-anchor="start" x="761.5" y="-702.8" font-family="monospace" font-size="14.00" fill="#000000">typstorage</text>
<polygon fill="#ffffff" stroke="none" points="874.5,-694 874.5,-719 975.5,-719 975.5,-694 874.5,-694"/>
<polygon fill="none" stroke="#2c3e50" points="874.5,-694 874.5,-719 975.5,-719 975.5,-694 874.5,-694"/>
<text text-anchor="start" x="879.5" y="-703.8" font-family="monospace" font-style="italic" font-size="14.00" fill="#95a5a6">quoted_char</text>
<polygon fill="#ffffff" stroke="none" points="756.5,-669 756.5,-694 874.5,-694 874.5,-669 756.5,-669"/>
<polygon fill="none" stroke="#2c3e50" points="756.5,-669 756.5,-694 874.5,-694 874.5,-669 756.5,-669"/>
<text text-anchor="start" x="761.5" y="-677.8" font-family="monospace" font-size="14.00" fill="#000000">typnotnull</text>
<polygon fill="#ffffff" stroke="none" points="874.5,-669 874.5,-694 975.5,-694 975.5,-669 874.5,-669"/>
<polygon fill="none" stroke="#2c3e50" points="874.5,-669 874.5,-694 975.5,-694 975.5,-669 874.5,-669"/>
<text text-anchor="start" x="879.5" y="-678.8" font-family="monospace" font-style="italic" font-size="14.00" fill="#95a5a6">boolean</text>
<polygon fill="#ffffff" stroke="none" points="756.5,-644 756.5,-669 874.5,-669 874.5,-644 756.5,-644"/>
<polygon fill="none" stroke="#2c3e50" points="756.5,-644 756.5,-669 874.5,-669 874.5,-644 756.5,-644"/>
<text text-anchor="start" x="761.5" y="-652.8" font-family="monospace" font-size="14.00" fill="#000000">typbasetype</text>
<polygon fill="#ffffff" stroke="none" points="874.5,-644 874.5,-669 975.5,-669 975.5,-644 874.5,-644"/>
<polygon fill="none" stroke="#2c3e50" points="874.5,-644 874.5,-669 975.5,-669 975.5,-644 874.5,-644"/>
<text text-anchor="start" x="879.5" y="-653.8" font-family="monospace" font-style="italic" font-size="14.00" fill="#95a5a6">oid</text>
<polygon fill="#ffffff" stroke="none" points="756.5,-619 756.5,-644 874.5,-644 874.5,-619 756.5,-619"/>
<polygon fill="none" stroke="#2c3e50" points="756.5,-619 756.5,-644 874.5,-644 874.5,-619 756.5,-619"/>
<text text-anchor="start" x="761.5" y="-627.8" font-family="monospace" font-size="14.00" fill="#000000">typtypmod</text>
<polygon fill="#ffffff" stroke="none" points="874.5,-619 874.5,-644 975.5,-644 975.5,-619 874.5,-619"/>
<polygon fill="none" stroke="#2c3e50" points="874.5,-619 874.5,-644 975.5,-644 975.5,-619 874.5,-619"/>
<text text-anchor="start" x="879.5" y="-628.8" font-family="monospace" font-style="italic" font-size="14.00" fill="#95a5a6">integer</text>
<polygon fill="#ffffff" stroke="none" points="756.5,-594 756.5,-619 874.5,-619 874.5,-594 756.5,-594"/>
<polygon fill="none" stroke="#2c3e50" points="756.5,-594 756.5,-619 874.5,-619 874.5,-594 756.5,-594"/>
<text text-anchor="start" x="761.5" y="-602.8" font-family="monospace" font-size="14.00" fill="#000000">typndims</text>
<polygon fill="#ffffff" stroke="none" points="874.5,-594 874.5,-619 975.5,-619 975.5,-594 874.5,-594"/>
<polygon fill="none" stroke="#2c3e50" points="874.5,-594 874.5,-619 975.5,-619 975.5,-594 874.5,-594"/>
<text text-anchor="start" x="879.5" y="-603.8" font-family="monospace" font-style="italic" font-size="14.00" fill="#95a5a6">integer</text>
<polygon fill="#ffffff" stroke="none" points="756.5,-569 756.5,-594 874.5,-594 874.5,-569 756.5,-569"/>
<polygon fill="none" stroke="#2c3e50" points="756.5,-569 756.5,-594 874.5,-594 874.5,-569 756.5,-569"/>
<text text-anchor="start" x="761.5" y="-577.8" font-family="monospace" font-size="14.00" fill="#000000">typdefaultbin</text>
<polygon fill="#ffffff" stroke="none" points="874.5,-569 874.5,-594 975.5,-594 975.5,-569 874.5,-569"/>
<polygon fill="none" stroke="#2c3e50" points="874.5,-569 874.5,-594 975.5,-594 975.5,-569 874.5,-569"/>
<text text-anchor="start" x="879.5" y="-578.8" font-family="monospace" font-style="italic" font-size="14.00" fill="#95a5a6">text</text>
<polygon fill="#ffffff" stroke="none" points="756.5,-544 756.5,-569 874.5,-569 874.5,-544 756.5,-544"/>
<polygon fill="none" stroke="#2c3e50" points="756.5,-544 756.5,-569 874.5,-569 874.5,-544 756.5,-544"/>
<text text-anchor="start" x="761.5" y="-552.8" font-family="monospace" font-size="14.00" fill="#000000">typdefault</text>
<polygon fill="#ffffff" stroke="none" points="874.5,-544 874.5,-569 975.5,-569 975.5,-544 874.5,-544"/>
<polygon fill="none" stroke="#2c3e50" points="874.5,-544 874.5,-569 975.5,-569 975.5,-544 874.5,-544"/>
<text text-anchor="start" x="879.5" y="-553.8" font-family="monospace" font-style="italic" font-size="14.00" fill="#95a5a6">text</text>
</a>
</g>
</g>
<!-- pg_amop&#45;&gt;pg_type -->
<g id="edge2" class="edge"><title>pg_amop:amopsubtype_out&#45;&gt;pg_type:oid_in</title>
<path fill="none" stroke="#2c3e50" d="M376.5,-1132C541.49,-1132 585.275,-1132 745.294,-1132"/>
<polygon fill="#2c3e50" stroke="#2c3e50" points="745.5,-1135.5 755.5,-1132 745.5,-1128.5 745.5,-1135.5"/>
</g>
<!-- pg_operator -->
<g id="node4" class="node"><title>pg_operator</title>
<g id="a_node4"><a xlink:href="pg_operator.svg" xlink:title="&lt;TABLE&gt;">
<polygon fill="#2c3e50" stroke="none" points="760.5,-470 760.5,-500 971.5,-500 971.5,-470 760.5,-470"/>
<polygon fill="none" stroke="black" points="760.5,-470 760.5,-500 971.5,-500 971.5,-470 760.5,-470"/>
<text text-anchor="start" x="808" y="-481.6" font-family="monospace" font-weight="bold" font-size="18.00" fill="#ffffff">pg_operator</text>
<polygon fill="#18bc9c" stroke="none" points="760.5,-445 760.5,-470 870.5,-470 870.5,-445 760.5,-445"/>
<polygon fill="none" stroke="#2c3e50" points="760.5,-445 760.5,-470 870.5,-470 870.5,-445 760.5,-445"/>
<text text-anchor="start" x="765.5" y="-453.8" font-family="monospace" font-size="14.00" fill="#ffffff">oid</text>
<polygon fill="#ffffff" stroke="none" points="870.5,-445 870.5,-470 971.5,-470 971.5,-445 870.5,-445"/>
<polygon fill="none" stroke="#2c3e50" points="870.5,-445 870.5,-470 971.5,-470 971.5,-445 870.5,-445"/>
<text text-anchor="start" x="875.5" y="-454.8" font-family="monospace" font-style="italic" font-size="14.00" fill="#95a5a6">oid</text>
<polygon fill="#ffffff" stroke="none" points="760.5,-420 760.5,-445 870.5,-445 870.5,-420 760.5,-420"/>
<polygon fill="none" stroke="#2c3e50" points="760.5,-420 760.5,-445 870.5,-445 870.5,-420 760.5,-420"/>
<text text-anchor="start" x="765.5" y="-428.8" font-family="monospace" font-size="14.00" fill="#000000">oprname</text>
<polygon fill="#ffffff" stroke="none" points="870.5,-420 870.5,-445 971.5,-445 971.5,-420 870.5,-420"/>
<polygon fill="none" stroke="#2c3e50" points="870.5,-420 870.5,-445 971.5,-445 971.5,-420 870.5,-420"/>
<text text-anchor="start" x="875.5" y="-429.8" font-family="monospace" font-style="italic" font-size="14.00" fill="#95a5a6">name</text>
<polygon fill="#ffffff" stroke="none" points="760.5,-395 760.5,-420 870.5,-420 870.5,-395 760.5,-395"/>
<polygon fill="none" stroke="#2c3e50" points="760.5,-395 760.5,-420 870.5,-420 870.5,-395 760.5,-395"/>
<text text-anchor="start" x="765.5" y="-403.8" font-family="monospace" font-size="14.00" fill="#000000">oprnamespace</text>
<polygon fill="#ffffff" stroke="none" points="870.5,-395 870.5,-420 971.5,-420 971.5,-395 870.5,-395"/>
<polygon fill="none" stroke="#2c3e50" points="870.5,-395 870.5,-420 971.5,-420 971.5,-395 870.5,-395"/>
<text text-anchor="start" x="875.5" y="-404.8" font-family="monospace" font-style="italic" font-size="14.00" fill="#95a5a6">oid</text>
<polygon fill="#ffffff" stroke="none" points="760.5,-370 760.5,-395 870.5,-395 870.5,-370 760.5,-370"/>
<polygon fill="none" stroke="#2c3e50" points="760.5,-370 760.5,-395 870.5,-395 870.5,-370 760.5,-370"/>
<text text-anchor="start" x="765.5" y="-378.8" font-family="monospace" font-size="14.00" fill="#000000">oprowner</text>
<polygon fill="#ffffff" stroke="none" points="870.5,-370 870.5,-395 971.5,-395 971.5,-370 870.5,-370"/>
<polygon fill="none" stroke="#2c3e50" points="870.5,-370 870.5,-395 971.5,-395 971.5,-370 870.5,-370"/>
<text text-anchor="start" x="875.5" y="-379.8" font-family="monospace" font-style="italic" font-size="14.00" fill="#95a5a6">oid</text>
<polygon fill="#ffffff" stroke="none" points="760.5,-345 760.5,-370 870.5,-370 870.5,-345 760.5,-345"/>
<polygon fill="none" stroke="#2c3e50" points="760.5,-345 760.5,-370 870.5,-370 870.5,-345 760.5,-345"/>
<text text-anchor="start" x="765.5" y="-353.8" font-family="monospace" font-size="14.00" fill="#000000">oprkind</text>
<polygon fill="#ffffff" stroke="none" points="870.5,-345 870.5,-370 971.5,-370 971.5,-345 870.5,-345"/>
<polygon fill="none" stroke="#2c3e50" points="870.5,-345 870.5,-370 971.5,-370 971.5,-345 870.5,-345"/>
<text text-anchor="start" x="875.5" y="-354.8" font-family="monospace" font-style="italic" font-size="14.00" fill="#95a5a6">quoted_char</text>
<polygon fill="#ffffff" stroke="none" points="760.5,-320 760.5,-345 870.5,-345 870.5,-320 760.5,-320"/>
<polygon fill="none" stroke="#2c3e50" points="760.5,-320 760.5,-345 870.5,-345 870.5,-320 760.5,-320"/>
<text text-anchor="start" x="765.5" y="-328.8" font-family="monospace" font-size="14.00" fill="#000000">oprcanhash</text>
<polygon fill="#ffffff" stroke="none" points="870.5,-320 870.5,-345 971.5,-345 971.5,-320 870.5,-320"/>
<polygon fill="none" stroke="#2c3e50" points="870.5,-320 870.5,-345 971.5,-345 971.5,-320 870.5,-320"/>
<text text-anchor="start" x="875.5" y="-329.8" font-family="monospace" font-style="italic" font-size="14.00" fill="#95a5a6">boolean</text>
<polygon fill="#ffffff" stroke="none" points="760.5,-295 760.5,-320 870.5,-320 870.5,-295 760.5,-295"/>
<polygon fill="none" stroke="#2c3e50" points="760.5,-295 760.5,-320 870.5,-320 870.5,-295 760.5,-295"/>
<text text-anchor="start" x="765.5" y="-303.8" font-family="monospace" font-size="14.00" fill="#000000">oprleft</text>
<polygon fill="#ffffff" stroke="none" points="870.5,-295 870.5,-320 971.5,-320 971.5,-295 870.5,-295"/>
<polygon fill="none" stroke="#2c3e50" points="870.5,-295 870.5,-320 971.5,-320 971.5,-295 870.5,-295"/>
<text text-anchor="start" x="875.5" y="-304.8" font-family="monospace" font-style="italic" font-size="14.00" fill="#95a5a6">oid</text>
<polygon fill="#ffffff" stroke="none" points="760.5,-270 760.5,-295 870.5,-295 870.5,-270 760.5,-270"/>
<polygon fill="none" stroke="#2c3e50" points="760.5,-270 760.5,-295 870.5,-295 870.5,-270 760.5,-270"/>
<text text-anchor="start" x="765.5" y="-278.8" font-family="monospace" font-size="14.00" fill="#000000">oprright</text>
<polygon fill="#ffffff" stroke="none" points="870.5,-270 870.5,-295 971.5,-295 971.5,-270 870.5,-270"/>
<polygon fill="none" stroke="#2c3e50" points="870.5,-270 870.5,-295 971.5,-295 971.5,-270 870.5,-270"/>
<text text-anchor="start" x="875.5" y="-279.8" font-family="monospace" font-style="italic" font-size="14.00" fill="#95a5a6">oid</text>
<polygon fill="#ffffff" stroke="none" points="760.5,-245 760.5,-270 870.5,-270 870.5,-245 760.5,-245"/>
<polygon fill="none" stroke="#2c3e50" points="760.5,-245 760.5,-270 870.5,-270 870.5,-245 760.5,-245"/>
<text text-anchor="start" x="765.5" y="-253.8" font-family="monospace" font-size="14.00" fill="#000000">oprresult</text>
<polygon fill="#ffffff" stroke="none" points="870.5,-245 870.5,-270 971.5,-270 971.5,-245 870.5,-245"/>
<polygon fill="none" stroke="#2c3e50" points="870.5,-245 870.5,-270 971.5,-270 971.5,-245 870.5,-245"/>
<text text-anchor="start" x="875.5" y="-254.8" font-family="monospace" font-style="italic" font-size="14.00" fill="#95a5a6">oid</text>
<polygon fill="#ffffff" stroke="none" points="760.5,-220 760.5,-245 870.5,-245 870.5,-220 760.5,-220"/>
<polygon fill="none" stroke="#2c3e50" points="760.5,-220 760.5,-245 870.5,-245 870.5,-220 760.5,-220"/>
<text text-anchor="start" x="765.5" y="-228.8" font-family="monospace" font-size="14.00" fill="#000000">oprcom</text>
<polygon fill="#ffffff" stroke="none" points="870.5,-220 870.5,-245 971.5,-245 971.5,-220 870.5,-220"/>
<polygon fill="none" stroke="#2c3e50" points="870.5,-220 870.5,-245 971.5,-245 971.5,-220 870.5,-220"/>
<text text-anchor="start" x="875.5" y="-229.8" font-family="monospace" font-style="italic" font-size="14.00" fill="#95a5a6">oid</text>
<polygon fill="#ffffff" stroke="none" points="760.5,-195 760.5,-220 870.5,-220 870.5,-195 760.5,-195"/>
<polygon fill="none" stroke="#2c3e50" points="760.5,-195 760.5,-220 870.5,-220 870.5,-195 760.5,-195"/>
<text text-anchor="start" x="765.5" y="-203.8" font-family="monospace" font-size="14.00" fill="#000000">oprnegate</text>
<polygon fill="#ffffff" stroke="none" points="870.5,-195 870.5,-220 971.5,-220 971.5,-195 870.5,-195"/>
<polygon fill="none" stroke="#2c3e50" points="870.5,-195 870.5,-220 971.5,-220 971.5,-195 870.5,-195"/>
<text text-anchor="start" x="875.5" y="-204.8" font-family="monospace" font-style="italic" font-size="14.00" fill="#95a5a6">oid</text>
<polygon fill="#ffffff" stroke="none" points="760.5,-170 760.5,-195 870.5,-195 870.5,-170 760.5,-170"/>
<polygon fill="none" stroke="#2c3e50" points="760.5,-170 760.5,-195 870.5,-195 870.5,-170 760.5,-170"/>
<text text-anchor="start" x="765.5" y="-178.8" font-family="monospace" font-size="14.00" fill="#000000">oprlsortop</text>
<polygon fill="#ffffff" stroke="none" points="870.5,-170 870.5,-195 971.5,-195 971.5,-170 870.5,-170"/>
<polygon fill="none" stroke="#2c3e50" points="870.5,-170 870.5,-195 971.5,-195 971.5,-170 870.5,-170"/>
<text text-anchor="start" x="875.5" y="-179.8" font-family="monospace" font-style="italic" font-size="14.00" fill="#95a5a6">oid</text>
<polygon fill="#ffffff" stroke="none" points="760.5,-145 760.5,-170 870.5,-170 870.5,-145 760.5,-145"/>
<polygon fill="none" stroke="#2c3e50" points="760.5,-145 760.5,-170 870.5,-170 870.5,-145 760.5,-145"/>
<text text-anchor="start" x="765.5" y="-153.8" font-family="monospace" font-size="14.00" fill="#000000">oprrsortop</text>
<polygon fill="#ffffff" stroke="none" points="870.5,-145 870.5,-170 971.5,-170 971.5,-145 870.5,-145"/>
<polygon fill="none" stroke="#2c3e50" points="870.5,-145 870.5,-170 971.5,-170 971.5,-145 870.5,-145"/>
<text text-anchor="start" x="875.5" y="-154.8" font-family="monospace" font-style="italic" font-size="14.00" fill="#95a5a6">oid</text>
<polygon fill="#ffffff" stroke="none" points="760.5,-120 760.5,-145 870.5,-145 870.5,-120 760.5,-120"/>
<polygon fill="none" stroke="#2c3e50" points="760.5,-120 760.5,-145 870.5,-145 870.5,-120 760.5,-120"/>
<text text-anchor="start" x="765.5" y="-128.8" font-family="monospace" font-size="14.00" fill="#000000">oprltcmpop</text>
<polygon fill="#ffffff" stroke="none" points="870.5,-120 870.5,-145 971.5,-145 971.5,-120 870.5,-120"/>
<polygon fill="none" stroke="#2c3e50" points="870.5,-120 870.5,-145 971.5,-145 971.5,-120 870.5,-120"/>
<text text-anchor="start" x="875.5" y="-129.8" font-family="monospace" font-style="italic" font-size="14.00" fill="#95a5a6">oid</text>
<polygon fill="#ffffff" stroke="none" points="760.5,-95 760.5,-120 870.5,-120 870.5,-95 760.5,-95"/>
<polygon fill="none" stroke="#2c3e50" points="760.5,-95 760.5,-120 870.5,-120 870.5,-95 760.5,-95"/>
<text text-anchor="start" x="765.5" y="-103.8" font-family="monospace" font-size="14.00" fill="#000000">oprgtcmpop</text>
<polygon fill="#ffffff" stroke="none" points="870.5,-95 870.5,-120 971.5,-120 971.5,-95 870.5,-95"/>
<polygon fill="none" stroke="#2c3e50" points="870.5,-95 870.5,-120 971.5,-120 971.5,-95 870.5,-95"/>
<text text-anchor="start" x="875.5" y="-104.8" font-family="monospace" font-style="italic" font-size="14.00" fill="#95a5a6">oid</text>
<polygon fill="#ffffff" stroke="none" points="760.5,-70 760.5,-95 870.5,-95 870.5,-70 760.5,-70"/>
<polygon fill="none" stroke="#2c3e50" points="760.5,-70 760.5,-95 870.5,-95 870.5,-70 760.5,-70"/>
<text text-anchor="start" x="765.5" y="-78.8" font-family="monospace" font-size="14.00" fill="#000000">oprcode</text>
<polygon fill="#ffffff" stroke="none" points="870.5,-70 870.5,-95 971.5,-95 971.5,-70 870.5,-70"/>
<polygon fill="none" stroke="#2c3e50" points="870.5,-70 870.5,-95 971.5,-95 971.5,-70 870.5,-70"/>
<text text-anchor="start" x="875.5" y="-79.8" font-family="monospace" font-style="italic" font-size="14.00" fill="#95a5a6">regproc</text>
<polygon fill="#ffffff" stroke="none" points="760.5,-45 760.5,-70 870.5,-70 870.5,-45 760.5,-45"/>
<polygon fill="none" stroke="#2c3e50" points="760.5,-45 760.5,-70 870.5,-70 870.5,-45 760.5,-45"/>
<text text-anchor="start" x="765.5" y="-53.8" font-family="monospace" font-size="14.00" fill="#000000">oprrest</text>
<polygon fill="#ffffff" stroke="none" points="870.5,-45 870.5,-70 971.5,-70 971.5,-45 870.5,-45"/>
<polygon fill="none" stroke="#2c3e50" points="870.5,-45 870.5,-70 971.5,-70 971.5,-45 870.5,-45"/>
<text text-anchor="start" x="875.5" y="-54.8" font-family="monospace" font-style="italic" font-size="14.00" fill="#95a5a6">regproc</text>
<polygon fill="#ffffff" stroke="none" points="760.5,-20 760.5,-45 870.5,-45 870.5,-20 760.5,-20"/>
<polygon fill="none" stroke="#2c3e50" points="760.5,-20 760.5,-45 870.5,-45 870.5,-20 760.5,-20"/>
<text text-anchor="start" x="765.5" y="-28.8" font-family="monospace" font-size="14.00" fill="#000000">oprjoin</text>
<polygon fill="#ffffff" stroke="none" points="870.5,-20 870.5,-45 971.5,-45 971.5,-20 870.5,-20"/>
<polygon fill="none" stroke="#2c3e50" points="870.5,-20 870.5,-45 971.5,-45 971.5,-20 870.5,-20"/>
<text text-anchor="start" x="875.5" y="-29.8" font-family="monospace" font-style="italic" font-size="14.00" fill="#95a5a6">regproc</text>
</a>
</g>
</g>
<!-- pg_amop&#45;&gt;pg_operator -->
<g id="edge3" class="edge"><title>pg_amop:amopopr_out&#45;&gt;pg_operator:oid_in</title>
<path fill="none" stroke="#2c3e50" d="M376.5,-1056C631.121,-1056 402.081,-700.15 584,-522 640.77,-466.406 673.578,-458.604 749.068,-458.036"/>
<polygon fill="#2c3e50" stroke="#2c3e50" points="749.512,-461.535 759.5,-458 749.488,-454.535 749.512,-461.535"/>
</g>
</g>
</svg>
