<?xml version="1.0" encoding="UTF-8" standalone="no"?>
<!DOCTYPE svg PUBLIC "-//W3C//DTD SVG 1.1//EN"
 "http://www.w3.org/Graphics/SVG/1.1/DTD/svg11.dtd">
<!-- Generated by graphviz version 2.38.0 (20140413.2041)
 -->
<!-- Title: GPDB Pages: 1 -->
<svg width="1488pt" height="691pt"
 viewBox="0.00 0.00 1488.00 691.00" xmlns="http://www.w3.org/2000/svg" xmlns:xlink="http://www.w3.org/1999/xlink">
<g id="graph0" class="graph" transform="scale(1 1) rotate(0) translate(36 655)">
<title>GPDB</title>
<polygon fill="white" stroke="none" points="-36,36 -36,-655 1452,-655 1452,36 -36,36"/>
<text text-anchor="middle" x="708" y="-589.4" font-family="Helvetica,sans-Serif" font-size="32.00">Greenplum System Catalog: pg_auth_members</text>
<g id="clust2" class="cluster"><title>cluster_selected</title>
</g>
<g id="clust3" class="cluster"><title>cluster_to</title>
</g>
<!-- pg_auth_members -->
<g id="node1" class="node"><title>pg_auth_members</title>
<g id="a_node1"><a xlink:href="pg_auth_members.svg" xlink:title="&lt;TABLE&gt;">
<polygon fill="#2c3e50" stroke="none" points="260,-483 260,-513 438,-513 438,-483 260,-483"/>
<polygon fill="none" stroke="black" points="260,-483 260,-513 438,-513 438,-483 260,-483"/>
<text text-anchor="start" x="270" y="-494.6" font-family="monospace" font-weight="bold" font-size="18.00" fill="#ffffff">pg_auth_members</text>
<polygon fill="#ffffff" stroke="none" points="260,-458 260,-483 370,-483 370,-458 260,-458"/>
<polygon fill="none" stroke="#2c3e50" points="260,-458 260,-483 370,-483 370,-458 260,-458"/>
<text text-anchor="start" x="265" y="-466.8" font-family="monospace" font-size="14.00" fill="#000000">roleid</text>
<polygon fill="#18bc9c" stroke="none" points="370,-458 370,-483 438,-483 438,-458 370,-458"/>
<polygon fill="none" stroke="#2c3e50" points="370,-458 370,-483 438,-483 438,-458 370,-458"/>
<text text-anchor="start" x="375" y="-467.8" font-family="monospace" font-style="italic" font-size="14.00" fill="#ffffff">oid</text>
<polygon fill="#ffffff" stroke="none" points="260,-433 260,-458 370,-458 370,-433 260,-433"/>
<polygon fill="none" stroke="#2c3e50" points="260,-433 260,-458 370,-458 370,-433 260,-433"/>
<text text-anchor="start" x="265" y="-441.8" font-family="monospace" font-size="14.00" fill="#000000">member</text>
<polygon fill="#18bc9c" stroke="none" points="370,-433 370,-458 438,-458 438,-433 370,-433"/>
<polygon fill="none" stroke="#2c3e50" points="370,-433 370,-458 438,-458 438,-433 370,-433"/>
<text text-anchor="start" x="375" y="-442.8" font-family="monospace" font-style="italic" font-size="14.00" fill="#ffffff">oid</text>
<polygon fill="#ffffff" stroke="none" points="260,-408 260,-433 370,-433 370,-408 260,-408"/>
<polygon fill="none" stroke="#2c3e50" points="260,-408 260,-433 370,-433 370,-408 260,-408"/>
<text text-anchor="start" x="265" y="-416.8" font-family="monospace" font-size="14.00" fill="#000000">grantor</text>
<polygon fill="#ffffff" stroke="none" points="370,-408 370,-433 438,-433 438,-408 370,-408"/>
<polygon fill="none" stroke="#2c3e50" points="370,-408 370,-433 438,-433 438,-408 370,-408"/>
<text text-anchor="start" x="375" y="-417.8" font-family="monospace" font-style="italic" font-size="14.00" fill="#95a5a6">oid</text>
<polygon fill="#ffffff" stroke="none" points="260,-383 260,-408 370,-408 370,-383 260,-383"/>
<polygon fill="none" stroke="#2c3e50" points="260,-383 260,-408 370,-408 370,-383 260,-383"/>
<text text-anchor="start" x="265" y="-391.8" font-family="monospace" font-size="14.00" fill="#000000">admin_option</text>
<polygon fill="#ffffff" stroke="none" points="370,-383 370,-408 438,-408 438,-383 370,-383"/>
<polygon fill="none" stroke="#2c3e50" points="370,-383 370,-408 438,-408 438,-383 370,-383"/>
<text text-anchor="start" x="375" y="-392.8" font-family="monospace" font-style="italic" font-size="14.00" fill="#95a5a6">boolean</text>
</a>
</g>
</g>
<!-- pg_authid -->
<g id="node2" class="node"><title>pg_authid</title>
<g id="a_node2"><a xlink:href="pg_authid.svg" xlink:title="&lt;TABLE&gt;">
<polygon fill="#2c3e50" stroke="none" points="887,-470 887,-500 1247,-500 1247,-470 887,-470"/>
<polygon fill="none" stroke="black" points="887,-470 887,-500 1247,-500 1247,-470 887,-470"/>
<text text-anchor="start" x="1019.5" y="-481.6" font-family="monospace" font-weight="bold" font-size="18.00" fill="#ffffff">pg_authid</text>
<polygon fill="#18bc9c" stroke="none" points="887,-445 887,-470 1038,-470 1038,-445 887,-445"/>
<polygon fill="none" stroke="#2c3e50" points="887,-445 887,-470 1038,-470 1038,-445 887,-445"/>
<text text-anchor="start" x="892" y="-453.8" font-family="monospace" font-size="14.00" fill="#ffffff">oid</text>
<polygon fill="#ffffff" stroke="none" points="1038,-445 1038,-470 1247,-470 1247,-445 1038,-445"/>
<polygon fill="none" stroke="#2c3e50" points="1038,-445 1038,-470 1247,-470 1247,-445 1038,-445"/>
<text text-anchor="start" x="1043" y="-454.8" font-family="monospace" font-style="italic" font-size="14.00" fill="#95a5a6">oid</text>
<polygon fill="#ffffff" stroke="none" points="887,-420 887,-445 1038,-445 1038,-420 887,-420"/>
<polygon fill="none" stroke="#2c3e50" points="887,-420 887,-445 1038,-445 1038,-420 887,-420"/>
<text text-anchor="start" x="892" y="-428.8" font-family="monospace" font-size="14.00" fill="#000000">rolname</text>
<polygon fill="#ffffff" stroke="none" points="1038,-420 1038,-445 1247,-445 1247,-420 1038,-420"/>
<polygon fill="none" stroke="#2c3e50" points="1038,-420 1038,-445 1247,-445 1247,-420 1038,-420"/>
<text text-anchor="start" x="1043" y="-429.8" font-family="monospace" font-style="italic" font-size="14.00" fill="#95a5a6">name</text>
<polygon fill="#ffffff" stroke="none" points="887,-395 887,-420 1038,-420 1038,-395 887,-395"/>
<polygon fill="none" stroke="#2c3e50" points="887,-395 887,-420 1038,-420 1038,-395 887,-395"/>
<text text-anchor="start" x="892" y="-403.8" font-family="monospace" font-size="14.00" fill="#000000">rolsuper</text>
<polygon fill="#ffffff" stroke="none" points="1038,-395 1038,-420 1247,-420 1247,-395 1038,-395"/>
<polygon fill="none" stroke="#2c3e50" points="1038,-395 1038,-420 1247,-420 1247,-395 1038,-395"/>
<text text-anchor="start" x="1043" y="-404.8" font-family="monospace" font-style="italic" font-size="14.00" fill="#95a5a6">boolean</text>
<polygon fill="#ffffff" stroke="none" points="887,-370 887,-395 1038,-395 1038,-370 887,-370"/>
<polygon fill="none" stroke="#2c3e50" points="887,-370 887,-395 1038,-395 1038,-370 887,-370"/>
<text text-anchor="start" x="892" y="-378.8" font-family="monospace" font-size="14.00" fill="#000000">rolinherit</text>
<polygon fill="#ffffff" stroke="none" points="1038,-370 1038,-395 1247,-395 1247,-370 1038,-370"/>
<polygon fill="none" stroke="#2c3e50" points="1038,-370 1038,-395 1247,-395 1247,-370 1038,-370"/>
<text text-anchor="start" x="1043" y="-379.8" font-family="monospace" font-style="italic" font-size="14.00" fill="#95a5a6">boolean</text>
<polygon fill="#ffffff" stroke="none" points="887,-345 887,-370 1038,-370 1038,-345 887,-345"/>
<polygon fill="none" stroke="#2c3e50" points="887,-345 887,-370 1038,-370 1038,-345 887,-345"/>
<text text-anchor="start" x="892" y="-353.8" font-family="monospace" font-size="14.00" fill="#000000">rolcreaterole</text>
<polygon fill="#ffffff" stroke="none" points="1038,-345 1038,-370 1247,-370 1247,-345 1038,-345"/>
<polygon fill="none" stroke="#2c3e50" points="1038,-345 1038,-370 1247,-370 1247,-345 1038,-345"/>
<text text-anchor="start" x="1043" y="-354.8" font-family="monospace" font-style="italic" font-size="14.00" fill="#95a5a6">boolean</text>
<polygon fill="#ffffff" stroke="none" points="887,-320 887,-345 1038,-345 1038,-320 887,-320"/>
<polygon fill="none" stroke="#2c3e50" points="887,-320 887,-345 1038,-345 1038,-320 887,-320"/>
<text text-anchor="start" x="892" y="-328.8" font-family="monospace" font-size="14.00" fill="#000000">rolcreatedb</text>
<polygon fill="#ffffff" stroke="none" points="1038,-320 1038,-345 1247,-345 1247,-320 1038,-320"/>
<polygon fill="none" stroke="#2c3e50" points="1038,-320 1038,-345 1247,-345 1247,-320 1038,-320"/>
<text text-anchor="start" x="1043" y="-329.8" font-family="monospace" font-style="italic" font-size="14.00" fill="#95a5a6">boolean</text>
<polygon fill="#ffffff" stroke="none" points="887,-295 887,-320 1038,-320 1038,-295 887,-295"/>
<polygon fill="none" stroke="#2c3e50" points="887,-295 887,-320 1038,-320 1038,-295 887,-295"/>
<text text-anchor="start" x="892" y="-303.8" font-family="monospace" font-size="14.00" fill="#000000">rolcatupdate</text>
<polygon fill="#ffffff" stroke="none" points="1038,-295 1038,-320 1247,-320 1247,-295 1038,-295"/>
<polygon fill="none" stroke="#2c3e50" points="1038,-295 1038,-320 1247,-320 1247,-295 1038,-295"/>
<text text-anchor="start" x="1043" y="-304.8" font-family="monospace" font-style="italic" font-size="14.00" fill="#95a5a6">boolean</text>
<polygon fill="#ffffff" stroke="none" points="887,-270 887,-295 1038,-295 1038,-270 887,-270"/>
<polygon fill="none" stroke="#2c3e50" points="887,-270 887,-295 1038,-295 1038,-270 887,-270"/>
<text text-anchor="start" x="892" y="-278.8" font-family="monospace" font-size="14.00" fill="#000000">rolcanlogin</text>
<polygon fill="#ffffff" stroke="none" points="1038,-270 1038,-295 1247,-295 1247,-270 1038,-270"/>
<polygon fill="none" stroke="#2c3e50" points="1038,-270 1038,-295 1247,-295 1247,-270 1038,-270"/>
<text text-anchor="start" x="1043" y="-279.8" font-family="monospace" font-style="italic" font-size="14.00" fill="#95a5a6">boolean</text>
<polygon fill="#ffffff" stroke="none" points="887,-245 887,-270 1038,-270 1038,-245 887,-245"/>
<polygon fill="none" stroke="#2c3e50" points="887,-245 887,-270 1038,-270 1038,-245 887,-245"/>
<text text-anchor="start" x="892" y="-253.8" font-family="monospace" font-size="14.00" fill="#000000">rolconnlimit</text>
<polygon fill="#ffffff" stroke="none" points="1038,-245 1038,-270 1247,-270 1247,-245 1038,-245"/>
<polygon fill="none" stroke="#2c3e50" points="1038,-245 1038,-270 1247,-270 1247,-245 1038,-245"/>
<text text-anchor="start" x="1043" y="-254.8" font-family="monospace" font-style="italic" font-size="14.00" fill="#95a5a6">integer</text>
<polygon fill="#ffffff" stroke="none" points="887,-220 887,-245 1038,-245 1038,-220 887,-220"/>
<polygon fill="none" stroke="#2c3e50" points="887,-220 887,-245 1038,-245 1038,-220 887,-220"/>
<text text-anchor="start" x="892" y="-228.8" font-family="monospace" font-size="14.00" fill="#000000">rolpassword</text>
<polygon fill="#ffffff" stroke="none" points="1038,-220 1038,-245 1247,-245 1247,-220 1038,-220"/>
<polygon fill="none" stroke="#2c3e50" points="1038,-220 1038,-245 1247,-245 1247,-220 1038,-220"/>
<text text-anchor="start" x="1043" y="-229.8" font-family="monospace" font-style="italic" font-size="14.00" fill="#95a5a6">text</text>
<polygon fill="#ffffff" stroke="none" points="887,-195 887,-220 1038,-220 1038,-195 887,-195"/>
<polygon fill="none" stroke="#2c3e50" points="887,-195 887,-220 1038,-220 1038,-195 887,-195"/>
<text text-anchor="start" x="892" y="-203.8" font-family="monospace" font-size="14.00" fill="#000000">rolvaliduntil</text>
<polygon fill="#ffffff" stroke="none" points="1038,-195 1038,-220 1247,-220 1247,-195 1038,-195"/>
<polygon fill="none" stroke="#2c3e50" points="1038,-195 1038,-220 1247,-220 1247,-195 1038,-195"/>
<text text-anchor="start" x="1043" y="-204.8" font-family="monospace" font-style="italic" font-size="14.00" fill="#95a5a6">timestamp_with_time_zone</text>
<polygon fill="#ffffff" stroke="none" points="887,-170 887,-195 1038,-195 1038,-170 887,-170"/>
<polygon fill="none" stroke="#2c3e50" points="887,-170 887,-195 1038,-195 1038,-170 887,-170"/>
<text text-anchor="start" x="892" y="-178.8" font-family="monospace" font-size="14.00" fill="#000000">rolconfig</text>
<polygon fill="#ffffff" stroke="none" points="1038,-170 1038,-195 1247,-195 1247,-170 1038,-170"/>
<polygon fill="none" stroke="#2c3e50" points="1038,-170 1038,-195 1247,-195 1247,-170 1038,-170"/>
<text text-anchor="start" x="1043" y="-179.8" font-family="monospace" font-style="italic" font-size="14.00" fill="#95a5a6">text[]</text>
<polygon fill="#ffffff" stroke="none" points="887,-145 887,-170 1038,-170 1038,-145 887,-145"/>
<polygon fill="none" stroke="#2c3e50" points="887,-145 887,-170 1038,-170 1038,-145 887,-145"/>
<text text-anchor="start" x="892" y="-153.8" font-family="monospace" font-size="14.00" fill="#000000">rolresqueue</text>
<polygon fill="#ffffff" stroke="none" points="1038,-145 1038,-170 1247,-170 1247,-145 1038,-145"/>
<polygon fill="none" stroke="#2c3e50" points="1038,-145 1038,-170 1247,-170 1247,-145 1038,-145"/>
<text text-anchor="start" x="1043" y="-154.8" font-family="monospace" font-style="italic" font-size="14.00" fill="#95a5a6">oid</text>
<polygon fill="#ffffff" stroke="none" points="887,-120 887,-145 1038,-145 1038,-120 887,-120"/>
<polygon fill="none" stroke="#2c3e50" points="887,-120 887,-145 1038,-145 1038,-120 887,-120"/>
<text text-anchor="start" x="892" y="-128.8" font-family="monospace" font-size="14.00" fill="#000000">rolcreaterextgpfd</text>
<polygon fill="#ffffff" stroke="none" points="1038,-120 1038,-145 1247,-145 1247,-120 1038,-120"/>
<polygon fill="none" stroke="#2c3e50" points="1038,-120 1038,-145 1247,-145 1247,-120 1038,-120"/>
<text text-anchor="start" x="1043" y="-129.8" font-family="monospace" font-style="italic" font-size="14.00" fill="#95a5a6">boolean</text>
<polygon fill="#ffffff" stroke="none" points="887,-95 887,-120 1038,-120 1038,-95 887,-95"/>
<polygon fill="none" stroke="#2c3e50" points="887,-95 887,-120 1038,-120 1038,-95 887,-95"/>
<text text-anchor="start" x="892" y="-103.8" font-family="monospace" font-size="14.00" fill="#000000">rolcreaterexthttp</text>
<polygon fill="#ffffff" stroke="none" points="1038,-95 1038,-120 1247,-120 1247,-95 1038,-95"/>
<polygon fill="none" stroke="#2c3e50" points="1038,-95 1038,-120 1247,-120 1247,-95 1038,-95"/>
<text text-anchor="start" x="1043" y="-104.8" font-family="monospace" font-style="italic" font-size="14.00" fill="#95a5a6">boolean</text>
<polygon fill="#ffffff" stroke="none" points="887,-70 887,-95 1038,-95 1038,-70 887,-70"/>
<polygon fill="none" stroke="#2c3e50" points="887,-70 887,-95 1038,-95 1038,-70 887,-70"/>
<text text-anchor="start" x="892" y="-78.8" font-family="monospace" font-size="14.00" fill="#000000">rolcreatewextgpfd</text>
<polygon fill="#ffffff" stroke="none" points="1038,-70 1038,-95 1247,-95 1247,-70 1038,-70"/>
<polygon fill="none" stroke="#2c3e50" points="1038,-70 1038,-95 1247,-95 1247,-70 1038,-70"/>
<text text-anchor="start" x="1043" y="-79.8" font-family="monospace" font-style="italic" font-size="14.00" fill="#95a5a6">boolean</text>
<polygon fill="#ffffff" stroke="none" points="887,-45 887,-70 1038,-70 1038,-45 887,-45"/>
<polygon fill="none" stroke="#2c3e50" points="887,-45 887,-70 1038,-70 1038,-45 887,-45"/>
<text text-anchor="start" x="892" y="-53.8" font-family="monospace" font-size="14.00" fill="#000000">rolcreaterexthdfs</text>
<polygon fill="#ffffff" stroke="none" points="1038,-45 1038,-70 1247,-70 1247,-45 1038,-45"/>
<polygon fill="none" stroke="#2c3e50" points="1038,-45 1038,-70 1247,-70 1247,-45 1038,-45"/>
<text text-anchor="start" x="1043" y="-54.8" font-family="monospace" font-style="italic" font-size="14.00" fill="#95a5a6">boolean</text>
<polygon fill="#ffffff" stroke="none" points="887,-20 887,-45 1038,-45 1038,-20 887,-20"/>
<polygon fill="none" stroke="#2c3e50" points="887,-20 887,-45 1038,-45 1038,-20 887,-20"/>
<text text-anchor="start" x="892" y="-28.8" font-family="monospace" font-size="14.00" fill="#000000">rolcreatewexthdfs</text>
<polygon fill="#ffffff" stroke="none" points="1038,-20 1038,-45 1247,-45 1247,-20 1038,-20"/>
<polygon fill="none" stroke="#2c3e50" points="1038,-20 1038,-45 1247,-45 1247,-20 1038,-20"/>
<text text-anchor="start" x="1043" y="-29.8" font-family="monospace" font-style="italic" font-size="14.00" fill="#95a5a6">boolean</text>
</a>
</g>
</g>
<!-- pg_auth_members&#45;&gt;pg_authid -->
<g id="edge1" class="edge"><title>pg_auth_members:roleid_out&#45;&gt;pg_authid:oid_in</title>
<path fill="none" stroke="#2c3e50" d="M439,-471C634.354,-471 685.514,-458.441 875.939,-458.011"/>
<polygon fill="#2c3e50" stroke="#2c3e50" points="876.004,-461.511 886,-458 875.996,-454.511 876.004,-461.511"/>
</g>
<!-- pg_auth_members&#45;&gt;pg_authid -->
<g id="edge2" class="edge"><title>pg_auth_members:member_out&#45;&gt;pg_authid:oid_in</title>
<path fill="none" stroke="#2c3e50" d="M439,-445C634.354,-445 685.514,-457.559 875.939,-457.989"/>
<polygon fill="#2c3e50" stroke="#2c3e50" points="875.996,-461.489 886,-458 876.004,-454.489 875.996,-461.489"/>
</g>
</g>
</svg>
