<?xml version="1.0" encoding="UTF-8" standalone="no"?>
<!DOCTYPE svg PUBLIC "-//W3C//DTD SVG 1.1//EN"
 "http://www.w3.org/Graphics/SVG/1.1/DTD/svg11.dtd">
<!-- Generated by graphviz version 2.38.0 (20140413.2041)
 -->
<!-- Title: GPDB Pages: 1 -->
<svg width="1656pt" height="679pt"
 viewBox="0.00 0.00 1656.00 679.00" xmlns="http://www.w3.org/2000/svg" xmlns:xlink="http://www.w3.org/1999/xlink">
<g id="graph0" class="graph" transform="scale(1 1) rotate(0) translate(36 643)">
<title>GPDB</title>
<polygon fill="white" stroke="none" points="-36,36 -36,-643 1620,-643 1620,36 -36,36"/>
<text text-anchor="middle" x="792" y="-577.4" font-family="Helvetica,sans-Serif" font-size="32.00">Greenplum System Catalog: pg_auth_time_constraint</text>
<g id="clust2" class="cluster"><title>cluster_selected</title>
</g>
<g id="clust3" class="cluster"><title>cluster_to</title>
</g>
<!-- pg_auth_time_constraint -->
<g id="node1" class="node"><title>pg_auth_time_constraint</title>
<g id="a_node1"><a xlink:href="pg_auth_time_constraint.svg" xlink:title="&lt;TABLE&gt;">
<polygon fill="#2c3e50" stroke="none" points="265,-470 265,-500 517,-500 517,-470 265,-470"/>
<polygon fill="none" stroke="black" points="265,-470 265,-500 517,-500 517,-470 265,-470"/>
<text text-anchor="start" x="270" y="-481.6" font-family="monospace" font-weight="bold" font-size="18.00" fill="#ffffff">pg_auth_time_constraint</text>
<polygon fill="#ffffff" stroke="none" points="265,-445 265,-470 399,-470 399,-445 265,-445"/>
<polygon fill="none" stroke="#2c3e50" points="265,-445 265,-470 399,-470 399,-445 265,-445"/>
<text text-anchor="start" x="270" y="-453.8" font-family="monospace" font-size="14.00" fill="#000000">authid</text>
<polygon fill="#18bc9c" stroke="none" points="399,-445 399,-470 517,-470 517,-445 399,-445"/>
<polygon fill="none" stroke="#2c3e50" points="399,-445 399,-470 517,-470 517,-445 399,-445"/>
<text text-anchor="start" x="404" y="-454.8" font-family="monospace" font-style="italic" font-size="14.00" fill="#ffffff">oid</text>
<polygon fill="#ffffff" stroke="none" points="265,-420 265,-445 399,-445 399,-420 265,-420"/>
<polygon fill="none" stroke="#2c3e50" points="265,-420 265,-445 399,-445 399,-420 265,-420"/>
<text text-anchor="start" x="270" y="-428.8" font-family="monospace" font-size="14.00" fill="#000000">start_day</text>
<polygon fill="#ffffff" stroke="none" points="399,-420 399,-445 517,-445 517,-420 399,-420"/>
<polygon fill="none" stroke="#2c3e50" points="399,-420 399,-445 517,-445 517,-420 399,-420"/>
<text text-anchor="start" x="404" y="-429.8" font-family="monospace" font-style="italic" font-size="14.00" fill="#95a5a6">smallint</text>
<polygon fill="#ffffff" stroke="none" points="265,-395 265,-420 399,-420 399,-395 265,-395"/>
<polygon fill="none" stroke="#2c3e50" points="265,-395 265,-420 399,-420 399,-395 265,-395"/>
<text text-anchor="start" x="270" y="-403.8" font-family="monospace" font-size="14.00" fill="#000000">start_time</text>
<polygon fill="#ffffff" stroke="none" points="399,-395 399,-420 517,-420 517,-395 399,-395"/>
<polygon fill="none" stroke="#2c3e50" points="399,-395 399,-420 517,-420 517,-395 399,-395"/>
<text text-anchor="start" x="404" y="-404.8" font-family="monospace" font-style="italic" font-size="14.00" fill="#95a5a6">time</text>
<polygon fill="#ffffff" stroke="none" points="265,-370 265,-395 399,-395 399,-370 265,-370"/>
<polygon fill="none" stroke="#2c3e50" points="265,-370 265,-395 399,-395 399,-370 265,-370"/>
<text text-anchor="start" x="270" y="-378.8" font-family="monospace" font-size="14.00" fill="#000000">end_day</text>
<polygon fill="#ffffff" stroke="none" points="399,-370 399,-395 517,-395 517,-370 399,-370"/>
<polygon fill="none" stroke="#2c3e50" points="399,-370 399,-395 517,-395 517,-370 399,-370"/>
<text text-anchor="start" x="404" y="-379.8" font-family="monospace" font-style="italic" font-size="14.00" fill="#95a5a6">smallint</text>
<polygon fill="#ffffff" stroke="none" points="265,-345 265,-370 399,-370 399,-345 265,-345"/>
<polygon fill="none" stroke="#2c3e50" points="265,-345 265,-370 399,-370 399,-345 265,-345"/>
<text text-anchor="start" x="270" y="-353.8" font-family="monospace" font-size="14.00" fill="#000000">end_time</text>
<polygon fill="#ffffff" stroke="none" points="399,-345 399,-370 517,-370 517,-345 399,-345"/>
<polygon fill="none" stroke="#2c3e50" points="399,-345 399,-370 517,-370 517,-345 399,-345"/>
<text text-anchor="start" x="404" y="-354.8" font-family="monospace" font-style="italic" font-size="14.00" fill="#95a5a6">time</text>
</a>
</g>
</g>
<!-- pg_authid -->
<g id="node2" class="node"><title>pg_authid</title>
<g id="a_node2"><a xlink:href="pg_authid.svg" xlink:title="&lt;TABLE&gt;">
<polygon fill="#2c3e50" stroke="none" points="1013,-470 1013,-500 1373,-500 1373,-470 1013,-470"/>
<polygon fill="none" stroke="black" points="1013,-470 1013,-500 1373,-500 1373,-470 1013,-470"/>
<text text-anchor="start" x="1145.5" y="-481.6" font-family="monospace" font-weight="bold" font-size="18.00" fill="#ffffff">pg_authid</text>
<polygon fill="#18bc9c" stroke="none" points="1013,-445 1013,-470 1164,-470 1164,-445 1013,-445"/>
<polygon fill="none" stroke="#2c3e50" points="1013,-445 1013,-470 1164,-470 1164,-445 1013,-445"/>
<text text-anchor="start" x="1018" y="-453.8" font-family="monospace" font-size="14.00" fill="#ffffff">oid</text>
<polygon fill="#ffffff" stroke="none" points="1164,-445 1164,-470 1373,-470 1373,-445 1164,-445"/>
<polygon fill="none" stroke="#2c3e50" points="1164,-445 1164,-470 1373,-470 1373,-445 1164,-445"/>
<text text-anchor="start" x="1169" y="-454.8" font-family="monospace" font-style="italic" font-size="14.00" fill="#95a5a6">oid</text>
<polygon fill="#ffffff" stroke="none" points="1013,-420 1013,-445 1164,-445 1164,-420 1013,-420"/>
<polygon fill="none" stroke="#2c3e50" points="1013,-420 1013,-445 1164,-445 1164,-420 1013,-420"/>
<text text-anchor="start" x="1018" y="-428.8" font-family="monospace" font-size="14.00" fill="#000000">rolname</text>
<polygon fill="#ffffff" stroke="none" points="1164,-420 1164,-445 1373,-445 1373,-420 1164,-420"/>
<polygon fill="none" stroke="#2c3e50" points="1164,-420 1164,-445 1373,-445 1373,-420 1164,-420"/>
<text text-anchor="start" x="1169" y="-429.8" font-family="monospace" font-style="italic" font-size="14.00" fill="#95a5a6">name</text>
<polygon fill="#ffffff" stroke="none" points="1013,-395 1013,-420 1164,-420 1164,-395 1013,-395"/>
<polygon fill="none" stroke="#2c3e50" points="1013,-395 1013,-420 1164,-420 1164,-395 1013,-395"/>
<text text-anchor="start" x="1018" y="-403.8" font-family="monospace" font-size="14.00" fill="#000000">rolsuper</text>
<polygon fill="#ffffff" stroke="none" points="1164,-395 1164,-420 1373,-420 1373,-395 1164,-395"/>
<polygon fill="none" stroke="#2c3e50" points="1164,-395 1164,-420 1373,-420 1373,-395 1164,-395"/>
<text text-anchor="start" x="1169" y="-404.8" font-family="monospace" font-style="italic" font-size="14.00" fill="#95a5a6">boolean</text>
<polygon fill="#ffffff" stroke="none" points="1013,-370 1013,-395 1164,-395 1164,-370 1013,-370"/>
<polygon fill="none" stroke="#2c3e50" points="1013,-370 1013,-395 1164,-395 1164,-370 1013,-370"/>
<text text-anchor="start" x="1018" y="-378.8" font-family="monospace" font-size="14.00" fill="#000000">rolinherit</text>
<polygon fill="#ffffff" stroke="none" points="1164,-370 1164,-395 1373,-395 1373,-370 1164,-370"/>
<polygon fill="none" stroke="#2c3e50" points="1164,-370 1164,-395 1373,-395 1373,-370 1164,-370"/>
<text text-anchor="start" x="1169" y="-379.8" font-family="monospace" font-style="italic" font-size="14.00" fill="#95a5a6">boolean</text>
<polygon fill="#ffffff" stroke="none" points="1013,-345 1013,-370 1164,-370 1164,-345 1013,-345"/>
<polygon fill="none" stroke="#2c3e50" points="1013,-345 1013,-370 1164,-370 1164,-345 1013,-345"/>
<text text-anchor="start" x="1018" y="-353.8" font-family="monospace" font-size="14.00" fill="#000000">rolcreaterole</text>
<polygon fill="#ffffff" stroke="none" points="1164,-345 1164,-370 1373,-370 1373,-345 1164,-345"/>
<polygon fill="none" stroke="#2c3e50" points="1164,-345 1164,-370 1373,-370 1373,-345 1164,-345"/>
<text text-anchor="start" x="1169" y="-354.8" font-family="monospace" font-style="italic" font-size="14.00" fill="#95a5a6">boolean</text>
<polygon fill="#ffffff" stroke="none" points="1013,-320 1013,-345 1164,-345 1164,-320 1013,-320"/>
<polygon fill="none" stroke="#2c3e50" points="1013,-320 1013,-345 1164,-345 1164,-320 1013,-320"/>
<text text-anchor="start" x="1018" y="-328.8" font-family="monospace" font-size="14.00" fill="#000000">rolcreatedb</text>
<polygon fill="#ffffff" stroke="none" points="1164,-320 1164,-345 1373,-345 1373,-320 1164,-320"/>
<polygon fill="none" stroke="#2c3e50" points="1164,-320 1164,-345 1373,-345 1373,-320 1164,-320"/>
<text text-anchor="start" x="1169" y="-329.8" font-family="monospace" font-style="italic" font-size="14.00" fill="#95a5a6">boolean</text>
<polygon fill="#ffffff" stroke="none" points="1013,-295 1013,-320 1164,-320 1164,-295 1013,-295"/>
<polygon fill="none" stroke="#2c3e50" points="1013,-295 1013,-320 1164,-320 1164,-295 1013,-295"/>
<text text-anchor="start" x="1018" y="-303.8" font-family="monospace" font-size="14.00" fill="#000000">rolcatupdate</text>
<polygon fill="#ffffff" stroke="none" points="1164,-295 1164,-320 1373,-320 1373,-295 1164,-295"/>
<polygon fill="none" stroke="#2c3e50" points="1164,-295 1164,-320 1373,-320 1373,-295 1164,-295"/>
<text text-anchor="start" x="1169" y="-304.8" font-family="monospace" font-style="italic" font-size="14.00" fill="#95a5a6">boolean</text>
<polygon fill="#ffffff" stroke="none" points="1013,-270 1013,-295 1164,-295 1164,-270 1013,-270"/>
<polygon fill="none" stroke="#2c3e50" points="1013,-270 1013,-295 1164,-295 1164,-270 1013,-270"/>
<text text-anchor="start" x="1018" y="-278.8" font-family="monospace" font-size="14.00" fill="#000000">rolcanlogin</text>
<polygon fill="#ffffff" stroke="none" points="1164,-270 1164,-295 1373,-295 1373,-270 1164,-270"/>
<polygon fill="none" stroke="#2c3e50" points="1164,-270 1164,-295 1373,-295 1373,-270 1164,-270"/>
<text text-anchor="start" x="1169" y="-279.8" font-family="monospace" font-style="italic" font-size="14.00" fill="#95a5a6">boolean</text>
<polygon fill="#ffffff" stroke="none" points="1013,-245 1013,-270 1164,-270 1164,-245 1013,-245"/>
<polygon fill="none" stroke="#2c3e50" points="1013,-245 1013,-270 1164,-270 1164,-245 1013,-245"/>
<text text-anchor="start" x="1018" y="-253.8" font-family="monospace" font-size="14.00" fill="#000000">rolconnlimit</text>
<polygon fill="#ffffff" stroke="none" points="1164,-245 1164,-270 1373,-270 1373,-245 1164,-245"/>
<polygon fill="none" stroke="#2c3e50" points="1164,-245 1164,-270 1373,-270 1373,-245 1164,-245"/>
<text text-anchor="start" x="1169" y="-254.8" font-family="monospace" font-style="italic" font-size="14.00" fill="#95a5a6">integer</text>
<polygon fill="#ffffff" stroke="none" points="1013,-220 1013,-245 1164,-245 1164,-220 1013,-220"/>
<polygon fill="none" stroke="#2c3e50" points="1013,-220 1013,-245 1164,-245 1164,-220 1013,-220"/>
<text text-anchor="start" x="1018" y="-228.8" font-family="monospace" font-size="14.00" fill="#000000">rolpassword</text>
<polygon fill="#ffffff" stroke="none" points="1164,-220 1164,-245 1373,-245 1373,-220 1164,-220"/>
<polygon fill="none" stroke="#2c3e50" points="1164,-220 1164,-245 1373,-245 1373,-220 1164,-220"/>
<text text-anchor="start" x="1169" y="-229.8" font-family="monospace" font-style="italic" font-size="14.00" fill="#95a5a6">text</text>
<polygon fill="#ffffff" stroke="none" points="1013,-195 1013,-220 1164,-220 1164,-195 1013,-195"/>
<polygon fill="none" stroke="#2c3e50" points="1013,-195 1013,-220 1164,-220 1164,-195 1013,-195"/>
<text text-anchor="start" x="1018" y="-203.8" font-family="monospace" font-size="14.00" fill="#000000">rolvaliduntil</text>
<polygon fill="#ffffff" stroke="none" points="1164,-195 1164,-220 1373,-220 1373,-195 1164,-195"/>
<polygon fill="none" stroke="#2c3e50" points="1164,-195 1164,-220 1373,-220 1373,-195 1164,-195"/>
<text text-anchor="start" x="1169" y="-204.8" font-family="monospace" font-style="italic" font-size="14.00" fill="#95a5a6">timestamp_with_time_zone</text>
<polygon fill="#ffffff" stroke="none" points="1013,-170 1013,-195 1164,-195 1164,-170 1013,-170"/>
<polygon fill="none" stroke="#2c3e50" points="1013,-170 1013,-195 1164,-195 1164,-170 1013,-170"/>
<text text-anchor="start" x="1018" y="-178.8" font-family="monospace" font-size="14.00" fill="#000000">rolconfig</text>
<polygon fill="#ffffff" stroke="none" points="1164,-170 1164,-195 1373,-195 1373,-170 1164,-170"/>
<polygon fill="none" stroke="#2c3e50" points="1164,-170 1164,-195 1373,-195 1373,-170 1164,-170"/>
<text text-anchor="start" x="1169" y="-179.8" font-family="monospace" font-style="italic" font-size="14.00" fill="#95a5a6">text[]</text>
<polygon fill="#ffffff" stroke="none" points="1013,-145 1013,-170 1164,-170 1164,-145 1013,-145"/>
<polygon fill="none" stroke="#2c3e50" points="1013,-145 1013,-170 1164,-170 1164,-145 1013,-145"/>
<text text-anchor="start" x="1018" y="-153.8" font-family="monospace" font-size="14.00" fill="#000000">rolresqueue</text>
<polygon fill="#ffffff" stroke="none" points="1164,-145 1164,-170 1373,-170 1373,-145 1164,-145"/>
<polygon fill="none" stroke="#2c3e50" points="1164,-145 1164,-170 1373,-170 1373,-145 1164,-145"/>
<text text-anchor="start" x="1169" y="-154.8" font-family="monospace" font-style="italic" font-size="14.00" fill="#95a5a6">oid</text>
<polygon fill="#ffffff" stroke="none" points="1013,-120 1013,-145 1164,-145 1164,-120 1013,-120"/>
<polygon fill="none" stroke="#2c3e50" points="1013,-120 1013,-145 1164,-145 1164,-120 1013,-120"/>
<text text-anchor="start" x="1018" y="-128.8" font-family="monospace" font-size="14.00" fill="#000000">rolcreaterextgpfd</text>
<polygon fill="#ffffff" stroke="none" points="1164,-120 1164,-145 1373,-145 1373,-120 1164,-120"/>
<polygon fill="none" stroke="#2c3e50" points="1164,-120 1164,-145 1373,-145 1373,-120 1164,-120"/>
<text text-anchor="start" x="1169" y="-129.8" font-family="monospace" font-style="italic" font-size="14.00" fill="#95a5a6">boolean</text>
<polygon fill="#ffffff" stroke="none" points="1013,-95 1013,-120 1164,-120 1164,-95 1013,-95"/>
<polygon fill="none" stroke="#2c3e50" points="1013,-95 1013,-120 1164,-120 1164,-95 1013,-95"/>
<text text-anchor="start" x="1018" y="-103.8" font-family="monospace" font-size="14.00" fill="#000000">rolcreaterexthttp</text>
<polygon fill="#ffffff" stroke="none" points="1164,-95 1164,-120 1373,-120 1373,-95 1164,-95"/>
<polygon fill="none" stroke="#2c3e50" points="1164,-95 1164,-120 1373,-120 1373,-95 1164,-95"/>
<text text-anchor="start" x="1169" y="-104.8" font-family="monospace" font-style="italic" font-size="14.00" fill="#95a5a6">boolean</text>
<polygon fill="#ffffff" stroke="none" points="1013,-70 1013,-95 1164,-95 1164,-70 1013,-70"/>
<polygon fill="none" stroke="#2c3e50" points="1013,-70 1013,-95 1164,-95 1164,-70 1013,-70"/>
<text text-anchor="start" x="1018" y="-78.8" font-family="monospace" font-size="14.00" fill="#000000">rolcreatewextgpfd</text>
<polygon fill="#ffffff" stroke="none" points="1164,-70 1164,-95 1373,-95 1373,-70 1164,-70"/>
<polygon fill="none" stroke="#2c3e50" points="1164,-70 1164,-95 1373,-95 1373,-70 1164,-70"/>
<text text-anchor="start" x="1169" y="-79.8" font-family="monospace" font-style="italic" font-size="14.00" fill="#95a5a6">boolean</text>
<polygon fill="#ffffff" stroke="none" points="1013,-45 1013,-70 1164,-70 1164,-45 1013,-45"/>
<polygon fill="none" stroke="#2c3e50" points="1013,-45 1013,-70 1164,-70 1164,-45 1013,-45"/>
<text text-anchor="start" x="1018" y="-53.8" font-family="monospace" font-size="14.00" fill="#000000">rolcreaterexthdfs</text>
<polygon fill="#ffffff" stroke="none" points="1164,-45 1164,-70 1373,-70 1373,-45 1164,-45"/>
<polygon fill="none" stroke="#2c3e50" points="1164,-45 1164,-70 1373,-70 1373,-45 1164,-45"/>
<text text-anchor="start" x="1169" y="-54.8" font-family="monospace" font-style="italic" font-size="14.00" fill="#95a5a6">boolean</text>
<polygon fill="#ffffff" stroke="none" points="1013,-20 1013,-45 1164,-45 1164,-20 1013,-20"/>
<polygon fill="none" stroke="#2c3e50" points="1013,-20 1013,-45 1164,-45 1164,-20 1013,-20"/>
<text text-anchor="start" x="1018" y="-28.8" font-family="monospace" font-size="14.00" fill="#000000">rolcreatewexthdfs</text>
<polygon fill="#ffffff" stroke="none" points="1164,-20 1164,-45 1373,-45 1373,-20 1164,-20"/>
<polygon fill="none" stroke="#2c3e50" points="1164,-20 1164,-45 1373,-45 1373,-20 1164,-20"/>
<text text-anchor="start" x="1169" y="-29.8" font-family="monospace" font-style="italic" font-size="14.00" fill="#95a5a6">boolean</text>
</a>
</g>
</g>
<!-- pg_auth_time_constraint&#45;&gt;pg_authid -->
<g id="edge1" class="edge"><title>pg_auth_time_constraint:authid_out&#45;&gt;pg_authid:oid_in</title>
<path fill="none" stroke="#2c3e50" d="M518,-458C734.125,-458 790.689,-458 1001.83,-458"/>
<polygon fill="#2c3e50" stroke="#2c3e50" points="1002,-461.5 1012,-458 1002,-454.5 1002,-461.5"/>
</g>
</g>
</svg>
