<?xml version="1.0" encoding="UTF-8" standalone="no"?>
<!DOCTYPE svg PUBLIC "-//W3C//DTD SVG 1.1//EN"
 "http://www.w3.org/Graphics/SVG/1.1/DTD/svg11.dtd">
<!-- Generated by graphviz version 2.38.0 (20140413.2041)
 -->
<!-- Title: GPDB Pages: 1 -->
<svg width="1392pt" height="1004pt"
 viewBox="0.00 0.00 1392.00 1004.00" xmlns="http://www.w3.org/2000/svg" xmlns:xlink="http://www.w3.org/1999/xlink">
<g id="graph0" class="graph" transform="scale(1 1) rotate(0) translate(36 968)">
<title>GPDB</title>
<polygon fill="white" stroke="none" points="-36,36 -36,-968 1356,-968 1356,36 -36,36"/>
<text text-anchor="middle" x="660" y="-902.4" font-family="Helvetica,sans-Serif" font-size="32.00">Greenplum System Catalog: pg_appendonly</text>
<g id="clust2" class="cluster"><title>cluster_selected</title>
</g>
<g id="clust3" class="cluster"><title>cluster_to</title>
</g>
<!-- pg_appendonly -->
<g id="node1" class="node"><title>pg_appendonly</title>
<polygon fill="#2c3e50" stroke="none" points="219.5,-795 219.5,-825 430.5,-825 430.5,-795 219.5,-795"/>
<polygon fill="none" stroke="black" points="219.5,-795 219.5,-825 430.5,-825 430.5,-795 219.5,-795"/>
<text text-anchor="start" x="256.5" y="-806.6" font-family="monospace" font-weight="bold" font-size="18.00" fill="#ffffff">pg_appendonly</text>
<polygon fill="#ffffff" stroke="none" points="219.5,-770 219.5,-795 353.5,-795 353.5,-770 219.5,-770"/>
<polygon fill="none" stroke="#2c3e50" points="219.5,-770 219.5,-795 353.5,-795 353.5,-770 219.5,-770"/>
<text text-anchor="start" x="224.5" y="-778.8" font-family="monospace" font-size="14.00" fill="#000000">relid</text>
<polygon fill="#18bc9c" stroke="none" points="353.5,-770 353.5,-795 430.5,-795 430.5,-770 353.5,-770"/>
<polygon fill="none" stroke="#2c3e50" points="353.5,-770 353.5,-795 430.5,-795 430.5,-770 353.5,-770"/>
<text text-anchor="start" x="358.5" y="-779.8" font-family="monospace" font-style="italic" font-size="14.00" fill="#ffffff">oid</text>
<polygon fill="#ffffff" stroke="none" points="219.5,-745 219.5,-770 353.5,-770 353.5,-745 219.5,-745"/>
<polygon fill="none" stroke="#2c3e50" points="219.5,-745 219.5,-770 353.5,-770 353.5,-745 219.5,-745"/>
<text text-anchor="start" x="224.5" y="-753.8" font-family="monospace" font-size="14.00" fill="#000000">blocksize</text>
<polygon fill="#ffffff" stroke="none" points="353.5,-745 353.5,-770 430.5,-770 430.5,-745 353.5,-745"/>
<polygon fill="none" stroke="#2c3e50" points="353.5,-745 353.5,-770 430.5,-770 430.5,-745 353.5,-745"/>
<text text-anchor="start" x="358.5" y="-754.8" font-family="monospace" font-style="italic" font-size="14.00" fill="#95a5a6">integer</text>
<polygon fill="#ffffff" stroke="none" points="219.5,-720 219.5,-745 353.5,-745 353.5,-720 219.5,-720"/>
<polygon fill="none" stroke="#2c3e50" points="219.5,-720 219.5,-745 353.5,-745 353.5,-720 219.5,-720"/>
<text text-anchor="start" x="224.5" y="-728.8" font-family="monospace" font-size="14.00" fill="#000000">safefswritesize</text>
<polygon fill="#ffffff" stroke="none" points="353.5,-720 353.5,-745 430.5,-745 430.5,-720 353.5,-720"/>
<polygon fill="none" stroke="#2c3e50" points="353.5,-720 353.5,-745 430.5,-745 430.5,-720 353.5,-720"/>
<text text-anchor="start" x="358.5" y="-729.8" font-family="monospace" font-style="italic" font-size="14.00" fill="#95a5a6">integer</text>
<polygon fill="#ffffff" stroke="none" points="219.5,-695 219.5,-720 353.5,-720 353.5,-695 219.5,-695"/>
<polygon fill="none" stroke="#2c3e50" points="219.5,-695 219.5,-720 353.5,-720 353.5,-695 219.5,-695"/>
<text text-anchor="start" x="224.5" y="-703.8" font-family="monospace" font-size="14.00" fill="#000000">compresslevel</text>
<polygon fill="#ffffff" stroke="none" points="353.5,-695 353.5,-720 430.5,-720 430.5,-695 353.5,-695"/>
<polygon fill="none" stroke="#2c3e50" points="353.5,-695 353.5,-720 430.5,-720 430.5,-695 353.5,-695"/>
<text text-anchor="start" x="358.5" y="-704.8" font-family="monospace" font-style="italic" font-size="14.00" fill="#95a5a6">smallint</text>
<polygon fill="#ffffff" stroke="none" points="219.5,-670 219.5,-695 353.5,-695 353.5,-670 219.5,-670"/>
<polygon fill="none" stroke="#2c3e50" points="219.5,-670 219.5,-695 353.5,-695 353.5,-670 219.5,-670"/>
<text text-anchor="start" x="224.5" y="-678.8" font-family="monospace" font-size="14.00" fill="#000000">majorversion</text>
<polygon fill="#ffffff" stroke="none" points="353.5,-670 353.5,-695 430.5,-695 430.5,-670 353.5,-670"/>
<polygon fill="none" stroke="#2c3e50" points="353.5,-670 353.5,-695 430.5,-695 430.5,-670 353.5,-670"/>
<text text-anchor="start" x="358.5" y="-679.8" font-family="monospace" font-style="italic" font-size="14.00" fill="#95a5a6">smallint</text>
<polygon fill="#ffffff" stroke="none" points="219.5,-645 219.5,-670 353.5,-670 353.5,-645 219.5,-645"/>
<polygon fill="none" stroke="#2c3e50" points="219.5,-645 219.5,-670 353.5,-670 353.5,-645 219.5,-645"/>
<text text-anchor="start" x="224.5" y="-653.8" font-family="monospace" font-size="14.00" fill="#000000">minorversion</text>
<polygon fill="#ffffff" stroke="none" points="353.5,-645 353.5,-670 430.5,-670 430.5,-645 353.5,-645"/>
<polygon fill="none" stroke="#2c3e50" points="353.5,-645 353.5,-670 430.5,-670 430.5,-645 353.5,-645"/>
<text text-anchor="start" x="358.5" y="-654.8" font-family="monospace" font-style="italic" font-size="14.00" fill="#95a5a6">smallint</text>
<polygon fill="#ffffff" stroke="none" points="219.5,-620 219.5,-645 353.5,-645 353.5,-620 219.5,-620"/>
<polygon fill="none" stroke="#2c3e50" points="219.5,-620 219.5,-645 353.5,-645 353.5,-620 219.5,-620"/>
<text text-anchor="start" x="224.5" y="-628.8" font-family="monospace" font-size="14.00" fill="#000000">checksum</text>
<polygon fill="#ffffff" stroke="none" points="353.5,-620 353.5,-645 430.5,-645 430.5,-620 353.5,-620"/>
<polygon fill="none" stroke="#2c3e50" points="353.5,-620 353.5,-645 430.5,-645 430.5,-620 353.5,-620"/>
<text text-anchor="start" x="358.5" y="-629.8" font-family="monospace" font-style="italic" font-size="14.00" fill="#95a5a6">boolean</text>
<polygon fill="#ffffff" stroke="none" points="219.5,-595 219.5,-620 353.5,-620 353.5,-595 219.5,-595"/>
<polygon fill="none" stroke="#2c3e50" points="219.5,-595 219.5,-620 353.5,-620 353.5,-595 219.5,-595"/>
<text text-anchor="start" x="224.5" y="-603.8" font-family="monospace" font-size="14.00" fill="#000000">compresstype</text>
<polygon fill="#ffffff" stroke="none" points="353.5,-595 353.5,-620 430.5,-620 430.5,-595 353.5,-595"/>
<polygon fill="none" stroke="#2c3e50" points="353.5,-595 353.5,-620 430.5,-620 430.5,-595 353.5,-595"/>
<text text-anchor="start" x="358.5" y="-604.8" font-family="monospace" font-style="italic" font-size="14.00" fill="#95a5a6">text</text>
<polygon fill="#ffffff" stroke="none" points="219.5,-570 219.5,-595 353.5,-595 353.5,-570 219.5,-570"/>
<polygon fill="none" stroke="#2c3e50" points="219.5,-570 219.5,-595 353.5,-595 353.5,-570 219.5,-570"/>
<text text-anchor="start" x="224.5" y="-578.8" font-family="monospace" font-size="14.00" fill="#000000">columnstore</text>
<polygon fill="#ffffff" stroke="none" points="353.5,-570 353.5,-595 430.5,-595 430.5,-570 353.5,-570"/>
<polygon fill="none" stroke="#2c3e50" points="353.5,-570 353.5,-595 430.5,-595 430.5,-570 353.5,-570"/>
<text text-anchor="start" x="358.5" y="-579.8" font-family="monospace" font-style="italic" font-size="14.00" fill="#95a5a6">boolean</text>
<polygon fill="#ffffff" stroke="none" points="219.5,-545 219.5,-570 353.5,-570 353.5,-545 219.5,-545"/>
<polygon fill="none" stroke="#2c3e50" points="219.5,-545 219.5,-570 353.5,-570 353.5,-545 219.5,-545"/>
<text text-anchor="start" x="224.5" y="-553.8" font-family="monospace" font-size="14.00" fill="#000000">segrelid</text>
<polygon fill="#ffffff" stroke="none" points="353.5,-545 353.5,-570 430.5,-570 430.5,-545 353.5,-545"/>
<polygon fill="none" stroke="#2c3e50" points="353.5,-545 353.5,-570 430.5,-570 430.5,-545 353.5,-545"/>
<text text-anchor="start" x="358.5" y="-554.8" font-family="monospace" font-style="italic" font-size="14.00" fill="#95a5a6">oid</text>
<polygon fill="#ffffff" stroke="none" points="219.5,-520 219.5,-545 353.5,-545 353.5,-520 219.5,-520"/>
<polygon fill="none" stroke="#2c3e50" points="219.5,-520 219.5,-545 353.5,-545 353.5,-520 219.5,-520"/>
<text text-anchor="start" x="224.5" y="-528.8" font-family="monospace" font-size="14.00" fill="#000000">segidxid</text>
<polygon fill="#ffffff" stroke="none" points="353.5,-520 353.5,-545 430.5,-545 430.5,-520 353.5,-520"/>
<polygon fill="none" stroke="#2c3e50" points="353.5,-520 353.5,-545 430.5,-545 430.5,-520 353.5,-520"/>
<text text-anchor="start" x="358.5" y="-529.8" font-family="monospace" font-style="italic" font-size="14.00" fill="#95a5a6">oid</text>
<polygon fill="#ffffff" stroke="none" points="219.5,-495 219.5,-520 353.5,-520 353.5,-495 219.5,-495"/>
<polygon fill="none" stroke="#2c3e50" points="219.5,-495 219.5,-520 353.5,-520 353.5,-495 219.5,-495"/>
<text text-anchor="start" x="224.5" y="-503.8" font-family="monospace" font-size="14.00" fill="#000000">blkdirrelid</text>
<polygon fill="#ffffff" stroke="none" points="353.5,-495 353.5,-520 430.5,-520 430.5,-495 353.5,-495"/>
<polygon fill="none" stroke="#2c3e50" points="353.5,-495 353.5,-520 430.5,-520 430.5,-495 353.5,-495"/>
<text text-anchor="start" x="358.5" y="-504.8" font-family="monospace" font-style="italic" font-size="14.00" fill="#95a5a6">oid</text>
<polygon fill="#ffffff" stroke="none" points="219.5,-470 219.5,-495 353.5,-495 353.5,-470 219.5,-470"/>
<polygon fill="none" stroke="#2c3e50" points="219.5,-470 219.5,-495 353.5,-495 353.5,-470 219.5,-470"/>
<text text-anchor="start" x="224.5" y="-478.8" font-family="monospace" font-size="14.00" fill="#000000">blkdiridxid</text>
<polygon fill="#ffffff" stroke="none" points="353.5,-470 353.5,-495 430.5,-495 430.5,-470 353.5,-470"/>
<polygon fill="none" stroke="#2c3e50" points="353.5,-470 353.5,-495 430.5,-495 430.5,-470 353.5,-470"/>
<text text-anchor="start" x="358.5" y="-479.8" font-family="monospace" font-style="italic" font-size="14.00" fill="#95a5a6">oid</text>
<polygon fill="#ffffff" stroke="none" points="219.5,-445 219.5,-470 353.5,-470 353.5,-445 219.5,-445"/>
<polygon fill="none" stroke="#2c3e50" points="219.5,-445 219.5,-470 353.5,-470 353.5,-445 219.5,-445"/>
<text text-anchor="start" x="224.5" y="-453.8" font-family="monospace" font-size="14.00" fill="#000000">version</text>
<polygon fill="#ffffff" stroke="none" points="353.5,-445 353.5,-470 430.5,-470 430.5,-445 353.5,-445"/>
<polygon fill="none" stroke="#2c3e50" points="353.5,-445 353.5,-470 430.5,-470 430.5,-445 353.5,-445"/>
<text text-anchor="start" x="358.5" y="-454.8" font-family="monospace" font-style="italic" font-size="14.00" fill="#95a5a6">integer</text>
<polygon fill="#ffffff" stroke="none" points="219.5,-420 219.5,-445 353.5,-445 353.5,-420 219.5,-420"/>
<polygon fill="none" stroke="#2c3e50" points="219.5,-420 219.5,-445 353.5,-445 353.5,-420 219.5,-420"/>
<text text-anchor="start" x="224.5" y="-428.8" font-family="monospace" font-size="14.00" fill="#000000">visimaprelid</text>
<polygon fill="#ffffff" stroke="none" points="353.5,-420 353.5,-445 430.5,-445 430.5,-420 353.5,-420"/>
<polygon fill="none" stroke="#2c3e50" points="353.5,-420 353.5,-445 430.5,-445 430.5,-420 353.5,-420"/>
<text text-anchor="start" x="358.5" y="-429.8" font-family="monospace" font-style="italic" font-size="14.00" fill="#95a5a6">oid</text>
<polygon fill="#ffffff" stroke="none" points="219.5,-395 219.5,-420 353.5,-420 353.5,-395 219.5,-395"/>
<polygon fill="none" stroke="#2c3e50" points="219.5,-395 219.5,-420 353.5,-420 353.5,-395 219.5,-395"/>
<text text-anchor="start" x="224.5" y="-403.8" font-family="monospace" font-size="14.00" fill="#000000">visimapidxid</text>
<polygon fill="#ffffff" stroke="none" points="353.5,-395 353.5,-420 430.5,-420 430.5,-395 353.5,-395"/>
<polygon fill="none" stroke="#2c3e50" points="353.5,-395 353.5,-420 430.5,-420 430.5,-395 353.5,-395"/>
<text text-anchor="start" x="358.5" y="-404.8" font-family="monospace" font-style="italic" font-size="14.00" fill="#95a5a6">oid</text>
</g>
<!-- pg_class -->
<g id="node2" class="node"><title>pg_class</title>
<polygon fill="#2c3e50" stroke="none" points="881.5,-795 881.5,-825 1108.5,-825 1108.5,-795 881.5,-795"/>
<polygon fill="none" stroke="black" points="881.5,-795 881.5,-825 1108.5,-825 1108.5,-795 881.5,-795"/>
<text text-anchor="start" x="952.5" y="-806.6" font-family="monospace" font-weight="bold" font-size="18.00" fill="#ffffff">pg_class</text>
<polygon fill="#18bc9c" stroke="none" points="881.5,-770 881.5,-795 1007.5,-795 1007.5,-770 881.5,-770"/>
<polygon fill="none" stroke="#2c3e50" points="881.5,-770 881.5,-795 1007.5,-795 1007.5,-770 881.5,-770"/>
<text text-anchor="start" x="886.5" y="-778.8" font-family="monospace" font-size="14.00" fill="#ffffff">oid</text>
<polygon fill="#ffffff" stroke="none" points="1007.5,-770 1007.5,-795 1108.5,-795 1108.5,-770 1007.5,-770"/>
<polygon fill="none" stroke="#2c3e50" points="1007.5,-770 1007.5,-795 1108.5,-795 1108.5,-770 1007.5,-770"/>
<text text-anchor="start" x="1012.5" y="-779.8" font-family="monospace" font-style="italic" font-size="14.00" fill="#95a5a6">oid</text>
<polygon fill="#ffffff" stroke="none" points="881.5,-745 881.5,-770 1007.5,-770 1007.5,-745 881.5,-745"/>
<polygon fill="none" stroke="#2c3e50" points="881.5,-745 881.5,-770 1007.5,-770 1007.5,-745 881.5,-745"/>
<text text-anchor="start" x="886.5" y="-753.8" font-family="monospace" font-size="14.00" fill="#000000">relname</text>
<polygon fill="#ffffff" stroke="none" points="1007.5,-745 1007.5,-770 1108.5,-770 1108.5,-745 1007.5,-745"/>
<polygon fill="none" stroke="#2c3e50" points="1007.5,-745 1007.5,-770 1108.5,-770 1108.5,-745 1007.5,-745"/>
<text text-anchor="start" x="1012.5" y="-754.8" font-family="monospace" font-style="italic" font-size="14.00" fill="#95a5a6">name</text>
<polygon fill="#ffffff" stroke="none" points="881.5,-720 881.5,-745 1007.5,-745 1007.5,-720 881.5,-720"/>
<polygon fill="none" stroke="#2c3e50" points="881.5,-720 881.5,-745 1007.5,-745 1007.5,-720 881.5,-720"/>
<text text-anchor="start" x="886.5" y="-728.8" font-family="monospace" font-size="14.00" fill="#000000">relnamespace</text>
<polygon fill="#ffffff" stroke="none" points="1007.5,-720 1007.5,-745 1108.5,-745 1108.5,-720 1007.5,-720"/>
<polygon fill="none" stroke="#2c3e50" points="1007.5,-720 1007.5,-745 1108.5,-745 1108.5,-720 1007.5,-720"/>
<text text-anchor="start" x="1012.5" y="-729.8" font-family="monospace" font-style="italic" font-size="14.00" fill="#95a5a6">oid</text>
<polygon fill="#ffffff" stroke="none" points="881.5,-695 881.5,-720 1007.5,-720 1007.5,-695 881.5,-695"/>
<polygon fill="none" stroke="#2c3e50" points="881.5,-695 881.5,-720 1007.5,-720 1007.5,-695 881.5,-695"/>
<text text-anchor="start" x="886.5" y="-703.8" font-family="monospace" font-size="14.00" fill="#000000">reltype</text>
<polygon fill="#ffffff" stroke="none" points="1007.5,-695 1007.5,-720 1108.5,-720 1108.5,-695 1007.5,-695"/>
<polygon fill="none" stroke="#2c3e50" points="1007.5,-695 1007.5,-720 1108.5,-720 1108.5,-695 1007.5,-695"/>
<text text-anchor="start" x="1012.5" y="-704.8" font-family="monospace" font-style="italic" font-size="14.00" fill="#95a5a6">oid</text>
<polygon fill="#ffffff" stroke="none" points="881.5,-670 881.5,-695 1007.5,-695 1007.5,-670 881.5,-670"/>
<polygon fill="none" stroke="#2c3e50" points="881.5,-670 881.5,-695 1007.5,-695 1007.5,-670 881.5,-670"/>
<text text-anchor="start" x="886.5" y="-678.8" font-family="monospace" font-size="14.00" fill="#000000">relowner</text>
<polygon fill="#ffffff" stroke="none" points="1007.5,-670 1007.5,-695 1108.5,-695 1108.5,-670 1007.5,-670"/>
<polygon fill="none" stroke="#2c3e50" points="1007.5,-670 1007.5,-695 1108.5,-695 1108.5,-670 1007.5,-670"/>
<text text-anchor="start" x="1012.5" y="-679.8" font-family="monospace" font-style="italic" font-size="14.00" fill="#95a5a6">oid</text>
<polygon fill="#ffffff" stroke="none" points="881.5,-645 881.5,-670 1007.5,-670 1007.5,-645 881.5,-645"/>
<polygon fill="none" stroke="#2c3e50" points="881.5,-645 881.5,-670 1007.5,-670 1007.5,-645 881.5,-645"/>
<text text-anchor="start" x="886.5" y="-653.8" font-family="monospace" font-size="14.00" fill="#000000">relam</text>
<polygon fill="#ffffff" stroke="none" points="1007.5,-645 1007.5,-670 1108.5,-670 1108.5,-645 1007.5,-645"/>
<polygon fill="none" stroke="#2c3e50" points="1007.5,-645 1007.5,-670 1108.5,-670 1108.5,-645 1007.5,-645"/>
<text text-anchor="start" x="1012.5" y="-654.8" font-family="monospace" font-style="italic" font-size="14.00" fill="#95a5a6">oid</text>
<polygon fill="#ffffff" stroke="none" points="881.5,-620 881.5,-645 1007.5,-645 1007.5,-620 881.5,-620"/>
<polygon fill="none" stroke="#2c3e50" points="881.5,-620 881.5,-645 1007.5,-645 1007.5,-620 881.5,-620"/>
<text text-anchor="start" x="886.5" y="-628.8" font-family="monospace" font-size="14.00" fill="#000000">relfilenode</text>
<polygon fill="#ffffff" stroke="none" points="1007.5,-620 1007.5,-645 1108.5,-645 1108.5,-620 1007.5,-620"/>
<polygon fill="none" stroke="#2c3e50" points="1007.5,-620 1007.5,-645 1108.5,-645 1108.5,-620 1007.5,-620"/>
<text text-anchor="start" x="1012.5" y="-629.8" font-family="monospace" font-style="italic" font-size="14.00" fill="#95a5a6">oid</text>
<polygon fill="#ffffff" stroke="none" points="881.5,-595 881.5,-620 1007.5,-620 1007.5,-595 881.5,-595"/>
<polygon fill="none" stroke="#2c3e50" points="881.5,-595 881.5,-620 1007.5,-620 1007.5,-595 881.5,-595"/>
<text text-anchor="start" x="886.5" y="-603.8" font-family="monospace" font-size="14.00" fill="#000000">reltablespace</text>
<polygon fill="#ffffff" stroke="none" points="1007.5,-595 1007.5,-620 1108.5,-620 1108.5,-595 1007.5,-595"/>
<polygon fill="none" stroke="#2c3e50" points="1007.5,-595 1007.5,-620 1108.5,-620 1108.5,-595 1007.5,-595"/>
<text text-anchor="start" x="1012.5" y="-604.8" font-family="monospace" font-style="italic" font-size="14.00" fill="#95a5a6">oid</text>
<polygon fill="#ffffff" stroke="none" points="881.5,-570 881.5,-595 1007.5,-595 1007.5,-570 881.5,-570"/>
<polygon fill="none" stroke="#2c3e50" points="881.5,-570 881.5,-595 1007.5,-595 1007.5,-570 881.5,-570"/>
<text text-anchor="start" x="886.5" y="-578.8" font-family="monospace" font-size="14.00" fill="#000000">relpages</text>
<polygon fill="#ffffff" stroke="none" points="1007.5,-570 1007.5,-595 1108.5,-595 1108.5,-570 1007.5,-570"/>
<polygon fill="none" stroke="#2c3e50" points="1007.5,-570 1007.5,-595 1108.5,-595 1108.5,-570 1007.5,-570"/>
<text text-anchor="start" x="1012.5" y="-579.8" font-family="monospace" font-style="italic" font-size="14.00" fill="#95a5a6">integer</text>
<polygon fill="#ffffff" stroke="none" points="881.5,-545 881.5,-570 1007.5,-570 1007.5,-545 881.5,-545"/>
<polygon fill="none" stroke="#2c3e50" points="881.5,-545 881.5,-570 1007.5,-570 1007.5,-545 881.5,-545"/>
<text text-anchor="start" x="886.5" y="-553.8" font-family="monospace" font-size="14.00" fill="#000000">reltuples</text>
<polygon fill="#ffffff" stroke="none" points="1007.5,-545 1007.5,-570 1108.5,-570 1108.5,-545 1007.5,-545"/>
<polygon fill="none" stroke="#2c3e50" points="1007.5,-545 1007.5,-570 1108.5,-570 1108.5,-545 1007.5,-545"/>
<text text-anchor="start" x="1012.5" y="-554.8" font-family="monospace" font-style="italic" font-size="14.00" fill="#95a5a6">real</text>
<polygon fill="#ffffff" stroke="none" points="881.5,-520 881.5,-545 1007.5,-545 1007.5,-520 881.5,-520"/>
<polygon fill="none" stroke="#2c3e50" points="881.5,-520 881.5,-545 1007.5,-545 1007.5,-520 881.5,-520"/>
<text text-anchor="start" x="886.5" y="-528.8" font-family="monospace" font-size="14.00" fill="#000000">reltoastrelid</text>
<polygon fill="#ffffff" stroke="none" points="1007.5,-520 1007.5,-545 1108.5,-545 1108.5,-520 1007.5,-520"/>
<polygon fill="none" stroke="#2c3e50" points="1007.5,-520 1007.5,-545 1108.5,-545 1108.5,-520 1007.5,-520"/>
<text text-anchor="start" x="1012.5" y="-529.8" font-family="monospace" font-style="italic" font-size="14.00" fill="#95a5a6">oid</text>
<polygon fill="#ffffff" stroke="none" points="881.5,-495 881.5,-520 1007.5,-520 1007.5,-495 881.5,-495"/>
<polygon fill="none" stroke="#2c3e50" points="881.5,-495 881.5,-520 1007.5,-520 1007.5,-495 881.5,-495"/>
<text text-anchor="start" x="886.5" y="-503.8" font-family="monospace" font-size="14.00" fill="#000000">reltoastidxid</text>
<polygon fill="#ffffff" stroke="none" points="1007.5,-495 1007.5,-520 1108.5,-520 1108.5,-495 1007.5,-495"/>
<polygon fill="none" stroke="#2c3e50" points="1007.5,-495 1007.5,-520 1108.5,-520 1108.5,-495 1007.5,-495"/>
<text text-anchor="start" x="1012.5" y="-504.8" font-family="monospace" font-style="italic" font-size="14.00" fill="#95a5a6">oid</text>
<polygon fill="#ffffff" stroke="none" points="881.5,-470 881.5,-495 1007.5,-495 1007.5,-470 881.5,-470"/>
<polygon fill="none" stroke="#2c3e50" points="881.5,-470 881.5,-495 1007.5,-495 1007.5,-470 881.5,-470"/>
<text text-anchor="start" x="886.5" y="-478.8" font-family="monospace" font-size="14.00" fill="#000000">relaosegrelid</text>
<polygon fill="#ffffff" stroke="none" points="1007.5,-470 1007.5,-495 1108.5,-495 1108.5,-470 1007.5,-470"/>
<polygon fill="none" stroke="#2c3e50" points="1007.5,-470 1007.5,-495 1108.5,-495 1108.5,-470 1007.5,-470"/>
<text text-anchor="start" x="1012.5" y="-479.8" font-family="monospace" font-style="italic" font-size="14.00" fill="#95a5a6">oid</text>
<polygon fill="#ffffff" stroke="none" points="881.5,-445 881.5,-470 1007.5,-470 1007.5,-445 881.5,-445"/>
<polygon fill="none" stroke="#2c3e50" points="881.5,-445 881.5,-470 1007.5,-470 1007.5,-445 881.5,-445"/>
<text text-anchor="start" x="886.5" y="-453.8" font-family="monospace" font-size="14.00" fill="#000000">relaosegidxid</text>
<polygon fill="#ffffff" stroke="none" points="1007.5,-445 1007.5,-470 1108.5,-470 1108.5,-445 1007.5,-445"/>
<polygon fill="none" stroke="#2c3e50" points="1007.5,-445 1007.5,-470 1108.5,-470 1108.5,-445 1007.5,-445"/>
<text text-anchor="start" x="1012.5" y="-454.8" font-family="monospace" font-style="italic" font-size="14.00" fill="#95a5a6">oid</text>
<polygon fill="#ffffff" stroke="none" points="881.5,-420 881.5,-445 1007.5,-445 1007.5,-420 881.5,-420"/>
<polygon fill="none" stroke="#2c3e50" points="881.5,-420 881.5,-445 1007.5,-445 1007.5,-420 881.5,-420"/>
<text text-anchor="start" x="886.5" y="-428.8" font-family="monospace" font-size="14.00" fill="#000000">relhasindex</text>
<polygon fill="#ffffff" stroke="none" points="1007.5,-420 1007.5,-445 1108.5,-445 1108.5,-420 1007.5,-420"/>
<polygon fill="none" stroke="#2c3e50" points="1007.5,-420 1007.5,-445 1108.5,-445 1108.5,-420 1007.5,-420"/>
<text text-anchor="start" x="1012.5" y="-429.8" font-family="monospace" font-style="italic" font-size="14.00" fill="#95a5a6">boolean</text>
<polygon fill="#ffffff" stroke="none" points="881.5,-395 881.5,-420 1007.5,-420 1007.5,-395 881.5,-395"/>
<polygon fill="none" stroke="#2c3e50" points="881.5,-395 881.5,-420 1007.5,-420 1007.5,-395 881.5,-395"/>
<text text-anchor="start" x="886.5" y="-403.8" font-family="monospace" font-size="14.00" fill="#000000">relisshared</text>
<polygon fill="#ffffff" stroke="none" points="1007.5,-395 1007.5,-420 1108.5,-420 1108.5,-395 1007.5,-395"/>
<polygon fill="none" stroke="#2c3e50" points="1007.5,-395 1007.5,-420 1108.5,-420 1108.5,-395 1007.5,-395"/>
<text text-anchor="start" x="1012.5" y="-404.8" font-family="monospace" font-style="italic" font-size="14.00" fill="#95a5a6">boolean</text>
<polygon fill="#ffffff" stroke="none" points="881.5,-370 881.5,-395 1007.5,-395 1007.5,-370 881.5,-370"/>
<polygon fill="none" stroke="#2c3e50" points="881.5,-370 881.5,-395 1007.5,-395 1007.5,-370 881.5,-370"/>
<text text-anchor="start" x="886.5" y="-378.8" font-family="monospace" font-size="14.00" fill="#000000">relkind</text>
<polygon fill="#ffffff" stroke="none" points="1007.5,-370 1007.5,-395 1108.5,-395 1108.5,-370 1007.5,-370"/>
<polygon fill="none" stroke="#2c3e50" points="1007.5,-370 1007.5,-395 1108.5,-395 1108.5,-370 1007.5,-370"/>
<text text-anchor="start" x="1012.5" y="-379.8" font-family="monospace" font-style="italic" font-size="14.00" fill="#95a5a6">quoted_char</text>
<polygon fill="#ffffff" stroke="none" points="881.5,-345 881.5,-370 1007.5,-370 1007.5,-345 881.5,-345"/>
<polygon fill="none" stroke="#2c3e50" points="881.5,-345 881.5,-370 1007.5,-370 1007.5,-345 881.5,-345"/>
<text text-anchor="start" x="886.5" y="-353.8" font-family="monospace" font-size="14.00" fill="#000000">relstorage</text>
<polygon fill="#ffffff" stroke="none" points="1007.5,-345 1007.5,-370 1108.5,-370 1108.5,-345 1007.5,-345"/>
<polygon fill="none" stroke="#2c3e50" points="1007.5,-345 1007.5,-370 1108.5,-370 1108.5,-345 1007.5,-345"/>
<text text-anchor="start" x="1012.5" y="-354.8" font-family="monospace" font-style="italic" font-size="14.00" fill="#95a5a6">quoted_char</text>
<polygon fill="#ffffff" stroke="none" points="881.5,-320 881.5,-345 1007.5,-345 1007.5,-320 881.5,-320"/>
<polygon fill="none" stroke="#2c3e50" points="881.5,-320 881.5,-345 1007.5,-345 1007.5,-320 881.5,-320"/>
<text text-anchor="start" x="886.5" y="-328.8" font-family="monospace" font-size="14.00" fill="#000000">relnatts</text>
<polygon fill="#ffffff" stroke="none" points="1007.5,-320 1007.5,-345 1108.5,-345 1108.5,-320 1007.5,-320"/>
<polygon fill="none" stroke="#2c3e50" points="1007.5,-320 1007.5,-345 1108.5,-345 1108.5,-320 1007.5,-320"/>
<text text-anchor="start" x="1012.5" y="-329.8" font-family="monospace" font-style="italic" font-size="14.00" fill="#95a5a6">smallint</text>
<polygon fill="#ffffff" stroke="none" points="881.5,-295 881.5,-320 1007.5,-320 1007.5,-295 881.5,-295"/>
<polygon fill="none" stroke="#2c3e50" points="881.5,-295 881.5,-320 1007.5,-320 1007.5,-295 881.5,-295"/>
<text text-anchor="start" x="886.5" y="-303.8" font-family="monospace" font-size="14.00" fill="#000000">relchecks</text>
<polygon fill="#ffffff" stroke="none" points="1007.5,-295 1007.5,-320 1108.5,-320 1108.5,-295 1007.5,-295"/>
<polygon fill="none" stroke="#2c3e50" points="1007.5,-295 1007.5,-320 1108.5,-320 1108.5,-295 1007.5,-295"/>
<text text-anchor="start" x="1012.5" y="-304.8" font-family="monospace" font-style="italic" font-size="14.00" fill="#95a5a6">smallint</text>
<polygon fill="#ffffff" stroke="none" points="881.5,-270 881.5,-295 1007.5,-295 1007.5,-270 881.5,-270"/>
<polygon fill="none" stroke="#2c3e50" points="881.5,-270 881.5,-295 1007.5,-295 1007.5,-270 881.5,-270"/>
<text text-anchor="start" x="886.5" y="-278.8" font-family="monospace" font-size="14.00" fill="#000000">reltriggers</text>
<polygon fill="#ffffff" stroke="none" points="1007.5,-270 1007.5,-295 1108.5,-295 1108.5,-270 1007.5,-270"/>
<polygon fill="none" stroke="#2c3e50" points="1007.5,-270 1007.5,-295 1108.5,-295 1108.5,-270 1007.5,-270"/>
<text text-anchor="start" x="1012.5" y="-279.8" font-family="monospace" font-style="italic" font-size="14.00" fill="#95a5a6">smallint</text>
<polygon fill="#ffffff" stroke="none" points="881.5,-245 881.5,-270 1007.5,-270 1007.5,-245 881.5,-245"/>
<polygon fill="none" stroke="#2c3e50" points="881.5,-245 881.5,-270 1007.5,-270 1007.5,-245 881.5,-245"/>
<text text-anchor="start" x="886.5" y="-253.8" font-family="monospace" font-size="14.00" fill="#000000">relukeys</text>
<polygon fill="#ffffff" stroke="none" points="1007.5,-245 1007.5,-270 1108.5,-270 1108.5,-245 1007.5,-245"/>
<polygon fill="none" stroke="#2c3e50" points="1007.5,-245 1007.5,-270 1108.5,-270 1108.5,-245 1007.5,-245"/>
<text text-anchor="start" x="1012.5" y="-254.8" font-family="monospace" font-style="italic" font-size="14.00" fill="#95a5a6">smallint</text>
<polygon fill="#ffffff" stroke="none" points="881.5,-220 881.5,-245 1007.5,-245 1007.5,-220 881.5,-220"/>
<polygon fill="none" stroke="#2c3e50" points="881.5,-220 881.5,-245 1007.5,-245 1007.5,-220 881.5,-220"/>
<text text-anchor="start" x="886.5" y="-228.8" font-family="monospace" font-size="14.00" fill="#000000">relfkeys</text>
<polygon fill="#ffffff" stroke="none" points="1007.5,-220 1007.5,-245 1108.5,-245 1108.5,-220 1007.5,-220"/>
<polygon fill="none" stroke="#2c3e50" points="1007.5,-220 1007.5,-245 1108.5,-245 1108.5,-220 1007.5,-220"/>
<text text-anchor="start" x="1012.5" y="-229.8" font-family="monospace" font-style="italic" font-size="14.00" fill="#95a5a6">smallint</text>
<polygon fill="#ffffff" stroke="none" points="881.5,-195 881.5,-220 1007.5,-220 1007.5,-195 881.5,-195"/>
<polygon fill="none" stroke="#2c3e50" points="881.5,-195 881.5,-220 1007.5,-220 1007.5,-195 881.5,-195"/>
<text text-anchor="start" x="886.5" y="-203.8" font-family="monospace" font-size="14.00" fill="#000000">relrefs</text>
<polygon fill="#ffffff" stroke="none" points="1007.5,-195 1007.5,-220 1108.5,-220 1108.5,-195 1007.5,-195"/>
<polygon fill="none" stroke="#2c3e50" points="1007.5,-195 1007.5,-220 1108.5,-220 1108.5,-195 1007.5,-195"/>
<text text-anchor="start" x="1012.5" y="-204.8" font-family="monospace" font-style="italic" font-size="14.00" fill="#95a5a6">smallint</text>
<polygon fill="#ffffff" stroke="none" points="881.5,-170 881.5,-195 1007.5,-195 1007.5,-170 881.5,-170"/>
<polygon fill="none" stroke="#2c3e50" points="881.5,-170 881.5,-195 1007.5,-195 1007.5,-170 881.5,-170"/>
<text text-anchor="start" x="886.5" y="-178.8" font-family="monospace" font-size="14.00" fill="#000000">relhasoids</text>
<polygon fill="#ffffff" stroke="none" points="1007.5,-170 1007.5,-195 1108.5,-195 1108.5,-170 1007.5,-170"/>
<polygon fill="none" stroke="#2c3e50" points="1007.5,-170 1007.5,-195 1108.5,-195 1108.5,-170 1007.5,-170"/>
<text text-anchor="start" x="1012.5" y="-179.8" font-family="monospace" font-style="italic" font-size="14.00" fill="#95a5a6">boolean</text>
<polygon fill="#ffffff" stroke="none" points="881.5,-145 881.5,-170 1007.5,-170 1007.5,-145 881.5,-145"/>
<polygon fill="none" stroke="#2c3e50" points="881.5,-145 881.5,-170 1007.5,-170 1007.5,-145 881.5,-145"/>
<text text-anchor="start" x="886.5" y="-153.8" font-family="monospace" font-size="14.00" fill="#000000">relhaspkey</text>
<polygon fill="#ffffff" stroke="none" points="1007.5,-145 1007.5,-170 1108.5,-170 1108.5,-145 1007.5,-145"/>
<polygon fill="none" stroke="#2c3e50" points="1007.5,-145 1007.5,-170 1108.5,-170 1108.5,-145 1007.5,-145"/>
<text text-anchor="start" x="1012.5" y="-154.8" font-family="monospace" font-style="italic" font-size="14.00" fill="#95a5a6">boolean</text>
<polygon fill="#ffffff" stroke="none" points="881.5,-120 881.5,-145 1007.5,-145 1007.5,-120 881.5,-120"/>
<polygon fill="none" stroke="#2c3e50" points="881.5,-120 881.5,-145 1007.5,-145 1007.5,-120 881.5,-120"/>
<text text-anchor="start" x="886.5" y="-128.8" font-family="monospace" font-size="14.00" fill="#000000">relhasrules</text>
<polygon fill="#ffffff" stroke="none" points="1007.5,-120 1007.5,-145 1108.5,-145 1108.5,-120 1007.5,-120"/>
<polygon fill="none" stroke="#2c3e50" points="1007.5,-120 1007.5,-145 1108.5,-145 1108.5,-120 1007.5,-120"/>
<text text-anchor="start" x="1012.5" y="-129.8" font-family="monospace" font-style="italic" font-size="14.00" fill="#95a5a6">boolean</text>
<polygon fill="#ffffff" stroke="none" points="881.5,-95 881.5,-120 1007.5,-120 1007.5,-95 881.5,-95"/>
<polygon fill="none" stroke="#2c3e50" points="881.5,-95 881.5,-120 1007.5,-120 1007.5,-95 881.5,-95"/>
<text text-anchor="start" x="886.5" y="-103.8" font-family="monospace" font-size="14.00" fill="#000000">relhassubclass</text>
<polygon fill="#ffffff" stroke="none" points="1007.5,-95 1007.5,-120 1108.5,-120 1108.5,-95 1007.5,-95"/>
<polygon fill="none" stroke="#2c3e50" points="1007.5,-95 1007.5,-120 1108.5,-120 1108.5,-95 1007.5,-95"/>
<text text-anchor="start" x="1012.5" y="-104.8" font-family="monospace" font-style="italic" font-size="14.00" fill="#95a5a6">boolean</text>
<polygon fill="#ffffff" stroke="none" points="881.5,-70 881.5,-95 1007.5,-95 1007.5,-70 881.5,-70"/>
<polygon fill="none" stroke="#2c3e50" points="881.5,-70 881.5,-95 1007.5,-95 1007.5,-70 881.5,-70"/>
<text text-anchor="start" x="886.5" y="-78.8" font-family="monospace" font-size="14.00" fill="#000000">relfrozenxid</text>
<polygon fill="#ffffff" stroke="none" points="1007.5,-70 1007.5,-95 1108.5,-95 1108.5,-70 1007.5,-70"/>
<polygon fill="none" stroke="#2c3e50" points="1007.5,-70 1007.5,-95 1108.5,-95 1108.5,-70 1007.5,-70"/>
<text text-anchor="start" x="1012.5" y="-79.8" font-family="monospace" font-style="italic" font-size="14.00" fill="#95a5a6">xid</text>
<polygon fill="#ffffff" stroke="none" points="881.5,-45 881.5,-70 1007.5,-70 1007.5,-45 881.5,-45"/>
<polygon fill="none" stroke="#2c3e50" points="881.5,-45 881.5,-70 1007.5,-70 1007.5,-45 881.5,-45"/>
<text text-anchor="start" x="886.5" y="-53.8" font-family="monospace" font-size="14.00" fill="#000000">relacl</text>
<polygon fill="#ffffff" stroke="none" points="1007.5,-45 1007.5,-70 1108.5,-70 1108.5,-45 1007.5,-45"/>
<polygon fill="none" stroke="#2c3e50" points="1007.5,-45 1007.5,-70 1108.5,-70 1108.5,-45 1007.5,-45"/>
<text text-anchor="start" x="1012.5" y="-54.8" font-family="monospace" font-style="italic" font-size="14.00" fill="#95a5a6">aclitem[]</text>
<polygon fill="#ffffff" stroke="none" points="881.5,-20 881.5,-45 1007.5,-45 1007.5,-20 881.5,-20"/>
<polygon fill="none" stroke="#2c3e50" points="881.5,-20 881.5,-45 1007.5,-45 1007.5,-20 881.5,-20"/>
<text text-anchor="start" x="886.5" y="-28.8" font-family="monospace" font-size="14.00" fill="#000000">reloptions</text>
<polygon fill="#ffffff" stroke="none" points="1007.5,-20 1007.5,-45 1108.5,-45 1108.5,-20 1007.5,-20"/>
<polygon fill="none" stroke="#2c3e50" points="1007.5,-20 1007.5,-45 1108.5,-45 1108.5,-20 1007.5,-20"/>
<text text-anchor="start" x="1012.5" y="-29.8" font-family="monospace" font-style="italic" font-size="14.00" fill="#95a5a6">text[]</text>
</g>
<!-- pg_appendonly&#45;&gt;pg_class -->
<g id="edge1" class="edge"><title>pg_appendonly:relid_out&#45;&gt;pg_class:oid_in</title>
<path fill="none" stroke="#2c3e50" d="M431.5,-783C627.645,-783 679.196,-783 870.399,-783"/>
<polygon fill="#2c3e50" stroke="#2c3e50" points="870.5,-786.5 880.5,-783 870.5,-779.5 870.5,-786.5"/>
</g>
</g>
</svg>
