<?xml version="1.0" encoding="UTF-8" standalone="no"?>
<!DOCTYPE svg PUBLIC "-//W3C//DTD SVG 1.1//EN"
 "http://www.w3.org/Graphics/SVG/1.1/DTD/svg11.dtd">
<!-- Generated by graphviz version 2.38.0 (20140413.2041)
 -->
<!-- Title: GPDB Pages: 1 -->
<svg width="1588pt" height="678pt"
 viewBox="0.00 0.00 1588.00 678.00" xmlns="http://www.w3.org/2000/svg" xmlns:xlink="http://www.w3.org/1999/xlink">
<g id="graph0" class="graph" transform="scale(1 1) rotate(0) translate(36 642)">
<title>GPDB</title>
<polygon fill="white" stroke="none" points="-36,36 -36,-642 1552,-642 1552,36 -36,36"/>
<text text-anchor="middle" x="758" y="-576.4" font-family="Helvetica,sans-Serif" font-size="32.00">Greenplum System Catalog: pg_attribute_encoding</text>
<g id="clust2" class="cluster"><title>cluster_selected</title>
</g>
<g id="clust3" class="cluster"><title>cluster_to</title>
</g>
<!-- pg_attribute_encoding -->
<g id="node1" class="node"><title>pg_attribute_encoding</title>
<polygon fill="#2c3e50" stroke="none" points="258.5,-445 258.5,-475 489.5,-475 489.5,-445 258.5,-445"/>
<polygon fill="none" stroke="black" points="258.5,-445 258.5,-475 489.5,-475 489.5,-445 258.5,-445"/>
<text text-anchor="start" x="263.5" y="-456.6" font-family="monospace" font-weight="bold" font-size="18.00" fill="#ffffff">pg_attribute_encoding</text>
<polygon fill="#ffffff" stroke="none" points="258.5,-420 258.5,-445 381.5,-445 381.5,-420 258.5,-420"/>
<polygon fill="none" stroke="#2c3e50" points="258.5,-420 258.5,-445 381.5,-445 381.5,-420 258.5,-420"/>
<text text-anchor="start" x="263.5" y="-428.8" font-family="monospace" font-size="14.00" fill="#000000">attrelid</text>
<polygon fill="#18bc9c" stroke="none" points="381.5,-420 381.5,-445 489.5,-445 489.5,-420 381.5,-420"/>
<polygon fill="none" stroke="#2c3e50" points="381.5,-420 381.5,-445 489.5,-445 489.5,-420 381.5,-420"/>
<text text-anchor="start" x="386.5" y="-429.8" font-family="monospace" font-style="italic" font-size="14.00" fill="#ffffff">oid</text>
<polygon fill="#ffffff" stroke="none" points="258.5,-395 258.5,-420 381.5,-420 381.5,-395 258.5,-395"/>
<polygon fill="none" stroke="#2c3e50" points="258.5,-395 258.5,-420 381.5,-420 381.5,-395 258.5,-395"/>
<text text-anchor="start" x="263.5" y="-403.8" font-family="monospace" font-size="14.00" fill="#000000">attnum</text>
<polygon fill="#ffffff" stroke="none" points="381.5,-395 381.5,-420 489.5,-420 489.5,-395 381.5,-395"/>
<polygon fill="none" stroke="#2c3e50" points="381.5,-395 381.5,-420 489.5,-420 489.5,-395 381.5,-395"/>
<text text-anchor="start" x="386.5" y="-404.8" font-family="monospace" font-style="italic" font-size="14.00" fill="#95a5a6">smallint</text>
<polygon fill="#ffffff" stroke="none" points="258.5,-370 258.5,-395 381.5,-395 381.5,-370 258.5,-370"/>
<polygon fill="none" stroke="#2c3e50" points="258.5,-370 258.5,-395 381.5,-395 381.5,-370 258.5,-370"/>
<text text-anchor="start" x="263.5" y="-378.8" font-family="monospace" font-size="14.00" fill="#000000">attoptions</text>
<polygon fill="#ffffff" stroke="none" points="381.5,-370 381.5,-395 489.5,-395 489.5,-370 381.5,-370"/>
<polygon fill="none" stroke="#2c3e50" points="381.5,-370 381.5,-395 489.5,-395 489.5,-370 381.5,-370"/>
<text text-anchor="start" x="386.5" y="-379.8" font-family="monospace" font-style="italic" font-size="14.00" fill="#95a5a6">text[]</text>
</g>
<!-- pg_attribute -->
<g id="node2" class="node"><title>pg_attribute</title>
<polygon fill="#2c3e50" stroke="none" points="1032.5,-470 1032.5,-500 1251.5,-500 1251.5,-470 1032.5,-470"/>
<polygon fill="none" stroke="black" points="1032.5,-470 1032.5,-500 1251.5,-500 1251.5,-470 1032.5,-470"/>
<text text-anchor="start" x="1078.5" y="-481.6" font-family="monospace" font-weight="bold" font-size="18.00" fill="#ffffff">pg_attribute</text>
<polygon fill="#ffffff" stroke="none" points="1032.5,-445 1032.5,-470 1150.5,-470 1150.5,-445 1032.5,-445"/>
<polygon fill="none" stroke="#2c3e50" points="1032.5,-445 1032.5,-470 1150.5,-470 1150.5,-445 1032.5,-445"/>
<text text-anchor="start" x="1037.5" y="-453.8" font-family="monospace" font-size="14.00" fill="#000000">oid</text>
<polygon fill="#ffffff" stroke="none" points="1150.5,-445 1150.5,-470 1251.5,-470 1251.5,-445 1150.5,-445"/>
<polygon fill="none" stroke="#2c3e50" points="1150.5,-445 1150.5,-470 1251.5,-470 1251.5,-445 1150.5,-445"/>
<text text-anchor="start" x="1155.5" y="-454.8" font-family="monospace" font-style="italic" font-size="14.00" fill="#95a5a6">oid</text>
<polygon fill="#18bc9c" stroke="none" points="1032.5,-420 1032.5,-445 1150.5,-445 1150.5,-420 1032.5,-420"/>
<polygon fill="none" stroke="#2c3e50" points="1032.5,-420 1032.5,-445 1150.5,-445 1150.5,-420 1032.5,-420"/>
<text text-anchor="start" x="1037.5" y="-428.8" font-family="monospace" font-size="14.00" fill="#ffffff">attrelid</text>
<polygon fill="#ffffff" stroke="none" points="1150.5,-420 1150.5,-445 1251.5,-445 1251.5,-420 1150.5,-420"/>
<polygon fill="none" stroke="#2c3e50" points="1150.5,-420 1150.5,-445 1251.5,-445 1251.5,-420 1150.5,-420"/>
<text text-anchor="start" x="1155.5" y="-429.8" font-family="monospace" font-style="italic" font-size="14.00" fill="#95a5a6">oid</text>
<polygon fill="#ffffff" stroke="none" points="1032.5,-395 1032.5,-420 1150.5,-420 1150.5,-395 1032.5,-395"/>
<polygon fill="none" stroke="#2c3e50" points="1032.5,-395 1032.5,-420 1150.5,-420 1150.5,-395 1032.5,-395"/>
<text text-anchor="start" x="1037.5" y="-403.8" font-family="monospace" font-size="14.00" fill="#000000">attname</text>
<polygon fill="#ffffff" stroke="none" points="1150.5,-395 1150.5,-420 1251.5,-420 1251.5,-395 1150.5,-395"/>
<polygon fill="none" stroke="#2c3e50" points="1150.5,-395 1150.5,-420 1251.5,-420 1251.5,-395 1150.5,-395"/>
<text text-anchor="start" x="1155.5" y="-404.8" font-family="monospace" font-style="italic" font-size="14.00" fill="#95a5a6">name</text>
<polygon fill="#ffffff" stroke="none" points="1032.5,-370 1032.5,-395 1150.5,-395 1150.5,-370 1032.5,-370"/>
<polygon fill="none" stroke="#2c3e50" points="1032.5,-370 1032.5,-395 1150.5,-395 1150.5,-370 1032.5,-370"/>
<text text-anchor="start" x="1037.5" y="-378.8" font-family="monospace" font-size="14.00" fill="#000000">atttypid</text>
<polygon fill="#ffffff" stroke="none" points="1150.5,-370 1150.5,-395 1251.5,-395 1251.5,-370 1150.5,-370"/>
<polygon fill="none" stroke="#2c3e50" points="1150.5,-370 1150.5,-395 1251.5,-395 1251.5,-370 1150.5,-370"/>
<text text-anchor="start" x="1155.5" y="-379.8" font-family="monospace" font-style="italic" font-size="14.00" fill="#95a5a6">oid</text>
<polygon fill="#ffffff" stroke="none" points="1032.5,-345 1032.5,-370 1150.5,-370 1150.5,-345 1032.5,-345"/>
<polygon fill="none" stroke="#2c3e50" points="1032.5,-345 1032.5,-370 1150.5,-370 1150.5,-345 1032.5,-345"/>
<text text-anchor="start" x="1037.5" y="-353.8" font-family="monospace" font-size="14.00" fill="#000000">attstattarget</text>
<polygon fill="#ffffff" stroke="none" points="1150.5,-345 1150.5,-370 1251.5,-370 1251.5,-345 1150.5,-345"/>
<polygon fill="none" stroke="#2c3e50" points="1150.5,-345 1150.5,-370 1251.5,-370 1251.5,-345 1150.5,-345"/>
<text text-anchor="start" x="1155.5" y="-354.8" font-family="monospace" font-style="italic" font-size="14.00" fill="#95a5a6">integer</text>
<polygon fill="#ffffff" stroke="none" points="1032.5,-320 1032.5,-345 1150.5,-345 1150.5,-320 1032.5,-320"/>
<polygon fill="none" stroke="#2c3e50" points="1032.5,-320 1032.5,-345 1150.5,-345 1150.5,-320 1032.5,-320"/>
<text text-anchor="start" x="1037.5" y="-328.8" font-family="monospace" font-size="14.00" fill="#000000">attlen</text>
<polygon fill="#ffffff" stroke="none" points="1150.5,-320 1150.5,-345 1251.5,-345 1251.5,-320 1150.5,-320"/>
<polygon fill="none" stroke="#2c3e50" points="1150.5,-320 1150.5,-345 1251.5,-345 1251.5,-320 1150.5,-320"/>
<text text-anchor="start" x="1155.5" y="-329.8" font-family="monospace" font-style="italic" font-size="14.00" fill="#95a5a6">smallint</text>
<polygon fill="#ffffff" stroke="none" points="1032.5,-295 1032.5,-320 1150.5,-320 1150.5,-295 1032.5,-295"/>
<polygon fill="none" stroke="#2c3e50" points="1032.5,-295 1032.5,-320 1150.5,-320 1150.5,-295 1032.5,-295"/>
<text text-anchor="start" x="1037.5" y="-303.8" font-family="monospace" font-size="14.00" fill="#000000">attnum</text>
<polygon fill="#ffffff" stroke="none" points="1150.5,-295 1150.5,-320 1251.5,-320 1251.5,-295 1150.5,-295"/>
<polygon fill="none" stroke="#2c3e50" points="1150.5,-295 1150.5,-320 1251.5,-320 1251.5,-295 1150.5,-295"/>
<text text-anchor="start" x="1155.5" y="-304.8" font-family="monospace" font-style="italic" font-size="14.00" fill="#95a5a6">smallint</text>
<polygon fill="#ffffff" stroke="none" points="1032.5,-270 1032.5,-295 1150.5,-295 1150.5,-270 1032.5,-270"/>
<polygon fill="none" stroke="#2c3e50" points="1032.5,-270 1032.5,-295 1150.5,-295 1150.5,-270 1032.5,-270"/>
<text text-anchor="start" x="1037.5" y="-278.8" font-family="monospace" font-size="14.00" fill="#000000">attndims</text>
<polygon fill="#ffffff" stroke="none" points="1150.5,-270 1150.5,-295 1251.5,-295 1251.5,-270 1150.5,-270"/>
<polygon fill="none" stroke="#2c3e50" points="1150.5,-270 1150.5,-295 1251.5,-295 1251.5,-270 1150.5,-270"/>
<text text-anchor="start" x="1155.5" y="-279.8" font-family="monospace" font-style="italic" font-size="14.00" fill="#95a5a6">integer</text>
<polygon fill="#ffffff" stroke="none" points="1032.5,-245 1032.5,-270 1150.5,-270 1150.5,-245 1032.5,-245"/>
<polygon fill="none" stroke="#2c3e50" points="1032.5,-245 1032.5,-270 1150.5,-270 1150.5,-245 1032.5,-245"/>
<text text-anchor="start" x="1037.5" y="-253.8" font-family="monospace" font-size="14.00" fill="#000000">attcacheoff</text>
<polygon fill="#ffffff" stroke="none" points="1150.5,-245 1150.5,-270 1251.5,-270 1251.5,-245 1150.5,-245"/>
<polygon fill="none" stroke="#2c3e50" points="1150.5,-245 1150.5,-270 1251.5,-270 1251.5,-245 1150.5,-245"/>
<text text-anchor="start" x="1155.5" y="-254.8" font-family="monospace" font-style="italic" font-size="14.00" fill="#95a5a6">integer</text>
<polygon fill="#ffffff" stroke="none" points="1032.5,-220 1032.5,-245 1150.5,-245 1150.5,-220 1032.5,-220"/>
<polygon fill="none" stroke="#2c3e50" points="1032.5,-220 1032.5,-245 1150.5,-245 1150.5,-220 1032.5,-220"/>
<text text-anchor="start" x="1037.5" y="-228.8" font-family="monospace" font-size="14.00" fill="#000000">atttypmod</text>
<polygon fill="#ffffff" stroke="none" points="1150.5,-220 1150.5,-245 1251.5,-245 1251.5,-220 1150.5,-220"/>
<polygon fill="none" stroke="#2c3e50" points="1150.5,-220 1150.5,-245 1251.5,-245 1251.5,-220 1150.5,-220"/>
<text text-anchor="start" x="1155.5" y="-229.8" font-family="monospace" font-style="italic" font-size="14.00" fill="#95a5a6">integer</text>
<polygon fill="#ffffff" stroke="none" points="1032.5,-195 1032.5,-220 1150.5,-220 1150.5,-195 1032.5,-195"/>
<polygon fill="none" stroke="#2c3e50" points="1032.5,-195 1032.5,-220 1150.5,-220 1150.5,-195 1032.5,-195"/>
<text text-anchor="start" x="1037.5" y="-203.8" font-family="monospace" font-size="14.00" fill="#000000">attbyval</text>
<polygon fill="#ffffff" stroke="none" points="1150.5,-195 1150.5,-220 1251.5,-220 1251.5,-195 1150.5,-195"/>
<polygon fill="none" stroke="#2c3e50" points="1150.5,-195 1150.5,-220 1251.5,-220 1251.5,-195 1150.5,-195"/>
<text text-anchor="start" x="1155.5" y="-204.8" font-family="monospace" font-style="italic" font-size="14.00" fill="#95a5a6">boolean</text>
<polygon fill="#ffffff" stroke="none" points="1032.5,-170 1032.5,-195 1150.5,-195 1150.5,-170 1032.5,-170"/>
<polygon fill="none" stroke="#2c3e50" points="1032.5,-170 1032.5,-195 1150.5,-195 1150.5,-170 1032.5,-170"/>
<text text-anchor="start" x="1037.5" y="-178.8" font-family="monospace" font-size="14.00" fill="#000000">attstorage</text>
<polygon fill="#ffffff" stroke="none" points="1150.5,-170 1150.5,-195 1251.5,-195 1251.5,-170 1150.5,-170"/>
<polygon fill="none" stroke="#2c3e50" points="1150.5,-170 1150.5,-195 1251.5,-195 1251.5,-170 1150.5,-170"/>
<text text-anchor="start" x="1155.5" y="-179.8" font-family="monospace" font-style="italic" font-size="14.00" fill="#95a5a6">quoted_char</text>
<polygon fill="#ffffff" stroke="none" points="1032.5,-145 1032.5,-170 1150.5,-170 1150.5,-145 1032.5,-145"/>
<polygon fill="none" stroke="#2c3e50" points="1032.5,-145 1032.5,-170 1150.5,-170 1150.5,-145 1032.5,-145"/>
<text text-anchor="start" x="1037.5" y="-153.8" font-family="monospace" font-size="14.00" fill="#000000">attalign</text>
<polygon fill="#ffffff" stroke="none" points="1150.5,-145 1150.5,-170 1251.5,-170 1251.5,-145 1150.5,-145"/>
<polygon fill="none" stroke="#2c3e50" points="1150.5,-145 1150.5,-170 1251.5,-170 1251.5,-145 1150.5,-145"/>
<text text-anchor="start" x="1155.5" y="-154.8" font-family="monospace" font-style="italic" font-size="14.00" fill="#95a5a6">quoted_char</text>
<polygon fill="#ffffff" stroke="none" points="1032.5,-120 1032.5,-145 1150.5,-145 1150.5,-120 1032.5,-120"/>
<polygon fill="none" stroke="#2c3e50" points="1032.5,-120 1032.5,-145 1150.5,-145 1150.5,-120 1032.5,-120"/>
<text text-anchor="start" x="1037.5" y="-128.8" font-family="monospace" font-size="14.00" fill="#000000">attnotnull</text>
<polygon fill="#ffffff" stroke="none" points="1150.5,-120 1150.5,-145 1251.5,-145 1251.5,-120 1150.5,-120"/>
<polygon fill="none" stroke="#2c3e50" points="1150.5,-120 1150.5,-145 1251.5,-145 1251.5,-120 1150.5,-120"/>
<text text-anchor="start" x="1155.5" y="-129.8" font-family="monospace" font-style="italic" font-size="14.00" fill="#95a5a6">boolean</text>
<polygon fill="#ffffff" stroke="none" points="1032.5,-95 1032.5,-120 1150.5,-120 1150.5,-95 1032.5,-95"/>
<polygon fill="none" stroke="#2c3e50" points="1032.5,-95 1032.5,-120 1150.5,-120 1150.5,-95 1032.5,-95"/>
<text text-anchor="start" x="1037.5" y="-103.8" font-family="monospace" font-size="14.00" fill="#000000">atthasdef</text>
<polygon fill="#ffffff" stroke="none" points="1150.5,-95 1150.5,-120 1251.5,-120 1251.5,-95 1150.5,-95"/>
<polygon fill="none" stroke="#2c3e50" points="1150.5,-95 1150.5,-120 1251.5,-120 1251.5,-95 1150.5,-95"/>
<text text-anchor="start" x="1155.5" y="-104.8" font-family="monospace" font-style="italic" font-size="14.00" fill="#95a5a6">boolean</text>
<polygon fill="#ffffff" stroke="none" points="1032.5,-70 1032.5,-95 1150.5,-95 1150.5,-70 1032.5,-70"/>
<polygon fill="none" stroke="#2c3e50" points="1032.5,-70 1032.5,-95 1150.5,-95 1150.5,-70 1032.5,-70"/>
<text text-anchor="start" x="1037.5" y="-78.8" font-family="monospace" font-size="14.00" fill="#000000">attisdropped</text>
<polygon fill="#ffffff" stroke="none" points="1150.5,-70 1150.5,-95 1251.5,-95 1251.5,-70 1150.5,-70"/>
<polygon fill="none" stroke="#2c3e50" points="1150.5,-70 1150.5,-95 1251.5,-95 1251.5,-70 1150.5,-70"/>
<text text-anchor="start" x="1155.5" y="-79.8" font-family="monospace" font-style="italic" font-size="14.00" fill="#95a5a6">boolean</text>
<polygon fill="#ffffff" stroke="none" points="1032.5,-45 1032.5,-70 1150.5,-70 1150.5,-45 1032.5,-45"/>
<polygon fill="none" stroke="#2c3e50" points="1032.5,-45 1032.5,-70 1150.5,-70 1150.5,-45 1032.5,-45"/>
<text text-anchor="start" x="1037.5" y="-53.8" font-family="monospace" font-size="14.00" fill="#000000">attislocal</text>
<polygon fill="#ffffff" stroke="none" points="1150.5,-45 1150.5,-70 1251.5,-70 1251.5,-45 1150.5,-45"/>
<polygon fill="none" stroke="#2c3e50" points="1150.5,-45 1150.5,-70 1251.5,-70 1251.5,-45 1150.5,-45"/>
<text text-anchor="start" x="1155.5" y="-54.8" font-family="monospace" font-style="italic" font-size="14.00" fill="#95a5a6">boolean</text>
<polygon fill="#ffffff" stroke="none" points="1032.5,-20 1032.5,-45 1150.5,-45 1150.5,-20 1032.5,-20"/>
<polygon fill="none" stroke="#2c3e50" points="1032.5,-20 1032.5,-45 1150.5,-45 1150.5,-20 1032.5,-20"/>
<text text-anchor="start" x="1037.5" y="-28.8" font-family="monospace" font-size="14.00" fill="#000000">attinhcount</text>
<polygon fill="#ffffff" stroke="none" points="1150.5,-20 1150.5,-45 1251.5,-45 1251.5,-20 1150.5,-20"/>
<polygon fill="none" stroke="#2c3e50" points="1150.5,-20 1150.5,-45 1251.5,-45 1251.5,-20 1150.5,-20"/>
<text text-anchor="start" x="1155.5" y="-29.8" font-family="monospace" font-style="italic" font-size="14.00" fill="#95a5a6">integer</text>
</g>
<!-- pg_attribute_encoding&#45;&gt;pg_attribute -->
<g id="edge1" class="edge"><title>pg_attribute_encoding:attrelid_out&#45;&gt;pg_attribute:attrelid_in</title>
<path fill="none" stroke="#2c3e50" d="M490.5,-433C727.54,-433 789.317,-433 1021.39,-433"/>
<polygon fill="#2c3e50" stroke="#2c3e50" points="1021.5,-436.5 1031.5,-433 1021.5,-429.5 1021.5,-436.5"/>
</g>
</g>
</svg>
