<?xml version="1.0" encoding="UTF-8" standalone="no"?>
<!DOCTYPE svg PUBLIC "-//W3C//DTD SVG 1.1//EN"
 "http://www.w3.org/Graphics/SVG/1.1/DTD/svg11.dtd">
<!-- Generated by graphviz version 2.38.0 (20140413.2041)
 -->
<!-- Title: GPDB Pages: 1 -->
<svg width="731pt" height="478pt"
 viewBox="0.00 0.00 731.00 478.00" xmlns="http://www.w3.org/2000/svg" xmlns:xlink="http://www.w3.org/1999/xlink">
<g id="graph0" class="graph" transform="scale(1 1) rotate(0) translate(36 442)">
<title>GPDB</title>
<polygon fill="white" stroke="none" points="-36,36 -36,-442 695,-442 695,36 -36,36"/>
<text text-anchor="middle" x="329.5" y="-376.4" font-family="Helvetica,sans-Serif" font-size="32.00">Greenplum System Catalog: pg_autovacuum</text>
<g id="clust2" class="cluster"><title>cluster_selected</title>
</g>
<!-- pg_autovacuum -->
<g id="node1" class="node"><title>pg_autovacuum</title>
<g id="a_node1"><a xlink:href="pg_autovacuum.svg" xlink:title="&lt;TABLE&gt;">
<polygon fill="#2c3e50" stroke="none" points="224.5,-270 224.5,-300 435.5,-300 435.5,-270 224.5,-270"/>
<polygon fill="none" stroke="black" points="224.5,-270 224.5,-300 435.5,-300 435.5,-270 224.5,-270"/>
<text text-anchor="start" x="261.5" y="-281.6" font-family="monospace" font-weight="bold" font-size="18.00" fill="#ffffff">pg_autovacuum</text>
<polygon fill="#ffffff" stroke="none" points="224.5,-245 224.5,-270 367.5,-270 367.5,-245 224.5,-245"/>
<polygon fill="none" stroke="#2c3e50" points="224.5,-245 224.5,-270 367.5,-270 367.5,-245 224.5,-245"/>
<text text-anchor="start" x="229.5" y="-253.8" font-family="monospace" font-size="14.00" fill="#000000">vacrelid</text>
<polygon fill="#ffffff" stroke="none" points="367.5,-245 367.5,-270 435.5,-270 435.5,-245 367.5,-245"/>
<polygon fill="none" stroke="#2c3e50" points="367.5,-245 367.5,-270 435.5,-270 435.5,-245 367.5,-245"/>
<text text-anchor="start" x="372.5" y="-254.8" font-family="monospace" font-style="italic" font-size="14.00" fill="#95a5a6">oid</text>
<polygon fill="#ffffff" stroke="none" points="224.5,-220 224.5,-245 367.5,-245 367.5,-220 224.5,-220"/>
<polygon fill="none" stroke="#2c3e50" points="224.5,-220 224.5,-245 367.5,-245 367.5,-220 224.5,-220"/>
<text text-anchor="start" x="229.5" y="-228.8" font-family="monospace" font-size="14.00" fill="#000000">enabled</text>
<polygon fill="#ffffff" stroke="none" points="367.5,-220 367.5,-245 435.5,-245 435.5,-220 367.5,-220"/>
<polygon fill="none" stroke="#2c3e50" points="367.5,-220 367.5,-245 435.5,-245 435.5,-220 367.5,-220"/>
<text text-anchor="start" x="372.5" y="-229.8" font-family="monospace" font-style="italic" font-size="14.00" fill="#95a5a6">boolean</text>
<polygon fill="#ffffff" stroke="none" points="224.5,-195 224.5,-220 367.5,-220 367.5,-195 224.5,-195"/>
<polygon fill="none" stroke="#2c3e50" points="224.5,-195 224.5,-220 367.5,-220 367.5,-195 224.5,-195"/>
<text text-anchor="start" x="229.5" y="-203.8" font-family="monospace" font-size="14.00" fill="#000000">vac_base_thresh</text>
<polygon fill="#ffffff" stroke="none" points="367.5,-195 367.5,-220 435.5,-220 435.5,-195 367.5,-195"/>
<polygon fill="none" stroke="#2c3e50" points="367.5,-195 367.5,-220 435.5,-220 435.5,-195 367.5,-195"/>
<text text-anchor="start" x="372.5" y="-204.8" font-family="monospace" font-style="italic" font-size="14.00" fill="#95a5a6">integer</text>
<polygon fill="#ffffff" stroke="none" points="224.5,-170 224.5,-195 367.5,-195 367.5,-170 224.5,-170"/>
<polygon fill="none" stroke="#2c3e50" points="224.5,-170 224.5,-195 367.5,-195 367.5,-170 224.5,-170"/>
<text text-anchor="start" x="229.5" y="-178.8" font-family="monospace" font-size="14.00" fill="#000000">vac_scale_factor</text>
<polygon fill="#ffffff" stroke="none" points="367.5,-170 367.5,-195 435.5,-195 435.5,-170 367.5,-170"/>
<polygon fill="none" stroke="#2c3e50" points="367.5,-170 367.5,-195 435.5,-195 435.5,-170 367.5,-170"/>
<text text-anchor="start" x="372.5" y="-179.8" font-family="monospace" font-style="italic" font-size="14.00" fill="#95a5a6">real</text>
<polygon fill="#ffffff" stroke="none" points="224.5,-145 224.5,-170 367.5,-170 367.5,-145 224.5,-145"/>
<polygon fill="none" stroke="#2c3e50" points="224.5,-145 224.5,-170 367.5,-170 367.5,-145 224.5,-145"/>
<text text-anchor="start" x="229.5" y="-153.8" font-family="monospace" font-size="14.00" fill="#000000">anl_base_thresh</text>
<polygon fill="#ffffff" stroke="none" points="367.5,-145 367.5,-170 435.5,-170 435.5,-145 367.5,-145"/>
<polygon fill="none" stroke="#2c3e50" points="367.5,-145 367.5,-170 435.5,-170 435.5,-145 367.5,-145"/>
<text text-anchor="start" x="372.5" y="-154.8" font-family="monospace" font-style="italic" font-size="14.00" fill="#95a5a6">integer</text>
<polygon fill="#ffffff" stroke="none" points="224.5,-120 224.5,-145 367.5,-145 367.5,-120 224.5,-120"/>
<polygon fill="none" stroke="#2c3e50" points="224.5,-120 224.5,-145 367.5,-145 367.5,-120 224.5,-120"/>
<text text-anchor="start" x="229.5" y="-128.8" font-family="monospace" font-size="14.00" fill="#000000">anl_scale_factor</text>
<polygon fill="#ffffff" stroke="none" points="367.5,-120 367.5,-145 435.5,-145 435.5,-120 367.5,-120"/>
<polygon fill="none" stroke="#2c3e50" points="367.5,-120 367.5,-145 435.5,-145 435.5,-120 367.5,-120"/>
<text text-anchor="start" x="372.5" y="-129.8" font-family="monospace" font-style="italic" font-size="14.00" fill="#95a5a6">real</text>
<polygon fill="#ffffff" stroke="none" points="224.5,-95 224.5,-120 367.5,-120 367.5,-95 224.5,-95"/>
<polygon fill="none" stroke="#2c3e50" points="224.5,-95 224.5,-120 367.5,-120 367.5,-95 224.5,-95"/>
<text text-anchor="start" x="229.5" y="-103.8" font-family="monospace" font-size="14.00" fill="#000000">vac_cost_delay</text>
<polygon fill="#ffffff" stroke="none" points="367.5,-95 367.5,-120 435.5,-120 435.5,-95 367.5,-95"/>
<polygon fill="none" stroke="#2c3e50" points="367.5,-95 367.5,-120 435.5,-120 435.5,-95 367.5,-95"/>
<text text-anchor="start" x="372.5" y="-104.8" font-family="monospace" font-style="italic" font-size="14.00" fill="#95a5a6">integer</text>
<polygon fill="#ffffff" stroke="none" points="224.5,-70 224.5,-95 367.5,-95 367.5,-70 224.5,-70"/>
<polygon fill="none" stroke="#2c3e50" points="224.5,-70 224.5,-95 367.5,-95 367.5,-70 224.5,-70"/>
<text text-anchor="start" x="229.5" y="-78.8" font-family="monospace" font-size="14.00" fill="#000000">vac_cost_limit</text>
<polygon fill="#ffffff" stroke="none" points="367.5,-70 367.5,-95 435.5,-95 435.5,-70 367.5,-70"/>
<polygon fill="none" stroke="#2c3e50" points="367.5,-70 367.5,-95 435.5,-95 435.5,-70 367.5,-70"/>
<text text-anchor="start" x="372.5" y="-79.8" font-family="monospace" font-style="italic" font-size="14.00" fill="#95a5a6">integer</text>
<polygon fill="#ffffff" stroke="none" points="224.5,-45 224.5,-70 367.5,-70 367.5,-45 224.5,-45"/>
<polygon fill="none" stroke="#2c3e50" points="224.5,-45 224.5,-70 367.5,-70 367.5,-45 224.5,-45"/>
<text text-anchor="start" x="229.5" y="-53.8" font-family="monospace" font-size="14.00" fill="#000000">freeze_min_age</text>
<polygon fill="#ffffff" stroke="none" points="367.5,-45 367.5,-70 435.5,-70 435.5,-45 367.5,-45"/>
<polygon fill="none" stroke="#2c3e50" points="367.5,-45 367.5,-70 435.5,-70 435.5,-45 367.5,-45"/>
<text text-anchor="start" x="372.5" y="-54.8" font-family="monospace" font-style="italic" font-size="14.00" fill="#95a5a6">integer</text>
<polygon fill="#ffffff" stroke="none" points="224.5,-20 224.5,-45 367.5,-45 367.5,-20 224.5,-20"/>
<polygon fill="none" stroke="#2c3e50" points="224.5,-20 224.5,-45 367.5,-45 367.5,-20 224.5,-20"/>
<text text-anchor="start" x="229.5" y="-28.8" font-family="monospace" font-size="14.00" fill="#000000">freeze_max_age</text>
<polygon fill="#ffffff" stroke="none" points="367.5,-20 367.5,-45 435.5,-45 435.5,-20 367.5,-20"/>
<polygon fill="none" stroke="#2c3e50" points="367.5,-20 367.5,-45 435.5,-45 435.5,-20 367.5,-20"/>
<text text-anchor="start" x="372.5" y="-29.8" font-family="monospace" font-style="italic" font-size="14.00" fill="#95a5a6">integer</text>
</a>
</g>
</g>
</g>
</svg>
