<?xml version="1.0" encoding="UTF-8" standalone="no"?>
<!DOCTYPE svg PUBLIC "-//W3C//DTD SVG 1.1//EN"
 "http://www.w3.org/Graphics/SVG/1.1/DTD/svg11.dtd">
<!-- Generated by graphviz version 2.38.0 (20140413.2041)
 -->
<!-- Title: GPDB Pages: 1 -->
<svg width="1242pt" height="679pt"
 viewBox="0.00 0.00 1242.00 679.00" xmlns="http://www.w3.org/2000/svg" xmlns:xlink="http://www.w3.org/1999/xlink">
<g id="graph0" class="graph" transform="scale(1 1) rotate(0) translate(36 643)">
<title>GPDB</title>
<polygon fill="white" stroke="none" points="-36,36 -36,-643 1206,-643 1206,36 -36,36"/>
<text text-anchor="middle" x="585" y="-577.4" font-family="Helvetica,sans-Serif" font-size="32.00">Greenplum System Catalog: pg_attrdef</text>
<g id="clust2" class="cluster"><title>cluster_selected</title>
</g>
<g id="clust3" class="cluster"><title>cluster_to</title>
</g>
<!-- pg_attrdef -->
<g id="node1" class="node"><title>pg_attrdef</title>
<polygon fill="#2c3e50" stroke="none" points="215.5,-470 215.5,-500 360.5,-500 360.5,-470 215.5,-470"/>
<polygon fill="none" stroke="black" points="215.5,-470 215.5,-500 360.5,-500 360.5,-470 215.5,-470"/>
<text text-anchor="start" x="235" y="-481.6" font-family="monospace" font-weight="bold" font-size="18.00" fill="#ffffff">pg_attrdef</text>
<polygon fill="#ffffff" stroke="none" points="215.5,-445 215.5,-470 283.5,-470 283.5,-445 215.5,-445"/>
<polygon fill="none" stroke="#2c3e50" points="215.5,-445 215.5,-470 283.5,-470 283.5,-445 215.5,-445"/>
<text text-anchor="start" x="220.5" y="-453.8" font-family="monospace" font-size="14.00" fill="#000000">oid</text>
<polygon fill="#ffffff" stroke="none" points="283.5,-445 283.5,-470 360.5,-470 360.5,-445 283.5,-445"/>
<polygon fill="none" stroke="#2c3e50" points="283.5,-445 283.5,-470 360.5,-470 360.5,-445 283.5,-445"/>
<text text-anchor="start" x="288.5" y="-454.8" font-family="monospace" font-style="italic" font-size="14.00" fill="#95a5a6">oid</text>
<polygon fill="#ffffff" stroke="none" points="215.5,-420 215.5,-445 283.5,-445 283.5,-420 215.5,-420"/>
<polygon fill="none" stroke="#2c3e50" points="215.5,-420 215.5,-445 283.5,-445 283.5,-420 215.5,-420"/>
<text text-anchor="start" x="220.5" y="-428.8" font-family="monospace" font-size="14.00" fill="#000000">adrelid</text>
<polygon fill="#18bc9c" stroke="none" points="283.5,-420 283.5,-445 360.5,-445 360.5,-420 283.5,-420"/>
<polygon fill="none" stroke="#2c3e50" points="283.5,-420 283.5,-445 360.5,-445 360.5,-420 283.5,-420"/>
<text text-anchor="start" x="288.5" y="-429.8" font-family="monospace" font-style="italic" font-size="14.00" fill="#ffffff">oid</text>
<polygon fill="#ffffff" stroke="none" points="215.5,-395 215.5,-420 283.5,-420 283.5,-395 215.5,-395"/>
<polygon fill="none" stroke="#2c3e50" points="215.5,-395 215.5,-420 283.5,-420 283.5,-395 215.5,-395"/>
<text text-anchor="start" x="220.5" y="-403.8" font-family="monospace" font-size="14.00" fill="#000000">adnum</text>
<polygon fill="#ffffff" stroke="none" points="283.5,-395 283.5,-420 360.5,-420 360.5,-395 283.5,-395"/>
<polygon fill="none" stroke="#2c3e50" points="283.5,-395 283.5,-420 360.5,-420 360.5,-395 283.5,-395"/>
<text text-anchor="start" x="288.5" y="-404.8" font-family="monospace" font-style="italic" font-size="14.00" fill="#95a5a6">smallint</text>
<polygon fill="#ffffff" stroke="none" points="215.5,-370 215.5,-395 283.5,-395 283.5,-370 215.5,-370"/>
<polygon fill="none" stroke="#2c3e50" points="215.5,-370 215.5,-395 283.5,-395 283.5,-370 215.5,-370"/>
<text text-anchor="start" x="220.5" y="-378.8" font-family="monospace" font-size="14.00" fill="#000000">adbin</text>
<polygon fill="#ffffff" stroke="none" points="283.5,-370 283.5,-395 360.5,-395 360.5,-370 283.5,-370"/>
<polygon fill="none" stroke="#2c3e50" points="283.5,-370 283.5,-395 360.5,-395 360.5,-370 283.5,-370"/>
<text text-anchor="start" x="288.5" y="-379.8" font-family="monospace" font-style="italic" font-size="14.00" fill="#95a5a6">text</text>
<polygon fill="#ffffff" stroke="none" points="215.5,-345 215.5,-370 283.5,-370 283.5,-345 215.5,-345"/>
<polygon fill="none" stroke="#2c3e50" points="215.5,-345 215.5,-370 283.5,-370 283.5,-345 215.5,-345"/>
<text text-anchor="start" x="220.5" y="-353.8" font-family="monospace" font-size="14.00" fill="#000000">adsrc</text>
<polygon fill="#ffffff" stroke="none" points="283.5,-345 283.5,-370 360.5,-370 360.5,-345 283.5,-345"/>
<polygon fill="none" stroke="#2c3e50" points="283.5,-345 283.5,-370 360.5,-370 360.5,-345 283.5,-345"/>
<text text-anchor="start" x="288.5" y="-354.8" font-family="monospace" font-style="italic" font-size="14.00" fill="#95a5a6">text</text>
</g>
<!-- pg_attribute -->
<g id="node2" class="node"><title>pg_attribute</title>
<polygon fill="#2c3e50" stroke="none" points="773.5,-470 773.5,-500 992.5,-500 992.5,-470 773.5,-470"/>
<polygon fill="none" stroke="black" points="773.5,-470 773.5,-500 992.5,-500 992.5,-470 773.5,-470"/>
<text text-anchor="start" x="819.5" y="-481.6" font-family="monospace" font-weight="bold" font-size="18.00" fill="#ffffff">pg_attribute</text>
<polygon fill="#ffffff" stroke="none" points="773.5,-445 773.5,-470 891.5,-470 891.5,-445 773.5,-445"/>
<polygon fill="none" stroke="#2c3e50" points="773.5,-445 773.5,-470 891.5,-470 891.5,-445 773.5,-445"/>
<text text-anchor="start" x="778.5" y="-453.8" font-family="monospace" font-size="14.00" fill="#000000">oid</text>
<polygon fill="#ffffff" stroke="none" points="891.5,-445 891.5,-470 992.5,-470 992.5,-445 891.5,-445"/>
<polygon fill="none" stroke="#2c3e50" points="891.5,-445 891.5,-470 992.5,-470 992.5,-445 891.5,-445"/>
<text text-anchor="start" x="896.5" y="-454.8" font-family="monospace" font-style="italic" font-size="14.00" fill="#95a5a6">oid</text>
<polygon fill="#18bc9c" stroke="none" points="773.5,-420 773.5,-445 891.5,-445 891.5,-420 773.5,-420"/>
<polygon fill="none" stroke="#2c3e50" points="773.5,-420 773.5,-445 891.5,-445 891.5,-420 773.5,-420"/>
<text text-anchor="start" x="778.5" y="-428.8" font-family="monospace" font-size="14.00" fill="#ffffff">attrelid</text>
<polygon fill="#ffffff" stroke="none" points="891.5,-420 891.5,-445 992.5,-445 992.5,-420 891.5,-420"/>
<polygon fill="none" stroke="#2c3e50" points="891.5,-420 891.5,-445 992.5,-445 992.5,-420 891.5,-420"/>
<text text-anchor="start" x="896.5" y="-429.8" font-family="monospace" font-style="italic" font-size="14.00" fill="#95a5a6">oid</text>
<polygon fill="#ffffff" stroke="none" points="773.5,-395 773.5,-420 891.5,-420 891.5,-395 773.5,-395"/>
<polygon fill="none" stroke="#2c3e50" points="773.5,-395 773.5,-420 891.5,-420 891.5,-395 773.5,-395"/>
<text text-anchor="start" x="778.5" y="-403.8" font-family="monospace" font-size="14.00" fill="#000000">attname</text>
<polygon fill="#ffffff" stroke="none" points="891.5,-395 891.5,-420 992.5,-420 992.5,-395 891.5,-395"/>
<polygon fill="none" stroke="#2c3e50" points="891.5,-395 891.5,-420 992.5,-420 992.5,-395 891.5,-395"/>
<text text-anchor="start" x="896.5" y="-404.8" font-family="monospace" font-style="italic" font-size="14.00" fill="#95a5a6">name</text>
<polygon fill="#ffffff" stroke="none" points="773.5,-370 773.5,-395 891.5,-395 891.5,-370 773.5,-370"/>
<polygon fill="none" stroke="#2c3e50" points="773.5,-370 773.5,-395 891.5,-395 891.5,-370 773.5,-370"/>
<text text-anchor="start" x="778.5" y="-378.8" font-family="monospace" font-size="14.00" fill="#000000">atttypid</text>
<polygon fill="#ffffff" stroke="none" points="891.5,-370 891.5,-395 992.5,-395 992.5,-370 891.5,-370"/>
<polygon fill="none" stroke="#2c3e50" points="891.5,-370 891.5,-395 992.5,-395 992.5,-370 891.5,-370"/>
<text text-anchor="start" x="896.5" y="-379.8" font-family="monospace" font-style="italic" font-size="14.00" fill="#95a5a6">oid</text>
<polygon fill="#ffffff" stroke="none" points="773.5,-345 773.5,-370 891.5,-370 891.5,-345 773.5,-345"/>
<polygon fill="none" stroke="#2c3e50" points="773.5,-345 773.5,-370 891.5,-370 891.5,-345 773.5,-345"/>
<text text-anchor="start" x="778.5" y="-353.8" font-family="monospace" font-size="14.00" fill="#000000">attstattarget</text>
<polygon fill="#ffffff" stroke="none" points="891.5,-345 891.5,-370 992.5,-370 992.5,-345 891.5,-345"/>
<polygon fill="none" stroke="#2c3e50" points="891.5,-345 891.5,-370 992.5,-370 992.5,-345 891.5,-345"/>
<text text-anchor="start" x="896.5" y="-354.8" font-family="monospace" font-style="italic" font-size="14.00" fill="#95a5a6">integer</text>
<polygon fill="#ffffff" stroke="none" points="773.5,-320 773.5,-345 891.5,-345 891.5,-320 773.5,-320"/>
<polygon fill="none" stroke="#2c3e50" points="773.5,-320 773.5,-345 891.5,-345 891.5,-320 773.5,-320"/>
<text text-anchor="start" x="778.5" y="-328.8" font-family="monospace" font-size="14.00" fill="#000000">attlen</text>
<polygon fill="#ffffff" stroke="none" points="891.5,-320 891.5,-345 992.5,-345 992.5,-320 891.5,-320"/>
<polygon fill="none" stroke="#2c3e50" points="891.5,-320 891.5,-345 992.5,-345 992.5,-320 891.5,-320"/>
<text text-anchor="start" x="896.5" y="-329.8" font-family="monospace" font-style="italic" font-size="14.00" fill="#95a5a6">smallint</text>
<polygon fill="#ffffff" stroke="none" points="773.5,-295 773.5,-320 891.5,-320 891.5,-295 773.5,-295"/>
<polygon fill="none" stroke="#2c3e50" points="773.5,-295 773.5,-320 891.5,-320 891.5,-295 773.5,-295"/>
<text text-anchor="start" x="778.5" y="-303.8" font-family="monospace" font-size="14.00" fill="#000000">attnum</text>
<polygon fill="#ffffff" stroke="none" points="891.5,-295 891.5,-320 992.5,-320 992.5,-295 891.5,-295"/>
<polygon fill="none" stroke="#2c3e50" points="891.5,-295 891.5,-320 992.5,-320 992.5,-295 891.5,-295"/>
<text text-anchor="start" x="896.5" y="-304.8" font-family="monospace" font-style="italic" font-size="14.00" fill="#95a5a6">smallint</text>
<polygon fill="#ffffff" stroke="none" points="773.5,-270 773.5,-295 891.5,-295 891.5,-270 773.5,-270"/>
<polygon fill="none" stroke="#2c3e50" points="773.5,-270 773.5,-295 891.5,-295 891.5,-270 773.5,-270"/>
<text text-anchor="start" x="778.5" y="-278.8" font-family="monospace" font-size="14.00" fill="#000000">attndims</text>
<polygon fill="#ffffff" stroke="none" points="891.5,-270 891.5,-295 992.5,-295 992.5,-270 891.5,-270"/>
<polygon fill="none" stroke="#2c3e50" points="891.5,-270 891.5,-295 992.5,-295 992.5,-270 891.5,-270"/>
<text text-anchor="start" x="896.5" y="-279.8" font-family="monospace" font-style="italic" font-size="14.00" fill="#95a5a6">integer</text>
<polygon fill="#ffffff" stroke="none" points="773.5,-245 773.5,-270 891.5,-270 891.5,-245 773.5,-245"/>
<polygon fill="none" stroke="#2c3e50" points="773.5,-245 773.5,-270 891.5,-270 891.5,-245 773.5,-245"/>
<text text-anchor="start" x="778.5" y="-253.8" font-family="monospace" font-size="14.00" fill="#000000">attcacheoff</text>
<polygon fill="#ffffff" stroke="none" points="891.5,-245 891.5,-270 992.5,-270 992.5,-245 891.5,-245"/>
<polygon fill="none" stroke="#2c3e50" points="891.5,-245 891.5,-270 992.5,-270 992.5,-245 891.5,-245"/>
<text text-anchor="start" x="896.5" y="-254.8" font-family="monospace" font-style="italic" font-size="14.00" fill="#95a5a6">integer</text>
<polygon fill="#ffffff" stroke="none" points="773.5,-220 773.5,-245 891.5,-245 891.5,-220 773.5,-220"/>
<polygon fill="none" stroke="#2c3e50" points="773.5,-220 773.5,-245 891.5,-245 891.5,-220 773.5,-220"/>
<text text-anchor="start" x="778.5" y="-228.8" font-family="monospace" font-size="14.00" fill="#000000">atttypmod</text>
<polygon fill="#ffffff" stroke="none" points="891.5,-220 891.5,-245 992.5,-245 992.5,-220 891.5,-220"/>
<polygon fill="none" stroke="#2c3e50" points="891.5,-220 891.5,-245 992.5,-245 992.5,-220 891.5,-220"/>
<text text-anchor="start" x="896.5" y="-229.8" font-family="monospace" font-style="italic" font-size="14.00" fill="#95a5a6">integer</text>
<polygon fill="#ffffff" stroke="none" points="773.5,-195 773.5,-220 891.5,-220 891.5,-195 773.5,-195"/>
<polygon fill="none" stroke="#2c3e50" points="773.5,-195 773.5,-220 891.5,-220 891.5,-195 773.5,-195"/>
<text text-anchor="start" x="778.5" y="-203.8" font-family="monospace" font-size="14.00" fill="#000000">attbyval</text>
<polygon fill="#ffffff" stroke="none" points="891.5,-195 891.5,-220 992.5,-220 992.5,-195 891.5,-195"/>
<polygon fill="none" stroke="#2c3e50" points="891.5,-195 891.5,-220 992.5,-220 992.5,-195 891.5,-195"/>
<text text-anchor="start" x="896.5" y="-204.8" font-family="monospace" font-style="italic" font-size="14.00" fill="#95a5a6">boolean</text>
<polygon fill="#ffffff" stroke="none" points="773.5,-170 773.5,-195 891.5,-195 891.5,-170 773.5,-170"/>
<polygon fill="none" stroke="#2c3e50" points="773.5,-170 773.5,-195 891.5,-195 891.5,-170 773.5,-170"/>
<text text-anchor="start" x="778.5" y="-178.8" font-family="monospace" font-size="14.00" fill="#000000">attstorage</text>
<polygon fill="#ffffff" stroke="none" points="891.5,-170 891.5,-195 992.5,-195 992.5,-170 891.5,-170"/>
<polygon fill="none" stroke="#2c3e50" points="891.5,-170 891.5,-195 992.5,-195 992.5,-170 891.5,-170"/>
<text text-anchor="start" x="896.5" y="-179.8" font-family="monospace" font-style="italic" font-size="14.00" fill="#95a5a6">quoted_char</text>
<polygon fill="#ffffff" stroke="none" points="773.5,-145 773.5,-170 891.5,-170 891.5,-145 773.5,-145"/>
<polygon fill="none" stroke="#2c3e50" points="773.5,-145 773.5,-170 891.5,-170 891.5,-145 773.5,-145"/>
<text text-anchor="start" x="778.5" y="-153.8" font-family="monospace" font-size="14.00" fill="#000000">attalign</text>
<polygon fill="#ffffff" stroke="none" points="891.5,-145 891.5,-170 992.5,-170 992.5,-145 891.5,-145"/>
<polygon fill="none" stroke="#2c3e50" points="891.5,-145 891.5,-170 992.5,-170 992.5,-145 891.5,-145"/>
<text text-anchor="start" x="896.5" y="-154.8" font-family="monospace" font-style="italic" font-size="14.00" fill="#95a5a6">quoted_char</text>
<polygon fill="#ffffff" stroke="none" points="773.5,-120 773.5,-145 891.5,-145 891.5,-120 773.5,-120"/>
<polygon fill="none" stroke="#2c3e50" points="773.5,-120 773.5,-145 891.5,-145 891.5,-120 773.5,-120"/>
<text text-anchor="start" x="778.5" y="-128.8" font-family="monospace" font-size="14.00" fill="#000000">attnotnull</text>
<polygon fill="#ffffff" stroke="none" points="891.5,-120 891.5,-145 992.5,-145 992.5,-120 891.5,-120"/>
<polygon fill="none" stroke="#2c3e50" points="891.5,-120 891.5,-145 992.5,-145 992.5,-120 891.5,-120"/>
<text text-anchor="start" x="896.5" y="-129.8" font-family="monospace" font-style="italic" font-size="14.00" fill="#95a5a6">boolean</text>
<polygon fill="#ffffff" stroke="none" points="773.5,-95 773.5,-120 891.5,-120 891.5,-95 773.5,-95"/>
<polygon fill="none" stroke="#2c3e50" points="773.5,-95 773.5,-120 891.5,-120 891.5,-95 773.5,-95"/>
<text text-anchor="start" x="778.5" y="-103.8" font-family="monospace" font-size="14.00" fill="#000000">atthasdef</text>
<polygon fill="#ffffff" stroke="none" points="891.5,-95 891.5,-120 992.5,-120 992.5,-95 891.5,-95"/>
<polygon fill="none" stroke="#2c3e50" points="891.5,-95 891.5,-120 992.5,-120 992.5,-95 891.5,-95"/>
<text text-anchor="start" x="896.5" y="-104.8" font-family="monospace" font-style="italic" font-size="14.00" fill="#95a5a6">boolean</text>
<polygon fill="#ffffff" stroke="none" points="773.5,-70 773.5,-95 891.5,-95 891.5,-70 773.5,-70"/>
<polygon fill="none" stroke="#2c3e50" points="773.5,-70 773.5,-95 891.5,-95 891.5,-70 773.5,-70"/>
<text text-anchor="start" x="778.5" y="-78.8" font-family="monospace" font-size="14.00" fill="#000000">attisdropped</text>
<polygon fill="#ffffff" stroke="none" points="891.5,-70 891.5,-95 992.5,-95 992.5,-70 891.5,-70"/>
<polygon fill="none" stroke="#2c3e50" points="891.5,-70 891.5,-95 992.5,-95 992.5,-70 891.5,-70"/>
<text text-anchor="start" x="896.5" y="-79.8" font-family="monospace" font-style="italic" font-size="14.00" fill="#95a5a6">boolean</text>
<polygon fill="#ffffff" stroke="none" points="773.5,-45 773.5,-70 891.5,-70 891.5,-45 773.5,-45"/>
<polygon fill="none" stroke="#2c3e50" points="773.5,-45 773.5,-70 891.5,-70 891.5,-45 773.5,-45"/>
<text text-anchor="start" x="778.5" y="-53.8" font-family="monospace" font-size="14.00" fill="#000000">attislocal</text>
<polygon fill="#ffffff" stroke="none" points="891.5,-45 891.5,-70 992.5,-70 992.5,-45 891.5,-45"/>
<polygon fill="none" stroke="#2c3e50" points="891.5,-45 891.5,-70 992.5,-70 992.5,-45 891.5,-45"/>
<text text-anchor="start" x="896.5" y="-54.8" font-family="monospace" font-style="italic" font-size="14.00" fill="#95a5a6">boolean</text>
<polygon fill="#ffffff" stroke="none" points="773.5,-20 773.5,-45 891.5,-45 891.5,-20 773.5,-20"/>
<polygon fill="none" stroke="#2c3e50" points="773.5,-20 773.5,-45 891.5,-45 891.5,-20 773.5,-20"/>
<text text-anchor="start" x="778.5" y="-28.8" font-family="monospace" font-size="14.00" fill="#000000">attinhcount</text>
<polygon fill="#ffffff" stroke="none" points="891.5,-20 891.5,-45 992.5,-45 992.5,-20 891.5,-20"/>
<polygon fill="none" stroke="#2c3e50" points="891.5,-20 891.5,-45 992.5,-45 992.5,-20 891.5,-20"/>
<text text-anchor="start" x="896.5" y="-29.8" font-family="monospace" font-style="italic" font-size="14.00" fill="#95a5a6">integer</text>
</g>
<!-- pg_attrdef&#45;&gt;pg_attribute -->
<g id="edge1" class="edge"><title>pg_attrdef:adrelid_out&#45;&gt;pg_attribute:attrelid_in</title>
<path fill="none" stroke="#2c3e50" d="M361.5,-433C540.777,-433 588.092,-433 762.472,-433"/>
<polygon fill="#2c3e50" stroke="#2c3e50" points="762.5,-436.5 772.5,-433 762.5,-429.5 762.5,-436.5"/>
</g>
</g>
</svg>
