<?xml version="1.0" encoding="UTF-8" standalone="no"?>
<!DOCTYPE svg PUBLIC "-//W3C//DTD SVG 1.1//EN"
 "http://www.w3.org/Graphics/SVG/1.1/DTD/svg11.dtd">
<!-- Generated by graphviz version 2.38.0 (20140413.2041)
 -->
<!-- Title: GPDB Pages: 1 -->
<svg width="1794pt" height="1004pt"
 viewBox="0.00 0.00 1794.00 1004.00" xmlns="http://www.w3.org/2000/svg" xmlns:xlink="http://www.w3.org/1999/xlink">
<g id="graph0" class="graph" transform="scale(1 1) rotate(0) translate(36 968)">
<title>GPDB</title>
<polygon fill="white" stroke="none" points="-36,36 -36,-968 1758,-968 1758,36 -36,36"/>
<text text-anchor="middle" x="861" y="-902.4" font-family="Helvetica,sans-Serif" font-size="32.00">Greenplum System Catalog: pg_appendonly_alter_column</text>
<g id="clust2" class="cluster"><title>cluster_selected</title>
</g>
<g id="clust3" class="cluster"><title>cluster_to</title>
</g>
<!-- pg_appendonly_alter_column -->
<g id="node1" class="node"><title>pg_appendonly_alter_column</title>
<g id="a_node1"><a xlink:href="pg_appendonly_alter_column.svg" xlink:title="&lt;TABLE&gt;">
<polygon fill="#2c3e50" stroke="none" points="283,-795 283,-825 567,-825 567,-795 283,-795"/>
<polygon fill="none" stroke="black" points="283,-795 283,-825 567,-825 567,-795 283,-795"/>
<text text-anchor="start" x="288" y="-806.6" font-family="monospace" font-weight="bold" font-size="18.00" fill="#ffffff">pg_appendonly_alter_column</text>
<polygon fill="#ffffff" stroke="none" points="283,-770 283,-795 454,-795 454,-770 283,-770"/>
<polygon fill="none" stroke="#2c3e50" points="283,-770 283,-795 454,-795 454,-770 283,-770"/>
<text text-anchor="start" x="288" y="-778.8" font-family="monospace" font-size="14.00" fill="#000000">relid</text>
<polygon fill="#18bc9c" stroke="none" points="454,-770 454,-795 567,-795 567,-770 454,-770"/>
<polygon fill="none" stroke="#2c3e50" points="454,-770 454,-795 567,-795 567,-770 454,-770"/>
<text text-anchor="start" x="459" y="-779.8" font-family="monospace" font-style="italic" font-size="14.00" fill="#ffffff">oid</text>
<polygon fill="#ffffff" stroke="none" points="283,-745 283,-770 454,-770 454,-745 283,-745"/>
<polygon fill="none" stroke="#2c3e50" points="283,-745 283,-770 454,-770 454,-745 283,-745"/>
<text text-anchor="start" x="288" y="-753.8" font-family="monospace" font-size="14.00" fill="#000000">changenum</text>
<polygon fill="#ffffff" stroke="none" points="454,-745 454,-770 567,-770 567,-745 454,-745"/>
<polygon fill="none" stroke="#2c3e50" points="454,-745 454,-770 567,-770 567,-745 454,-745"/>
<text text-anchor="start" x="459" y="-754.8" font-family="monospace" font-style="italic" font-size="14.00" fill="#95a5a6">integer</text>
<polygon fill="#ffffff" stroke="none" points="283,-720 283,-745 454,-745 454,-720 283,-720"/>
<polygon fill="none" stroke="#2c3e50" points="283,-720 283,-745 454,-745 454,-720 283,-720"/>
<text text-anchor="start" x="288" y="-728.8" font-family="monospace" font-size="14.00" fill="#000000">segfilenums</text>
<polygon fill="#ffffff" stroke="none" points="454,-720 454,-745 567,-745 567,-720 454,-720"/>
<polygon fill="none" stroke="#2c3e50" points="454,-720 454,-745 567,-745 567,-720 454,-720"/>
<text text-anchor="start" x="459" y="-729.8" font-family="monospace" font-style="italic" font-size="14.00" fill="#95a5a6">integer[]</text>
<polygon fill="#ffffff" stroke="none" points="283,-695 283,-720 454,-720 454,-695 283,-695"/>
<polygon fill="none" stroke="#2c3e50" points="283,-695 283,-720 454,-720 454,-695 283,-695"/>
<text text-anchor="start" x="288" y="-703.8" font-family="monospace" font-size="14.00" fill="#000000">highwaterrownums</text>
<polygon fill="#ffffff" stroke="none" points="454,-695 454,-720 567,-720 567,-695 454,-695"/>
<polygon fill="none" stroke="#2c3e50" points="454,-695 454,-720 567,-720 567,-695 454,-695"/>
<text text-anchor="start" x="459" y="-704.8" font-family="monospace" font-style="italic" font-size="14.00" fill="#95a5a6">bytea</text>
</a>
</g>
</g>
<!-- pg_class -->
<g id="node2" class="node"><title>pg_class</title>
<g id="a_node2"><a xlink:href="pg_class.svg" xlink:title="&lt;TABLE&gt;">
<polygon fill="#2c3e50" stroke="none" points="1183.5,-795 1183.5,-825 1410.5,-825 1410.5,-795 1183.5,-795"/>
<polygon fill="none" stroke="black" points="1183.5,-795 1183.5,-825 1410.5,-825 1410.5,-795 1183.5,-795"/>
<text text-anchor="start" x="1254.5" y="-806.6" font-family="monospace" font-weight="bold" font-size="18.00" fill="#ffffff">pg_class</text>
<polygon fill="#18bc9c" stroke="none" points="1183.5,-770 1183.5,-795 1309.5,-795 1309.5,-770 1183.5,-770"/>
<polygon fill="none" stroke="#2c3e50" points="1183.5,-770 1183.5,-795 1309.5,-795 1309.5,-770 1183.5,-770"/>
<text text-anchor="start" x="1188.5" y="-778.8" font-family="monospace" font-size="14.00" fill="#ffffff">oid</text>
<polygon fill="#ffffff" stroke="none" points="1309.5,-770 1309.5,-795 1410.5,-795 1410.5,-770 1309.5,-770"/>
<polygon fill="none" stroke="#2c3e50" points="1309.5,-770 1309.5,-795 1410.5,-795 1410.5,-770 1309.5,-770"/>
<text text-anchor="start" x="1314.5" y="-779.8" font-family="monospace" font-style="italic" font-size="14.00" fill="#95a5a6">oid</text>
<polygon fill="#ffffff" stroke="none" points="1183.5,-745 1183.5,-770 1309.5,-770 1309.5,-745 1183.5,-745"/>
<polygon fill="none" stroke="#2c3e50" points="1183.5,-745 1183.5,-770 1309.5,-770 1309.5,-745 1183.5,-745"/>
<text text-anchor="start" x="1188.5" y="-753.8" font-family="monospace" font-size="14.00" fill="#000000">relname</text>
<polygon fill="#ffffff" stroke="none" points="1309.5,-745 1309.5,-770 1410.5,-770 1410.5,-745 1309.5,-745"/>
<polygon fill="none" stroke="#2c3e50" points="1309.5,-745 1309.5,-770 1410.5,-770 1410.5,-745 1309.5,-745"/>
<text text-anchor="start" x="1314.5" y="-754.8" font-family="monospace" font-style="italic" font-size="14.00" fill="#95a5a6">name</text>
<polygon fill="#ffffff" stroke="none" points="1183.5,-720 1183.5,-745 1309.5,-745 1309.5,-720 1183.5,-720"/>
<polygon fill="none" stroke="#2c3e50" points="1183.5,-720 1183.5,-745 1309.5,-745 1309.5,-720 1183.5,-720"/>
<text text-anchor="start" x="1188.5" y="-728.8" font-family="monospace" font-size="14.00" fill="#000000">relnamespace</text>
<polygon fill="#ffffff" stroke="none" points="1309.5,-720 1309.5,-745 1410.5,-745 1410.5,-720 1309.5,-720"/>
<polygon fill="none" stroke="#2c3e50" points="1309.5,-720 1309.5,-745 1410.5,-745 1410.5,-720 1309.5,-720"/>
<text text-anchor="start" x="1314.5" y="-729.8" font-family="monospace" font-style="italic" font-size="14.00" fill="#95a5a6">oid</text>
<polygon fill="#ffffff" stroke="none" points="1183.5,-695 1183.5,-720 1309.5,-720 1309.5,-695 1183.5,-695"/>
<polygon fill="none" stroke="#2c3e50" points="1183.5,-695 1183.5,-720 1309.5,-720 1309.5,-695 1183.5,-695"/>
<text text-anchor="start" x="1188.5" y="-703.8" font-family="monospace" font-size="14.00" fill="#000000">reltype</text>
<polygon fill="#ffffff" stroke="none" points="1309.5,-695 1309.5,-720 1410.5,-720 1410.5,-695 1309.5,-695"/>
<polygon fill="none" stroke="#2c3e50" points="1309.5,-695 1309.5,-720 1410.5,-720 1410.5,-695 1309.5,-695"/>
<text text-anchor="start" x="1314.5" y="-704.8" font-family="monospace" font-style="italic" font-size="14.00" fill="#95a5a6">oid</text>
<polygon fill="#ffffff" stroke="none" points="1183.5,-670 1183.5,-695 1309.5,-695 1309.5,-670 1183.5,-670"/>
<polygon fill="none" stroke="#2c3e50" points="1183.5,-670 1183.5,-695 1309.5,-695 1309.5,-670 1183.5,-670"/>
<text text-anchor="start" x="1188.5" y="-678.8" font-family="monospace" font-size="14.00" fill="#000000">relowner</text>
<polygon fill="#ffffff" stroke="none" points="1309.5,-670 1309.5,-695 1410.5,-695 1410.5,-670 1309.5,-670"/>
<polygon fill="none" stroke="#2c3e50" points="1309.5,-670 1309.5,-695 1410.5,-695 1410.5,-670 1309.5,-670"/>
<text text-anchor="start" x="1314.5" y="-679.8" font-family="monospace" font-style="italic" font-size="14.00" fill="#95a5a6">oid</text>
<polygon fill="#ffffff" stroke="none" points="1183.5,-645 1183.5,-670 1309.5,-670 1309.5,-645 1183.5,-645"/>
<polygon fill="none" stroke="#2c3e50" points="1183.5,-645 1183.5,-670 1309.5,-670 1309.5,-645 1183.5,-645"/>
<text text-anchor="start" x="1188.5" y="-653.8" font-family="monospace" font-size="14.00" fill="#000000">relam</text>
<polygon fill="#ffffff" stroke="none" points="1309.5,-645 1309.5,-670 1410.5,-670 1410.5,-645 1309.5,-645"/>
<polygon fill="none" stroke="#2c3e50" points="1309.5,-645 1309.5,-670 1410.5,-670 1410.5,-645 1309.5,-645"/>
<text text-anchor="start" x="1314.5" y="-654.8" font-family="monospace" font-style="italic" font-size="14.00" fill="#95a5a6">oid</text>
<polygon fill="#ffffff" stroke="none" points="1183.5,-620 1183.5,-645 1309.5,-645 1309.5,-620 1183.5,-620"/>
<polygon fill="none" stroke="#2c3e50" points="1183.5,-620 1183.5,-645 1309.5,-645 1309.5,-620 1183.5,-620"/>
<text text-anchor="start" x="1188.5" y="-628.8" font-family="monospace" font-size="14.00" fill="#000000">relfilenode</text>
<polygon fill="#ffffff" stroke="none" points="1309.5,-620 1309.5,-645 1410.5,-645 1410.5,-620 1309.5,-620"/>
<polygon fill="none" stroke="#2c3e50" points="1309.5,-620 1309.5,-645 1410.5,-645 1410.5,-620 1309.5,-620"/>
<text text-anchor="start" x="1314.5" y="-629.8" font-family="monospace" font-style="italic" font-size="14.00" fill="#95a5a6">oid</text>
<polygon fill="#ffffff" stroke="none" points="1183.5,-595 1183.5,-620 1309.5,-620 1309.5,-595 1183.5,-595"/>
<polygon fill="none" stroke="#2c3e50" points="1183.5,-595 1183.5,-620 1309.5,-620 1309.5,-595 1183.5,-595"/>
<text text-anchor="start" x="1188.5" y="-603.8" font-family="monospace" font-size="14.00" fill="#000000">reltablespace</text>
<polygon fill="#ffffff" stroke="none" points="1309.5,-595 1309.5,-620 1410.5,-620 1410.5,-595 1309.5,-595"/>
<polygon fill="none" stroke="#2c3e50" points="1309.5,-595 1309.5,-620 1410.5,-620 1410.5,-595 1309.5,-595"/>
<text text-anchor="start" x="1314.5" y="-604.8" font-family="monospace" font-style="italic" font-size="14.00" fill="#95a5a6">oid</text>
<polygon fill="#ffffff" stroke="none" points="1183.5,-570 1183.5,-595 1309.5,-595 1309.5,-570 1183.5,-570"/>
<polygon fill="none" stroke="#2c3e50" points="1183.5,-570 1183.5,-595 1309.5,-595 1309.5,-570 1183.5,-570"/>
<text text-anchor="start" x="1188.5" y="-578.8" font-family="monospace" font-size="14.00" fill="#000000">relpages</text>
<polygon fill="#ffffff" stroke="none" points="1309.5,-570 1309.5,-595 1410.5,-595 1410.5,-570 1309.5,-570"/>
<polygon fill="none" stroke="#2c3e50" points="1309.5,-570 1309.5,-595 1410.5,-595 1410.5,-570 1309.5,-570"/>
<text text-anchor="start" x="1314.5" y="-579.8" font-family="monospace" font-style="italic" font-size="14.00" fill="#95a5a6">integer</text>
<polygon fill="#ffffff" stroke="none" points="1183.5,-545 1183.5,-570 1309.5,-570 1309.5,-545 1183.5,-545"/>
<polygon fill="none" stroke="#2c3e50" points="1183.5,-545 1183.5,-570 1309.5,-570 1309.5,-545 1183.5,-545"/>
<text text-anchor="start" x="1188.5" y="-553.8" font-family="monospace" font-size="14.00" fill="#000000">reltuples</text>
<polygon fill="#ffffff" stroke="none" points="1309.5,-545 1309.5,-570 1410.5,-570 1410.5,-545 1309.5,-545"/>
<polygon fill="none" stroke="#2c3e50" points="1309.5,-545 1309.5,-570 1410.5,-570 1410.5,-545 1309.5,-545"/>
<text text-anchor="start" x="1314.5" y="-554.8" font-family="monospace" font-style="italic" font-size="14.00" fill="#95a5a6">real</text>
<polygon fill="#ffffff" stroke="none" points="1183.5,-520 1183.5,-545 1309.5,-545 1309.5,-520 1183.5,-520"/>
<polygon fill="none" stroke="#2c3e50" points="1183.5,-520 1183.5,-545 1309.5,-545 1309.5,-520 1183.5,-520"/>
<text text-anchor="start" x="1188.5" y="-528.8" font-family="monospace" font-size="14.00" fill="#000000">reltoastrelid</text>
<polygon fill="#ffffff" stroke="none" points="1309.5,-520 1309.5,-545 1410.5,-545 1410.5,-520 1309.5,-520"/>
<polygon fill="none" stroke="#2c3e50" points="1309.5,-520 1309.5,-545 1410.5,-545 1410.5,-520 1309.5,-520"/>
<text text-anchor="start" x="1314.5" y="-529.8" font-family="monospace" font-style="italic" font-size="14.00" fill="#95a5a6">oid</text>
<polygon fill="#ffffff" stroke="none" points="1183.5,-495 1183.5,-520 1309.5,-520 1309.5,-495 1183.5,-495"/>
<polygon fill="none" stroke="#2c3e50" points="1183.5,-495 1183.5,-520 1309.5,-520 1309.5,-495 1183.5,-495"/>
<text text-anchor="start" x="1188.5" y="-503.8" font-family="monospace" font-size="14.00" fill="#000000">reltoastidxid</text>
<polygon fill="#ffffff" stroke="none" points="1309.5,-495 1309.5,-520 1410.5,-520 1410.5,-495 1309.5,-495"/>
<polygon fill="none" stroke="#2c3e50" points="1309.5,-495 1309.5,-520 1410.5,-520 1410.5,-495 1309.5,-495"/>
<text text-anchor="start" x="1314.5" y="-504.8" font-family="monospace" font-style="italic" font-size="14.00" fill="#95a5a6">oid</text>
<polygon fill="#ffffff" stroke="none" points="1183.5,-470 1183.5,-495 1309.5,-495 1309.5,-470 1183.5,-470"/>
<polygon fill="none" stroke="#2c3e50" points="1183.5,-470 1183.5,-495 1309.5,-495 1309.5,-470 1183.5,-470"/>
<text text-anchor="start" x="1188.5" y="-478.8" font-family="monospace" font-size="14.00" fill="#000000">relaosegrelid</text>
<polygon fill="#ffffff" stroke="none" points="1309.5,-470 1309.5,-495 1410.5,-495 1410.5,-470 1309.5,-470"/>
<polygon fill="none" stroke="#2c3e50" points="1309.5,-470 1309.5,-495 1410.5,-495 1410.5,-470 1309.5,-470"/>
<text text-anchor="start" x="1314.5" y="-479.8" font-family="monospace" font-style="italic" font-size="14.00" fill="#95a5a6">oid</text>
<polygon fill="#ffffff" stroke="none" points="1183.5,-445 1183.5,-470 1309.5,-470 1309.5,-445 1183.5,-445"/>
<polygon fill="none" stroke="#2c3e50" points="1183.5,-445 1183.5,-470 1309.5,-470 1309.5,-445 1183.5,-445"/>
<text text-anchor="start" x="1188.5" y="-453.8" font-family="monospace" font-size="14.00" fill="#000000">relaosegidxid</text>
<polygon fill="#ffffff" stroke="none" points="1309.5,-445 1309.5,-470 1410.5,-470 1410.5,-445 1309.5,-445"/>
<polygon fill="none" stroke="#2c3e50" points="1309.5,-445 1309.5,-470 1410.5,-470 1410.5,-445 1309.5,-445"/>
<text text-anchor="start" x="1314.5" y="-454.8" font-family="monospace" font-style="italic" font-size="14.00" fill="#95a5a6">oid</text>
<polygon fill="#ffffff" stroke="none" points="1183.5,-420 1183.5,-445 1309.5,-445 1309.5,-420 1183.5,-420"/>
<polygon fill="none" stroke="#2c3e50" points="1183.5,-420 1183.5,-445 1309.5,-445 1309.5,-420 1183.5,-420"/>
<text text-anchor="start" x="1188.5" y="-428.8" font-family="monospace" font-size="14.00" fill="#000000">relhasindex</text>
<polygon fill="#ffffff" stroke="none" points="1309.5,-420 1309.5,-445 1410.5,-445 1410.5,-420 1309.5,-420"/>
<polygon fill="none" stroke="#2c3e50" points="1309.5,-420 1309.5,-445 1410.5,-445 1410.5,-420 1309.5,-420"/>
<text text-anchor="start" x="1314.5" y="-429.8" font-family="monospace" font-style="italic" font-size="14.00" fill="#95a5a6">boolean</text>
<polygon fill="#ffffff" stroke="none" points="1183.5,-395 1183.5,-420 1309.5,-420 1309.5,-395 1183.5,-395"/>
<polygon fill="none" stroke="#2c3e50" points="1183.5,-395 1183.5,-420 1309.5,-420 1309.5,-395 1183.5,-395"/>
<text text-anchor="start" x="1188.5" y="-403.8" font-family="monospace" font-size="14.00" fill="#000000">relisshared</text>
<polygon fill="#ffffff" stroke="none" points="1309.5,-395 1309.5,-420 1410.5,-420 1410.5,-395 1309.5,-395"/>
<polygon fill="none" stroke="#2c3e50" points="1309.5,-395 1309.5,-420 1410.5,-420 1410.5,-395 1309.5,-395"/>
<text text-anchor="start" x="1314.5" y="-404.8" font-family="monospace" font-style="italic" font-size="14.00" fill="#95a5a6">boolean</text>
<polygon fill="#ffffff" stroke="none" points="1183.5,-370 1183.5,-395 1309.5,-395 1309.5,-370 1183.5,-370"/>
<polygon fill="none" stroke="#2c3e50" points="1183.5,-370 1183.5,-395 1309.5,-395 1309.5,-370 1183.5,-370"/>
<text text-anchor="start" x="1188.5" y="-378.8" font-family="monospace" font-size="14.00" fill="#000000">relkind</text>
<polygon fill="#ffffff" stroke="none" points="1309.5,-370 1309.5,-395 1410.5,-395 1410.5,-370 1309.5,-370"/>
<polygon fill="none" stroke="#2c3e50" points="1309.5,-370 1309.5,-395 1410.5,-395 1410.5,-370 1309.5,-370"/>
<text text-anchor="start" x="1314.5" y="-379.8" font-family="monospace" font-style="italic" font-size="14.00" fill="#95a5a6">quoted_char</text>
<polygon fill="#ffffff" stroke="none" points="1183.5,-345 1183.5,-370 1309.5,-370 1309.5,-345 1183.5,-345"/>
<polygon fill="none" stroke="#2c3e50" points="1183.5,-345 1183.5,-370 1309.5,-370 1309.5,-345 1183.5,-345"/>
<text text-anchor="start" x="1188.5" y="-353.8" font-family="monospace" font-size="14.00" fill="#000000">relstorage</text>
<polygon fill="#ffffff" stroke="none" points="1309.5,-345 1309.5,-370 1410.5,-370 1410.5,-345 1309.5,-345"/>
<polygon fill="none" stroke="#2c3e50" points="1309.5,-345 1309.5,-370 1410.5,-370 1410.5,-345 1309.5,-345"/>
<text text-anchor="start" x="1314.5" y="-354.8" font-family="monospace" font-style="italic" font-size="14.00" fill="#95a5a6">quoted_char</text>
<polygon fill="#ffffff" stroke="none" points="1183.5,-320 1183.5,-345 1309.5,-345 1309.5,-320 1183.5,-320"/>
<polygon fill="none" stroke="#2c3e50" points="1183.5,-320 1183.5,-345 1309.5,-345 1309.5,-320 1183.5,-320"/>
<text text-anchor="start" x="1188.5" y="-328.8" font-family="monospace" font-size="14.00" fill="#000000">relnatts</text>
<polygon fill="#ffffff" stroke="none" points="1309.5,-320 1309.5,-345 1410.5,-345 1410.5,-320 1309.5,-320"/>
<polygon fill="none" stroke="#2c3e50" points="1309.5,-320 1309.5,-345 1410.5,-345 1410.5,-320 1309.5,-320"/>
<text text-anchor="start" x="1314.5" y="-329.8" font-family="monospace" font-style="italic" font-size="14.00" fill="#95a5a6">smallint</text>
<polygon fill="#ffffff" stroke="none" points="1183.5,-295 1183.5,-320 1309.5,-320 1309.5,-295 1183.5,-295"/>
<polygon fill="none" stroke="#2c3e50" points="1183.5,-295 1183.5,-320 1309.5,-320 1309.5,-295 1183.5,-295"/>
<text text-anchor="start" x="1188.5" y="-303.8" font-family="monospace" font-size="14.00" fill="#000000">relchecks</text>
<polygon fill="#ffffff" stroke="none" points="1309.5,-295 1309.5,-320 1410.5,-320 1410.5,-295 1309.5,-295"/>
<polygon fill="none" stroke="#2c3e50" points="1309.5,-295 1309.5,-320 1410.5,-320 1410.5,-295 1309.5,-295"/>
<text text-anchor="start" x="1314.5" y="-304.8" font-family="monospace" font-style="italic" font-size="14.00" fill="#95a5a6">smallint</text>
<polygon fill="#ffffff" stroke="none" points="1183.5,-270 1183.5,-295 1309.5,-295 1309.5,-270 1183.5,-270"/>
<polygon fill="none" stroke="#2c3e50" points="1183.5,-270 1183.5,-295 1309.5,-295 1309.5,-270 1183.5,-270"/>
<text text-anchor="start" x="1188.5" y="-278.8" font-family="monospace" font-size="14.00" fill="#000000">reltriggers</text>
<polygon fill="#ffffff" stroke="none" points="1309.5,-270 1309.5,-295 1410.5,-295 1410.5,-270 1309.5,-270"/>
<polygon fill="none" stroke="#2c3e50" points="1309.5,-270 1309.5,-295 1410.5,-295 1410.5,-270 1309.5,-270"/>
<text text-anchor="start" x="1314.5" y="-279.8" font-family="monospace" font-style="italic" font-size="14.00" fill="#95a5a6">smallint</text>
<polygon fill="#ffffff" stroke="none" points="1183.5,-245 1183.5,-270 1309.5,-270 1309.5,-245 1183.5,-245"/>
<polygon fill="none" stroke="#2c3e50" points="1183.5,-245 1183.5,-270 1309.5,-270 1309.5,-245 1183.5,-245"/>
<text text-anchor="start" x="1188.5" y="-253.8" font-family="monospace" font-size="14.00" fill="#000000">relukeys</text>
<polygon fill="#ffffff" stroke="none" points="1309.5,-245 1309.5,-270 1410.5,-270 1410.5,-245 1309.5,-245"/>
<polygon fill="none" stroke="#2c3e50" points="1309.5,-245 1309.5,-270 1410.5,-270 1410.5,-245 1309.5,-245"/>
<text text-anchor="start" x="1314.5" y="-254.8" font-family="monospace" font-style="italic" font-size="14.00" fill="#95a5a6">smallint</text>
<polygon fill="#ffffff" stroke="none" points="1183.5,-220 1183.5,-245 1309.5,-245 1309.5,-220 1183.5,-220"/>
<polygon fill="none" stroke="#2c3e50" points="1183.5,-220 1183.5,-245 1309.5,-245 1309.5,-220 1183.5,-220"/>
<text text-anchor="start" x="1188.5" y="-228.8" font-family="monospace" font-size="14.00" fill="#000000">relfkeys</text>
<polygon fill="#ffffff" stroke="none" points="1309.5,-220 1309.5,-245 1410.5,-245 1410.5,-220 1309.5,-220"/>
<polygon fill="none" stroke="#2c3e50" points="1309.5,-220 1309.5,-245 1410.5,-245 1410.5,-220 1309.5,-220"/>
<text text-anchor="start" x="1314.5" y="-229.8" font-family="monospace" font-style="italic" font-size="14.00" fill="#95a5a6">smallint</text>
<polygon fill="#ffffff" stroke="none" points="1183.5,-195 1183.5,-220 1309.5,-220 1309.5,-195 1183.5,-195"/>
<polygon fill="none" stroke="#2c3e50" points="1183.5,-195 1183.5,-220 1309.5,-220 1309.5,-195 1183.5,-195"/>
<text text-anchor="start" x="1188.5" y="-203.8" font-family="monospace" font-size="14.00" fill="#000000">relrefs</text>
<polygon fill="#ffffff" stroke="none" points="1309.5,-195 1309.5,-220 1410.5,-220 1410.5,-195 1309.5,-195"/>
<polygon fill="none" stroke="#2c3e50" points="1309.5,-195 1309.5,-220 1410.5,-220 1410.5,-195 1309.5,-195"/>
<text text-anchor="start" x="1314.5" y="-204.8" font-family="monospace" font-style="italic" font-size="14.00" fill="#95a5a6">smallint</text>
<polygon fill="#ffffff" stroke="none" points="1183.5,-170 1183.5,-195 1309.5,-195 1309.5,-170 1183.5,-170"/>
<polygon fill="none" stroke="#2c3e50" points="1183.5,-170 1183.5,-195 1309.5,-195 1309.5,-170 1183.5,-170"/>
<text text-anchor="start" x="1188.5" y="-178.8" font-family="monospace" font-size="14.00" fill="#000000">relhasoids</text>
<polygon fill="#ffffff" stroke="none" points="1309.5,-170 1309.5,-195 1410.5,-195 1410.5,-170 1309.5,-170"/>
<polygon fill="none" stroke="#2c3e50" points="1309.5,-170 1309.5,-195 1410.5,-195 1410.5,-170 1309.5,-170"/>
<text text-anchor="start" x="1314.5" y="-179.8" font-family="monospace" font-style="italic" font-size="14.00" fill="#95a5a6">boolean</text>
<polygon fill="#ffffff" stroke="none" points="1183.5,-145 1183.5,-170 1309.5,-170 1309.5,-145 1183.5,-145"/>
<polygon fill="none" stroke="#2c3e50" points="1183.5,-145 1183.5,-170 1309.5,-170 1309.5,-145 1183.5,-145"/>
<text text-anchor="start" x="1188.5" y="-153.8" font-family="monospace" font-size="14.00" fill="#000000">relhaspkey</text>
<polygon fill="#ffffff" stroke="none" points="1309.5,-145 1309.5,-170 1410.5,-170 1410.5,-145 1309.5,-145"/>
<polygon fill="none" stroke="#2c3e50" points="1309.5,-145 1309.5,-170 1410.5,-170 1410.5,-145 1309.5,-145"/>
<text text-anchor="start" x="1314.5" y="-154.8" font-family="monospace" font-style="italic" font-size="14.00" fill="#95a5a6">boolean</text>
<polygon fill="#ffffff" stroke="none" points="1183.5,-120 1183.5,-145 1309.5,-145 1309.5,-120 1183.5,-120"/>
<polygon fill="none" stroke="#2c3e50" points="1183.5,-120 1183.5,-145 1309.5,-145 1309.5,-120 1183.5,-120"/>
<text text-anchor="start" x="1188.5" y="-128.8" font-family="monospace" font-size="14.00" fill="#000000">relhasrules</text>
<polygon fill="#ffffff" stroke="none" points="1309.5,-120 1309.5,-145 1410.5,-145 1410.5,-120 1309.5,-120"/>
<polygon fill="none" stroke="#2c3e50" points="1309.5,-120 1309.5,-145 1410.5,-145 1410.5,-120 1309.5,-120"/>
<text text-anchor="start" x="1314.5" y="-129.8" font-family="monospace" font-style="italic" font-size="14.00" fill="#95a5a6">boolean</text>
<polygon fill="#ffffff" stroke="none" points="1183.5,-95 1183.5,-120 1309.5,-120 1309.5,-95 1183.5,-95"/>
<polygon fill="none" stroke="#2c3e50" points="1183.5,-95 1183.5,-120 1309.5,-120 1309.5,-95 1183.5,-95"/>
<text text-anchor="start" x="1188.5" y="-103.8" font-family="monospace" font-size="14.00" fill="#000000">relhassubclass</text>
<polygon fill="#ffffff" stroke="none" points="1309.5,-95 1309.5,-120 1410.5,-120 1410.5,-95 1309.5,-95"/>
<polygon fill="none" stroke="#2c3e50" points="1309.5,-95 1309.5,-120 1410.5,-120 1410.5,-95 1309.5,-95"/>
<text text-anchor="start" x="1314.5" y="-104.8" font-family="monospace" font-style="italic" font-size="14.00" fill="#95a5a6">boolean</text>
<polygon fill="#ffffff" stroke="none" points="1183.5,-70 1183.5,-95 1309.5,-95 1309.5,-70 1183.5,-70"/>
<polygon fill="none" stroke="#2c3e50" points="1183.5,-70 1183.5,-95 1309.5,-95 1309.5,-70 1183.5,-70"/>
<text text-anchor="start" x="1188.5" y="-78.8" font-family="monospace" font-size="14.00" fill="#000000">relfrozenxid</text>
<polygon fill="#ffffff" stroke="none" points="1309.5,-70 1309.5,-95 1410.5,-95 1410.5,-70 1309.5,-70"/>
<polygon fill="none" stroke="#2c3e50" points="1309.5,-70 1309.5,-95 1410.5,-95 1410.5,-70 1309.5,-70"/>
<text text-anchor="start" x="1314.5" y="-79.8" font-family="monospace" font-style="italic" font-size="14.00" fill="#95a5a6">xid</text>
<polygon fill="#ffffff" stroke="none" points="1183.5,-45 1183.5,-70 1309.5,-70 1309.5,-45 1183.5,-45"/>
<polygon fill="none" stroke="#2c3e50" points="1183.5,-45 1183.5,-70 1309.5,-70 1309.5,-45 1183.5,-45"/>
<text text-anchor="start" x="1188.5" y="-53.8" font-family="monospace" font-size="14.00" fill="#000000">relacl</text>
<polygon fill="#ffffff" stroke="none" points="1309.5,-45 1309.5,-70 1410.5,-70 1410.5,-45 1309.5,-45"/>
<polygon fill="none" stroke="#2c3e50" points="1309.5,-45 1309.5,-70 1410.5,-70 1410.5,-45 1309.5,-45"/>
<text text-anchor="start" x="1314.5" y="-54.8" font-family="monospace" font-style="italic" font-size="14.00" fill="#95a5a6">aclitem[]</text>
<polygon fill="#ffffff" stroke="none" points="1183.5,-20 1183.5,-45 1309.5,-45 1309.5,-20 1183.5,-20"/>
<polygon fill="none" stroke="#2c3e50" points="1183.5,-20 1183.5,-45 1309.5,-45 1309.5,-20 1183.5,-20"/>
<text text-anchor="start" x="1188.5" y="-28.8" font-family="monospace" font-size="14.00" fill="#000000">reloptions</text>
<polygon fill="#ffffff" stroke="none" points="1309.5,-20 1309.5,-45 1410.5,-45 1410.5,-20 1309.5,-20"/>
<polygon fill="none" stroke="#2c3e50" points="1309.5,-20 1309.5,-45 1410.5,-45 1410.5,-20 1309.5,-20"/>
<text text-anchor="start" x="1314.5" y="-29.8" font-family="monospace" font-style="italic" font-size="14.00" fill="#95a5a6">text[]</text>
</a>
</g>
</g>
<!-- pg_appendonly_alter_column&#45;&gt;pg_class -->
<g id="edge1" class="edge"><title>pg_appendonly_alter_column:relid_out&#45;&gt;pg_class:oid_in</title>
<path fill="none" stroke="#2c3e50" d="M568,-783C837.644,-783 907.622,-783 1172.2,-783"/>
<polygon fill="#2c3e50" stroke="#2c3e50" points="1172.5,-786.5 1182.5,-783 1172.5,-779.5 1172.5,-786.5"/>
</g>
</g>
</svg>
