<?xml version="1.0" encoding="UTF-8" standalone="no"?>
<!DOCTYPE svg PUBLIC "-//W3C//DTD SVG 1.1//EN"
 "http://www.w3.org/Graphics/SVG/1.1/DTD/svg11.dtd">
<!-- Generated by graphviz version 2.38.0 (20140413.2041)
 -->
<!-- Title: GPDB Pages: 1 -->
<svg width="1176pt" height="1478pt"
 viewBox="0.00 0.00 1176.00 1478.00" xmlns="http://www.w3.org/2000/svg" xmlns:xlink="http://www.w3.org/1999/xlink">
<g id="graph0" class="graph" transform="scale(1 1) rotate(0) translate(36 1442)">
<title>GPDB</title>
<polygon fill="white" stroke="none" points="-36,36 -36,-1442 1140,-1442 1140,36 -36,36"/>
<text text-anchor="middle" x="552" y="-1376.4" font-family="Helvetica,sans-Serif" font-size="32.00">Greenplum System Catalog: pg_cast</text>
<g id="clust2" class="cluster"><title>cluster_selected</title>
</g>
<g id="clust3" class="cluster"><title>cluster_to</title>
</g>
<!-- pg_cast -->
<g id="node1" class="node"><title>pg_cast</title>
<polygon fill="#2c3e50" stroke="none" points="170,-1269 170,-1299 372,-1299 372,-1269 170,-1269"/>
<polygon fill="none" stroke="black" points="170,-1269 170,-1299 372,-1299 372,-1269 170,-1269"/>
<text text-anchor="start" x="234" y="-1280.6" font-family="monospace" font-weight="bold" font-size="18.00" fill="#ffffff">pg_cast</text>
<polygon fill="#ffffff" stroke="none" points="170,-1244 170,-1269 271,-1269 271,-1244 170,-1244"/>
<polygon fill="none" stroke="#2c3e50" points="170,-1244 170,-1269 271,-1269 271,-1244 170,-1244"/>
<text text-anchor="start" x="175" y="-1252.8" font-family="monospace" font-size="14.00" fill="#000000">oid</text>
<polygon fill="#ffffff" stroke="none" points="271,-1244 271,-1269 372,-1269 372,-1244 271,-1244"/>
<polygon fill="none" stroke="#2c3e50" points="271,-1244 271,-1269 372,-1269 372,-1244 271,-1244"/>
<text text-anchor="start" x="276" y="-1253.8" font-family="monospace" font-style="italic" font-size="14.00" fill="#95a5a6">oid</text>
<polygon fill="#ffffff" stroke="none" points="170,-1219 170,-1244 271,-1244 271,-1219 170,-1219"/>
<polygon fill="none" stroke="#2c3e50" points="170,-1219 170,-1244 271,-1244 271,-1219 170,-1219"/>
<text text-anchor="start" x="175" y="-1227.8" font-family="monospace" font-size="14.00" fill="#000000">castsource</text>
<polygon fill="#18bc9c" stroke="none" points="271,-1219 271,-1244 372,-1244 372,-1219 271,-1219"/>
<polygon fill="none" stroke="#2c3e50" points="271,-1219 271,-1244 372,-1244 372,-1219 271,-1219"/>
<text text-anchor="start" x="276" y="-1228.8" font-family="monospace" font-style="italic" font-size="14.00" fill="#ffffff">oid</text>
<polygon fill="#ffffff" stroke="none" points="170,-1194 170,-1219 271,-1219 271,-1194 170,-1194"/>
<polygon fill="none" stroke="#2c3e50" points="170,-1194 170,-1219 271,-1219 271,-1194 170,-1194"/>
<text text-anchor="start" x="175" y="-1202.8" font-family="monospace" font-size="14.00" fill="#000000">casttarget</text>
<polygon fill="#18bc9c" stroke="none" points="271,-1194 271,-1219 372,-1219 372,-1194 271,-1194"/>
<polygon fill="none" stroke="#2c3e50" points="271,-1194 271,-1219 372,-1219 372,-1194 271,-1194"/>
<text text-anchor="start" x="276" y="-1203.8" font-family="monospace" font-style="italic" font-size="14.00" fill="#ffffff">oid</text>
<polygon fill="#ffffff" stroke="none" points="170,-1169 170,-1194 271,-1194 271,-1169 170,-1169"/>
<polygon fill="none" stroke="#2c3e50" points="170,-1169 170,-1194 271,-1194 271,-1169 170,-1169"/>
<text text-anchor="start" x="175" y="-1177.8" font-family="monospace" font-size="14.00" fill="#000000">castfunc</text>
<polygon fill="#18bc9c" stroke="none" points="271,-1169 271,-1194 372,-1194 372,-1169 271,-1169"/>
<polygon fill="none" stroke="#2c3e50" points="271,-1169 271,-1194 372,-1194 372,-1169 271,-1169"/>
<text text-anchor="start" x="276" y="-1178.8" font-family="monospace" font-style="italic" font-size="14.00" fill="#ffffff">oid</text>
<polygon fill="#ffffff" stroke="none" points="170,-1144 170,-1169 271,-1169 271,-1144 170,-1144"/>
<polygon fill="none" stroke="#2c3e50" points="170,-1144 170,-1169 271,-1169 271,-1144 170,-1144"/>
<text text-anchor="start" x="175" y="-1152.8" font-family="monospace" font-size="14.00" fill="#000000">castcontext</text>
<polygon fill="#ffffff" stroke="none" points="271,-1144 271,-1169 372,-1169 372,-1144 271,-1144"/>
<polygon fill="none" stroke="#2c3e50" points="271,-1144 271,-1169 372,-1169 372,-1144 271,-1144"/>
<text text-anchor="start" x="276" y="-1153.8" font-family="monospace" font-style="italic" font-size="14.00" fill="#95a5a6">quoted_char</text>
</g>
<!-- pg_type -->
<g id="node2" class="node"><title>pg_type</title>
<polygon fill="#2c3e50" stroke="none" points="724,-1244 724,-1274 943,-1274 943,-1244 724,-1244"/>
<polygon fill="none" stroke="black" points="724,-1244 724,-1274 943,-1274 943,-1244 724,-1244"/>
<text text-anchor="start" x="796.5" y="-1255.6" font-family="monospace" font-weight="bold" font-size="18.00" fill="#ffffff">pg_type</text>
<polygon fill="#18bc9c" stroke="none" points="724,-1219 724,-1244 842,-1244 842,-1219 724,-1219"/>
<polygon fill="none" stroke="#2c3e50" points="724,-1219 724,-1244 842,-1244 842,-1219 724,-1219"/>
<text text-anchor="start" x="729" y="-1227.8" font-family="monospace" font-size="14.00" fill="#ffffff">oid</text>
<polygon fill="#ffffff" stroke="none" points="842,-1219 842,-1244 943,-1244 943,-1219 842,-1219"/>
<polygon fill="none" stroke="#2c3e50" points="842,-1219 842,-1244 943,-1244 943,-1219 842,-1219"/>
<text text-anchor="start" x="847" y="-1228.8" font-family="monospace" font-style="italic" font-size="14.00" fill="#95a5a6">oid</text>
<polygon fill="#ffffff" stroke="none" points="724,-1194 724,-1219 842,-1219 842,-1194 724,-1194"/>
<polygon fill="none" stroke="#2c3e50" points="724,-1194 724,-1219 842,-1219 842,-1194 724,-1194"/>
<text text-anchor="start" x="729" y="-1202.8" font-family="monospace" font-size="14.00" fill="#000000">typname</text>
<polygon fill="#ffffff" stroke="none" points="842,-1194 842,-1219 943,-1219 943,-1194 842,-1194"/>
<polygon fill="none" stroke="#2c3e50" points="842,-1194 842,-1219 943,-1219 943,-1194 842,-1194"/>
<text text-anchor="start" x="847" y="-1203.8" font-family="monospace" font-style="italic" font-size="14.00" fill="#95a5a6">name</text>
<polygon fill="#ffffff" stroke="none" points="724,-1169 724,-1194 842,-1194 842,-1169 724,-1169"/>
<polygon fill="none" stroke="#2c3e50" points="724,-1169 724,-1194 842,-1194 842,-1169 724,-1169"/>
<text text-anchor="start" x="729" y="-1177.8" font-family="monospace" font-size="14.00" fill="#000000">typnamespace</text>
<polygon fill="#ffffff" stroke="none" points="842,-1169 842,-1194 943,-1194 943,-1169 842,-1169"/>
<polygon fill="none" stroke="#2c3e50" points="842,-1169 842,-1194 943,-1194 943,-1169 842,-1169"/>
<text text-anchor="start" x="847" y="-1178.8" font-family="monospace" font-style="italic" font-size="14.00" fill="#95a5a6">oid</text>
<polygon fill="#ffffff" stroke="none" points="724,-1144 724,-1169 842,-1169 842,-1144 724,-1144"/>
<polygon fill="none" stroke="#2c3e50" points="724,-1144 724,-1169 842,-1169 842,-1144 724,-1144"/>
<text text-anchor="start" x="729" y="-1152.8" font-family="monospace" font-size="14.00" fill="#000000">typowner</text>
<polygon fill="#ffffff" stroke="none" points="842,-1144 842,-1169 943,-1169 943,-1144 842,-1144"/>
<polygon fill="none" stroke="#2c3e50" points="842,-1144 842,-1169 943,-1169 943,-1144 842,-1144"/>
<text text-anchor="start" x="847" y="-1153.8" font-family="monospace" font-style="italic" font-size="14.00" fill="#95a5a6">oid</text>
<polygon fill="#ffffff" stroke="none" points="724,-1119 724,-1144 842,-1144 842,-1119 724,-1119"/>
<polygon fill="none" stroke="#2c3e50" points="724,-1119 724,-1144 842,-1144 842,-1119 724,-1119"/>
<text text-anchor="start" x="729" y="-1127.8" font-family="monospace" font-size="14.00" fill="#000000">typlen</text>
<polygon fill="#ffffff" stroke="none" points="842,-1119 842,-1144 943,-1144 943,-1119 842,-1119"/>
<polygon fill="none" stroke="#2c3e50" points="842,-1119 842,-1144 943,-1144 943,-1119 842,-1119"/>
<text text-anchor="start" x="847" y="-1128.8" font-family="monospace" font-style="italic" font-size="14.00" fill="#95a5a6">smallint</text>
<polygon fill="#ffffff" stroke="none" points="724,-1094 724,-1119 842,-1119 842,-1094 724,-1094"/>
<polygon fill="none" stroke="#2c3e50" points="724,-1094 724,-1119 842,-1119 842,-1094 724,-1094"/>
<text text-anchor="start" x="729" y="-1102.8" font-family="monospace" font-size="14.00" fill="#000000">typbyval</text>
<polygon fill="#ffffff" stroke="none" points="842,-1094 842,-1119 943,-1119 943,-1094 842,-1094"/>
<polygon fill="none" stroke="#2c3e50" points="842,-1094 842,-1119 943,-1119 943,-1094 842,-1094"/>
<text text-anchor="start" x="847" y="-1103.8" font-family="monospace" font-style="italic" font-size="14.00" fill="#95a5a6">boolean</text>
<polygon fill="#ffffff" stroke="none" points="724,-1069 724,-1094 842,-1094 842,-1069 724,-1069"/>
<polygon fill="none" stroke="#2c3e50" points="724,-1069 724,-1094 842,-1094 842,-1069 724,-1069"/>
<text text-anchor="start" x="729" y="-1077.8" font-family="monospace" font-size="14.00" fill="#000000">typtype</text>
<polygon fill="#ffffff" stroke="none" points="842,-1069 842,-1094 943,-1094 943,-1069 842,-1069"/>
<polygon fill="none" stroke="#2c3e50" points="842,-1069 842,-1094 943,-1094 943,-1069 842,-1069"/>
<text text-anchor="start" x="847" y="-1078.8" font-family="monospace" font-style="italic" font-size="14.00" fill="#95a5a6">quoted_char</text>
<polygon fill="#ffffff" stroke="none" points="724,-1044 724,-1069 842,-1069 842,-1044 724,-1044"/>
<polygon fill="none" stroke="#2c3e50" points="724,-1044 724,-1069 842,-1069 842,-1044 724,-1044"/>
<text text-anchor="start" x="729" y="-1052.8" font-family="monospace" font-size="14.00" fill="#000000">typisdefined</text>
<polygon fill="#ffffff" stroke="none" points="842,-1044 842,-1069 943,-1069 943,-1044 842,-1044"/>
<polygon fill="none" stroke="#2c3e50" points="842,-1044 842,-1069 943,-1069 943,-1044 842,-1044"/>
<text text-anchor="start" x="847" y="-1053.8" font-family="monospace" font-style="italic" font-size="14.00" fill="#95a5a6">boolean</text>
<polygon fill="#ffffff" stroke="none" points="724,-1019 724,-1044 842,-1044 842,-1019 724,-1019"/>
<polygon fill="none" stroke="#2c3e50" points="724,-1019 724,-1044 842,-1044 842,-1019 724,-1019"/>
<text text-anchor="start" x="729" y="-1027.8" font-family="monospace" font-size="14.00" fill="#000000">typdelim</text>
<polygon fill="#ffffff" stroke="none" points="842,-1019 842,-1044 943,-1044 943,-1019 842,-1019"/>
<polygon fill="none" stroke="#2c3e50" points="842,-1019 842,-1044 943,-1044 943,-1019 842,-1019"/>
<text text-anchor="start" x="847" y="-1028.8" font-family="monospace" font-style="italic" font-size="14.00" fill="#95a5a6">quoted_char</text>
<polygon fill="#ffffff" stroke="none" points="724,-994 724,-1019 842,-1019 842,-994 724,-994"/>
<polygon fill="none" stroke="#2c3e50" points="724,-994 724,-1019 842,-1019 842,-994 724,-994"/>
<text text-anchor="start" x="729" y="-1002.8" font-family="monospace" font-size="14.00" fill="#000000">typrelid</text>
<polygon fill="#ffffff" stroke="none" points="842,-994 842,-1019 943,-1019 943,-994 842,-994"/>
<polygon fill="none" stroke="#2c3e50" points="842,-994 842,-1019 943,-1019 943,-994 842,-994"/>
<text text-anchor="start" x="847" y="-1003.8" font-family="monospace" font-style="italic" font-size="14.00" fill="#95a5a6">oid</text>
<polygon fill="#ffffff" stroke="none" points="724,-969 724,-994 842,-994 842,-969 724,-969"/>
<polygon fill="none" stroke="#2c3e50" points="724,-969 724,-994 842,-994 842,-969 724,-969"/>
<text text-anchor="start" x="729" y="-977.8" font-family="monospace" font-size="14.00" fill="#000000">typelem</text>
<polygon fill="#ffffff" stroke="none" points="842,-969 842,-994 943,-994 943,-969 842,-969"/>
<polygon fill="none" stroke="#2c3e50" points="842,-969 842,-994 943,-994 943,-969 842,-969"/>
<text text-anchor="start" x="847" y="-978.8" font-family="monospace" font-style="italic" font-size="14.00" fill="#95a5a6">oid</text>
<polygon fill="#ffffff" stroke="none" points="724,-944 724,-969 842,-969 842,-944 724,-944"/>
<polygon fill="none" stroke="#2c3e50" points="724,-944 724,-969 842,-969 842,-944 724,-944"/>
<text text-anchor="start" x="729" y="-952.8" font-family="monospace" font-size="14.00" fill="#000000">typinput</text>
<polygon fill="#ffffff" stroke="none" points="842,-944 842,-969 943,-969 943,-944 842,-944"/>
<polygon fill="none" stroke="#2c3e50" points="842,-944 842,-969 943,-969 943,-944 842,-944"/>
<text text-anchor="start" x="847" y="-953.8" font-family="monospace" font-style="italic" font-size="14.00" fill="#95a5a6">regproc</text>
<polygon fill="#ffffff" stroke="none" points="724,-919 724,-944 842,-944 842,-919 724,-919"/>
<polygon fill="none" stroke="#2c3e50" points="724,-919 724,-944 842,-944 842,-919 724,-919"/>
<text text-anchor="start" x="729" y="-927.8" font-family="monospace" font-size="14.00" fill="#000000">typoutput</text>
<polygon fill="#ffffff" stroke="none" points="842,-919 842,-944 943,-944 943,-919 842,-919"/>
<polygon fill="none" stroke="#2c3e50" points="842,-919 842,-944 943,-944 943,-919 842,-919"/>
<text text-anchor="start" x="847" y="-928.8" font-family="monospace" font-style="italic" font-size="14.00" fill="#95a5a6">regproc</text>
<polygon fill="#ffffff" stroke="none" points="724,-894 724,-919 842,-919 842,-894 724,-894"/>
<polygon fill="none" stroke="#2c3e50" points="724,-894 724,-919 842,-919 842,-894 724,-894"/>
<text text-anchor="start" x="729" y="-902.8" font-family="monospace" font-size="14.00" fill="#000000">typreceive</text>
<polygon fill="#ffffff" stroke="none" points="842,-894 842,-919 943,-919 943,-894 842,-894"/>
<polygon fill="none" stroke="#2c3e50" points="842,-894 842,-919 943,-919 943,-894 842,-894"/>
<text text-anchor="start" x="847" y="-903.8" font-family="monospace" font-style="italic" font-size="14.00" fill="#95a5a6">regproc</text>
<polygon fill="#ffffff" stroke="none" points="724,-869 724,-894 842,-894 842,-869 724,-869"/>
<polygon fill="none" stroke="#2c3e50" points="724,-869 724,-894 842,-894 842,-869 724,-869"/>
<text text-anchor="start" x="729" y="-877.8" font-family="monospace" font-size="14.00" fill="#000000">typsend</text>
<polygon fill="#ffffff" stroke="none" points="842,-869 842,-894 943,-894 943,-869 842,-869"/>
<polygon fill="none" stroke="#2c3e50" points="842,-869 842,-894 943,-894 943,-869 842,-869"/>
<text text-anchor="start" x="847" y="-878.8" font-family="monospace" font-style="italic" font-size="14.00" fill="#95a5a6">regproc</text>
<polygon fill="#ffffff" stroke="none" points="724,-844 724,-869 842,-869 842,-844 724,-844"/>
<polygon fill="none" stroke="#2c3e50" points="724,-844 724,-869 842,-869 842,-844 724,-844"/>
<text text-anchor="start" x="729" y="-852.8" font-family="monospace" font-size="14.00" fill="#000000">typanalyze</text>
<polygon fill="#ffffff" stroke="none" points="842,-844 842,-869 943,-869 943,-844 842,-844"/>
<polygon fill="none" stroke="#2c3e50" points="842,-844 842,-869 943,-869 943,-844 842,-844"/>
<text text-anchor="start" x="847" y="-853.8" font-family="monospace" font-style="italic" font-size="14.00" fill="#95a5a6">regproc</text>
<polygon fill="#ffffff" stroke="none" points="724,-819 724,-844 842,-844 842,-819 724,-819"/>
<polygon fill="none" stroke="#2c3e50" points="724,-819 724,-844 842,-844 842,-819 724,-819"/>
<text text-anchor="start" x="729" y="-827.8" font-family="monospace" font-size="14.00" fill="#000000">typalign</text>
<polygon fill="#ffffff" stroke="none" points="842,-819 842,-844 943,-844 943,-819 842,-819"/>
<polygon fill="none" stroke="#2c3e50" points="842,-819 842,-844 943,-844 943,-819 842,-819"/>
<text text-anchor="start" x="847" y="-828.8" font-family="monospace" font-style="italic" font-size="14.00" fill="#95a5a6">quoted_char</text>
<polygon fill="#ffffff" stroke="none" points="724,-794 724,-819 842,-819 842,-794 724,-794"/>
<polygon fill="none" stroke="#2c3e50" points="724,-794 724,-819 842,-819 842,-794 724,-794"/>
<text text-anchor="start" x="729" y="-802.8" font-family="monospace" font-size="14.00" fill="#000000">typstorage</text>
<polygon fill="#ffffff" stroke="none" points="842,-794 842,-819 943,-819 943,-794 842,-794"/>
<polygon fill="none" stroke="#2c3e50" points="842,-794 842,-819 943,-819 943,-794 842,-794"/>
<text text-anchor="start" x="847" y="-803.8" font-family="monospace" font-style="italic" font-size="14.00" fill="#95a5a6">quoted_char</text>
<polygon fill="#ffffff" stroke="none" points="724,-769 724,-794 842,-794 842,-769 724,-769"/>
<polygon fill="none" stroke="#2c3e50" points="724,-769 724,-794 842,-794 842,-769 724,-769"/>
<text text-anchor="start" x="729" y="-777.8" font-family="monospace" font-size="14.00" fill="#000000">typnotnull</text>
<polygon fill="#ffffff" stroke="none" points="842,-769 842,-794 943,-794 943,-769 842,-769"/>
<polygon fill="none" stroke="#2c3e50" points="842,-769 842,-794 943,-794 943,-769 842,-769"/>
<text text-anchor="start" x="847" y="-778.8" font-family="monospace" font-style="italic" font-size="14.00" fill="#95a5a6">boolean</text>
<polygon fill="#ffffff" stroke="none" points="724,-744 724,-769 842,-769 842,-744 724,-744"/>
<polygon fill="none" stroke="#2c3e50" points="724,-744 724,-769 842,-769 842,-744 724,-744"/>
<text text-anchor="start" x="729" y="-752.8" font-family="monospace" font-size="14.00" fill="#000000">typbasetype</text>
<polygon fill="#ffffff" stroke="none" points="842,-744 842,-769 943,-769 943,-744 842,-744"/>
<polygon fill="none" stroke="#2c3e50" points="842,-744 842,-769 943,-769 943,-744 842,-744"/>
<text text-anchor="start" x="847" y="-753.8" font-family="monospace" font-style="italic" font-size="14.00" fill="#95a5a6">oid</text>
<polygon fill="#ffffff" stroke="none" points="724,-719 724,-744 842,-744 842,-719 724,-719"/>
<polygon fill="none" stroke="#2c3e50" points="724,-719 724,-744 842,-744 842,-719 724,-719"/>
<text text-anchor="start" x="729" y="-727.8" font-family="monospace" font-size="14.00" fill="#000000">typtypmod</text>
<polygon fill="#ffffff" stroke="none" points="842,-719 842,-744 943,-744 943,-719 842,-719"/>
<polygon fill="none" stroke="#2c3e50" points="842,-719 842,-744 943,-744 943,-719 842,-719"/>
<text text-anchor="start" x="847" y="-728.8" font-family="monospace" font-style="italic" font-size="14.00" fill="#95a5a6">integer</text>
<polygon fill="#ffffff" stroke="none" points="724,-694 724,-719 842,-719 842,-694 724,-694"/>
<polygon fill="none" stroke="#2c3e50" points="724,-694 724,-719 842,-719 842,-694 724,-694"/>
<text text-anchor="start" x="729" y="-702.8" font-family="monospace" font-size="14.00" fill="#000000">typndims</text>
<polygon fill="#ffffff" stroke="none" points="842,-694 842,-719 943,-719 943,-694 842,-694"/>
<polygon fill="none" stroke="#2c3e50" points="842,-694 842,-719 943,-719 943,-694 842,-694"/>
<text text-anchor="start" x="847" y="-703.8" font-family="monospace" font-style="italic" font-size="14.00" fill="#95a5a6">integer</text>
<polygon fill="#ffffff" stroke="none" points="724,-669 724,-694 842,-694 842,-669 724,-669"/>
<polygon fill="none" stroke="#2c3e50" points="724,-669 724,-694 842,-694 842,-669 724,-669"/>
<text text-anchor="start" x="729" y="-677.8" font-family="monospace" font-size="14.00" fill="#000000">typdefaultbin</text>
<polygon fill="#ffffff" stroke="none" points="842,-669 842,-694 943,-694 943,-669 842,-669"/>
<polygon fill="none" stroke="#2c3e50" points="842,-669 842,-694 943,-694 943,-669 842,-669"/>
<text text-anchor="start" x="847" y="-678.8" font-family="monospace" font-style="italic" font-size="14.00" fill="#95a5a6">text</text>
<polygon fill="#ffffff" stroke="none" points="724,-644 724,-669 842,-669 842,-644 724,-644"/>
<polygon fill="none" stroke="#2c3e50" points="724,-644 724,-669 842,-669 842,-644 724,-644"/>
<text text-anchor="start" x="729" y="-652.8" font-family="monospace" font-size="14.00" fill="#000000">typdefault</text>
<polygon fill="#ffffff" stroke="none" points="842,-644 842,-669 943,-669 943,-644 842,-644"/>
<polygon fill="none" stroke="#2c3e50" points="842,-644 842,-669 943,-669 943,-644 842,-644"/>
<text text-anchor="start" x="847" y="-653.8" font-family="monospace" font-style="italic" font-size="14.00" fill="#95a5a6">text</text>
</g>
<!-- pg_cast&#45;&gt;pg_type -->
<g id="edge1" class="edge"><title>pg_cast:castsource_out&#45;&gt;pg_type:oid_in</title>
<path fill="none" stroke="#2c3e50" d="M373,-1232C525.062,-1232 565.639,-1232 712.692,-1232"/>
<polygon fill="#2c3e50" stroke="#2c3e50" points="713,-1235.5 723,-1232 713,-1228.5 713,-1235.5"/>
</g>
<!-- pg_cast&#45;&gt;pg_type -->
<g id="edge2" class="edge"><title>pg_cast:casttarget_out&#45;&gt;pg_type:oid_in</title>
<path fill="none" stroke="#2c3e50" d="M373,-1206C525.481,-1206 565.248,-1230.85 712.665,-1231.96"/>
<polygon fill="#2c3e50" stroke="#2c3e50" points="712.987,-1235.46 723,-1232 713.013,-1228.46 712.987,-1235.46"/>
</g>
<!-- pg_proc -->
<g id="node3" class="node"><title>pg_proc</title>
<polygon fill="#2c3e50" stroke="none" points="711,-570 711,-600 955,-600 955,-570 711,-570"/>
<polygon fill="none" stroke="black" points="711,-570 711,-600 955,-600 955,-570 711,-570"/>
<text text-anchor="start" x="796" y="-581.6" font-family="monospace" font-weight="bold" font-size="18.00" fill="#ffffff">pg_proc</text>
<polygon fill="#18bc9c" stroke="none" points="711,-545 711,-570 837,-570 837,-545 711,-545"/>
<polygon fill="none" stroke="#2c3e50" points="711,-545 711,-570 837,-570 837,-545 711,-545"/>
<text text-anchor="start" x="716" y="-553.8" font-family="monospace" font-size="14.00" fill="#ffffff">oid</text>
<polygon fill="#ffffff" stroke="none" points="837,-545 837,-570 955,-570 955,-545 837,-545"/>
<polygon fill="none" stroke="#2c3e50" points="837,-545 837,-570 955,-570 955,-545 837,-545"/>
<text text-anchor="start" x="842" y="-554.8" font-family="monospace" font-style="italic" font-size="14.00" fill="#95a5a6">oid</text>
<polygon fill="#ffffff" stroke="none" points="711,-520 711,-545 837,-545 837,-520 711,-520"/>
<polygon fill="none" stroke="#2c3e50" points="711,-520 711,-545 837,-545 837,-520 711,-520"/>
<text text-anchor="start" x="716" y="-528.8" font-family="monospace" font-size="14.00" fill="#000000">proname</text>
<polygon fill="#ffffff" stroke="none" points="837,-520 837,-545 955,-545 955,-520 837,-520"/>
<polygon fill="none" stroke="#2c3e50" points="837,-520 837,-545 955,-545 955,-520 837,-520"/>
<text text-anchor="start" x="842" y="-529.8" font-family="monospace" font-style="italic" font-size="14.00" fill="#95a5a6">name</text>
<polygon fill="#ffffff" stroke="none" points="711,-495 711,-520 837,-520 837,-495 711,-495"/>
<polygon fill="none" stroke="#2c3e50" points="711,-495 711,-520 837,-520 837,-495 711,-495"/>
<text text-anchor="start" x="716" y="-503.8" font-family="monospace" font-size="14.00" fill="#000000">pronamespace</text>
<polygon fill="#ffffff" stroke="none" points="837,-495 837,-520 955,-520 955,-495 837,-495"/>
<polygon fill="none" stroke="#2c3e50" points="837,-495 837,-520 955,-520 955,-495 837,-495"/>
<text text-anchor="start" x="842" y="-504.8" font-family="monospace" font-style="italic" font-size="14.00" fill="#95a5a6">oid</text>
<polygon fill="#ffffff" stroke="none" points="711,-470 711,-495 837,-495 837,-470 711,-470"/>
<polygon fill="none" stroke="#2c3e50" points="711,-470 711,-495 837,-495 837,-470 711,-470"/>
<text text-anchor="start" x="716" y="-478.8" font-family="monospace" font-size="14.00" fill="#000000">proowner</text>
<polygon fill="#ffffff" stroke="none" points="837,-470 837,-495 955,-495 955,-470 837,-470"/>
<polygon fill="none" stroke="#2c3e50" points="837,-470 837,-495 955,-495 955,-470 837,-470"/>
<text text-anchor="start" x="842" y="-479.8" font-family="monospace" font-style="italic" font-size="14.00" fill="#95a5a6">oid</text>
<polygon fill="#ffffff" stroke="none" points="711,-445 711,-470 837,-470 837,-445 711,-445"/>
<polygon fill="none" stroke="#2c3e50" points="711,-445 711,-470 837,-470 837,-445 711,-445"/>
<text text-anchor="start" x="716" y="-453.8" font-family="monospace" font-size="14.00" fill="#000000">prolang</text>
<polygon fill="#ffffff" stroke="none" points="837,-445 837,-470 955,-470 955,-445 837,-445"/>
<polygon fill="none" stroke="#2c3e50" points="837,-445 837,-470 955,-470 955,-445 837,-445"/>
<text text-anchor="start" x="842" y="-454.8" font-family="monospace" font-style="italic" font-size="14.00" fill="#95a5a6">oid</text>
<polygon fill="#ffffff" stroke="none" points="711,-420 711,-445 837,-445 837,-420 711,-420"/>
<polygon fill="none" stroke="#2c3e50" points="711,-420 711,-445 837,-445 837,-420 711,-420"/>
<text text-anchor="start" x="716" y="-428.8" font-family="monospace" font-size="14.00" fill="#000000">proisagg</text>
<polygon fill="#ffffff" stroke="none" points="837,-420 837,-445 955,-445 955,-420 837,-420"/>
<polygon fill="none" stroke="#2c3e50" points="837,-420 837,-445 955,-445 955,-420 837,-420"/>
<text text-anchor="start" x="842" y="-429.8" font-family="monospace" font-style="italic" font-size="14.00" fill="#95a5a6">boolean</text>
<polygon fill="#ffffff" stroke="none" points="711,-395 711,-420 837,-420 837,-395 711,-395"/>
<polygon fill="none" stroke="#2c3e50" points="711,-395 711,-420 837,-420 837,-395 711,-395"/>
<text text-anchor="start" x="716" y="-403.8" font-family="monospace" font-size="14.00" fill="#000000">prosecdef</text>
<polygon fill="#ffffff" stroke="none" points="837,-395 837,-420 955,-420 955,-395 837,-395"/>
<polygon fill="none" stroke="#2c3e50" points="837,-395 837,-420 955,-420 955,-395 837,-395"/>
<text text-anchor="start" x="842" y="-404.8" font-family="monospace" font-style="italic" font-size="14.00" fill="#95a5a6">boolean</text>
<polygon fill="#ffffff" stroke="none" points="711,-370 711,-395 837,-395 837,-370 711,-370"/>
<polygon fill="none" stroke="#2c3e50" points="711,-370 711,-395 837,-395 837,-370 711,-370"/>
<text text-anchor="start" x="716" y="-378.8" font-family="monospace" font-size="14.00" fill="#000000">proisstrict</text>
<polygon fill="#ffffff" stroke="none" points="837,-370 837,-395 955,-395 955,-370 837,-370"/>
<polygon fill="none" stroke="#2c3e50" points="837,-370 837,-395 955,-395 955,-370 837,-370"/>
<text text-anchor="start" x="842" y="-379.8" font-family="monospace" font-style="italic" font-size="14.00" fill="#95a5a6">boolean</text>
<polygon fill="#ffffff" stroke="none" points="711,-345 711,-370 837,-370 837,-345 711,-345"/>
<polygon fill="none" stroke="#2c3e50" points="711,-345 711,-370 837,-370 837,-345 711,-345"/>
<text text-anchor="start" x="716" y="-353.8" font-family="monospace" font-size="14.00" fill="#000000">proretset</text>
<polygon fill="#ffffff" stroke="none" points="837,-345 837,-370 955,-370 955,-345 837,-345"/>
<polygon fill="none" stroke="#2c3e50" points="837,-345 837,-370 955,-370 955,-345 837,-345"/>
<text text-anchor="start" x="842" y="-354.8" font-family="monospace" font-style="italic" font-size="14.00" fill="#95a5a6">boolean</text>
<polygon fill="#ffffff" stroke="none" points="711,-320 711,-345 837,-345 837,-320 711,-320"/>
<polygon fill="none" stroke="#2c3e50" points="711,-320 711,-345 837,-345 837,-320 711,-320"/>
<text text-anchor="start" x="716" y="-328.8" font-family="monospace" font-size="14.00" fill="#000000">provolatile</text>
<polygon fill="#ffffff" stroke="none" points="837,-320 837,-345 955,-345 955,-320 837,-320"/>
<polygon fill="none" stroke="#2c3e50" points="837,-320 837,-345 955,-345 955,-320 837,-320"/>
<text text-anchor="start" x="842" y="-329.8" font-family="monospace" font-style="italic" font-size="14.00" fill="#95a5a6">quoted_char</text>
<polygon fill="#ffffff" stroke="none" points="711,-295 711,-320 837,-320 837,-295 711,-295"/>
<polygon fill="none" stroke="#2c3e50" points="711,-295 711,-320 837,-320 837,-295 711,-295"/>
<text text-anchor="start" x="716" y="-303.8" font-family="monospace" font-size="14.00" fill="#000000">pronargs</text>
<polygon fill="#ffffff" stroke="none" points="837,-295 837,-320 955,-320 955,-295 837,-295"/>
<polygon fill="none" stroke="#2c3e50" points="837,-295 837,-320 955,-320 955,-295 837,-295"/>
<text text-anchor="start" x="842" y="-304.8" font-family="monospace" font-style="italic" font-size="14.00" fill="#95a5a6">smallint</text>
<polygon fill="#ffffff" stroke="none" points="711,-270 711,-295 837,-295 837,-270 711,-270"/>
<polygon fill="none" stroke="#2c3e50" points="711,-270 711,-295 837,-295 837,-270 711,-270"/>
<text text-anchor="start" x="716" y="-278.8" font-family="monospace" font-size="14.00" fill="#000000">prorettype</text>
<polygon fill="#ffffff" stroke="none" points="837,-270 837,-295 955,-295 955,-270 837,-270"/>
<polygon fill="none" stroke="#2c3e50" points="837,-270 837,-295 955,-295 955,-270 837,-270"/>
<text text-anchor="start" x="842" y="-279.8" font-family="monospace" font-style="italic" font-size="14.00" fill="#95a5a6">oid</text>
<polygon fill="#ffffff" stroke="none" points="711,-245 711,-270 837,-270 837,-245 711,-245"/>
<polygon fill="none" stroke="#2c3e50" points="711,-245 711,-270 837,-270 837,-245 711,-245"/>
<text text-anchor="start" x="716" y="-253.8" font-family="monospace" font-size="14.00" fill="#000000">proiswin</text>
<polygon fill="#ffffff" stroke="none" points="837,-245 837,-270 955,-270 955,-245 837,-245"/>
<polygon fill="none" stroke="#2c3e50" points="837,-245 837,-270 955,-270 955,-245 837,-245"/>
<text text-anchor="start" x="842" y="-254.8" font-family="monospace" font-style="italic" font-size="14.00" fill="#95a5a6">boolean</text>
<polygon fill="#ffffff" stroke="none" points="711,-220 711,-245 837,-245 837,-220 711,-220"/>
<polygon fill="none" stroke="#2c3e50" points="711,-220 711,-245 837,-245 837,-220 711,-220"/>
<text text-anchor="start" x="716" y="-228.8" font-family="monospace" font-size="14.00" fill="#000000">proargtypes</text>
<polygon fill="#ffffff" stroke="none" points="837,-220 837,-245 955,-245 955,-220 837,-220"/>
<polygon fill="none" stroke="#2c3e50" points="837,-220 837,-245 955,-245 955,-220 837,-220"/>
<text text-anchor="start" x="842" y="-229.8" font-family="monospace" font-style="italic" font-size="14.00" fill="#95a5a6">oidvector</text>
<polygon fill="#ffffff" stroke="none" points="711,-195 711,-220 837,-220 837,-195 711,-195"/>
<polygon fill="none" stroke="#2c3e50" points="711,-195 711,-220 837,-220 837,-195 711,-195"/>
<text text-anchor="start" x="716" y="-203.8" font-family="monospace" font-size="14.00" fill="#000000">proallargtypes</text>
<polygon fill="#ffffff" stroke="none" points="837,-195 837,-220 955,-220 955,-195 837,-195"/>
<polygon fill="none" stroke="#2c3e50" points="837,-195 837,-220 955,-220 955,-195 837,-195"/>
<text text-anchor="start" x="842" y="-204.8" font-family="monospace" font-style="italic" font-size="14.00" fill="#95a5a6">oid[]</text>
<polygon fill="#ffffff" stroke="none" points="711,-170 711,-195 837,-195 837,-170 711,-170"/>
<polygon fill="none" stroke="#2c3e50" points="711,-170 711,-195 837,-195 837,-170 711,-170"/>
<text text-anchor="start" x="716" y="-178.8" font-family="monospace" font-size="14.00" fill="#000000">proargmodes</text>
<polygon fill="#ffffff" stroke="none" points="837,-170 837,-195 955,-195 955,-170 837,-170"/>
<polygon fill="none" stroke="#2c3e50" points="837,-170 837,-195 955,-195 955,-170 837,-170"/>
<text text-anchor="start" x="842" y="-179.8" font-family="monospace" font-style="italic" font-size="14.00" fill="#95a5a6">quoted_char[]</text>
<polygon fill="#ffffff" stroke="none" points="711,-145 711,-170 837,-170 837,-145 711,-145"/>
<polygon fill="none" stroke="#2c3e50" points="711,-145 711,-170 837,-170 837,-145 711,-145"/>
<text text-anchor="start" x="716" y="-153.8" font-family="monospace" font-size="14.00" fill="#000000">proargnames</text>
<polygon fill="#ffffff" stroke="none" points="837,-145 837,-170 955,-170 955,-145 837,-145"/>
<polygon fill="none" stroke="#2c3e50" points="837,-145 837,-170 955,-170 955,-145 837,-145"/>
<text text-anchor="start" x="842" y="-154.8" font-family="monospace" font-style="italic" font-size="14.00" fill="#95a5a6">text[]</text>
<polygon fill="#ffffff" stroke="none" points="711,-120 711,-145 837,-145 837,-120 711,-120"/>
<polygon fill="none" stroke="#2c3e50" points="711,-120 711,-145 837,-145 837,-120 711,-120"/>
<text text-anchor="start" x="716" y="-128.8" font-family="monospace" font-size="14.00" fill="#000000">prosrc</text>
<polygon fill="#ffffff" stroke="none" points="837,-120 837,-145 955,-145 955,-120 837,-120"/>
<polygon fill="none" stroke="#2c3e50" points="837,-120 837,-145 955,-145 955,-120 837,-120"/>
<text text-anchor="start" x="842" y="-129.8" font-family="monospace" font-style="italic" font-size="14.00" fill="#95a5a6">text</text>
<polygon fill="#ffffff" stroke="none" points="711,-95 711,-120 837,-120 837,-95 711,-95"/>
<polygon fill="none" stroke="#2c3e50" points="711,-95 711,-120 837,-120 837,-95 711,-95"/>
<text text-anchor="start" x="716" y="-103.8" font-family="monospace" font-size="14.00" fill="#000000">probin</text>
<polygon fill="#ffffff" stroke="none" points="837,-95 837,-120 955,-120 955,-95 837,-95"/>
<polygon fill="none" stroke="#2c3e50" points="837,-95 837,-120 955,-120 955,-95 837,-95"/>
<text text-anchor="start" x="842" y="-104.8" font-family="monospace" font-style="italic" font-size="14.00" fill="#95a5a6">bytea</text>
<polygon fill="#ffffff" stroke="none" points="711,-70 711,-95 837,-95 837,-70 711,-70"/>
<polygon fill="none" stroke="#2c3e50" points="711,-70 711,-95 837,-95 837,-70 711,-70"/>
<text text-anchor="start" x="716" y="-78.8" font-family="monospace" font-size="14.00" fill="#000000">proacl</text>
<polygon fill="#ffffff" stroke="none" points="837,-70 837,-95 955,-95 955,-70 837,-70"/>
<polygon fill="none" stroke="#2c3e50" points="837,-70 837,-95 955,-95 955,-70 837,-70"/>
<text text-anchor="start" x="842" y="-79.8" font-family="monospace" font-style="italic" font-size="14.00" fill="#95a5a6">aclitem[]</text>
<polygon fill="#ffffff" stroke="none" points="711,-45 711,-70 837,-70 837,-45 711,-45"/>
<polygon fill="none" stroke="#2c3e50" points="711,-45 711,-70 837,-70 837,-45 711,-45"/>
<text text-anchor="start" x="716" y="-53.8" font-family="monospace" font-size="14.00" fill="#000000">prodataaccess</text>
<polygon fill="#ffffff" stroke="none" points="837,-45 837,-70 955,-70 955,-45 837,-45"/>
<polygon fill="none" stroke="#2c3e50" points="837,-45 837,-70 955,-70 955,-45 837,-45"/>
<text text-anchor="start" x="842" y="-54.8" font-family="monospace" font-style="italic" font-size="14.00" fill="#95a5a6">quoted_char</text>
<polygon fill="#ffffff" stroke="none" points="711,-20 711,-45 837,-45 837,-20 711,-20"/>
<polygon fill="none" stroke="#2c3e50" points="711,-20 711,-45 837,-45 837,-20 711,-20"/>
<text text-anchor="start" x="716" y="-28.8" font-family="monospace" font-size="14.00" fill="#000000">provariadic</text>
<polygon fill="#ffffff" stroke="none" points="837,-20 837,-45 955,-45 955,-20 837,-20"/>
<polygon fill="none" stroke="#2c3e50" points="837,-20 837,-45 955,-45 955,-20 837,-20"/>
<text text-anchor="start" x="842" y="-29.8" font-family="monospace" font-style="italic" font-size="14.00" fill="#95a5a6">oid</text>
</g>
<!-- pg_cast&#45;&gt;pg_proc -->
<g id="edge3" class="edge"><title>pg_cast:castfunc_out&#45;&gt;pg_proc:oid_in</title>
<path fill="none" stroke="#2c3e50" d="M373,-1181C635.261,-1181 384.321,-814.901 562,-622 608.181,-571.862 635.573,-559.201 699.809,-558.084"/>
<polygon fill="#2c3e50" stroke="#2c3e50" points="700.029,-561.583 710,-558 699.971,-554.583 700.029,-561.583"/>
</g>
</g>
</svg>
