<?xml version="1.0" encoding="UTF-8" standalone="no"?>
<!DOCTYPE svg PUBLIC "-//W3C//DTD SVG 1.1//EN"
 "http://www.w3.org/Graphics/SVG/1.1/DTD/svg11.dtd">
<!-- Generated by graphviz version 2.38.0 (20140413.2041)
 -->
<!-- Title: GPDB Pages: 1 -->
<svg width="1422pt" height="1390pt"
 viewBox="0.00 0.00 1422.00 1390.00" xmlns="http://www.w3.org/2000/svg" xmlns:xlink="http://www.w3.org/1999/xlink">
<g id="graph0" class="graph" transform="scale(1 1) rotate(0) translate(36 1354)">
<title>GPDB</title>
<polygon fill="white" stroke="none" points="-36,36 -36,-1354 1386,-1354 1386,36 -36,36"/>
<text text-anchor="middle" x="675" y="-1288.4" font-family="Helvetica,sans-Serif" font-size="32.00">Greenplum System Catalog: pg_compression</text>
<g id="clust2" class="cluster"><title>cluster_selected</title>
</g>
<g id="clust3" class="cluster"><title>cluster_to</title>
</g>
<!-- pg_compression -->
<g id="node1" class="node"><title>pg_compression</title>
<polygon fill="#2c3e50" stroke="none" points="227.5,-1182 227.5,-1212 438.5,-1212 438.5,-1182 227.5,-1182"/>
<polygon fill="none" stroke="black" points="227.5,-1182 227.5,-1212 438.5,-1212 438.5,-1182 227.5,-1182"/>
<text text-anchor="start" x="259" y="-1193.6" font-family="monospace" font-weight="bold" font-size="18.00" fill="#ffffff">pg_compression</text>
<polygon fill="#ffffff" stroke="none" points="227.5,-1157 227.5,-1182 370.5,-1182 370.5,-1157 227.5,-1157"/>
<polygon fill="none" stroke="#2c3e50" points="227.5,-1157 227.5,-1182 370.5,-1182 370.5,-1157 227.5,-1157"/>
<text text-anchor="start" x="232.5" y="-1165.8" font-family="monospace" font-size="14.00" fill="#000000">oid</text>
<polygon fill="#ffffff" stroke="none" points="370.5,-1157 370.5,-1182 438.5,-1182 438.5,-1157 370.5,-1157"/>
<polygon fill="none" stroke="#2c3e50" points="370.5,-1157 370.5,-1182 438.5,-1182 438.5,-1157 370.5,-1157"/>
<text text-anchor="start" x="375.5" y="-1166.8" font-family="monospace" font-style="italic" font-size="14.00" fill="#95a5a6">oid</text>
<polygon fill="#ffffff" stroke="none" points="227.5,-1132 227.5,-1157 370.5,-1157 370.5,-1132 227.5,-1132"/>
<polygon fill="none" stroke="#2c3e50" points="227.5,-1132 227.5,-1157 370.5,-1157 370.5,-1132 227.5,-1132"/>
<text text-anchor="start" x="232.5" y="-1140.8" font-family="monospace" font-size="14.00" fill="#000000">compname</text>
<polygon fill="#ffffff" stroke="none" points="370.5,-1132 370.5,-1157 438.5,-1157 438.5,-1132 370.5,-1132"/>
<polygon fill="none" stroke="#2c3e50" points="370.5,-1132 370.5,-1157 438.5,-1157 438.5,-1132 370.5,-1132"/>
<text text-anchor="start" x="375.5" y="-1141.8" font-family="monospace" font-style="italic" font-size="14.00" fill="#95a5a6">name</text>
<polygon fill="#ffffff" stroke="none" points="227.5,-1107 227.5,-1132 370.5,-1132 370.5,-1107 227.5,-1107"/>
<polygon fill="none" stroke="#2c3e50" points="227.5,-1107 227.5,-1132 370.5,-1132 370.5,-1107 227.5,-1107"/>
<text text-anchor="start" x="232.5" y="-1115.8" font-family="monospace" font-size="14.00" fill="#000000">compconstructor</text>
<polygon fill="#18bc9c" stroke="none" points="370.5,-1107 370.5,-1132 438.5,-1132 438.5,-1107 370.5,-1107"/>
<polygon fill="none" stroke="#2c3e50" points="370.5,-1107 370.5,-1132 438.5,-1132 438.5,-1107 370.5,-1107"/>
<text text-anchor="start" x="375.5" y="-1116.8" font-family="monospace" font-style="italic" font-size="14.00" fill="#ffffff">regproc</text>
<polygon fill="#ffffff" stroke="none" points="227.5,-1082 227.5,-1107 370.5,-1107 370.5,-1082 227.5,-1082"/>
<polygon fill="none" stroke="#2c3e50" points="227.5,-1082 227.5,-1107 370.5,-1107 370.5,-1082 227.5,-1082"/>
<text text-anchor="start" x="232.5" y="-1090.8" font-family="monospace" font-size="14.00" fill="#000000">compdestructor</text>
<polygon fill="#18bc9c" stroke="none" points="370.5,-1082 370.5,-1107 438.5,-1107 438.5,-1082 370.5,-1082"/>
<polygon fill="none" stroke="#2c3e50" points="370.5,-1082 370.5,-1107 438.5,-1107 438.5,-1082 370.5,-1082"/>
<text text-anchor="start" x="375.5" y="-1091.8" font-family="monospace" font-style="italic" font-size="14.00" fill="#ffffff">regproc</text>
<polygon fill="#ffffff" stroke="none" points="227.5,-1057 227.5,-1082 370.5,-1082 370.5,-1057 227.5,-1057"/>
<polygon fill="none" stroke="#2c3e50" points="227.5,-1057 227.5,-1082 370.5,-1082 370.5,-1057 227.5,-1057"/>
<text text-anchor="start" x="232.5" y="-1065.8" font-family="monospace" font-size="14.00" fill="#000000">compcompressor</text>
<polygon fill="#18bc9c" stroke="none" points="370.5,-1057 370.5,-1082 438.5,-1082 438.5,-1057 370.5,-1057"/>
<polygon fill="none" stroke="#2c3e50" points="370.5,-1057 370.5,-1082 438.5,-1082 438.5,-1057 370.5,-1057"/>
<text text-anchor="start" x="375.5" y="-1066.8" font-family="monospace" font-style="italic" font-size="14.00" fill="#ffffff">regproc</text>
<polygon fill="#ffffff" stroke="none" points="227.5,-1032 227.5,-1057 370.5,-1057 370.5,-1032 227.5,-1032"/>
<polygon fill="none" stroke="#2c3e50" points="227.5,-1032 227.5,-1057 370.5,-1057 370.5,-1032 227.5,-1032"/>
<text text-anchor="start" x="232.5" y="-1040.8" font-family="monospace" font-size="14.00" fill="#000000">compdecompressor</text>
<polygon fill="#18bc9c" stroke="none" points="370.5,-1032 370.5,-1057 438.5,-1057 438.5,-1032 370.5,-1032"/>
<polygon fill="none" stroke="#2c3e50" points="370.5,-1032 370.5,-1057 438.5,-1057 438.5,-1032 370.5,-1032"/>
<text text-anchor="start" x="375.5" y="-1041.8" font-family="monospace" font-style="italic" font-size="14.00" fill="#ffffff">regproc</text>
<polygon fill="#ffffff" stroke="none" points="227.5,-1007 227.5,-1032 370.5,-1032 370.5,-1007 227.5,-1007"/>
<polygon fill="none" stroke="#2c3e50" points="227.5,-1007 227.5,-1032 370.5,-1032 370.5,-1007 227.5,-1007"/>
<text text-anchor="start" x="232.5" y="-1015.8" font-family="monospace" font-size="14.00" fill="#000000">compvalidator</text>
<polygon fill="#18bc9c" stroke="none" points="370.5,-1007 370.5,-1032 438.5,-1032 438.5,-1007 370.5,-1007"/>
<polygon fill="none" stroke="#2c3e50" points="370.5,-1007 370.5,-1032 438.5,-1032 438.5,-1007 370.5,-1007"/>
<text text-anchor="start" x="375.5" y="-1016.8" font-family="monospace" font-style="italic" font-size="14.00" fill="#ffffff">regproc</text>
<polygon fill="#ffffff" stroke="none" points="227.5,-982 227.5,-1007 370.5,-1007 370.5,-982 227.5,-982"/>
<polygon fill="none" stroke="#2c3e50" points="227.5,-982 227.5,-1007 370.5,-1007 370.5,-982 227.5,-982"/>
<text text-anchor="start" x="232.5" y="-990.8" font-family="monospace" font-size="14.00" fill="#000000">compowner</text>
<polygon fill="#18bc9c" stroke="none" points="370.5,-982 370.5,-1007 438.5,-1007 438.5,-982 370.5,-982"/>
<polygon fill="none" stroke="#2c3e50" points="370.5,-982 370.5,-1007 438.5,-1007 438.5,-982 370.5,-982"/>
<text text-anchor="start" x="375.5" y="-991.8" font-family="monospace" font-style="italic" font-size="14.00" fill="#ffffff">oid</text>
</g>
<!-- pg_authid -->
<g id="node2" class="node"><title>pg_authid</title>
<polygon fill="#2c3e50" stroke="none" points="837,-470 837,-500 1197,-500 1197,-470 837,-470"/>
<polygon fill="none" stroke="black" points="837,-470 837,-500 1197,-500 1197,-470 837,-470"/>
<text text-anchor="start" x="969.5" y="-481.6" font-family="monospace" font-weight="bold" font-size="18.00" fill="#ffffff">pg_authid</text>
<polygon fill="#18bc9c" stroke="none" points="837,-445 837,-470 988,-470 988,-445 837,-445"/>
<polygon fill="none" stroke="#2c3e50" points="837,-445 837,-470 988,-470 988,-445 837,-445"/>
<text text-anchor="start" x="842" y="-453.8" font-family="monospace" font-size="14.00" fill="#ffffff">oid</text>
<polygon fill="#ffffff" stroke="none" points="988,-445 988,-470 1197,-470 1197,-445 988,-445"/>
<polygon fill="none" stroke="#2c3e50" points="988,-445 988,-470 1197,-470 1197,-445 988,-445"/>
<text text-anchor="start" x="993" y="-454.8" font-family="monospace" font-style="italic" font-size="14.00" fill="#95a5a6">oid</text>
<polygon fill="#ffffff" stroke="none" points="837,-420 837,-445 988,-445 988,-420 837,-420"/>
<polygon fill="none" stroke="#2c3e50" points="837,-420 837,-445 988,-445 988,-420 837,-420"/>
<text text-anchor="start" x="842" y="-428.8" font-family="monospace" font-size="14.00" fill="#000000">rolname</text>
<polygon fill="#ffffff" stroke="none" points="988,-420 988,-445 1197,-445 1197,-420 988,-420"/>
<polygon fill="none" stroke="#2c3e50" points="988,-420 988,-445 1197,-445 1197,-420 988,-420"/>
<text text-anchor="start" x="993" y="-429.8" font-family="monospace" font-style="italic" font-size="14.00" fill="#95a5a6">name</text>
<polygon fill="#ffffff" stroke="none" points="837,-395 837,-420 988,-420 988,-395 837,-395"/>
<polygon fill="none" stroke="#2c3e50" points="837,-395 837,-420 988,-420 988,-395 837,-395"/>
<text text-anchor="start" x="842" y="-403.8" font-family="monospace" font-size="14.00" fill="#000000">rolsuper</text>
<polygon fill="#ffffff" stroke="none" points="988,-395 988,-420 1197,-420 1197,-395 988,-395"/>
<polygon fill="none" stroke="#2c3e50" points="988,-395 988,-420 1197,-420 1197,-395 988,-395"/>
<text text-anchor="start" x="993" y="-404.8" font-family="monospace" font-style="italic" font-size="14.00" fill="#95a5a6">boolean</text>
<polygon fill="#ffffff" stroke="none" points="837,-370 837,-395 988,-395 988,-370 837,-370"/>
<polygon fill="none" stroke="#2c3e50" points="837,-370 837,-395 988,-395 988,-370 837,-370"/>
<text text-anchor="start" x="842" y="-378.8" font-family="monospace" font-size="14.00" fill="#000000">rolinherit</text>
<polygon fill="#ffffff" stroke="none" points="988,-370 988,-395 1197,-395 1197,-370 988,-370"/>
<polygon fill="none" stroke="#2c3e50" points="988,-370 988,-395 1197,-395 1197,-370 988,-370"/>
<text text-anchor="start" x="993" y="-379.8" font-family="monospace" font-style="italic" font-size="14.00" fill="#95a5a6">boolean</text>
<polygon fill="#ffffff" stroke="none" points="837,-345 837,-370 988,-370 988,-345 837,-345"/>
<polygon fill="none" stroke="#2c3e50" points="837,-345 837,-370 988,-370 988,-345 837,-345"/>
<text text-anchor="start" x="842" y="-353.8" font-family="monospace" font-size="14.00" fill="#000000">rolcreaterole</text>
<polygon fill="#ffffff" stroke="none" points="988,-345 988,-370 1197,-370 1197,-345 988,-345"/>
<polygon fill="none" stroke="#2c3e50" points="988,-345 988,-370 1197,-370 1197,-345 988,-345"/>
<text text-anchor="start" x="993" y="-354.8" font-family="monospace" font-style="italic" font-size="14.00" fill="#95a5a6">boolean</text>
<polygon fill="#ffffff" stroke="none" points="837,-320 837,-345 988,-345 988,-320 837,-320"/>
<polygon fill="none" stroke="#2c3e50" points="837,-320 837,-345 988,-345 988,-320 837,-320"/>
<text text-anchor="start" x="842" y="-328.8" font-family="monospace" font-size="14.00" fill="#000000">rolcreatedb</text>
<polygon fill="#ffffff" stroke="none" points="988,-320 988,-345 1197,-345 1197,-320 988,-320"/>
<polygon fill="none" stroke="#2c3e50" points="988,-320 988,-345 1197,-345 1197,-320 988,-320"/>
<text text-anchor="start" x="993" y="-329.8" font-family="monospace" font-style="italic" font-size="14.00" fill="#95a5a6">boolean</text>
<polygon fill="#ffffff" stroke="none" points="837,-295 837,-320 988,-320 988,-295 837,-295"/>
<polygon fill="none" stroke="#2c3e50" points="837,-295 837,-320 988,-320 988,-295 837,-295"/>
<text text-anchor="start" x="842" y="-303.8" font-family="monospace" font-size="14.00" fill="#000000">rolcatupdate</text>
<polygon fill="#ffffff" stroke="none" points="988,-295 988,-320 1197,-320 1197,-295 988,-295"/>
<polygon fill="none" stroke="#2c3e50" points="988,-295 988,-320 1197,-320 1197,-295 988,-295"/>
<text text-anchor="start" x="993" y="-304.8" font-family="monospace" font-style="italic" font-size="14.00" fill="#95a5a6">boolean</text>
<polygon fill="#ffffff" stroke="none" points="837,-270 837,-295 988,-295 988,-270 837,-270"/>
<polygon fill="none" stroke="#2c3e50" points="837,-270 837,-295 988,-295 988,-270 837,-270"/>
<text text-anchor="start" x="842" y="-278.8" font-family="monospace" font-size="14.00" fill="#000000">rolcanlogin</text>
<polygon fill="#ffffff" stroke="none" points="988,-270 988,-295 1197,-295 1197,-270 988,-270"/>
<polygon fill="none" stroke="#2c3e50" points="988,-270 988,-295 1197,-295 1197,-270 988,-270"/>
<text text-anchor="start" x="993" y="-279.8" font-family="monospace" font-style="italic" font-size="14.00" fill="#95a5a6">boolean</text>
<polygon fill="#ffffff" stroke="none" points="837,-245 837,-270 988,-270 988,-245 837,-245"/>
<polygon fill="none" stroke="#2c3e50" points="837,-245 837,-270 988,-270 988,-245 837,-245"/>
<text text-anchor="start" x="842" y="-253.8" font-family="monospace" font-size="14.00" fill="#000000">rolconnlimit</text>
<polygon fill="#ffffff" stroke="none" points="988,-245 988,-270 1197,-270 1197,-245 988,-245"/>
<polygon fill="none" stroke="#2c3e50" points="988,-245 988,-270 1197,-270 1197,-245 988,-245"/>
<text text-anchor="start" x="993" y="-254.8" font-family="monospace" font-style="italic" font-size="14.00" fill="#95a5a6">integer</text>
<polygon fill="#ffffff" stroke="none" points="837,-220 837,-245 988,-245 988,-220 837,-220"/>
<polygon fill="none" stroke="#2c3e50" points="837,-220 837,-245 988,-245 988,-220 837,-220"/>
<text text-anchor="start" x="842" y="-228.8" font-family="monospace" font-size="14.00" fill="#000000">rolpassword</text>
<polygon fill="#ffffff" stroke="none" points="988,-220 988,-245 1197,-245 1197,-220 988,-220"/>
<polygon fill="none" stroke="#2c3e50" points="988,-220 988,-245 1197,-245 1197,-220 988,-220"/>
<text text-anchor="start" x="993" y="-229.8" font-family="monospace" font-style="italic" font-size="14.00" fill="#95a5a6">text</text>
<polygon fill="#ffffff" stroke="none" points="837,-195 837,-220 988,-220 988,-195 837,-195"/>
<polygon fill="none" stroke="#2c3e50" points="837,-195 837,-220 988,-220 988,-195 837,-195"/>
<text text-anchor="start" x="842" y="-203.8" font-family="monospace" font-size="14.00" fill="#000000">rolvaliduntil</text>
<polygon fill="#ffffff" stroke="none" points="988,-195 988,-220 1197,-220 1197,-195 988,-195"/>
<polygon fill="none" stroke="#2c3e50" points="988,-195 988,-220 1197,-220 1197,-195 988,-195"/>
<text text-anchor="start" x="993" y="-204.8" font-family="monospace" font-style="italic" font-size="14.00" fill="#95a5a6">timestamp_with_time_zone</text>
<polygon fill="#ffffff" stroke="none" points="837,-170 837,-195 988,-195 988,-170 837,-170"/>
<polygon fill="none" stroke="#2c3e50" points="837,-170 837,-195 988,-195 988,-170 837,-170"/>
<text text-anchor="start" x="842" y="-178.8" font-family="monospace" font-size="14.00" fill="#000000">rolconfig</text>
<polygon fill="#ffffff" stroke="none" points="988,-170 988,-195 1197,-195 1197,-170 988,-170"/>
<polygon fill="none" stroke="#2c3e50" points="988,-170 988,-195 1197,-195 1197,-170 988,-170"/>
<text text-anchor="start" x="993" y="-179.8" font-family="monospace" font-style="italic" font-size="14.00" fill="#95a5a6">text[]</text>
<polygon fill="#ffffff" stroke="none" points="837,-145 837,-170 988,-170 988,-145 837,-145"/>
<polygon fill="none" stroke="#2c3e50" points="837,-145 837,-170 988,-170 988,-145 837,-145"/>
<text text-anchor="start" x="842" y="-153.8" font-family="monospace" font-size="14.00" fill="#000000">rolresqueue</text>
<polygon fill="#ffffff" stroke="none" points="988,-145 988,-170 1197,-170 1197,-145 988,-145"/>
<polygon fill="none" stroke="#2c3e50" points="988,-145 988,-170 1197,-170 1197,-145 988,-145"/>
<text text-anchor="start" x="993" y="-154.8" font-family="monospace" font-style="italic" font-size="14.00" fill="#95a5a6">oid</text>
<polygon fill="#ffffff" stroke="none" points="837,-120 837,-145 988,-145 988,-120 837,-120"/>
<polygon fill="none" stroke="#2c3e50" points="837,-120 837,-145 988,-145 988,-120 837,-120"/>
<text text-anchor="start" x="842" y="-128.8" font-family="monospace" font-size="14.00" fill="#000000">rolcreaterextgpfd</text>
<polygon fill="#ffffff" stroke="none" points="988,-120 988,-145 1197,-145 1197,-120 988,-120"/>
<polygon fill="none" stroke="#2c3e50" points="988,-120 988,-145 1197,-145 1197,-120 988,-120"/>
<text text-anchor="start" x="993" y="-129.8" font-family="monospace" font-style="italic" font-size="14.00" fill="#95a5a6">boolean</text>
<polygon fill="#ffffff" stroke="none" points="837,-95 837,-120 988,-120 988,-95 837,-95"/>
<polygon fill="none" stroke="#2c3e50" points="837,-95 837,-120 988,-120 988,-95 837,-95"/>
<text text-anchor="start" x="842" y="-103.8" font-family="monospace" font-size="14.00" fill="#000000">rolcreaterexthttp</text>
<polygon fill="#ffffff" stroke="none" points="988,-95 988,-120 1197,-120 1197,-95 988,-95"/>
<polygon fill="none" stroke="#2c3e50" points="988,-95 988,-120 1197,-120 1197,-95 988,-95"/>
<text text-anchor="start" x="993" y="-104.8" font-family="monospace" font-style="italic" font-size="14.00" fill="#95a5a6">boolean</text>
<polygon fill="#ffffff" stroke="none" points="837,-70 837,-95 988,-95 988,-70 837,-70"/>
<polygon fill="none" stroke="#2c3e50" points="837,-70 837,-95 988,-95 988,-70 837,-70"/>
<text text-anchor="start" x="842" y="-78.8" font-family="monospace" font-size="14.00" fill="#000000">rolcreatewextgpfd</text>
<polygon fill="#ffffff" stroke="none" points="988,-70 988,-95 1197,-95 1197,-70 988,-70"/>
<polygon fill="none" stroke="#2c3e50" points="988,-70 988,-95 1197,-95 1197,-70 988,-70"/>
<text text-anchor="start" x="993" y="-79.8" font-family="monospace" font-style="italic" font-size="14.00" fill="#95a5a6">boolean</text>
<polygon fill="#ffffff" stroke="none" points="837,-45 837,-70 988,-70 988,-45 837,-45"/>
<polygon fill="none" stroke="#2c3e50" points="837,-45 837,-70 988,-70 988,-45 837,-45"/>
<text text-anchor="start" x="842" y="-53.8" font-family="monospace" font-size="14.00" fill="#000000">rolcreaterexthdfs</text>
<polygon fill="#ffffff" stroke="none" points="988,-45 988,-70 1197,-70 1197,-45 988,-45"/>
<polygon fill="none" stroke="#2c3e50" points="988,-45 988,-70 1197,-70 1197,-45 988,-45"/>
<text text-anchor="start" x="993" y="-54.8" font-family="monospace" font-style="italic" font-size="14.00" fill="#95a5a6">boolean</text>
<polygon fill="#ffffff" stroke="none" points="837,-20 837,-45 988,-45 988,-20 837,-20"/>
<polygon fill="none" stroke="#2c3e50" points="837,-20 837,-45 988,-45 988,-20 837,-20"/>
<text text-anchor="start" x="842" y="-28.8" font-family="monospace" font-size="14.00" fill="#000000">rolcreatewexthdfs</text>
<polygon fill="#ffffff" stroke="none" points="988,-20 988,-45 1197,-45 1197,-20 988,-20"/>
<polygon fill="none" stroke="#2c3e50" points="988,-20 988,-45 1197,-45 1197,-20 988,-20"/>
<text text-anchor="start" x="993" y="-29.8" font-family="monospace" font-style="italic" font-size="14.00" fill="#95a5a6">boolean</text>
</g>
<!-- pg_compression&#45;&gt;pg_authid -->
<g id="edge6" class="edge"><title>pg_compression:compowner_out&#45;&gt;pg_authid:oid_in</title>
<path fill="none" stroke="#2c3e50" d="M439.5,-994C675.957,-994 511.349,-682.491 685,-522 735.916,-474.943 760.64,-459.502 825.659,-458.106"/>
<polygon fill="#2c3e50" stroke="#2c3e50" points="826.037,-461.603 836,-458 825.965,-454.603 826.037,-461.603"/>
</g>
<!-- pg_proc -->
<g id="node3" class="node"><title>pg_proc</title>
<polygon fill="#2c3e50" stroke="none" points="895,-1094 895,-1124 1139,-1124 1139,-1094 895,-1094"/>
<polygon fill="none" stroke="black" points="895,-1094 895,-1124 1139,-1124 1139,-1094 895,-1094"/>
<text text-anchor="start" x="980" y="-1105.6" font-family="monospace" font-weight="bold" font-size="18.00" fill="#ffffff">pg_proc</text>
<polygon fill="#18bc9c" stroke="none" points="895,-1069 895,-1094 1021,-1094 1021,-1069 895,-1069"/>
<polygon fill="none" stroke="#2c3e50" points="895,-1069 895,-1094 1021,-1094 1021,-1069 895,-1069"/>
<text text-anchor="start" x="900" y="-1077.8" font-family="monospace" font-size="14.00" fill="#ffffff">oid</text>
<polygon fill="#ffffff" stroke="none" points="1021,-1069 1021,-1094 1139,-1094 1139,-1069 1021,-1069"/>
<polygon fill="none" stroke="#2c3e50" points="1021,-1069 1021,-1094 1139,-1094 1139,-1069 1021,-1069"/>
<text text-anchor="start" x="1026" y="-1078.8" font-family="monospace" font-style="italic" font-size="14.00" fill="#95a5a6">oid</text>
<polygon fill="#ffffff" stroke="none" points="895,-1044 895,-1069 1021,-1069 1021,-1044 895,-1044"/>
<polygon fill="none" stroke="#2c3e50" points="895,-1044 895,-1069 1021,-1069 1021,-1044 895,-1044"/>
<text text-anchor="start" x="900" y="-1052.8" font-family="monospace" font-size="14.00" fill="#000000">proname</text>
<polygon fill="#ffffff" stroke="none" points="1021,-1044 1021,-1069 1139,-1069 1139,-1044 1021,-1044"/>
<polygon fill="none" stroke="#2c3e50" points="1021,-1044 1021,-1069 1139,-1069 1139,-1044 1021,-1044"/>
<text text-anchor="start" x="1026" y="-1053.8" font-family="monospace" font-style="italic" font-size="14.00" fill="#95a5a6">name</text>
<polygon fill="#ffffff" stroke="none" points="895,-1019 895,-1044 1021,-1044 1021,-1019 895,-1019"/>
<polygon fill="none" stroke="#2c3e50" points="895,-1019 895,-1044 1021,-1044 1021,-1019 895,-1019"/>
<text text-anchor="start" x="900" y="-1027.8" font-family="monospace" font-size="14.00" fill="#000000">pronamespace</text>
<polygon fill="#ffffff" stroke="none" points="1021,-1019 1021,-1044 1139,-1044 1139,-1019 1021,-1019"/>
<polygon fill="none" stroke="#2c3e50" points="1021,-1019 1021,-1044 1139,-1044 1139,-1019 1021,-1019"/>
<text text-anchor="start" x="1026" y="-1028.8" font-family="monospace" font-style="italic" font-size="14.00" fill="#95a5a6">oid</text>
<polygon fill="#ffffff" stroke="none" points="895,-994 895,-1019 1021,-1019 1021,-994 895,-994"/>
<polygon fill="none" stroke="#2c3e50" points="895,-994 895,-1019 1021,-1019 1021,-994 895,-994"/>
<text text-anchor="start" x="900" y="-1002.8" font-family="monospace" font-size="14.00" fill="#000000">proowner</text>
<polygon fill="#ffffff" stroke="none" points="1021,-994 1021,-1019 1139,-1019 1139,-994 1021,-994"/>
<polygon fill="none" stroke="#2c3e50" points="1021,-994 1021,-1019 1139,-1019 1139,-994 1021,-994"/>
<text text-anchor="start" x="1026" y="-1003.8" font-family="monospace" font-style="italic" font-size="14.00" fill="#95a5a6">oid</text>
<polygon fill="#ffffff" stroke="none" points="895,-969 895,-994 1021,-994 1021,-969 895,-969"/>
<polygon fill="none" stroke="#2c3e50" points="895,-969 895,-994 1021,-994 1021,-969 895,-969"/>
<text text-anchor="start" x="900" y="-977.8" font-family="monospace" font-size="14.00" fill="#000000">prolang</text>
<polygon fill="#ffffff" stroke="none" points="1021,-969 1021,-994 1139,-994 1139,-969 1021,-969"/>
<polygon fill="none" stroke="#2c3e50" points="1021,-969 1021,-994 1139,-994 1139,-969 1021,-969"/>
<text text-anchor="start" x="1026" y="-978.8" font-family="monospace" font-style="italic" font-size="14.00" fill="#95a5a6">oid</text>
<polygon fill="#ffffff" stroke="none" points="895,-944 895,-969 1021,-969 1021,-944 895,-944"/>
<polygon fill="none" stroke="#2c3e50" points="895,-944 895,-969 1021,-969 1021,-944 895,-944"/>
<text text-anchor="start" x="900" y="-952.8" font-family="monospace" font-size="14.00" fill="#000000">proisagg</text>
<polygon fill="#ffffff" stroke="none" points="1021,-944 1021,-969 1139,-969 1139,-944 1021,-944"/>
<polygon fill="none" stroke="#2c3e50" points="1021,-944 1021,-969 1139,-969 1139,-944 1021,-944"/>
<text text-anchor="start" x="1026" y="-953.8" font-family="monospace" font-style="italic" font-size="14.00" fill="#95a5a6">boolean</text>
<polygon fill="#ffffff" stroke="none" points="895,-919 895,-944 1021,-944 1021,-919 895,-919"/>
<polygon fill="none" stroke="#2c3e50" points="895,-919 895,-944 1021,-944 1021,-919 895,-919"/>
<text text-anchor="start" x="900" y="-927.8" font-family="monospace" font-size="14.00" fill="#000000">prosecdef</text>
<polygon fill="#ffffff" stroke="none" points="1021,-919 1021,-944 1139,-944 1139,-919 1021,-919"/>
<polygon fill="none" stroke="#2c3e50" points="1021,-919 1021,-944 1139,-944 1139,-919 1021,-919"/>
<text text-anchor="start" x="1026" y="-928.8" font-family="monospace" font-style="italic" font-size="14.00" fill="#95a5a6">boolean</text>
<polygon fill="#ffffff" stroke="none" points="895,-894 895,-919 1021,-919 1021,-894 895,-894"/>
<polygon fill="none" stroke="#2c3e50" points="895,-894 895,-919 1021,-919 1021,-894 895,-894"/>
<text text-anchor="start" x="900" y="-902.8" font-family="monospace" font-size="14.00" fill="#000000">proisstrict</text>
<polygon fill="#ffffff" stroke="none" points="1021,-894 1021,-919 1139,-919 1139,-894 1021,-894"/>
<polygon fill="none" stroke="#2c3e50" points="1021,-894 1021,-919 1139,-919 1139,-894 1021,-894"/>
<text text-anchor="start" x="1026" y="-903.8" font-family="monospace" font-style="italic" font-size="14.00" fill="#95a5a6">boolean</text>
<polygon fill="#ffffff" stroke="none" points="895,-869 895,-894 1021,-894 1021,-869 895,-869"/>
<polygon fill="none" stroke="#2c3e50" points="895,-869 895,-894 1021,-894 1021,-869 895,-869"/>
<text text-anchor="start" x="900" y="-877.8" font-family="monospace" font-size="14.00" fill="#000000">proretset</text>
<polygon fill="#ffffff" stroke="none" points="1021,-869 1021,-894 1139,-894 1139,-869 1021,-869"/>
<polygon fill="none" stroke="#2c3e50" points="1021,-869 1021,-894 1139,-894 1139,-869 1021,-869"/>
<text text-anchor="start" x="1026" y="-878.8" font-family="monospace" font-style="italic" font-size="14.00" fill="#95a5a6">boolean</text>
<polygon fill="#ffffff" stroke="none" points="895,-844 895,-869 1021,-869 1021,-844 895,-844"/>
<polygon fill="none" stroke="#2c3e50" points="895,-844 895,-869 1021,-869 1021,-844 895,-844"/>
<text text-anchor="start" x="900" y="-852.8" font-family="monospace" font-size="14.00" fill="#000000">provolatile</text>
<polygon fill="#ffffff" stroke="none" points="1021,-844 1021,-869 1139,-869 1139,-844 1021,-844"/>
<polygon fill="none" stroke="#2c3e50" points="1021,-844 1021,-869 1139,-869 1139,-844 1021,-844"/>
<text text-anchor="start" x="1026" y="-853.8" font-family="monospace" font-style="italic" font-size="14.00" fill="#95a5a6">quoted_char</text>
<polygon fill="#ffffff" stroke="none" points="895,-819 895,-844 1021,-844 1021,-819 895,-819"/>
<polygon fill="none" stroke="#2c3e50" points="895,-819 895,-844 1021,-844 1021,-819 895,-819"/>
<text text-anchor="start" x="900" y="-827.8" font-family="monospace" font-size="14.00" fill="#000000">pronargs</text>
<polygon fill="#ffffff" stroke="none" points="1021,-819 1021,-844 1139,-844 1139,-819 1021,-819"/>
<polygon fill="none" stroke="#2c3e50" points="1021,-819 1021,-844 1139,-844 1139,-819 1021,-819"/>
<text text-anchor="start" x="1026" y="-828.8" font-family="monospace" font-style="italic" font-size="14.00" fill="#95a5a6">smallint</text>
<polygon fill="#ffffff" stroke="none" points="895,-794 895,-819 1021,-819 1021,-794 895,-794"/>
<polygon fill="none" stroke="#2c3e50" points="895,-794 895,-819 1021,-819 1021,-794 895,-794"/>
<text text-anchor="start" x="900" y="-802.8" font-family="monospace" font-size="14.00" fill="#000000">prorettype</text>
<polygon fill="#ffffff" stroke="none" points="1021,-794 1021,-819 1139,-819 1139,-794 1021,-794"/>
<polygon fill="none" stroke="#2c3e50" points="1021,-794 1021,-819 1139,-819 1139,-794 1021,-794"/>
<text text-anchor="start" x="1026" y="-803.8" font-family="monospace" font-style="italic" font-size="14.00" fill="#95a5a6">oid</text>
<polygon fill="#ffffff" stroke="none" points="895,-769 895,-794 1021,-794 1021,-769 895,-769"/>
<polygon fill="none" stroke="#2c3e50" points="895,-769 895,-794 1021,-794 1021,-769 895,-769"/>
<text text-anchor="start" x="900" y="-777.8" font-family="monospace" font-size="14.00" fill="#000000">proiswin</text>
<polygon fill="#ffffff" stroke="none" points="1021,-769 1021,-794 1139,-794 1139,-769 1021,-769"/>
<polygon fill="none" stroke="#2c3e50" points="1021,-769 1021,-794 1139,-794 1139,-769 1021,-769"/>
<text text-anchor="start" x="1026" y="-778.8" font-family="monospace" font-style="italic" font-size="14.00" fill="#95a5a6">boolean</text>
<polygon fill="#ffffff" stroke="none" points="895,-744 895,-769 1021,-769 1021,-744 895,-744"/>
<polygon fill="none" stroke="#2c3e50" points="895,-744 895,-769 1021,-769 1021,-744 895,-744"/>
<text text-anchor="start" x="900" y="-752.8" font-family="monospace" font-size="14.00" fill="#000000">proargtypes</text>
<polygon fill="#ffffff" stroke="none" points="1021,-744 1021,-769 1139,-769 1139,-744 1021,-744"/>
<polygon fill="none" stroke="#2c3e50" points="1021,-744 1021,-769 1139,-769 1139,-744 1021,-744"/>
<text text-anchor="start" x="1026" y="-753.8" font-family="monospace" font-style="italic" font-size="14.00" fill="#95a5a6">oidvector</text>
<polygon fill="#ffffff" stroke="none" points="895,-719 895,-744 1021,-744 1021,-719 895,-719"/>
<polygon fill="none" stroke="#2c3e50" points="895,-719 895,-744 1021,-744 1021,-719 895,-719"/>
<text text-anchor="start" x="900" y="-727.8" font-family="monospace" font-size="14.00" fill="#000000">proallargtypes</text>
<polygon fill="#ffffff" stroke="none" points="1021,-719 1021,-744 1139,-744 1139,-719 1021,-719"/>
<polygon fill="none" stroke="#2c3e50" points="1021,-719 1021,-744 1139,-744 1139,-719 1021,-719"/>
<text text-anchor="start" x="1026" y="-728.8" font-family="monospace" font-style="italic" font-size="14.00" fill="#95a5a6">oid[]</text>
<polygon fill="#ffffff" stroke="none" points="895,-694 895,-719 1021,-719 1021,-694 895,-694"/>
<polygon fill="none" stroke="#2c3e50" points="895,-694 895,-719 1021,-719 1021,-694 895,-694"/>
<text text-anchor="start" x="900" y="-702.8" font-family="monospace" font-size="14.00" fill="#000000">proargmodes</text>
<polygon fill="#ffffff" stroke="none" points="1021,-694 1021,-719 1139,-719 1139,-694 1021,-694"/>
<polygon fill="none" stroke="#2c3e50" points="1021,-694 1021,-719 1139,-719 1139,-694 1021,-694"/>
<text text-anchor="start" x="1026" y="-703.8" font-family="monospace" font-style="italic" font-size="14.00" fill="#95a5a6">quoted_char[]</text>
<polygon fill="#ffffff" stroke="none" points="895,-669 895,-694 1021,-694 1021,-669 895,-669"/>
<polygon fill="none" stroke="#2c3e50" points="895,-669 895,-694 1021,-694 1021,-669 895,-669"/>
<text text-anchor="start" x="900" y="-677.8" font-family="monospace" font-size="14.00" fill="#000000">proargnames</text>
<polygon fill="#ffffff" stroke="none" points="1021,-669 1021,-694 1139,-694 1139,-669 1021,-669"/>
<polygon fill="none" stroke="#2c3e50" points="1021,-669 1021,-694 1139,-694 1139,-669 1021,-669"/>
<text text-anchor="start" x="1026" y="-678.8" font-family="monospace" font-style="italic" font-size="14.00" fill="#95a5a6">text[]</text>
<polygon fill="#ffffff" stroke="none" points="895,-644 895,-669 1021,-669 1021,-644 895,-644"/>
<polygon fill="none" stroke="#2c3e50" points="895,-644 895,-669 1021,-669 1021,-644 895,-644"/>
<text text-anchor="start" x="900" y="-652.8" font-family="monospace" font-size="14.00" fill="#000000">prosrc</text>
<polygon fill="#ffffff" stroke="none" points="1021,-644 1021,-669 1139,-669 1139,-644 1021,-644"/>
<polygon fill="none" stroke="#2c3e50" points="1021,-644 1021,-669 1139,-669 1139,-644 1021,-644"/>
<text text-anchor="start" x="1026" y="-653.8" font-family="monospace" font-style="italic" font-size="14.00" fill="#95a5a6">text</text>
<polygon fill="#ffffff" stroke="none" points="895,-619 895,-644 1021,-644 1021,-619 895,-619"/>
<polygon fill="none" stroke="#2c3e50" points="895,-619 895,-644 1021,-644 1021,-619 895,-619"/>
<text text-anchor="start" x="900" y="-627.8" font-family="monospace" font-size="14.00" fill="#000000">probin</text>
<polygon fill="#ffffff" stroke="none" points="1021,-619 1021,-644 1139,-644 1139,-619 1021,-619"/>
<polygon fill="none" stroke="#2c3e50" points="1021,-619 1021,-644 1139,-644 1139,-619 1021,-619"/>
<text text-anchor="start" x="1026" y="-628.8" font-family="monospace" font-style="italic" font-size="14.00" fill="#95a5a6">bytea</text>
<polygon fill="#ffffff" stroke="none" points="895,-594 895,-619 1021,-619 1021,-594 895,-594"/>
<polygon fill="none" stroke="#2c3e50" points="895,-594 895,-619 1021,-619 1021,-594 895,-594"/>
<text text-anchor="start" x="900" y="-602.8" font-family="monospace" font-size="14.00" fill="#000000">proacl</text>
<polygon fill="#ffffff" stroke="none" points="1021,-594 1021,-619 1139,-619 1139,-594 1021,-594"/>
<polygon fill="none" stroke="#2c3e50" points="1021,-594 1021,-619 1139,-619 1139,-594 1021,-594"/>
<text text-anchor="start" x="1026" y="-603.8" font-family="monospace" font-style="italic" font-size="14.00" fill="#95a5a6">aclitem[]</text>
<polygon fill="#ffffff" stroke="none" points="895,-569 895,-594 1021,-594 1021,-569 895,-569"/>
<polygon fill="none" stroke="#2c3e50" points="895,-569 895,-594 1021,-594 1021,-569 895,-569"/>
<text text-anchor="start" x="900" y="-577.8" font-family="monospace" font-size="14.00" fill="#000000">prodataaccess</text>
<polygon fill="#ffffff" stroke="none" points="1021,-569 1021,-594 1139,-594 1139,-569 1021,-569"/>
<polygon fill="none" stroke="#2c3e50" points="1021,-569 1021,-594 1139,-594 1139,-569 1021,-569"/>
<text text-anchor="start" x="1026" y="-578.8" font-family="monospace" font-style="italic" font-size="14.00" fill="#95a5a6">quoted_char</text>
<polygon fill="#ffffff" stroke="none" points="895,-544 895,-569 1021,-569 1021,-544 895,-544"/>
<polygon fill="none" stroke="#2c3e50" points="895,-544 895,-569 1021,-569 1021,-544 895,-544"/>
<text text-anchor="start" x="900" y="-552.8" font-family="monospace" font-size="14.00" fill="#000000">provariadic</text>
<polygon fill="#ffffff" stroke="none" points="1021,-544 1021,-569 1139,-569 1139,-544 1021,-544"/>
<polygon fill="none" stroke="#2c3e50" points="1021,-544 1021,-569 1139,-569 1139,-544 1021,-544"/>
<text text-anchor="start" x="1026" y="-553.8" font-family="monospace" font-style="italic" font-size="14.00" fill="#95a5a6">oid</text>
</g>
<!-- pg_compression&#45;&gt;pg_proc -->
<g id="edge1" class="edge"><title>pg_compression:compconstructor_out&#45;&gt;pg_proc:oid_in</title>
<path fill="none" stroke="#2c3e50" d="M439.5,-1120C638.741,-1120 689.572,-1083.29 883.74,-1082.03"/>
<polygon fill="#2c3e50" stroke="#2c3e50" points="884.011,-1085.53 894,-1082 883.989,-1078.53 884.011,-1085.53"/>
</g>
<!-- pg_compression&#45;&gt;pg_proc -->
<g id="edge2" class="edge"><title>pg_compression:compdestructor_out&#45;&gt;pg_proc:oid_in</title>
<path fill="none" stroke="#2c3e50" d="M439.5,-1094C638.117,-1094 690.164,-1082.41 883.771,-1082.01"/>
<polygon fill="#2c3e50" stroke="#2c3e50" points="884.004,-1085.51 894,-1082 883.996,-1078.51 884.004,-1085.51"/>
</g>
<!-- pg_compression&#45;&gt;pg_proc -->
<g id="edge3" class="edge"><title>pg_compression:compcompressor_out&#45;&gt;pg_proc:oid_in</title>
<path fill="none" stroke="#2c3e50" d="M439.5,-1069C638.129,-1069 690.153,-1081.56 883.771,-1081.99"/>
<polygon fill="#2c3e50" stroke="#2c3e50" points="883.996,-1085.49 894,-1082 884.004,-1078.49 883.996,-1085.49"/>
</g>
<!-- pg_compression&#45;&gt;pg_proc -->
<g id="edge4" class="edge"><title>pg_compression:compdecompressor_out&#45;&gt;pg_proc:oid_in</title>
<path fill="none" stroke="#2c3e50" d="M439.5,-1044C638.741,-1044 689.572,-1080.71 883.74,-1081.97"/>
<polygon fill="#2c3e50" stroke="#2c3e50" points="883.989,-1085.47 894,-1082 884.011,-1078.47 883.989,-1085.47"/>
</g>
<!-- pg_compression&#45;&gt;pg_proc -->
<g id="edge5" class="edge"><title>pg_compression:compvalidator_out&#45;&gt;pg_proc:oid_in</title>
<path fill="none" stroke="#2c3e50" d="M439.5,-1019C640.046,-1019 688.477,-1079.93 883.972,-1081.95"/>
<polygon fill="#2c3e50" stroke="#2c3e50" points="883.982,-1085.45 894,-1082 884.018,-1078.45 883.982,-1085.45"/>
</g>
</g>
</svg>
