<?xml version="1.0" encoding="UTF-8" standalone="no"?>
<!DOCTYPE svg PUBLIC "-//W3C//DTD SVG 1.1//EN"
 "http://www.w3.org/Graphics/SVG/1.1/DTD/svg11.dtd">
<!-- Generated by graphviz version 2.38.0 (20140413.2041)
 -->
<!-- Title: GPDB Pages: 1 -->
<svg width="1368pt" height="1476pt"
 viewBox="0.00 0.00 1368.00 1476.00" xmlns="http://www.w3.org/2000/svg" xmlns:xlink="http://www.w3.org/1999/xlink">
<g id="graph0" class="graph" transform="scale(1 1) rotate(0) translate(36 1440)">
<title>GPDB</title>
<polygon fill="white" stroke="none" points="-36,36 -36,-1440 1332,-1440 1332,36 -36,36"/>
<text text-anchor="middle" x="648" y="-1374.4" font-family="Helvetica,sans-Serif" font-size="32.00">Greenplum System Catalog: pg_conversion</text>
<g id="clust2" class="cluster"><title>cluster_selected</title>
</g>
<g id="clust3" class="cluster"><title>cluster_to</title>
</g>
<!-- pg_conversion -->
<g id="node1" class="node"><title>pg_conversion</title>
<g id="a_node1"><a xlink:href="pg_conversion.svg" xlink:title="&lt;TABLE&gt;">
<polygon fill="#2c3e50" stroke="none" points="222,-1170 222,-1200 416,-1200 416,-1170 222,-1170"/>
<polygon fill="none" stroke="black" points="222,-1170 222,-1200 416,-1200 416,-1170 222,-1170"/>
<text text-anchor="start" x="250.5" y="-1181.6" font-family="monospace" font-weight="bold" font-size="18.00" fill="#ffffff">pg_conversion</text>
<polygon fill="#ffffff" stroke="none" points="222,-1145 222,-1170 348,-1170 348,-1145 222,-1145"/>
<polygon fill="none" stroke="#2c3e50" points="222,-1145 222,-1170 348,-1170 348,-1145 222,-1145"/>
<text text-anchor="start" x="227" y="-1153.8" font-family="monospace" font-size="14.00" fill="#000000">oid</text>
<polygon fill="#ffffff" stroke="none" points="348,-1145 348,-1170 416,-1170 416,-1145 348,-1145"/>
<polygon fill="none" stroke="#2c3e50" points="348,-1145 348,-1170 416,-1170 416,-1145 348,-1145"/>
<text text-anchor="start" x="353" y="-1154.8" font-family="monospace" font-style="italic" font-size="14.00" fill="#95a5a6">oid</text>
<polygon fill="#ffffff" stroke="none" points="222,-1120 222,-1145 348,-1145 348,-1120 222,-1120"/>
<polygon fill="none" stroke="#2c3e50" points="222,-1120 222,-1145 348,-1145 348,-1120 222,-1120"/>
<text text-anchor="start" x="227" y="-1128.8" font-family="monospace" font-size="14.00" fill="#000000">conname</text>
<polygon fill="#ffffff" stroke="none" points="348,-1120 348,-1145 416,-1145 416,-1120 348,-1120"/>
<polygon fill="none" stroke="#2c3e50" points="348,-1120 348,-1145 416,-1145 416,-1120 348,-1120"/>
<text text-anchor="start" x="353" y="-1129.8" font-family="monospace" font-style="italic" font-size="14.00" fill="#95a5a6">name</text>
<polygon fill="#ffffff" stroke="none" points="222,-1095 222,-1120 348,-1120 348,-1095 222,-1095"/>
<polygon fill="none" stroke="#2c3e50" points="222,-1095 222,-1120 348,-1120 348,-1095 222,-1095"/>
<text text-anchor="start" x="227" y="-1103.8" font-family="monospace" font-size="14.00" fill="#000000">connamespace</text>
<polygon fill="#18bc9c" stroke="none" points="348,-1095 348,-1120 416,-1120 416,-1095 348,-1095"/>
<polygon fill="none" stroke="#2c3e50" points="348,-1095 348,-1120 416,-1120 416,-1095 348,-1095"/>
<text text-anchor="start" x="353" y="-1104.8" font-family="monospace" font-style="italic" font-size="14.00" fill="#ffffff">oid</text>
<polygon fill="#ffffff" stroke="none" points="222,-1070 222,-1095 348,-1095 348,-1070 222,-1070"/>
<polygon fill="none" stroke="#2c3e50" points="222,-1070 222,-1095 348,-1095 348,-1070 222,-1070"/>
<text text-anchor="start" x="227" y="-1078.8" font-family="monospace" font-size="14.00" fill="#000000">conowner</text>
<polygon fill="#18bc9c" stroke="none" points="348,-1070 348,-1095 416,-1095 416,-1070 348,-1070"/>
<polygon fill="none" stroke="#2c3e50" points="348,-1070 348,-1095 416,-1095 416,-1070 348,-1070"/>
<text text-anchor="start" x="353" y="-1079.8" font-family="monospace" font-style="italic" font-size="14.00" fill="#ffffff">oid</text>
<polygon fill="#ffffff" stroke="none" points="222,-1045 222,-1070 348,-1070 348,-1045 222,-1045"/>
<polygon fill="none" stroke="#2c3e50" points="222,-1045 222,-1070 348,-1070 348,-1045 222,-1045"/>
<text text-anchor="start" x="227" y="-1053.8" font-family="monospace" font-size="14.00" fill="#000000">conforencoding</text>
<polygon fill="#ffffff" stroke="none" points="348,-1045 348,-1070 416,-1070 416,-1045 348,-1045"/>
<polygon fill="none" stroke="#2c3e50" points="348,-1045 348,-1070 416,-1070 416,-1045 348,-1045"/>
<text text-anchor="start" x="353" y="-1054.8" font-family="monospace" font-style="italic" font-size="14.00" fill="#95a5a6">integer</text>
<polygon fill="#ffffff" stroke="none" points="222,-1020 222,-1045 348,-1045 348,-1020 222,-1020"/>
<polygon fill="none" stroke="#2c3e50" points="222,-1020 222,-1045 348,-1045 348,-1020 222,-1020"/>
<text text-anchor="start" x="227" y="-1028.8" font-family="monospace" font-size="14.00" fill="#000000">contoencoding</text>
<polygon fill="#ffffff" stroke="none" points="348,-1020 348,-1045 416,-1045 416,-1020 348,-1020"/>
<polygon fill="none" stroke="#2c3e50" points="348,-1020 348,-1045 416,-1045 416,-1020 348,-1020"/>
<text text-anchor="start" x="353" y="-1029.8" font-family="monospace" font-style="italic" font-size="14.00" fill="#95a5a6">integer</text>
<polygon fill="#ffffff" stroke="none" points="222,-995 222,-1020 348,-1020 348,-995 222,-995"/>
<polygon fill="none" stroke="#2c3e50" points="222,-995 222,-1020 348,-1020 348,-995 222,-995"/>
<text text-anchor="start" x="227" y="-1003.8" font-family="monospace" font-size="14.00" fill="#000000">conproc</text>
<polygon fill="#18bc9c" stroke="none" points="348,-995 348,-1020 416,-1020 416,-995 348,-995"/>
<polygon fill="none" stroke="#2c3e50" points="348,-995 348,-1020 416,-1020 416,-995 348,-995"/>
<text text-anchor="start" x="353" y="-1004.8" font-family="monospace" font-style="italic" font-size="14.00" fill="#ffffff">regproc</text>
<polygon fill="#ffffff" stroke="none" points="222,-970 222,-995 348,-995 348,-970 222,-970"/>
<polygon fill="none" stroke="#2c3e50" points="222,-970 222,-995 348,-995 348,-970 222,-970"/>
<text text-anchor="start" x="227" y="-978.8" font-family="monospace" font-size="14.00" fill="#000000">condefault</text>
<polygon fill="#ffffff" stroke="none" points="348,-970 348,-995 416,-995 416,-970 348,-970"/>
<polygon fill="none" stroke="#2c3e50" points="348,-970 348,-995 416,-995 416,-970 348,-970"/>
<text text-anchor="start" x="353" y="-979.8" font-family="monospace" font-style="italic" font-size="14.00" fill="#95a5a6">boolean</text>
</a>
</g>
</g>
<!-- pg_proc -->
<g id="node2" class="node"><title>pg_proc</title>
<g id="a_node2"><a xlink:href="pg_proc.svg" xlink:title="&lt;TABLE&gt;">
<polygon fill="#2c3e50" stroke="none" points="855,-570 855,-600 1099,-600 1099,-570 855,-570"/>
<polygon fill="none" stroke="black" points="855,-570 855,-600 1099,-600 1099,-570 855,-570"/>
<text text-anchor="start" x="940" y="-581.6" font-family="monospace" font-weight="bold" font-size="18.00" fill="#ffffff">pg_proc</text>
<polygon fill="#18bc9c" stroke="none" points="855,-545 855,-570 981,-570 981,-545 855,-545"/>
<polygon fill="none" stroke="#2c3e50" points="855,-545 855,-570 981,-570 981,-545 855,-545"/>
<text text-anchor="start" x="860" y="-553.8" font-family="monospace" font-size="14.00" fill="#ffffff">oid</text>
<polygon fill="#ffffff" stroke="none" points="981,-545 981,-570 1099,-570 1099,-545 981,-545"/>
<polygon fill="none" stroke="#2c3e50" points="981,-545 981,-570 1099,-570 1099,-545 981,-545"/>
<text text-anchor="start" x="986" y="-554.8" font-family="monospace" font-style="italic" font-size="14.00" fill="#95a5a6">oid</text>
<polygon fill="#ffffff" stroke="none" points="855,-520 855,-545 981,-545 981,-520 855,-520"/>
<polygon fill="none" stroke="#2c3e50" points="855,-520 855,-545 981,-545 981,-520 855,-520"/>
<text text-anchor="start" x="860" y="-528.8" font-family="monospace" font-size="14.00" fill="#000000">proname</text>
<polygon fill="#ffffff" stroke="none" points="981,-520 981,-545 1099,-545 1099,-520 981,-520"/>
<polygon fill="none" stroke="#2c3e50" points="981,-520 981,-545 1099,-545 1099,-520 981,-520"/>
<text text-anchor="start" x="986" y="-529.8" font-family="monospace" font-style="italic" font-size="14.00" fill="#95a5a6">name</text>
<polygon fill="#ffffff" stroke="none" points="855,-495 855,-520 981,-520 981,-495 855,-495"/>
<polygon fill="none" stroke="#2c3e50" points="855,-495 855,-520 981,-520 981,-495 855,-495"/>
<text text-anchor="start" x="860" y="-503.8" font-family="monospace" font-size="14.00" fill="#000000">pronamespace</text>
<polygon fill="#ffffff" stroke="none" points="981,-495 981,-520 1099,-520 1099,-495 981,-495"/>
<polygon fill="none" stroke="#2c3e50" points="981,-495 981,-520 1099,-520 1099,-495 981,-495"/>
<text text-anchor="start" x="986" y="-504.8" font-family="monospace" font-style="italic" font-size="14.00" fill="#95a5a6">oid</text>
<polygon fill="#ffffff" stroke="none" points="855,-470 855,-495 981,-495 981,-470 855,-470"/>
<polygon fill="none" stroke="#2c3e50" points="855,-470 855,-495 981,-495 981,-470 855,-470"/>
<text text-anchor="start" x="860" y="-478.8" font-family="monospace" font-size="14.00" fill="#000000">proowner</text>
<polygon fill="#ffffff" stroke="none" points="981,-470 981,-495 1099,-495 1099,-470 981,-470"/>
<polygon fill="none" stroke="#2c3e50" points="981,-470 981,-495 1099,-495 1099,-470 981,-470"/>
<text text-anchor="start" x="986" y="-479.8" font-family="monospace" font-style="italic" font-size="14.00" fill="#95a5a6">oid</text>
<polygon fill="#ffffff" stroke="none" points="855,-445 855,-470 981,-470 981,-445 855,-445"/>
<polygon fill="none" stroke="#2c3e50" points="855,-445 855,-470 981,-470 981,-445 855,-445"/>
<text text-anchor="start" x="860" y="-453.8" font-family="monospace" font-size="14.00" fill="#000000">prolang</text>
<polygon fill="#ffffff" stroke="none" points="981,-445 981,-470 1099,-470 1099,-445 981,-445"/>
<polygon fill="none" stroke="#2c3e50" points="981,-445 981,-470 1099,-470 1099,-445 981,-445"/>
<text text-anchor="start" x="986" y="-454.8" font-family="monospace" font-style="italic" font-size="14.00" fill="#95a5a6">oid</text>
<polygon fill="#ffffff" stroke="none" points="855,-420 855,-445 981,-445 981,-420 855,-420"/>
<polygon fill="none" stroke="#2c3e50" points="855,-420 855,-445 981,-445 981,-420 855,-420"/>
<text text-anchor="start" x="860" y="-428.8" font-family="monospace" font-size="14.00" fill="#000000">proisagg</text>
<polygon fill="#ffffff" stroke="none" points="981,-420 981,-445 1099,-445 1099,-420 981,-420"/>
<polygon fill="none" stroke="#2c3e50" points="981,-420 981,-445 1099,-445 1099,-420 981,-420"/>
<text text-anchor="start" x="986" y="-429.8" font-family="monospace" font-style="italic" font-size="14.00" fill="#95a5a6">boolean</text>
<polygon fill="#ffffff" stroke="none" points="855,-395 855,-420 981,-420 981,-395 855,-395"/>
<polygon fill="none" stroke="#2c3e50" points="855,-395 855,-420 981,-420 981,-395 855,-395"/>
<text text-anchor="start" x="860" y="-403.8" font-family="monospace" font-size="14.00" fill="#000000">prosecdef</text>
<polygon fill="#ffffff" stroke="none" points="981,-395 981,-420 1099,-420 1099,-395 981,-395"/>
<polygon fill="none" stroke="#2c3e50" points="981,-395 981,-420 1099,-420 1099,-395 981,-395"/>
<text text-anchor="start" x="986" y="-404.8" font-family="monospace" font-style="italic" font-size="14.00" fill="#95a5a6">boolean</text>
<polygon fill="#ffffff" stroke="none" points="855,-370 855,-395 981,-395 981,-370 855,-370"/>
<polygon fill="none" stroke="#2c3e50" points="855,-370 855,-395 981,-395 981,-370 855,-370"/>
<text text-anchor="start" x="860" y="-378.8" font-family="monospace" font-size="14.00" fill="#000000">proisstrict</text>
<polygon fill="#ffffff" stroke="none" points="981,-370 981,-395 1099,-395 1099,-370 981,-370"/>
<polygon fill="none" stroke="#2c3e50" points="981,-370 981,-395 1099,-395 1099,-370 981,-370"/>
<text text-anchor="start" x="986" y="-379.8" font-family="monospace" font-style="italic" font-size="14.00" fill="#95a5a6">boolean</text>
<polygon fill="#ffffff" stroke="none" points="855,-345 855,-370 981,-370 981,-345 855,-345"/>
<polygon fill="none" stroke="#2c3e50" points="855,-345 855,-370 981,-370 981,-345 855,-345"/>
<text text-anchor="start" x="860" y="-353.8" font-family="monospace" font-size="14.00" fill="#000000">proretset</text>
<polygon fill="#ffffff" stroke="none" points="981,-345 981,-370 1099,-370 1099,-345 981,-345"/>
<polygon fill="none" stroke="#2c3e50" points="981,-345 981,-370 1099,-370 1099,-345 981,-345"/>
<text text-anchor="start" x="986" y="-354.8" font-family="monospace" font-style="italic" font-size="14.00" fill="#95a5a6">boolean</text>
<polygon fill="#ffffff" stroke="none" points="855,-320 855,-345 981,-345 981,-320 855,-320"/>
<polygon fill="none" stroke="#2c3e50" points="855,-320 855,-345 981,-345 981,-320 855,-320"/>
<text text-anchor="start" x="860" y="-328.8" font-family="monospace" font-size="14.00" fill="#000000">provolatile</text>
<polygon fill="#ffffff" stroke="none" points="981,-320 981,-345 1099,-345 1099,-320 981,-320"/>
<polygon fill="none" stroke="#2c3e50" points="981,-320 981,-345 1099,-345 1099,-320 981,-320"/>
<text text-anchor="start" x="986" y="-329.8" font-family="monospace" font-style="italic" font-size="14.00" fill="#95a5a6">quoted_char</text>
<polygon fill="#ffffff" stroke="none" points="855,-295 855,-320 981,-320 981,-295 855,-295"/>
<polygon fill="none" stroke="#2c3e50" points="855,-295 855,-320 981,-320 981,-295 855,-295"/>
<text text-anchor="start" x="860" y="-303.8" font-family="monospace" font-size="14.00" fill="#000000">pronargs</text>
<polygon fill="#ffffff" stroke="none" points="981,-295 981,-320 1099,-320 1099,-295 981,-295"/>
<polygon fill="none" stroke="#2c3e50" points="981,-295 981,-320 1099,-320 1099,-295 981,-295"/>
<text text-anchor="start" x="986" y="-304.8" font-family="monospace" font-style="italic" font-size="14.00" fill="#95a5a6">smallint</text>
<polygon fill="#ffffff" stroke="none" points="855,-270 855,-295 981,-295 981,-270 855,-270"/>
<polygon fill="none" stroke="#2c3e50" points="855,-270 855,-295 981,-295 981,-270 855,-270"/>
<text text-anchor="start" x="860" y="-278.8" font-family="monospace" font-size="14.00" fill="#000000">prorettype</text>
<polygon fill="#ffffff" stroke="none" points="981,-270 981,-295 1099,-295 1099,-270 981,-270"/>
<polygon fill="none" stroke="#2c3e50" points="981,-270 981,-295 1099,-295 1099,-270 981,-270"/>
<text text-anchor="start" x="986" y="-279.8" font-family="monospace" font-style="italic" font-size="14.00" fill="#95a5a6">oid</text>
<polygon fill="#ffffff" stroke="none" points="855,-245 855,-270 981,-270 981,-245 855,-245"/>
<polygon fill="none" stroke="#2c3e50" points="855,-245 855,-270 981,-270 981,-245 855,-245"/>
<text text-anchor="start" x="860" y="-253.8" font-family="monospace" font-size="14.00" fill="#000000">proiswin</text>
<polygon fill="#ffffff" stroke="none" points="981,-245 981,-270 1099,-270 1099,-245 981,-245"/>
<polygon fill="none" stroke="#2c3e50" points="981,-245 981,-270 1099,-270 1099,-245 981,-245"/>
<text text-anchor="start" x="986" y="-254.8" font-family="monospace" font-style="italic" font-size="14.00" fill="#95a5a6">boolean</text>
<polygon fill="#ffffff" stroke="none" points="855,-220 855,-245 981,-245 981,-220 855,-220"/>
<polygon fill="none" stroke="#2c3e50" points="855,-220 855,-245 981,-245 981,-220 855,-220"/>
<text text-anchor="start" x="860" y="-228.8" font-family="monospace" font-size="14.00" fill="#000000">proargtypes</text>
<polygon fill="#ffffff" stroke="none" points="981,-220 981,-245 1099,-245 1099,-220 981,-220"/>
<polygon fill="none" stroke="#2c3e50" points="981,-220 981,-245 1099,-245 1099,-220 981,-220"/>
<text text-anchor="start" x="986" y="-229.8" font-family="monospace" font-style="italic" font-size="14.00" fill="#95a5a6">oidvector</text>
<polygon fill="#ffffff" stroke="none" points="855,-195 855,-220 981,-220 981,-195 855,-195"/>
<polygon fill="none" stroke="#2c3e50" points="855,-195 855,-220 981,-220 981,-195 855,-195"/>
<text text-anchor="start" x="860" y="-203.8" font-family="monospace" font-size="14.00" fill="#000000">proallargtypes</text>
<polygon fill="#ffffff" stroke="none" points="981,-195 981,-220 1099,-220 1099,-195 981,-195"/>
<polygon fill="none" stroke="#2c3e50" points="981,-195 981,-220 1099,-220 1099,-195 981,-195"/>
<text text-anchor="start" x="986" y="-204.8" font-family="monospace" font-style="italic" font-size="14.00" fill="#95a5a6">oid[]</text>
<polygon fill="#ffffff" stroke="none" points="855,-170 855,-195 981,-195 981,-170 855,-170"/>
<polygon fill="none" stroke="#2c3e50" points="855,-170 855,-195 981,-195 981,-170 855,-170"/>
<text text-anchor="start" x="860" y="-178.8" font-family="monospace" font-size="14.00" fill="#000000">proargmodes</text>
<polygon fill="#ffffff" stroke="none" points="981,-170 981,-195 1099,-195 1099,-170 981,-170"/>
<polygon fill="none" stroke="#2c3e50" points="981,-170 981,-195 1099,-195 1099,-170 981,-170"/>
<text text-anchor="start" x="986" y="-179.8" font-family="monospace" font-style="italic" font-size="14.00" fill="#95a5a6">quoted_char[]</text>
<polygon fill="#ffffff" stroke="none" points="855,-145 855,-170 981,-170 981,-145 855,-145"/>
<polygon fill="none" stroke="#2c3e50" points="855,-145 855,-170 981,-170 981,-145 855,-145"/>
<text text-anchor="start" x="860" y="-153.8" font-family="monospace" font-size="14.00" fill="#000000">proargnames</text>
<polygon fill="#ffffff" stroke="none" points="981,-145 981,-170 1099,-170 1099,-145 981,-145"/>
<polygon fill="none" stroke="#2c3e50" points="981,-145 981,-170 1099,-170 1099,-145 981,-145"/>
<text text-anchor="start" x="986" y="-154.8" font-family="monospace" font-style="italic" font-size="14.00" fill="#95a5a6">text[]</text>
<polygon fill="#ffffff" stroke="none" points="855,-120 855,-145 981,-145 981,-120 855,-120"/>
<polygon fill="none" stroke="#2c3e50" points="855,-120 855,-145 981,-145 981,-120 855,-120"/>
<text text-anchor="start" x="860" y="-128.8" font-family="monospace" font-size="14.00" fill="#000000">prosrc</text>
<polygon fill="#ffffff" stroke="none" points="981,-120 981,-145 1099,-145 1099,-120 981,-120"/>
<polygon fill="none" stroke="#2c3e50" points="981,-120 981,-145 1099,-145 1099,-120 981,-120"/>
<text text-anchor="start" x="986" y="-129.8" font-family="monospace" font-style="italic" font-size="14.00" fill="#95a5a6">text</text>
<polygon fill="#ffffff" stroke="none" points="855,-95 855,-120 981,-120 981,-95 855,-95"/>
<polygon fill="none" stroke="#2c3e50" points="855,-95 855,-120 981,-120 981,-95 855,-95"/>
<text text-anchor="start" x="860" y="-103.8" font-family="monospace" font-size="14.00" fill="#000000">probin</text>
<polygon fill="#ffffff" stroke="none" points="981,-95 981,-120 1099,-120 1099,-95 981,-95"/>
<polygon fill="none" stroke="#2c3e50" points="981,-95 981,-120 1099,-120 1099,-95 981,-95"/>
<text text-anchor="start" x="986" y="-104.8" font-family="monospace" font-style="italic" font-size="14.00" fill="#95a5a6">bytea</text>
<polygon fill="#ffffff" stroke="none" points="855,-70 855,-95 981,-95 981,-70 855,-70"/>
<polygon fill="none" stroke="#2c3e50" points="855,-70 855,-95 981,-95 981,-70 855,-70"/>
<text text-anchor="start" x="860" y="-78.8" font-family="monospace" font-size="14.00" fill="#000000">proacl</text>
<polygon fill="#ffffff" stroke="none" points="981,-70 981,-95 1099,-95 1099,-70 981,-70"/>
<polygon fill="none" stroke="#2c3e50" points="981,-70 981,-95 1099,-95 1099,-70 981,-70"/>
<text text-anchor="start" x="986" y="-79.8" font-family="monospace" font-style="italic" font-size="14.00" fill="#95a5a6">aclitem[]</text>
<polygon fill="#ffffff" stroke="none" points="855,-45 855,-70 981,-70 981,-45 855,-45"/>
<polygon fill="none" stroke="#2c3e50" points="855,-45 855,-70 981,-70 981,-45 855,-45"/>
<text text-anchor="start" x="860" y="-53.8" font-family="monospace" font-size="14.00" fill="#000000">prodataaccess</text>
<polygon fill="#ffffff" stroke="none" points="981,-45 981,-70 1099,-70 1099,-45 981,-45"/>
<polygon fill="none" stroke="#2c3e50" points="981,-45 981,-70 1099,-70 1099,-45 981,-45"/>
<text text-anchor="start" x="986" y="-54.8" font-family="monospace" font-style="italic" font-size="14.00" fill="#95a5a6">quoted_char</text>
<polygon fill="#ffffff" stroke="none" points="855,-20 855,-45 981,-45 981,-20 855,-20"/>
<polygon fill="none" stroke="#2c3e50" points="855,-20 855,-45 981,-45 981,-20 855,-20"/>
<text text-anchor="start" x="860" y="-28.8" font-family="monospace" font-size="14.00" fill="#000000">provariadic</text>
<polygon fill="#ffffff" stroke="none" points="981,-20 981,-45 1099,-45 1099,-20 981,-20"/>
<polygon fill="none" stroke="#2c3e50" points="981,-20 981,-45 1099,-45 1099,-20 981,-20"/>
<text text-anchor="start" x="986" y="-29.8" font-family="monospace" font-style="italic" font-size="14.00" fill="#95a5a6">oid</text>
</a>
</g>
</g>
<!-- pg_conversion&#45;&gt;pg_proc -->
<g id="edge3" class="edge"><title>pg_conversion:conproc_out&#45;&gt;pg_proc:oid_in</title>
<path fill="none" stroke="#2c3e50" d="M417,-1007C618.871,-1007 498.965,-746.337 658,-622 727.443,-567.708 759.854,-558.647 843.783,-558.035"/>
<polygon fill="#2c3e50" stroke="#2c3e50" points="844.012,-561.535 854,-558 843.988,-554.535 844.012,-561.535"/>
</g>
<!-- pg_namespace -->
<g id="node3" class="node"><title>pg_namespace</title>
<g id="a_node3"><a xlink:href="pg_namespace.svg" xlink:title="&lt;TABLE&gt;">
<polygon fill="#2c3e50" stroke="none" points="896,-1268 896,-1298 1058,-1298 1058,-1268 896,-1268"/>
<polygon fill="none" stroke="black" points="896,-1268 896,-1298 1058,-1298 1058,-1268 896,-1268"/>
<text text-anchor="start" x="913.5" y="-1279.6" font-family="monospace" font-weight="bold" font-size="18.00" fill="#ffffff">pg_namespace</text>
<polygon fill="#18bc9c" stroke="none" points="896,-1243 896,-1268 973,-1268 973,-1243 896,-1243"/>
<polygon fill="none" stroke="#2c3e50" points="896,-1243 896,-1268 973,-1268 973,-1243 896,-1243"/>
<text text-anchor="start" x="901" y="-1251.8" font-family="monospace" font-size="14.00" fill="#ffffff">oid</text>
<polygon fill="#ffffff" stroke="none" points="973,-1243 973,-1268 1058,-1268 1058,-1243 973,-1243"/>
<polygon fill="none" stroke="#2c3e50" points="973,-1243 973,-1268 1058,-1268 1058,-1243 973,-1243"/>
<text text-anchor="start" x="978" y="-1252.8" font-family="monospace" font-style="italic" font-size="14.00" fill="#95a5a6">oid</text>
<polygon fill="#ffffff" stroke="none" points="896,-1218 896,-1243 973,-1243 973,-1218 896,-1218"/>
<polygon fill="none" stroke="#2c3e50" points="896,-1218 896,-1243 973,-1243 973,-1218 896,-1218"/>
<text text-anchor="start" x="901" y="-1226.8" font-family="monospace" font-size="14.00" fill="#000000">nspname</text>
<polygon fill="#ffffff" stroke="none" points="973,-1218 973,-1243 1058,-1243 1058,-1218 973,-1218"/>
<polygon fill="none" stroke="#2c3e50" points="973,-1218 973,-1243 1058,-1243 1058,-1218 973,-1218"/>
<text text-anchor="start" x="978" y="-1227.8" font-family="monospace" font-style="italic" font-size="14.00" fill="#95a5a6">name</text>
<polygon fill="#ffffff" stroke="none" points="896,-1193 896,-1218 973,-1218 973,-1193 896,-1193"/>
<polygon fill="none" stroke="#2c3e50" points="896,-1193 896,-1218 973,-1218 973,-1193 896,-1193"/>
<text text-anchor="start" x="901" y="-1201.8" font-family="monospace" font-size="14.00" fill="#000000">nspowner</text>
<polygon fill="#ffffff" stroke="none" points="973,-1193 973,-1218 1058,-1218 1058,-1193 973,-1193"/>
<polygon fill="none" stroke="#2c3e50" points="973,-1193 973,-1218 1058,-1218 1058,-1193 973,-1193"/>
<text text-anchor="start" x="978" y="-1202.8" font-family="monospace" font-style="italic" font-size="14.00" fill="#95a5a6">oid</text>
<polygon fill="#ffffff" stroke="none" points="896,-1168 896,-1193 973,-1193 973,-1168 896,-1168"/>
<polygon fill="none" stroke="#2c3e50" points="896,-1168 896,-1193 973,-1193 973,-1168 896,-1168"/>
<text text-anchor="start" x="901" y="-1176.8" font-family="monospace" font-size="14.00" fill="#000000">nspacl</text>
<polygon fill="#ffffff" stroke="none" points="973,-1168 973,-1193 1058,-1193 1058,-1168 973,-1168"/>
<polygon fill="none" stroke="#2c3e50" points="973,-1168 973,-1193 1058,-1193 1058,-1168 973,-1168"/>
<text text-anchor="start" x="978" y="-1177.8" font-family="monospace" font-style="italic" font-size="14.00" fill="#95a5a6">aclitem[]</text>
</a>
</g>
</g>
<!-- pg_conversion&#45;&gt;pg_namespace -->
<g id="edge1" class="edge"><title>pg_conversion:connamespace_out&#45;&gt;pg_namespace:oid_in</title>
<path fill="none" stroke="#2c3e50" d="M417,-1108C635.92,-1108 671.521,-1251.41 884.712,-1255.89"/>
<polygon fill="#2c3e50" stroke="#2c3e50" points="884.964,-1259.4 895,-1256 885.037,-1252.4 884.964,-1259.4"/>
</g>
<!-- pg_authid -->
<g id="node4" class="node"><title>pg_authid</title>
<g id="a_node4"><a xlink:href="pg_authid.svg" xlink:title="&lt;TABLE&gt;">
<polygon fill="#2c3e50" stroke="none" points="797,-1094 797,-1124 1157,-1124 1157,-1094 797,-1094"/>
<polygon fill="none" stroke="black" points="797,-1094 797,-1124 1157,-1124 1157,-1094 797,-1094"/>
<text text-anchor="start" x="929.5" y="-1105.6" font-family="monospace" font-weight="bold" font-size="18.00" fill="#ffffff">pg_authid</text>
<polygon fill="#18bc9c" stroke="none" points="797,-1069 797,-1094 948,-1094 948,-1069 797,-1069"/>
<polygon fill="none" stroke="#2c3e50" points="797,-1069 797,-1094 948,-1094 948,-1069 797,-1069"/>
<text text-anchor="start" x="802" y="-1077.8" font-family="monospace" font-size="14.00" fill="#ffffff">oid</text>
<polygon fill="#ffffff" stroke="none" points="948,-1069 948,-1094 1157,-1094 1157,-1069 948,-1069"/>
<polygon fill="none" stroke="#2c3e50" points="948,-1069 948,-1094 1157,-1094 1157,-1069 948,-1069"/>
<text text-anchor="start" x="953" y="-1078.8" font-family="monospace" font-style="italic" font-size="14.00" fill="#95a5a6">oid</text>
<polygon fill="#ffffff" stroke="none" points="797,-1044 797,-1069 948,-1069 948,-1044 797,-1044"/>
<polygon fill="none" stroke="#2c3e50" points="797,-1044 797,-1069 948,-1069 948,-1044 797,-1044"/>
<text text-anchor="start" x="802" y="-1052.8" font-family="monospace" font-size="14.00" fill="#000000">rolname</text>
<polygon fill="#ffffff" stroke="none" points="948,-1044 948,-1069 1157,-1069 1157,-1044 948,-1044"/>
<polygon fill="none" stroke="#2c3e50" points="948,-1044 948,-1069 1157,-1069 1157,-1044 948,-1044"/>
<text text-anchor="start" x="953" y="-1053.8" font-family="monospace" font-style="italic" font-size="14.00" fill="#95a5a6">name</text>
<polygon fill="#ffffff" stroke="none" points="797,-1019 797,-1044 948,-1044 948,-1019 797,-1019"/>
<polygon fill="none" stroke="#2c3e50" points="797,-1019 797,-1044 948,-1044 948,-1019 797,-1019"/>
<text text-anchor="start" x="802" y="-1027.8" font-family="monospace" font-size="14.00" fill="#000000">rolsuper</text>
<polygon fill="#ffffff" stroke="none" points="948,-1019 948,-1044 1157,-1044 1157,-1019 948,-1019"/>
<polygon fill="none" stroke="#2c3e50" points="948,-1019 948,-1044 1157,-1044 1157,-1019 948,-1019"/>
<text text-anchor="start" x="953" y="-1028.8" font-family="monospace" font-style="italic" font-size="14.00" fill="#95a5a6">boolean</text>
<polygon fill="#ffffff" stroke="none" points="797,-994 797,-1019 948,-1019 948,-994 797,-994"/>
<polygon fill="none" stroke="#2c3e50" points="797,-994 797,-1019 948,-1019 948,-994 797,-994"/>
<text text-anchor="start" x="802" y="-1002.8" font-family="monospace" font-size="14.00" fill="#000000">rolinherit</text>
<polygon fill="#ffffff" stroke="none" points="948,-994 948,-1019 1157,-1019 1157,-994 948,-994"/>
<polygon fill="none" stroke="#2c3e50" points="948,-994 948,-1019 1157,-1019 1157,-994 948,-994"/>
<text text-anchor="start" x="953" y="-1003.8" font-family="monospace" font-style="italic" font-size="14.00" fill="#95a5a6">boolean</text>
<polygon fill="#ffffff" stroke="none" points="797,-969 797,-994 948,-994 948,-969 797,-969"/>
<polygon fill="none" stroke="#2c3e50" points="797,-969 797,-994 948,-994 948,-969 797,-969"/>
<text text-anchor="start" x="802" y="-977.8" font-family="monospace" font-size="14.00" fill="#000000">rolcreaterole</text>
<polygon fill="#ffffff" stroke="none" points="948,-969 948,-994 1157,-994 1157,-969 948,-969"/>
<polygon fill="none" stroke="#2c3e50" points="948,-969 948,-994 1157,-994 1157,-969 948,-969"/>
<text text-anchor="start" x="953" y="-978.8" font-family="monospace" font-style="italic" font-size="14.00" fill="#95a5a6">boolean</text>
<polygon fill="#ffffff" stroke="none" points="797,-944 797,-969 948,-969 948,-944 797,-944"/>
<polygon fill="none" stroke="#2c3e50" points="797,-944 797,-969 948,-969 948,-944 797,-944"/>
<text text-anchor="start" x="802" y="-952.8" font-family="monospace" font-size="14.00" fill="#000000">rolcreatedb</text>
<polygon fill="#ffffff" stroke="none" points="948,-944 948,-969 1157,-969 1157,-944 948,-944"/>
<polygon fill="none" stroke="#2c3e50" points="948,-944 948,-969 1157,-969 1157,-944 948,-944"/>
<text text-anchor="start" x="953" y="-953.8" font-family="monospace" font-style="italic" font-size="14.00" fill="#95a5a6">boolean</text>
<polygon fill="#ffffff" stroke="none" points="797,-919 797,-944 948,-944 948,-919 797,-919"/>
<polygon fill="none" stroke="#2c3e50" points="797,-919 797,-944 948,-944 948,-919 797,-919"/>
<text text-anchor="start" x="802" y="-927.8" font-family="monospace" font-size="14.00" fill="#000000">rolcatupdate</text>
<polygon fill="#ffffff" stroke="none" points="948,-919 948,-944 1157,-944 1157,-919 948,-919"/>
<polygon fill="none" stroke="#2c3e50" points="948,-919 948,-944 1157,-944 1157,-919 948,-919"/>
<text text-anchor="start" x="953" y="-928.8" font-family="monospace" font-style="italic" font-size="14.00" fill="#95a5a6">boolean</text>
<polygon fill="#ffffff" stroke="none" points="797,-894 797,-919 948,-919 948,-894 797,-894"/>
<polygon fill="none" stroke="#2c3e50" points="797,-894 797,-919 948,-919 948,-894 797,-894"/>
<text text-anchor="start" x="802" y="-902.8" font-family="monospace" font-size="14.00" fill="#000000">rolcanlogin</text>
<polygon fill="#ffffff" stroke="none" points="948,-894 948,-919 1157,-919 1157,-894 948,-894"/>
<polygon fill="none" stroke="#2c3e50" points="948,-894 948,-919 1157,-919 1157,-894 948,-894"/>
<text text-anchor="start" x="953" y="-903.8" font-family="monospace" font-style="italic" font-size="14.00" fill="#95a5a6">boolean</text>
<polygon fill="#ffffff" stroke="none" points="797,-869 797,-894 948,-894 948,-869 797,-869"/>
<polygon fill="none" stroke="#2c3e50" points="797,-869 797,-894 948,-894 948,-869 797,-869"/>
<text text-anchor="start" x="802" y="-877.8" font-family="monospace" font-size="14.00" fill="#000000">rolconnlimit</text>
<polygon fill="#ffffff" stroke="none" points="948,-869 948,-894 1157,-894 1157,-869 948,-869"/>
<polygon fill="none" stroke="#2c3e50" points="948,-869 948,-894 1157,-894 1157,-869 948,-869"/>
<text text-anchor="start" x="953" y="-878.8" font-family="monospace" font-style="italic" font-size="14.00" fill="#95a5a6">integer</text>
<polygon fill="#ffffff" stroke="none" points="797,-844 797,-869 948,-869 948,-844 797,-844"/>
<polygon fill="none" stroke="#2c3e50" points="797,-844 797,-869 948,-869 948,-844 797,-844"/>
<text text-anchor="start" x="802" y="-852.8" font-family="monospace" font-size="14.00" fill="#000000">rolpassword</text>
<polygon fill="#ffffff" stroke="none" points="948,-844 948,-869 1157,-869 1157,-844 948,-844"/>
<polygon fill="none" stroke="#2c3e50" points="948,-844 948,-869 1157,-869 1157,-844 948,-844"/>
<text text-anchor="start" x="953" y="-853.8" font-family="monospace" font-style="italic" font-size="14.00" fill="#95a5a6">text</text>
<polygon fill="#ffffff" stroke="none" points="797,-819 797,-844 948,-844 948,-819 797,-819"/>
<polygon fill="none" stroke="#2c3e50" points="797,-819 797,-844 948,-844 948,-819 797,-819"/>
<text text-anchor="start" x="802" y="-827.8" font-family="monospace" font-size="14.00" fill="#000000">rolvaliduntil</text>
<polygon fill="#ffffff" stroke="none" points="948,-819 948,-844 1157,-844 1157,-819 948,-819"/>
<polygon fill="none" stroke="#2c3e50" points="948,-819 948,-844 1157,-844 1157,-819 948,-819"/>
<text text-anchor="start" x="953" y="-828.8" font-family="monospace" font-style="italic" font-size="14.00" fill="#95a5a6">timestamp_with_time_zone</text>
<polygon fill="#ffffff" stroke="none" points="797,-794 797,-819 948,-819 948,-794 797,-794"/>
<polygon fill="none" stroke="#2c3e50" points="797,-794 797,-819 948,-819 948,-794 797,-794"/>
<text text-anchor="start" x="802" y="-802.8" font-family="monospace" font-size="14.00" fill="#000000">rolconfig</text>
<polygon fill="#ffffff" stroke="none" points="948,-794 948,-819 1157,-819 1157,-794 948,-794"/>
<polygon fill="none" stroke="#2c3e50" points="948,-794 948,-819 1157,-819 1157,-794 948,-794"/>
<text text-anchor="start" x="953" y="-803.8" font-family="monospace" font-style="italic" font-size="14.00" fill="#95a5a6">text[]</text>
<polygon fill="#ffffff" stroke="none" points="797,-769 797,-794 948,-794 948,-769 797,-769"/>
<polygon fill="none" stroke="#2c3e50" points="797,-769 797,-794 948,-794 948,-769 797,-769"/>
<text text-anchor="start" x="802" y="-777.8" font-family="monospace" font-size="14.00" fill="#000000">rolresqueue</text>
<polygon fill="#ffffff" stroke="none" points="948,-769 948,-794 1157,-794 1157,-769 948,-769"/>
<polygon fill="none" stroke="#2c3e50" points="948,-769 948,-794 1157,-794 1157,-769 948,-769"/>
<text text-anchor="start" x="953" y="-778.8" font-family="monospace" font-style="italic" font-size="14.00" fill="#95a5a6">oid</text>
<polygon fill="#ffffff" stroke="none" points="797,-744 797,-769 948,-769 948,-744 797,-744"/>
<polygon fill="none" stroke="#2c3e50" points="797,-744 797,-769 948,-769 948,-744 797,-744"/>
<text text-anchor="start" x="802" y="-752.8" font-family="monospace" font-size="14.00" fill="#000000">rolcreaterextgpfd</text>
<polygon fill="#ffffff" stroke="none" points="948,-744 948,-769 1157,-769 1157,-744 948,-744"/>
<polygon fill="none" stroke="#2c3e50" points="948,-744 948,-769 1157,-769 1157,-744 948,-744"/>
<text text-anchor="start" x="953" y="-753.8" font-family="monospace" font-style="italic" font-size="14.00" fill="#95a5a6">boolean</text>
<polygon fill="#ffffff" stroke="none" points="797,-719 797,-744 948,-744 948,-719 797,-719"/>
<polygon fill="none" stroke="#2c3e50" points="797,-719 797,-744 948,-744 948,-719 797,-719"/>
<text text-anchor="start" x="802" y="-727.8" font-family="monospace" font-size="14.00" fill="#000000">rolcreaterexthttp</text>
<polygon fill="#ffffff" stroke="none" points="948,-719 948,-744 1157,-744 1157,-719 948,-719"/>
<polygon fill="none" stroke="#2c3e50" points="948,-719 948,-744 1157,-744 1157,-719 948,-719"/>
<text text-anchor="start" x="953" y="-728.8" font-family="monospace" font-style="italic" font-size="14.00" fill="#95a5a6">boolean</text>
<polygon fill="#ffffff" stroke="none" points="797,-694 797,-719 948,-719 948,-694 797,-694"/>
<polygon fill="none" stroke="#2c3e50" points="797,-694 797,-719 948,-719 948,-694 797,-694"/>
<text text-anchor="start" x="802" y="-702.8" font-family="monospace" font-size="14.00" fill="#000000">rolcreatewextgpfd</text>
<polygon fill="#ffffff" stroke="none" points="948,-694 948,-719 1157,-719 1157,-694 948,-694"/>
<polygon fill="none" stroke="#2c3e50" points="948,-694 948,-719 1157,-719 1157,-694 948,-694"/>
<text text-anchor="start" x="953" y="-703.8" font-family="monospace" font-style="italic" font-size="14.00" fill="#95a5a6">boolean</text>
<polygon fill="#ffffff" stroke="none" points="797,-669 797,-694 948,-694 948,-669 797,-669"/>
<polygon fill="none" stroke="#2c3e50" points="797,-669 797,-694 948,-694 948,-669 797,-669"/>
<text text-anchor="start" x="802" y="-677.8" font-family="monospace" font-size="14.00" fill="#000000">rolcreaterexthdfs</text>
<polygon fill="#ffffff" stroke="none" points="948,-669 948,-694 1157,-694 1157,-669 948,-669"/>
<polygon fill="none" stroke="#2c3e50" points="948,-669 948,-694 1157,-694 1157,-669 948,-669"/>
<text text-anchor="start" x="953" y="-678.8" font-family="monospace" font-style="italic" font-size="14.00" fill="#95a5a6">boolean</text>
<polygon fill="#ffffff" stroke="none" points="797,-644 797,-669 948,-669 948,-644 797,-644"/>
<polygon fill="none" stroke="#2c3e50" points="797,-644 797,-669 948,-669 948,-644 797,-644"/>
<text text-anchor="start" x="802" y="-652.8" font-family="monospace" font-size="14.00" fill="#000000">rolcreatewexthdfs</text>
<polygon fill="#ffffff" stroke="none" points="948,-644 948,-669 1157,-669 1157,-644 948,-644"/>
<polygon fill="none" stroke="#2c3e50" points="948,-644 948,-669 1157,-669 1157,-644 948,-644"/>
<text text-anchor="start" x="953" y="-653.8" font-family="monospace" font-style="italic" font-size="14.00" fill="#95a5a6">boolean</text>
</a>
</g>
</g>
<!-- pg_conversion&#45;&gt;pg_authid -->
<g id="edge2" class="edge"><title>pg_conversion:conowner_out&#45;&gt;pg_authid:oid_in</title>
<path fill="none" stroke="#2c3e50" d="M417,-1082C581.99,-1082 625.775,-1082 785.794,-1082"/>
<polygon fill="#2c3e50" stroke="#2c3e50" points="786,-1085.5 796,-1082 786,-1078.5 786,-1085.5"/>
</g>
</g>
</svg>
