<?xml version="1.0" encoding="UTF-8" standalone="no"?>
<!DOCTYPE svg PUBLIC "-//W3C//DTD SVG 1.1//EN"
 "http://www.w3.org/Graphics/SVG/1.1/DTD/svg11.dtd">
<!-- Generated by graphviz version 2.38.0 (20140413.2041)
 -->
<!-- Title: GPDB Pages: 1 -->
<svg width="1960pt" height="952pt"
 viewBox="0.00 0.00 1960.00 952.00" xmlns="http://www.w3.org/2000/svg" xmlns:xlink="http://www.w3.org/1999/xlink">
<g id="graph0" class="graph" transform="scale(1 1) rotate(0) translate(36 916)">
<title>GPDB</title>
<polygon fill="white" stroke="none" points="-36,36 -36,-916 1924,-916 1924,36 -36,36"/>
<text text-anchor="middle" x="944" y="-850.4" font-family="Helvetica,sans-Serif" font-size="32.00">Greenplum System Catalog: pg_database</text>
<g id="clust1" class="cluster"><title>cluster_from</title>
</g>
<g id="clust2" class="cluster"><title>cluster_selected</title>
</g>
<g id="clust3" class="cluster"><title>cluster_to</title>
</g>
<!-- pg_shdepend -->
<g id="node1" class="node"><title>pg_shdepend</title>
<polygon fill="#2c3e50" stroke="none" points="211,-595 211,-625 405,-625 405,-595 211,-595"/>
<polygon fill="none" stroke="black" points="211,-595 211,-625 405,-625 405,-595 211,-595"/>
<text text-anchor="start" x="250" y="-606.6" font-family="monospace" font-weight="bold" font-size="18.00" fill="#ffffff">pg_shdepend</text>
<polygon fill="#ffffff" stroke="none" points="211,-570 211,-595 304,-595 304,-570 211,-570"/>
<polygon fill="none" stroke="#2c3e50" points="211,-570 211,-595 304,-595 304,-570 211,-570"/>
<text text-anchor="start" x="216" y="-578.8" font-family="monospace" font-size="14.00" fill="#000000">dbid</text>
<polygon fill="#18bc9c" stroke="none" points="304,-570 304,-595 405,-595 405,-570 304,-570"/>
<polygon fill="none" stroke="#2c3e50" points="304,-570 304,-595 405,-595 405,-570 304,-570"/>
<text text-anchor="start" x="309" y="-579.8" font-family="monospace" font-style="italic" font-size="14.00" fill="#ffffff">oid</text>
<polygon fill="#ffffff" stroke="none" points="211,-545 211,-570 304,-570 304,-545 211,-545"/>
<polygon fill="none" stroke="#2c3e50" points="211,-545 211,-570 304,-570 304,-545 211,-545"/>
<text text-anchor="start" x="216" y="-553.8" font-family="monospace" font-size="14.00" fill="#000000">classid</text>
<polygon fill="#ffffff" stroke="none" points="304,-545 304,-570 405,-570 405,-545 304,-545"/>
<polygon fill="none" stroke="#2c3e50" points="304,-545 304,-570 405,-570 405,-545 304,-545"/>
<text text-anchor="start" x="309" y="-554.8" font-family="monospace" font-style="italic" font-size="14.00" fill="#95a5a6">oid</text>
<polygon fill="#ffffff" stroke="none" points="211,-520 211,-545 304,-545 304,-520 211,-520"/>
<polygon fill="none" stroke="#2c3e50" points="211,-520 211,-545 304,-545 304,-520 211,-520"/>
<text text-anchor="start" x="216" y="-528.8" font-family="monospace" font-size="14.00" fill="#000000">objid</text>
<polygon fill="#ffffff" stroke="none" points="304,-520 304,-545 405,-545 405,-520 304,-520"/>
<polygon fill="none" stroke="#2c3e50" points="304,-520 304,-545 405,-545 405,-520 304,-520"/>
<text text-anchor="start" x="309" y="-529.8" font-family="monospace" font-style="italic" font-size="14.00" fill="#95a5a6">oid</text>
<polygon fill="#ffffff" stroke="none" points="211,-495 211,-520 304,-520 304,-495 211,-495"/>
<polygon fill="none" stroke="#2c3e50" points="211,-495 211,-520 304,-520 304,-495 211,-495"/>
<text text-anchor="start" x="216" y="-503.8" font-family="monospace" font-size="14.00" fill="#000000">refclassid</text>
<polygon fill="#ffffff" stroke="none" points="304,-495 304,-520 405,-520 405,-495 304,-495"/>
<polygon fill="none" stroke="#2c3e50" points="304,-495 304,-520 405,-520 405,-495 304,-495"/>
<text text-anchor="start" x="309" y="-504.8" font-family="monospace" font-style="italic" font-size="14.00" fill="#95a5a6">oid</text>
<polygon fill="#ffffff" stroke="none" points="211,-470 211,-495 304,-495 304,-470 211,-470"/>
<polygon fill="none" stroke="#2c3e50" points="211,-470 211,-495 304,-495 304,-470 211,-470"/>
<text text-anchor="start" x="216" y="-478.8" font-family="monospace" font-size="14.00" fill="#000000">refobjid</text>
<polygon fill="#ffffff" stroke="none" points="304,-470 304,-495 405,-495 405,-470 304,-470"/>
<polygon fill="none" stroke="#2c3e50" points="304,-470 304,-495 405,-495 405,-470 304,-470"/>
<text text-anchor="start" x="309" y="-479.8" font-family="monospace" font-style="italic" font-size="14.00" fill="#95a5a6">oid</text>
<polygon fill="#ffffff" stroke="none" points="211,-445 211,-470 304,-470 304,-445 211,-445"/>
<polygon fill="none" stroke="#2c3e50" points="211,-445 211,-470 304,-470 304,-445 211,-445"/>
<text text-anchor="start" x="216" y="-453.8" font-family="monospace" font-size="14.00" fill="#000000">deptype</text>
<polygon fill="#ffffff" stroke="none" points="304,-445 304,-470 405,-470 405,-445 304,-445"/>
<polygon fill="none" stroke="#2c3e50" points="304,-445 304,-470 405,-470 405,-445 304,-445"/>
<text text-anchor="start" x="309" y="-454.8" font-family="monospace" font-style="italic" font-size="14.00" fill="#95a5a6">quoted_char</text>
</g>
<!-- pg_database -->
<g id="node2" class="node"><title>pg_database</title>
<polygon fill="#2c3e50" stroke="none" points="842.5,-595 842.5,-625 1045.5,-625 1045.5,-595 842.5,-595"/>
<polygon fill="none" stroke="black" points="842.5,-595 842.5,-625 1045.5,-625 1045.5,-595 842.5,-595"/>
<text text-anchor="start" x="886" y="-606.6" font-family="monospace" font-weight="bold" font-size="18.00" fill="#ffffff">pg_database</text>
<polygon fill="#18bc9c" stroke="none" points="842.5,-570 842.5,-595 960.5,-595 960.5,-570 842.5,-570"/>
<polygon fill="none" stroke="#2c3e50" points="842.5,-570 842.5,-595 960.5,-595 960.5,-570 842.5,-570"/>
<text text-anchor="start" x="847.5" y="-578.8" font-family="monospace" font-size="14.00" fill="#ffffff">oid</text>
<polygon fill="#ffffff" stroke="none" points="960.5,-570 960.5,-595 1045.5,-595 1045.5,-570 960.5,-570"/>
<polygon fill="none" stroke="#2c3e50" points="960.5,-570 960.5,-595 1045.5,-595 1045.5,-570 960.5,-570"/>
<text text-anchor="start" x="965.5" y="-579.8" font-family="monospace" font-style="italic" font-size="14.00" fill="#95a5a6">oid</text>
<polygon fill="#ffffff" stroke="none" points="842.5,-545 842.5,-570 960.5,-570 960.5,-545 842.5,-545"/>
<polygon fill="none" stroke="#2c3e50" points="842.5,-545 842.5,-570 960.5,-570 960.5,-545 842.5,-545"/>
<text text-anchor="start" x="847.5" y="-553.8" font-family="monospace" font-size="14.00" fill="#000000">datname</text>
<polygon fill="#ffffff" stroke="none" points="960.5,-545 960.5,-570 1045.5,-570 1045.5,-545 960.5,-545"/>
<polygon fill="none" stroke="#2c3e50" points="960.5,-545 960.5,-570 1045.5,-570 1045.5,-545 960.5,-545"/>
<text text-anchor="start" x="965.5" y="-554.8" font-family="monospace" font-style="italic" font-size="14.00" fill="#95a5a6">name</text>
<polygon fill="#ffffff" stroke="none" points="842.5,-520 842.5,-545 960.5,-545 960.5,-520 842.5,-520"/>
<polygon fill="none" stroke="#2c3e50" points="842.5,-520 842.5,-545 960.5,-545 960.5,-520 842.5,-520"/>
<text text-anchor="start" x="847.5" y="-528.8" font-family="monospace" font-size="14.00" fill="#000000">datdba</text>
<polygon fill="#18bc9c" stroke="none" points="960.5,-520 960.5,-545 1045.5,-545 1045.5,-520 960.5,-520"/>
<polygon fill="none" stroke="#2c3e50" points="960.5,-520 960.5,-545 1045.5,-545 1045.5,-520 960.5,-520"/>
<text text-anchor="start" x="965.5" y="-529.8" font-family="monospace" font-style="italic" font-size="14.00" fill="#ffffff">oid</text>
<polygon fill="#ffffff" stroke="none" points="842.5,-495 842.5,-520 960.5,-520 960.5,-495 842.5,-495"/>
<polygon fill="none" stroke="#2c3e50" points="842.5,-495 842.5,-520 960.5,-520 960.5,-495 842.5,-495"/>
<text text-anchor="start" x="847.5" y="-503.8" font-family="monospace" font-size="14.00" fill="#000000">encoding</text>
<polygon fill="#ffffff" stroke="none" points="960.5,-495 960.5,-520 1045.5,-520 1045.5,-495 960.5,-495"/>
<polygon fill="none" stroke="#2c3e50" points="960.5,-495 960.5,-520 1045.5,-520 1045.5,-495 960.5,-495"/>
<text text-anchor="start" x="965.5" y="-504.8" font-family="monospace" font-style="italic" font-size="14.00" fill="#95a5a6">integer</text>
<polygon fill="#ffffff" stroke="none" points="842.5,-470 842.5,-495 960.5,-495 960.5,-470 842.5,-470"/>
<polygon fill="none" stroke="#2c3e50" points="842.5,-470 842.5,-495 960.5,-495 960.5,-470 842.5,-470"/>
<text text-anchor="start" x="847.5" y="-478.8" font-family="monospace" font-size="14.00" fill="#000000">datistemplate</text>
<polygon fill="#ffffff" stroke="none" points="960.5,-470 960.5,-495 1045.5,-495 1045.5,-470 960.5,-470"/>
<polygon fill="none" stroke="#2c3e50" points="960.5,-470 960.5,-495 1045.5,-495 1045.5,-470 960.5,-470"/>
<text text-anchor="start" x="965.5" y="-479.8" font-family="monospace" font-style="italic" font-size="14.00" fill="#95a5a6">boolean</text>
<polygon fill="#ffffff" stroke="none" points="842.5,-445 842.5,-470 960.5,-470 960.5,-445 842.5,-445"/>
<polygon fill="none" stroke="#2c3e50" points="842.5,-445 842.5,-470 960.5,-470 960.5,-445 842.5,-445"/>
<text text-anchor="start" x="847.5" y="-453.8" font-family="monospace" font-size="14.00" fill="#000000">datallowconn</text>
<polygon fill="#ffffff" stroke="none" points="960.5,-445 960.5,-470 1045.5,-470 1045.5,-445 960.5,-445"/>
<polygon fill="none" stroke="#2c3e50" points="960.5,-445 960.5,-470 1045.5,-470 1045.5,-445 960.5,-445"/>
<text text-anchor="start" x="965.5" y="-454.8" font-family="monospace" font-style="italic" font-size="14.00" fill="#95a5a6">boolean</text>
<polygon fill="#ffffff" stroke="none" points="842.5,-420 842.5,-445 960.5,-445 960.5,-420 842.5,-420"/>
<polygon fill="none" stroke="#2c3e50" points="842.5,-420 842.5,-445 960.5,-445 960.5,-420 842.5,-420"/>
<text text-anchor="start" x="847.5" y="-428.8" font-family="monospace" font-size="14.00" fill="#000000">datconnlimit</text>
<polygon fill="#ffffff" stroke="none" points="960.5,-420 960.5,-445 1045.5,-445 1045.5,-420 960.5,-420"/>
<polygon fill="none" stroke="#2c3e50" points="960.5,-420 960.5,-445 1045.5,-445 1045.5,-420 960.5,-420"/>
<text text-anchor="start" x="965.5" y="-429.8" font-family="monospace" font-style="italic" font-size="14.00" fill="#95a5a6">integer</text>
<polygon fill="#ffffff" stroke="none" points="842.5,-395 842.5,-420 960.5,-420 960.5,-395 842.5,-395"/>
<polygon fill="none" stroke="#2c3e50" points="842.5,-395 842.5,-420 960.5,-420 960.5,-395 842.5,-395"/>
<text text-anchor="start" x="847.5" y="-403.8" font-family="monospace" font-size="14.00" fill="#000000">datlastsysoid</text>
<polygon fill="#ffffff" stroke="none" points="960.5,-395 960.5,-420 1045.5,-420 1045.5,-395 960.5,-395"/>
<polygon fill="none" stroke="#2c3e50" points="960.5,-395 960.5,-420 1045.5,-420 1045.5,-395 960.5,-395"/>
<text text-anchor="start" x="965.5" y="-404.8" font-family="monospace" font-style="italic" font-size="14.00" fill="#95a5a6">oid</text>
<polygon fill="#ffffff" stroke="none" points="842.5,-370 842.5,-395 960.5,-395 960.5,-370 842.5,-370"/>
<polygon fill="none" stroke="#2c3e50" points="842.5,-370 842.5,-395 960.5,-395 960.5,-370 842.5,-370"/>
<text text-anchor="start" x="847.5" y="-378.8" font-family="monospace" font-size="14.00" fill="#000000">datfrozenxid</text>
<polygon fill="#ffffff" stroke="none" points="960.5,-370 960.5,-395 1045.5,-395 1045.5,-370 960.5,-370"/>
<polygon fill="none" stroke="#2c3e50" points="960.5,-370 960.5,-395 1045.5,-395 1045.5,-370 960.5,-370"/>
<text text-anchor="start" x="965.5" y="-379.8" font-family="monospace" font-style="italic" font-size="14.00" fill="#95a5a6">xid</text>
<polygon fill="#ffffff" stroke="none" points="842.5,-345 842.5,-370 960.5,-370 960.5,-345 842.5,-345"/>
<polygon fill="none" stroke="#2c3e50" points="842.5,-345 842.5,-370 960.5,-370 960.5,-345 842.5,-345"/>
<text text-anchor="start" x="847.5" y="-353.8" font-family="monospace" font-size="14.00" fill="#000000">dattablespace</text>
<polygon fill="#18bc9c" stroke="none" points="960.5,-345 960.5,-370 1045.5,-370 1045.5,-345 960.5,-345"/>
<polygon fill="none" stroke="#2c3e50" points="960.5,-345 960.5,-370 1045.5,-370 1045.5,-345 960.5,-345"/>
<text text-anchor="start" x="965.5" y="-354.8" font-family="monospace" font-style="italic" font-size="14.00" fill="#ffffff">oid</text>
<polygon fill="#ffffff" stroke="none" points="842.5,-320 842.5,-345 960.5,-345 960.5,-320 842.5,-320"/>
<polygon fill="none" stroke="#2c3e50" points="842.5,-320 842.5,-345 960.5,-345 960.5,-320 842.5,-320"/>
<text text-anchor="start" x="847.5" y="-328.8" font-family="monospace" font-size="14.00" fill="#000000">datconfig</text>
<polygon fill="#ffffff" stroke="none" points="960.5,-320 960.5,-345 1045.5,-345 1045.5,-320 960.5,-320"/>
<polygon fill="none" stroke="#2c3e50" points="960.5,-320 960.5,-345 1045.5,-345 1045.5,-320 960.5,-320"/>
<text text-anchor="start" x="965.5" y="-329.8" font-family="monospace" font-style="italic" font-size="14.00" fill="#95a5a6">text[]</text>
<polygon fill="#ffffff" stroke="none" points="842.5,-295 842.5,-320 960.5,-320 960.5,-295 842.5,-295"/>
<polygon fill="none" stroke="#2c3e50" points="842.5,-295 842.5,-320 960.5,-320 960.5,-295 842.5,-295"/>
<text text-anchor="start" x="847.5" y="-303.8" font-family="monospace" font-size="14.00" fill="#000000">datacl</text>
<polygon fill="#ffffff" stroke="none" points="960.5,-295 960.5,-320 1045.5,-320 1045.5,-295 960.5,-295"/>
<polygon fill="none" stroke="#2c3e50" points="960.5,-295 960.5,-320 1045.5,-320 1045.5,-295 960.5,-295"/>
<text text-anchor="start" x="965.5" y="-304.8" font-family="monospace" font-style="italic" font-size="14.00" fill="#95a5a6">aclitem[]</text>
</g>
<!-- pg_shdepend&#45;&gt;pg_database -->
<g id="edge3" class="edge"><title>pg_shdepend:dbid_out&#45;&gt;pg_database:oid_in</title>
<path fill="none" stroke="#2c3e50" d="M406,-583C596.153,-583 646.198,-583 831.426,-583"/>
<polygon fill="#2c3e50" stroke="#2c3e50" points="831.5,-586.5 841.5,-583 831.5,-579.5 831.5,-586.5"/>
</g>
<!-- pg_authid -->
<g id="node3" class="node"><title>pg_authid</title>
<polygon fill="#2c3e50" stroke="none" points="1400,-744 1400,-774 1760,-774 1760,-744 1400,-744"/>
<polygon fill="none" stroke="black" points="1400,-744 1400,-774 1760,-774 1760,-744 1400,-744"/>
<text text-anchor="start" x="1532.5" y="-755.6" font-family="monospace" font-weight="bold" font-size="18.00" fill="#ffffff">pg_authid</text>
<polygon fill="#18bc9c" stroke="none" points="1400,-719 1400,-744 1551,-744 1551,-719 1400,-719"/>
<polygon fill="none" stroke="#2c3e50" points="1400,-719 1400,-744 1551,-744 1551,-719 1400,-719"/>
<text text-anchor="start" x="1405" y="-727.8" font-family="monospace" font-size="14.00" fill="#ffffff">oid</text>
<polygon fill="#ffffff" stroke="none" points="1551,-719 1551,-744 1760,-744 1760,-719 1551,-719"/>
<polygon fill="none" stroke="#2c3e50" points="1551,-719 1551,-744 1760,-744 1760,-719 1551,-719"/>
<text text-anchor="start" x="1556" y="-728.8" font-family="monospace" font-style="italic" font-size="14.00" fill="#95a5a6">oid</text>
<polygon fill="#ffffff" stroke="none" points="1400,-694 1400,-719 1551,-719 1551,-694 1400,-694"/>
<polygon fill="none" stroke="#2c3e50" points="1400,-694 1400,-719 1551,-719 1551,-694 1400,-694"/>
<text text-anchor="start" x="1405" y="-702.8" font-family="monospace" font-size="14.00" fill="#000000">rolname</text>
<polygon fill="#ffffff" stroke="none" points="1551,-694 1551,-719 1760,-719 1760,-694 1551,-694"/>
<polygon fill="none" stroke="#2c3e50" points="1551,-694 1551,-719 1760,-719 1760,-694 1551,-694"/>
<text text-anchor="start" x="1556" y="-703.8" font-family="monospace" font-style="italic" font-size="14.00" fill="#95a5a6">name</text>
<polygon fill="#ffffff" stroke="none" points="1400,-669 1400,-694 1551,-694 1551,-669 1400,-669"/>
<polygon fill="none" stroke="#2c3e50" points="1400,-669 1400,-694 1551,-694 1551,-669 1400,-669"/>
<text text-anchor="start" x="1405" y="-677.8" font-family="monospace" font-size="14.00" fill="#000000">rolsuper</text>
<polygon fill="#ffffff" stroke="none" points="1551,-669 1551,-694 1760,-694 1760,-669 1551,-669"/>
<polygon fill="none" stroke="#2c3e50" points="1551,-669 1551,-694 1760,-694 1760,-669 1551,-669"/>
<text text-anchor="start" x="1556" y="-678.8" font-family="monospace" font-style="italic" font-size="14.00" fill="#95a5a6">boolean</text>
<polygon fill="#ffffff" stroke="none" points="1400,-644 1400,-669 1551,-669 1551,-644 1400,-644"/>
<polygon fill="none" stroke="#2c3e50" points="1400,-644 1400,-669 1551,-669 1551,-644 1400,-644"/>
<text text-anchor="start" x="1405" y="-652.8" font-family="monospace" font-size="14.00" fill="#000000">rolinherit</text>
<polygon fill="#ffffff" stroke="none" points="1551,-644 1551,-669 1760,-669 1760,-644 1551,-644"/>
<polygon fill="none" stroke="#2c3e50" points="1551,-644 1551,-669 1760,-669 1760,-644 1551,-644"/>
<text text-anchor="start" x="1556" y="-653.8" font-family="monospace" font-style="italic" font-size="14.00" fill="#95a5a6">boolean</text>
<polygon fill="#ffffff" stroke="none" points="1400,-619 1400,-644 1551,-644 1551,-619 1400,-619"/>
<polygon fill="none" stroke="#2c3e50" points="1400,-619 1400,-644 1551,-644 1551,-619 1400,-619"/>
<text text-anchor="start" x="1405" y="-627.8" font-family="monospace" font-size="14.00" fill="#000000">rolcreaterole</text>
<polygon fill="#ffffff" stroke="none" points="1551,-619 1551,-644 1760,-644 1760,-619 1551,-619"/>
<polygon fill="none" stroke="#2c3e50" points="1551,-619 1551,-644 1760,-644 1760,-619 1551,-619"/>
<text text-anchor="start" x="1556" y="-628.8" font-family="monospace" font-style="italic" font-size="14.00" fill="#95a5a6">boolean</text>
<polygon fill="#ffffff" stroke="none" points="1400,-594 1400,-619 1551,-619 1551,-594 1400,-594"/>
<polygon fill="none" stroke="#2c3e50" points="1400,-594 1400,-619 1551,-619 1551,-594 1400,-594"/>
<text text-anchor="start" x="1405" y="-602.8" font-family="monospace" font-size="14.00" fill="#000000">rolcreatedb</text>
<polygon fill="#ffffff" stroke="none" points="1551,-594 1551,-619 1760,-619 1760,-594 1551,-594"/>
<polygon fill="none" stroke="#2c3e50" points="1551,-594 1551,-619 1760,-619 1760,-594 1551,-594"/>
<text text-anchor="start" x="1556" y="-603.8" font-family="monospace" font-style="italic" font-size="14.00" fill="#95a5a6">boolean</text>
<polygon fill="#ffffff" stroke="none" points="1400,-569 1400,-594 1551,-594 1551,-569 1400,-569"/>
<polygon fill="none" stroke="#2c3e50" points="1400,-569 1400,-594 1551,-594 1551,-569 1400,-569"/>
<text text-anchor="start" x="1405" y="-577.8" font-family="monospace" font-size="14.00" fill="#000000">rolcatupdate</text>
<polygon fill="#ffffff" stroke="none" points="1551,-569 1551,-594 1760,-594 1760,-569 1551,-569"/>
<polygon fill="none" stroke="#2c3e50" points="1551,-569 1551,-594 1760,-594 1760,-569 1551,-569"/>
<text text-anchor="start" x="1556" y="-578.8" font-family="monospace" font-style="italic" font-size="14.00" fill="#95a5a6">boolean</text>
<polygon fill="#ffffff" stroke="none" points="1400,-544 1400,-569 1551,-569 1551,-544 1400,-544"/>
<polygon fill="none" stroke="#2c3e50" points="1400,-544 1400,-569 1551,-569 1551,-544 1400,-544"/>
<text text-anchor="start" x="1405" y="-552.8" font-family="monospace" font-size="14.00" fill="#000000">rolcanlogin</text>
<polygon fill="#ffffff" stroke="none" points="1551,-544 1551,-569 1760,-569 1760,-544 1551,-544"/>
<polygon fill="none" stroke="#2c3e50" points="1551,-544 1551,-569 1760,-569 1760,-544 1551,-544"/>
<text text-anchor="start" x="1556" y="-553.8" font-family="monospace" font-style="italic" font-size="14.00" fill="#95a5a6">boolean</text>
<polygon fill="#ffffff" stroke="none" points="1400,-519 1400,-544 1551,-544 1551,-519 1400,-519"/>
<polygon fill="none" stroke="#2c3e50" points="1400,-519 1400,-544 1551,-544 1551,-519 1400,-519"/>
<text text-anchor="start" x="1405" y="-527.8" font-family="monospace" font-size="14.00" fill="#000000">rolconnlimit</text>
<polygon fill="#ffffff" stroke="none" points="1551,-519 1551,-544 1760,-544 1760,-519 1551,-519"/>
<polygon fill="none" stroke="#2c3e50" points="1551,-519 1551,-544 1760,-544 1760,-519 1551,-519"/>
<text text-anchor="start" x="1556" y="-528.8" font-family="monospace" font-style="italic" font-size="14.00" fill="#95a5a6">integer</text>
<polygon fill="#ffffff" stroke="none" points="1400,-494 1400,-519 1551,-519 1551,-494 1400,-494"/>
<polygon fill="none" stroke="#2c3e50" points="1400,-494 1400,-519 1551,-519 1551,-494 1400,-494"/>
<text text-anchor="start" x="1405" y="-502.8" font-family="monospace" font-size="14.00" fill="#000000">rolpassword</text>
<polygon fill="#ffffff" stroke="none" points="1551,-494 1551,-519 1760,-519 1760,-494 1551,-494"/>
<polygon fill="none" stroke="#2c3e50" points="1551,-494 1551,-519 1760,-519 1760,-494 1551,-494"/>
<text text-anchor="start" x="1556" y="-503.8" font-family="monospace" font-style="italic" font-size="14.00" fill="#95a5a6">text</text>
<polygon fill="#ffffff" stroke="none" points="1400,-469 1400,-494 1551,-494 1551,-469 1400,-469"/>
<polygon fill="none" stroke="#2c3e50" points="1400,-469 1400,-494 1551,-494 1551,-469 1400,-469"/>
<text text-anchor="start" x="1405" y="-477.8" font-family="monospace" font-size="14.00" fill="#000000">rolvaliduntil</text>
<polygon fill="#ffffff" stroke="none" points="1551,-469 1551,-494 1760,-494 1760,-469 1551,-469"/>
<polygon fill="none" stroke="#2c3e50" points="1551,-469 1551,-494 1760,-494 1760,-469 1551,-469"/>
<text text-anchor="start" x="1556" y="-478.8" font-family="monospace" font-style="italic" font-size="14.00" fill="#95a5a6">timestamp_with_time_zone</text>
<polygon fill="#ffffff" stroke="none" points="1400,-444 1400,-469 1551,-469 1551,-444 1400,-444"/>
<polygon fill="none" stroke="#2c3e50" points="1400,-444 1400,-469 1551,-469 1551,-444 1400,-444"/>
<text text-anchor="start" x="1405" y="-452.8" font-family="monospace" font-size="14.00" fill="#000000">rolconfig</text>
<polygon fill="#ffffff" stroke="none" points="1551,-444 1551,-469 1760,-469 1760,-444 1551,-444"/>
<polygon fill="none" stroke="#2c3e50" points="1551,-444 1551,-469 1760,-469 1760,-444 1551,-444"/>
<text text-anchor="start" x="1556" y="-453.8" font-family="monospace" font-style="italic" font-size="14.00" fill="#95a5a6">text[]</text>
<polygon fill="#ffffff" stroke="none" points="1400,-419 1400,-444 1551,-444 1551,-419 1400,-419"/>
<polygon fill="none" stroke="#2c3e50" points="1400,-419 1400,-444 1551,-444 1551,-419 1400,-419"/>
<text text-anchor="start" x="1405" y="-427.8" font-family="monospace" font-size="14.00" fill="#000000">rolresqueue</text>
<polygon fill="#ffffff" stroke="none" points="1551,-419 1551,-444 1760,-444 1760,-419 1551,-419"/>
<polygon fill="none" stroke="#2c3e50" points="1551,-419 1551,-444 1760,-444 1760,-419 1551,-419"/>
<text text-anchor="start" x="1556" y="-428.8" font-family="monospace" font-style="italic" font-size="14.00" fill="#95a5a6">oid</text>
<polygon fill="#ffffff" stroke="none" points="1400,-394 1400,-419 1551,-419 1551,-394 1400,-394"/>
<polygon fill="none" stroke="#2c3e50" points="1400,-394 1400,-419 1551,-419 1551,-394 1400,-394"/>
<text text-anchor="start" x="1405" y="-402.8" font-family="monospace" font-size="14.00" fill="#000000">rolcreaterextgpfd</text>
<polygon fill="#ffffff" stroke="none" points="1551,-394 1551,-419 1760,-419 1760,-394 1551,-394"/>
<polygon fill="none" stroke="#2c3e50" points="1551,-394 1551,-419 1760,-419 1760,-394 1551,-394"/>
<text text-anchor="start" x="1556" y="-403.8" font-family="monospace" font-style="italic" font-size="14.00" fill="#95a5a6">boolean</text>
<polygon fill="#ffffff" stroke="none" points="1400,-369 1400,-394 1551,-394 1551,-369 1400,-369"/>
<polygon fill="none" stroke="#2c3e50" points="1400,-369 1400,-394 1551,-394 1551,-369 1400,-369"/>
<text text-anchor="start" x="1405" y="-377.8" font-family="monospace" font-size="14.00" fill="#000000">rolcreaterexthttp</text>
<polygon fill="#ffffff" stroke="none" points="1551,-369 1551,-394 1760,-394 1760,-369 1551,-369"/>
<polygon fill="none" stroke="#2c3e50" points="1551,-369 1551,-394 1760,-394 1760,-369 1551,-369"/>
<text text-anchor="start" x="1556" y="-378.8" font-family="monospace" font-style="italic" font-size="14.00" fill="#95a5a6">boolean</text>
<polygon fill="#ffffff" stroke="none" points="1400,-344 1400,-369 1551,-369 1551,-344 1400,-344"/>
<polygon fill="none" stroke="#2c3e50" points="1400,-344 1400,-369 1551,-369 1551,-344 1400,-344"/>
<text text-anchor="start" x="1405" y="-352.8" font-family="monospace" font-size="14.00" fill="#000000">rolcreatewextgpfd</text>
<polygon fill="#ffffff" stroke="none" points="1551,-344 1551,-369 1760,-369 1760,-344 1551,-344"/>
<polygon fill="none" stroke="#2c3e50" points="1551,-344 1551,-369 1760,-369 1760,-344 1551,-344"/>
<text text-anchor="start" x="1556" y="-353.8" font-family="monospace" font-style="italic" font-size="14.00" fill="#95a5a6">boolean</text>
<polygon fill="#ffffff" stroke="none" points="1400,-319 1400,-344 1551,-344 1551,-319 1400,-319"/>
<polygon fill="none" stroke="#2c3e50" points="1400,-319 1400,-344 1551,-344 1551,-319 1400,-319"/>
<text text-anchor="start" x="1405" y="-327.8" font-family="monospace" font-size="14.00" fill="#000000">rolcreaterexthdfs</text>
<polygon fill="#ffffff" stroke="none" points="1551,-319 1551,-344 1760,-344 1760,-319 1551,-319"/>
<polygon fill="none" stroke="#2c3e50" points="1551,-319 1551,-344 1760,-344 1760,-319 1551,-319"/>
<text text-anchor="start" x="1556" y="-328.8" font-family="monospace" font-style="italic" font-size="14.00" fill="#95a5a6">boolean</text>
<polygon fill="#ffffff" stroke="none" points="1400,-294 1400,-319 1551,-319 1551,-294 1400,-294"/>
<polygon fill="none" stroke="#2c3e50" points="1400,-294 1400,-319 1551,-319 1551,-294 1400,-294"/>
<text text-anchor="start" x="1405" y="-302.8" font-family="monospace" font-size="14.00" fill="#000000">rolcreatewexthdfs</text>
<polygon fill="#ffffff" stroke="none" points="1551,-294 1551,-319 1760,-319 1760,-294 1551,-294"/>
<polygon fill="none" stroke="#2c3e50" points="1551,-294 1551,-319 1760,-319 1760,-294 1551,-294"/>
<text text-anchor="start" x="1556" y="-303.8" font-family="monospace" font-style="italic" font-size="14.00" fill="#95a5a6">boolean</text>
</g>
<!-- pg_database&#45;&gt;pg_authid -->
<g id="edge1" class="edge"><title>pg_database:datdba_out&#45;&gt;pg_authid:oid_in</title>
<path fill="none" stroke="#2c3e50" d="M1046.5,-533C1222.98,-533 1219.3,-724.493 1388.92,-731.786"/>
<polygon fill="#2c3e50" stroke="#2c3e50" points="1388.93,-735.287 1399,-732 1389.08,-728.289 1388.93,-735.287"/>
</g>
<!-- pg_tablespace -->
<g id="node4" class="node"><title>pg_tablespace</title>
<polygon fill="#2c3e50" stroke="none" points="1471,-220 1471,-250 1690,-250 1690,-220 1471,-220"/>
<polygon fill="none" stroke="black" points="1471,-220 1471,-250 1690,-250 1690,-220 1471,-220"/>
<text text-anchor="start" x="1512" y="-231.6" font-family="monospace" font-weight="bold" font-size="18.00" fill="#ffffff">pg_tablespace</text>
<polygon fill="#18bc9c" stroke="none" points="1471,-195 1471,-220 1605,-220 1605,-195 1471,-195"/>
<polygon fill="none" stroke="#2c3e50" points="1471,-195 1471,-220 1605,-220 1605,-195 1471,-195"/>
<text text-anchor="start" x="1476" y="-203.8" font-family="monospace" font-size="14.00" fill="#ffffff">oid</text>
<polygon fill="#ffffff" stroke="none" points="1605,-195 1605,-220 1690,-220 1690,-195 1605,-195"/>
<polygon fill="none" stroke="#2c3e50" points="1605,-195 1605,-220 1690,-220 1690,-195 1605,-195"/>
<text text-anchor="start" x="1610" y="-204.8" font-family="monospace" font-style="italic" font-size="14.00" fill="#95a5a6">oid</text>
<polygon fill="#ffffff" stroke="none" points="1471,-170 1471,-195 1605,-195 1605,-170 1471,-170"/>
<polygon fill="none" stroke="#2c3e50" points="1471,-170 1471,-195 1605,-195 1605,-170 1471,-170"/>
<text text-anchor="start" x="1476" y="-178.8" font-family="monospace" font-size="14.00" fill="#000000">spcname</text>
<polygon fill="#ffffff" stroke="none" points="1605,-170 1605,-195 1690,-195 1690,-170 1605,-170"/>
<polygon fill="none" stroke="#2c3e50" points="1605,-170 1605,-195 1690,-195 1690,-170 1605,-170"/>
<text text-anchor="start" x="1610" y="-179.8" font-family="monospace" font-style="italic" font-size="14.00" fill="#95a5a6">name</text>
<polygon fill="#ffffff" stroke="none" points="1471,-145 1471,-170 1605,-170 1605,-145 1471,-145"/>
<polygon fill="none" stroke="#2c3e50" points="1471,-145 1471,-170 1605,-170 1605,-145 1471,-145"/>
<text text-anchor="start" x="1476" y="-153.8" font-family="monospace" font-size="14.00" fill="#000000">spcowner</text>
<polygon fill="#ffffff" stroke="none" points="1605,-145 1605,-170 1690,-170 1690,-145 1605,-145"/>
<polygon fill="none" stroke="#2c3e50" points="1605,-145 1605,-170 1690,-170 1690,-145 1605,-145"/>
<text text-anchor="start" x="1610" y="-154.8" font-family="monospace" font-style="italic" font-size="14.00" fill="#95a5a6">oid</text>
<polygon fill="#ffffff" stroke="none" points="1471,-120 1471,-145 1605,-145 1605,-120 1471,-120"/>
<polygon fill="none" stroke="#2c3e50" points="1471,-120 1471,-145 1605,-145 1605,-120 1471,-120"/>
<text text-anchor="start" x="1476" y="-128.8" font-family="monospace" font-size="14.00" fill="#000000">spclocation</text>
<polygon fill="#ffffff" stroke="none" points="1605,-120 1605,-145 1690,-145 1690,-120 1605,-120"/>
<polygon fill="none" stroke="#2c3e50" points="1605,-120 1605,-145 1690,-145 1690,-120 1605,-120"/>
<text text-anchor="start" x="1610" y="-129.8" font-family="monospace" font-style="italic" font-size="14.00" fill="#95a5a6">text</text>
<polygon fill="#ffffff" stroke="none" points="1471,-95 1471,-120 1605,-120 1605,-95 1471,-95"/>
<polygon fill="none" stroke="#2c3e50" points="1471,-95 1471,-120 1605,-120 1605,-95 1471,-95"/>
<text text-anchor="start" x="1476" y="-103.8" font-family="monospace" font-size="14.00" fill="#000000">spcacl</text>
<polygon fill="#ffffff" stroke="none" points="1605,-95 1605,-120 1690,-120 1690,-95 1605,-95"/>
<polygon fill="none" stroke="#2c3e50" points="1605,-95 1605,-120 1690,-120 1690,-95 1605,-95"/>
<text text-anchor="start" x="1610" y="-104.8" font-family="monospace" font-style="italic" font-size="14.00" fill="#95a5a6">aclitem[]</text>
<polygon fill="#ffffff" stroke="none" points="1471,-70 1471,-95 1605,-95 1605,-70 1471,-70"/>
<polygon fill="none" stroke="#2c3e50" points="1471,-70 1471,-95 1605,-95 1605,-70 1471,-70"/>
<text text-anchor="start" x="1476" y="-78.8" font-family="monospace" font-size="14.00" fill="#000000">spcprilocations</text>
<polygon fill="#ffffff" stroke="none" points="1605,-70 1605,-95 1690,-95 1690,-70 1605,-70"/>
<polygon fill="none" stroke="#2c3e50" points="1605,-70 1605,-95 1690,-95 1690,-70 1605,-70"/>
<text text-anchor="start" x="1610" y="-79.8" font-family="monospace" font-style="italic" font-size="14.00" fill="#95a5a6">text[]</text>
<polygon fill="#ffffff" stroke="none" points="1471,-45 1471,-70 1605,-70 1605,-45 1471,-45"/>
<polygon fill="none" stroke="#2c3e50" points="1471,-45 1471,-70 1605,-70 1605,-45 1471,-45"/>
<text text-anchor="start" x="1476" y="-53.8" font-family="monospace" font-size="14.00" fill="#000000">spcmirlocations</text>
<polygon fill="#ffffff" stroke="none" points="1605,-45 1605,-70 1690,-70 1690,-45 1605,-45"/>
<polygon fill="none" stroke="#2c3e50" points="1605,-45 1605,-70 1690,-70 1690,-45 1605,-45"/>
<text text-anchor="start" x="1610" y="-54.8" font-family="monospace" font-style="italic" font-size="14.00" fill="#95a5a6">text[]</text>
<polygon fill="#ffffff" stroke="none" points="1471,-20 1471,-45 1605,-45 1605,-20 1471,-20"/>
<polygon fill="none" stroke="#2c3e50" points="1471,-20 1471,-45 1605,-45 1605,-20 1471,-20"/>
<text text-anchor="start" x="1476" y="-28.8" font-family="monospace" font-size="14.00" fill="#000000">spcfsoid</text>
<polygon fill="#ffffff" stroke="none" points="1605,-20 1605,-45 1690,-45 1690,-20 1605,-20"/>
<polygon fill="none" stroke="#2c3e50" points="1605,-20 1605,-45 1690,-45 1690,-20 1605,-20"/>
<text text-anchor="start" x="1610" y="-29.8" font-family="monospace" font-style="italic" font-size="14.00" fill="#95a5a6">oid</text>
</g>
<!-- pg_database&#45;&gt;pg_tablespace -->
<g id="edge2" class="edge"><title>pg_database:dattablespace_out&#45;&gt;pg_tablespace:oid_in</title>
<path fill="none" stroke="#2c3e50" d="M1046.5,-357C1153.61,-357 1170.9,-307.37 1272,-272 1355.97,-242.622 1376.03,-210.544 1459.75,-208.144"/>
<polygon fill="#2c3e50" stroke="#2c3e50" points="1460.05,-211.64 1470,-208 1459.95,-204.64 1460.05,-211.64"/>
</g>
</g>
</svg>
