<?xml version="1.0" encoding="UTF-8" standalone="no"?>
<!DOCTYPE svg PUBLIC "-//W3C//DTD SVG 1.1//EN"
 "http://www.w3.org/Graphics/SVG/1.1/DTD/svg11.dtd">
<!-- Generated by graphviz version 2.38.0 (20140413.2041)
 -->
<!-- Title: GPDB Pages: 1 -->
<svg width="1368pt" height="1029pt"
 viewBox="0.00 0.00 1368.00 1029.00" xmlns="http://www.w3.org/2000/svg" xmlns:xlink="http://www.w3.org/1999/xlink">
<g id="graph0" class="graph" transform="scale(1 1) rotate(0) translate(36 993)">
<title>GPDB</title>
<polygon fill="white" stroke="none" points="-36,36 -36,-993 1332,-993 1332,36 -36,36"/>
<text text-anchor="middle" x="648" y="-927.4" font-family="Helvetica,sans-Serif" font-size="32.00">Greenplum System Catalog: pg_description</text>
<g id="clust2" class="cluster"><title>cluster_selected</title>
</g>
<g id="clust3" class="cluster"><title>cluster_to</title>
</g>
<!-- pg_description -->
<g id="node1" class="node"><title>pg_description</title>
<polygon fill="#2c3e50" stroke="none" points="234.5,-821 234.5,-851 403.5,-851 403.5,-821 234.5,-821"/>
<polygon fill="none" stroke="black" points="234.5,-821 234.5,-851 403.5,-851 403.5,-821 234.5,-821"/>
<text text-anchor="start" x="245" y="-832.6" font-family="monospace" font-weight="bold" font-size="18.00" fill="#ffffff">pg_description</text>
<polygon fill="#ffffff" stroke="none" points="234.5,-796 234.5,-821 335.5,-821 335.5,-796 234.5,-796"/>
<polygon fill="none" stroke="#2c3e50" points="234.5,-796 234.5,-821 335.5,-821 335.5,-796 234.5,-796"/>
<text text-anchor="start" x="239.5" y="-804.8" font-family="monospace" font-size="14.00" fill="#000000">objoid</text>
<polygon fill="#ffffff" stroke="none" points="335.5,-796 335.5,-821 403.5,-821 403.5,-796 335.5,-796"/>
<polygon fill="none" stroke="#2c3e50" points="335.5,-796 335.5,-821 403.5,-821 403.5,-796 335.5,-796"/>
<text text-anchor="start" x="340.5" y="-805.8" font-family="monospace" font-style="italic" font-size="14.00" fill="#95a5a6">oid</text>
<polygon fill="#ffffff" stroke="none" points="234.5,-771 234.5,-796 335.5,-796 335.5,-771 234.5,-771"/>
<polygon fill="none" stroke="#2c3e50" points="234.5,-771 234.5,-796 335.5,-796 335.5,-771 234.5,-771"/>
<text text-anchor="start" x="239.5" y="-779.8" font-family="monospace" font-size="14.00" fill="#000000">classoid</text>
<polygon fill="#18bc9c" stroke="none" points="335.5,-771 335.5,-796 403.5,-796 403.5,-771 335.5,-771"/>
<polygon fill="none" stroke="#2c3e50" points="335.5,-771 335.5,-796 403.5,-796 403.5,-771 335.5,-771"/>
<text text-anchor="start" x="340.5" y="-780.8" font-family="monospace" font-style="italic" font-size="14.00" fill="#ffffff">oid</text>
<polygon fill="#ffffff" stroke="none" points="234.5,-746 234.5,-771 335.5,-771 335.5,-746 234.5,-746"/>
<polygon fill="none" stroke="#2c3e50" points="234.5,-746 234.5,-771 335.5,-771 335.5,-746 234.5,-746"/>
<text text-anchor="start" x="239.5" y="-754.8" font-family="monospace" font-size="14.00" fill="#000000">objsubid</text>
<polygon fill="#ffffff" stroke="none" points="335.5,-746 335.5,-771 403.5,-771 403.5,-746 335.5,-746"/>
<polygon fill="none" stroke="#2c3e50" points="335.5,-746 335.5,-771 403.5,-771 403.5,-746 335.5,-746"/>
<text text-anchor="start" x="340.5" y="-755.8" font-family="monospace" font-style="italic" font-size="14.00" fill="#95a5a6">integer</text>
<polygon fill="#ffffff" stroke="none" points="234.5,-721 234.5,-746 335.5,-746 335.5,-721 234.5,-721"/>
<polygon fill="none" stroke="#2c3e50" points="234.5,-721 234.5,-746 335.5,-746 335.5,-721 234.5,-721"/>
<text text-anchor="start" x="239.5" y="-729.8" font-family="monospace" font-size="14.00" fill="#000000">description</text>
<polygon fill="#ffffff" stroke="none" points="335.5,-721 335.5,-746 403.5,-746 403.5,-721 335.5,-721"/>
<polygon fill="none" stroke="#2c3e50" points="335.5,-721 335.5,-746 403.5,-746 403.5,-721 335.5,-721"/>
<text text-anchor="start" x="340.5" y="-730.8" font-family="monospace" font-style="italic" font-size="14.00" fill="#95a5a6">text</text>
</g>
<!-- pg_class -->
<g id="node2" class="node"><title>pg_class</title>
<polygon fill="#2c3e50" stroke="none" points="863.5,-795 863.5,-825 1090.5,-825 1090.5,-795 863.5,-795"/>
<polygon fill="none" stroke="black" points="863.5,-795 863.5,-825 1090.5,-825 1090.5,-795 863.5,-795"/>
<text text-anchor="start" x="934.5" y="-806.6" font-family="monospace" font-weight="bold" font-size="18.00" fill="#ffffff">pg_class</text>
<polygon fill="#18bc9c" stroke="none" points="863.5,-770 863.5,-795 989.5,-795 989.5,-770 863.5,-770"/>
<polygon fill="none" stroke="#2c3e50" points="863.5,-770 863.5,-795 989.5,-795 989.5,-770 863.5,-770"/>
<text text-anchor="start" x="868.5" y="-778.8" font-family="monospace" font-size="14.00" fill="#ffffff">oid</text>
<polygon fill="#ffffff" stroke="none" points="989.5,-770 989.5,-795 1090.5,-795 1090.5,-770 989.5,-770"/>
<polygon fill="none" stroke="#2c3e50" points="989.5,-770 989.5,-795 1090.5,-795 1090.5,-770 989.5,-770"/>
<text text-anchor="start" x="994.5" y="-779.8" font-family="monospace" font-style="italic" font-size="14.00" fill="#95a5a6">oid</text>
<polygon fill="#ffffff" stroke="none" points="863.5,-745 863.5,-770 989.5,-770 989.5,-745 863.5,-745"/>
<polygon fill="none" stroke="#2c3e50" points="863.5,-745 863.5,-770 989.5,-770 989.5,-745 863.5,-745"/>
<text text-anchor="start" x="868.5" y="-753.8" font-family="monospace" font-size="14.00" fill="#000000">relname</text>
<polygon fill="#ffffff" stroke="none" points="989.5,-745 989.5,-770 1090.5,-770 1090.5,-745 989.5,-745"/>
<polygon fill="none" stroke="#2c3e50" points="989.5,-745 989.5,-770 1090.5,-770 1090.5,-745 989.5,-745"/>
<text text-anchor="start" x="994.5" y="-754.8" font-family="monospace" font-style="italic" font-size="14.00" fill="#95a5a6">name</text>
<polygon fill="#ffffff" stroke="none" points="863.5,-720 863.5,-745 989.5,-745 989.5,-720 863.5,-720"/>
<polygon fill="none" stroke="#2c3e50" points="863.5,-720 863.5,-745 989.5,-745 989.5,-720 863.5,-720"/>
<text text-anchor="start" x="868.5" y="-728.8" font-family="monospace" font-size="14.00" fill="#000000">relnamespace</text>
<polygon fill="#ffffff" stroke="none" points="989.5,-720 989.5,-745 1090.5,-745 1090.5,-720 989.5,-720"/>
<polygon fill="none" stroke="#2c3e50" points="989.5,-720 989.5,-745 1090.5,-745 1090.5,-720 989.5,-720"/>
<text text-anchor="start" x="994.5" y="-729.8" font-family="monospace" font-style="italic" font-size="14.00" fill="#95a5a6">oid</text>
<polygon fill="#ffffff" stroke="none" points="863.5,-695 863.5,-720 989.5,-720 989.5,-695 863.5,-695"/>
<polygon fill="none" stroke="#2c3e50" points="863.5,-695 863.5,-720 989.5,-720 989.5,-695 863.5,-695"/>
<text text-anchor="start" x="868.5" y="-703.8" font-family="monospace" font-size="14.00" fill="#000000">reltype</text>
<polygon fill="#ffffff" stroke="none" points="989.5,-695 989.5,-720 1090.5,-720 1090.5,-695 989.5,-695"/>
<polygon fill="none" stroke="#2c3e50" points="989.5,-695 989.5,-720 1090.5,-720 1090.5,-695 989.5,-695"/>
<text text-anchor="start" x="994.5" y="-704.8" font-family="monospace" font-style="italic" font-size="14.00" fill="#95a5a6">oid</text>
<polygon fill="#ffffff" stroke="none" points="863.5,-670 863.5,-695 989.5,-695 989.5,-670 863.5,-670"/>
<polygon fill="none" stroke="#2c3e50" points="863.5,-670 863.5,-695 989.5,-695 989.5,-670 863.5,-670"/>
<text text-anchor="start" x="868.5" y="-678.8" font-family="monospace" font-size="14.00" fill="#000000">relowner</text>
<polygon fill="#ffffff" stroke="none" points="989.5,-670 989.5,-695 1090.5,-695 1090.5,-670 989.5,-670"/>
<polygon fill="none" stroke="#2c3e50" points="989.5,-670 989.5,-695 1090.5,-695 1090.5,-670 989.5,-670"/>
<text text-anchor="start" x="994.5" y="-679.8" font-family="monospace" font-style="italic" font-size="14.00" fill="#95a5a6">oid</text>
<polygon fill="#ffffff" stroke="none" points="863.5,-645 863.5,-670 989.5,-670 989.5,-645 863.5,-645"/>
<polygon fill="none" stroke="#2c3e50" points="863.5,-645 863.5,-670 989.5,-670 989.5,-645 863.5,-645"/>
<text text-anchor="start" x="868.5" y="-653.8" font-family="monospace" font-size="14.00" fill="#000000">relam</text>
<polygon fill="#ffffff" stroke="none" points="989.5,-645 989.5,-670 1090.5,-670 1090.5,-645 989.5,-645"/>
<polygon fill="none" stroke="#2c3e50" points="989.5,-645 989.5,-670 1090.5,-670 1090.5,-645 989.5,-645"/>
<text text-anchor="start" x="994.5" y="-654.8" font-family="monospace" font-style="italic" font-size="14.00" fill="#95a5a6">oid</text>
<polygon fill="#ffffff" stroke="none" points="863.5,-620 863.5,-645 989.5,-645 989.5,-620 863.5,-620"/>
<polygon fill="none" stroke="#2c3e50" points="863.5,-620 863.5,-645 989.5,-645 989.5,-620 863.5,-620"/>
<text text-anchor="start" x="868.5" y="-628.8" font-family="monospace" font-size="14.00" fill="#000000">relfilenode</text>
<polygon fill="#ffffff" stroke="none" points="989.5,-620 989.5,-645 1090.5,-645 1090.5,-620 989.5,-620"/>
<polygon fill="none" stroke="#2c3e50" points="989.5,-620 989.5,-645 1090.5,-645 1090.5,-620 989.5,-620"/>
<text text-anchor="start" x="994.5" y="-629.8" font-family="monospace" font-style="italic" font-size="14.00" fill="#95a5a6">oid</text>
<polygon fill="#ffffff" stroke="none" points="863.5,-595 863.5,-620 989.5,-620 989.5,-595 863.5,-595"/>
<polygon fill="none" stroke="#2c3e50" points="863.5,-595 863.5,-620 989.5,-620 989.5,-595 863.5,-595"/>
<text text-anchor="start" x="868.5" y="-603.8" font-family="monospace" font-size="14.00" fill="#000000">reltablespace</text>
<polygon fill="#ffffff" stroke="none" points="989.5,-595 989.5,-620 1090.5,-620 1090.5,-595 989.5,-595"/>
<polygon fill="none" stroke="#2c3e50" points="989.5,-595 989.5,-620 1090.5,-620 1090.5,-595 989.5,-595"/>
<text text-anchor="start" x="994.5" y="-604.8" font-family="monospace" font-style="italic" font-size="14.00" fill="#95a5a6">oid</text>
<polygon fill="#ffffff" stroke="none" points="863.5,-570 863.5,-595 989.5,-595 989.5,-570 863.5,-570"/>
<polygon fill="none" stroke="#2c3e50" points="863.5,-570 863.5,-595 989.5,-595 989.5,-570 863.5,-570"/>
<text text-anchor="start" x="868.5" y="-578.8" font-family="monospace" font-size="14.00" fill="#000000">relpages</text>
<polygon fill="#ffffff" stroke="none" points="989.5,-570 989.5,-595 1090.5,-595 1090.5,-570 989.5,-570"/>
<polygon fill="none" stroke="#2c3e50" points="989.5,-570 989.5,-595 1090.5,-595 1090.5,-570 989.5,-570"/>
<text text-anchor="start" x="994.5" y="-579.8" font-family="monospace" font-style="italic" font-size="14.00" fill="#95a5a6">integer</text>
<polygon fill="#ffffff" stroke="none" points="863.5,-545 863.5,-570 989.5,-570 989.5,-545 863.5,-545"/>
<polygon fill="none" stroke="#2c3e50" points="863.5,-545 863.5,-570 989.5,-570 989.5,-545 863.5,-545"/>
<text text-anchor="start" x="868.5" y="-553.8" font-family="monospace" font-size="14.00" fill="#000000">reltuples</text>
<polygon fill="#ffffff" stroke="none" points="989.5,-545 989.5,-570 1090.5,-570 1090.5,-545 989.5,-545"/>
<polygon fill="none" stroke="#2c3e50" points="989.5,-545 989.5,-570 1090.5,-570 1090.5,-545 989.5,-545"/>
<text text-anchor="start" x="994.5" y="-554.8" font-family="monospace" font-style="italic" font-size="14.00" fill="#95a5a6">real</text>
<polygon fill="#ffffff" stroke="none" points="863.5,-520 863.5,-545 989.5,-545 989.5,-520 863.5,-520"/>
<polygon fill="none" stroke="#2c3e50" points="863.5,-520 863.5,-545 989.5,-545 989.5,-520 863.5,-520"/>
<text text-anchor="start" x="868.5" y="-528.8" font-family="monospace" font-size="14.00" fill="#000000">reltoastrelid</text>
<polygon fill="#ffffff" stroke="none" points="989.5,-520 989.5,-545 1090.5,-545 1090.5,-520 989.5,-520"/>
<polygon fill="none" stroke="#2c3e50" points="989.5,-520 989.5,-545 1090.5,-545 1090.5,-520 989.5,-520"/>
<text text-anchor="start" x="994.5" y="-529.8" font-family="monospace" font-style="italic" font-size="14.00" fill="#95a5a6">oid</text>
<polygon fill="#ffffff" stroke="none" points="863.5,-495 863.5,-520 989.5,-520 989.5,-495 863.5,-495"/>
<polygon fill="none" stroke="#2c3e50" points="863.5,-495 863.5,-520 989.5,-520 989.5,-495 863.5,-495"/>
<text text-anchor="start" x="868.5" y="-503.8" font-family="monospace" font-size="14.00" fill="#000000">reltoastidxid</text>
<polygon fill="#ffffff" stroke="none" points="989.5,-495 989.5,-520 1090.5,-520 1090.5,-495 989.5,-495"/>
<polygon fill="none" stroke="#2c3e50" points="989.5,-495 989.5,-520 1090.5,-520 1090.5,-495 989.5,-495"/>
<text text-anchor="start" x="994.5" y="-504.8" font-family="monospace" font-style="italic" font-size="14.00" fill="#95a5a6">oid</text>
<polygon fill="#ffffff" stroke="none" points="863.5,-470 863.5,-495 989.5,-495 989.5,-470 863.5,-470"/>
<polygon fill="none" stroke="#2c3e50" points="863.5,-470 863.5,-495 989.5,-495 989.5,-470 863.5,-470"/>
<text text-anchor="start" x="868.5" y="-478.8" font-family="monospace" font-size="14.00" fill="#000000">relaosegrelid</text>
<polygon fill="#ffffff" stroke="none" points="989.5,-470 989.5,-495 1090.5,-495 1090.5,-470 989.5,-470"/>
<polygon fill="none" stroke="#2c3e50" points="989.5,-470 989.5,-495 1090.5,-495 1090.5,-470 989.5,-470"/>
<text text-anchor="start" x="994.5" y="-479.8" font-family="monospace" font-style="italic" font-size="14.00" fill="#95a5a6">oid</text>
<polygon fill="#ffffff" stroke="none" points="863.5,-445 863.5,-470 989.5,-470 989.5,-445 863.5,-445"/>
<polygon fill="none" stroke="#2c3e50" points="863.5,-445 863.5,-470 989.5,-470 989.5,-445 863.5,-445"/>
<text text-anchor="start" x="868.5" y="-453.8" font-family="monospace" font-size="14.00" fill="#000000">relaosegidxid</text>
<polygon fill="#ffffff" stroke="none" points="989.5,-445 989.5,-470 1090.5,-470 1090.5,-445 989.5,-445"/>
<polygon fill="none" stroke="#2c3e50" points="989.5,-445 989.5,-470 1090.5,-470 1090.5,-445 989.5,-445"/>
<text text-anchor="start" x="994.5" y="-454.8" font-family="monospace" font-style="italic" font-size="14.00" fill="#95a5a6">oid</text>
<polygon fill="#ffffff" stroke="none" points="863.5,-420 863.5,-445 989.5,-445 989.5,-420 863.5,-420"/>
<polygon fill="none" stroke="#2c3e50" points="863.5,-420 863.5,-445 989.5,-445 989.5,-420 863.5,-420"/>
<text text-anchor="start" x="868.5" y="-428.8" font-family="monospace" font-size="14.00" fill="#000000">relhasindex</text>
<polygon fill="#ffffff" stroke="none" points="989.5,-420 989.5,-445 1090.5,-445 1090.5,-420 989.5,-420"/>
<polygon fill="none" stroke="#2c3e50" points="989.5,-420 989.5,-445 1090.5,-445 1090.5,-420 989.5,-420"/>
<text text-anchor="start" x="994.5" y="-429.8" font-family="monospace" font-style="italic" font-size="14.00" fill="#95a5a6">boolean</text>
<polygon fill="#ffffff" stroke="none" points="863.5,-395 863.5,-420 989.5,-420 989.5,-395 863.5,-395"/>
<polygon fill="none" stroke="#2c3e50" points="863.5,-395 863.5,-420 989.5,-420 989.5,-395 863.5,-395"/>
<text text-anchor="start" x="868.5" y="-403.8" font-family="monospace" font-size="14.00" fill="#000000">relisshared</text>
<polygon fill="#ffffff" stroke="none" points="989.5,-395 989.5,-420 1090.5,-420 1090.5,-395 989.5,-395"/>
<polygon fill="none" stroke="#2c3e50" points="989.5,-395 989.5,-420 1090.5,-420 1090.5,-395 989.5,-395"/>
<text text-anchor="start" x="994.5" y="-404.8" font-family="monospace" font-style="italic" font-size="14.00" fill="#95a5a6">boolean</text>
<polygon fill="#ffffff" stroke="none" points="863.5,-370 863.5,-395 989.5,-395 989.5,-370 863.5,-370"/>
<polygon fill="none" stroke="#2c3e50" points="863.5,-370 863.5,-395 989.5,-395 989.5,-370 863.5,-370"/>
<text text-anchor="start" x="868.5" y="-378.8" font-family="monospace" font-size="14.00" fill="#000000">relkind</text>
<polygon fill="#ffffff" stroke="none" points="989.5,-370 989.5,-395 1090.5,-395 1090.5,-370 989.5,-370"/>
<polygon fill="none" stroke="#2c3e50" points="989.5,-370 989.5,-395 1090.5,-395 1090.5,-370 989.5,-370"/>
<text text-anchor="start" x="994.5" y="-379.8" font-family="monospace" font-style="italic" font-size="14.00" fill="#95a5a6">quoted_char</text>
<polygon fill="#ffffff" stroke="none" points="863.5,-345 863.5,-370 989.5,-370 989.5,-345 863.5,-345"/>
<polygon fill="none" stroke="#2c3e50" points="863.5,-345 863.5,-370 989.5,-370 989.5,-345 863.5,-345"/>
<text text-anchor="start" x="868.5" y="-353.8" font-family="monospace" font-size="14.00" fill="#000000">relstorage</text>
<polygon fill="#ffffff" stroke="none" points="989.5,-345 989.5,-370 1090.5,-370 1090.5,-345 989.5,-345"/>
<polygon fill="none" stroke="#2c3e50" points="989.5,-345 989.5,-370 1090.5,-370 1090.5,-345 989.5,-345"/>
<text text-anchor="start" x="994.5" y="-354.8" font-family="monospace" font-style="italic" font-size="14.00" fill="#95a5a6">quoted_char</text>
<polygon fill="#ffffff" stroke="none" points="863.5,-320 863.5,-345 989.5,-345 989.5,-320 863.5,-320"/>
<polygon fill="none" stroke="#2c3e50" points="863.5,-320 863.5,-345 989.5,-345 989.5,-320 863.5,-320"/>
<text text-anchor="start" x="868.5" y="-328.8" font-family="monospace" font-size="14.00" fill="#000000">relnatts</text>
<polygon fill="#ffffff" stroke="none" points="989.5,-320 989.5,-345 1090.5,-345 1090.5,-320 989.5,-320"/>
<polygon fill="none" stroke="#2c3e50" points="989.5,-320 989.5,-345 1090.5,-345 1090.5,-320 989.5,-320"/>
<text text-anchor="start" x="994.5" y="-329.8" font-family="monospace" font-style="italic" font-size="14.00" fill="#95a5a6">smallint</text>
<polygon fill="#ffffff" stroke="none" points="863.5,-295 863.5,-320 989.5,-320 989.5,-295 863.5,-295"/>
<polygon fill="none" stroke="#2c3e50" points="863.5,-295 863.5,-320 989.5,-320 989.5,-295 863.5,-295"/>
<text text-anchor="start" x="868.5" y="-303.8" font-family="monospace" font-size="14.00" fill="#000000">relchecks</text>
<polygon fill="#ffffff" stroke="none" points="989.5,-295 989.5,-320 1090.5,-320 1090.5,-295 989.5,-295"/>
<polygon fill="none" stroke="#2c3e50" points="989.5,-295 989.5,-320 1090.5,-320 1090.5,-295 989.5,-295"/>
<text text-anchor="start" x="994.5" y="-304.8" font-family="monospace" font-style="italic" font-size="14.00" fill="#95a5a6">smallint</text>
<polygon fill="#ffffff" stroke="none" points="863.5,-270 863.5,-295 989.5,-295 989.5,-270 863.5,-270"/>
<polygon fill="none" stroke="#2c3e50" points="863.5,-270 863.5,-295 989.5,-295 989.5,-270 863.5,-270"/>
<text text-anchor="start" x="868.5" y="-278.8" font-family="monospace" font-size="14.00" fill="#000000">reltriggers</text>
<polygon fill="#ffffff" stroke="none" points="989.5,-270 989.5,-295 1090.5,-295 1090.5,-270 989.5,-270"/>
<polygon fill="none" stroke="#2c3e50" points="989.5,-270 989.5,-295 1090.5,-295 1090.5,-270 989.5,-270"/>
<text text-anchor="start" x="994.5" y="-279.8" font-family="monospace" font-style="italic" font-size="14.00" fill="#95a5a6">smallint</text>
<polygon fill="#ffffff" stroke="none" points="863.5,-245 863.5,-270 989.5,-270 989.5,-245 863.5,-245"/>
<polygon fill="none" stroke="#2c3e50" points="863.5,-245 863.5,-270 989.5,-270 989.5,-245 863.5,-245"/>
<text text-anchor="start" x="868.5" y="-253.8" font-family="monospace" font-size="14.00" fill="#000000">relukeys</text>
<polygon fill="#ffffff" stroke="none" points="989.5,-245 989.5,-270 1090.5,-270 1090.5,-245 989.5,-245"/>
<polygon fill="none" stroke="#2c3e50" points="989.5,-245 989.5,-270 1090.5,-270 1090.5,-245 989.5,-245"/>
<text text-anchor="start" x="994.5" y="-254.8" font-family="monospace" font-style="italic" font-size="14.00" fill="#95a5a6">smallint</text>
<polygon fill="#ffffff" stroke="none" points="863.5,-220 863.5,-245 989.5,-245 989.5,-220 863.5,-220"/>
<polygon fill="none" stroke="#2c3e50" points="863.5,-220 863.5,-245 989.5,-245 989.5,-220 863.5,-220"/>
<text text-anchor="start" x="868.5" y="-228.8" font-family="monospace" font-size="14.00" fill="#000000">relfkeys</text>
<polygon fill="#ffffff" stroke="none" points="989.5,-220 989.5,-245 1090.5,-245 1090.5,-220 989.5,-220"/>
<polygon fill="none" stroke="#2c3e50" points="989.5,-220 989.5,-245 1090.5,-245 1090.5,-220 989.5,-220"/>
<text text-anchor="start" x="994.5" y="-229.8" font-family="monospace" font-style="italic" font-size="14.00" fill="#95a5a6">smallint</text>
<polygon fill="#ffffff" stroke="none" points="863.5,-195 863.5,-220 989.5,-220 989.5,-195 863.5,-195"/>
<polygon fill="none" stroke="#2c3e50" points="863.5,-195 863.5,-220 989.5,-220 989.5,-195 863.5,-195"/>
<text text-anchor="start" x="868.5" y="-203.8" font-family="monospace" font-size="14.00" fill="#000000">relrefs</text>
<polygon fill="#ffffff" stroke="none" points="989.5,-195 989.5,-220 1090.5,-220 1090.5,-195 989.5,-195"/>
<polygon fill="none" stroke="#2c3e50" points="989.5,-195 989.5,-220 1090.5,-220 1090.5,-195 989.5,-195"/>
<text text-anchor="start" x="994.5" y="-204.8" font-family="monospace" font-style="italic" font-size="14.00" fill="#95a5a6">smallint</text>
<polygon fill="#ffffff" stroke="none" points="863.5,-170 863.5,-195 989.5,-195 989.5,-170 863.5,-170"/>
<polygon fill="none" stroke="#2c3e50" points="863.5,-170 863.5,-195 989.5,-195 989.5,-170 863.5,-170"/>
<text text-anchor="start" x="868.5" y="-178.8" font-family="monospace" font-size="14.00" fill="#000000">relhasoids</text>
<polygon fill="#ffffff" stroke="none" points="989.5,-170 989.5,-195 1090.5,-195 1090.5,-170 989.5,-170"/>
<polygon fill="none" stroke="#2c3e50" points="989.5,-170 989.5,-195 1090.5,-195 1090.5,-170 989.5,-170"/>
<text text-anchor="start" x="994.5" y="-179.8" font-family="monospace" font-style="italic" font-size="14.00" fill="#95a5a6">boolean</text>
<polygon fill="#ffffff" stroke="none" points="863.5,-145 863.5,-170 989.5,-170 989.5,-145 863.5,-145"/>
<polygon fill="none" stroke="#2c3e50" points="863.5,-145 863.5,-170 989.5,-170 989.5,-145 863.5,-145"/>
<text text-anchor="start" x="868.5" y="-153.8" font-family="monospace" font-size="14.00" fill="#000000">relhaspkey</text>
<polygon fill="#ffffff" stroke="none" points="989.5,-145 989.5,-170 1090.5,-170 1090.5,-145 989.5,-145"/>
<polygon fill="none" stroke="#2c3e50" points="989.5,-145 989.5,-170 1090.5,-170 1090.5,-145 989.5,-145"/>
<text text-anchor="start" x="994.5" y="-154.8" font-family="monospace" font-style="italic" font-size="14.00" fill="#95a5a6">boolean</text>
<polygon fill="#ffffff" stroke="none" points="863.5,-120 863.5,-145 989.5,-145 989.5,-120 863.5,-120"/>
<polygon fill="none" stroke="#2c3e50" points="863.5,-120 863.5,-145 989.5,-145 989.5,-120 863.5,-120"/>
<text text-anchor="start" x="868.5" y="-128.8" font-family="monospace" font-size="14.00" fill="#000000">relhasrules</text>
<polygon fill="#ffffff" stroke="none" points="989.5,-120 989.5,-145 1090.5,-145 1090.5,-120 989.5,-120"/>
<polygon fill="none" stroke="#2c3e50" points="989.5,-120 989.5,-145 1090.5,-145 1090.5,-120 989.5,-120"/>
<text text-anchor="start" x="994.5" y="-129.8" font-family="monospace" font-style="italic" font-size="14.00" fill="#95a5a6">boolean</text>
<polygon fill="#ffffff" stroke="none" points="863.5,-95 863.5,-120 989.5,-120 989.5,-95 863.5,-95"/>
<polygon fill="none" stroke="#2c3e50" points="863.5,-95 863.5,-120 989.5,-120 989.5,-95 863.5,-95"/>
<text text-anchor="start" x="868.5" y="-103.8" font-family="monospace" font-size="14.00" fill="#000000">relhassubclass</text>
<polygon fill="#ffffff" stroke="none" points="989.5,-95 989.5,-120 1090.5,-120 1090.5,-95 989.5,-95"/>
<polygon fill="none" stroke="#2c3e50" points="989.5,-95 989.5,-120 1090.5,-120 1090.5,-95 989.5,-95"/>
<text text-anchor="start" x="994.5" y="-104.8" font-family="monospace" font-style="italic" font-size="14.00" fill="#95a5a6">boolean</text>
<polygon fill="#ffffff" stroke="none" points="863.5,-70 863.5,-95 989.5,-95 989.5,-70 863.5,-70"/>
<polygon fill="none" stroke="#2c3e50" points="863.5,-70 863.5,-95 989.5,-95 989.5,-70 863.5,-70"/>
<text text-anchor="start" x="868.5" y="-78.8" font-family="monospace" font-size="14.00" fill="#000000">relfrozenxid</text>
<polygon fill="#ffffff" stroke="none" points="989.5,-70 989.5,-95 1090.5,-95 1090.5,-70 989.5,-70"/>
<polygon fill="none" stroke="#2c3e50" points="989.5,-70 989.5,-95 1090.5,-95 1090.5,-70 989.5,-70"/>
<text text-anchor="start" x="994.5" y="-79.8" font-family="monospace" font-style="italic" font-size="14.00" fill="#95a5a6">xid</text>
<polygon fill="#ffffff" stroke="none" points="863.5,-45 863.5,-70 989.5,-70 989.5,-45 863.5,-45"/>
<polygon fill="none" stroke="#2c3e50" points="863.5,-45 863.5,-70 989.5,-70 989.5,-45 863.5,-45"/>
<text text-anchor="start" x="868.5" y="-53.8" font-family="monospace" font-size="14.00" fill="#000000">relacl</text>
<polygon fill="#ffffff" stroke="none" points="989.5,-45 989.5,-70 1090.5,-70 1090.5,-45 989.5,-45"/>
<polygon fill="none" stroke="#2c3e50" points="989.5,-45 989.5,-70 1090.5,-70 1090.5,-45 989.5,-45"/>
<text text-anchor="start" x="994.5" y="-54.8" font-family="monospace" font-style="italic" font-size="14.00" fill="#95a5a6">aclitem[]</text>
<polygon fill="#ffffff" stroke="none" points="863.5,-20 863.5,-45 989.5,-45 989.5,-20 863.5,-20"/>
<polygon fill="none" stroke="#2c3e50" points="863.5,-20 863.5,-45 989.5,-45 989.5,-20 863.5,-20"/>
<text text-anchor="start" x="868.5" y="-28.8" font-family="monospace" font-size="14.00" fill="#000000">reloptions</text>
<polygon fill="#ffffff" stroke="none" points="989.5,-20 989.5,-45 1090.5,-45 1090.5,-20 989.5,-20"/>
<polygon fill="none" stroke="#2c3e50" points="989.5,-20 989.5,-45 1090.5,-45 1090.5,-20 989.5,-20"/>
<text text-anchor="start" x="994.5" y="-29.8" font-family="monospace" font-style="italic" font-size="14.00" fill="#95a5a6">text[]</text>
</g>
<!-- pg_description&#45;&gt;pg_class -->
<g id="edge1" class="edge"><title>pg_description:classoid_out&#45;&gt;pg_class:oid_in</title>
<path fill="none" stroke="#2c3e50" d="M404.5,-783C604.676,-783 657.213,-783 852.487,-783"/>
<polygon fill="#2c3e50" stroke="#2c3e50" points="852.5,-786.5 862.5,-783 852.5,-779.5 852.5,-786.5"/>
</g>
</g>
</svg>
