<?xml version="1.0" encoding="UTF-8" standalone="no"?>
<!DOCTYPE svg PUBLIC "-//W3C//DTD SVG 1.1//EN"
 "http://www.w3.org/Graphics/SVG/1.1/DTD/svg11.dtd">
<!-- Generated by graphviz version 2.38.0 (20140413.2041)
 -->
<!-- Title: GPDB Pages: 1 -->
<svg width="1274pt" height="1042pt"
 viewBox="0.00 0.00 1274.00 1042.00" xmlns="http://www.w3.org/2000/svg" xmlns:xlink="http://www.w3.org/1999/xlink">
<g id="graph0" class="graph" transform="scale(1 1) rotate(0) translate(36 1006)">
<title>GPDB</title>
<polygon fill="white" stroke="none" points="-36,36 -36,-1006 1238,-1006 1238,36 -36,36"/>
<text text-anchor="middle" x="601" y="-940.4" font-family="Helvetica,sans-Serif" font-size="32.00">Greenplum System Catalog: pg_depend</text>
<g id="clust2" class="cluster"><title>cluster_selected</title>
</g>
<g id="clust3" class="cluster"><title>cluster_to</title>
</g>
<!-- pg_depend -->
<g id="node1" class="node"><title>pg_depend</title>
<polygon fill="#2c3e50" stroke="none" points="194,-833 194,-863 396,-863 396,-833 194,-833"/>
<polygon fill="none" stroke="black" points="194,-833 194,-863 396,-863 396,-833 194,-833"/>
<text text-anchor="start" x="247.5" y="-844.6" font-family="monospace" font-weight="bold" font-size="18.00" fill="#ffffff">pg_depend</text>
<polygon fill="#ffffff" stroke="none" points="194,-808 194,-833 295,-833 295,-808 194,-808"/>
<polygon fill="none" stroke="#2c3e50" points="194,-808 194,-833 295,-833 295,-808 194,-808"/>
<text text-anchor="start" x="199" y="-816.8" font-family="monospace" font-size="14.00" fill="#000000">classid</text>
<polygon fill="#18bc9c" stroke="none" points="295,-808 295,-833 396,-833 396,-808 295,-808"/>
<polygon fill="none" stroke="#2c3e50" points="295,-808 295,-833 396,-833 396,-808 295,-808"/>
<text text-anchor="start" x="300" y="-817.8" font-family="monospace" font-style="italic" font-size="14.00" fill="#ffffff">oid</text>
<polygon fill="#ffffff" stroke="none" points="194,-783 194,-808 295,-808 295,-783 194,-783"/>
<polygon fill="none" stroke="#2c3e50" points="194,-783 194,-808 295,-808 295,-783 194,-783"/>
<text text-anchor="start" x="199" y="-791.8" font-family="monospace" font-size="14.00" fill="#000000">objid</text>
<polygon fill="#ffffff" stroke="none" points="295,-783 295,-808 396,-808 396,-783 295,-783"/>
<polygon fill="none" stroke="#2c3e50" points="295,-783 295,-808 396,-808 396,-783 295,-783"/>
<text text-anchor="start" x="300" y="-792.8" font-family="monospace" font-style="italic" font-size="14.00" fill="#95a5a6">oid</text>
<polygon fill="#ffffff" stroke="none" points="194,-758 194,-783 295,-783 295,-758 194,-758"/>
<polygon fill="none" stroke="#2c3e50" points="194,-758 194,-783 295,-783 295,-758 194,-758"/>
<text text-anchor="start" x="199" y="-766.8" font-family="monospace" font-size="14.00" fill="#000000">objsubid</text>
<polygon fill="#ffffff" stroke="none" points="295,-758 295,-783 396,-783 396,-758 295,-758"/>
<polygon fill="none" stroke="#2c3e50" points="295,-758 295,-783 396,-783 396,-758 295,-758"/>
<text text-anchor="start" x="300" y="-767.8" font-family="monospace" font-style="italic" font-size="14.00" fill="#95a5a6">integer</text>
<polygon fill="#ffffff" stroke="none" points="194,-733 194,-758 295,-758 295,-733 194,-733"/>
<polygon fill="none" stroke="#2c3e50" points="194,-733 194,-758 295,-758 295,-733 194,-733"/>
<text text-anchor="start" x="199" y="-741.8" font-family="monospace" font-size="14.00" fill="#000000">refclassid</text>
<polygon fill="#18bc9c" stroke="none" points="295,-733 295,-758 396,-758 396,-733 295,-733"/>
<polygon fill="none" stroke="#2c3e50" points="295,-733 295,-758 396,-758 396,-733 295,-733"/>
<text text-anchor="start" x="300" y="-742.8" font-family="monospace" font-style="italic" font-size="14.00" fill="#ffffff">oid</text>
<polygon fill="#ffffff" stroke="none" points="194,-708 194,-733 295,-733 295,-708 194,-708"/>
<polygon fill="none" stroke="#2c3e50" points="194,-708 194,-733 295,-733 295,-708 194,-708"/>
<text text-anchor="start" x="199" y="-716.8" font-family="monospace" font-size="14.00" fill="#000000">refobjid</text>
<polygon fill="#ffffff" stroke="none" points="295,-708 295,-733 396,-733 396,-708 295,-708"/>
<polygon fill="none" stroke="#2c3e50" points="295,-708 295,-733 396,-733 396,-708 295,-708"/>
<text text-anchor="start" x="300" y="-717.8" font-family="monospace" font-style="italic" font-size="14.00" fill="#95a5a6">oid</text>
<polygon fill="#ffffff" stroke="none" points="194,-683 194,-708 295,-708 295,-683 194,-683"/>
<polygon fill="none" stroke="#2c3e50" points="194,-683 194,-708 295,-708 295,-683 194,-683"/>
<text text-anchor="start" x="199" y="-691.8" font-family="monospace" font-size="14.00" fill="#000000">refobjsubid</text>
<polygon fill="#ffffff" stroke="none" points="295,-683 295,-708 396,-708 396,-683 295,-683"/>
<polygon fill="none" stroke="#2c3e50" points="295,-683 295,-708 396,-708 396,-683 295,-683"/>
<text text-anchor="start" x="300" y="-692.8" font-family="monospace" font-style="italic" font-size="14.00" fill="#95a5a6">integer</text>
<polygon fill="#ffffff" stroke="none" points="194,-658 194,-683 295,-683 295,-658 194,-658"/>
<polygon fill="none" stroke="#2c3e50" points="194,-658 194,-683 295,-683 295,-658 194,-658"/>
<text text-anchor="start" x="199" y="-666.8" font-family="monospace" font-size="14.00" fill="#000000">deptype</text>
<polygon fill="#ffffff" stroke="none" points="295,-658 295,-683 396,-683 396,-658 295,-658"/>
<polygon fill="none" stroke="#2c3e50" points="295,-658 295,-683 396,-683 396,-658 295,-658"/>
<text text-anchor="start" x="300" y="-667.8" font-family="monospace" font-style="italic" font-size="14.00" fill="#95a5a6">quoted_char</text>
</g>
<!-- pg_class -->
<g id="node2" class="node"><title>pg_class</title>
<polygon fill="#2c3e50" stroke="none" points="793.5,-795 793.5,-825 1020.5,-825 1020.5,-795 793.5,-795"/>
<polygon fill="none" stroke="black" points="793.5,-795 793.5,-825 1020.5,-825 1020.5,-795 793.5,-795"/>
<text text-anchor="start" x="864.5" y="-806.6" font-family="monospace" font-weight="bold" font-size="18.00" fill="#ffffff">pg_class</text>
<polygon fill="#18bc9c" stroke="none" points="793.5,-770 793.5,-795 919.5,-795 919.5,-770 793.5,-770"/>
<polygon fill="none" stroke="#2c3e50" points="793.5,-770 793.5,-795 919.5,-795 919.5,-770 793.5,-770"/>
<text text-anchor="start" x="798.5" y="-778.8" font-family="monospace" font-size="14.00" fill="#ffffff">oid</text>
<polygon fill="#ffffff" stroke="none" points="919.5,-770 919.5,-795 1020.5,-795 1020.5,-770 919.5,-770"/>
<polygon fill="none" stroke="#2c3e50" points="919.5,-770 919.5,-795 1020.5,-795 1020.5,-770 919.5,-770"/>
<text text-anchor="start" x="924.5" y="-779.8" font-family="monospace" font-style="italic" font-size="14.00" fill="#95a5a6">oid</text>
<polygon fill="#ffffff" stroke="none" points="793.5,-745 793.5,-770 919.5,-770 919.5,-745 793.5,-745"/>
<polygon fill="none" stroke="#2c3e50" points="793.5,-745 793.5,-770 919.5,-770 919.5,-745 793.5,-745"/>
<text text-anchor="start" x="798.5" y="-753.8" font-family="monospace" font-size="14.00" fill="#000000">relname</text>
<polygon fill="#ffffff" stroke="none" points="919.5,-745 919.5,-770 1020.5,-770 1020.5,-745 919.5,-745"/>
<polygon fill="none" stroke="#2c3e50" points="919.5,-745 919.5,-770 1020.5,-770 1020.5,-745 919.5,-745"/>
<text text-anchor="start" x="924.5" y="-754.8" font-family="monospace" font-style="italic" font-size="14.00" fill="#95a5a6">name</text>
<polygon fill="#ffffff" stroke="none" points="793.5,-720 793.5,-745 919.5,-745 919.5,-720 793.5,-720"/>
<polygon fill="none" stroke="#2c3e50" points="793.5,-720 793.5,-745 919.5,-745 919.5,-720 793.5,-720"/>
<text text-anchor="start" x="798.5" y="-728.8" font-family="monospace" font-size="14.00" fill="#000000">relnamespace</text>
<polygon fill="#ffffff" stroke="none" points="919.5,-720 919.5,-745 1020.5,-745 1020.5,-720 919.5,-720"/>
<polygon fill="none" stroke="#2c3e50" points="919.5,-720 919.5,-745 1020.5,-745 1020.5,-720 919.5,-720"/>
<text text-anchor="start" x="924.5" y="-729.8" font-family="monospace" font-style="italic" font-size="14.00" fill="#95a5a6">oid</text>
<polygon fill="#ffffff" stroke="none" points="793.5,-695 793.5,-720 919.5,-720 919.5,-695 793.5,-695"/>
<polygon fill="none" stroke="#2c3e50" points="793.5,-695 793.5,-720 919.5,-720 919.5,-695 793.5,-695"/>
<text text-anchor="start" x="798.5" y="-703.8" font-family="monospace" font-size="14.00" fill="#000000">reltype</text>
<polygon fill="#ffffff" stroke="none" points="919.5,-695 919.5,-720 1020.5,-720 1020.5,-695 919.5,-695"/>
<polygon fill="none" stroke="#2c3e50" points="919.5,-695 919.5,-720 1020.5,-720 1020.5,-695 919.5,-695"/>
<text text-anchor="start" x="924.5" y="-704.8" font-family="monospace" font-style="italic" font-size="14.00" fill="#95a5a6">oid</text>
<polygon fill="#ffffff" stroke="none" points="793.5,-670 793.5,-695 919.5,-695 919.5,-670 793.5,-670"/>
<polygon fill="none" stroke="#2c3e50" points="793.5,-670 793.5,-695 919.5,-695 919.5,-670 793.5,-670"/>
<text text-anchor="start" x="798.5" y="-678.8" font-family="monospace" font-size="14.00" fill="#000000">relowner</text>
<polygon fill="#ffffff" stroke="none" points="919.5,-670 919.5,-695 1020.5,-695 1020.5,-670 919.5,-670"/>
<polygon fill="none" stroke="#2c3e50" points="919.5,-670 919.5,-695 1020.5,-695 1020.5,-670 919.5,-670"/>
<text text-anchor="start" x="924.5" y="-679.8" font-family="monospace" font-style="italic" font-size="14.00" fill="#95a5a6">oid</text>
<polygon fill="#ffffff" stroke="none" points="793.5,-645 793.5,-670 919.5,-670 919.5,-645 793.5,-645"/>
<polygon fill="none" stroke="#2c3e50" points="793.5,-645 793.5,-670 919.5,-670 919.5,-645 793.5,-645"/>
<text text-anchor="start" x="798.5" y="-653.8" font-family="monospace" font-size="14.00" fill="#000000">relam</text>
<polygon fill="#ffffff" stroke="none" points="919.5,-645 919.5,-670 1020.5,-670 1020.5,-645 919.5,-645"/>
<polygon fill="none" stroke="#2c3e50" points="919.5,-645 919.5,-670 1020.5,-670 1020.5,-645 919.5,-645"/>
<text text-anchor="start" x="924.5" y="-654.8" font-family="monospace" font-style="italic" font-size="14.00" fill="#95a5a6">oid</text>
<polygon fill="#ffffff" stroke="none" points="793.5,-620 793.5,-645 919.5,-645 919.5,-620 793.5,-620"/>
<polygon fill="none" stroke="#2c3e50" points="793.5,-620 793.5,-645 919.5,-645 919.5,-620 793.5,-620"/>
<text text-anchor="start" x="798.5" y="-628.8" font-family="monospace" font-size="14.00" fill="#000000">relfilenode</text>
<polygon fill="#ffffff" stroke="none" points="919.5,-620 919.5,-645 1020.5,-645 1020.5,-620 919.5,-620"/>
<polygon fill="none" stroke="#2c3e50" points="919.5,-620 919.5,-645 1020.5,-645 1020.5,-620 919.5,-620"/>
<text text-anchor="start" x="924.5" y="-629.8" font-family="monospace" font-style="italic" font-size="14.00" fill="#95a5a6">oid</text>
<polygon fill="#ffffff" stroke="none" points="793.5,-595 793.5,-620 919.5,-620 919.5,-595 793.5,-595"/>
<polygon fill="none" stroke="#2c3e50" points="793.5,-595 793.5,-620 919.5,-620 919.5,-595 793.5,-595"/>
<text text-anchor="start" x="798.5" y="-603.8" font-family="monospace" font-size="14.00" fill="#000000">reltablespace</text>
<polygon fill="#ffffff" stroke="none" points="919.5,-595 919.5,-620 1020.5,-620 1020.5,-595 919.5,-595"/>
<polygon fill="none" stroke="#2c3e50" points="919.5,-595 919.5,-620 1020.5,-620 1020.5,-595 919.5,-595"/>
<text text-anchor="start" x="924.5" y="-604.8" font-family="monospace" font-style="italic" font-size="14.00" fill="#95a5a6">oid</text>
<polygon fill="#ffffff" stroke="none" points="793.5,-570 793.5,-595 919.5,-595 919.5,-570 793.5,-570"/>
<polygon fill="none" stroke="#2c3e50" points="793.5,-570 793.5,-595 919.5,-595 919.5,-570 793.5,-570"/>
<text text-anchor="start" x="798.5" y="-578.8" font-family="monospace" font-size="14.00" fill="#000000">relpages</text>
<polygon fill="#ffffff" stroke="none" points="919.5,-570 919.5,-595 1020.5,-595 1020.5,-570 919.5,-570"/>
<polygon fill="none" stroke="#2c3e50" points="919.5,-570 919.5,-595 1020.5,-595 1020.5,-570 919.5,-570"/>
<text text-anchor="start" x="924.5" y="-579.8" font-family="monospace" font-style="italic" font-size="14.00" fill="#95a5a6">integer</text>
<polygon fill="#ffffff" stroke="none" points="793.5,-545 793.5,-570 919.5,-570 919.5,-545 793.5,-545"/>
<polygon fill="none" stroke="#2c3e50" points="793.5,-545 793.5,-570 919.5,-570 919.5,-545 793.5,-545"/>
<text text-anchor="start" x="798.5" y="-553.8" font-family="monospace" font-size="14.00" fill="#000000">reltuples</text>
<polygon fill="#ffffff" stroke="none" points="919.5,-545 919.5,-570 1020.5,-570 1020.5,-545 919.5,-545"/>
<polygon fill="none" stroke="#2c3e50" points="919.5,-545 919.5,-570 1020.5,-570 1020.5,-545 919.5,-545"/>
<text text-anchor="start" x="924.5" y="-554.8" font-family="monospace" font-style="italic" font-size="14.00" fill="#95a5a6">real</text>
<polygon fill="#ffffff" stroke="none" points="793.5,-520 793.5,-545 919.5,-545 919.5,-520 793.5,-520"/>
<polygon fill="none" stroke="#2c3e50" points="793.5,-520 793.5,-545 919.5,-545 919.5,-520 793.5,-520"/>
<text text-anchor="start" x="798.5" y="-528.8" font-family="monospace" font-size="14.00" fill="#000000">reltoastrelid</text>
<polygon fill="#ffffff" stroke="none" points="919.5,-520 919.5,-545 1020.5,-545 1020.5,-520 919.5,-520"/>
<polygon fill="none" stroke="#2c3e50" points="919.5,-520 919.5,-545 1020.5,-545 1020.5,-520 919.5,-520"/>
<text text-anchor="start" x="924.5" y="-529.8" font-family="monospace" font-style="italic" font-size="14.00" fill="#95a5a6">oid</text>
<polygon fill="#ffffff" stroke="none" points="793.5,-495 793.5,-520 919.5,-520 919.5,-495 793.5,-495"/>
<polygon fill="none" stroke="#2c3e50" points="793.5,-495 793.5,-520 919.5,-520 919.5,-495 793.5,-495"/>
<text text-anchor="start" x="798.5" y="-503.8" font-family="monospace" font-size="14.00" fill="#000000">reltoastidxid</text>
<polygon fill="#ffffff" stroke="none" points="919.5,-495 919.5,-520 1020.5,-520 1020.5,-495 919.5,-495"/>
<polygon fill="none" stroke="#2c3e50" points="919.5,-495 919.5,-520 1020.5,-520 1020.5,-495 919.5,-495"/>
<text text-anchor="start" x="924.5" y="-504.8" font-family="monospace" font-style="italic" font-size="14.00" fill="#95a5a6">oid</text>
<polygon fill="#ffffff" stroke="none" points="793.5,-470 793.5,-495 919.5,-495 919.5,-470 793.5,-470"/>
<polygon fill="none" stroke="#2c3e50" points="793.5,-470 793.5,-495 919.5,-495 919.5,-470 793.5,-470"/>
<text text-anchor="start" x="798.5" y="-478.8" font-family="monospace" font-size="14.00" fill="#000000">relaosegrelid</text>
<polygon fill="#ffffff" stroke="none" points="919.5,-470 919.5,-495 1020.5,-495 1020.5,-470 919.5,-470"/>
<polygon fill="none" stroke="#2c3e50" points="919.5,-470 919.5,-495 1020.5,-495 1020.5,-470 919.5,-470"/>
<text text-anchor="start" x="924.5" y="-479.8" font-family="monospace" font-style="italic" font-size="14.00" fill="#95a5a6">oid</text>
<polygon fill="#ffffff" stroke="none" points="793.5,-445 793.5,-470 919.5,-470 919.5,-445 793.5,-445"/>
<polygon fill="none" stroke="#2c3e50" points="793.5,-445 793.5,-470 919.5,-470 919.5,-445 793.5,-445"/>
<text text-anchor="start" x="798.5" y="-453.8" font-family="monospace" font-size="14.00" fill="#000000">relaosegidxid</text>
<polygon fill="#ffffff" stroke="none" points="919.5,-445 919.5,-470 1020.5,-470 1020.5,-445 919.5,-445"/>
<polygon fill="none" stroke="#2c3e50" points="919.5,-445 919.5,-470 1020.5,-470 1020.5,-445 919.5,-445"/>
<text text-anchor="start" x="924.5" y="-454.8" font-family="monospace" font-style="italic" font-size="14.00" fill="#95a5a6">oid</text>
<polygon fill="#ffffff" stroke="none" points="793.5,-420 793.5,-445 919.5,-445 919.5,-420 793.5,-420"/>
<polygon fill="none" stroke="#2c3e50" points="793.5,-420 793.5,-445 919.5,-445 919.5,-420 793.5,-420"/>
<text text-anchor="start" x="798.5" y="-428.8" font-family="monospace" font-size="14.00" fill="#000000">relhasindex</text>
<polygon fill="#ffffff" stroke="none" points="919.5,-420 919.5,-445 1020.5,-445 1020.5,-420 919.5,-420"/>
<polygon fill="none" stroke="#2c3e50" points="919.5,-420 919.5,-445 1020.5,-445 1020.5,-420 919.5,-420"/>
<text text-anchor="start" x="924.5" y="-429.8" font-family="monospace" font-style="italic" font-size="14.00" fill="#95a5a6">boolean</text>
<polygon fill="#ffffff" stroke="none" points="793.5,-395 793.5,-420 919.5,-420 919.5,-395 793.5,-395"/>
<polygon fill="none" stroke="#2c3e50" points="793.5,-395 793.5,-420 919.5,-420 919.5,-395 793.5,-395"/>
<text text-anchor="start" x="798.5" y="-403.8" font-family="monospace" font-size="14.00" fill="#000000">relisshared</text>
<polygon fill="#ffffff" stroke="none" points="919.5,-395 919.5,-420 1020.5,-420 1020.5,-395 919.5,-395"/>
<polygon fill="none" stroke="#2c3e50" points="919.5,-395 919.5,-420 1020.5,-420 1020.5,-395 919.5,-395"/>
<text text-anchor="start" x="924.5" y="-404.8" font-family="monospace" font-style="italic" font-size="14.00" fill="#95a5a6">boolean</text>
<polygon fill="#ffffff" stroke="none" points="793.5,-370 793.5,-395 919.5,-395 919.5,-370 793.5,-370"/>
<polygon fill="none" stroke="#2c3e50" points="793.5,-370 793.5,-395 919.5,-395 919.5,-370 793.5,-370"/>
<text text-anchor="start" x="798.5" y="-378.8" font-family="monospace" font-size="14.00" fill="#000000">relkind</text>
<polygon fill="#ffffff" stroke="none" points="919.5,-370 919.5,-395 1020.5,-395 1020.5,-370 919.5,-370"/>
<polygon fill="none" stroke="#2c3e50" points="919.5,-370 919.5,-395 1020.5,-395 1020.5,-370 919.5,-370"/>
<text text-anchor="start" x="924.5" y="-379.8" font-family="monospace" font-style="italic" font-size="14.00" fill="#95a5a6">quoted_char</text>
<polygon fill="#ffffff" stroke="none" points="793.5,-345 793.5,-370 919.5,-370 919.5,-345 793.5,-345"/>
<polygon fill="none" stroke="#2c3e50" points="793.5,-345 793.5,-370 919.5,-370 919.5,-345 793.5,-345"/>
<text text-anchor="start" x="798.5" y="-353.8" font-family="monospace" font-size="14.00" fill="#000000">relstorage</text>
<polygon fill="#ffffff" stroke="none" points="919.5,-345 919.5,-370 1020.5,-370 1020.5,-345 919.5,-345"/>
<polygon fill="none" stroke="#2c3e50" points="919.5,-345 919.5,-370 1020.5,-370 1020.5,-345 919.5,-345"/>
<text text-anchor="start" x="924.5" y="-354.8" font-family="monospace" font-style="italic" font-size="14.00" fill="#95a5a6">quoted_char</text>
<polygon fill="#ffffff" stroke="none" points="793.5,-320 793.5,-345 919.5,-345 919.5,-320 793.5,-320"/>
<polygon fill="none" stroke="#2c3e50" points="793.5,-320 793.5,-345 919.5,-345 919.5,-320 793.5,-320"/>
<text text-anchor="start" x="798.5" y="-328.8" font-family="monospace" font-size="14.00" fill="#000000">relnatts</text>
<polygon fill="#ffffff" stroke="none" points="919.5,-320 919.5,-345 1020.5,-345 1020.5,-320 919.5,-320"/>
<polygon fill="none" stroke="#2c3e50" points="919.5,-320 919.5,-345 1020.5,-345 1020.5,-320 919.5,-320"/>
<text text-anchor="start" x="924.5" y="-329.8" font-family="monospace" font-style="italic" font-size="14.00" fill="#95a5a6">smallint</text>
<polygon fill="#ffffff" stroke="none" points="793.5,-295 793.5,-320 919.5,-320 919.5,-295 793.5,-295"/>
<polygon fill="none" stroke="#2c3e50" points="793.5,-295 793.5,-320 919.5,-320 919.5,-295 793.5,-295"/>
<text text-anchor="start" x="798.5" y="-303.8" font-family="monospace" font-size="14.00" fill="#000000">relchecks</text>
<polygon fill="#ffffff" stroke="none" points="919.5,-295 919.5,-320 1020.5,-320 1020.5,-295 919.5,-295"/>
<polygon fill="none" stroke="#2c3e50" points="919.5,-295 919.5,-320 1020.5,-320 1020.5,-295 919.5,-295"/>
<text text-anchor="start" x="924.5" y="-304.8" font-family="monospace" font-style="italic" font-size="14.00" fill="#95a5a6">smallint</text>
<polygon fill="#ffffff" stroke="none" points="793.5,-270 793.5,-295 919.5,-295 919.5,-270 793.5,-270"/>
<polygon fill="none" stroke="#2c3e50" points="793.5,-270 793.5,-295 919.5,-295 919.5,-270 793.5,-270"/>
<text text-anchor="start" x="798.5" y="-278.8" font-family="monospace" font-size="14.00" fill="#000000">reltriggers</text>
<polygon fill="#ffffff" stroke="none" points="919.5,-270 919.5,-295 1020.5,-295 1020.5,-270 919.5,-270"/>
<polygon fill="none" stroke="#2c3e50" points="919.5,-270 919.5,-295 1020.5,-295 1020.5,-270 919.5,-270"/>
<text text-anchor="start" x="924.5" y="-279.8" font-family="monospace" font-style="italic" font-size="14.00" fill="#95a5a6">smallint</text>
<polygon fill="#ffffff" stroke="none" points="793.5,-245 793.5,-270 919.5,-270 919.5,-245 793.5,-245"/>
<polygon fill="none" stroke="#2c3e50" points="793.5,-245 793.5,-270 919.5,-270 919.5,-245 793.5,-245"/>
<text text-anchor="start" x="798.5" y="-253.8" font-family="monospace" font-size="14.00" fill="#000000">relukeys</text>
<polygon fill="#ffffff" stroke="none" points="919.5,-245 919.5,-270 1020.5,-270 1020.5,-245 919.5,-245"/>
<polygon fill="none" stroke="#2c3e50" points="919.5,-245 919.5,-270 1020.5,-270 1020.5,-245 919.5,-245"/>
<text text-anchor="start" x="924.5" y="-254.8" font-family="monospace" font-style="italic" font-size="14.00" fill="#95a5a6">smallint</text>
<polygon fill="#ffffff" stroke="none" points="793.5,-220 793.5,-245 919.5,-245 919.5,-220 793.5,-220"/>
<polygon fill="none" stroke="#2c3e50" points="793.5,-220 793.5,-245 919.5,-245 919.5,-220 793.5,-220"/>
<text text-anchor="start" x="798.5" y="-228.8" font-family="monospace" font-size="14.00" fill="#000000">relfkeys</text>
<polygon fill="#ffffff" stroke="none" points="919.5,-220 919.5,-245 1020.5,-245 1020.5,-220 919.5,-220"/>
<polygon fill="none" stroke="#2c3e50" points="919.5,-220 919.5,-245 1020.5,-245 1020.5,-220 919.5,-220"/>
<text text-anchor="start" x="924.5" y="-229.8" font-family="monospace" font-style="italic" font-size="14.00" fill="#95a5a6">smallint</text>
<polygon fill="#ffffff" stroke="none" points="793.5,-195 793.5,-220 919.5,-220 919.5,-195 793.5,-195"/>
<polygon fill="none" stroke="#2c3e50" points="793.5,-195 793.5,-220 919.5,-220 919.5,-195 793.5,-195"/>
<text text-anchor="start" x="798.5" y="-203.8" font-family="monospace" font-size="14.00" fill="#000000">relrefs</text>
<polygon fill="#ffffff" stroke="none" points="919.5,-195 919.5,-220 1020.5,-220 1020.5,-195 919.5,-195"/>
<polygon fill="none" stroke="#2c3e50" points="919.5,-195 919.5,-220 1020.5,-220 1020.5,-195 919.5,-195"/>
<text text-anchor="start" x="924.5" y="-204.8" font-family="monospace" font-style="italic" font-size="14.00" fill="#95a5a6">smallint</text>
<polygon fill="#ffffff" stroke="none" points="793.5,-170 793.5,-195 919.5,-195 919.5,-170 793.5,-170"/>
<polygon fill="none" stroke="#2c3e50" points="793.5,-170 793.5,-195 919.5,-195 919.5,-170 793.5,-170"/>
<text text-anchor="start" x="798.5" y="-178.8" font-family="monospace" font-size="14.00" fill="#000000">relhasoids</text>
<polygon fill="#ffffff" stroke="none" points="919.5,-170 919.5,-195 1020.5,-195 1020.5,-170 919.5,-170"/>
<polygon fill="none" stroke="#2c3e50" points="919.5,-170 919.5,-195 1020.5,-195 1020.5,-170 919.5,-170"/>
<text text-anchor="start" x="924.5" y="-179.8" font-family="monospace" font-style="italic" font-size="14.00" fill="#95a5a6">boolean</text>
<polygon fill="#ffffff" stroke="none" points="793.5,-145 793.5,-170 919.5,-170 919.5,-145 793.5,-145"/>
<polygon fill="none" stroke="#2c3e50" points="793.5,-145 793.5,-170 919.5,-170 919.5,-145 793.5,-145"/>
<text text-anchor="start" x="798.5" y="-153.8" font-family="monospace" font-size="14.00" fill="#000000">relhaspkey</text>
<polygon fill="#ffffff" stroke="none" points="919.5,-145 919.5,-170 1020.5,-170 1020.5,-145 919.5,-145"/>
<polygon fill="none" stroke="#2c3e50" points="919.5,-145 919.5,-170 1020.5,-170 1020.5,-145 919.5,-145"/>
<text text-anchor="start" x="924.5" y="-154.8" font-family="monospace" font-style="italic" font-size="14.00" fill="#95a5a6">boolean</text>
<polygon fill="#ffffff" stroke="none" points="793.5,-120 793.5,-145 919.5,-145 919.5,-120 793.5,-120"/>
<polygon fill="none" stroke="#2c3e50" points="793.5,-120 793.5,-145 919.5,-145 919.5,-120 793.5,-120"/>
<text text-anchor="start" x="798.5" y="-128.8" font-family="monospace" font-size="14.00" fill="#000000">relhasrules</text>
<polygon fill="#ffffff" stroke="none" points="919.5,-120 919.5,-145 1020.5,-145 1020.5,-120 919.5,-120"/>
<polygon fill="none" stroke="#2c3e50" points="919.5,-120 919.5,-145 1020.5,-145 1020.5,-120 919.5,-120"/>
<text text-anchor="start" x="924.5" y="-129.8" font-family="monospace" font-style="italic" font-size="14.00" fill="#95a5a6">boolean</text>
<polygon fill="#ffffff" stroke="none" points="793.5,-95 793.5,-120 919.5,-120 919.5,-95 793.5,-95"/>
<polygon fill="none" stroke="#2c3e50" points="793.5,-95 793.5,-120 919.5,-120 919.5,-95 793.5,-95"/>
<text text-anchor="start" x="798.5" y="-103.8" font-family="monospace" font-size="14.00" fill="#000000">relhassubclass</text>
<polygon fill="#ffffff" stroke="none" points="919.5,-95 919.5,-120 1020.5,-120 1020.5,-95 919.5,-95"/>
<polygon fill="none" stroke="#2c3e50" points="919.5,-95 919.5,-120 1020.5,-120 1020.5,-95 919.5,-95"/>
<text text-anchor="start" x="924.5" y="-104.8" font-family="monospace" font-style="italic" font-size="14.00" fill="#95a5a6">boolean</text>
<polygon fill="#ffffff" stroke="none" points="793.5,-70 793.5,-95 919.5,-95 919.5,-70 793.5,-70"/>
<polygon fill="none" stroke="#2c3e50" points="793.5,-70 793.5,-95 919.5,-95 919.5,-70 793.5,-70"/>
<text text-anchor="start" x="798.5" y="-78.8" font-family="monospace" font-size="14.00" fill="#000000">relfrozenxid</text>
<polygon fill="#ffffff" stroke="none" points="919.5,-70 919.5,-95 1020.5,-95 1020.5,-70 919.5,-70"/>
<polygon fill="none" stroke="#2c3e50" points="919.5,-70 919.5,-95 1020.5,-95 1020.5,-70 919.5,-70"/>
<text text-anchor="start" x="924.5" y="-79.8" font-family="monospace" font-style="italic" font-size="14.00" fill="#95a5a6">xid</text>
<polygon fill="#ffffff" stroke="none" points="793.5,-45 793.5,-70 919.5,-70 919.5,-45 793.5,-45"/>
<polygon fill="none" stroke="#2c3e50" points="793.5,-45 793.5,-70 919.5,-70 919.5,-45 793.5,-45"/>
<text text-anchor="start" x="798.5" y="-53.8" font-family="monospace" font-size="14.00" fill="#000000">relacl</text>
<polygon fill="#ffffff" stroke="none" points="919.5,-45 919.5,-70 1020.5,-70 1020.5,-45 919.5,-45"/>
<polygon fill="none" stroke="#2c3e50" points="919.5,-45 919.5,-70 1020.5,-70 1020.5,-45 919.5,-45"/>
<text text-anchor="start" x="924.5" y="-54.8" font-family="monospace" font-style="italic" font-size="14.00" fill="#95a5a6">aclitem[]</text>
<polygon fill="#ffffff" stroke="none" points="793.5,-20 793.5,-45 919.5,-45 919.5,-20 793.5,-20"/>
<polygon fill="none" stroke="#2c3e50" points="793.5,-20 793.5,-45 919.5,-45 919.5,-20 793.5,-20"/>
<text text-anchor="start" x="798.5" y="-28.8" font-family="monospace" font-size="14.00" fill="#000000">reloptions</text>
<polygon fill="#ffffff" stroke="none" points="919.5,-20 919.5,-45 1020.5,-45 1020.5,-20 919.5,-20"/>
<polygon fill="none" stroke="#2c3e50" points="919.5,-20 919.5,-45 1020.5,-45 1020.5,-20 919.5,-20"/>
<text text-anchor="start" x="924.5" y="-29.8" font-family="monospace" font-style="italic" font-size="14.00" fill="#95a5a6">text[]</text>
</g>
<!-- pg_depend&#45;&gt;pg_class -->
<g id="edge1" class="edge"><title>pg_depend:classid_out&#45;&gt;pg_class:oid_in</title>
<path fill="none" stroke="#2c3e50" d="M397,-821C570.138,-821 614.208,-784.47 782.305,-783.043"/>
<polygon fill="#2c3e50" stroke="#2c3e50" points="782.515,-786.542 792.5,-783 782.485,-779.542 782.515,-786.542"/>
</g>
<!-- pg_depend&#45;&gt;pg_class -->
<g id="edge2" class="edge"><title>pg_depend:refclassid_out&#45;&gt;pg_class:oid_in</title>
<path fill="none" stroke="#2c3e50" d="M397,-745C570.138,-745 614.208,-781.53 782.305,-782.957"/>
<polygon fill="#2c3e50" stroke="#2c3e50" points="782.485,-786.458 792.5,-783 782.515,-779.458 782.485,-786.458"/>
</g>
</g>
</svg>
