<?xml version="1.0" encoding="UTF-8" standalone="no"?>
<!DOCTYPE svg PUBLIC "-//W3C//DTD SVG 1.1//EN"
 "http://www.w3.org/Graphics/SVG/1.1/DTD/svg11.dtd">
<!-- Generated by graphviz version 2.38.0 (20140413.2041)
 -->
<!-- Title: GPDB Pages: 1 -->
<svg width="1284pt" height="1004pt"
 viewBox="0.00 0.00 1284.00 1004.00" xmlns="http://www.w3.org/2000/svg" xmlns:xlink="http://www.w3.org/1999/xlink">
<g id="graph0" class="graph" transform="scale(1 1) rotate(0) translate(36 968)">
<title>GPDB</title>
<polygon fill="white" stroke="none" points="-36,36 -36,-968 1248,-968 1248,36 -36,36"/>
<text text-anchor="middle" x="606" y="-902.4" font-family="Helvetica,sans-Serif" font-size="32.00">Greenplum System Catalog: pg_exttable</text>
<g id="clust2" class="cluster"><title>cluster_selected</title>
</g>
<g id="clust3" class="cluster"><title>cluster_to</title>
</g>
<!-- pg_exttable -->
<g id="node1" class="node"><title>pg_exttable</title>
<polygon fill="#2c3e50" stroke="none" points="180.5,-795 180.5,-825 415.5,-825 415.5,-795 180.5,-795"/>
<polygon fill="none" stroke="black" points="180.5,-795 180.5,-825 415.5,-825 415.5,-795 180.5,-795"/>
<text text-anchor="start" x="240" y="-806.6" font-family="monospace" font-weight="bold" font-size="18.00" fill="#ffffff">pg_exttable</text>
<polygon fill="#ffffff" stroke="none" points="180.5,-770 180.5,-795 314.5,-795 314.5,-770 180.5,-770"/>
<polygon fill="none" stroke="#2c3e50" points="180.5,-770 180.5,-795 314.5,-795 314.5,-770 180.5,-770"/>
<text text-anchor="start" x="185.5" y="-778.8" font-family="monospace" font-size="14.00" fill="#000000">reloid</text>
<polygon fill="#18bc9c" stroke="none" points="314.5,-770 314.5,-795 415.5,-795 415.5,-770 314.5,-770"/>
<polygon fill="none" stroke="#2c3e50" points="314.5,-770 314.5,-795 415.5,-795 415.5,-770 314.5,-770"/>
<text text-anchor="start" x="319.5" y="-779.8" font-family="monospace" font-style="italic" font-size="14.00" fill="#ffffff">oid</text>
<polygon fill="#ffffff" stroke="none" points="180.5,-745 180.5,-770 314.5,-770 314.5,-745 180.5,-745"/>
<polygon fill="none" stroke="#2c3e50" points="180.5,-745 180.5,-770 314.5,-770 314.5,-745 180.5,-745"/>
<text text-anchor="start" x="185.5" y="-753.8" font-family="monospace" font-size="14.00" fill="#000000">location</text>
<polygon fill="#ffffff" stroke="none" points="314.5,-745 314.5,-770 415.5,-770 415.5,-745 314.5,-745"/>
<polygon fill="none" stroke="#2c3e50" points="314.5,-745 314.5,-770 415.5,-770 415.5,-745 314.5,-745"/>
<text text-anchor="start" x="319.5" y="-754.8" font-family="monospace" font-style="italic" font-size="14.00" fill="#95a5a6">text[]</text>
<polygon fill="#ffffff" stroke="none" points="180.5,-720 180.5,-745 314.5,-745 314.5,-720 180.5,-720"/>
<polygon fill="none" stroke="#2c3e50" points="180.5,-720 180.5,-745 314.5,-745 314.5,-720 180.5,-720"/>
<text text-anchor="start" x="185.5" y="-728.8" font-family="monospace" font-size="14.00" fill="#000000">fmttype</text>
<polygon fill="#ffffff" stroke="none" points="314.5,-720 314.5,-745 415.5,-745 415.5,-720 314.5,-720"/>
<polygon fill="none" stroke="#2c3e50" points="314.5,-720 314.5,-745 415.5,-745 415.5,-720 314.5,-720"/>
<text text-anchor="start" x="319.5" y="-729.8" font-family="monospace" font-style="italic" font-size="14.00" fill="#95a5a6">quoted_char</text>
<polygon fill="#ffffff" stroke="none" points="180.5,-695 180.5,-720 314.5,-720 314.5,-695 180.5,-695"/>
<polygon fill="none" stroke="#2c3e50" points="180.5,-695 180.5,-720 314.5,-720 314.5,-695 180.5,-695"/>
<text text-anchor="start" x="185.5" y="-703.8" font-family="monospace" font-size="14.00" fill="#000000">fmtopts</text>
<polygon fill="#ffffff" stroke="none" points="314.5,-695 314.5,-720 415.5,-720 415.5,-695 314.5,-695"/>
<polygon fill="none" stroke="#2c3e50" points="314.5,-695 314.5,-720 415.5,-720 415.5,-695 314.5,-695"/>
<text text-anchor="start" x="319.5" y="-704.8" font-family="monospace" font-style="italic" font-size="14.00" fill="#95a5a6">text</text>
<polygon fill="#ffffff" stroke="none" points="180.5,-670 180.5,-695 314.5,-695 314.5,-670 180.5,-670"/>
<polygon fill="none" stroke="#2c3e50" points="180.5,-670 180.5,-695 314.5,-695 314.5,-670 180.5,-670"/>
<text text-anchor="start" x="185.5" y="-678.8" font-family="monospace" font-size="14.00" fill="#000000">command</text>
<polygon fill="#ffffff" stroke="none" points="314.5,-670 314.5,-695 415.5,-695 415.5,-670 314.5,-670"/>
<polygon fill="none" stroke="#2c3e50" points="314.5,-670 314.5,-695 415.5,-695 415.5,-670 314.5,-670"/>
<text text-anchor="start" x="319.5" y="-679.8" font-family="monospace" font-style="italic" font-size="14.00" fill="#95a5a6">text</text>
<polygon fill="#ffffff" stroke="none" points="180.5,-645 180.5,-670 314.5,-670 314.5,-645 180.5,-645"/>
<polygon fill="none" stroke="#2c3e50" points="180.5,-645 180.5,-670 314.5,-670 314.5,-645 180.5,-645"/>
<text text-anchor="start" x="185.5" y="-653.8" font-family="monospace" font-size="14.00" fill="#000000">rejectlimit</text>
<polygon fill="#ffffff" stroke="none" points="314.5,-645 314.5,-670 415.5,-670 415.5,-645 314.5,-645"/>
<polygon fill="none" stroke="#2c3e50" points="314.5,-645 314.5,-670 415.5,-670 415.5,-645 314.5,-645"/>
<text text-anchor="start" x="319.5" y="-654.8" font-family="monospace" font-style="italic" font-size="14.00" fill="#95a5a6">integer</text>
<polygon fill="#ffffff" stroke="none" points="180.5,-620 180.5,-645 314.5,-645 314.5,-620 180.5,-620"/>
<polygon fill="none" stroke="#2c3e50" points="180.5,-620 180.5,-645 314.5,-645 314.5,-620 180.5,-620"/>
<text text-anchor="start" x="185.5" y="-628.8" font-family="monospace" font-size="14.00" fill="#000000">rejectlimittype</text>
<polygon fill="#ffffff" stroke="none" points="314.5,-620 314.5,-645 415.5,-645 415.5,-620 314.5,-620"/>
<polygon fill="none" stroke="#2c3e50" points="314.5,-620 314.5,-645 415.5,-645 415.5,-620 314.5,-620"/>
<text text-anchor="start" x="319.5" y="-629.8" font-family="monospace" font-style="italic" font-size="14.00" fill="#95a5a6">quoted_char</text>
<polygon fill="#ffffff" stroke="none" points="180.5,-595 180.5,-620 314.5,-620 314.5,-595 180.5,-595"/>
<polygon fill="none" stroke="#2c3e50" points="180.5,-595 180.5,-620 314.5,-620 314.5,-595 180.5,-595"/>
<text text-anchor="start" x="185.5" y="-603.8" font-family="monospace" font-size="14.00" fill="#000000">fmterrtbl</text>
<polygon fill="#18bc9c" stroke="none" points="314.5,-595 314.5,-620 415.5,-620 415.5,-595 314.5,-595"/>
<polygon fill="none" stroke="#2c3e50" points="314.5,-595 314.5,-620 415.5,-620 415.5,-595 314.5,-595"/>
<text text-anchor="start" x="319.5" y="-604.8" font-family="monospace" font-style="italic" font-size="14.00" fill="#ffffff">oid</text>
<polygon fill="#ffffff" stroke="none" points="180.5,-570 180.5,-595 314.5,-595 314.5,-570 180.5,-570"/>
<polygon fill="none" stroke="#2c3e50" points="180.5,-570 180.5,-595 314.5,-595 314.5,-570 180.5,-570"/>
<text text-anchor="start" x="185.5" y="-578.8" font-family="monospace" font-size="14.00" fill="#000000">encoding</text>
<polygon fill="#ffffff" stroke="none" points="314.5,-570 314.5,-595 415.5,-595 415.5,-570 314.5,-570"/>
<polygon fill="none" stroke="#2c3e50" points="314.5,-570 314.5,-595 415.5,-595 415.5,-570 314.5,-570"/>
<text text-anchor="start" x="319.5" y="-579.8" font-family="monospace" font-style="italic" font-size="14.00" fill="#95a5a6">integer</text>
<polygon fill="#ffffff" stroke="none" points="180.5,-545 180.5,-570 314.5,-570 314.5,-545 180.5,-545"/>
<polygon fill="none" stroke="#2c3e50" points="180.5,-545 180.5,-570 314.5,-570 314.5,-545 180.5,-545"/>
<text text-anchor="start" x="185.5" y="-553.8" font-family="monospace" font-size="14.00" fill="#000000">writable</text>
<polygon fill="#ffffff" stroke="none" points="314.5,-545 314.5,-570 415.5,-570 415.5,-545 314.5,-545"/>
<polygon fill="none" stroke="#2c3e50" points="314.5,-545 314.5,-570 415.5,-570 415.5,-545 314.5,-545"/>
<text text-anchor="start" x="319.5" y="-554.8" font-family="monospace" font-style="italic" font-size="14.00" fill="#95a5a6">boolean</text>
</g>
<!-- pg_class -->
<g id="node2" class="node"><title>pg_class</title>
<polygon fill="#2c3e50" stroke="none" points="800.5,-795 800.5,-825 1027.5,-825 1027.5,-795 800.5,-795"/>
<polygon fill="none" stroke="black" points="800.5,-795 800.5,-825 1027.5,-825 1027.5,-795 800.5,-795"/>
<text text-anchor="start" x="871.5" y="-806.6" font-family="monospace" font-weight="bold" font-size="18.00" fill="#ffffff">pg_class</text>
<polygon fill="#18bc9c" stroke="none" points="800.5,-770 800.5,-795 926.5,-795 926.5,-770 800.5,-770"/>
<polygon fill="none" stroke="#2c3e50" points="800.5,-770 800.5,-795 926.5,-795 926.5,-770 800.5,-770"/>
<text text-anchor="start" x="805.5" y="-778.8" font-family="monospace" font-size="14.00" fill="#ffffff">oid</text>
<polygon fill="#ffffff" stroke="none" points="926.5,-770 926.5,-795 1027.5,-795 1027.5,-770 926.5,-770"/>
<polygon fill="none" stroke="#2c3e50" points="926.5,-770 926.5,-795 1027.5,-795 1027.5,-770 926.5,-770"/>
<text text-anchor="start" x="931.5" y="-779.8" font-family="monospace" font-style="italic" font-size="14.00" fill="#95a5a6">oid</text>
<polygon fill="#ffffff" stroke="none" points="800.5,-745 800.5,-770 926.5,-770 926.5,-745 800.5,-745"/>
<polygon fill="none" stroke="#2c3e50" points="800.5,-745 800.5,-770 926.5,-770 926.5,-745 800.5,-745"/>
<text text-anchor="start" x="805.5" y="-753.8" font-family="monospace" font-size="14.00" fill="#000000">relname</text>
<polygon fill="#ffffff" stroke="none" points="926.5,-745 926.5,-770 1027.5,-770 1027.5,-745 926.5,-745"/>
<polygon fill="none" stroke="#2c3e50" points="926.5,-745 926.5,-770 1027.5,-770 1027.5,-745 926.5,-745"/>
<text text-anchor="start" x="931.5" y="-754.8" font-family="monospace" font-style="italic" font-size="14.00" fill="#95a5a6">name</text>
<polygon fill="#ffffff" stroke="none" points="800.5,-720 800.5,-745 926.5,-745 926.5,-720 800.5,-720"/>
<polygon fill="none" stroke="#2c3e50" points="800.5,-720 800.5,-745 926.5,-745 926.5,-720 800.5,-720"/>
<text text-anchor="start" x="805.5" y="-728.8" font-family="monospace" font-size="14.00" fill="#000000">relnamespace</text>
<polygon fill="#ffffff" stroke="none" points="926.5,-720 926.5,-745 1027.5,-745 1027.5,-720 926.5,-720"/>
<polygon fill="none" stroke="#2c3e50" points="926.5,-720 926.5,-745 1027.5,-745 1027.5,-720 926.5,-720"/>
<text text-anchor="start" x="931.5" y="-729.8" font-family="monospace" font-style="italic" font-size="14.00" fill="#95a5a6">oid</text>
<polygon fill="#ffffff" stroke="none" points="800.5,-695 800.5,-720 926.5,-720 926.5,-695 800.5,-695"/>
<polygon fill="none" stroke="#2c3e50" points="800.5,-695 800.5,-720 926.5,-720 926.5,-695 800.5,-695"/>
<text text-anchor="start" x="805.5" y="-703.8" font-family="monospace" font-size="14.00" fill="#000000">reltype</text>
<polygon fill="#ffffff" stroke="none" points="926.5,-695 926.5,-720 1027.5,-720 1027.5,-695 926.5,-695"/>
<polygon fill="none" stroke="#2c3e50" points="926.5,-695 926.5,-720 1027.5,-720 1027.5,-695 926.5,-695"/>
<text text-anchor="start" x="931.5" y="-704.8" font-family="monospace" font-style="italic" font-size="14.00" fill="#95a5a6">oid</text>
<polygon fill="#ffffff" stroke="none" points="800.5,-670 800.5,-695 926.5,-695 926.5,-670 800.5,-670"/>
<polygon fill="none" stroke="#2c3e50" points="800.5,-670 800.5,-695 926.5,-695 926.5,-670 800.5,-670"/>
<text text-anchor="start" x="805.5" y="-678.8" font-family="monospace" font-size="14.00" fill="#000000">relowner</text>
<polygon fill="#ffffff" stroke="none" points="926.5,-670 926.5,-695 1027.5,-695 1027.5,-670 926.5,-670"/>
<polygon fill="none" stroke="#2c3e50" points="926.5,-670 926.5,-695 1027.5,-695 1027.5,-670 926.5,-670"/>
<text text-anchor="start" x="931.5" y="-679.8" font-family="monospace" font-style="italic" font-size="14.00" fill="#95a5a6">oid</text>
<polygon fill="#ffffff" stroke="none" points="800.5,-645 800.5,-670 926.5,-670 926.5,-645 800.5,-645"/>
<polygon fill="none" stroke="#2c3e50" points="800.5,-645 800.5,-670 926.5,-670 926.5,-645 800.5,-645"/>
<text text-anchor="start" x="805.5" y="-653.8" font-family="monospace" font-size="14.00" fill="#000000">relam</text>
<polygon fill="#ffffff" stroke="none" points="926.5,-645 926.5,-670 1027.5,-670 1027.5,-645 926.5,-645"/>
<polygon fill="none" stroke="#2c3e50" points="926.5,-645 926.5,-670 1027.5,-670 1027.5,-645 926.5,-645"/>
<text text-anchor="start" x="931.5" y="-654.8" font-family="monospace" font-style="italic" font-size="14.00" fill="#95a5a6">oid</text>
<polygon fill="#ffffff" stroke="none" points="800.5,-620 800.5,-645 926.5,-645 926.5,-620 800.5,-620"/>
<polygon fill="none" stroke="#2c3e50" points="800.5,-620 800.5,-645 926.5,-645 926.5,-620 800.5,-620"/>
<text text-anchor="start" x="805.5" y="-628.8" font-family="monospace" font-size="14.00" fill="#000000">relfilenode</text>
<polygon fill="#ffffff" stroke="none" points="926.5,-620 926.5,-645 1027.5,-645 1027.5,-620 926.5,-620"/>
<polygon fill="none" stroke="#2c3e50" points="926.5,-620 926.5,-645 1027.5,-645 1027.5,-620 926.5,-620"/>
<text text-anchor="start" x="931.5" y="-629.8" font-family="monospace" font-style="italic" font-size="14.00" fill="#95a5a6">oid</text>
<polygon fill="#ffffff" stroke="none" points="800.5,-595 800.5,-620 926.5,-620 926.5,-595 800.5,-595"/>
<polygon fill="none" stroke="#2c3e50" points="800.5,-595 800.5,-620 926.5,-620 926.5,-595 800.5,-595"/>
<text text-anchor="start" x="805.5" y="-603.8" font-family="monospace" font-size="14.00" fill="#000000">reltablespace</text>
<polygon fill="#ffffff" stroke="none" points="926.5,-595 926.5,-620 1027.5,-620 1027.5,-595 926.5,-595"/>
<polygon fill="none" stroke="#2c3e50" points="926.5,-595 926.5,-620 1027.5,-620 1027.5,-595 926.5,-595"/>
<text text-anchor="start" x="931.5" y="-604.8" font-family="monospace" font-style="italic" font-size="14.00" fill="#95a5a6">oid</text>
<polygon fill="#ffffff" stroke="none" points="800.5,-570 800.5,-595 926.5,-595 926.5,-570 800.5,-570"/>
<polygon fill="none" stroke="#2c3e50" points="800.5,-570 800.5,-595 926.5,-595 926.5,-570 800.5,-570"/>
<text text-anchor="start" x="805.5" y="-578.8" font-family="monospace" font-size="14.00" fill="#000000">relpages</text>
<polygon fill="#ffffff" stroke="none" points="926.5,-570 926.5,-595 1027.5,-595 1027.5,-570 926.5,-570"/>
<polygon fill="none" stroke="#2c3e50" points="926.5,-570 926.5,-595 1027.5,-595 1027.5,-570 926.5,-570"/>
<text text-anchor="start" x="931.5" y="-579.8" font-family="monospace" font-style="italic" font-size="14.00" fill="#95a5a6">integer</text>
<polygon fill="#ffffff" stroke="none" points="800.5,-545 800.5,-570 926.5,-570 926.5,-545 800.5,-545"/>
<polygon fill="none" stroke="#2c3e50" points="800.5,-545 800.5,-570 926.5,-570 926.5,-545 800.5,-545"/>
<text text-anchor="start" x="805.5" y="-553.8" font-family="monospace" font-size="14.00" fill="#000000">reltuples</text>
<polygon fill="#ffffff" stroke="none" points="926.5,-545 926.5,-570 1027.5,-570 1027.5,-545 926.5,-545"/>
<polygon fill="none" stroke="#2c3e50" points="926.5,-545 926.5,-570 1027.5,-570 1027.5,-545 926.5,-545"/>
<text text-anchor="start" x="931.5" y="-554.8" font-family="monospace" font-style="italic" font-size="14.00" fill="#95a5a6">real</text>
<polygon fill="#ffffff" stroke="none" points="800.5,-520 800.5,-545 926.5,-545 926.5,-520 800.5,-520"/>
<polygon fill="none" stroke="#2c3e50" points="800.5,-520 800.5,-545 926.5,-545 926.5,-520 800.5,-520"/>
<text text-anchor="start" x="805.5" y="-528.8" font-family="monospace" font-size="14.00" fill="#000000">reltoastrelid</text>
<polygon fill="#ffffff" stroke="none" points="926.5,-520 926.5,-545 1027.5,-545 1027.5,-520 926.5,-520"/>
<polygon fill="none" stroke="#2c3e50" points="926.5,-520 926.5,-545 1027.5,-545 1027.5,-520 926.5,-520"/>
<text text-anchor="start" x="931.5" y="-529.8" font-family="monospace" font-style="italic" font-size="14.00" fill="#95a5a6">oid</text>
<polygon fill="#ffffff" stroke="none" points="800.5,-495 800.5,-520 926.5,-520 926.5,-495 800.5,-495"/>
<polygon fill="none" stroke="#2c3e50" points="800.5,-495 800.5,-520 926.5,-520 926.5,-495 800.5,-495"/>
<text text-anchor="start" x="805.5" y="-503.8" font-family="monospace" font-size="14.00" fill="#000000">reltoastidxid</text>
<polygon fill="#ffffff" stroke="none" points="926.5,-495 926.5,-520 1027.5,-520 1027.5,-495 926.5,-495"/>
<polygon fill="none" stroke="#2c3e50" points="926.5,-495 926.5,-520 1027.5,-520 1027.5,-495 926.5,-495"/>
<text text-anchor="start" x="931.5" y="-504.8" font-family="monospace" font-style="italic" font-size="14.00" fill="#95a5a6">oid</text>
<polygon fill="#ffffff" stroke="none" points="800.5,-470 800.5,-495 926.5,-495 926.5,-470 800.5,-470"/>
<polygon fill="none" stroke="#2c3e50" points="800.5,-470 800.5,-495 926.5,-495 926.5,-470 800.5,-470"/>
<text text-anchor="start" x="805.5" y="-478.8" font-family="monospace" font-size="14.00" fill="#000000">relaosegrelid</text>
<polygon fill="#ffffff" stroke="none" points="926.5,-470 926.5,-495 1027.5,-495 1027.5,-470 926.5,-470"/>
<polygon fill="none" stroke="#2c3e50" points="926.5,-470 926.5,-495 1027.5,-495 1027.5,-470 926.5,-470"/>
<text text-anchor="start" x="931.5" y="-479.8" font-family="monospace" font-style="italic" font-size="14.00" fill="#95a5a6">oid</text>
<polygon fill="#ffffff" stroke="none" points="800.5,-445 800.5,-470 926.5,-470 926.5,-445 800.5,-445"/>
<polygon fill="none" stroke="#2c3e50" points="800.5,-445 800.5,-470 926.5,-470 926.5,-445 800.5,-445"/>
<text text-anchor="start" x="805.5" y="-453.8" font-family="monospace" font-size="14.00" fill="#000000">relaosegidxid</text>
<polygon fill="#ffffff" stroke="none" points="926.5,-445 926.5,-470 1027.5,-470 1027.5,-445 926.5,-445"/>
<polygon fill="none" stroke="#2c3e50" points="926.5,-445 926.5,-470 1027.5,-470 1027.5,-445 926.5,-445"/>
<text text-anchor="start" x="931.5" y="-454.8" font-family="monospace" font-style="italic" font-size="14.00" fill="#95a5a6">oid</text>
<polygon fill="#ffffff" stroke="none" points="800.5,-420 800.5,-445 926.5,-445 926.5,-420 800.5,-420"/>
<polygon fill="none" stroke="#2c3e50" points="800.5,-420 800.5,-445 926.5,-445 926.5,-420 800.5,-420"/>
<text text-anchor="start" x="805.5" y="-428.8" font-family="monospace" font-size="14.00" fill="#000000">relhasindex</text>
<polygon fill="#ffffff" stroke="none" points="926.5,-420 926.5,-445 1027.5,-445 1027.5,-420 926.5,-420"/>
<polygon fill="none" stroke="#2c3e50" points="926.5,-420 926.5,-445 1027.5,-445 1027.5,-420 926.5,-420"/>
<text text-anchor="start" x="931.5" y="-429.8" font-family="monospace" font-style="italic" font-size="14.00" fill="#95a5a6">boolean</text>
<polygon fill="#ffffff" stroke="none" points="800.5,-395 800.5,-420 926.5,-420 926.5,-395 800.5,-395"/>
<polygon fill="none" stroke="#2c3e50" points="800.5,-395 800.5,-420 926.5,-420 926.5,-395 800.5,-395"/>
<text text-anchor="start" x="805.5" y="-403.8" font-family="monospace" font-size="14.00" fill="#000000">relisshared</text>
<polygon fill="#ffffff" stroke="none" points="926.5,-395 926.5,-420 1027.5,-420 1027.5,-395 926.5,-395"/>
<polygon fill="none" stroke="#2c3e50" points="926.5,-395 926.5,-420 1027.5,-420 1027.5,-395 926.5,-395"/>
<text text-anchor="start" x="931.5" y="-404.8" font-family="monospace" font-style="italic" font-size="14.00" fill="#95a5a6">boolean</text>
<polygon fill="#ffffff" stroke="none" points="800.5,-370 800.5,-395 926.5,-395 926.5,-370 800.5,-370"/>
<polygon fill="none" stroke="#2c3e50" points="800.5,-370 800.5,-395 926.5,-395 926.5,-370 800.5,-370"/>
<text text-anchor="start" x="805.5" y="-378.8" font-family="monospace" font-size="14.00" fill="#000000">relkind</text>
<polygon fill="#ffffff" stroke="none" points="926.5,-370 926.5,-395 1027.5,-395 1027.5,-370 926.5,-370"/>
<polygon fill="none" stroke="#2c3e50" points="926.5,-370 926.5,-395 1027.5,-395 1027.5,-370 926.5,-370"/>
<text text-anchor="start" x="931.5" y="-379.8" font-family="monospace" font-style="italic" font-size="14.00" fill="#95a5a6">quoted_char</text>
<polygon fill="#ffffff" stroke="none" points="800.5,-345 800.5,-370 926.5,-370 926.5,-345 800.5,-345"/>
<polygon fill="none" stroke="#2c3e50" points="800.5,-345 800.5,-370 926.5,-370 926.5,-345 800.5,-345"/>
<text text-anchor="start" x="805.5" y="-353.8" font-family="monospace" font-size="14.00" fill="#000000">relstorage</text>
<polygon fill="#ffffff" stroke="none" points="926.5,-345 926.5,-370 1027.5,-370 1027.5,-345 926.5,-345"/>
<polygon fill="none" stroke="#2c3e50" points="926.5,-345 926.5,-370 1027.5,-370 1027.5,-345 926.5,-345"/>
<text text-anchor="start" x="931.5" y="-354.8" font-family="monospace" font-style="italic" font-size="14.00" fill="#95a5a6">quoted_char</text>
<polygon fill="#ffffff" stroke="none" points="800.5,-320 800.5,-345 926.5,-345 926.5,-320 800.5,-320"/>
<polygon fill="none" stroke="#2c3e50" points="800.5,-320 800.5,-345 926.5,-345 926.5,-320 800.5,-320"/>
<text text-anchor="start" x="805.5" y="-328.8" font-family="monospace" font-size="14.00" fill="#000000">relnatts</text>
<polygon fill="#ffffff" stroke="none" points="926.5,-320 926.5,-345 1027.5,-345 1027.5,-320 926.5,-320"/>
<polygon fill="none" stroke="#2c3e50" points="926.5,-320 926.5,-345 1027.5,-345 1027.5,-320 926.5,-320"/>
<text text-anchor="start" x="931.5" y="-329.8" font-family="monospace" font-style="italic" font-size="14.00" fill="#95a5a6">smallint</text>
<polygon fill="#ffffff" stroke="none" points="800.5,-295 800.5,-320 926.5,-320 926.5,-295 800.5,-295"/>
<polygon fill="none" stroke="#2c3e50" points="800.5,-295 800.5,-320 926.5,-320 926.5,-295 800.5,-295"/>
<text text-anchor="start" x="805.5" y="-303.8" font-family="monospace" font-size="14.00" fill="#000000">relchecks</text>
<polygon fill="#ffffff" stroke="none" points="926.5,-295 926.5,-320 1027.5,-320 1027.5,-295 926.5,-295"/>
<polygon fill="none" stroke="#2c3e50" points="926.5,-295 926.5,-320 1027.5,-320 1027.5,-295 926.5,-295"/>
<text text-anchor="start" x="931.5" y="-304.8" font-family="monospace" font-style="italic" font-size="14.00" fill="#95a5a6">smallint</text>
<polygon fill="#ffffff" stroke="none" points="800.5,-270 800.5,-295 926.5,-295 926.5,-270 800.5,-270"/>
<polygon fill="none" stroke="#2c3e50" points="800.5,-270 800.5,-295 926.5,-295 926.5,-270 800.5,-270"/>
<text text-anchor="start" x="805.5" y="-278.8" font-family="monospace" font-size="14.00" fill="#000000">reltriggers</text>
<polygon fill="#ffffff" stroke="none" points="926.5,-270 926.5,-295 1027.5,-295 1027.5,-270 926.5,-270"/>
<polygon fill="none" stroke="#2c3e50" points="926.5,-270 926.5,-295 1027.5,-295 1027.5,-270 926.5,-270"/>
<text text-anchor="start" x="931.5" y="-279.8" font-family="monospace" font-style="italic" font-size="14.00" fill="#95a5a6">smallint</text>
<polygon fill="#ffffff" stroke="none" points="800.5,-245 800.5,-270 926.5,-270 926.5,-245 800.5,-245"/>
<polygon fill="none" stroke="#2c3e50" points="800.5,-245 800.5,-270 926.5,-270 926.5,-245 800.5,-245"/>
<text text-anchor="start" x="805.5" y="-253.8" font-family="monospace" font-size="14.00" fill="#000000">relukeys</text>
<polygon fill="#ffffff" stroke="none" points="926.5,-245 926.5,-270 1027.5,-270 1027.5,-245 926.5,-245"/>
<polygon fill="none" stroke="#2c3e50" points="926.5,-245 926.5,-270 1027.5,-270 1027.5,-245 926.5,-245"/>
<text text-anchor="start" x="931.5" y="-254.8" font-family="monospace" font-style="italic" font-size="14.00" fill="#95a5a6">smallint</text>
<polygon fill="#ffffff" stroke="none" points="800.5,-220 800.5,-245 926.5,-245 926.5,-220 800.5,-220"/>
<polygon fill="none" stroke="#2c3e50" points="800.5,-220 800.5,-245 926.5,-245 926.5,-220 800.5,-220"/>
<text text-anchor="start" x="805.5" y="-228.8" font-family="monospace" font-size="14.00" fill="#000000">relfkeys</text>
<polygon fill="#ffffff" stroke="none" points="926.5,-220 926.5,-245 1027.5,-245 1027.5,-220 926.5,-220"/>
<polygon fill="none" stroke="#2c3e50" points="926.5,-220 926.5,-245 1027.5,-245 1027.5,-220 926.5,-220"/>
<text text-anchor="start" x="931.5" y="-229.8" font-family="monospace" font-style="italic" font-size="14.00" fill="#95a5a6">smallint</text>
<polygon fill="#ffffff" stroke="none" points="800.5,-195 800.5,-220 926.5,-220 926.5,-195 800.5,-195"/>
<polygon fill="none" stroke="#2c3e50" points="800.5,-195 800.5,-220 926.5,-220 926.5,-195 800.5,-195"/>
<text text-anchor="start" x="805.5" y="-203.8" font-family="monospace" font-size="14.00" fill="#000000">relrefs</text>
<polygon fill="#ffffff" stroke="none" points="926.5,-195 926.5,-220 1027.5,-220 1027.5,-195 926.5,-195"/>
<polygon fill="none" stroke="#2c3e50" points="926.5,-195 926.5,-220 1027.5,-220 1027.5,-195 926.5,-195"/>
<text text-anchor="start" x="931.5" y="-204.8" font-family="monospace" font-style="italic" font-size="14.00" fill="#95a5a6">smallint</text>
<polygon fill="#ffffff" stroke="none" points="800.5,-170 800.5,-195 926.5,-195 926.5,-170 800.5,-170"/>
<polygon fill="none" stroke="#2c3e50" points="800.5,-170 800.5,-195 926.5,-195 926.5,-170 800.5,-170"/>
<text text-anchor="start" x="805.5" y="-178.8" font-family="monospace" font-size="14.00" fill="#000000">relhasoids</text>
<polygon fill="#ffffff" stroke="none" points="926.5,-170 926.5,-195 1027.5,-195 1027.5,-170 926.5,-170"/>
<polygon fill="none" stroke="#2c3e50" points="926.5,-170 926.5,-195 1027.5,-195 1027.5,-170 926.5,-170"/>
<text text-anchor="start" x="931.5" y="-179.8" font-family="monospace" font-style="italic" font-size="14.00" fill="#95a5a6">boolean</text>
<polygon fill="#ffffff" stroke="none" points="800.5,-145 800.5,-170 926.5,-170 926.5,-145 800.5,-145"/>
<polygon fill="none" stroke="#2c3e50" points="800.5,-145 800.5,-170 926.5,-170 926.5,-145 800.5,-145"/>
<text text-anchor="start" x="805.5" y="-153.8" font-family="monospace" font-size="14.00" fill="#000000">relhaspkey</text>
<polygon fill="#ffffff" stroke="none" points="926.5,-145 926.5,-170 1027.5,-170 1027.5,-145 926.5,-145"/>
<polygon fill="none" stroke="#2c3e50" points="926.5,-145 926.5,-170 1027.5,-170 1027.5,-145 926.5,-145"/>
<text text-anchor="start" x="931.5" y="-154.8" font-family="monospace" font-style="italic" font-size="14.00" fill="#95a5a6">boolean</text>
<polygon fill="#ffffff" stroke="none" points="800.5,-120 800.5,-145 926.5,-145 926.5,-120 800.5,-120"/>
<polygon fill="none" stroke="#2c3e50" points="800.5,-120 800.5,-145 926.5,-145 926.5,-120 800.5,-120"/>
<text text-anchor="start" x="805.5" y="-128.8" font-family="monospace" font-size="14.00" fill="#000000">relhasrules</text>
<polygon fill="#ffffff" stroke="none" points="926.5,-120 926.5,-145 1027.5,-145 1027.5,-120 926.5,-120"/>
<polygon fill="none" stroke="#2c3e50" points="926.5,-120 926.5,-145 1027.5,-145 1027.5,-120 926.5,-120"/>
<text text-anchor="start" x="931.5" y="-129.8" font-family="monospace" font-style="italic" font-size="14.00" fill="#95a5a6">boolean</text>
<polygon fill="#ffffff" stroke="none" points="800.5,-95 800.5,-120 926.5,-120 926.5,-95 800.5,-95"/>
<polygon fill="none" stroke="#2c3e50" points="800.5,-95 800.5,-120 926.5,-120 926.5,-95 800.5,-95"/>
<text text-anchor="start" x="805.5" y="-103.8" font-family="monospace" font-size="14.00" fill="#000000">relhassubclass</text>
<polygon fill="#ffffff" stroke="none" points="926.5,-95 926.5,-120 1027.5,-120 1027.5,-95 926.5,-95"/>
<polygon fill="none" stroke="#2c3e50" points="926.5,-95 926.5,-120 1027.5,-120 1027.5,-95 926.5,-95"/>
<text text-anchor="start" x="931.5" y="-104.8" font-family="monospace" font-style="italic" font-size="14.00" fill="#95a5a6">boolean</text>
<polygon fill="#ffffff" stroke="none" points="800.5,-70 800.5,-95 926.5,-95 926.5,-70 800.5,-70"/>
<polygon fill="none" stroke="#2c3e50" points="800.5,-70 800.5,-95 926.5,-95 926.5,-70 800.5,-70"/>
<text text-anchor="start" x="805.5" y="-78.8" font-family="monospace" font-size="14.00" fill="#000000">relfrozenxid</text>
<polygon fill="#ffffff" stroke="none" points="926.5,-70 926.5,-95 1027.5,-95 1027.5,-70 926.5,-70"/>
<polygon fill="none" stroke="#2c3e50" points="926.5,-70 926.5,-95 1027.5,-95 1027.5,-70 926.5,-70"/>
<text text-anchor="start" x="931.5" y="-79.8" font-family="monospace" font-style="italic" font-size="14.00" fill="#95a5a6">xid</text>
<polygon fill="#ffffff" stroke="none" points="800.5,-45 800.5,-70 926.5,-70 926.5,-45 800.5,-45"/>
<polygon fill="none" stroke="#2c3e50" points="800.5,-45 800.5,-70 926.5,-70 926.5,-45 800.5,-45"/>
<text text-anchor="start" x="805.5" y="-53.8" font-family="monospace" font-size="14.00" fill="#000000">relacl</text>
<polygon fill="#ffffff" stroke="none" points="926.5,-45 926.5,-70 1027.5,-70 1027.5,-45 926.5,-45"/>
<polygon fill="none" stroke="#2c3e50" points="926.5,-45 926.5,-70 1027.5,-70 1027.5,-45 926.5,-45"/>
<text text-anchor="start" x="931.5" y="-54.8" font-family="monospace" font-style="italic" font-size="14.00" fill="#95a5a6">aclitem[]</text>
<polygon fill="#ffffff" stroke="none" points="800.5,-20 800.5,-45 926.5,-45 926.5,-20 800.5,-20"/>
<polygon fill="none" stroke="#2c3e50" points="800.5,-20 800.5,-45 926.5,-45 926.5,-20 800.5,-20"/>
<text text-anchor="start" x="805.5" y="-28.8" font-family="monospace" font-size="14.00" fill="#000000">reloptions</text>
<polygon fill="#ffffff" stroke="none" points="926.5,-20 926.5,-45 1027.5,-45 1027.5,-20 926.5,-20"/>
<polygon fill="none" stroke="#2c3e50" points="926.5,-20 926.5,-45 1027.5,-45 1027.5,-20 926.5,-20"/>
<text text-anchor="start" x="931.5" y="-29.8" font-family="monospace" font-style="italic" font-size="14.00" fill="#95a5a6">text[]</text>
</g>
<!-- pg_exttable&#45;&gt;pg_class -->
<g id="edge1" class="edge"><title>pg_exttable:reloid_out&#45;&gt;pg_class:oid_in</title>
<path fill="none" stroke="#2c3e50" d="M416.5,-783C583.231,-783 627.479,-783 789.186,-783"/>
<polygon fill="#2c3e50" stroke="#2c3e50" points="789.5,-786.5 799.5,-783 789.5,-779.5 789.5,-786.5"/>
</g>
<!-- pg_exttable&#45;&gt;pg_class -->
<g id="edge2" class="edge"><title>pg_exttable:fmterrtbl_out&#45;&gt;pg_class:oid_in</title>
<path fill="none" stroke="#2c3e50" d="M416.5,-607C600.359,-607 611.794,-776.529 789.255,-782.82"/>
<polygon fill="#2c3e50" stroke="#2c3e50" points="789.44,-786.324 799.5,-783 789.563,-779.325 789.44,-786.324"/>
</g>
</g>
</svg>
