<?xml version="1.0" encoding="UTF-8" standalone="no"?>
<!DOCTYPE svg PUBLIC "-//W3C//DTD SVG 1.1//EN"
 "http://www.w3.org/Graphics/SVG/1.1/DTD/svg11.dtd">
<!-- Generated by graphviz version 2.38.0 (20140413.2041)
 -->
<!-- Title: GPDB Pages: 1 -->
<svg width="1372pt" height="829pt"
 viewBox="0.00 0.00 1372.00 829.00" xmlns="http://www.w3.org/2000/svg" xmlns:xlink="http://www.w3.org/1999/xlink">
<g id="graph0" class="graph" transform="scale(1 1) rotate(0) translate(36 793)">
<title>GPDB</title>
<polygon fill="white" stroke="none" points="-36,36 -36,-793 1336,-793 1336,36 -36,36"/>
<text text-anchor="middle" x="650" y="-727.4" font-family="Helvetica,sans-Serif" font-size="32.00">Greenplum System Catalog: pg_extprotocol</text>
<g id="clust2" class="cluster"><title>cluster_selected</title>
</g>
<g id="clust3" class="cluster"><title>cluster_to</title>
</g>
<!-- pg_extprotocol -->
<g id="node1" class="node"><title>pg_extprotocol</title>
<polygon fill="#2c3e50" stroke="none" points="214.5,-620 214.5,-650 425.5,-650 425.5,-620 214.5,-620"/>
<polygon fill="none" stroke="black" points="214.5,-620 214.5,-650 425.5,-650 425.5,-620 214.5,-620"/>
<text text-anchor="start" x="246" y="-631.6" font-family="monospace" font-weight="bold" font-size="18.00" fill="#ffffff">pg_extprotocol</text>
<polygon fill="#ffffff" stroke="none" points="214.5,-595 214.5,-620 340.5,-620 340.5,-595 214.5,-595"/>
<polygon fill="none" stroke="#2c3e50" points="214.5,-595 214.5,-620 340.5,-620 340.5,-595 214.5,-595"/>
<text text-anchor="start" x="219.5" y="-603.8" font-family="monospace" font-size="14.00" fill="#000000">ptcname</text>
<polygon fill="#ffffff" stroke="none" points="340.5,-595 340.5,-620 425.5,-620 425.5,-595 340.5,-595"/>
<polygon fill="none" stroke="#2c3e50" points="340.5,-595 340.5,-620 425.5,-620 425.5,-595 340.5,-595"/>
<text text-anchor="start" x="345.5" y="-604.8" font-family="monospace" font-style="italic" font-size="14.00" fill="#95a5a6">name</text>
<polygon fill="#ffffff" stroke="none" points="214.5,-570 214.5,-595 340.5,-595 340.5,-570 214.5,-570"/>
<polygon fill="none" stroke="#2c3e50" points="214.5,-570 214.5,-595 340.5,-595 340.5,-570 214.5,-570"/>
<text text-anchor="start" x="219.5" y="-578.8" font-family="monospace" font-size="14.00" fill="#000000">ptcreadfn</text>
<polygon fill="#18bc9c" stroke="none" points="340.5,-570 340.5,-595 425.5,-595 425.5,-570 340.5,-570"/>
<polygon fill="none" stroke="#2c3e50" points="340.5,-570 340.5,-595 425.5,-595 425.5,-570 340.5,-570"/>
<text text-anchor="start" x="345.5" y="-579.8" font-family="monospace" font-style="italic" font-size="14.00" fill="#ffffff">oid</text>
<polygon fill="#ffffff" stroke="none" points="214.5,-545 214.5,-570 340.5,-570 340.5,-545 214.5,-545"/>
<polygon fill="none" stroke="#2c3e50" points="214.5,-545 214.5,-570 340.5,-570 340.5,-545 214.5,-545"/>
<text text-anchor="start" x="219.5" y="-553.8" font-family="monospace" font-size="14.00" fill="#000000">ptcwritefn</text>
<polygon fill="#18bc9c" stroke="none" points="340.5,-545 340.5,-570 425.5,-570 425.5,-545 340.5,-545"/>
<polygon fill="none" stroke="#2c3e50" points="340.5,-545 340.5,-570 425.5,-570 425.5,-545 340.5,-545"/>
<text text-anchor="start" x="345.5" y="-554.8" font-family="monospace" font-style="italic" font-size="14.00" fill="#ffffff">oid</text>
<polygon fill="#ffffff" stroke="none" points="214.5,-520 214.5,-545 340.5,-545 340.5,-520 214.5,-520"/>
<polygon fill="none" stroke="#2c3e50" points="214.5,-520 214.5,-545 340.5,-545 340.5,-520 214.5,-520"/>
<text text-anchor="start" x="219.5" y="-528.8" font-family="monospace" font-size="14.00" fill="#000000">ptcvalidatorfn</text>
<polygon fill="#18bc9c" stroke="none" points="340.5,-520 340.5,-545 425.5,-545 425.5,-520 340.5,-520"/>
<polygon fill="none" stroke="#2c3e50" points="340.5,-520 340.5,-545 425.5,-545 425.5,-520 340.5,-520"/>
<text text-anchor="start" x="345.5" y="-529.8" font-family="monospace" font-style="italic" font-size="14.00" fill="#ffffff">oid</text>
<polygon fill="#ffffff" stroke="none" points="214.5,-495 214.5,-520 340.5,-520 340.5,-495 214.5,-495"/>
<polygon fill="none" stroke="#2c3e50" points="214.5,-495 214.5,-520 340.5,-520 340.5,-495 214.5,-495"/>
<text text-anchor="start" x="219.5" y="-503.8" font-family="monospace" font-size="14.00" fill="#000000">ptcowner</text>
<polygon fill="#ffffff" stroke="none" points="340.5,-495 340.5,-520 425.5,-520 425.5,-495 340.5,-495"/>
<polygon fill="none" stroke="#2c3e50" points="340.5,-495 340.5,-520 425.5,-520 425.5,-495 340.5,-495"/>
<text text-anchor="start" x="345.5" y="-504.8" font-family="monospace" font-style="italic" font-size="14.00" fill="#95a5a6">oid</text>
<polygon fill="#ffffff" stroke="none" points="214.5,-470 214.5,-495 340.5,-495 340.5,-470 214.5,-470"/>
<polygon fill="none" stroke="#2c3e50" points="214.5,-470 214.5,-495 340.5,-495 340.5,-470 214.5,-470"/>
<text text-anchor="start" x="219.5" y="-478.8" font-family="monospace" font-size="14.00" fill="#000000">ptctrusted</text>
<polygon fill="#ffffff" stroke="none" points="340.5,-470 340.5,-495 425.5,-495 425.5,-470 340.5,-470"/>
<polygon fill="none" stroke="#2c3e50" points="340.5,-470 340.5,-495 425.5,-495 425.5,-470 340.5,-470"/>
<text text-anchor="start" x="345.5" y="-479.8" font-family="monospace" font-style="italic" font-size="14.00" fill="#95a5a6">bool</text>
<polygon fill="#ffffff" stroke="none" points="214.5,-445 214.5,-470 340.5,-470 340.5,-445 214.5,-445"/>
<polygon fill="none" stroke="#2c3e50" points="214.5,-445 214.5,-470 340.5,-470 340.5,-445 214.5,-445"/>
<text text-anchor="start" x="219.5" y="-453.8" font-family="monospace" font-size="14.00" fill="#000000">ptcacl</text>
<polygon fill="#ffffff" stroke="none" points="340.5,-445 340.5,-470 425.5,-470 425.5,-445 340.5,-445"/>
<polygon fill="none" stroke="#2c3e50" points="340.5,-445 340.5,-470 425.5,-470 425.5,-445 340.5,-445"/>
<text text-anchor="start" x="345.5" y="-454.8" font-family="monospace" font-style="italic" font-size="14.00" fill="#95a5a6">aclitem[]</text>
</g>
<!-- pg_proc -->
<g id="node2" class="node"><title>pg_proc</title>
<polygon fill="#2c3e50" stroke="none" points="858,-570 858,-600 1102,-600 1102,-570 858,-570"/>
<polygon fill="none" stroke="black" points="858,-570 858,-600 1102,-600 1102,-570 858,-570"/>
<text text-anchor="start" x="943" y="-581.6" font-family="monospace" font-weight="bold" font-size="18.00" fill="#ffffff">pg_proc</text>
<polygon fill="#18bc9c" stroke="none" points="858,-545 858,-570 984,-570 984,-545 858,-545"/>
<polygon fill="none" stroke="#2c3e50" points="858,-545 858,-570 984,-570 984,-545 858,-545"/>
<text text-anchor="start" x="863" y="-553.8" font-family="monospace" font-size="14.00" fill="#ffffff">oid</text>
<polygon fill="#ffffff" stroke="none" points="984,-545 984,-570 1102,-570 1102,-545 984,-545"/>
<polygon fill="none" stroke="#2c3e50" points="984,-545 984,-570 1102,-570 1102,-545 984,-545"/>
<text text-anchor="start" x="989" y="-554.8" font-family="monospace" font-style="italic" font-size="14.00" fill="#95a5a6">oid</text>
<polygon fill="#ffffff" stroke="none" points="858,-520 858,-545 984,-545 984,-520 858,-520"/>
<polygon fill="none" stroke="#2c3e50" points="858,-520 858,-545 984,-545 984,-520 858,-520"/>
<text text-anchor="start" x="863" y="-528.8" font-family="monospace" font-size="14.00" fill="#000000">proname</text>
<polygon fill="#ffffff" stroke="none" points="984,-520 984,-545 1102,-545 1102,-520 984,-520"/>
<polygon fill="none" stroke="#2c3e50" points="984,-520 984,-545 1102,-545 1102,-520 984,-520"/>
<text text-anchor="start" x="989" y="-529.8" font-family="monospace" font-style="italic" font-size="14.00" fill="#95a5a6">name</text>
<polygon fill="#ffffff" stroke="none" points="858,-495 858,-520 984,-520 984,-495 858,-495"/>
<polygon fill="none" stroke="#2c3e50" points="858,-495 858,-520 984,-520 984,-495 858,-495"/>
<text text-anchor="start" x="863" y="-503.8" font-family="monospace" font-size="14.00" fill="#000000">pronamespace</text>
<polygon fill="#ffffff" stroke="none" points="984,-495 984,-520 1102,-520 1102,-495 984,-495"/>
<polygon fill="none" stroke="#2c3e50" points="984,-495 984,-520 1102,-520 1102,-495 984,-495"/>
<text text-anchor="start" x="989" y="-504.8" font-family="monospace" font-style="italic" font-size="14.00" fill="#95a5a6">oid</text>
<polygon fill="#ffffff" stroke="none" points="858,-470 858,-495 984,-495 984,-470 858,-470"/>
<polygon fill="none" stroke="#2c3e50" points="858,-470 858,-495 984,-495 984,-470 858,-470"/>
<text text-anchor="start" x="863" y="-478.8" font-family="monospace" font-size="14.00" fill="#000000">proowner</text>
<polygon fill="#ffffff" stroke="none" points="984,-470 984,-495 1102,-495 1102,-470 984,-470"/>
<polygon fill="none" stroke="#2c3e50" points="984,-470 984,-495 1102,-495 1102,-470 984,-470"/>
<text text-anchor="start" x="989" y="-479.8" font-family="monospace" font-style="italic" font-size="14.00" fill="#95a5a6">oid</text>
<polygon fill="#ffffff" stroke="none" points="858,-445 858,-470 984,-470 984,-445 858,-445"/>
<polygon fill="none" stroke="#2c3e50" points="858,-445 858,-470 984,-470 984,-445 858,-445"/>
<text text-anchor="start" x="863" y="-453.8" font-family="monospace" font-size="14.00" fill="#000000">prolang</text>
<polygon fill="#ffffff" stroke="none" points="984,-445 984,-470 1102,-470 1102,-445 984,-445"/>
<polygon fill="none" stroke="#2c3e50" points="984,-445 984,-470 1102,-470 1102,-445 984,-445"/>
<text text-anchor="start" x="989" y="-454.8" font-family="monospace" font-style="italic" font-size="14.00" fill="#95a5a6">oid</text>
<polygon fill="#ffffff" stroke="none" points="858,-420 858,-445 984,-445 984,-420 858,-420"/>
<polygon fill="none" stroke="#2c3e50" points="858,-420 858,-445 984,-445 984,-420 858,-420"/>
<text text-anchor="start" x="863" y="-428.8" font-family="monospace" font-size="14.00" fill="#000000">proisagg</text>
<polygon fill="#ffffff" stroke="none" points="984,-420 984,-445 1102,-445 1102,-420 984,-420"/>
<polygon fill="none" stroke="#2c3e50" points="984,-420 984,-445 1102,-445 1102,-420 984,-420"/>
<text text-anchor="start" x="989" y="-429.8" font-family="monospace" font-style="italic" font-size="14.00" fill="#95a5a6">boolean</text>
<polygon fill="#ffffff" stroke="none" points="858,-395 858,-420 984,-420 984,-395 858,-395"/>
<polygon fill="none" stroke="#2c3e50" points="858,-395 858,-420 984,-420 984,-395 858,-395"/>
<text text-anchor="start" x="863" y="-403.8" font-family="monospace" font-size="14.00" fill="#000000">prosecdef</text>
<polygon fill="#ffffff" stroke="none" points="984,-395 984,-420 1102,-420 1102,-395 984,-395"/>
<polygon fill="none" stroke="#2c3e50" points="984,-395 984,-420 1102,-420 1102,-395 984,-395"/>
<text text-anchor="start" x="989" y="-404.8" font-family="monospace" font-style="italic" font-size="14.00" fill="#95a5a6">boolean</text>
<polygon fill="#ffffff" stroke="none" points="858,-370 858,-395 984,-395 984,-370 858,-370"/>
<polygon fill="none" stroke="#2c3e50" points="858,-370 858,-395 984,-395 984,-370 858,-370"/>
<text text-anchor="start" x="863" y="-378.8" font-family="monospace" font-size="14.00" fill="#000000">proisstrict</text>
<polygon fill="#ffffff" stroke="none" points="984,-370 984,-395 1102,-395 1102,-370 984,-370"/>
<polygon fill="none" stroke="#2c3e50" points="984,-370 984,-395 1102,-395 1102,-370 984,-370"/>
<text text-anchor="start" x="989" y="-379.8" font-family="monospace" font-style="italic" font-size="14.00" fill="#95a5a6">boolean</text>
<polygon fill="#ffffff" stroke="none" points="858,-345 858,-370 984,-370 984,-345 858,-345"/>
<polygon fill="none" stroke="#2c3e50" points="858,-345 858,-370 984,-370 984,-345 858,-345"/>
<text text-anchor="start" x="863" y="-353.8" font-family="monospace" font-size="14.00" fill="#000000">proretset</text>
<polygon fill="#ffffff" stroke="none" points="984,-345 984,-370 1102,-370 1102,-345 984,-345"/>
<polygon fill="none" stroke="#2c3e50" points="984,-345 984,-370 1102,-370 1102,-345 984,-345"/>
<text text-anchor="start" x="989" y="-354.8" font-family="monospace" font-style="italic" font-size="14.00" fill="#95a5a6">boolean</text>
<polygon fill="#ffffff" stroke="none" points="858,-320 858,-345 984,-345 984,-320 858,-320"/>
<polygon fill="none" stroke="#2c3e50" points="858,-320 858,-345 984,-345 984,-320 858,-320"/>
<text text-anchor="start" x="863" y="-328.8" font-family="monospace" font-size="14.00" fill="#000000">provolatile</text>
<polygon fill="#ffffff" stroke="none" points="984,-320 984,-345 1102,-345 1102,-320 984,-320"/>
<polygon fill="none" stroke="#2c3e50" points="984,-320 984,-345 1102,-345 1102,-320 984,-320"/>
<text text-anchor="start" x="989" y="-329.8" font-family="monospace" font-style="italic" font-size="14.00" fill="#95a5a6">quoted_char</text>
<polygon fill="#ffffff" stroke="none" points="858,-295 858,-320 984,-320 984,-295 858,-295"/>
<polygon fill="none" stroke="#2c3e50" points="858,-295 858,-320 984,-320 984,-295 858,-295"/>
<text text-anchor="start" x="863" y="-303.8" font-family="monospace" font-size="14.00" fill="#000000">pronargs</text>
<polygon fill="#ffffff" stroke="none" points="984,-295 984,-320 1102,-320 1102,-295 984,-295"/>
<polygon fill="none" stroke="#2c3e50" points="984,-295 984,-320 1102,-320 1102,-295 984,-295"/>
<text text-anchor="start" x="989" y="-304.8" font-family="monospace" font-style="italic" font-size="14.00" fill="#95a5a6">smallint</text>
<polygon fill="#ffffff" stroke="none" points="858,-270 858,-295 984,-295 984,-270 858,-270"/>
<polygon fill="none" stroke="#2c3e50" points="858,-270 858,-295 984,-295 984,-270 858,-270"/>
<text text-anchor="start" x="863" y="-278.8" font-family="monospace" font-size="14.00" fill="#000000">prorettype</text>
<polygon fill="#ffffff" stroke="none" points="984,-270 984,-295 1102,-295 1102,-270 984,-270"/>
<polygon fill="none" stroke="#2c3e50" points="984,-270 984,-295 1102,-295 1102,-270 984,-270"/>
<text text-anchor="start" x="989" y="-279.8" font-family="monospace" font-style="italic" font-size="14.00" fill="#95a5a6">oid</text>
<polygon fill="#ffffff" stroke="none" points="858,-245 858,-270 984,-270 984,-245 858,-245"/>
<polygon fill="none" stroke="#2c3e50" points="858,-245 858,-270 984,-270 984,-245 858,-245"/>
<text text-anchor="start" x="863" y="-253.8" font-family="monospace" font-size="14.00" fill="#000000">proiswin</text>
<polygon fill="#ffffff" stroke="none" points="984,-245 984,-270 1102,-270 1102,-245 984,-245"/>
<polygon fill="none" stroke="#2c3e50" points="984,-245 984,-270 1102,-270 1102,-245 984,-245"/>
<text text-anchor="start" x="989" y="-254.8" font-family="monospace" font-style="italic" font-size="14.00" fill="#95a5a6">boolean</text>
<polygon fill="#ffffff" stroke="none" points="858,-220 858,-245 984,-245 984,-220 858,-220"/>
<polygon fill="none" stroke="#2c3e50" points="858,-220 858,-245 984,-245 984,-220 858,-220"/>
<text text-anchor="start" x="863" y="-228.8" font-family="monospace" font-size="14.00" fill="#000000">proargtypes</text>
<polygon fill="#ffffff" stroke="none" points="984,-220 984,-245 1102,-245 1102,-220 984,-220"/>
<polygon fill="none" stroke="#2c3e50" points="984,-220 984,-245 1102,-245 1102,-220 984,-220"/>
<text text-anchor="start" x="989" y="-229.8" font-family="monospace" font-style="italic" font-size="14.00" fill="#95a5a6">oidvector</text>
<polygon fill="#ffffff" stroke="none" points="858,-195 858,-220 984,-220 984,-195 858,-195"/>
<polygon fill="none" stroke="#2c3e50" points="858,-195 858,-220 984,-220 984,-195 858,-195"/>
<text text-anchor="start" x="863" y="-203.8" font-family="monospace" font-size="14.00" fill="#000000">proallargtypes</text>
<polygon fill="#ffffff" stroke="none" points="984,-195 984,-220 1102,-220 1102,-195 984,-195"/>
<polygon fill="none" stroke="#2c3e50" points="984,-195 984,-220 1102,-220 1102,-195 984,-195"/>
<text text-anchor="start" x="989" y="-204.8" font-family="monospace" font-style="italic" font-size="14.00" fill="#95a5a6">oid[]</text>
<polygon fill="#ffffff" stroke="none" points="858,-170 858,-195 984,-195 984,-170 858,-170"/>
<polygon fill="none" stroke="#2c3e50" points="858,-170 858,-195 984,-195 984,-170 858,-170"/>
<text text-anchor="start" x="863" y="-178.8" font-family="monospace" font-size="14.00" fill="#000000">proargmodes</text>
<polygon fill="#ffffff" stroke="none" points="984,-170 984,-195 1102,-195 1102,-170 984,-170"/>
<polygon fill="none" stroke="#2c3e50" points="984,-170 984,-195 1102,-195 1102,-170 984,-170"/>
<text text-anchor="start" x="989" y="-179.8" font-family="monospace" font-style="italic" font-size="14.00" fill="#95a5a6">quoted_char[]</text>
<polygon fill="#ffffff" stroke="none" points="858,-145 858,-170 984,-170 984,-145 858,-145"/>
<polygon fill="none" stroke="#2c3e50" points="858,-145 858,-170 984,-170 984,-145 858,-145"/>
<text text-anchor="start" x="863" y="-153.8" font-family="monospace" font-size="14.00" fill="#000000">proargnames</text>
<polygon fill="#ffffff" stroke="none" points="984,-145 984,-170 1102,-170 1102,-145 984,-145"/>
<polygon fill="none" stroke="#2c3e50" points="984,-145 984,-170 1102,-170 1102,-145 984,-145"/>
<text text-anchor="start" x="989" y="-154.8" font-family="monospace" font-style="italic" font-size="14.00" fill="#95a5a6">text[]</text>
<polygon fill="#ffffff" stroke="none" points="858,-120 858,-145 984,-145 984,-120 858,-120"/>
<polygon fill="none" stroke="#2c3e50" points="858,-120 858,-145 984,-145 984,-120 858,-120"/>
<text text-anchor="start" x="863" y="-128.8" font-family="monospace" font-size="14.00" fill="#000000">prosrc</text>
<polygon fill="#ffffff" stroke="none" points="984,-120 984,-145 1102,-145 1102,-120 984,-120"/>
<polygon fill="none" stroke="#2c3e50" points="984,-120 984,-145 1102,-145 1102,-120 984,-120"/>
<text text-anchor="start" x="989" y="-129.8" font-family="monospace" font-style="italic" font-size="14.00" fill="#95a5a6">text</text>
<polygon fill="#ffffff" stroke="none" points="858,-95 858,-120 984,-120 984,-95 858,-95"/>
<polygon fill="none" stroke="#2c3e50" points="858,-95 858,-120 984,-120 984,-95 858,-95"/>
<text text-anchor="start" x="863" y="-103.8" font-family="monospace" font-size="14.00" fill="#000000">probin</text>
<polygon fill="#ffffff" stroke="none" points="984,-95 984,-120 1102,-120 1102,-95 984,-95"/>
<polygon fill="none" stroke="#2c3e50" points="984,-95 984,-120 1102,-120 1102,-95 984,-95"/>
<text text-anchor="start" x="989" y="-104.8" font-family="monospace" font-style="italic" font-size="14.00" fill="#95a5a6">bytea</text>
<polygon fill="#ffffff" stroke="none" points="858,-70 858,-95 984,-95 984,-70 858,-70"/>
<polygon fill="none" stroke="#2c3e50" points="858,-70 858,-95 984,-95 984,-70 858,-70"/>
<text text-anchor="start" x="863" y="-78.8" font-family="monospace" font-size="14.00" fill="#000000">proacl</text>
<polygon fill="#ffffff" stroke="none" points="984,-70 984,-95 1102,-95 1102,-70 984,-70"/>
<polygon fill="none" stroke="#2c3e50" points="984,-70 984,-95 1102,-95 1102,-70 984,-70"/>
<text text-anchor="start" x="989" y="-79.8" font-family="monospace" font-style="italic" font-size="14.00" fill="#95a5a6">aclitem[]</text>
<polygon fill="#ffffff" stroke="none" points="858,-45 858,-70 984,-70 984,-45 858,-45"/>
<polygon fill="none" stroke="#2c3e50" points="858,-45 858,-70 984,-70 984,-45 858,-45"/>
<text text-anchor="start" x="863" y="-53.8" font-family="monospace" font-size="14.00" fill="#000000">prodataaccess</text>
<polygon fill="#ffffff" stroke="none" points="984,-45 984,-70 1102,-70 1102,-45 984,-45"/>
<polygon fill="none" stroke="#2c3e50" points="984,-45 984,-70 1102,-70 1102,-45 984,-45"/>
<text text-anchor="start" x="989" y="-54.8" font-family="monospace" font-style="italic" font-size="14.00" fill="#95a5a6">quoted_char</text>
<polygon fill="#ffffff" stroke="none" points="858,-20 858,-45 984,-45 984,-20 858,-20"/>
<polygon fill="none" stroke="#2c3e50" points="858,-20 858,-45 984,-45 984,-20 858,-20"/>
<text text-anchor="start" x="863" y="-28.8" font-family="monospace" font-size="14.00" fill="#000000">provariadic</text>
<polygon fill="#ffffff" stroke="none" points="984,-20 984,-45 1102,-45 1102,-20 984,-20"/>
<polygon fill="none" stroke="#2c3e50" points="984,-20 984,-45 1102,-45 1102,-20 984,-20"/>
<text text-anchor="start" x="989" y="-29.8" font-family="monospace" font-style="italic" font-size="14.00" fill="#95a5a6">oid</text>
</g>
<!-- pg_extprotocol&#45;&gt;pg_proc -->
<g id="edge1" class="edge"><title>pg_extprotocol:ptcreadfn_out&#45;&gt;pg_proc:oid_in</title>
<path fill="none" stroke="#2c3e50" d="M426.5,-583C614.693,-583 663.592,-558.895 846.752,-558.024"/>
<polygon fill="#2c3e50" stroke="#2c3e50" points="847.008,-561.524 857,-558 846.992,-554.524 847.008,-561.524"/>
</g>
<!-- pg_extprotocol&#45;&gt;pg_proc -->
<g id="edge2" class="edge"><title>pg_extprotocol:ptcwritefn_out&#45;&gt;pg_proc:oid_in</title>
<path fill="none" stroke="#2c3e50" d="M426.5,-558C614.377,-558 663.891,-558 846.769,-558"/>
<polygon fill="#2c3e50" stroke="#2c3e50" points="847,-561.5 857,-558 847,-554.5 847,-561.5"/>
</g>
<!-- pg_extprotocol&#45;&gt;pg_proc -->
<g id="edge3" class="edge"><title>pg_extprotocol:ptcvalidatorfn_out&#45;&gt;pg_proc:oid_in</title>
<path fill="none" stroke="#2c3e50" d="M426.5,-532C614.719,-532 663.568,-557.069 846.751,-557.975"/>
<polygon fill="#2c3e50" stroke="#2c3e50" points="846.991,-561.475 857,-558 847.009,-554.475 846.991,-561.475"/>
</g>
</g>
</svg>
