<?xml version="1.0" encoding="UTF-8" standalone="no"?>
<!DOCTYPE svg PUBLIC "-//W3C//DTD SVG 1.1//EN"
 "http://www.w3.org/Graphics/SVG/1.1/DTD/svg11.dtd">
<!-- Generated by graphviz version 2.38.0 (20140413.2041)
 -->
<!-- Title: GPDB Pages: 1 -->
<svg width="1430pt" height="1278pt"
 viewBox="0.00 0.00 1430.00 1278.00" xmlns="http://www.w3.org/2000/svg" xmlns:xlink="http://www.w3.org/1999/xlink">
<g id="graph0" class="graph" transform="scale(1 1) rotate(0) translate(36 1242)">
<title>GPDB</title>
<polygon fill="white" stroke="none" points="-36,36 -36,-1242 1394,-1242 1394,36 -36,36"/>
<text text-anchor="middle" x="679" y="-1176.4" font-family="Helvetica,sans-Serif" font-size="32.00">Greenplum System Catalog: pg_foreign_table</text>
<g id="clust2" class="cluster"><title>cluster_selected</title>
</g>
<g id="clust3" class="cluster"><title>cluster_to</title>
</g>
<!-- pg_foreign_table -->
<g id="node1" class="node"><title>pg_foreign_table</title>
<g id="a_node1"><a xlink:href="pg_foreign_table.svg" xlink:title="&lt;TABLE&gt;">
<polygon fill="#2c3e50" stroke="none" points="245.5,-657 245.5,-687 424.5,-687 424.5,-657 245.5,-657"/>
<polygon fill="none" stroke="black" points="245.5,-657 245.5,-687 424.5,-687 424.5,-657 245.5,-657"/>
<text text-anchor="start" x="250.5" y="-668.6" font-family="monospace" font-weight="bold" font-size="18.00" fill="#ffffff">pg_foreign_table</text>
<polygon fill="#ffffff" stroke="none" points="245.5,-632 245.5,-657 351.5,-657 351.5,-632 245.5,-632"/>
<polygon fill="none" stroke="#2c3e50" points="245.5,-632 245.5,-657 351.5,-657 351.5,-632 245.5,-632"/>
<text text-anchor="start" x="250.5" y="-640.8" font-family="monospace" font-size="14.00" fill="#000000">reloid</text>
<polygon fill="#18bc9c" stroke="none" points="351.5,-632 351.5,-657 424.5,-657 424.5,-632 351.5,-632"/>
<polygon fill="none" stroke="#2c3e50" points="351.5,-632 351.5,-657 424.5,-657 424.5,-632 351.5,-632"/>
<text text-anchor="start" x="356.5" y="-641.8" font-family="monospace" font-style="italic" font-size="14.00" fill="#ffffff">oid</text>
<polygon fill="#ffffff" stroke="none" points="245.5,-607 245.5,-632 351.5,-632 351.5,-607 245.5,-607"/>
<polygon fill="none" stroke="#2c3e50" points="245.5,-607 245.5,-632 351.5,-632 351.5,-607 245.5,-607"/>
<text text-anchor="start" x="250.5" y="-615.8" font-family="monospace" font-size="14.00" fill="#000000">server</text>
<polygon fill="#18bc9c" stroke="none" points="351.5,-607 351.5,-632 424.5,-632 424.5,-607 351.5,-607"/>
<polygon fill="none" stroke="#2c3e50" points="351.5,-607 351.5,-632 424.5,-632 424.5,-607 351.5,-607"/>
<text text-anchor="start" x="356.5" y="-616.8" font-family="monospace" font-style="italic" font-size="14.00" fill="#ffffff">oid</text>
<polygon fill="#ffffff" stroke="none" points="245.5,-582 245.5,-607 351.5,-607 351.5,-582 245.5,-582"/>
<polygon fill="none" stroke="#2c3e50" points="245.5,-582 245.5,-607 351.5,-607 351.5,-582 245.5,-582"/>
<text text-anchor="start" x="250.5" y="-590.8" font-family="monospace" font-size="14.00" fill="#000000">tbloptions</text>
<polygon fill="#ffffff" stroke="none" points="351.5,-582 351.5,-607 424.5,-607 424.5,-582 351.5,-582"/>
<polygon fill="none" stroke="#2c3e50" points="351.5,-582 351.5,-607 424.5,-607 424.5,-582 351.5,-582"/>
<text text-anchor="start" x="356.5" y="-591.8" font-family="monospace" font-style="italic" font-size="14.00" fill="#95a5a6">text[]</text>
</a>
</g>
</g>
<!-- pg_foreign_server -->
<g id="node2" class="node"><title>pg_foreign_server</title>
<g id="a_node2"><a xlink:href="pg_foreign_server.svg" xlink:title="&lt;TABLE&gt;">
<polygon fill="#2c3e50" stroke="none" points="929.5,-220 929.5,-250 1118.5,-250 1118.5,-220 929.5,-220"/>
<polygon fill="none" stroke="black" points="929.5,-220 929.5,-250 1118.5,-250 1118.5,-220 929.5,-220"/>
<text text-anchor="start" x="934.5" y="-231.6" font-family="monospace" font-weight="bold" font-size="18.00" fill="#ffffff">pg_foreign_server</text>
<polygon fill="#18bc9c" stroke="none" points="929.5,-195 929.5,-220 1027.5,-220 1027.5,-195 929.5,-195"/>
<polygon fill="none" stroke="#2c3e50" points="929.5,-195 929.5,-220 1027.5,-220 1027.5,-195 929.5,-195"/>
<text text-anchor="start" x="934.5" y="-203.8" font-family="monospace" font-size="14.00" fill="#ffffff">oid</text>
<polygon fill="#ffffff" stroke="none" points="1027.5,-195 1027.5,-220 1118.5,-220 1118.5,-195 1027.5,-195"/>
<polygon fill="none" stroke="#2c3e50" points="1027.5,-195 1027.5,-220 1118.5,-220 1118.5,-195 1027.5,-195"/>
<text text-anchor="start" x="1032.5" y="-204.8" font-family="monospace" font-style="italic" font-size="14.00" fill="#95a5a6">oid</text>
<polygon fill="#ffffff" stroke="none" points="929.5,-170 929.5,-195 1027.5,-195 1027.5,-170 929.5,-170"/>
<polygon fill="none" stroke="#2c3e50" points="929.5,-170 929.5,-195 1027.5,-195 1027.5,-170 929.5,-170"/>
<text text-anchor="start" x="934.5" y="-178.8" font-family="monospace" font-size="14.00" fill="#000000">srvname</text>
<polygon fill="#ffffff" stroke="none" points="1027.5,-170 1027.5,-195 1118.5,-195 1118.5,-170 1027.5,-170"/>
<polygon fill="none" stroke="#2c3e50" points="1027.5,-170 1027.5,-195 1118.5,-195 1118.5,-170 1027.5,-170"/>
<text text-anchor="start" x="1032.5" y="-179.8" font-family="monospace" font-style="italic" font-size="14.00" fill="#95a5a6">name</text>
<polygon fill="#ffffff" stroke="none" points="929.5,-145 929.5,-170 1027.5,-170 1027.5,-145 929.5,-145"/>
<polygon fill="none" stroke="#2c3e50" points="929.5,-145 929.5,-170 1027.5,-170 1027.5,-145 929.5,-145"/>
<text text-anchor="start" x="934.5" y="-153.8" font-family="monospace" font-size="14.00" fill="#000000">srvowner</text>
<polygon fill="#ffffff" stroke="none" points="1027.5,-145 1027.5,-170 1118.5,-170 1118.5,-145 1027.5,-145"/>
<polygon fill="none" stroke="#2c3e50" points="1027.5,-145 1027.5,-170 1118.5,-170 1118.5,-145 1027.5,-145"/>
<text text-anchor="start" x="1032.5" y="-154.8" font-family="monospace" font-style="italic" font-size="14.00" fill="#95a5a6">oid</text>
<polygon fill="#ffffff" stroke="none" points="929.5,-120 929.5,-145 1027.5,-145 1027.5,-120 929.5,-120"/>
<polygon fill="none" stroke="#2c3e50" points="929.5,-120 929.5,-145 1027.5,-145 1027.5,-120 929.5,-120"/>
<text text-anchor="start" x="934.5" y="-128.8" font-family="monospace" font-size="14.00" fill="#000000">srvfdw</text>
<polygon fill="#ffffff" stroke="none" points="1027.5,-120 1027.5,-145 1118.5,-145 1118.5,-120 1027.5,-120"/>
<polygon fill="none" stroke="#2c3e50" points="1027.5,-120 1027.5,-145 1118.5,-145 1118.5,-120 1027.5,-120"/>
<text text-anchor="start" x="1032.5" y="-129.8" font-family="monospace" font-style="italic" font-size="14.00" fill="#95a5a6">oid</text>
<polygon fill="#ffffff" stroke="none" points="929.5,-95 929.5,-120 1027.5,-120 1027.5,-95 929.5,-95"/>
<polygon fill="none" stroke="#2c3e50" points="929.5,-95 929.5,-120 1027.5,-120 1027.5,-95 929.5,-95"/>
<text text-anchor="start" x="934.5" y="-103.8" font-family="monospace" font-size="14.00" fill="#000000">srvtype</text>
<polygon fill="#ffffff" stroke="none" points="1027.5,-95 1027.5,-120 1118.5,-120 1118.5,-95 1027.5,-95"/>
<polygon fill="none" stroke="#2c3e50" points="1027.5,-95 1027.5,-120 1118.5,-120 1118.5,-95 1027.5,-95"/>
<text text-anchor="start" x="1032.5" y="-104.8" font-family="monospace" font-style="italic" font-size="14.00" fill="#95a5a6">text</text>
<polygon fill="#ffffff" stroke="none" points="929.5,-70 929.5,-95 1027.5,-95 1027.5,-70 929.5,-70"/>
<polygon fill="none" stroke="#2c3e50" points="929.5,-70 929.5,-95 1027.5,-95 1027.5,-70 929.5,-70"/>
<text text-anchor="start" x="934.5" y="-78.8" font-family="monospace" font-size="14.00" fill="#000000">srvversion</text>
<polygon fill="#ffffff" stroke="none" points="1027.5,-70 1027.5,-95 1118.5,-95 1118.5,-70 1027.5,-70"/>
<polygon fill="none" stroke="#2c3e50" points="1027.5,-70 1027.5,-95 1118.5,-95 1118.5,-70 1027.5,-70"/>
<text text-anchor="start" x="1032.5" y="-79.8" font-family="monospace" font-style="italic" font-size="14.00" fill="#95a5a6">text</text>
<polygon fill="#ffffff" stroke="none" points="929.5,-45 929.5,-70 1027.5,-70 1027.5,-45 929.5,-45"/>
<polygon fill="none" stroke="#2c3e50" points="929.5,-45 929.5,-70 1027.5,-70 1027.5,-45 929.5,-45"/>
<text text-anchor="start" x="934.5" y="-53.8" font-family="monospace" font-size="14.00" fill="#000000">srvacl</text>
<polygon fill="#ffffff" stroke="none" points="1027.5,-45 1027.5,-70 1118.5,-70 1118.5,-45 1027.5,-45"/>
<polygon fill="none" stroke="#2c3e50" points="1027.5,-45 1027.5,-70 1118.5,-70 1118.5,-45 1027.5,-45"/>
<text text-anchor="start" x="1032.5" y="-54.8" font-family="monospace" font-style="italic" font-size="14.00" fill="#95a5a6">aclitem[]</text>
<polygon fill="#ffffff" stroke="none" points="929.5,-20 929.5,-45 1027.5,-45 1027.5,-20 929.5,-20"/>
<polygon fill="none" stroke="#2c3e50" points="929.5,-20 929.5,-45 1027.5,-45 1027.5,-20 929.5,-20"/>
<text text-anchor="start" x="934.5" y="-28.8" font-family="monospace" font-size="14.00" fill="#000000">srvoptions</text>
<polygon fill="#ffffff" stroke="none" points="1027.5,-20 1027.5,-45 1118.5,-45 1118.5,-20 1027.5,-20"/>
<polygon fill="none" stroke="#2c3e50" points="1027.5,-20 1027.5,-45 1118.5,-45 1118.5,-20 1027.5,-20"/>
<text text-anchor="start" x="1032.5" y="-29.8" font-family="monospace" font-style="italic" font-size="14.00" fill="#95a5a6">text[]</text>
</a>
</g>
</g>
<!-- pg_foreign_table&#45;&gt;pg_foreign_server -->
<g id="edge2" class="edge"><title>pg_foreign_table:server_out&#45;&gt;pg_foreign_server:oid_in</title>
<path fill="none" stroke="#2c3e50" d="M425.5,-619C618.794,-619 528.651,-380.939 689,-273 777.637,-213.334 815.796,-208.27 918.369,-208.012"/>
<polygon fill="#2c3e50" stroke="#2c3e50" points="918.504,-211.512 928.5,-208 918.496,-204.512 918.504,-211.512"/>
</g>
<!-- pg_class -->
<g id="node3" class="node"><title>pg_class</title>
<g id="a_node3"><a xlink:href="pg_class.svg" xlink:title="&lt;TABLE&gt;">
<polygon fill="#2c3e50" stroke="none" points="910.5,-1069 910.5,-1099 1137.5,-1099 1137.5,-1069 910.5,-1069"/>
<polygon fill="none" stroke="black" points="910.5,-1069 910.5,-1099 1137.5,-1099 1137.5,-1069 910.5,-1069"/>
<text text-anchor="start" x="981.5" y="-1080.6" font-family="monospace" font-weight="bold" font-size="18.00" fill="#ffffff">pg_class</text>
<polygon fill="#18bc9c" stroke="none" points="910.5,-1044 910.5,-1069 1036.5,-1069 1036.5,-1044 910.5,-1044"/>
<polygon fill="none" stroke="#2c3e50" points="910.5,-1044 910.5,-1069 1036.5,-1069 1036.5,-1044 910.5,-1044"/>
<text text-anchor="start" x="915.5" y="-1052.8" font-family="monospace" font-size="14.00" fill="#ffffff">oid</text>
<polygon fill="#ffffff" stroke="none" points="1036.5,-1044 1036.5,-1069 1137.5,-1069 1137.5,-1044 1036.5,-1044"/>
<polygon fill="none" stroke="#2c3e50" points="1036.5,-1044 1036.5,-1069 1137.5,-1069 1137.5,-1044 1036.5,-1044"/>
<text text-anchor="start" x="1041.5" y="-1053.8" font-family="monospace" font-style="italic" font-size="14.00" fill="#95a5a6">oid</text>
<polygon fill="#ffffff" stroke="none" points="910.5,-1019 910.5,-1044 1036.5,-1044 1036.5,-1019 910.5,-1019"/>
<polygon fill="none" stroke="#2c3e50" points="910.5,-1019 910.5,-1044 1036.5,-1044 1036.5,-1019 910.5,-1019"/>
<text text-anchor="start" x="915.5" y="-1027.8" font-family="monospace" font-size="14.00" fill="#000000">relname</text>
<polygon fill="#ffffff" stroke="none" points="1036.5,-1019 1036.5,-1044 1137.5,-1044 1137.5,-1019 1036.5,-1019"/>
<polygon fill="none" stroke="#2c3e50" points="1036.5,-1019 1036.5,-1044 1137.5,-1044 1137.5,-1019 1036.5,-1019"/>
<text text-anchor="start" x="1041.5" y="-1028.8" font-family="monospace" font-style="italic" font-size="14.00" fill="#95a5a6">name</text>
<polygon fill="#ffffff" stroke="none" points="910.5,-994 910.5,-1019 1036.5,-1019 1036.5,-994 910.5,-994"/>
<polygon fill="none" stroke="#2c3e50" points="910.5,-994 910.5,-1019 1036.5,-1019 1036.5,-994 910.5,-994"/>
<text text-anchor="start" x="915.5" y="-1002.8" font-family="monospace" font-size="14.00" fill="#000000">relnamespace</text>
<polygon fill="#ffffff" stroke="none" points="1036.5,-994 1036.5,-1019 1137.5,-1019 1137.5,-994 1036.5,-994"/>
<polygon fill="none" stroke="#2c3e50" points="1036.5,-994 1036.5,-1019 1137.5,-1019 1137.5,-994 1036.5,-994"/>
<text text-anchor="start" x="1041.5" y="-1003.8" font-family="monospace" font-style="italic" font-size="14.00" fill="#95a5a6">oid</text>
<polygon fill="#ffffff" stroke="none" points="910.5,-969 910.5,-994 1036.5,-994 1036.5,-969 910.5,-969"/>
<polygon fill="none" stroke="#2c3e50" points="910.5,-969 910.5,-994 1036.5,-994 1036.5,-969 910.5,-969"/>
<text text-anchor="start" x="915.5" y="-977.8" font-family="monospace" font-size="14.00" fill="#000000">reltype</text>
<polygon fill="#ffffff" stroke="none" points="1036.5,-969 1036.5,-994 1137.5,-994 1137.5,-969 1036.5,-969"/>
<polygon fill="none" stroke="#2c3e50" points="1036.5,-969 1036.5,-994 1137.5,-994 1137.5,-969 1036.5,-969"/>
<text text-anchor="start" x="1041.5" y="-978.8" font-family="monospace" font-style="italic" font-size="14.00" fill="#95a5a6">oid</text>
<polygon fill="#ffffff" stroke="none" points="910.5,-944 910.5,-969 1036.5,-969 1036.5,-944 910.5,-944"/>
<polygon fill="none" stroke="#2c3e50" points="910.5,-944 910.5,-969 1036.5,-969 1036.5,-944 910.5,-944"/>
<text text-anchor="start" x="915.5" y="-952.8" font-family="monospace" font-size="14.00" fill="#000000">relowner</text>
<polygon fill="#ffffff" stroke="none" points="1036.5,-944 1036.5,-969 1137.5,-969 1137.5,-944 1036.5,-944"/>
<polygon fill="none" stroke="#2c3e50" points="1036.5,-944 1036.5,-969 1137.5,-969 1137.5,-944 1036.5,-944"/>
<text text-anchor="start" x="1041.5" y="-953.8" font-family="monospace" font-style="italic" font-size="14.00" fill="#95a5a6">oid</text>
<polygon fill="#ffffff" stroke="none" points="910.5,-919 910.5,-944 1036.5,-944 1036.5,-919 910.5,-919"/>
<polygon fill="none" stroke="#2c3e50" points="910.5,-919 910.5,-944 1036.5,-944 1036.5,-919 910.5,-919"/>
<text text-anchor="start" x="915.5" y="-927.8" font-family="monospace" font-size="14.00" fill="#000000">relam</text>
<polygon fill="#ffffff" stroke="none" points="1036.5,-919 1036.5,-944 1137.5,-944 1137.5,-919 1036.5,-919"/>
<polygon fill="none" stroke="#2c3e50" points="1036.5,-919 1036.5,-944 1137.5,-944 1137.5,-919 1036.5,-919"/>
<text text-anchor="start" x="1041.5" y="-928.8" font-family="monospace" font-style="italic" font-size="14.00" fill="#95a5a6">oid</text>
<polygon fill="#ffffff" stroke="none" points="910.5,-894 910.5,-919 1036.5,-919 1036.5,-894 910.5,-894"/>
<polygon fill="none" stroke="#2c3e50" points="910.5,-894 910.5,-919 1036.5,-919 1036.5,-894 910.5,-894"/>
<text text-anchor="start" x="915.5" y="-902.8" font-family="monospace" font-size="14.00" fill="#000000">relfilenode</text>
<polygon fill="#ffffff" stroke="none" points="1036.5,-894 1036.5,-919 1137.5,-919 1137.5,-894 1036.5,-894"/>
<polygon fill="none" stroke="#2c3e50" points="1036.5,-894 1036.5,-919 1137.5,-919 1137.5,-894 1036.5,-894"/>
<text text-anchor="start" x="1041.5" y="-903.8" font-family="monospace" font-style="italic" font-size="14.00" fill="#95a5a6">oid</text>
<polygon fill="#ffffff" stroke="none" points="910.5,-869 910.5,-894 1036.5,-894 1036.5,-869 910.5,-869"/>
<polygon fill="none" stroke="#2c3e50" points="910.5,-869 910.5,-894 1036.5,-894 1036.5,-869 910.5,-869"/>
<text text-anchor="start" x="915.5" y="-877.8" font-family="monospace" font-size="14.00" fill="#000000">reltablespace</text>
<polygon fill="#ffffff" stroke="none" points="1036.5,-869 1036.5,-894 1137.5,-894 1137.5,-869 1036.5,-869"/>
<polygon fill="none" stroke="#2c3e50" points="1036.5,-869 1036.5,-894 1137.5,-894 1137.5,-869 1036.5,-869"/>
<text text-anchor="start" x="1041.5" y="-878.8" font-family="monospace" font-style="italic" font-size="14.00" fill="#95a5a6">oid</text>
<polygon fill="#ffffff" stroke="none" points="910.5,-844 910.5,-869 1036.5,-869 1036.5,-844 910.5,-844"/>
<polygon fill="none" stroke="#2c3e50" points="910.5,-844 910.5,-869 1036.5,-869 1036.5,-844 910.5,-844"/>
<text text-anchor="start" x="915.5" y="-852.8" font-family="monospace" font-size="14.00" fill="#000000">relpages</text>
<polygon fill="#ffffff" stroke="none" points="1036.5,-844 1036.5,-869 1137.5,-869 1137.5,-844 1036.5,-844"/>
<polygon fill="none" stroke="#2c3e50" points="1036.5,-844 1036.5,-869 1137.5,-869 1137.5,-844 1036.5,-844"/>
<text text-anchor="start" x="1041.5" y="-853.8" font-family="monospace" font-style="italic" font-size="14.00" fill="#95a5a6">integer</text>
<polygon fill="#ffffff" stroke="none" points="910.5,-819 910.5,-844 1036.5,-844 1036.5,-819 910.5,-819"/>
<polygon fill="none" stroke="#2c3e50" points="910.5,-819 910.5,-844 1036.5,-844 1036.5,-819 910.5,-819"/>
<text text-anchor="start" x="915.5" y="-827.8" font-family="monospace" font-size="14.00" fill="#000000">reltuples</text>
<polygon fill="#ffffff" stroke="none" points="1036.5,-819 1036.5,-844 1137.5,-844 1137.5,-819 1036.5,-819"/>
<polygon fill="none" stroke="#2c3e50" points="1036.5,-819 1036.5,-844 1137.5,-844 1137.5,-819 1036.5,-819"/>
<text text-anchor="start" x="1041.5" y="-828.8" font-family="monospace" font-style="italic" font-size="14.00" fill="#95a5a6">real</text>
<polygon fill="#ffffff" stroke="none" points="910.5,-794 910.5,-819 1036.5,-819 1036.5,-794 910.5,-794"/>
<polygon fill="none" stroke="#2c3e50" points="910.5,-794 910.5,-819 1036.5,-819 1036.5,-794 910.5,-794"/>
<text text-anchor="start" x="915.5" y="-802.8" font-family="monospace" font-size="14.00" fill="#000000">reltoastrelid</text>
<polygon fill="#ffffff" stroke="none" points="1036.5,-794 1036.5,-819 1137.5,-819 1137.5,-794 1036.5,-794"/>
<polygon fill="none" stroke="#2c3e50" points="1036.5,-794 1036.5,-819 1137.5,-819 1137.5,-794 1036.5,-794"/>
<text text-anchor="start" x="1041.5" y="-803.8" font-family="monospace" font-style="italic" font-size="14.00" fill="#95a5a6">oid</text>
<polygon fill="#ffffff" stroke="none" points="910.5,-769 910.5,-794 1036.5,-794 1036.5,-769 910.5,-769"/>
<polygon fill="none" stroke="#2c3e50" points="910.5,-769 910.5,-794 1036.5,-794 1036.5,-769 910.5,-769"/>
<text text-anchor="start" x="915.5" y="-777.8" font-family="monospace" font-size="14.00" fill="#000000">reltoastidxid</text>
<polygon fill="#ffffff" stroke="none" points="1036.5,-769 1036.5,-794 1137.5,-794 1137.5,-769 1036.5,-769"/>
<polygon fill="none" stroke="#2c3e50" points="1036.5,-769 1036.5,-794 1137.5,-794 1137.5,-769 1036.5,-769"/>
<text text-anchor="start" x="1041.5" y="-778.8" font-family="monospace" font-style="italic" font-size="14.00" fill="#95a5a6">oid</text>
<polygon fill="#ffffff" stroke="none" points="910.5,-744 910.5,-769 1036.5,-769 1036.5,-744 910.5,-744"/>
<polygon fill="none" stroke="#2c3e50" points="910.5,-744 910.5,-769 1036.5,-769 1036.5,-744 910.5,-744"/>
<text text-anchor="start" x="915.5" y="-752.8" font-family="monospace" font-size="14.00" fill="#000000">relaosegrelid</text>
<polygon fill="#ffffff" stroke="none" points="1036.5,-744 1036.5,-769 1137.5,-769 1137.5,-744 1036.5,-744"/>
<polygon fill="none" stroke="#2c3e50" points="1036.5,-744 1036.5,-769 1137.5,-769 1137.5,-744 1036.5,-744"/>
<text text-anchor="start" x="1041.5" y="-753.8" font-family="monospace" font-style="italic" font-size="14.00" fill="#95a5a6">oid</text>
<polygon fill="#ffffff" stroke="none" points="910.5,-719 910.5,-744 1036.5,-744 1036.5,-719 910.5,-719"/>
<polygon fill="none" stroke="#2c3e50" points="910.5,-719 910.5,-744 1036.5,-744 1036.5,-719 910.5,-719"/>
<text text-anchor="start" x="915.5" y="-727.8" font-family="monospace" font-size="14.00" fill="#000000">relaosegidxid</text>
<polygon fill="#ffffff" stroke="none" points="1036.5,-719 1036.5,-744 1137.5,-744 1137.5,-719 1036.5,-719"/>
<polygon fill="none" stroke="#2c3e50" points="1036.5,-719 1036.5,-744 1137.5,-744 1137.5,-719 1036.5,-719"/>
<text text-anchor="start" x="1041.5" y="-728.8" font-family="monospace" font-style="italic" font-size="14.00" fill="#95a5a6">oid</text>
<polygon fill="#ffffff" stroke="none" points="910.5,-694 910.5,-719 1036.5,-719 1036.5,-694 910.5,-694"/>
<polygon fill="none" stroke="#2c3e50" points="910.5,-694 910.5,-719 1036.5,-719 1036.5,-694 910.5,-694"/>
<text text-anchor="start" x="915.5" y="-702.8" font-family="monospace" font-size="14.00" fill="#000000">relhasindex</text>
<polygon fill="#ffffff" stroke="none" points="1036.5,-694 1036.5,-719 1137.5,-719 1137.5,-694 1036.5,-694"/>
<polygon fill="none" stroke="#2c3e50" points="1036.5,-694 1036.5,-719 1137.5,-719 1137.5,-694 1036.5,-694"/>
<text text-anchor="start" x="1041.5" y="-703.8" font-family="monospace" font-style="italic" font-size="14.00" fill="#95a5a6">boolean</text>
<polygon fill="#ffffff" stroke="none" points="910.5,-669 910.5,-694 1036.5,-694 1036.5,-669 910.5,-669"/>
<polygon fill="none" stroke="#2c3e50" points="910.5,-669 910.5,-694 1036.5,-694 1036.5,-669 910.5,-669"/>
<text text-anchor="start" x="915.5" y="-677.8" font-family="monospace" font-size="14.00" fill="#000000">relisshared</text>
<polygon fill="#ffffff" stroke="none" points="1036.5,-669 1036.5,-694 1137.5,-694 1137.5,-669 1036.5,-669"/>
<polygon fill="none" stroke="#2c3e50" points="1036.5,-669 1036.5,-694 1137.5,-694 1137.5,-669 1036.5,-669"/>
<text text-anchor="start" x="1041.5" y="-678.8" font-family="monospace" font-style="italic" font-size="14.00" fill="#95a5a6">boolean</text>
<polygon fill="#ffffff" stroke="none" points="910.5,-644 910.5,-669 1036.5,-669 1036.5,-644 910.5,-644"/>
<polygon fill="none" stroke="#2c3e50" points="910.5,-644 910.5,-669 1036.5,-669 1036.5,-644 910.5,-644"/>
<text text-anchor="start" x="915.5" y="-652.8" font-family="monospace" font-size="14.00" fill="#000000">relkind</text>
<polygon fill="#ffffff" stroke="none" points="1036.5,-644 1036.5,-669 1137.5,-669 1137.5,-644 1036.5,-644"/>
<polygon fill="none" stroke="#2c3e50" points="1036.5,-644 1036.5,-669 1137.5,-669 1137.5,-644 1036.5,-644"/>
<text text-anchor="start" x="1041.5" y="-653.8" font-family="monospace" font-style="italic" font-size="14.00" fill="#95a5a6">quoted_char</text>
<polygon fill="#ffffff" stroke="none" points="910.5,-619 910.5,-644 1036.5,-644 1036.5,-619 910.5,-619"/>
<polygon fill="none" stroke="#2c3e50" points="910.5,-619 910.5,-644 1036.5,-644 1036.5,-619 910.5,-619"/>
<text text-anchor="start" x="915.5" y="-627.8" font-family="monospace" font-size="14.00" fill="#000000">relstorage</text>
<polygon fill="#ffffff" stroke="none" points="1036.5,-619 1036.5,-644 1137.5,-644 1137.5,-619 1036.5,-619"/>
<polygon fill="none" stroke="#2c3e50" points="1036.5,-619 1036.5,-644 1137.5,-644 1137.5,-619 1036.5,-619"/>
<text text-anchor="start" x="1041.5" y="-628.8" font-family="monospace" font-style="italic" font-size="14.00" fill="#95a5a6">quoted_char</text>
<polygon fill="#ffffff" stroke="none" points="910.5,-594 910.5,-619 1036.5,-619 1036.5,-594 910.5,-594"/>
<polygon fill="none" stroke="#2c3e50" points="910.5,-594 910.5,-619 1036.5,-619 1036.5,-594 910.5,-594"/>
<text text-anchor="start" x="915.5" y="-602.8" font-family="monospace" font-size="14.00" fill="#000000">relnatts</text>
<polygon fill="#ffffff" stroke="none" points="1036.5,-594 1036.5,-619 1137.5,-619 1137.5,-594 1036.5,-594"/>
<polygon fill="none" stroke="#2c3e50" points="1036.5,-594 1036.5,-619 1137.5,-619 1137.5,-594 1036.5,-594"/>
<text text-anchor="start" x="1041.5" y="-603.8" font-family="monospace" font-style="italic" font-size="14.00" fill="#95a5a6">smallint</text>
<polygon fill="#ffffff" stroke="none" points="910.5,-569 910.5,-594 1036.5,-594 1036.5,-569 910.5,-569"/>
<polygon fill="none" stroke="#2c3e50" points="910.5,-569 910.5,-594 1036.5,-594 1036.5,-569 910.5,-569"/>
<text text-anchor="start" x="915.5" y="-577.8" font-family="monospace" font-size="14.00" fill="#000000">relchecks</text>
<polygon fill="#ffffff" stroke="none" points="1036.5,-569 1036.5,-594 1137.5,-594 1137.5,-569 1036.5,-569"/>
<polygon fill="none" stroke="#2c3e50" points="1036.5,-569 1036.5,-594 1137.5,-594 1137.5,-569 1036.5,-569"/>
<text text-anchor="start" x="1041.5" y="-578.8" font-family="monospace" font-style="italic" font-size="14.00" fill="#95a5a6">smallint</text>
<polygon fill="#ffffff" stroke="none" points="910.5,-544 910.5,-569 1036.5,-569 1036.5,-544 910.5,-544"/>
<polygon fill="none" stroke="#2c3e50" points="910.5,-544 910.5,-569 1036.5,-569 1036.5,-544 910.5,-544"/>
<text text-anchor="start" x="915.5" y="-552.8" font-family="monospace" font-size="14.00" fill="#000000">reltriggers</text>
<polygon fill="#ffffff" stroke="none" points="1036.5,-544 1036.5,-569 1137.5,-569 1137.5,-544 1036.5,-544"/>
<polygon fill="none" stroke="#2c3e50" points="1036.5,-544 1036.5,-569 1137.5,-569 1137.5,-544 1036.5,-544"/>
<text text-anchor="start" x="1041.5" y="-553.8" font-family="monospace" font-style="italic" font-size="14.00" fill="#95a5a6">smallint</text>
<polygon fill="#ffffff" stroke="none" points="910.5,-519 910.5,-544 1036.5,-544 1036.5,-519 910.5,-519"/>
<polygon fill="none" stroke="#2c3e50" points="910.5,-519 910.5,-544 1036.5,-544 1036.5,-519 910.5,-519"/>
<text text-anchor="start" x="915.5" y="-527.8" font-family="monospace" font-size="14.00" fill="#000000">relukeys</text>
<polygon fill="#ffffff" stroke="none" points="1036.5,-519 1036.5,-544 1137.5,-544 1137.5,-519 1036.5,-519"/>
<polygon fill="none" stroke="#2c3e50" points="1036.5,-519 1036.5,-544 1137.5,-544 1137.5,-519 1036.5,-519"/>
<text text-anchor="start" x="1041.5" y="-528.8" font-family="monospace" font-style="italic" font-size="14.00" fill="#95a5a6">smallint</text>
<polygon fill="#ffffff" stroke="none" points="910.5,-494 910.5,-519 1036.5,-519 1036.5,-494 910.5,-494"/>
<polygon fill="none" stroke="#2c3e50" points="910.5,-494 910.5,-519 1036.5,-519 1036.5,-494 910.5,-494"/>
<text text-anchor="start" x="915.5" y="-502.8" font-family="monospace" font-size="14.00" fill="#000000">relfkeys</text>
<polygon fill="#ffffff" stroke="none" points="1036.5,-494 1036.5,-519 1137.5,-519 1137.5,-494 1036.5,-494"/>
<polygon fill="none" stroke="#2c3e50" points="1036.5,-494 1036.5,-519 1137.5,-519 1137.5,-494 1036.5,-494"/>
<text text-anchor="start" x="1041.5" y="-503.8" font-family="monospace" font-style="italic" font-size="14.00" fill="#95a5a6">smallint</text>
<polygon fill="#ffffff" stroke="none" points="910.5,-469 910.5,-494 1036.5,-494 1036.5,-469 910.5,-469"/>
<polygon fill="none" stroke="#2c3e50" points="910.5,-469 910.5,-494 1036.5,-494 1036.5,-469 910.5,-469"/>
<text text-anchor="start" x="915.5" y="-477.8" font-family="monospace" font-size="14.00" fill="#000000">relrefs</text>
<polygon fill="#ffffff" stroke="none" points="1036.5,-469 1036.5,-494 1137.5,-494 1137.5,-469 1036.5,-469"/>
<polygon fill="none" stroke="#2c3e50" points="1036.5,-469 1036.5,-494 1137.5,-494 1137.5,-469 1036.5,-469"/>
<text text-anchor="start" x="1041.5" y="-478.8" font-family="monospace" font-style="italic" font-size="14.00" fill="#95a5a6">smallint</text>
<polygon fill="#ffffff" stroke="none" points="910.5,-444 910.5,-469 1036.5,-469 1036.5,-444 910.5,-444"/>
<polygon fill="none" stroke="#2c3e50" points="910.5,-444 910.5,-469 1036.5,-469 1036.5,-444 910.5,-444"/>
<text text-anchor="start" x="915.5" y="-452.8" font-family="monospace" font-size="14.00" fill="#000000">relhasoids</text>
<polygon fill="#ffffff" stroke="none" points="1036.5,-444 1036.5,-469 1137.5,-469 1137.5,-444 1036.5,-444"/>
<polygon fill="none" stroke="#2c3e50" points="1036.5,-444 1036.5,-469 1137.5,-469 1137.5,-444 1036.5,-444"/>
<text text-anchor="start" x="1041.5" y="-453.8" font-family="monospace" font-style="italic" font-size="14.00" fill="#95a5a6">boolean</text>
<polygon fill="#ffffff" stroke="none" points="910.5,-419 910.5,-444 1036.5,-444 1036.5,-419 910.5,-419"/>
<polygon fill="none" stroke="#2c3e50" points="910.5,-419 910.5,-444 1036.5,-444 1036.5,-419 910.5,-419"/>
<text text-anchor="start" x="915.5" y="-427.8" font-family="monospace" font-size="14.00" fill="#000000">relhaspkey</text>
<polygon fill="#ffffff" stroke="none" points="1036.5,-419 1036.5,-444 1137.5,-444 1137.5,-419 1036.5,-419"/>
<polygon fill="none" stroke="#2c3e50" points="1036.5,-419 1036.5,-444 1137.5,-444 1137.5,-419 1036.5,-419"/>
<text text-anchor="start" x="1041.5" y="-428.8" font-family="monospace" font-style="italic" font-size="14.00" fill="#95a5a6">boolean</text>
<polygon fill="#ffffff" stroke="none" points="910.5,-394 910.5,-419 1036.5,-419 1036.5,-394 910.5,-394"/>
<polygon fill="none" stroke="#2c3e50" points="910.5,-394 910.5,-419 1036.5,-419 1036.5,-394 910.5,-394"/>
<text text-anchor="start" x="915.5" y="-402.8" font-family="monospace" font-size="14.00" fill="#000000">relhasrules</text>
<polygon fill="#ffffff" stroke="none" points="1036.5,-394 1036.5,-419 1137.5,-419 1137.5,-394 1036.5,-394"/>
<polygon fill="none" stroke="#2c3e50" points="1036.5,-394 1036.5,-419 1137.5,-419 1137.5,-394 1036.5,-394"/>
<text text-anchor="start" x="1041.5" y="-403.8" font-family="monospace" font-style="italic" font-size="14.00" fill="#95a5a6">boolean</text>
<polygon fill="#ffffff" stroke="none" points="910.5,-369 910.5,-394 1036.5,-394 1036.5,-369 910.5,-369"/>
<polygon fill="none" stroke="#2c3e50" points="910.5,-369 910.5,-394 1036.5,-394 1036.5,-369 910.5,-369"/>
<text text-anchor="start" x="915.5" y="-377.8" font-family="monospace" font-size="14.00" fill="#000000">relhassubclass</text>
<polygon fill="#ffffff" stroke="none" points="1036.5,-369 1036.5,-394 1137.5,-394 1137.5,-369 1036.5,-369"/>
<polygon fill="none" stroke="#2c3e50" points="1036.5,-369 1036.5,-394 1137.5,-394 1137.5,-369 1036.5,-369"/>
<text text-anchor="start" x="1041.5" y="-378.8" font-family="monospace" font-style="italic" font-size="14.00" fill="#95a5a6">boolean</text>
<polygon fill="#ffffff" stroke="none" points="910.5,-344 910.5,-369 1036.5,-369 1036.5,-344 910.5,-344"/>
<polygon fill="none" stroke="#2c3e50" points="910.5,-344 910.5,-369 1036.5,-369 1036.5,-344 910.5,-344"/>
<text text-anchor="start" x="915.5" y="-352.8" font-family="monospace" font-size="14.00" fill="#000000">relfrozenxid</text>
<polygon fill="#ffffff" stroke="none" points="1036.5,-344 1036.5,-369 1137.5,-369 1137.5,-344 1036.5,-344"/>
<polygon fill="none" stroke="#2c3e50" points="1036.5,-344 1036.5,-369 1137.5,-369 1137.5,-344 1036.5,-344"/>
<text text-anchor="start" x="1041.5" y="-353.8" font-family="monospace" font-style="italic" font-size="14.00" fill="#95a5a6">xid</text>
<polygon fill="#ffffff" stroke="none" points="910.5,-319 910.5,-344 1036.5,-344 1036.5,-319 910.5,-319"/>
<polygon fill="none" stroke="#2c3e50" points="910.5,-319 910.5,-344 1036.5,-344 1036.5,-319 910.5,-319"/>
<text text-anchor="start" x="915.5" y="-327.8" font-family="monospace" font-size="14.00" fill="#000000">relacl</text>
<polygon fill="#ffffff" stroke="none" points="1036.5,-319 1036.5,-344 1137.5,-344 1137.5,-319 1036.5,-319"/>
<polygon fill="none" stroke="#2c3e50" points="1036.5,-319 1036.5,-344 1137.5,-344 1137.5,-319 1036.5,-319"/>
<text text-anchor="start" x="1041.5" y="-328.8" font-family="monospace" font-style="italic" font-size="14.00" fill="#95a5a6">aclitem[]</text>
<polygon fill="#ffffff" stroke="none" points="910.5,-294 910.5,-319 1036.5,-319 1036.5,-294 910.5,-294"/>
<polygon fill="none" stroke="#2c3e50" points="910.5,-294 910.5,-319 1036.5,-319 1036.5,-294 910.5,-294"/>
<text text-anchor="start" x="915.5" y="-302.8" font-family="monospace" font-size="14.00" fill="#000000">reloptions</text>
<polygon fill="#ffffff" stroke="none" points="1036.5,-294 1036.5,-319 1137.5,-319 1137.5,-294 1036.5,-294"/>
<polygon fill="none" stroke="#2c3e50" points="1036.5,-294 1036.5,-319 1137.5,-319 1137.5,-294 1036.5,-294"/>
<text text-anchor="start" x="1041.5" y="-303.8" font-family="monospace" font-style="italic" font-size="14.00" fill="#95a5a6">text[]</text>
</a>
</g>
</g>
<!-- pg_foreign_table&#45;&gt;pg_class -->
<g id="edge1" class="edge"><title>pg_foreign_table:reloid_out&#45;&gt;pg_class:oid_in</title>
<path fill="none" stroke="#2c3e50" d="M425.5,-645C704.545,-645 628.93,-1047 899.316,-1056.82"/>
<polygon fill="#2c3e50" stroke="#2c3e50" points="899.439,-1060.32 909.5,-1057 899.564,-1053.32 899.439,-1060.32"/>
</g>
</g>
</svg>
