<?xml version="1.0" encoding="UTF-8" standalone="no"?>
<!DOCTYPE svg PUBLIC "-//W3C//DTD SVG 1.1//EN"
 "http://www.w3.org/Graphics/SVG/1.1/DTD/svg11.dtd">
<!-- Generated by graphviz version 2.38.0 (20140413.2041)
 -->
<!-- Title: GPDB Pages: 1 -->
<svg width="1310pt" height="578pt"
 viewBox="0.00 0.00 1310.00 578.00" xmlns="http://www.w3.org/2000/svg" xmlns:xlink="http://www.w3.org/1999/xlink">
<g id="graph0" class="graph" transform="scale(1 1) rotate(0) translate(36 542)">
<title>GPDB</title>
<polygon fill="white" stroke="none" points="-36,36 -36,-542 1274,-542 1274,36 -36,36"/>
<text text-anchor="middle" x="619" y="-476.4" font-family="Helvetica,sans-Serif" font-size="32.00">Greenplum System Catalog: pg_filespace</text>
<g id="clust1" class="cluster"><title>cluster_from</title>
</g>
<g id="clust2" class="cluster"><title>cluster_selected</title>
</g>
<!-- pg_tablespace -->
<g id="node1" class="node"><title>pg_tablespace</title>
<polygon fill="#2c3e50" stroke="none" points="195.5,-370 195.5,-400 414.5,-400 414.5,-370 195.5,-370"/>
<polygon fill="none" stroke="black" points="195.5,-370 195.5,-400 414.5,-400 414.5,-370 195.5,-370"/>
<text text-anchor="start" x="236.5" y="-381.6" font-family="monospace" font-weight="bold" font-size="18.00" fill="#ffffff">pg_tablespace</text>
<polygon fill="#ffffff" stroke="none" points="195.5,-345 195.5,-370 329.5,-370 329.5,-345 195.5,-345"/>
<polygon fill="none" stroke="#2c3e50" points="195.5,-345 195.5,-370 329.5,-370 329.5,-345 195.5,-345"/>
<text text-anchor="start" x="200.5" y="-353.8" font-family="monospace" font-size="14.00" fill="#000000">oid</text>
<polygon fill="#ffffff" stroke="none" points="329.5,-345 329.5,-370 414.5,-370 414.5,-345 329.5,-345"/>
<polygon fill="none" stroke="#2c3e50" points="329.5,-345 329.5,-370 414.5,-370 414.5,-345 329.5,-345"/>
<text text-anchor="start" x="334.5" y="-354.8" font-family="monospace" font-style="italic" font-size="14.00" fill="#95a5a6">oid</text>
<polygon fill="#ffffff" stroke="none" points="195.5,-320 195.5,-345 329.5,-345 329.5,-320 195.5,-320"/>
<polygon fill="none" stroke="#2c3e50" points="195.5,-320 195.5,-345 329.5,-345 329.5,-320 195.5,-320"/>
<text text-anchor="start" x="200.5" y="-328.8" font-family="monospace" font-size="14.00" fill="#000000">spcname</text>
<polygon fill="#ffffff" stroke="none" points="329.5,-320 329.5,-345 414.5,-345 414.5,-320 329.5,-320"/>
<polygon fill="none" stroke="#2c3e50" points="329.5,-320 329.5,-345 414.5,-345 414.5,-320 329.5,-320"/>
<text text-anchor="start" x="334.5" y="-329.8" font-family="monospace" font-style="italic" font-size="14.00" fill="#95a5a6">name</text>
<polygon fill="#ffffff" stroke="none" points="195.5,-295 195.5,-320 329.5,-320 329.5,-295 195.5,-295"/>
<polygon fill="none" stroke="#2c3e50" points="195.5,-295 195.5,-320 329.5,-320 329.5,-295 195.5,-295"/>
<text text-anchor="start" x="200.5" y="-303.8" font-family="monospace" font-size="14.00" fill="#000000">spcowner</text>
<polygon fill="#ffffff" stroke="none" points="329.5,-295 329.5,-320 414.5,-320 414.5,-295 329.5,-295"/>
<polygon fill="none" stroke="#2c3e50" points="329.5,-295 329.5,-320 414.5,-320 414.5,-295 329.5,-295"/>
<text text-anchor="start" x="334.5" y="-304.8" font-family="monospace" font-style="italic" font-size="14.00" fill="#95a5a6">oid</text>
<polygon fill="#ffffff" stroke="none" points="195.5,-270 195.5,-295 329.5,-295 329.5,-270 195.5,-270"/>
<polygon fill="none" stroke="#2c3e50" points="195.5,-270 195.5,-295 329.5,-295 329.5,-270 195.5,-270"/>
<text text-anchor="start" x="200.5" y="-278.8" font-family="monospace" font-size="14.00" fill="#000000">spclocation</text>
<polygon fill="#ffffff" stroke="none" points="329.5,-270 329.5,-295 414.5,-295 414.5,-270 329.5,-270"/>
<polygon fill="none" stroke="#2c3e50" points="329.5,-270 329.5,-295 414.5,-295 414.5,-270 329.5,-270"/>
<text text-anchor="start" x="334.5" y="-279.8" font-family="monospace" font-style="italic" font-size="14.00" fill="#95a5a6">text</text>
<polygon fill="#ffffff" stroke="none" points="195.5,-245 195.5,-270 329.5,-270 329.5,-245 195.5,-245"/>
<polygon fill="none" stroke="#2c3e50" points="195.5,-245 195.5,-270 329.5,-270 329.5,-245 195.5,-245"/>
<text text-anchor="start" x="200.5" y="-253.8" font-family="monospace" font-size="14.00" fill="#000000">spcacl</text>
<polygon fill="#ffffff" stroke="none" points="329.5,-245 329.5,-270 414.5,-270 414.5,-245 329.5,-245"/>
<polygon fill="none" stroke="#2c3e50" points="329.5,-245 329.5,-270 414.5,-270 414.5,-245 329.5,-245"/>
<text text-anchor="start" x="334.5" y="-254.8" font-family="monospace" font-style="italic" font-size="14.00" fill="#95a5a6">aclitem[]</text>
<polygon fill="#ffffff" stroke="none" points="195.5,-220 195.5,-245 329.5,-245 329.5,-220 195.5,-220"/>
<polygon fill="none" stroke="#2c3e50" points="195.5,-220 195.5,-245 329.5,-245 329.5,-220 195.5,-220"/>
<text text-anchor="start" x="200.5" y="-228.8" font-family="monospace" font-size="14.00" fill="#000000">spcprilocations</text>
<polygon fill="#ffffff" stroke="none" points="329.5,-220 329.5,-245 414.5,-245 414.5,-220 329.5,-220"/>
<polygon fill="none" stroke="#2c3e50" points="329.5,-220 329.5,-245 414.5,-245 414.5,-220 329.5,-220"/>
<text text-anchor="start" x="334.5" y="-229.8" font-family="monospace" font-style="italic" font-size="14.00" fill="#95a5a6">text[]</text>
<polygon fill="#ffffff" stroke="none" points="195.5,-195 195.5,-220 329.5,-220 329.5,-195 195.5,-195"/>
<polygon fill="none" stroke="#2c3e50" points="195.5,-195 195.5,-220 329.5,-220 329.5,-195 195.5,-195"/>
<text text-anchor="start" x="200.5" y="-203.8" font-family="monospace" font-size="14.00" fill="#000000">spcmirlocations</text>
<polygon fill="#ffffff" stroke="none" points="329.5,-195 329.5,-220 414.5,-220 414.5,-195 329.5,-195"/>
<polygon fill="none" stroke="#2c3e50" points="329.5,-195 329.5,-220 414.5,-220 414.5,-195 329.5,-195"/>
<text text-anchor="start" x="334.5" y="-204.8" font-family="monospace" font-style="italic" font-size="14.00" fill="#95a5a6">text[]</text>
<polygon fill="#ffffff" stroke="none" points="195.5,-170 195.5,-195 329.5,-195 329.5,-170 195.5,-170"/>
<polygon fill="none" stroke="#2c3e50" points="195.5,-170 195.5,-195 329.5,-195 329.5,-170 195.5,-170"/>
<text text-anchor="start" x="200.5" y="-178.8" font-family="monospace" font-size="14.00" fill="#000000">spcfsoid</text>
<polygon fill="#18bc9c" stroke="none" points="329.5,-170 329.5,-195 414.5,-195 414.5,-170 329.5,-170"/>
<polygon fill="none" stroke="#2c3e50" points="329.5,-170 329.5,-195 414.5,-195 414.5,-170 329.5,-170"/>
<text text-anchor="start" x="334.5" y="-179.8" font-family="monospace" font-style="italic" font-size="14.00" fill="#ffffff">oid</text>
</g>
<!-- pg_filespace -->
<g id="node3" class="node"><title>pg_filespace</title>
<polygon fill="#2c3e50" stroke="none" points="865.5,-120 865.5,-150 1002.5,-150 1002.5,-120 865.5,-120"/>
<polygon fill="none" stroke="black" points="865.5,-120 865.5,-150 1002.5,-150 1002.5,-120 865.5,-120"/>
<text text-anchor="start" x="870.5" y="-131.6" font-family="monospace" font-weight="bold" font-size="18.00" fill="#ffffff">pg_filespace</text>
<polygon fill="#18bc9c" stroke="none" points="865.5,-95 865.5,-120 945.5,-120 945.5,-95 865.5,-95"/>
<polygon fill="none" stroke="#2c3e50" points="865.5,-95 865.5,-120 945.5,-120 945.5,-95 865.5,-95"/>
<text text-anchor="start" x="870.5" y="-103.8" font-family="monospace" font-size="14.00" fill="#ffffff">oid</text>
<polygon fill="#ffffff" stroke="none" points="945.5,-95 945.5,-120 1002.5,-120 1002.5,-95 945.5,-95"/>
<polygon fill="none" stroke="#2c3e50" points="945.5,-95 945.5,-120 1002.5,-120 1002.5,-95 945.5,-95"/>
<text text-anchor="start" x="950.5" y="-104.8" font-family="monospace" font-style="italic" font-size="14.00" fill="#95a5a6">oid</text>
<polygon fill="#ffffff" stroke="none" points="865.5,-70 865.5,-95 945.5,-95 945.5,-70 865.5,-70"/>
<polygon fill="none" stroke="#2c3e50" points="865.5,-70 865.5,-95 945.5,-95 945.5,-70 865.5,-70"/>
<text text-anchor="start" x="870.5" y="-78.8" font-family="monospace" font-size="14.00" fill="#000000">fsname</text>
<polygon fill="#ffffff" stroke="none" points="945.5,-70 945.5,-95 1002.5,-95 1002.5,-70 945.5,-70"/>
<polygon fill="none" stroke="#2c3e50" points="945.5,-70 945.5,-95 1002.5,-95 1002.5,-70 945.5,-70"/>
<text text-anchor="start" x="950.5" y="-79.8" font-family="monospace" font-style="italic" font-size="14.00" fill="#95a5a6">name</text>
<polygon fill="#ffffff" stroke="none" points="865.5,-45 865.5,-70 945.5,-70 945.5,-45 865.5,-45"/>
<polygon fill="none" stroke="#2c3e50" points="865.5,-45 865.5,-70 945.5,-70 945.5,-45 865.5,-45"/>
<text text-anchor="start" x="870.5" y="-53.8" font-family="monospace" font-size="14.00" fill="#000000">fsowner</text>
<polygon fill="#ffffff" stroke="none" points="945.5,-45 945.5,-70 1002.5,-70 1002.5,-45 945.5,-45"/>
<polygon fill="none" stroke="#2c3e50" points="945.5,-45 945.5,-70 1002.5,-70 1002.5,-45 945.5,-45"/>
<text text-anchor="start" x="950.5" y="-54.8" font-family="monospace" font-style="italic" font-size="14.00" fill="#95a5a6">oid</text>
</g>
<!-- pg_tablespace&#45;&gt;pg_filespace -->
<g id="edge2" class="edge"><title>pg_tablespace:spcfsoid_out&#45;&gt;pg_filespace:oid_in</title>
<path fill="none" stroke="#2c3e50" d="M415.5,-182C614.291,-182 660.685,-110.508 854.267,-108.064"/>
<polygon fill="#2c3e50" stroke="#2c3e50" points="854.522,-111.563 864.5,-108 854.478,-104.563 854.522,-111.563"/>
</g>
<!-- pg_filespace_entry -->
<g id="node2" class="node"><title>pg_filespace_entry</title>
<polygon fill="#2c3e50" stroke="none" points="204.5,-95 204.5,-125 404.5,-125 404.5,-95 204.5,-95"/>
<polygon fill="none" stroke="black" points="204.5,-95 204.5,-125 404.5,-125 404.5,-95 204.5,-95"/>
<text text-anchor="start" x="209.5" y="-106.6" font-family="monospace" font-weight="bold" font-size="18.00" fill="#ffffff">pg_filespace_entry</text>
<polygon fill="#ffffff" stroke="none" points="204.5,-70 204.5,-95 316.5,-95 316.5,-70 204.5,-70"/>
<polygon fill="none" stroke="#2c3e50" points="204.5,-70 204.5,-95 316.5,-95 316.5,-70 204.5,-70"/>
<text text-anchor="start" x="209.5" y="-78.8" font-family="monospace" font-size="14.00" fill="#000000">fsefsoid</text>
<polygon fill="#18bc9c" stroke="none" points="316.5,-70 316.5,-95 404.5,-95 404.5,-70 316.5,-70"/>
<polygon fill="none" stroke="#2c3e50" points="316.5,-70 316.5,-95 404.5,-95 404.5,-70 316.5,-70"/>
<text text-anchor="start" x="321.5" y="-79.8" font-family="monospace" font-style="italic" font-size="14.00" fill="#ffffff">oid</text>
<polygon fill="#ffffff" stroke="none" points="204.5,-45 204.5,-70 316.5,-70 316.5,-45 204.5,-45"/>
<polygon fill="none" stroke="#2c3e50" points="204.5,-45 204.5,-70 316.5,-70 316.5,-45 204.5,-45"/>
<text text-anchor="start" x="209.5" y="-53.8" font-family="monospace" font-size="14.00" fill="#000000">fsedbid</text>
<polygon fill="#ffffff" stroke="none" points="316.5,-45 316.5,-70 404.5,-70 404.5,-45 316.5,-45"/>
<polygon fill="none" stroke="#2c3e50" points="316.5,-45 316.5,-70 404.5,-70 404.5,-45 316.5,-45"/>
<text text-anchor="start" x="321.5" y="-54.8" font-family="monospace" font-style="italic" font-size="14.00" fill="#95a5a6">smallint</text>
<polygon fill="#ffffff" stroke="none" points="204.5,-20 204.5,-45 316.5,-45 316.5,-20 204.5,-20"/>
<polygon fill="none" stroke="#2c3e50" points="204.5,-20 204.5,-45 316.5,-45 316.5,-20 204.5,-20"/>
<text text-anchor="start" x="209.5" y="-28.8" font-family="monospace" font-size="14.00" fill="#000000">fselocation</text>
<polygon fill="#ffffff" stroke="none" points="316.5,-20 316.5,-45 404.5,-45 404.5,-20 316.5,-20"/>
<polygon fill="none" stroke="#2c3e50" points="316.5,-20 316.5,-45 404.5,-45 404.5,-20 316.5,-20"/>
<text text-anchor="start" x="321.5" y="-29.8" font-family="monospace" font-style="italic" font-size="14.00" fill="#95a5a6">text</text>
</g>
<!-- pg_filespace_entry&#45;&gt;pg_filespace -->
<g id="edge1" class="edge"><title>pg_filespace_entry:fsefsoid_out&#45;&gt;pg_filespace:oid_in</title>
<path fill="none" stroke="#2c3e50" d="M405.5,-83C606.411,-83 658.482,-107.177 854.451,-107.98"/>
<polygon fill="#2c3e50" stroke="#2c3e50" points="854.493,-111.48 864.5,-108 854.507,-104.48 854.493,-111.48"/>
</g>
</g>
</svg>
