<?xml version="1.0" encoding="UTF-8" standalone="no"?>
<!DOCTYPE svg PUBLIC "-//W3C//DTD SVG 1.1//EN"
 "http://www.w3.org/Graphics/SVG/1.1/DTD/svg11.dtd">
<!-- Generated by graphviz version 2.38.0 (20140413.2041)
 -->
<!-- Title: GPDB Pages: 1 -->
<svg width="2503pt" height="1302pt"
 viewBox="0.00 0.00 2503.00 1302.00" xmlns="http://www.w3.org/2000/svg" xmlns:xlink="http://www.w3.org/1999/xlink">
<g id="graph0" class="graph" transform="scale(1 1) rotate(0) translate(36 1266)">
<title>GPDB</title>
<polygon fill="white" stroke="none" points="-36,36 -36,-1266 2467,-1266 2467,36 -36,36"/>
<text text-anchor="middle" x="1215.5" y="-1200.4" font-family="Helvetica,sans-Serif" font-size="32.00">Greenplum System Catalog: pg_foreign_data_wrapper</text>
<g id="clust1" class="cluster"><title>cluster_from</title>
</g>
<g id="clust2" class="cluster"><title>cluster_selected</title>
</g>
<g id="clust3" class="cluster"><title>cluster_to</title>
</g>
<!-- pg_foreign_server -->
<g id="node1" class="node"><title>pg_foreign_server</title>
<polygon fill="#2c3e50" stroke="none" points="304.5,-908 304.5,-938 493.5,-938 493.5,-908 304.5,-908"/>
<polygon fill="none" stroke="black" points="304.5,-908 304.5,-938 493.5,-938 493.5,-908 304.5,-908"/>
<text text-anchor="start" x="309.5" y="-919.6" font-family="monospace" font-weight="bold" font-size="18.00" fill="#ffffff">pg_foreign_server</text>
<polygon fill="#ffffff" stroke="none" points="304.5,-883 304.5,-908 402.5,-908 402.5,-883 304.5,-883"/>
<polygon fill="none" stroke="#2c3e50" points="304.5,-883 304.5,-908 402.5,-908 402.5,-883 304.5,-883"/>
<text text-anchor="start" x="309.5" y="-891.8" font-family="monospace" font-size="14.00" fill="#000000">oid</text>
<polygon fill="#ffffff" stroke="none" points="402.5,-883 402.5,-908 493.5,-908 493.5,-883 402.5,-883"/>
<polygon fill="none" stroke="#2c3e50" points="402.5,-883 402.5,-908 493.5,-908 493.5,-883 402.5,-883"/>
<text text-anchor="start" x="407.5" y="-892.8" font-family="monospace" font-style="italic" font-size="14.00" fill="#95a5a6">oid</text>
<polygon fill="#ffffff" stroke="none" points="304.5,-858 304.5,-883 402.5,-883 402.5,-858 304.5,-858"/>
<polygon fill="none" stroke="#2c3e50" points="304.5,-858 304.5,-883 402.5,-883 402.5,-858 304.5,-858"/>
<text text-anchor="start" x="309.5" y="-866.8" font-family="monospace" font-size="14.00" fill="#000000">srvname</text>
<polygon fill="#ffffff" stroke="none" points="402.5,-858 402.5,-883 493.5,-883 493.5,-858 402.5,-858"/>
<polygon fill="none" stroke="#2c3e50" points="402.5,-858 402.5,-883 493.5,-883 493.5,-858 402.5,-858"/>
<text text-anchor="start" x="407.5" y="-867.8" font-family="monospace" font-style="italic" font-size="14.00" fill="#95a5a6">name</text>
<polygon fill="#ffffff" stroke="none" points="304.5,-833 304.5,-858 402.5,-858 402.5,-833 304.5,-833"/>
<polygon fill="none" stroke="#2c3e50" points="304.5,-833 304.5,-858 402.5,-858 402.5,-833 304.5,-833"/>
<text text-anchor="start" x="309.5" y="-841.8" font-family="monospace" font-size="14.00" fill="#000000">srvowner</text>
<polygon fill="#ffffff" stroke="none" points="402.5,-833 402.5,-858 493.5,-858 493.5,-833 402.5,-833"/>
<polygon fill="none" stroke="#2c3e50" points="402.5,-833 402.5,-858 493.5,-858 493.5,-833 402.5,-833"/>
<text text-anchor="start" x="407.5" y="-842.8" font-family="monospace" font-style="italic" font-size="14.00" fill="#95a5a6">oid</text>
<polygon fill="#ffffff" stroke="none" points="304.5,-808 304.5,-833 402.5,-833 402.5,-808 304.5,-808"/>
<polygon fill="none" stroke="#2c3e50" points="304.5,-808 304.5,-833 402.5,-833 402.5,-808 304.5,-808"/>
<text text-anchor="start" x="309.5" y="-816.8" font-family="monospace" font-size="14.00" fill="#000000">srvfdw</text>
<polygon fill="#18bc9c" stroke="none" points="402.5,-808 402.5,-833 493.5,-833 493.5,-808 402.5,-808"/>
<polygon fill="none" stroke="#2c3e50" points="402.5,-808 402.5,-833 493.5,-833 493.5,-808 402.5,-808"/>
<text text-anchor="start" x="407.5" y="-817.8" font-family="monospace" font-style="italic" font-size="14.00" fill="#ffffff">oid</text>
<polygon fill="#ffffff" stroke="none" points="304.5,-783 304.5,-808 402.5,-808 402.5,-783 304.5,-783"/>
<polygon fill="none" stroke="#2c3e50" points="304.5,-783 304.5,-808 402.5,-808 402.5,-783 304.5,-783"/>
<text text-anchor="start" x="309.5" y="-791.8" font-family="monospace" font-size="14.00" fill="#000000">srvtype</text>
<polygon fill="#ffffff" stroke="none" points="402.5,-783 402.5,-808 493.5,-808 493.5,-783 402.5,-783"/>
<polygon fill="none" stroke="#2c3e50" points="402.5,-783 402.5,-808 493.5,-808 493.5,-783 402.5,-783"/>
<text text-anchor="start" x="407.5" y="-792.8" font-family="monospace" font-style="italic" font-size="14.00" fill="#95a5a6">text</text>
<polygon fill="#ffffff" stroke="none" points="304.5,-758 304.5,-783 402.5,-783 402.5,-758 304.5,-758"/>
<polygon fill="none" stroke="#2c3e50" points="304.5,-758 304.5,-783 402.5,-783 402.5,-758 304.5,-758"/>
<text text-anchor="start" x="309.5" y="-766.8" font-family="monospace" font-size="14.00" fill="#000000">srvversion</text>
<polygon fill="#ffffff" stroke="none" points="402.5,-758 402.5,-783 493.5,-783 493.5,-758 402.5,-758"/>
<polygon fill="none" stroke="#2c3e50" points="402.5,-758 402.5,-783 493.5,-783 493.5,-758 402.5,-758"/>
<text text-anchor="start" x="407.5" y="-767.8" font-family="monospace" font-style="italic" font-size="14.00" fill="#95a5a6">text</text>
<polygon fill="#ffffff" stroke="none" points="304.5,-733 304.5,-758 402.5,-758 402.5,-733 304.5,-733"/>
<polygon fill="none" stroke="#2c3e50" points="304.5,-733 304.5,-758 402.5,-758 402.5,-733 304.5,-733"/>
<text text-anchor="start" x="309.5" y="-741.8" font-family="monospace" font-size="14.00" fill="#000000">srvacl</text>
<polygon fill="#ffffff" stroke="none" points="402.5,-733 402.5,-758 493.5,-758 493.5,-733 402.5,-733"/>
<polygon fill="none" stroke="#2c3e50" points="402.5,-733 402.5,-758 493.5,-758 493.5,-733 402.5,-733"/>
<text text-anchor="start" x="407.5" y="-742.8" font-family="monospace" font-style="italic" font-size="14.00" fill="#95a5a6">aclitem[]</text>
<polygon fill="#ffffff" stroke="none" points="304.5,-708 304.5,-733 402.5,-733 402.5,-708 304.5,-708"/>
<polygon fill="none" stroke="#2c3e50" points="304.5,-708 304.5,-733 402.5,-733 402.5,-708 304.5,-708"/>
<text text-anchor="start" x="309.5" y="-716.8" font-family="monospace" font-size="14.00" fill="#000000">srvoptions</text>
<polygon fill="#ffffff" stroke="none" points="402.5,-708 402.5,-733 493.5,-733 493.5,-708 402.5,-708"/>
<polygon fill="none" stroke="#2c3e50" points="402.5,-708 402.5,-733 493.5,-733 493.5,-708 402.5,-708"/>
<text text-anchor="start" x="407.5" y="-717.8" font-family="monospace" font-style="italic" font-size="14.00" fill="#95a5a6">text[]</text>
</g>
<!-- pg_foreign_data_wrapper -->
<g id="node2" class="node"><title>pg_foreign_data_wrapper</title>
<polygon fill="#2c3e50" stroke="none" points="1089,-832 1089,-862 1341,-862 1341,-832 1089,-832"/>
<polygon fill="none" stroke="black" points="1089,-832 1089,-862 1341,-862 1341,-832 1089,-832"/>
<text text-anchor="start" x="1094" y="-843.6" font-family="monospace" font-weight="bold" font-size="18.00" fill="#ffffff">pg_foreign_data_wrapper</text>
<polygon fill="#18bc9c" stroke="none" points="1089,-807 1089,-832 1227,-832 1227,-807 1089,-807"/>
<polygon fill="none" stroke="#2c3e50" points="1089,-807 1089,-832 1227,-832 1227,-807 1089,-807"/>
<text text-anchor="start" x="1094" y="-815.8" font-family="monospace" font-size="14.00" fill="#ffffff">oid</text>
<polygon fill="#ffffff" stroke="none" points="1227,-807 1227,-832 1341,-832 1341,-807 1227,-807"/>
<polygon fill="none" stroke="#2c3e50" points="1227,-807 1227,-832 1341,-832 1341,-807 1227,-807"/>
<text text-anchor="start" x="1232" y="-816.8" font-family="monospace" font-style="italic" font-size="14.00" fill="#95a5a6">oid</text>
<polygon fill="#ffffff" stroke="none" points="1089,-782 1089,-807 1227,-807 1227,-782 1089,-782"/>
<polygon fill="none" stroke="#2c3e50" points="1089,-782 1089,-807 1227,-807 1227,-782 1089,-782"/>
<text text-anchor="start" x="1094" y="-790.8" font-family="monospace" font-size="14.00" fill="#000000">fdwname</text>
<polygon fill="#ffffff" stroke="none" points="1227,-782 1227,-807 1341,-807 1341,-782 1227,-782"/>
<polygon fill="none" stroke="#2c3e50" points="1227,-782 1227,-807 1341,-807 1341,-782 1227,-782"/>
<text text-anchor="start" x="1232" y="-791.8" font-family="monospace" font-style="italic" font-size="14.00" fill="#95a5a6">name</text>
<polygon fill="#ffffff" stroke="none" points="1089,-757 1089,-782 1227,-782 1227,-757 1089,-757"/>
<polygon fill="none" stroke="#2c3e50" points="1089,-757 1089,-782 1227,-782 1227,-757 1089,-757"/>
<text text-anchor="start" x="1094" y="-765.8" font-family="monospace" font-size="14.00" fill="#000000">fdwowner</text>
<polygon fill="#18bc9c" stroke="none" points="1227,-757 1227,-782 1341,-782 1341,-757 1227,-757"/>
<polygon fill="none" stroke="#2c3e50" points="1227,-757 1227,-782 1341,-782 1341,-757 1227,-757"/>
<text text-anchor="start" x="1232" y="-766.8" font-family="monospace" font-style="italic" font-size="14.00" fill="#ffffff">oid</text>
<polygon fill="#ffffff" stroke="none" points="1089,-732 1089,-757 1227,-757 1227,-732 1089,-732"/>
<polygon fill="none" stroke="#2c3e50" points="1089,-732 1089,-757 1227,-757 1227,-732 1089,-732"/>
<text text-anchor="start" x="1094" y="-740.8" font-family="monospace" font-size="14.00" fill="#000000">fdwvalidator</text>
<polygon fill="#18bc9c" stroke="none" points="1227,-732 1227,-757 1341,-757 1341,-732 1227,-732"/>
<polygon fill="none" stroke="#2c3e50" points="1227,-732 1227,-757 1341,-757 1341,-732 1227,-732"/>
<text text-anchor="start" x="1232" y="-741.8" font-family="monospace" font-style="italic" font-size="14.00" fill="#ffffff">oid</text>
<polygon fill="#ffffff" stroke="none" points="1089,-707 1089,-732 1227,-732 1227,-707 1089,-707"/>
<polygon fill="none" stroke="#2c3e50" points="1089,-707 1089,-732 1227,-732 1227,-707 1089,-707"/>
<text text-anchor="start" x="1094" y="-715.8" font-family="monospace" font-size="14.00" fill="#000000">fdwacl</text>
<polygon fill="#ffffff" stroke="none" points="1227,-707 1227,-732 1341,-732 1341,-707 1227,-707"/>
<polygon fill="none" stroke="#2c3e50" points="1227,-707 1227,-732 1341,-732 1341,-707 1227,-707"/>
<text text-anchor="start" x="1232" y="-716.8" font-family="monospace" font-style="italic" font-size="14.00" fill="#95a5a6">aclitem[]</text>
<polygon fill="#ffffff" stroke="none" points="1089,-682 1089,-707 1227,-707 1227,-682 1089,-682"/>
<polygon fill="none" stroke="#2c3e50" points="1089,-682 1089,-707 1227,-707 1227,-682 1089,-682"/>
<text text-anchor="start" x="1094" y="-690.8" font-family="monospace" font-size="14.00" fill="#000000">fdwoptions</text>
<polygon fill="#ffffff" stroke="none" points="1227,-682 1227,-707 1341,-707 1341,-682 1227,-682"/>
<polygon fill="none" stroke="#2c3e50" points="1227,-682 1227,-707 1341,-707 1341,-682 1227,-682"/>
<text text-anchor="start" x="1232" y="-691.8" font-family="monospace" font-style="italic" font-size="14.00" fill="#95a5a6">text[]</text>
</g>
<!-- pg_foreign_server&#45;&gt;pg_foreign_data_wrapper -->
<g id="edge3" class="edge"><title>pg_foreign_server:srvfdw_out&#45;&gt;pg_foreign_data_wrapper:oid_in</title>
<path fill="none" stroke="#2c3e50" d="M494.5,-820C754.8,-820 822.449,-820 1077.67,-820"/>
<polygon fill="#2c3e50" stroke="#2c3e50" points="1078,-823.5 1088,-820 1078,-816.5 1078,-823.5"/>
</g>
<!-- pg_authid -->
<g id="node3" class="node"><title>pg_authid</title>
<polygon fill="#2c3e50" stroke="none" points="1852,-1094 1852,-1124 2212,-1124 2212,-1094 1852,-1094"/>
<polygon fill="none" stroke="black" points="1852,-1094 1852,-1124 2212,-1124 2212,-1094 1852,-1094"/>
<text text-anchor="start" x="1984.5" y="-1105.6" font-family="monospace" font-weight="bold" font-size="18.00" fill="#ffffff">pg_authid</text>
<polygon fill="#18bc9c" stroke="none" points="1852,-1069 1852,-1094 2003,-1094 2003,-1069 1852,-1069"/>
<polygon fill="none" stroke="#2c3e50" points="1852,-1069 1852,-1094 2003,-1094 2003,-1069 1852,-1069"/>
<text text-anchor="start" x="1857" y="-1077.8" font-family="monospace" font-size="14.00" fill="#ffffff">oid</text>
<polygon fill="#ffffff" stroke="none" points="2003,-1069 2003,-1094 2212,-1094 2212,-1069 2003,-1069"/>
<polygon fill="none" stroke="#2c3e50" points="2003,-1069 2003,-1094 2212,-1094 2212,-1069 2003,-1069"/>
<text text-anchor="start" x="2008" y="-1078.8" font-family="monospace" font-style="italic" font-size="14.00" fill="#95a5a6">oid</text>
<polygon fill="#ffffff" stroke="none" points="1852,-1044 1852,-1069 2003,-1069 2003,-1044 1852,-1044"/>
<polygon fill="none" stroke="#2c3e50" points="1852,-1044 1852,-1069 2003,-1069 2003,-1044 1852,-1044"/>
<text text-anchor="start" x="1857" y="-1052.8" font-family="monospace" font-size="14.00" fill="#000000">rolname</text>
<polygon fill="#ffffff" stroke="none" points="2003,-1044 2003,-1069 2212,-1069 2212,-1044 2003,-1044"/>
<polygon fill="none" stroke="#2c3e50" points="2003,-1044 2003,-1069 2212,-1069 2212,-1044 2003,-1044"/>
<text text-anchor="start" x="2008" y="-1053.8" font-family="monospace" font-style="italic" font-size="14.00" fill="#95a5a6">name</text>
<polygon fill="#ffffff" stroke="none" points="1852,-1019 1852,-1044 2003,-1044 2003,-1019 1852,-1019"/>
<polygon fill="none" stroke="#2c3e50" points="1852,-1019 1852,-1044 2003,-1044 2003,-1019 1852,-1019"/>
<text text-anchor="start" x="1857" y="-1027.8" font-family="monospace" font-size="14.00" fill="#000000">rolsuper</text>
<polygon fill="#ffffff" stroke="none" points="2003,-1019 2003,-1044 2212,-1044 2212,-1019 2003,-1019"/>
<polygon fill="none" stroke="#2c3e50" points="2003,-1019 2003,-1044 2212,-1044 2212,-1019 2003,-1019"/>
<text text-anchor="start" x="2008" y="-1028.8" font-family="monospace" font-style="italic" font-size="14.00" fill="#95a5a6">boolean</text>
<polygon fill="#ffffff" stroke="none" points="1852,-994 1852,-1019 2003,-1019 2003,-994 1852,-994"/>
<polygon fill="none" stroke="#2c3e50" points="1852,-994 1852,-1019 2003,-1019 2003,-994 1852,-994"/>
<text text-anchor="start" x="1857" y="-1002.8" font-family="monospace" font-size="14.00" fill="#000000">rolinherit</text>
<polygon fill="#ffffff" stroke="none" points="2003,-994 2003,-1019 2212,-1019 2212,-994 2003,-994"/>
<polygon fill="none" stroke="#2c3e50" points="2003,-994 2003,-1019 2212,-1019 2212,-994 2003,-994"/>
<text text-anchor="start" x="2008" y="-1003.8" font-family="monospace" font-style="italic" font-size="14.00" fill="#95a5a6">boolean</text>
<polygon fill="#ffffff" stroke="none" points="1852,-969 1852,-994 2003,-994 2003,-969 1852,-969"/>
<polygon fill="none" stroke="#2c3e50" points="1852,-969 1852,-994 2003,-994 2003,-969 1852,-969"/>
<text text-anchor="start" x="1857" y="-977.8" font-family="monospace" font-size="14.00" fill="#000000">rolcreaterole</text>
<polygon fill="#ffffff" stroke="none" points="2003,-969 2003,-994 2212,-994 2212,-969 2003,-969"/>
<polygon fill="none" stroke="#2c3e50" points="2003,-969 2003,-994 2212,-994 2212,-969 2003,-969"/>
<text text-anchor="start" x="2008" y="-978.8" font-family="monospace" font-style="italic" font-size="14.00" fill="#95a5a6">boolean</text>
<polygon fill="#ffffff" stroke="none" points="1852,-944 1852,-969 2003,-969 2003,-944 1852,-944"/>
<polygon fill="none" stroke="#2c3e50" points="1852,-944 1852,-969 2003,-969 2003,-944 1852,-944"/>
<text text-anchor="start" x="1857" y="-952.8" font-family="monospace" font-size="14.00" fill="#000000">rolcreatedb</text>
<polygon fill="#ffffff" stroke="none" points="2003,-944 2003,-969 2212,-969 2212,-944 2003,-944"/>
<polygon fill="none" stroke="#2c3e50" points="2003,-944 2003,-969 2212,-969 2212,-944 2003,-944"/>
<text text-anchor="start" x="2008" y="-953.8" font-family="monospace" font-style="italic" font-size="14.00" fill="#95a5a6">boolean</text>
<polygon fill="#ffffff" stroke="none" points="1852,-919 1852,-944 2003,-944 2003,-919 1852,-919"/>
<polygon fill="none" stroke="#2c3e50" points="1852,-919 1852,-944 2003,-944 2003,-919 1852,-919"/>
<text text-anchor="start" x="1857" y="-927.8" font-family="monospace" font-size="14.00" fill="#000000">rolcatupdate</text>
<polygon fill="#ffffff" stroke="none" points="2003,-919 2003,-944 2212,-944 2212,-919 2003,-919"/>
<polygon fill="none" stroke="#2c3e50" points="2003,-919 2003,-944 2212,-944 2212,-919 2003,-919"/>
<text text-anchor="start" x="2008" y="-928.8" font-family="monospace" font-style="italic" font-size="14.00" fill="#95a5a6">boolean</text>
<polygon fill="#ffffff" stroke="none" points="1852,-894 1852,-919 2003,-919 2003,-894 1852,-894"/>
<polygon fill="none" stroke="#2c3e50" points="1852,-894 1852,-919 2003,-919 2003,-894 1852,-894"/>
<text text-anchor="start" x="1857" y="-902.8" font-family="monospace" font-size="14.00" fill="#000000">rolcanlogin</text>
<polygon fill="#ffffff" stroke="none" points="2003,-894 2003,-919 2212,-919 2212,-894 2003,-894"/>
<polygon fill="none" stroke="#2c3e50" points="2003,-894 2003,-919 2212,-919 2212,-894 2003,-894"/>
<text text-anchor="start" x="2008" y="-903.8" font-family="monospace" font-style="italic" font-size="14.00" fill="#95a5a6">boolean</text>
<polygon fill="#ffffff" stroke="none" points="1852,-869 1852,-894 2003,-894 2003,-869 1852,-869"/>
<polygon fill="none" stroke="#2c3e50" points="1852,-869 1852,-894 2003,-894 2003,-869 1852,-869"/>
<text text-anchor="start" x="1857" y="-877.8" font-family="monospace" font-size="14.00" fill="#000000">rolconnlimit</text>
<polygon fill="#ffffff" stroke="none" points="2003,-869 2003,-894 2212,-894 2212,-869 2003,-869"/>
<polygon fill="none" stroke="#2c3e50" points="2003,-869 2003,-894 2212,-894 2212,-869 2003,-869"/>
<text text-anchor="start" x="2008" y="-878.8" font-family="monospace" font-style="italic" font-size="14.00" fill="#95a5a6">integer</text>
<polygon fill="#ffffff" stroke="none" points="1852,-844 1852,-869 2003,-869 2003,-844 1852,-844"/>
<polygon fill="none" stroke="#2c3e50" points="1852,-844 1852,-869 2003,-869 2003,-844 1852,-844"/>
<text text-anchor="start" x="1857" y="-852.8" font-family="monospace" font-size="14.00" fill="#000000">rolpassword</text>
<polygon fill="#ffffff" stroke="none" points="2003,-844 2003,-869 2212,-869 2212,-844 2003,-844"/>
<polygon fill="none" stroke="#2c3e50" points="2003,-844 2003,-869 2212,-869 2212,-844 2003,-844"/>
<text text-anchor="start" x="2008" y="-853.8" font-family="monospace" font-style="italic" font-size="14.00" fill="#95a5a6">text</text>
<polygon fill="#ffffff" stroke="none" points="1852,-819 1852,-844 2003,-844 2003,-819 1852,-819"/>
<polygon fill="none" stroke="#2c3e50" points="1852,-819 1852,-844 2003,-844 2003,-819 1852,-819"/>
<text text-anchor="start" x="1857" y="-827.8" font-family="monospace" font-size="14.00" fill="#000000">rolvaliduntil</text>
<polygon fill="#ffffff" stroke="none" points="2003,-819 2003,-844 2212,-844 2212,-819 2003,-819"/>
<polygon fill="none" stroke="#2c3e50" points="2003,-819 2003,-844 2212,-844 2212,-819 2003,-819"/>
<text text-anchor="start" x="2008" y="-828.8" font-family="monospace" font-style="italic" font-size="14.00" fill="#95a5a6">timestamp_with_time_zone</text>
<polygon fill="#ffffff" stroke="none" points="1852,-794 1852,-819 2003,-819 2003,-794 1852,-794"/>
<polygon fill="none" stroke="#2c3e50" points="1852,-794 1852,-819 2003,-819 2003,-794 1852,-794"/>
<text text-anchor="start" x="1857" y="-802.8" font-family="monospace" font-size="14.00" fill="#000000">rolconfig</text>
<polygon fill="#ffffff" stroke="none" points="2003,-794 2003,-819 2212,-819 2212,-794 2003,-794"/>
<polygon fill="none" stroke="#2c3e50" points="2003,-794 2003,-819 2212,-819 2212,-794 2003,-794"/>
<text text-anchor="start" x="2008" y="-803.8" font-family="monospace" font-style="italic" font-size="14.00" fill="#95a5a6">text[]</text>
<polygon fill="#ffffff" stroke="none" points="1852,-769 1852,-794 2003,-794 2003,-769 1852,-769"/>
<polygon fill="none" stroke="#2c3e50" points="1852,-769 1852,-794 2003,-794 2003,-769 1852,-769"/>
<text text-anchor="start" x="1857" y="-777.8" font-family="monospace" font-size="14.00" fill="#000000">rolresqueue</text>
<polygon fill="#ffffff" stroke="none" points="2003,-769 2003,-794 2212,-794 2212,-769 2003,-769"/>
<polygon fill="none" stroke="#2c3e50" points="2003,-769 2003,-794 2212,-794 2212,-769 2003,-769"/>
<text text-anchor="start" x="2008" y="-778.8" font-family="monospace" font-style="italic" font-size="14.00" fill="#95a5a6">oid</text>
<polygon fill="#ffffff" stroke="none" points="1852,-744 1852,-769 2003,-769 2003,-744 1852,-744"/>
<polygon fill="none" stroke="#2c3e50" points="1852,-744 1852,-769 2003,-769 2003,-744 1852,-744"/>
<text text-anchor="start" x="1857" y="-752.8" font-family="monospace" font-size="14.00" fill="#000000">rolcreaterextgpfd</text>
<polygon fill="#ffffff" stroke="none" points="2003,-744 2003,-769 2212,-769 2212,-744 2003,-744"/>
<polygon fill="none" stroke="#2c3e50" points="2003,-744 2003,-769 2212,-769 2212,-744 2003,-744"/>
<text text-anchor="start" x="2008" y="-753.8" font-family="monospace" font-style="italic" font-size="14.00" fill="#95a5a6">boolean</text>
<polygon fill="#ffffff" stroke="none" points="1852,-719 1852,-744 2003,-744 2003,-719 1852,-719"/>
<polygon fill="none" stroke="#2c3e50" points="1852,-719 1852,-744 2003,-744 2003,-719 1852,-719"/>
<text text-anchor="start" x="1857" y="-727.8" font-family="monospace" font-size="14.00" fill="#000000">rolcreaterexthttp</text>
<polygon fill="#ffffff" stroke="none" points="2003,-719 2003,-744 2212,-744 2212,-719 2003,-719"/>
<polygon fill="none" stroke="#2c3e50" points="2003,-719 2003,-744 2212,-744 2212,-719 2003,-719"/>
<text text-anchor="start" x="2008" y="-728.8" font-family="monospace" font-style="italic" font-size="14.00" fill="#95a5a6">boolean</text>
<polygon fill="#ffffff" stroke="none" points="1852,-694 1852,-719 2003,-719 2003,-694 1852,-694"/>
<polygon fill="none" stroke="#2c3e50" points="1852,-694 1852,-719 2003,-719 2003,-694 1852,-694"/>
<text text-anchor="start" x="1857" y="-702.8" font-family="monospace" font-size="14.00" fill="#000000">rolcreatewextgpfd</text>
<polygon fill="#ffffff" stroke="none" points="2003,-694 2003,-719 2212,-719 2212,-694 2003,-694"/>
<polygon fill="none" stroke="#2c3e50" points="2003,-694 2003,-719 2212,-719 2212,-694 2003,-694"/>
<text text-anchor="start" x="2008" y="-703.8" font-family="monospace" font-style="italic" font-size="14.00" fill="#95a5a6">boolean</text>
<polygon fill="#ffffff" stroke="none" points="1852,-669 1852,-694 2003,-694 2003,-669 1852,-669"/>
<polygon fill="none" stroke="#2c3e50" points="1852,-669 1852,-694 2003,-694 2003,-669 1852,-669"/>
<text text-anchor="start" x="1857" y="-677.8" font-family="monospace" font-size="14.00" fill="#000000">rolcreaterexthdfs</text>
<polygon fill="#ffffff" stroke="none" points="2003,-669 2003,-694 2212,-694 2212,-669 2003,-669"/>
<polygon fill="none" stroke="#2c3e50" points="2003,-669 2003,-694 2212,-694 2212,-669 2003,-669"/>
<text text-anchor="start" x="2008" y="-678.8" font-family="monospace" font-style="italic" font-size="14.00" fill="#95a5a6">boolean</text>
<polygon fill="#ffffff" stroke="none" points="1852,-644 1852,-669 2003,-669 2003,-644 1852,-644"/>
<polygon fill="none" stroke="#2c3e50" points="1852,-644 1852,-669 2003,-669 2003,-644 1852,-644"/>
<text text-anchor="start" x="1857" y="-652.8" font-family="monospace" font-size="14.00" fill="#000000">rolcreatewexthdfs</text>
<polygon fill="#ffffff" stroke="none" points="2003,-644 2003,-669 2212,-669 2212,-644 2003,-644"/>
<polygon fill="none" stroke="#2c3e50" points="2003,-644 2003,-669 2212,-669 2212,-644 2003,-644"/>
<text text-anchor="start" x="2008" y="-653.8" font-family="monospace" font-style="italic" font-size="14.00" fill="#95a5a6">boolean</text>
</g>
<!-- pg_foreign_data_wrapper&#45;&gt;pg_authid -->
<g id="edge1" class="edge"><title>pg_foreign_data_wrapper:fdwowner_out&#45;&gt;pg_authid:oid_in</title>
<path fill="none" stroke="#2c3e50" d="M1342,-769C1604.07,-769 1585.96,-1073.8 1840.65,-1081.84"/>
<polygon fill="#2c3e50" stroke="#2c3e50" points="1840.95,-1085.34 1851,-1082 1841.06,-1078.34 1840.95,-1085.34"/>
</g>
<!-- pg_proc -->
<g id="node4" class="node"><title>pg_proc</title>
<polygon fill="#2c3e50" stroke="none" points="1910,-570 1910,-600 2154,-600 2154,-570 1910,-570"/>
<polygon fill="none" stroke="black" points="1910,-570 1910,-600 2154,-600 2154,-570 1910,-570"/>
<text text-anchor="start" x="1995" y="-581.6" font-family="monospace" font-weight="bold" font-size="18.00" fill="#ffffff">pg_proc</text>
<polygon fill="#18bc9c" stroke="none" points="1910,-545 1910,-570 2036,-570 2036,-545 1910,-545"/>
<polygon fill="none" stroke="#2c3e50" points="1910,-545 1910,-570 2036,-570 2036,-545 1910,-545"/>
<text text-anchor="start" x="1915" y="-553.8" font-family="monospace" font-size="14.00" fill="#ffffff">oid</text>
<polygon fill="#ffffff" stroke="none" points="2036,-545 2036,-570 2154,-570 2154,-545 2036,-545"/>
<polygon fill="none" stroke="#2c3e50" points="2036,-545 2036,-570 2154,-570 2154,-545 2036,-545"/>
<text text-anchor="start" x="2041" y="-554.8" font-family="monospace" font-style="italic" font-size="14.00" fill="#95a5a6">oid</text>
<polygon fill="#ffffff" stroke="none" points="1910,-520 1910,-545 2036,-545 2036,-520 1910,-520"/>
<polygon fill="none" stroke="#2c3e50" points="1910,-520 1910,-545 2036,-545 2036,-520 1910,-520"/>
<text text-anchor="start" x="1915" y="-528.8" font-family="monospace" font-size="14.00" fill="#000000">proname</text>
<polygon fill="#ffffff" stroke="none" points="2036,-520 2036,-545 2154,-545 2154,-520 2036,-520"/>
<polygon fill="none" stroke="#2c3e50" points="2036,-520 2036,-545 2154,-545 2154,-520 2036,-520"/>
<text text-anchor="start" x="2041" y="-529.8" font-family="monospace" font-style="italic" font-size="14.00" fill="#95a5a6">name</text>
<polygon fill="#ffffff" stroke="none" points="1910,-495 1910,-520 2036,-520 2036,-495 1910,-495"/>
<polygon fill="none" stroke="#2c3e50" points="1910,-495 1910,-520 2036,-520 2036,-495 1910,-495"/>
<text text-anchor="start" x="1915" y="-503.8" font-family="monospace" font-size="14.00" fill="#000000">pronamespace</text>
<polygon fill="#ffffff" stroke="none" points="2036,-495 2036,-520 2154,-520 2154,-495 2036,-495"/>
<polygon fill="none" stroke="#2c3e50" points="2036,-495 2036,-520 2154,-520 2154,-495 2036,-495"/>
<text text-anchor="start" x="2041" y="-504.8" font-family="monospace" font-style="italic" font-size="14.00" fill="#95a5a6">oid</text>
<polygon fill="#ffffff" stroke="none" points="1910,-470 1910,-495 2036,-495 2036,-470 1910,-470"/>
<polygon fill="none" stroke="#2c3e50" points="1910,-470 1910,-495 2036,-495 2036,-470 1910,-470"/>
<text text-anchor="start" x="1915" y="-478.8" font-family="monospace" font-size="14.00" fill="#000000">proowner</text>
<polygon fill="#ffffff" stroke="none" points="2036,-470 2036,-495 2154,-495 2154,-470 2036,-470"/>
<polygon fill="none" stroke="#2c3e50" points="2036,-470 2036,-495 2154,-495 2154,-470 2036,-470"/>
<text text-anchor="start" x="2041" y="-479.8" font-family="monospace" font-style="italic" font-size="14.00" fill="#95a5a6">oid</text>
<polygon fill="#ffffff" stroke="none" points="1910,-445 1910,-470 2036,-470 2036,-445 1910,-445"/>
<polygon fill="none" stroke="#2c3e50" points="1910,-445 1910,-470 2036,-470 2036,-445 1910,-445"/>
<text text-anchor="start" x="1915" y="-453.8" font-family="monospace" font-size="14.00" fill="#000000">prolang</text>
<polygon fill="#ffffff" stroke="none" points="2036,-445 2036,-470 2154,-470 2154,-445 2036,-445"/>
<polygon fill="none" stroke="#2c3e50" points="2036,-445 2036,-470 2154,-470 2154,-445 2036,-445"/>
<text text-anchor="start" x="2041" y="-454.8" font-family="monospace" font-style="italic" font-size="14.00" fill="#95a5a6">oid</text>
<polygon fill="#ffffff" stroke="none" points="1910,-420 1910,-445 2036,-445 2036,-420 1910,-420"/>
<polygon fill="none" stroke="#2c3e50" points="1910,-420 1910,-445 2036,-445 2036,-420 1910,-420"/>
<text text-anchor="start" x="1915" y="-428.8" font-family="monospace" font-size="14.00" fill="#000000">proisagg</text>
<polygon fill="#ffffff" stroke="none" points="2036,-420 2036,-445 2154,-445 2154,-420 2036,-420"/>
<polygon fill="none" stroke="#2c3e50" points="2036,-420 2036,-445 2154,-445 2154,-420 2036,-420"/>
<text text-anchor="start" x="2041" y="-429.8" font-family="monospace" font-style="italic" font-size="14.00" fill="#95a5a6">boolean</text>
<polygon fill="#ffffff" stroke="none" points="1910,-395 1910,-420 2036,-420 2036,-395 1910,-395"/>
<polygon fill="none" stroke="#2c3e50" points="1910,-395 1910,-420 2036,-420 2036,-395 1910,-395"/>
<text text-anchor="start" x="1915" y="-403.8" font-family="monospace" font-size="14.00" fill="#000000">prosecdef</text>
<polygon fill="#ffffff" stroke="none" points="2036,-395 2036,-420 2154,-420 2154,-395 2036,-395"/>
<polygon fill="none" stroke="#2c3e50" points="2036,-395 2036,-420 2154,-420 2154,-395 2036,-395"/>
<text text-anchor="start" x="2041" y="-404.8" font-family="monospace" font-style="italic" font-size="14.00" fill="#95a5a6">boolean</text>
<polygon fill="#ffffff" stroke="none" points="1910,-370 1910,-395 2036,-395 2036,-370 1910,-370"/>
<polygon fill="none" stroke="#2c3e50" points="1910,-370 1910,-395 2036,-395 2036,-370 1910,-370"/>
<text text-anchor="start" x="1915" y="-378.8" font-family="monospace" font-size="14.00" fill="#000000">proisstrict</text>
<polygon fill="#ffffff" stroke="none" points="2036,-370 2036,-395 2154,-395 2154,-370 2036,-370"/>
<polygon fill="none" stroke="#2c3e50" points="2036,-370 2036,-395 2154,-395 2154,-370 2036,-370"/>
<text text-anchor="start" x="2041" y="-379.8" font-family="monospace" font-style="italic" font-size="14.00" fill="#95a5a6">boolean</text>
<polygon fill="#ffffff" stroke="none" points="1910,-345 1910,-370 2036,-370 2036,-345 1910,-345"/>
<polygon fill="none" stroke="#2c3e50" points="1910,-345 1910,-370 2036,-370 2036,-345 1910,-345"/>
<text text-anchor="start" x="1915" y="-353.8" font-family="monospace" font-size="14.00" fill="#000000">proretset</text>
<polygon fill="#ffffff" stroke="none" points="2036,-345 2036,-370 2154,-370 2154,-345 2036,-345"/>
<polygon fill="none" stroke="#2c3e50" points="2036,-345 2036,-370 2154,-370 2154,-345 2036,-345"/>
<text text-anchor="start" x="2041" y="-354.8" font-family="monospace" font-style="italic" font-size="14.00" fill="#95a5a6">boolean</text>
<polygon fill="#ffffff" stroke="none" points="1910,-320 1910,-345 2036,-345 2036,-320 1910,-320"/>
<polygon fill="none" stroke="#2c3e50" points="1910,-320 1910,-345 2036,-345 2036,-320 1910,-320"/>
<text text-anchor="start" x="1915" y="-328.8" font-family="monospace" font-size="14.00" fill="#000000">provolatile</text>
<polygon fill="#ffffff" stroke="none" points="2036,-320 2036,-345 2154,-345 2154,-320 2036,-320"/>
<polygon fill="none" stroke="#2c3e50" points="2036,-320 2036,-345 2154,-345 2154,-320 2036,-320"/>
<text text-anchor="start" x="2041" y="-329.8" font-family="monospace" font-style="italic" font-size="14.00" fill="#95a5a6">quoted_char</text>
<polygon fill="#ffffff" stroke="none" points="1910,-295 1910,-320 2036,-320 2036,-295 1910,-295"/>
<polygon fill="none" stroke="#2c3e50" points="1910,-295 1910,-320 2036,-320 2036,-295 1910,-295"/>
<text text-anchor="start" x="1915" y="-303.8" font-family="monospace" font-size="14.00" fill="#000000">pronargs</text>
<polygon fill="#ffffff" stroke="none" points="2036,-295 2036,-320 2154,-320 2154,-295 2036,-295"/>
<polygon fill="none" stroke="#2c3e50" points="2036,-295 2036,-320 2154,-320 2154,-295 2036,-295"/>
<text text-anchor="start" x="2041" y="-304.8" font-family="monospace" font-style="italic" font-size="14.00" fill="#95a5a6">smallint</text>
<polygon fill="#ffffff" stroke="none" points="1910,-270 1910,-295 2036,-295 2036,-270 1910,-270"/>
<polygon fill="none" stroke="#2c3e50" points="1910,-270 1910,-295 2036,-295 2036,-270 1910,-270"/>
<text text-anchor="start" x="1915" y="-278.8" font-family="monospace" font-size="14.00" fill="#000000">prorettype</text>
<polygon fill="#ffffff" stroke="none" points="2036,-270 2036,-295 2154,-295 2154,-270 2036,-270"/>
<polygon fill="none" stroke="#2c3e50" points="2036,-270 2036,-295 2154,-295 2154,-270 2036,-270"/>
<text text-anchor="start" x="2041" y="-279.8" font-family="monospace" font-style="italic" font-size="14.00" fill="#95a5a6">oid</text>
<polygon fill="#ffffff" stroke="none" points="1910,-245 1910,-270 2036,-270 2036,-245 1910,-245"/>
<polygon fill="none" stroke="#2c3e50" points="1910,-245 1910,-270 2036,-270 2036,-245 1910,-245"/>
<text text-anchor="start" x="1915" y="-253.8" font-family="monospace" font-size="14.00" fill="#000000">proiswin</text>
<polygon fill="#ffffff" stroke="none" points="2036,-245 2036,-270 2154,-270 2154,-245 2036,-245"/>
<polygon fill="none" stroke="#2c3e50" points="2036,-245 2036,-270 2154,-270 2154,-245 2036,-245"/>
<text text-anchor="start" x="2041" y="-254.8" font-family="monospace" font-style="italic" font-size="14.00" fill="#95a5a6">boolean</text>
<polygon fill="#ffffff" stroke="none" points="1910,-220 1910,-245 2036,-245 2036,-220 1910,-220"/>
<polygon fill="none" stroke="#2c3e50" points="1910,-220 1910,-245 2036,-245 2036,-220 1910,-220"/>
<text text-anchor="start" x="1915" y="-228.8" font-family="monospace" font-size="14.00" fill="#000000">proargtypes</text>
<polygon fill="#ffffff" stroke="none" points="2036,-220 2036,-245 2154,-245 2154,-220 2036,-220"/>
<polygon fill="none" stroke="#2c3e50" points="2036,-220 2036,-245 2154,-245 2154,-220 2036,-220"/>
<text text-anchor="start" x="2041" y="-229.8" font-family="monospace" font-style="italic" font-size="14.00" fill="#95a5a6">oidvector</text>
<polygon fill="#ffffff" stroke="none" points="1910,-195 1910,-220 2036,-220 2036,-195 1910,-195"/>
<polygon fill="none" stroke="#2c3e50" points="1910,-195 1910,-220 2036,-220 2036,-195 1910,-195"/>
<text text-anchor="start" x="1915" y="-203.8" font-family="monospace" font-size="14.00" fill="#000000">proallargtypes</text>
<polygon fill="#ffffff" stroke="none" points="2036,-195 2036,-220 2154,-220 2154,-195 2036,-195"/>
<polygon fill="none" stroke="#2c3e50" points="2036,-195 2036,-220 2154,-220 2154,-195 2036,-195"/>
<text text-anchor="start" x="2041" y="-204.8" font-family="monospace" font-style="italic" font-size="14.00" fill="#95a5a6">oid[]</text>
<polygon fill="#ffffff" stroke="none" points="1910,-170 1910,-195 2036,-195 2036,-170 1910,-170"/>
<polygon fill="none" stroke="#2c3e50" points="1910,-170 1910,-195 2036,-195 2036,-170 1910,-170"/>
<text text-anchor="start" x="1915" y="-178.8" font-family="monospace" font-size="14.00" fill="#000000">proargmodes</text>
<polygon fill="#ffffff" stroke="none" points="2036,-170 2036,-195 2154,-195 2154,-170 2036,-170"/>
<polygon fill="none" stroke="#2c3e50" points="2036,-170 2036,-195 2154,-195 2154,-170 2036,-170"/>
<text text-anchor="start" x="2041" y="-179.8" font-family="monospace" font-style="italic" font-size="14.00" fill="#95a5a6">quoted_char[]</text>
<polygon fill="#ffffff" stroke="none" points="1910,-145 1910,-170 2036,-170 2036,-145 1910,-145"/>
<polygon fill="none" stroke="#2c3e50" points="1910,-145 1910,-170 2036,-170 2036,-145 1910,-145"/>
<text text-anchor="start" x="1915" y="-153.8" font-family="monospace" font-size="14.00" fill="#000000">proargnames</text>
<polygon fill="#ffffff" stroke="none" points="2036,-145 2036,-170 2154,-170 2154,-145 2036,-145"/>
<polygon fill="none" stroke="#2c3e50" points="2036,-145 2036,-170 2154,-170 2154,-145 2036,-145"/>
<text text-anchor="start" x="2041" y="-154.8" font-family="monospace" font-style="italic" font-size="14.00" fill="#95a5a6">text[]</text>
<polygon fill="#ffffff" stroke="none" points="1910,-120 1910,-145 2036,-145 2036,-120 1910,-120"/>
<polygon fill="none" stroke="#2c3e50" points="1910,-120 1910,-145 2036,-145 2036,-120 1910,-120"/>
<text text-anchor="start" x="1915" y="-128.8" font-family="monospace" font-size="14.00" fill="#000000">prosrc</text>
<polygon fill="#ffffff" stroke="none" points="2036,-120 2036,-145 2154,-145 2154,-120 2036,-120"/>
<polygon fill="none" stroke="#2c3e50" points="2036,-120 2036,-145 2154,-145 2154,-120 2036,-120"/>
<text text-anchor="start" x="2041" y="-129.8" font-family="monospace" font-style="italic" font-size="14.00" fill="#95a5a6">text</text>
<polygon fill="#ffffff" stroke="none" points="1910,-95 1910,-120 2036,-120 2036,-95 1910,-95"/>
<polygon fill="none" stroke="#2c3e50" points="1910,-95 1910,-120 2036,-120 2036,-95 1910,-95"/>
<text text-anchor="start" x="1915" y="-103.8" font-family="monospace" font-size="14.00" fill="#000000">probin</text>
<polygon fill="#ffffff" stroke="none" points="2036,-95 2036,-120 2154,-120 2154,-95 2036,-95"/>
<polygon fill="none" stroke="#2c3e50" points="2036,-95 2036,-120 2154,-120 2154,-95 2036,-95"/>
<text text-anchor="start" x="2041" y="-104.8" font-family="monospace" font-style="italic" font-size="14.00" fill="#95a5a6">bytea</text>
<polygon fill="#ffffff" stroke="none" points="1910,-70 1910,-95 2036,-95 2036,-70 1910,-70"/>
<polygon fill="none" stroke="#2c3e50" points="1910,-70 1910,-95 2036,-95 2036,-70 1910,-70"/>
<text text-anchor="start" x="1915" y="-78.8" font-family="monospace" font-size="14.00" fill="#000000">proacl</text>
<polygon fill="#ffffff" stroke="none" points="2036,-70 2036,-95 2154,-95 2154,-70 2036,-70"/>
<polygon fill="none" stroke="#2c3e50" points="2036,-70 2036,-95 2154,-95 2154,-70 2036,-70"/>
<text text-anchor="start" x="2041" y="-79.8" font-family="monospace" font-style="italic" font-size="14.00" fill="#95a5a6">aclitem[]</text>
<polygon fill="#ffffff" stroke="none" points="1910,-45 1910,-70 2036,-70 2036,-45 1910,-45"/>
<polygon fill="none" stroke="#2c3e50" points="1910,-45 1910,-70 2036,-70 2036,-45 1910,-45"/>
<text text-anchor="start" x="1915" y="-53.8" font-family="monospace" font-size="14.00" fill="#000000">prodataaccess</text>
<polygon fill="#ffffff" stroke="none" points="2036,-45 2036,-70 2154,-70 2154,-45 2036,-45"/>
<polygon fill="none" stroke="#2c3e50" points="2036,-45 2036,-70 2154,-70 2154,-45 2036,-45"/>
<text text-anchor="start" x="2041" y="-54.8" font-family="monospace" font-style="italic" font-size="14.00" fill="#95a5a6">quoted_char</text>
<polygon fill="#ffffff" stroke="none" points="1910,-20 1910,-45 2036,-45 2036,-20 1910,-20"/>
<polygon fill="none" stroke="#2c3e50" points="1910,-20 1910,-45 2036,-45 2036,-20 1910,-20"/>
<text text-anchor="start" x="1915" y="-28.8" font-family="monospace" font-size="14.00" fill="#000000">provariadic</text>
<polygon fill="#ffffff" stroke="none" points="2036,-20 2036,-45 2154,-45 2154,-20 2036,-20"/>
<polygon fill="none" stroke="#2c3e50" points="2036,-20 2036,-45 2154,-45 2154,-20 2036,-20"/>
<text text-anchor="start" x="2041" y="-29.8" font-family="monospace" font-style="italic" font-size="14.00" fill="#95a5a6">oid</text>
</g>
<!-- pg_foreign_data_wrapper&#45;&gt;pg_proc -->
<g id="edge2" class="edge"><title>pg_foreign_data_wrapper:fdwvalidator_out&#45;&gt;pg_proc:oid_in</title>
<path fill="none" stroke="#2c3e50" d="M1342,-744C1482.65,-744 1500.15,-665.202 1634,-622 1750.16,-584.509 1781.8,-559.402 1898.92,-558.057"/>
<polygon fill="#2c3e50" stroke="#2c3e50" points="1899.02,-561.556 1909,-558 1898.98,-554.557 1899.02,-561.556"/>
</g>
</g>
</svg>
