<?xml version="1.0" encoding="UTF-8" standalone="no"?>
<!DOCTYPE svg PUBLIC "-//W3C//DTD SVG 1.1//EN"
 "http://www.w3.org/Graphics/SVG/1.1/DTD/svg11.dtd">
<!-- Generated by graphviz version 2.38.0 (20140413.2041)
 -->
<!-- Title: GPDB Pages: 1 -->
<svg width="1488pt" height="304pt"
 viewBox="0.00 0.00 1488.00 304.00" xmlns="http://www.w3.org/2000/svg" xmlns:xlink="http://www.w3.org/1999/xlink">
<g id="graph0" class="graph" transform="scale(1 1) rotate(0) translate(36 268)">
<title>GPDB</title>
<polygon fill="white" stroke="none" points="-36,36 -36,-268 1452,-268 1452,36 -36,36"/>
<text text-anchor="middle" x="708" y="-202.4" font-family="Helvetica,sans-Serif" font-size="32.00">Greenplum System Catalog: pg_filespace_entry</text>
<g id="clust2" class="cluster"><title>cluster_selected</title>
</g>
<g id="clust3" class="cluster"><title>cluster_to</title>
</g>
<!-- pg_filespace_entry -->
<g id="node1" class="node"><title>pg_filespace_entry</title>
<polygon fill="#2c3e50" stroke="none" points="249,-95 249,-125 449,-125 449,-95 249,-95"/>
<polygon fill="none" stroke="black" points="249,-95 249,-125 449,-125 449,-95 249,-95"/>
<text text-anchor="start" x="254" y="-106.6" font-family="monospace" font-weight="bold" font-size="18.00" fill="#ffffff">pg_filespace_entry</text>
<polygon fill="#ffffff" stroke="none" points="249,-70 249,-95 361,-95 361,-70 249,-70"/>
<polygon fill="none" stroke="#2c3e50" points="249,-70 249,-95 361,-95 361,-70 249,-70"/>
<text text-anchor="start" x="254" y="-78.8" font-family="monospace" font-size="14.00" fill="#000000">fsefsoid</text>
<polygon fill="#18bc9c" stroke="none" points="361,-70 361,-95 449,-95 449,-70 361,-70"/>
<polygon fill="none" stroke="#2c3e50" points="361,-70 361,-95 449,-95 449,-70 361,-70"/>
<text text-anchor="start" x="366" y="-79.8" font-family="monospace" font-style="italic" font-size="14.00" fill="#ffffff">oid</text>
<polygon fill="#ffffff" stroke="none" points="249,-45 249,-70 361,-70 361,-45 249,-45"/>
<polygon fill="none" stroke="#2c3e50" points="249,-45 249,-70 361,-70 361,-45 249,-45"/>
<text text-anchor="start" x="254" y="-53.8" font-family="monospace" font-size="14.00" fill="#000000">fsedbid</text>
<polygon fill="#ffffff" stroke="none" points="361,-45 361,-70 449,-70 449,-45 361,-45"/>
<polygon fill="none" stroke="#2c3e50" points="361,-45 361,-70 449,-70 449,-45 361,-45"/>
<text text-anchor="start" x="366" y="-54.8" font-family="monospace" font-style="italic" font-size="14.00" fill="#95a5a6">smallint</text>
<polygon fill="#ffffff" stroke="none" points="249,-20 249,-45 361,-45 361,-20 249,-20"/>
<polygon fill="none" stroke="#2c3e50" points="249,-20 249,-45 361,-45 361,-20 249,-20"/>
<text text-anchor="start" x="254" y="-28.8" font-family="monospace" font-size="14.00" fill="#000000">fselocation</text>
<polygon fill="#ffffff" stroke="none" points="361,-20 361,-45 449,-45 449,-20 361,-20"/>
<polygon fill="none" stroke="#2c3e50" points="361,-20 361,-45 449,-45 449,-20 361,-20"/>
<text text-anchor="start" x="366" y="-29.8" font-family="monospace" font-style="italic" font-size="14.00" fill="#95a5a6">text</text>
</g>
<!-- pg_filespace -->
<g id="node2" class="node"><title>pg_filespace</title>
<polygon fill="#2c3e50" stroke="none" points="998.5,-95 998.5,-125 1135.5,-125 1135.5,-95 998.5,-95"/>
<polygon fill="none" stroke="black" points="998.5,-95 998.5,-125 1135.5,-125 1135.5,-95 998.5,-95"/>
<text text-anchor="start" x="1003.5" y="-106.6" font-family="monospace" font-weight="bold" font-size="18.00" fill="#ffffff">pg_filespace</text>
<polygon fill="#18bc9c" stroke="none" points="998.5,-70 998.5,-95 1078.5,-95 1078.5,-70 998.5,-70"/>
<polygon fill="none" stroke="#2c3e50" points="998.5,-70 998.5,-95 1078.5,-95 1078.5,-70 998.5,-70"/>
<text text-anchor="start" x="1003.5" y="-78.8" font-family="monospace" font-size="14.00" fill="#ffffff">oid</text>
<polygon fill="#ffffff" stroke="none" points="1078.5,-70 1078.5,-95 1135.5,-95 1135.5,-70 1078.5,-70"/>
<polygon fill="none" stroke="#2c3e50" points="1078.5,-70 1078.5,-95 1135.5,-95 1135.5,-70 1078.5,-70"/>
<text text-anchor="start" x="1083.5" y="-79.8" font-family="monospace" font-style="italic" font-size="14.00" fill="#95a5a6">oid</text>
<polygon fill="#ffffff" stroke="none" points="998.5,-45 998.5,-70 1078.5,-70 1078.5,-45 998.5,-45"/>
<polygon fill="none" stroke="#2c3e50" points="998.5,-45 998.5,-70 1078.5,-70 1078.5,-45 998.5,-45"/>
<text text-anchor="start" x="1003.5" y="-53.8" font-family="monospace" font-size="14.00" fill="#000000">fsname</text>
<polygon fill="#ffffff" stroke="none" points="1078.5,-45 1078.5,-70 1135.5,-70 1135.5,-45 1078.5,-45"/>
<polygon fill="none" stroke="#2c3e50" points="1078.5,-45 1078.5,-70 1135.5,-70 1135.5,-45 1078.5,-45"/>
<text text-anchor="start" x="1083.5" y="-54.8" font-family="monospace" font-style="italic" font-size="14.00" fill="#95a5a6">name</text>
<polygon fill="#ffffff" stroke="none" points="998.5,-20 998.5,-45 1078.5,-45 1078.5,-20 998.5,-20"/>
<polygon fill="none" stroke="#2c3e50" points="998.5,-20 998.5,-45 1078.5,-45 1078.5,-20 998.5,-20"/>
<text text-anchor="start" x="1003.5" y="-28.8" font-family="monospace" font-size="14.00" fill="#000000">fsowner</text>
<polygon fill="#ffffff" stroke="none" points="1078.5,-20 1078.5,-45 1135.5,-45 1135.5,-20 1078.5,-20"/>
<polygon fill="none" stroke="#2c3e50" points="1078.5,-20 1078.5,-45 1135.5,-45 1135.5,-20 1078.5,-20"/>
<text text-anchor="start" x="1083.5" y="-29.8" font-family="monospace" font-style="italic" font-size="14.00" fill="#95a5a6">oid</text>
</g>
<!-- pg_filespace_entry&#45;&gt;pg_filespace -->
<g id="edge1" class="edge"><title>pg_filespace_entry:fsefsoid_out&#45;&gt;pg_filespace:oid_in</title>
<path fill="none" stroke="#2c3e50" d="M450,-83C689.888,-83 752.407,-83 987.272,-83"/>
<polygon fill="#2c3e50" stroke="#2c3e50" points="987.5,-86.5001 997.5,-83 987.5,-79.5001 987.5,-86.5001"/>
</g>
</g>
</svg>
