<?xml version="1.0" encoding="UTF-8" standalone="no"?>
<!DOCTYPE svg PUBLIC "-//W3C//DTD SVG 1.1//EN"
 "http://www.w3.org/Graphics/SVG/1.1/DTD/svg11.dtd">
<!-- Generated by graphviz version 2.38.0 (20140413.2041)
 -->
<!-- Title: GPDB Pages: 1 -->
<svg width="2176pt" height="902pt"
 viewBox="0.00 0.00 2176.00 902.00" xmlns="http://www.w3.org/2000/svg" xmlns:xlink="http://www.w3.org/1999/xlink">
<g id="graph0" class="graph" transform="scale(1 1) rotate(0) translate(36 866)">
<title>GPDB</title>
<polygon fill="white" stroke="none" points="-36,36 -36,-866 2140,-866 2140,36 -36,36"/>
<text text-anchor="middle" x="1052" y="-800.4" font-family="Helvetica,sans-Serif" font-size="32.00">Greenplum System Catalog: pg_foreign_server</text>
<g id="clust1" class="cluster"><title>cluster_from</title>
</g>
<g id="clust2" class="cluster"><title>cluster_selected</title>
</g>
<g id="clust3" class="cluster"><title>cluster_to</title>
</g>
<!-- pg_user_mapping -->
<g id="node1" class="node"><title>pg_user_mapping</title>
<polygon fill="#2c3e50" stroke="none" points="259.5,-533 259.5,-563 427.5,-563 427.5,-533 259.5,-533"/>
<polygon fill="none" stroke="black" points="259.5,-533 259.5,-563 427.5,-563 427.5,-533 259.5,-533"/>
<text text-anchor="start" x="264.5" y="-544.6" font-family="monospace" font-weight="bold" font-size="18.00" fill="#ffffff">pg_user_mapping</text>
<polygon fill="#ffffff" stroke="none" points="259.5,-508 259.5,-533 355.5,-533 355.5,-508 259.5,-508"/>
<polygon fill="none" stroke="#2c3e50" points="259.5,-508 259.5,-533 355.5,-533 355.5,-508 259.5,-508"/>
<text text-anchor="start" x="264.5" y="-516.8" font-family="monospace" font-size="14.00" fill="#000000">oid</text>
<polygon fill="#ffffff" stroke="none" points="355.5,-508 355.5,-533 427.5,-533 427.5,-508 355.5,-508"/>
<polygon fill="none" stroke="#2c3e50" points="355.5,-508 355.5,-533 427.5,-533 427.5,-508 355.5,-508"/>
<text text-anchor="start" x="360.5" y="-517.8" font-family="monospace" font-style="italic" font-size="14.00" fill="#95a5a6">oid</text>
<polygon fill="#ffffff" stroke="none" points="259.5,-483 259.5,-508 355.5,-508 355.5,-483 259.5,-483"/>
<polygon fill="none" stroke="#2c3e50" points="259.5,-483 259.5,-508 355.5,-508 355.5,-483 259.5,-483"/>
<text text-anchor="start" x="264.5" y="-491.8" font-family="monospace" font-size="14.00" fill="#000000">umuser</text>
<polygon fill="#ffffff" stroke="none" points="355.5,-483 355.5,-508 427.5,-508 427.5,-483 355.5,-483"/>
<polygon fill="none" stroke="#2c3e50" points="355.5,-483 355.5,-508 427.5,-508 427.5,-483 355.5,-483"/>
<text text-anchor="start" x="360.5" y="-492.8" font-family="monospace" font-style="italic" font-size="14.00" fill="#95a5a6">oid</text>
<polygon fill="#ffffff" stroke="none" points="259.5,-458 259.5,-483 355.5,-483 355.5,-458 259.5,-458"/>
<polygon fill="none" stroke="#2c3e50" points="259.5,-458 259.5,-483 355.5,-483 355.5,-458 259.5,-458"/>
<text text-anchor="start" x="264.5" y="-466.8" font-family="monospace" font-size="14.00" fill="#000000">umserver</text>
<polygon fill="#18bc9c" stroke="none" points="355.5,-458 355.5,-483 427.5,-483 427.5,-458 355.5,-458"/>
<polygon fill="none" stroke="#2c3e50" points="355.5,-458 355.5,-483 427.5,-483 427.5,-458 355.5,-458"/>
<text text-anchor="start" x="360.5" y="-467.8" font-family="monospace" font-style="italic" font-size="14.00" fill="#ffffff">oid</text>
<polygon fill="#ffffff" stroke="none" points="259.5,-433 259.5,-458 355.5,-458 355.5,-433 259.5,-433"/>
<polygon fill="none" stroke="#2c3e50" points="259.5,-433 259.5,-458 355.5,-458 355.5,-433 259.5,-433"/>
<text text-anchor="start" x="264.5" y="-441.8" font-family="monospace" font-size="14.00" fill="#000000">umoptions</text>
<polygon fill="#ffffff" stroke="none" points="355.5,-433 355.5,-458 427.5,-458 427.5,-433 355.5,-433"/>
<polygon fill="none" stroke="#2c3e50" points="355.5,-433 355.5,-458 427.5,-458 427.5,-433 355.5,-433"/>
<text text-anchor="start" x="360.5" y="-442.8" font-family="monospace" font-style="italic" font-size="14.00" fill="#95a5a6">text[]</text>
</g>
<!-- pg_foreign_server -->
<g id="node3" class="node"><title>pg_foreign_server</title>
<polygon fill="#2c3e50" stroke="none" points="957.5,-407 957.5,-437 1146.5,-437 1146.5,-407 957.5,-407"/>
<polygon fill="none" stroke="black" points="957.5,-407 957.5,-437 1146.5,-437 1146.5,-407 957.5,-407"/>
<text text-anchor="start" x="962.5" y="-418.6" font-family="monospace" font-weight="bold" font-size="18.00" fill="#ffffff">pg_foreign_server</text>
<polygon fill="#18bc9c" stroke="none" points="957.5,-382 957.5,-407 1055.5,-407 1055.5,-382 957.5,-382"/>
<polygon fill="none" stroke="#2c3e50" points="957.5,-382 957.5,-407 1055.5,-407 1055.5,-382 957.5,-382"/>
<text text-anchor="start" x="962.5" y="-390.8" font-family="monospace" font-size="14.00" fill="#ffffff">oid</text>
<polygon fill="#ffffff" stroke="none" points="1055.5,-382 1055.5,-407 1146.5,-407 1146.5,-382 1055.5,-382"/>
<polygon fill="none" stroke="#2c3e50" points="1055.5,-382 1055.5,-407 1146.5,-407 1146.5,-382 1055.5,-382"/>
<text text-anchor="start" x="1060.5" y="-391.8" font-family="monospace" font-style="italic" font-size="14.00" fill="#95a5a6">oid</text>
<polygon fill="#ffffff" stroke="none" points="957.5,-357 957.5,-382 1055.5,-382 1055.5,-357 957.5,-357"/>
<polygon fill="none" stroke="#2c3e50" points="957.5,-357 957.5,-382 1055.5,-382 1055.5,-357 957.5,-357"/>
<text text-anchor="start" x="962.5" y="-365.8" font-family="monospace" font-size="14.00" fill="#000000">srvname</text>
<polygon fill="#ffffff" stroke="none" points="1055.5,-357 1055.5,-382 1146.5,-382 1146.5,-357 1055.5,-357"/>
<polygon fill="none" stroke="#2c3e50" points="1055.5,-357 1055.5,-382 1146.5,-382 1146.5,-357 1055.5,-357"/>
<text text-anchor="start" x="1060.5" y="-366.8" font-family="monospace" font-style="italic" font-size="14.00" fill="#95a5a6">name</text>
<polygon fill="#ffffff" stroke="none" points="957.5,-332 957.5,-357 1055.5,-357 1055.5,-332 957.5,-332"/>
<polygon fill="none" stroke="#2c3e50" points="957.5,-332 957.5,-357 1055.5,-357 1055.5,-332 957.5,-332"/>
<text text-anchor="start" x="962.5" y="-340.8" font-family="monospace" font-size="14.00" fill="#000000">srvowner</text>
<polygon fill="#18bc9c" stroke="none" points="1055.5,-332 1055.5,-357 1146.5,-357 1146.5,-332 1055.5,-332"/>
<polygon fill="none" stroke="#2c3e50" points="1055.5,-332 1055.5,-357 1146.5,-357 1146.5,-332 1055.5,-332"/>
<text text-anchor="start" x="1060.5" y="-341.8" font-family="monospace" font-style="italic" font-size="14.00" fill="#ffffff">oid</text>
<polygon fill="#ffffff" stroke="none" points="957.5,-307 957.5,-332 1055.5,-332 1055.5,-307 957.5,-307"/>
<polygon fill="none" stroke="#2c3e50" points="957.5,-307 957.5,-332 1055.5,-332 1055.5,-307 957.5,-307"/>
<text text-anchor="start" x="962.5" y="-315.8" font-family="monospace" font-size="14.00" fill="#000000">srvfdw</text>
<polygon fill="#18bc9c" stroke="none" points="1055.5,-307 1055.5,-332 1146.5,-332 1146.5,-307 1055.5,-307"/>
<polygon fill="none" stroke="#2c3e50" points="1055.5,-307 1055.5,-332 1146.5,-332 1146.5,-307 1055.5,-307"/>
<text text-anchor="start" x="1060.5" y="-316.8" font-family="monospace" font-style="italic" font-size="14.00" fill="#ffffff">oid</text>
<polygon fill="#ffffff" stroke="none" points="957.5,-282 957.5,-307 1055.5,-307 1055.5,-282 957.5,-282"/>
<polygon fill="none" stroke="#2c3e50" points="957.5,-282 957.5,-307 1055.5,-307 1055.5,-282 957.5,-282"/>
<text text-anchor="start" x="962.5" y="-290.8" font-family="monospace" font-size="14.00" fill="#000000">srvtype</text>
<polygon fill="#ffffff" stroke="none" points="1055.5,-282 1055.5,-307 1146.5,-307 1146.5,-282 1055.5,-282"/>
<polygon fill="none" stroke="#2c3e50" points="1055.5,-282 1055.5,-307 1146.5,-307 1146.5,-282 1055.5,-282"/>
<text text-anchor="start" x="1060.5" y="-291.8" font-family="monospace" font-style="italic" font-size="14.00" fill="#95a5a6">text</text>
<polygon fill="#ffffff" stroke="none" points="957.5,-257 957.5,-282 1055.5,-282 1055.5,-257 957.5,-257"/>
<polygon fill="none" stroke="#2c3e50" points="957.5,-257 957.5,-282 1055.5,-282 1055.5,-257 957.5,-257"/>
<text text-anchor="start" x="962.5" y="-265.8" font-family="monospace" font-size="14.00" fill="#000000">srvversion</text>
<polygon fill="#ffffff" stroke="none" points="1055.5,-257 1055.5,-282 1146.5,-282 1146.5,-257 1055.5,-257"/>
<polygon fill="none" stroke="#2c3e50" points="1055.5,-257 1055.5,-282 1146.5,-282 1146.5,-257 1055.5,-257"/>
<text text-anchor="start" x="1060.5" y="-266.8" font-family="monospace" font-style="italic" font-size="14.00" fill="#95a5a6">text</text>
<polygon fill="#ffffff" stroke="none" points="957.5,-232 957.5,-257 1055.5,-257 1055.5,-232 957.5,-232"/>
<polygon fill="none" stroke="#2c3e50" points="957.5,-232 957.5,-257 1055.5,-257 1055.5,-232 957.5,-232"/>
<text text-anchor="start" x="962.5" y="-240.8" font-family="monospace" font-size="14.00" fill="#000000">srvacl</text>
<polygon fill="#ffffff" stroke="none" points="1055.5,-232 1055.5,-257 1146.5,-257 1146.5,-232 1055.5,-232"/>
<polygon fill="none" stroke="#2c3e50" points="1055.5,-232 1055.5,-257 1146.5,-257 1146.5,-232 1055.5,-232"/>
<text text-anchor="start" x="1060.5" y="-241.8" font-family="monospace" font-style="italic" font-size="14.00" fill="#95a5a6">aclitem[]</text>
<polygon fill="#ffffff" stroke="none" points="957.5,-207 957.5,-232 1055.5,-232 1055.5,-207 957.5,-207"/>
<polygon fill="none" stroke="#2c3e50" points="957.5,-207 957.5,-232 1055.5,-232 1055.5,-207 957.5,-207"/>
<text text-anchor="start" x="962.5" y="-215.8" font-family="monospace" font-size="14.00" fill="#000000">srvoptions</text>
<polygon fill="#ffffff" stroke="none" points="1055.5,-207 1055.5,-232 1146.5,-232 1146.5,-207 1055.5,-207"/>
<polygon fill="none" stroke="#2c3e50" points="1055.5,-207 1055.5,-232 1146.5,-232 1146.5,-207 1055.5,-207"/>
<text text-anchor="start" x="1060.5" y="-216.8" font-family="monospace" font-style="italic" font-size="14.00" fill="#95a5a6">text[]</text>
</g>
<!-- pg_user_mapping&#45;&gt;pg_foreign_server -->
<g id="edge4" class="edge"><title>pg_user_mapping:umserver_out&#45;&gt;pg_foreign_server:oid_in</title>
<path fill="none" stroke="#2c3e50" d="M428.5,-470C662.05,-470 717.858,-397.181 946.201,-395.048"/>
<polygon fill="#2c3e50" stroke="#2c3e50" points="946.516,-398.546 956.5,-395 946.484,-391.547 946.516,-398.546"/>
</g>
<!-- pg_foreign_table -->
<g id="node2" class="node"><title>pg_foreign_table</title>
<polygon fill="#2c3e50" stroke="none" points="254.5,-358 254.5,-388 433.5,-388 433.5,-358 254.5,-358"/>
<polygon fill="none" stroke="black" points="254.5,-358 254.5,-388 433.5,-388 433.5,-358 254.5,-358"/>
<text text-anchor="start" x="259.5" y="-369.6" font-family="monospace" font-weight="bold" font-size="18.00" fill="#ffffff">pg_foreign_table</text>
<polygon fill="#ffffff" stroke="none" points="254.5,-333 254.5,-358 360.5,-358 360.5,-333 254.5,-333"/>
<polygon fill="none" stroke="#2c3e50" points="254.5,-333 254.5,-358 360.5,-358 360.5,-333 254.5,-333"/>
<text text-anchor="start" x="259.5" y="-341.8" font-family="monospace" font-size="14.00" fill="#000000">reloid</text>
<polygon fill="#ffffff" stroke="none" points="360.5,-333 360.5,-358 433.5,-358 433.5,-333 360.5,-333"/>
<polygon fill="none" stroke="#2c3e50" points="360.5,-333 360.5,-358 433.5,-358 433.5,-333 360.5,-333"/>
<text text-anchor="start" x="365.5" y="-342.8" font-family="monospace" font-style="italic" font-size="14.00" fill="#95a5a6">oid</text>
<polygon fill="#ffffff" stroke="none" points="254.5,-308 254.5,-333 360.5,-333 360.5,-308 254.5,-308"/>
<polygon fill="none" stroke="#2c3e50" points="254.5,-308 254.5,-333 360.5,-333 360.5,-308 254.5,-308"/>
<text text-anchor="start" x="259.5" y="-316.8" font-family="monospace" font-size="14.00" fill="#000000">server</text>
<polygon fill="#18bc9c" stroke="none" points="360.5,-308 360.5,-333 433.5,-333 433.5,-308 360.5,-308"/>
<polygon fill="none" stroke="#2c3e50" points="360.5,-308 360.5,-333 433.5,-333 433.5,-308 360.5,-308"/>
<text text-anchor="start" x="365.5" y="-317.8" font-family="monospace" font-style="italic" font-size="14.00" fill="#ffffff">oid</text>
<polygon fill="#ffffff" stroke="none" points="254.5,-283 254.5,-308 360.5,-308 360.5,-283 254.5,-283"/>
<polygon fill="none" stroke="#2c3e50" points="254.5,-283 254.5,-308 360.5,-308 360.5,-283 254.5,-283"/>
<text text-anchor="start" x="259.5" y="-291.8" font-family="monospace" font-size="14.00" fill="#000000">tbloptions</text>
<polygon fill="#ffffff" stroke="none" points="360.5,-283 360.5,-308 433.5,-308 433.5,-283 360.5,-283"/>
<polygon fill="none" stroke="#2c3e50" points="360.5,-283 360.5,-308 433.5,-308 433.5,-283 360.5,-283"/>
<text text-anchor="start" x="365.5" y="-292.8" font-family="monospace" font-style="italic" font-size="14.00" fill="#95a5a6">text[]</text>
</g>
<!-- pg_foreign_table&#45;&gt;pg_foreign_server -->
<g id="edge3" class="edge"><title>pg_foreign_table:server_out&#45;&gt;pg_foreign_server:oid_in</title>
<path fill="none" stroke="#2c3e50" d="M434.5,-320C665.449,-320 720.519,-392.819 946.315,-394.952"/>
<polygon fill="#2c3e50" stroke="#2c3e50" points="946.484,-398.453 956.5,-395 946.517,-391.453 946.484,-398.453"/>
</g>
<!-- pg_authid -->
<g id="node4" class="node"><title>pg_authid</title>
<polygon fill="#2c3e50" stroke="none" points="1580,-694 1580,-724 1940,-724 1940,-694 1580,-694"/>
<polygon fill="none" stroke="black" points="1580,-694 1580,-724 1940,-724 1940,-694 1580,-694"/>
<text text-anchor="start" x="1712.5" y="-705.6" font-family="monospace" font-weight="bold" font-size="18.00" fill="#ffffff">pg_authid</text>
<polygon fill="#18bc9c" stroke="none" points="1580,-669 1580,-694 1731,-694 1731,-669 1580,-669"/>
<polygon fill="none" stroke="#2c3e50" points="1580,-669 1580,-694 1731,-694 1731,-669 1580,-669"/>
<text text-anchor="start" x="1585" y="-677.8" font-family="monospace" font-size="14.00" fill="#ffffff">oid</text>
<polygon fill="#ffffff" stroke="none" points="1731,-669 1731,-694 1940,-694 1940,-669 1731,-669"/>
<polygon fill="none" stroke="#2c3e50" points="1731,-669 1731,-694 1940,-694 1940,-669 1731,-669"/>
<text text-anchor="start" x="1736" y="-678.8" font-family="monospace" font-style="italic" font-size="14.00" fill="#95a5a6">oid</text>
<polygon fill="#ffffff" stroke="none" points="1580,-644 1580,-669 1731,-669 1731,-644 1580,-644"/>
<polygon fill="none" stroke="#2c3e50" points="1580,-644 1580,-669 1731,-669 1731,-644 1580,-644"/>
<text text-anchor="start" x="1585" y="-652.8" font-family="monospace" font-size="14.00" fill="#000000">rolname</text>
<polygon fill="#ffffff" stroke="none" points="1731,-644 1731,-669 1940,-669 1940,-644 1731,-644"/>
<polygon fill="none" stroke="#2c3e50" points="1731,-644 1731,-669 1940,-669 1940,-644 1731,-644"/>
<text text-anchor="start" x="1736" y="-653.8" font-family="monospace" font-style="italic" font-size="14.00" fill="#95a5a6">name</text>
<polygon fill="#ffffff" stroke="none" points="1580,-619 1580,-644 1731,-644 1731,-619 1580,-619"/>
<polygon fill="none" stroke="#2c3e50" points="1580,-619 1580,-644 1731,-644 1731,-619 1580,-619"/>
<text text-anchor="start" x="1585" y="-627.8" font-family="monospace" font-size="14.00" fill="#000000">rolsuper</text>
<polygon fill="#ffffff" stroke="none" points="1731,-619 1731,-644 1940,-644 1940,-619 1731,-619"/>
<polygon fill="none" stroke="#2c3e50" points="1731,-619 1731,-644 1940,-644 1940,-619 1731,-619"/>
<text text-anchor="start" x="1736" y="-628.8" font-family="monospace" font-style="italic" font-size="14.00" fill="#95a5a6">boolean</text>
<polygon fill="#ffffff" stroke="none" points="1580,-594 1580,-619 1731,-619 1731,-594 1580,-594"/>
<polygon fill="none" stroke="#2c3e50" points="1580,-594 1580,-619 1731,-619 1731,-594 1580,-594"/>
<text text-anchor="start" x="1585" y="-602.8" font-family="monospace" font-size="14.00" fill="#000000">rolinherit</text>
<polygon fill="#ffffff" stroke="none" points="1731,-594 1731,-619 1940,-619 1940,-594 1731,-594"/>
<polygon fill="none" stroke="#2c3e50" points="1731,-594 1731,-619 1940,-619 1940,-594 1731,-594"/>
<text text-anchor="start" x="1736" y="-603.8" font-family="monospace" font-style="italic" font-size="14.00" fill="#95a5a6">boolean</text>
<polygon fill="#ffffff" stroke="none" points="1580,-569 1580,-594 1731,-594 1731,-569 1580,-569"/>
<polygon fill="none" stroke="#2c3e50" points="1580,-569 1580,-594 1731,-594 1731,-569 1580,-569"/>
<text text-anchor="start" x="1585" y="-577.8" font-family="monospace" font-size="14.00" fill="#000000">rolcreaterole</text>
<polygon fill="#ffffff" stroke="none" points="1731,-569 1731,-594 1940,-594 1940,-569 1731,-569"/>
<polygon fill="none" stroke="#2c3e50" points="1731,-569 1731,-594 1940,-594 1940,-569 1731,-569"/>
<text text-anchor="start" x="1736" y="-578.8" font-family="monospace" font-style="italic" font-size="14.00" fill="#95a5a6">boolean</text>
<polygon fill="#ffffff" stroke="none" points="1580,-544 1580,-569 1731,-569 1731,-544 1580,-544"/>
<polygon fill="none" stroke="#2c3e50" points="1580,-544 1580,-569 1731,-569 1731,-544 1580,-544"/>
<text text-anchor="start" x="1585" y="-552.8" font-family="monospace" font-size="14.00" fill="#000000">rolcreatedb</text>
<polygon fill="#ffffff" stroke="none" points="1731,-544 1731,-569 1940,-569 1940,-544 1731,-544"/>
<polygon fill="none" stroke="#2c3e50" points="1731,-544 1731,-569 1940,-569 1940,-544 1731,-544"/>
<text text-anchor="start" x="1736" y="-553.8" font-family="monospace" font-style="italic" font-size="14.00" fill="#95a5a6">boolean</text>
<polygon fill="#ffffff" stroke="none" points="1580,-519 1580,-544 1731,-544 1731,-519 1580,-519"/>
<polygon fill="none" stroke="#2c3e50" points="1580,-519 1580,-544 1731,-544 1731,-519 1580,-519"/>
<text text-anchor="start" x="1585" y="-527.8" font-family="monospace" font-size="14.00" fill="#000000">rolcatupdate</text>
<polygon fill="#ffffff" stroke="none" points="1731,-519 1731,-544 1940,-544 1940,-519 1731,-519"/>
<polygon fill="none" stroke="#2c3e50" points="1731,-519 1731,-544 1940,-544 1940,-519 1731,-519"/>
<text text-anchor="start" x="1736" y="-528.8" font-family="monospace" font-style="italic" font-size="14.00" fill="#95a5a6">boolean</text>
<polygon fill="#ffffff" stroke="none" points="1580,-494 1580,-519 1731,-519 1731,-494 1580,-494"/>
<polygon fill="none" stroke="#2c3e50" points="1580,-494 1580,-519 1731,-519 1731,-494 1580,-494"/>
<text text-anchor="start" x="1585" y="-502.8" font-family="monospace" font-size="14.00" fill="#000000">rolcanlogin</text>
<polygon fill="#ffffff" stroke="none" points="1731,-494 1731,-519 1940,-519 1940,-494 1731,-494"/>
<polygon fill="none" stroke="#2c3e50" points="1731,-494 1731,-519 1940,-519 1940,-494 1731,-494"/>
<text text-anchor="start" x="1736" y="-503.8" font-family="monospace" font-style="italic" font-size="14.00" fill="#95a5a6">boolean</text>
<polygon fill="#ffffff" stroke="none" points="1580,-469 1580,-494 1731,-494 1731,-469 1580,-469"/>
<polygon fill="none" stroke="#2c3e50" points="1580,-469 1580,-494 1731,-494 1731,-469 1580,-469"/>
<text text-anchor="start" x="1585" y="-477.8" font-family="monospace" font-size="14.00" fill="#000000">rolconnlimit</text>
<polygon fill="#ffffff" stroke="none" points="1731,-469 1731,-494 1940,-494 1940,-469 1731,-469"/>
<polygon fill="none" stroke="#2c3e50" points="1731,-469 1731,-494 1940,-494 1940,-469 1731,-469"/>
<text text-anchor="start" x="1736" y="-478.8" font-family="monospace" font-style="italic" font-size="14.00" fill="#95a5a6">integer</text>
<polygon fill="#ffffff" stroke="none" points="1580,-444 1580,-469 1731,-469 1731,-444 1580,-444"/>
<polygon fill="none" stroke="#2c3e50" points="1580,-444 1580,-469 1731,-469 1731,-444 1580,-444"/>
<text text-anchor="start" x="1585" y="-452.8" font-family="monospace" font-size="14.00" fill="#000000">rolpassword</text>
<polygon fill="#ffffff" stroke="none" points="1731,-444 1731,-469 1940,-469 1940,-444 1731,-444"/>
<polygon fill="none" stroke="#2c3e50" points="1731,-444 1731,-469 1940,-469 1940,-444 1731,-444"/>
<text text-anchor="start" x="1736" y="-453.8" font-family="monospace" font-style="italic" font-size="14.00" fill="#95a5a6">text</text>
<polygon fill="#ffffff" stroke="none" points="1580,-419 1580,-444 1731,-444 1731,-419 1580,-419"/>
<polygon fill="none" stroke="#2c3e50" points="1580,-419 1580,-444 1731,-444 1731,-419 1580,-419"/>
<text text-anchor="start" x="1585" y="-427.8" font-family="monospace" font-size="14.00" fill="#000000">rolvaliduntil</text>
<polygon fill="#ffffff" stroke="none" points="1731,-419 1731,-444 1940,-444 1940,-419 1731,-419"/>
<polygon fill="none" stroke="#2c3e50" points="1731,-419 1731,-444 1940,-444 1940,-419 1731,-419"/>
<text text-anchor="start" x="1736" y="-428.8" font-family="monospace" font-style="italic" font-size="14.00" fill="#95a5a6">timestamp_with_time_zone</text>
<polygon fill="#ffffff" stroke="none" points="1580,-394 1580,-419 1731,-419 1731,-394 1580,-394"/>
<polygon fill="none" stroke="#2c3e50" points="1580,-394 1580,-419 1731,-419 1731,-394 1580,-394"/>
<text text-anchor="start" x="1585" y="-402.8" font-family="monospace" font-size="14.00" fill="#000000">rolconfig</text>
<polygon fill="#ffffff" stroke="none" points="1731,-394 1731,-419 1940,-419 1940,-394 1731,-394"/>
<polygon fill="none" stroke="#2c3e50" points="1731,-394 1731,-419 1940,-419 1940,-394 1731,-394"/>
<text text-anchor="start" x="1736" y="-403.8" font-family="monospace" font-style="italic" font-size="14.00" fill="#95a5a6">text[]</text>
<polygon fill="#ffffff" stroke="none" points="1580,-369 1580,-394 1731,-394 1731,-369 1580,-369"/>
<polygon fill="none" stroke="#2c3e50" points="1580,-369 1580,-394 1731,-394 1731,-369 1580,-369"/>
<text text-anchor="start" x="1585" y="-377.8" font-family="monospace" font-size="14.00" fill="#000000">rolresqueue</text>
<polygon fill="#ffffff" stroke="none" points="1731,-369 1731,-394 1940,-394 1940,-369 1731,-369"/>
<polygon fill="none" stroke="#2c3e50" points="1731,-369 1731,-394 1940,-394 1940,-369 1731,-369"/>
<text text-anchor="start" x="1736" y="-378.8" font-family="monospace" font-style="italic" font-size="14.00" fill="#95a5a6">oid</text>
<polygon fill="#ffffff" stroke="none" points="1580,-344 1580,-369 1731,-369 1731,-344 1580,-344"/>
<polygon fill="none" stroke="#2c3e50" points="1580,-344 1580,-369 1731,-369 1731,-344 1580,-344"/>
<text text-anchor="start" x="1585" y="-352.8" font-family="monospace" font-size="14.00" fill="#000000">rolcreaterextgpfd</text>
<polygon fill="#ffffff" stroke="none" points="1731,-344 1731,-369 1940,-369 1940,-344 1731,-344"/>
<polygon fill="none" stroke="#2c3e50" points="1731,-344 1731,-369 1940,-369 1940,-344 1731,-344"/>
<text text-anchor="start" x="1736" y="-353.8" font-family="monospace" font-style="italic" font-size="14.00" fill="#95a5a6">boolean</text>
<polygon fill="#ffffff" stroke="none" points="1580,-319 1580,-344 1731,-344 1731,-319 1580,-319"/>
<polygon fill="none" stroke="#2c3e50" points="1580,-319 1580,-344 1731,-344 1731,-319 1580,-319"/>
<text text-anchor="start" x="1585" y="-327.8" font-family="monospace" font-size="14.00" fill="#000000">rolcreaterexthttp</text>
<polygon fill="#ffffff" stroke="none" points="1731,-319 1731,-344 1940,-344 1940,-319 1731,-319"/>
<polygon fill="none" stroke="#2c3e50" points="1731,-319 1731,-344 1940,-344 1940,-319 1731,-319"/>
<text text-anchor="start" x="1736" y="-328.8" font-family="monospace" font-style="italic" font-size="14.00" fill="#95a5a6">boolean</text>
<polygon fill="#ffffff" stroke="none" points="1580,-294 1580,-319 1731,-319 1731,-294 1580,-294"/>
<polygon fill="none" stroke="#2c3e50" points="1580,-294 1580,-319 1731,-319 1731,-294 1580,-294"/>
<text text-anchor="start" x="1585" y="-302.8" font-family="monospace" font-size="14.00" fill="#000000">rolcreatewextgpfd</text>
<polygon fill="#ffffff" stroke="none" points="1731,-294 1731,-319 1940,-319 1940,-294 1731,-294"/>
<polygon fill="none" stroke="#2c3e50" points="1731,-294 1731,-319 1940,-319 1940,-294 1731,-294"/>
<text text-anchor="start" x="1736" y="-303.8" font-family="monospace" font-style="italic" font-size="14.00" fill="#95a5a6">boolean</text>
<polygon fill="#ffffff" stroke="none" points="1580,-269 1580,-294 1731,-294 1731,-269 1580,-269"/>
<polygon fill="none" stroke="#2c3e50" points="1580,-269 1580,-294 1731,-294 1731,-269 1580,-269"/>
<text text-anchor="start" x="1585" y="-277.8" font-family="monospace" font-size="14.00" fill="#000000">rolcreaterexthdfs</text>
<polygon fill="#ffffff" stroke="none" points="1731,-269 1731,-294 1940,-294 1940,-269 1731,-269"/>
<polygon fill="none" stroke="#2c3e50" points="1731,-269 1731,-294 1940,-294 1940,-269 1731,-269"/>
<text text-anchor="start" x="1736" y="-278.8" font-family="monospace" font-style="italic" font-size="14.00" fill="#95a5a6">boolean</text>
<polygon fill="#ffffff" stroke="none" points="1580,-244 1580,-269 1731,-269 1731,-244 1580,-244"/>
<polygon fill="none" stroke="#2c3e50" points="1580,-244 1580,-269 1731,-269 1731,-244 1580,-244"/>
<text text-anchor="start" x="1585" y="-252.8" font-family="monospace" font-size="14.00" fill="#000000">rolcreatewexthdfs</text>
<polygon fill="#ffffff" stroke="none" points="1731,-244 1731,-269 1940,-269 1940,-244 1731,-244"/>
<polygon fill="none" stroke="#2c3e50" points="1731,-244 1731,-269 1940,-269 1940,-244 1731,-244"/>
<text text-anchor="start" x="1736" y="-253.8" font-family="monospace" font-style="italic" font-size="14.00" fill="#95a5a6">boolean</text>
</g>
<!-- pg_foreign_server&#45;&gt;pg_authid -->
<g id="edge1" class="edge"><title>pg_foreign_server:srvowner_out&#45;&gt;pg_authid:oid_in</title>
<path fill="none" stroke="#2c3e50" d="M1147.5,-345C1387.39,-345 1337.17,-672.524 1568.84,-681.799"/>
<polygon fill="#2c3e50" stroke="#2c3e50" points="1568.93,-685.302 1579,-682 1569.07,-678.303 1568.93,-685.302"/>
</g>
<!-- pg_foreign_data_wrapper -->
<g id="node5" class="node"><title>pg_foreign_data_wrapper</title>
<polygon fill="#2c3e50" stroke="none" points="1634,-170 1634,-200 1886,-200 1886,-170 1634,-170"/>
<polygon fill="none" stroke="black" points="1634,-170 1634,-200 1886,-200 1886,-170 1634,-170"/>
<text text-anchor="start" x="1639" y="-181.6" font-family="monospace" font-weight="bold" font-size="18.00" fill="#ffffff">pg_foreign_data_wrapper</text>
<polygon fill="#18bc9c" stroke="none" points="1634,-145 1634,-170 1772,-170 1772,-145 1634,-145"/>
<polygon fill="none" stroke="#2c3e50" points="1634,-145 1634,-170 1772,-170 1772,-145 1634,-145"/>
<text text-anchor="start" x="1639" y="-153.8" font-family="monospace" font-size="14.00" fill="#ffffff">oid</text>
<polygon fill="#ffffff" stroke="none" points="1772,-145 1772,-170 1886,-170 1886,-145 1772,-145"/>
<polygon fill="none" stroke="#2c3e50" points="1772,-145 1772,-170 1886,-170 1886,-145 1772,-145"/>
<text text-anchor="start" x="1777" y="-154.8" font-family="monospace" font-style="italic" font-size="14.00" fill="#95a5a6">oid</text>
<polygon fill="#ffffff" stroke="none" points="1634,-120 1634,-145 1772,-145 1772,-120 1634,-120"/>
<polygon fill="none" stroke="#2c3e50" points="1634,-120 1634,-145 1772,-145 1772,-120 1634,-120"/>
<text text-anchor="start" x="1639" y="-128.8" font-family="monospace" font-size="14.00" fill="#000000">fdwname</text>
<polygon fill="#ffffff" stroke="none" points="1772,-120 1772,-145 1886,-145 1886,-120 1772,-120"/>
<polygon fill="none" stroke="#2c3e50" points="1772,-120 1772,-145 1886,-145 1886,-120 1772,-120"/>
<text text-anchor="start" x="1777" y="-129.8" font-family="monospace" font-style="italic" font-size="14.00" fill="#95a5a6">name</text>
<polygon fill="#ffffff" stroke="none" points="1634,-95 1634,-120 1772,-120 1772,-95 1634,-95"/>
<polygon fill="none" stroke="#2c3e50" points="1634,-95 1634,-120 1772,-120 1772,-95 1634,-95"/>
<text text-anchor="start" x="1639" y="-103.8" font-family="monospace" font-size="14.00" fill="#000000">fdwowner</text>
<polygon fill="#ffffff" stroke="none" points="1772,-95 1772,-120 1886,-120 1886,-95 1772,-95"/>
<polygon fill="none" stroke="#2c3e50" points="1772,-95 1772,-120 1886,-120 1886,-95 1772,-95"/>
<text text-anchor="start" x="1777" y="-104.8" font-family="monospace" font-style="italic" font-size="14.00" fill="#95a5a6">oid</text>
<polygon fill="#ffffff" stroke="none" points="1634,-70 1634,-95 1772,-95 1772,-70 1634,-70"/>
<polygon fill="none" stroke="#2c3e50" points="1634,-70 1634,-95 1772,-95 1772,-70 1634,-70"/>
<text text-anchor="start" x="1639" y="-78.8" font-family="monospace" font-size="14.00" fill="#000000">fdwvalidator</text>
<polygon fill="#ffffff" stroke="none" points="1772,-70 1772,-95 1886,-95 1886,-70 1772,-70"/>
<polygon fill="none" stroke="#2c3e50" points="1772,-70 1772,-95 1886,-95 1886,-70 1772,-70"/>
<text text-anchor="start" x="1777" y="-79.8" font-family="monospace" font-style="italic" font-size="14.00" fill="#95a5a6">oid</text>
<polygon fill="#ffffff" stroke="none" points="1634,-45 1634,-70 1772,-70 1772,-45 1634,-45"/>
<polygon fill="none" stroke="#2c3e50" points="1634,-45 1634,-70 1772,-70 1772,-45 1634,-45"/>
<text text-anchor="start" x="1639" y="-53.8" font-family="monospace" font-size="14.00" fill="#000000">fdwacl</text>
<polygon fill="#ffffff" stroke="none" points="1772,-45 1772,-70 1886,-70 1886,-45 1772,-45"/>
<polygon fill="none" stroke="#2c3e50" points="1772,-45 1772,-70 1886,-70 1886,-45 1772,-45"/>
<text text-anchor="start" x="1777" y="-54.8" font-family="monospace" font-style="italic" font-size="14.00" fill="#95a5a6">aclitem[]</text>
<polygon fill="#ffffff" stroke="none" points="1634,-20 1634,-45 1772,-45 1772,-20 1634,-20"/>
<polygon fill="none" stroke="#2c3e50" points="1634,-20 1634,-45 1772,-45 1772,-20 1634,-20"/>
<text text-anchor="start" x="1639" y="-28.8" font-family="monospace" font-size="14.00" fill="#000000">fdwoptions</text>
<polygon fill="#ffffff" stroke="none" points="1772,-20 1772,-45 1886,-45 1886,-20 1772,-20"/>
<polygon fill="none" stroke="#2c3e50" points="1772,-20 1772,-45 1886,-45 1886,-20 1772,-20"/>
<text text-anchor="start" x="1777" y="-29.8" font-family="monospace" font-style="italic" font-size="14.00" fill="#95a5a6">text[]</text>
</g>
<!-- pg_foreign_server&#45;&gt;pg_foreign_data_wrapper -->
<g id="edge2" class="edge"><title>pg_foreign_server:srvfdw_out&#45;&gt;pg_foreign_data_wrapper:oid_in</title>
<path fill="none" stroke="#2c3e50" d="M1147.5,-319C1274.38,-319 1295.43,-261.52 1416,-222 1508.28,-191.752 1530.93,-160.232 1622.96,-158.113"/>
<polygon fill="#2c3e50" stroke="#2c3e50" points="1623.04,-161.613 1633,-158 1622.96,-154.613 1623.04,-161.613"/>
</g>
</g>
</svg>
