<?xml version="1.0" encoding="UTF-8" standalone="no"?>
<!DOCTYPE svg PUBLIC "-//W3C//DTD SVG 1.1//EN"
 "http://www.w3.org/Graphics/SVG/1.1/DTD/svg11.dtd">
<!-- Generated by graphviz version 2.38.0 (20140413.2041)
 -->
<!-- Title: GPDB Pages: 1 -->
<svg width="2176pt" height="902pt"
 viewBox="0.00 0.00 2176.00 902.00" xmlns="http://www.w3.org/2000/svg" xmlns:xlink="http://www.w3.org/1999/xlink">
<g id="graph0" class="graph" transform="scale(1 1) rotate(0) translate(36 866)">
<title>GPDB</title>
<polygon fill="white" stroke="none" points="-36,36 -36,-866 2140,-866 2140,36 -36,36"/>
<text text-anchor="middle" x="1052" y="-800.4" font-family="Helvetica,sans-Serif" font-size="32.00">Greenplum System Catalog: pg_foreign_server</text>
<g id="clust1" class="cluster"><title>cluster_from</title>
</g>
<g id="clust2" class="cluster"><title>cluster_selected</title>
</g>
<g id="clust3" class="cluster"><title>cluster_to</title>
</g>
<!-- pg_foreign_table -->
<g id="node1" class="node"><title>pg_foreign_table</title>
<g id="a_node1"><a xlink:href="pg_foreign_table.svg" xlink:title="&lt;TABLE&gt;">
<polygon fill="#2c3e50" stroke="none" points="254.5,-526 254.5,-556 433.5,-556 433.5,-526 254.5,-526"/>
<polygon fill="none" stroke="black" points="254.5,-526 254.5,-556 433.5,-556 433.5,-526 254.5,-526"/>
<text text-anchor="start" x="259.5" y="-537.6" font-family="monospace" font-weight="bold" font-size="18.00" fill="#ffffff">pg_foreign_table</text>
<polygon fill="#ffffff" stroke="none" points="254.5,-501 254.5,-526 360.5,-526 360.5,-501 254.5,-501"/>
<polygon fill="none" stroke="#2c3e50" points="254.5,-501 254.5,-526 360.5,-526 360.5,-501 254.5,-501"/>
<text text-anchor="start" x="259.5" y="-509.8" font-family="monospace" font-size="14.00" fill="#000000">reloid</text>
<polygon fill="#ffffff" stroke="none" points="360.5,-501 360.5,-526 433.5,-526 433.5,-501 360.5,-501"/>
<polygon fill="none" stroke="#2c3e50" points="360.5,-501 360.5,-526 433.5,-526 433.5,-501 360.5,-501"/>
<text text-anchor="start" x="365.5" y="-510.8" font-family="monospace" font-style="italic" font-size="14.00" fill="#95a5a6">oid</text>
<polygon fill="#ffffff" stroke="none" points="254.5,-476 254.5,-501 360.5,-501 360.5,-476 254.5,-476"/>
<polygon fill="none" stroke="#2c3e50" points="254.5,-476 254.5,-501 360.5,-501 360.5,-476 254.5,-476"/>
<text text-anchor="start" x="259.5" y="-484.8" font-family="monospace" font-size="14.00" fill="#000000">server</text>
<polygon fill="#18bc9c" stroke="none" points="360.5,-476 360.5,-501 433.5,-501 433.5,-476 360.5,-476"/>
<polygon fill="none" stroke="#2c3e50" points="360.5,-476 360.5,-501 433.5,-501 433.5,-476 360.5,-476"/>
<text text-anchor="start" x="365.5" y="-485.8" font-family="monospace" font-style="italic" font-size="14.00" fill="#ffffff">oid</text>
<polygon fill="#ffffff" stroke="none" points="254.5,-451 254.5,-476 360.5,-476 360.5,-451 254.5,-451"/>
<polygon fill="none" stroke="#2c3e50" points="254.5,-451 254.5,-476 360.5,-476 360.5,-451 254.5,-451"/>
<text text-anchor="start" x="259.5" y="-459.8" font-family="monospace" font-size="14.00" fill="#000000">tbloptions</text>
<polygon fill="#ffffff" stroke="none" points="360.5,-451 360.5,-476 433.5,-476 433.5,-451 360.5,-451"/>
<polygon fill="none" stroke="#2c3e50" points="360.5,-451 360.5,-476 433.5,-476 433.5,-451 360.5,-451"/>
<text text-anchor="start" x="365.5" y="-460.8" font-family="monospace" font-style="italic" font-size="14.00" fill="#95a5a6">text[]</text>
</a>
</g>
</g>
<!-- pg_foreign_server -->
<g id="node3" class="node"><title>pg_foreign_server</title>
<g id="a_node3"><a xlink:href="pg_foreign_server.svg" xlink:title="&lt;TABLE&gt;">
<polygon fill="#2c3e50" stroke="none" points="957.5,-413 957.5,-443 1146.5,-443 1146.5,-413 957.5,-413"/>
<polygon fill="none" stroke="black" points="957.5,-413 957.5,-443 1146.5,-443 1146.5,-413 957.5,-413"/>
<text text-anchor="start" x="962.5" y="-424.6" font-family="monospace" font-weight="bold" font-size="18.00" fill="#ffffff">pg_foreign_server</text>
<polygon fill="#18bc9c" stroke="none" points="957.5,-388 957.5,-413 1055.5,-413 1055.5,-388 957.5,-388"/>
<polygon fill="none" stroke="#2c3e50" points="957.5,-388 957.5,-413 1055.5,-413 1055.5,-388 957.5,-388"/>
<text text-anchor="start" x="962.5" y="-396.8" font-family="monospace" font-size="14.00" fill="#ffffff">oid</text>
<polygon fill="#ffffff" stroke="none" points="1055.5,-388 1055.5,-413 1146.5,-413 1146.5,-388 1055.5,-388"/>
<polygon fill="none" stroke="#2c3e50" points="1055.5,-388 1055.5,-413 1146.5,-413 1146.5,-388 1055.5,-388"/>
<text text-anchor="start" x="1060.5" y="-397.8" font-family="monospace" font-style="italic" font-size="14.00" fill="#95a5a6">oid</text>
<polygon fill="#ffffff" stroke="none" points="957.5,-363 957.5,-388 1055.5,-388 1055.5,-363 957.5,-363"/>
<polygon fill="none" stroke="#2c3e50" points="957.5,-363 957.5,-388 1055.5,-388 1055.5,-363 957.5,-363"/>
<text text-anchor="start" x="962.5" y="-371.8" font-family="monospace" font-size="14.00" fill="#000000">srvname</text>
<polygon fill="#ffffff" stroke="none" points="1055.5,-363 1055.5,-388 1146.5,-388 1146.5,-363 1055.5,-363"/>
<polygon fill="none" stroke="#2c3e50" points="1055.5,-363 1055.5,-388 1146.5,-388 1146.5,-363 1055.5,-363"/>
<text text-anchor="start" x="1060.5" y="-372.8" font-family="monospace" font-style="italic" font-size="14.00" fill="#95a5a6">name</text>
<polygon fill="#ffffff" stroke="none" points="957.5,-338 957.5,-363 1055.5,-363 1055.5,-338 957.5,-338"/>
<polygon fill="none" stroke="#2c3e50" points="957.5,-338 957.5,-363 1055.5,-363 1055.5,-338 957.5,-338"/>
<text text-anchor="start" x="962.5" y="-346.8" font-family="monospace" font-size="14.00" fill="#000000">srvowner</text>
<polygon fill="#18bc9c" stroke="none" points="1055.5,-338 1055.5,-363 1146.5,-363 1146.5,-338 1055.5,-338"/>
<polygon fill="none" stroke="#2c3e50" points="1055.5,-338 1055.5,-363 1146.5,-363 1146.5,-338 1055.5,-338"/>
<text text-anchor="start" x="1060.5" y="-347.8" font-family="monospace" font-style="italic" font-size="14.00" fill="#ffffff">oid</text>
<polygon fill="#ffffff" stroke="none" points="957.5,-313 957.5,-338 1055.5,-338 1055.5,-313 957.5,-313"/>
<polygon fill="none" stroke="#2c3e50" points="957.5,-313 957.5,-338 1055.5,-338 1055.5,-313 957.5,-313"/>
<text text-anchor="start" x="962.5" y="-321.8" font-family="monospace" font-size="14.00" fill="#000000">srvfdw</text>
<polygon fill="#18bc9c" stroke="none" points="1055.5,-313 1055.5,-338 1146.5,-338 1146.5,-313 1055.5,-313"/>
<polygon fill="none" stroke="#2c3e50" points="1055.5,-313 1055.5,-338 1146.5,-338 1146.5,-313 1055.5,-313"/>
<text text-anchor="start" x="1060.5" y="-322.8" font-family="monospace" font-style="italic" font-size="14.00" fill="#ffffff">oid</text>
<polygon fill="#ffffff" stroke="none" points="957.5,-288 957.5,-313 1055.5,-313 1055.5,-288 957.5,-288"/>
<polygon fill="none" stroke="#2c3e50" points="957.5,-288 957.5,-313 1055.5,-313 1055.5,-288 957.5,-288"/>
<text text-anchor="start" x="962.5" y="-296.8" font-family="monospace" font-size="14.00" fill="#000000">srvtype</text>
<polygon fill="#ffffff" stroke="none" points="1055.5,-288 1055.5,-313 1146.5,-313 1146.5,-288 1055.5,-288"/>
<polygon fill="none" stroke="#2c3e50" points="1055.5,-288 1055.5,-313 1146.5,-313 1146.5,-288 1055.5,-288"/>
<text text-anchor="start" x="1060.5" y="-297.8" font-family="monospace" font-style="italic" font-size="14.00" fill="#95a5a6">text</text>
<polygon fill="#ffffff" stroke="none" points="957.5,-263 957.5,-288 1055.5,-288 1055.5,-263 957.5,-263"/>
<polygon fill="none" stroke="#2c3e50" points="957.5,-263 957.5,-288 1055.5,-288 1055.5,-263 957.5,-263"/>
<text text-anchor="start" x="962.5" y="-271.8" font-family="monospace" font-size="14.00" fill="#000000">srvversion</text>
<polygon fill="#ffffff" stroke="none" points="1055.5,-263 1055.5,-288 1146.5,-288 1146.5,-263 1055.5,-263"/>
<polygon fill="none" stroke="#2c3e50" points="1055.5,-263 1055.5,-288 1146.5,-288 1146.5,-263 1055.5,-263"/>
<text text-anchor="start" x="1060.5" y="-272.8" font-family="monospace" font-style="italic" font-size="14.00" fill="#95a5a6">text</text>
<polygon fill="#ffffff" stroke="none" points="957.5,-238 957.5,-263 1055.5,-263 1055.5,-238 957.5,-238"/>
<polygon fill="none" stroke="#2c3e50" points="957.5,-238 957.5,-263 1055.5,-263 1055.5,-238 957.5,-238"/>
<text text-anchor="start" x="962.5" y="-246.8" font-family="monospace" font-size="14.00" fill="#000000">srvacl</text>
<polygon fill="#ffffff" stroke="none" points="1055.5,-238 1055.5,-263 1146.5,-263 1146.5,-238 1055.5,-238"/>
<polygon fill="none" stroke="#2c3e50" points="1055.5,-238 1055.5,-263 1146.5,-263 1146.5,-238 1055.5,-238"/>
<text text-anchor="start" x="1060.5" y="-247.8" font-family="monospace" font-style="italic" font-size="14.00" fill="#95a5a6">aclitem[]</text>
<polygon fill="#ffffff" stroke="none" points="957.5,-213 957.5,-238 1055.5,-238 1055.5,-213 957.5,-213"/>
<polygon fill="none" stroke="#2c3e50" points="957.5,-213 957.5,-238 1055.5,-238 1055.5,-213 957.5,-213"/>
<text text-anchor="start" x="962.5" y="-221.8" font-family="monospace" font-size="14.00" fill="#000000">srvoptions</text>
<polygon fill="#ffffff" stroke="none" points="1055.5,-213 1055.5,-238 1146.5,-238 1146.5,-213 1055.5,-213"/>
<polygon fill="none" stroke="#2c3e50" points="1055.5,-213 1055.5,-238 1146.5,-238 1146.5,-213 1055.5,-213"/>
<text text-anchor="start" x="1060.5" y="-222.8" font-family="monospace" font-style="italic" font-size="14.00" fill="#95a5a6">text[]</text>
</a>
</g>
</g>
<!-- pg_foreign_table&#45;&gt;pg_foreign_server -->
<g id="edge3" class="edge"><title>pg_foreign_table:server_out&#45;&gt;pg_foreign_server:oid_in</title>
<path fill="none" stroke="#2c3e50" d="M434.5,-488C666.255,-488 719.749,-403.53 946.281,-401.055"/>
<polygon fill="#2c3e50" stroke="#2c3e50" points="946.519,-404.554 956.5,-401 946.481,-397.554 946.519,-404.554"/>
</g>
<!-- pg_user_mapping -->
<g id="node2" class="node"><title>pg_user_mapping</title>
<g id="a_node2"><a xlink:href="pg_user_mapping.svg" xlink:title="&lt;TABLE&gt;">
<polygon fill="#2c3e50" stroke="none" points="259.5,-377 259.5,-407 427.5,-407 427.5,-377 259.5,-377"/>
<polygon fill="none" stroke="black" points="259.5,-377 259.5,-407 427.5,-407 427.5,-377 259.5,-377"/>
<text text-anchor="start" x="264.5" y="-388.6" font-family="monospace" font-weight="bold" font-size="18.00" fill="#ffffff">pg_user_mapping</text>
<polygon fill="#ffffff" stroke="none" points="259.5,-352 259.5,-377 355.5,-377 355.5,-352 259.5,-352"/>
<polygon fill="none" stroke="#2c3e50" points="259.5,-352 259.5,-377 355.5,-377 355.5,-352 259.5,-352"/>
<text text-anchor="start" x="264.5" y="-360.8" font-family="monospace" font-size="14.00" fill="#000000">oid</text>
<polygon fill="#ffffff" stroke="none" points="355.5,-352 355.5,-377 427.5,-377 427.5,-352 355.5,-352"/>
<polygon fill="none" stroke="#2c3e50" points="355.5,-352 355.5,-377 427.5,-377 427.5,-352 355.5,-352"/>
<text text-anchor="start" x="360.5" y="-361.8" font-family="monospace" font-style="italic" font-size="14.00" fill="#95a5a6">oid</text>
<polygon fill="#ffffff" stroke="none" points="259.5,-327 259.5,-352 355.5,-352 355.5,-327 259.5,-327"/>
<polygon fill="none" stroke="#2c3e50" points="259.5,-327 259.5,-352 355.5,-352 355.5,-327 259.5,-327"/>
<text text-anchor="start" x="264.5" y="-335.8" font-family="monospace" font-size="14.00" fill="#000000">umuser</text>
<polygon fill="#ffffff" stroke="none" points="355.5,-327 355.5,-352 427.5,-352 427.5,-327 355.5,-327"/>
<polygon fill="none" stroke="#2c3e50" points="355.5,-327 355.5,-352 427.5,-352 427.5,-327 355.5,-327"/>
<text text-anchor="start" x="360.5" y="-336.8" font-family="monospace" font-style="italic" font-size="14.00" fill="#95a5a6">oid</text>
<polygon fill="#ffffff" stroke="none" points="259.5,-302 259.5,-327 355.5,-327 355.5,-302 259.5,-302"/>
<polygon fill="none" stroke="#2c3e50" points="259.5,-302 259.5,-327 355.5,-327 355.5,-302 259.5,-302"/>
<text text-anchor="start" x="264.5" y="-310.8" font-family="monospace" font-size="14.00" fill="#000000">umserver</text>
<polygon fill="#18bc9c" stroke="none" points="355.5,-302 355.5,-327 427.5,-327 427.5,-302 355.5,-302"/>
<polygon fill="none" stroke="#2c3e50" points="355.5,-302 355.5,-327 427.5,-327 427.5,-302 355.5,-302"/>
<text text-anchor="start" x="360.5" y="-311.8" font-family="monospace" font-style="italic" font-size="14.00" fill="#ffffff">oid</text>
<polygon fill="#ffffff" stroke="none" points="259.5,-277 259.5,-302 355.5,-302 355.5,-277 259.5,-277"/>
<polygon fill="none" stroke="#2c3e50" points="259.5,-277 259.5,-302 355.5,-302 355.5,-277 259.5,-277"/>
<text text-anchor="start" x="264.5" y="-285.8" font-family="monospace" font-size="14.00" fill="#000000">umoptions</text>
<polygon fill="#ffffff" stroke="none" points="355.5,-277 355.5,-302 427.5,-302 427.5,-277 355.5,-277"/>
<polygon fill="none" stroke="#2c3e50" points="355.5,-277 355.5,-302 427.5,-302 427.5,-277 355.5,-277"/>
<text text-anchor="start" x="360.5" y="-286.8" font-family="monospace" font-style="italic" font-size="14.00" fill="#95a5a6">text[]</text>
</a>
</g>
</g>
<!-- pg_user_mapping&#45;&gt;pg_foreign_server -->
<g id="edge4" class="edge"><title>pg_user_mapping:umserver_out&#45;&gt;pg_foreign_server:oid_in</title>
<path fill="none" stroke="#2c3e50" d="M428.5,-314C662.847,-314 717.096,-398.47 946.167,-400.945"/>
<polygon fill="#2c3e50" stroke="#2c3e50" points="946.481,-404.446 956.5,-401 946.519,-397.446 946.481,-404.446"/>
</g>
<!-- pg_foreign_data_wrapper -->
<g id="node4" class="node"><title>pg_foreign_data_wrapper</title>
<g id="a_node4"><a xlink:href="pg_foreign_data_wrapper.svg" xlink:title="&lt;TABLE&gt;">
<polygon fill="#2c3e50" stroke="none" points="1634,-170 1634,-200 1886,-200 1886,-170 1634,-170"/>
<polygon fill="none" stroke="black" points="1634,-170 1634,-200 1886,-200 1886,-170 1634,-170"/>
<text text-anchor="start" x="1639" y="-181.6" font-family="monospace" font-weight="bold" font-size="18.00" fill="#ffffff">pg_foreign_data_wrapper</text>
<polygon fill="#18bc9c" stroke="none" points="1634,-145 1634,-170 1772,-170 1772,-145 1634,-145"/>
<polygon fill="none" stroke="#2c3e50" points="1634,-145 1634,-170 1772,-170 1772,-145 1634,-145"/>
<text text-anchor="start" x="1639" y="-153.8" font-family="monospace" font-size="14.00" fill="#ffffff">oid</text>
<polygon fill="#ffffff" stroke="none" points="1772,-145 1772,-170 1886,-170 1886,-145 1772,-145"/>
<polygon fill="none" stroke="#2c3e50" points="1772,-145 1772,-170 1886,-170 1886,-145 1772,-145"/>
<text text-anchor="start" x="1777" y="-154.8" font-family="monospace" font-style="italic" font-size="14.00" fill="#95a5a6">oid</text>
<polygon fill="#ffffff" stroke="none" points="1634,-120 1634,-145 1772,-145 1772,-120 1634,-120"/>
<polygon fill="none" stroke="#2c3e50" points="1634,-120 1634,-145 1772,-145 1772,-120 1634,-120"/>
<text text-anchor="start" x="1639" y="-128.8" font-family="monospace" font-size="14.00" fill="#000000">fdwname</text>
<polygon fill="#ffffff" stroke="none" points="1772,-120 1772,-145 1886,-145 1886,-120 1772,-120"/>
<polygon fill="none" stroke="#2c3e50" points="1772,-120 1772,-145 1886,-145 1886,-120 1772,-120"/>
<text text-anchor="start" x="1777" y="-129.8" font-family="monospace" font-style="italic" font-size="14.00" fill="#95a5a6">name</text>
<polygon fill="#ffffff" stroke="none" points="1634,-95 1634,-120 1772,-120 1772,-95 1634,-95"/>
<polygon fill="none" stroke="#2c3e50" points="1634,-95 1634,-120 1772,-120 1772,-95 1634,-95"/>
<text text-anchor="start" x="1639" y="-103.8" font-family="monospace" font-size="14.00" fill="#000000">fdwowner</text>
<polygon fill="#ffffff" stroke="none" points="1772,-95 1772,-120 1886,-120 1886,-95 1772,-95"/>
<polygon fill="none" stroke="#2c3e50" points="1772,-95 1772,-120 1886,-120 1886,-95 1772,-95"/>
<text text-anchor="start" x="1777" y="-104.8" font-family="monospace" font-style="italic" font-size="14.00" fill="#95a5a6">oid</text>
<polygon fill="#ffffff" stroke="none" points="1634,-70 1634,-95 1772,-95 1772,-70 1634,-70"/>
<polygon fill="none" stroke="#2c3e50" points="1634,-70 1634,-95 1772,-95 1772,-70 1634,-70"/>
<text text-anchor="start" x="1639" y="-78.8" font-family="monospace" font-size="14.00" fill="#000000">fdwvalidator</text>
<polygon fill="#ffffff" stroke="none" points="1772,-70 1772,-95 1886,-95 1886,-70 1772,-70"/>
<polygon fill="none" stroke="#2c3e50" points="1772,-70 1772,-95 1886,-95 1886,-70 1772,-70"/>
<text text-anchor="start" x="1777" y="-79.8" font-family="monospace" font-style="italic" font-size="14.00" fill="#95a5a6">oid</text>
<polygon fill="#ffffff" stroke="none" points="1634,-45 1634,-70 1772,-70 1772,-45 1634,-45"/>
<polygon fill="none" stroke="#2c3e50" points="1634,-45 1634,-70 1772,-70 1772,-45 1634,-45"/>
<text text-anchor="start" x="1639" y="-53.8" font-family="monospace" font-size="14.00" fill="#000000">fdwacl</text>
<polygon fill="#ffffff" stroke="none" points="1772,-45 1772,-70 1886,-70 1886,-45 1772,-45"/>
<polygon fill="none" stroke="#2c3e50" points="1772,-45 1772,-70 1886,-70 1886,-45 1772,-45"/>
<text text-anchor="start" x="1777" y="-54.8" font-family="monospace" font-style="italic" font-size="14.00" fill="#95a5a6">aclitem[]</text>
<polygon fill="#ffffff" stroke="none" points="1634,-20 1634,-45 1772,-45 1772,-20 1634,-20"/>
<polygon fill="none" stroke="#2c3e50" points="1634,-20 1634,-45 1772,-45 1772,-20 1634,-20"/>
<text text-anchor="start" x="1639" y="-28.8" font-family="monospace" font-size="14.00" fill="#000000">fdwoptions</text>
<polygon fill="#ffffff" stroke="none" points="1772,-20 1772,-45 1886,-45 1886,-20 1772,-20"/>
<polygon fill="none" stroke="#2c3e50" points="1772,-20 1772,-45 1886,-45 1886,-20 1772,-20"/>
<text text-anchor="start" x="1777" y="-29.8" font-family="monospace" font-style="italic" font-size="14.00" fill="#95a5a6">text[]</text>
</a>
</g>
</g>
<!-- pg_foreign_server&#45;&gt;pg_foreign_data_wrapper -->
<g id="edge2" class="edge"><title>pg_foreign_server:srvfdw_out&#45;&gt;pg_foreign_data_wrapper:oid_in</title>
<path fill="none" stroke="#2c3e50" d="M1147.5,-325C1275.31,-325 1294.94,-262.999 1416,-222 1507.98,-190.848 1530.91,-160.171 1622.96,-158.11"/>
<polygon fill="#2c3e50" stroke="#2c3e50" points="1623.04,-161.609 1633,-158 1622.96,-154.61 1623.04,-161.609"/>
</g>
<!-- pg_authid -->
<g id="node5" class="node"><title>pg_authid</title>
<g id="a_node5"><a xlink:href="pg_authid.svg" xlink:title="&lt;TABLE&gt;">
<polygon fill="#2c3e50" stroke="none" points="1580,-694 1580,-724 1940,-724 1940,-694 1580,-694"/>
<polygon fill="none" stroke="black" points="1580,-694 1580,-724 1940,-724 1940,-694 1580,-694"/>
<text text-anchor="start" x="1712.5" y="-705.6" font-family="monospace" font-weight="bold" font-size="18.00" fill="#ffffff">pg_authid</text>
<polygon fill="#18bc9c" stroke="none" points="1580,-669 1580,-694 1731,-694 1731,-669 1580,-669"/>
<polygon fill="none" stroke="#2c3e50" points="1580,-669 1580,-694 1731,-694 1731,-669 1580,-669"/>
<text text-anchor="start" x="1585" y="-677.8" font-family="monospace" font-size="14.00" fill="#ffffff">oid</text>
<polygon fill="#ffffff" stroke="none" points="1731,-669 1731,-694 1940,-694 1940,-669 1731,-669"/>
<polygon fill="none" stroke="#2c3e50" points="1731,-669 1731,-694 1940,-694 1940,-669 1731,-669"/>
<text text-anchor="start" x="1736" y="-678.8" font-family="monospace" font-style="italic" font-size="14.00" fill="#95a5a6">oid</text>
<polygon fill="#ffffff" stroke="none" points="1580,-644 1580,-669 1731,-669 1731,-644 1580,-644"/>
<polygon fill="none" stroke="#2c3e50" points="1580,-644 1580,-669 1731,-669 1731,-644 1580,-644"/>
<text text-anchor="start" x="1585" y="-652.8" font-family="monospace" font-size="14.00" fill="#000000">rolname</text>
<polygon fill="#ffffff" stroke="none" points="1731,-644 1731,-669 1940,-669 1940,-644 1731,-644"/>
<polygon fill="none" stroke="#2c3e50" points="1731,-644 1731,-669 1940,-669 1940,-644 1731,-644"/>
<text text-anchor="start" x="1736" y="-653.8" font-family="monospace" font-style="italic" font-size="14.00" fill="#95a5a6">name</text>
<polygon fill="#ffffff" stroke="none" points="1580,-619 1580,-644 1731,-644 1731,-619 1580,-619"/>
<polygon fill="none" stroke="#2c3e50" points="1580,-619 1580,-644 1731,-644 1731,-619 1580,-619"/>
<text text-anchor="start" x="1585" y="-627.8" font-family="monospace" font-size="14.00" fill="#000000">rolsuper</text>
<polygon fill="#ffffff" stroke="none" points="1731,-619 1731,-644 1940,-644 1940,-619 1731,-619"/>
<polygon fill="none" stroke="#2c3e50" points="1731,-619 1731,-644 1940,-644 1940,-619 1731,-619"/>
<text text-anchor="start" x="1736" y="-628.8" font-family="monospace" font-style="italic" font-size="14.00" fill="#95a5a6">boolean</text>
<polygon fill="#ffffff" stroke="none" points="1580,-594 1580,-619 1731,-619 1731,-594 1580,-594"/>
<polygon fill="none" stroke="#2c3e50" points="1580,-594 1580,-619 1731,-619 1731,-594 1580,-594"/>
<text text-anchor="start" x="1585" y="-602.8" font-family="monospace" font-size="14.00" fill="#000000">rolinherit</text>
<polygon fill="#ffffff" stroke="none" points="1731,-594 1731,-619 1940,-619 1940,-594 1731,-594"/>
<polygon fill="none" stroke="#2c3e50" points="1731,-594 1731,-619 1940,-619 1940,-594 1731,-594"/>
<text text-anchor="start" x="1736" y="-603.8" font-family="monospace" font-style="italic" font-size="14.00" fill="#95a5a6">boolean</text>
<polygon fill="#ffffff" stroke="none" points="1580,-569 1580,-594 1731,-594 1731,-569 1580,-569"/>
<polygon fill="none" stroke="#2c3e50" points="1580,-569 1580,-594 1731,-594 1731,-569 1580,-569"/>
<text text-anchor="start" x="1585" y="-577.8" font-family="monospace" font-size="14.00" fill="#000000">rolcreaterole</text>
<polygon fill="#ffffff" stroke="none" points="1731,-569 1731,-594 1940,-594 1940,-569 1731,-569"/>
<polygon fill="none" stroke="#2c3e50" points="1731,-569 1731,-594 1940,-594 1940,-569 1731,-569"/>
<text text-anchor="start" x="1736" y="-578.8" font-family="monospace" font-style="italic" font-size="14.00" fill="#95a5a6">boolean</text>
<polygon fill="#ffffff" stroke="none" points="1580,-544 1580,-569 1731,-569 1731,-544 1580,-544"/>
<polygon fill="none" stroke="#2c3e50" points="1580,-544 1580,-569 1731,-569 1731,-544 1580,-544"/>
<text text-anchor="start" x="1585" y="-552.8" font-family="monospace" font-size="14.00" fill="#000000">rolcreatedb</text>
<polygon fill="#ffffff" stroke="none" points="1731,-544 1731,-569 1940,-569 1940,-544 1731,-544"/>
<polygon fill="none" stroke="#2c3e50" points="1731,-544 1731,-569 1940,-569 1940,-544 1731,-544"/>
<text text-anchor="start" x="1736" y="-553.8" font-family="monospace" font-style="italic" font-size="14.00" fill="#95a5a6">boolean</text>
<polygon fill="#ffffff" stroke="none" points="1580,-519 1580,-544 1731,-544 1731,-519 1580,-519"/>
<polygon fill="none" stroke="#2c3e50" points="1580,-519 1580,-544 1731,-544 1731,-519 1580,-519"/>
<text text-anchor="start" x="1585" y="-527.8" font-family="monospace" font-size="14.00" fill="#000000">rolcatupdate</text>
<polygon fill="#ffffff" stroke="none" points="1731,-519 1731,-544 1940,-544 1940,-519 1731,-519"/>
<polygon fill="none" stroke="#2c3e50" points="1731,-519 1731,-544 1940,-544 1940,-519 1731,-519"/>
<text text-anchor="start" x="1736" y="-528.8" font-family="monospace" font-style="italic" font-size="14.00" fill="#95a5a6">boolean</text>
<polygon fill="#ffffff" stroke="none" points="1580,-494 1580,-519 1731,-519 1731,-494 1580,-494"/>
<polygon fill="none" stroke="#2c3e50" points="1580,-494 1580,-519 1731,-519 1731,-494 1580,-494"/>
<text text-anchor="start" x="1585" y="-502.8" font-family="monospace" font-size="14.00" fill="#000000">rolcanlogin</text>
<polygon fill="#ffffff" stroke="none" points="1731,-494 1731,-519 1940,-519 1940,-494 1731,-494"/>
<polygon fill="none" stroke="#2c3e50" points="1731,-494 1731,-519 1940,-519 1940,-494 1731,-494"/>
<text text-anchor="start" x="1736" y="-503.8" font-family="monospace" font-style="italic" font-size="14.00" fill="#95a5a6">boolean</text>
<polygon fill="#ffffff" stroke="none" points="1580,-469 1580,-494 1731,-494 1731,-469 1580,-469"/>
<polygon fill="none" stroke="#2c3e50" points="1580,-469 1580,-494 1731,-494 1731,-469 1580,-469"/>
<text text-anchor="start" x="1585" y="-477.8" font-family="monospace" font-size="14.00" fill="#000000">rolconnlimit</text>
<polygon fill="#ffffff" stroke="none" points="1731,-469 1731,-494 1940,-494 1940,-469 1731,-469"/>
<polygon fill="none" stroke="#2c3e50" points="1731,-469 1731,-494 1940,-494 1940,-469 1731,-469"/>
<text text-anchor="start" x="1736" y="-478.8" font-family="monospace" font-style="italic" font-size="14.00" fill="#95a5a6">integer</text>
<polygon fill="#ffffff" stroke="none" points="1580,-444 1580,-469 1731,-469 1731,-444 1580,-444"/>
<polygon fill="none" stroke="#2c3e50" points="1580,-444 1580,-469 1731,-469 1731,-444 1580,-444"/>
<text text-anchor="start" x="1585" y="-452.8" font-family="monospace" font-size="14.00" fill="#000000">rolpassword</text>
<polygon fill="#ffffff" stroke="none" points="1731,-444 1731,-469 1940,-469 1940,-444 1731,-444"/>
<polygon fill="none" stroke="#2c3e50" points="1731,-444 1731,-469 1940,-469 1940,-444 1731,-444"/>
<text text-anchor="start" x="1736" y="-453.8" font-family="monospace" font-style="italic" font-size="14.00" fill="#95a5a6">text</text>
<polygon fill="#ffffff" stroke="none" points="1580,-419 1580,-444 1731,-444 1731,-419 1580,-419"/>
<polygon fill="none" stroke="#2c3e50" points="1580,-419 1580,-444 1731,-444 1731,-419 1580,-419"/>
<text text-anchor="start" x="1585" y="-427.8" font-family="monospace" font-size="14.00" fill="#000000">rolvaliduntil</text>
<polygon fill="#ffffff" stroke="none" points="1731,-419 1731,-444 1940,-444 1940,-419 1731,-419"/>
<polygon fill="none" stroke="#2c3e50" points="1731,-419 1731,-444 1940,-444 1940,-419 1731,-419"/>
<text text-anchor="start" x="1736" y="-428.8" font-family="monospace" font-style="italic" font-size="14.00" fill="#95a5a6">timestamp_with_time_zone</text>
<polygon fill="#ffffff" stroke="none" points="1580,-394 1580,-419 1731,-419 1731,-394 1580,-394"/>
<polygon fill="none" stroke="#2c3e50" points="1580,-394 1580,-419 1731,-419 1731,-394 1580,-394"/>
<text text-anchor="start" x="1585" y="-402.8" font-family="monospace" font-size="14.00" fill="#000000">rolconfig</text>
<polygon fill="#ffffff" stroke="none" points="1731,-394 1731,-419 1940,-419 1940,-394 1731,-394"/>
<polygon fill="none" stroke="#2c3e50" points="1731,-394 1731,-419 1940,-419 1940,-394 1731,-394"/>
<text text-anchor="start" x="1736" y="-403.8" font-family="monospace" font-style="italic" font-size="14.00" fill="#95a5a6">text[]</text>
<polygon fill="#ffffff" stroke="none" points="1580,-369 1580,-394 1731,-394 1731,-369 1580,-369"/>
<polygon fill="none" stroke="#2c3e50" points="1580,-369 1580,-394 1731,-394 1731,-369 1580,-369"/>
<text text-anchor="start" x="1585" y="-377.8" font-family="monospace" font-size="14.00" fill="#000000">rolresqueue</text>
<polygon fill="#ffffff" stroke="none" points="1731,-369 1731,-394 1940,-394 1940,-369 1731,-369"/>
<polygon fill="none" stroke="#2c3e50" points="1731,-369 1731,-394 1940,-394 1940,-369 1731,-369"/>
<text text-anchor="start" x="1736" y="-378.8" font-family="monospace" font-style="italic" font-size="14.00" fill="#95a5a6">oid</text>
<polygon fill="#ffffff" stroke="none" points="1580,-344 1580,-369 1731,-369 1731,-344 1580,-344"/>
<polygon fill="none" stroke="#2c3e50" points="1580,-344 1580,-369 1731,-369 1731,-344 1580,-344"/>
<text text-anchor="start" x="1585" y="-352.8" font-family="monospace" font-size="14.00" fill="#000000">rolcreaterextgpfd</text>
<polygon fill="#ffffff" stroke="none" points="1731,-344 1731,-369 1940,-369 1940,-344 1731,-344"/>
<polygon fill="none" stroke="#2c3e50" points="1731,-344 1731,-369 1940,-369 1940,-344 1731,-344"/>
<text text-anchor="start" x="1736" y="-353.8" font-family="monospace" font-style="italic" font-size="14.00" fill="#95a5a6">boolean</text>
<polygon fill="#ffffff" stroke="none" points="1580,-319 1580,-344 1731,-344 1731,-319 1580,-319"/>
<polygon fill="none" stroke="#2c3e50" points="1580,-319 1580,-344 1731,-344 1731,-319 1580,-319"/>
<text text-anchor="start" x="1585" y="-327.8" font-family="monospace" font-size="14.00" fill="#000000">rolcreaterexthttp</text>
<polygon fill="#ffffff" stroke="none" points="1731,-319 1731,-344 1940,-344 1940,-319 1731,-319"/>
<polygon fill="none" stroke="#2c3e50" points="1731,-319 1731,-344 1940,-344 1940,-319 1731,-319"/>
<text text-anchor="start" x="1736" y="-328.8" font-family="monospace" font-style="italic" font-size="14.00" fill="#95a5a6">boolean</text>
<polygon fill="#ffffff" stroke="none" points="1580,-294 1580,-319 1731,-319 1731,-294 1580,-294"/>
<polygon fill="none" stroke="#2c3e50" points="1580,-294 1580,-319 1731,-319 1731,-294 1580,-294"/>
<text text-anchor="start" x="1585" y="-302.8" font-family="monospace" font-size="14.00" fill="#000000">rolcreatewextgpfd</text>
<polygon fill="#ffffff" stroke="none" points="1731,-294 1731,-319 1940,-319 1940,-294 1731,-294"/>
<polygon fill="none" stroke="#2c3e50" points="1731,-294 1731,-319 1940,-319 1940,-294 1731,-294"/>
<text text-anchor="start" x="1736" y="-303.8" font-family="monospace" font-style="italic" font-size="14.00" fill="#95a5a6">boolean</text>
<polygon fill="#ffffff" stroke="none" points="1580,-269 1580,-294 1731,-294 1731,-269 1580,-269"/>
<polygon fill="none" stroke="#2c3e50" points="1580,-269 1580,-294 1731,-294 1731,-269 1580,-269"/>
<text text-anchor="start" x="1585" y="-277.8" font-family="monospace" font-size="14.00" fill="#000000">rolcreaterexthdfs</text>
<polygon fill="#ffffff" stroke="none" points="1731,-269 1731,-294 1940,-294 1940,-269 1731,-269"/>
<polygon fill="none" stroke="#2c3e50" points="1731,-269 1731,-294 1940,-294 1940,-269 1731,-269"/>
<text text-anchor="start" x="1736" y="-278.8" font-family="monospace" font-style="italic" font-size="14.00" fill="#95a5a6">boolean</text>
<polygon fill="#ffffff" stroke="none" points="1580,-244 1580,-269 1731,-269 1731,-244 1580,-244"/>
<polygon fill="none" stroke="#2c3e50" points="1580,-244 1580,-269 1731,-269 1731,-244 1580,-244"/>
<text text-anchor="start" x="1585" y="-252.8" font-family="monospace" font-size="14.00" fill="#000000">rolcreatewexthdfs</text>
<polygon fill="#ffffff" stroke="none" points="1731,-244 1731,-269 1940,-269 1940,-244 1731,-244"/>
<polygon fill="none" stroke="#2c3e50" points="1731,-244 1731,-269 1940,-269 1940,-244 1731,-244"/>
<text text-anchor="start" x="1736" y="-253.8" font-family="monospace" font-style="italic" font-size="14.00" fill="#95a5a6">boolean</text>
</a>
</g>
</g>
<!-- pg_foreign_server&#45;&gt;pg_authid -->
<g id="edge1" class="edge"><title>pg_foreign_server:srvowner_out&#45;&gt;pg_authid:oid_in</title>
<path fill="none" stroke="#2c3e50" d="M1147.5,-351C1385.78,-351 1338.71,-672.692 1568.91,-681.803"/>
<polygon fill="#2c3e50" stroke="#2c3e50" points="1568.93,-685.304 1579,-682 1569.07,-678.305 1568.93,-685.304"/>
</g>
</g>
</svg>
