<?xml version="1.0" encoding="UTF-8" standalone="no"?>
<!DOCTYPE svg PUBLIC "-//W3C//DTD SVG 1.1//EN"
 "http://www.w3.org/Graphics/SVG/1.1/DTD/svg11.dtd">
<!-- Generated by graphviz version 2.38.0 (20140413.2041)
 -->
<!-- Title: GPDB Pages: 1 -->
<svg width="1264pt" height="1017pt"
 viewBox="0.00 0.00 1264.00 1017.00" xmlns="http://www.w3.org/2000/svg" xmlns:xlink="http://www.w3.org/1999/xlink">
<g id="graph0" class="graph" transform="scale(1 1) rotate(0) translate(36 981)">
<title>GPDB</title>
<polygon fill="white" stroke="none" points="-36,36 -36,-981 1228,-981 1228,36 -36,36"/>
<text text-anchor="middle" x="596" y="-915.4" font-family="Helvetica,sans-Serif" font-size="32.00">Greenplum System Catalog: pg_inherits</text>
<g id="clust2" class="cluster"><title>cluster_selected</title>
</g>
<g id="clust3" class="cluster"><title>cluster_to</title>
</g>
<!-- pg_inherits -->
<g id="node1" class="node"><title>pg_inherits</title>
<polygon fill="#2c3e50" stroke="none" points="216.5,-808 216.5,-838 369.5,-838 369.5,-808 216.5,-808"/>
<polygon fill="none" stroke="black" points="216.5,-808 216.5,-838 369.5,-838 369.5,-808 216.5,-808"/>
<text text-anchor="start" x="235" y="-819.6" font-family="monospace" font-weight="bold" font-size="18.00" fill="#ffffff">pg_inherits</text>
<polygon fill="#ffffff" stroke="none" points="216.5,-783 216.5,-808 301.5,-808 301.5,-783 216.5,-783"/>
<polygon fill="none" stroke="#2c3e50" points="216.5,-783 216.5,-808 301.5,-808 301.5,-783 216.5,-783"/>
<text text-anchor="start" x="221.5" y="-791.8" font-family="monospace" font-size="14.00" fill="#000000">inhrelid</text>
<polygon fill="#18bc9c" stroke="none" points="301.5,-783 301.5,-808 369.5,-808 369.5,-783 301.5,-783"/>
<polygon fill="none" stroke="#2c3e50" points="301.5,-783 301.5,-808 369.5,-808 369.5,-783 301.5,-783"/>
<text text-anchor="start" x="306.5" y="-792.8" font-family="monospace" font-style="italic" font-size="14.00" fill="#ffffff">oid</text>
<polygon fill="#ffffff" stroke="none" points="216.5,-758 216.5,-783 301.5,-783 301.5,-758 216.5,-758"/>
<polygon fill="none" stroke="#2c3e50" points="216.5,-758 216.5,-783 301.5,-783 301.5,-758 216.5,-758"/>
<text text-anchor="start" x="221.5" y="-766.8" font-family="monospace" font-size="14.00" fill="#000000">inhparent</text>
<polygon fill="#18bc9c" stroke="none" points="301.5,-758 301.5,-783 369.5,-783 369.5,-758 301.5,-758"/>
<polygon fill="none" stroke="#2c3e50" points="301.5,-758 301.5,-783 369.5,-783 369.5,-758 301.5,-758"/>
<text text-anchor="start" x="306.5" y="-767.8" font-family="monospace" font-style="italic" font-size="14.00" fill="#ffffff">oid</text>
<polygon fill="#ffffff" stroke="none" points="216.5,-733 216.5,-758 301.5,-758 301.5,-733 216.5,-733"/>
<polygon fill="none" stroke="#2c3e50" points="216.5,-733 216.5,-758 301.5,-758 301.5,-733 216.5,-733"/>
<text text-anchor="start" x="221.5" y="-741.8" font-family="monospace" font-size="14.00" fill="#000000">inhseqno</text>
<polygon fill="#ffffff" stroke="none" points="301.5,-733 301.5,-758 369.5,-758 369.5,-733 301.5,-733"/>
<polygon fill="none" stroke="#2c3e50" points="301.5,-733 301.5,-758 369.5,-758 369.5,-733 301.5,-733"/>
<text text-anchor="start" x="306.5" y="-742.8" font-family="monospace" font-style="italic" font-size="14.00" fill="#95a5a6">integer</text>
</g>
<!-- pg_class -->
<g id="node2" class="node"><title>pg_class</title>
<polygon fill="#2c3e50" stroke="none" points="785.5,-795 785.5,-825 1012.5,-825 1012.5,-795 785.5,-795"/>
<polygon fill="none" stroke="black" points="785.5,-795 785.5,-825 1012.5,-825 1012.5,-795 785.5,-795"/>
<text text-anchor="start" x="856.5" y="-806.6" font-family="monospace" font-weight="bold" font-size="18.00" fill="#ffffff">pg_class</text>
<polygon fill="#18bc9c" stroke="none" points="785.5,-770 785.5,-795 911.5,-795 911.5,-770 785.5,-770"/>
<polygon fill="none" stroke="#2c3e50" points="785.5,-770 785.5,-795 911.5,-795 911.5,-770 785.5,-770"/>
<text text-anchor="start" x="790.5" y="-778.8" font-family="monospace" font-size="14.00" fill="#ffffff">oid</text>
<polygon fill="#ffffff" stroke="none" points="911.5,-770 911.5,-795 1012.5,-795 1012.5,-770 911.5,-770"/>
<polygon fill="none" stroke="#2c3e50" points="911.5,-770 911.5,-795 1012.5,-795 1012.5,-770 911.5,-770"/>
<text text-anchor="start" x="916.5" y="-779.8" font-family="monospace" font-style="italic" font-size="14.00" fill="#95a5a6">oid</text>
<polygon fill="#ffffff" stroke="none" points="785.5,-745 785.5,-770 911.5,-770 911.5,-745 785.5,-745"/>
<polygon fill="none" stroke="#2c3e50" points="785.5,-745 785.5,-770 911.5,-770 911.5,-745 785.5,-745"/>
<text text-anchor="start" x="790.5" y="-753.8" font-family="monospace" font-size="14.00" fill="#000000">relname</text>
<polygon fill="#ffffff" stroke="none" points="911.5,-745 911.5,-770 1012.5,-770 1012.5,-745 911.5,-745"/>
<polygon fill="none" stroke="#2c3e50" points="911.5,-745 911.5,-770 1012.5,-770 1012.5,-745 911.5,-745"/>
<text text-anchor="start" x="916.5" y="-754.8" font-family="monospace" font-style="italic" font-size="14.00" fill="#95a5a6">name</text>
<polygon fill="#ffffff" stroke="none" points="785.5,-720 785.5,-745 911.5,-745 911.5,-720 785.5,-720"/>
<polygon fill="none" stroke="#2c3e50" points="785.5,-720 785.5,-745 911.5,-745 911.5,-720 785.5,-720"/>
<text text-anchor="start" x="790.5" y="-728.8" font-family="monospace" font-size="14.00" fill="#000000">relnamespace</text>
<polygon fill="#ffffff" stroke="none" points="911.5,-720 911.5,-745 1012.5,-745 1012.5,-720 911.5,-720"/>
<polygon fill="none" stroke="#2c3e50" points="911.5,-720 911.5,-745 1012.5,-745 1012.5,-720 911.5,-720"/>
<text text-anchor="start" x="916.5" y="-729.8" font-family="monospace" font-style="italic" font-size="14.00" fill="#95a5a6">oid</text>
<polygon fill="#ffffff" stroke="none" points="785.5,-695 785.5,-720 911.5,-720 911.5,-695 785.5,-695"/>
<polygon fill="none" stroke="#2c3e50" points="785.5,-695 785.5,-720 911.5,-720 911.5,-695 785.5,-695"/>
<text text-anchor="start" x="790.5" y="-703.8" font-family="monospace" font-size="14.00" fill="#000000">reltype</text>
<polygon fill="#ffffff" stroke="none" points="911.5,-695 911.5,-720 1012.5,-720 1012.5,-695 911.5,-695"/>
<polygon fill="none" stroke="#2c3e50" points="911.5,-695 911.5,-720 1012.5,-720 1012.5,-695 911.5,-695"/>
<text text-anchor="start" x="916.5" y="-704.8" font-family="monospace" font-style="italic" font-size="14.00" fill="#95a5a6">oid</text>
<polygon fill="#ffffff" stroke="none" points="785.5,-670 785.5,-695 911.5,-695 911.5,-670 785.5,-670"/>
<polygon fill="none" stroke="#2c3e50" points="785.5,-670 785.5,-695 911.5,-695 911.5,-670 785.5,-670"/>
<text text-anchor="start" x="790.5" y="-678.8" font-family="monospace" font-size="14.00" fill="#000000">relowner</text>
<polygon fill="#ffffff" stroke="none" points="911.5,-670 911.5,-695 1012.5,-695 1012.5,-670 911.5,-670"/>
<polygon fill="none" stroke="#2c3e50" points="911.5,-670 911.5,-695 1012.5,-695 1012.5,-670 911.5,-670"/>
<text text-anchor="start" x="916.5" y="-679.8" font-family="monospace" font-style="italic" font-size="14.00" fill="#95a5a6">oid</text>
<polygon fill="#ffffff" stroke="none" points="785.5,-645 785.5,-670 911.5,-670 911.5,-645 785.5,-645"/>
<polygon fill="none" stroke="#2c3e50" points="785.5,-645 785.5,-670 911.5,-670 911.5,-645 785.5,-645"/>
<text text-anchor="start" x="790.5" y="-653.8" font-family="monospace" font-size="14.00" fill="#000000">relam</text>
<polygon fill="#ffffff" stroke="none" points="911.5,-645 911.5,-670 1012.5,-670 1012.5,-645 911.5,-645"/>
<polygon fill="none" stroke="#2c3e50" points="911.5,-645 911.5,-670 1012.5,-670 1012.5,-645 911.5,-645"/>
<text text-anchor="start" x="916.5" y="-654.8" font-family="monospace" font-style="italic" font-size="14.00" fill="#95a5a6">oid</text>
<polygon fill="#ffffff" stroke="none" points="785.5,-620 785.5,-645 911.5,-645 911.5,-620 785.5,-620"/>
<polygon fill="none" stroke="#2c3e50" points="785.5,-620 785.5,-645 911.5,-645 911.5,-620 785.5,-620"/>
<text text-anchor="start" x="790.5" y="-628.8" font-family="monospace" font-size="14.00" fill="#000000">relfilenode</text>
<polygon fill="#ffffff" stroke="none" points="911.5,-620 911.5,-645 1012.5,-645 1012.5,-620 911.5,-620"/>
<polygon fill="none" stroke="#2c3e50" points="911.5,-620 911.5,-645 1012.5,-645 1012.5,-620 911.5,-620"/>
<text text-anchor="start" x="916.5" y="-629.8" font-family="monospace" font-style="italic" font-size="14.00" fill="#95a5a6">oid</text>
<polygon fill="#ffffff" stroke="none" points="785.5,-595 785.5,-620 911.5,-620 911.5,-595 785.5,-595"/>
<polygon fill="none" stroke="#2c3e50" points="785.5,-595 785.5,-620 911.5,-620 911.5,-595 785.5,-595"/>
<text text-anchor="start" x="790.5" y="-603.8" font-family="monospace" font-size="14.00" fill="#000000">reltablespace</text>
<polygon fill="#ffffff" stroke="none" points="911.5,-595 911.5,-620 1012.5,-620 1012.5,-595 911.5,-595"/>
<polygon fill="none" stroke="#2c3e50" points="911.5,-595 911.5,-620 1012.5,-620 1012.5,-595 911.5,-595"/>
<text text-anchor="start" x="916.5" y="-604.8" font-family="monospace" font-style="italic" font-size="14.00" fill="#95a5a6">oid</text>
<polygon fill="#ffffff" stroke="none" points="785.5,-570 785.5,-595 911.5,-595 911.5,-570 785.5,-570"/>
<polygon fill="none" stroke="#2c3e50" points="785.5,-570 785.5,-595 911.5,-595 911.5,-570 785.5,-570"/>
<text text-anchor="start" x="790.5" y="-578.8" font-family="monospace" font-size="14.00" fill="#000000">relpages</text>
<polygon fill="#ffffff" stroke="none" points="911.5,-570 911.5,-595 1012.5,-595 1012.5,-570 911.5,-570"/>
<polygon fill="none" stroke="#2c3e50" points="911.5,-570 911.5,-595 1012.5,-595 1012.5,-570 911.5,-570"/>
<text text-anchor="start" x="916.5" y="-579.8" font-family="monospace" font-style="italic" font-size="14.00" fill="#95a5a6">integer</text>
<polygon fill="#ffffff" stroke="none" points="785.5,-545 785.5,-570 911.5,-570 911.5,-545 785.5,-545"/>
<polygon fill="none" stroke="#2c3e50" points="785.5,-545 785.5,-570 911.5,-570 911.5,-545 785.5,-545"/>
<text text-anchor="start" x="790.5" y="-553.8" font-family="monospace" font-size="14.00" fill="#000000">reltuples</text>
<polygon fill="#ffffff" stroke="none" points="911.5,-545 911.5,-570 1012.5,-570 1012.5,-545 911.5,-545"/>
<polygon fill="none" stroke="#2c3e50" points="911.5,-545 911.5,-570 1012.5,-570 1012.5,-545 911.5,-545"/>
<text text-anchor="start" x="916.5" y="-554.8" font-family="monospace" font-style="italic" font-size="14.00" fill="#95a5a6">real</text>
<polygon fill="#ffffff" stroke="none" points="785.5,-520 785.5,-545 911.5,-545 911.5,-520 785.5,-520"/>
<polygon fill="none" stroke="#2c3e50" points="785.5,-520 785.5,-545 911.5,-545 911.5,-520 785.5,-520"/>
<text text-anchor="start" x="790.5" y="-528.8" font-family="monospace" font-size="14.00" fill="#000000">reltoastrelid</text>
<polygon fill="#ffffff" stroke="none" points="911.5,-520 911.5,-545 1012.5,-545 1012.5,-520 911.5,-520"/>
<polygon fill="none" stroke="#2c3e50" points="911.5,-520 911.5,-545 1012.5,-545 1012.5,-520 911.5,-520"/>
<text text-anchor="start" x="916.5" y="-529.8" font-family="monospace" font-style="italic" font-size="14.00" fill="#95a5a6">oid</text>
<polygon fill="#ffffff" stroke="none" points="785.5,-495 785.5,-520 911.5,-520 911.5,-495 785.5,-495"/>
<polygon fill="none" stroke="#2c3e50" points="785.5,-495 785.5,-520 911.5,-520 911.5,-495 785.5,-495"/>
<text text-anchor="start" x="790.5" y="-503.8" font-family="monospace" font-size="14.00" fill="#000000">reltoastidxid</text>
<polygon fill="#ffffff" stroke="none" points="911.5,-495 911.5,-520 1012.5,-520 1012.5,-495 911.5,-495"/>
<polygon fill="none" stroke="#2c3e50" points="911.5,-495 911.5,-520 1012.5,-520 1012.5,-495 911.5,-495"/>
<text text-anchor="start" x="916.5" y="-504.8" font-family="monospace" font-style="italic" font-size="14.00" fill="#95a5a6">oid</text>
<polygon fill="#ffffff" stroke="none" points="785.5,-470 785.5,-495 911.5,-495 911.5,-470 785.5,-470"/>
<polygon fill="none" stroke="#2c3e50" points="785.5,-470 785.5,-495 911.5,-495 911.5,-470 785.5,-470"/>
<text text-anchor="start" x="790.5" y="-478.8" font-family="monospace" font-size="14.00" fill="#000000">relaosegrelid</text>
<polygon fill="#ffffff" stroke="none" points="911.5,-470 911.5,-495 1012.5,-495 1012.5,-470 911.5,-470"/>
<polygon fill="none" stroke="#2c3e50" points="911.5,-470 911.5,-495 1012.5,-495 1012.5,-470 911.5,-470"/>
<text text-anchor="start" x="916.5" y="-479.8" font-family="monospace" font-style="italic" font-size="14.00" fill="#95a5a6">oid</text>
<polygon fill="#ffffff" stroke="none" points="785.5,-445 785.5,-470 911.5,-470 911.5,-445 785.5,-445"/>
<polygon fill="none" stroke="#2c3e50" points="785.5,-445 785.5,-470 911.5,-470 911.5,-445 785.5,-445"/>
<text text-anchor="start" x="790.5" y="-453.8" font-family="monospace" font-size="14.00" fill="#000000">relaosegidxid</text>
<polygon fill="#ffffff" stroke="none" points="911.5,-445 911.5,-470 1012.5,-470 1012.5,-445 911.5,-445"/>
<polygon fill="none" stroke="#2c3e50" points="911.5,-445 911.5,-470 1012.5,-470 1012.5,-445 911.5,-445"/>
<text text-anchor="start" x="916.5" y="-454.8" font-family="monospace" font-style="italic" font-size="14.00" fill="#95a5a6">oid</text>
<polygon fill="#ffffff" stroke="none" points="785.5,-420 785.5,-445 911.5,-445 911.5,-420 785.5,-420"/>
<polygon fill="none" stroke="#2c3e50" points="785.5,-420 785.5,-445 911.5,-445 911.5,-420 785.5,-420"/>
<text text-anchor="start" x="790.5" y="-428.8" font-family="monospace" font-size="14.00" fill="#000000">relhasindex</text>
<polygon fill="#ffffff" stroke="none" points="911.5,-420 911.5,-445 1012.5,-445 1012.5,-420 911.5,-420"/>
<polygon fill="none" stroke="#2c3e50" points="911.5,-420 911.5,-445 1012.5,-445 1012.5,-420 911.5,-420"/>
<text text-anchor="start" x="916.5" y="-429.8" font-family="monospace" font-style="italic" font-size="14.00" fill="#95a5a6">boolean</text>
<polygon fill="#ffffff" stroke="none" points="785.5,-395 785.5,-420 911.5,-420 911.5,-395 785.5,-395"/>
<polygon fill="none" stroke="#2c3e50" points="785.5,-395 785.5,-420 911.5,-420 911.5,-395 785.5,-395"/>
<text text-anchor="start" x="790.5" y="-403.8" font-family="monospace" font-size="14.00" fill="#000000">relisshared</text>
<polygon fill="#ffffff" stroke="none" points="911.5,-395 911.5,-420 1012.5,-420 1012.5,-395 911.5,-395"/>
<polygon fill="none" stroke="#2c3e50" points="911.5,-395 911.5,-420 1012.5,-420 1012.5,-395 911.5,-395"/>
<text text-anchor="start" x="916.5" y="-404.8" font-family="monospace" font-style="italic" font-size="14.00" fill="#95a5a6">boolean</text>
<polygon fill="#ffffff" stroke="none" points="785.5,-370 785.5,-395 911.5,-395 911.5,-370 785.5,-370"/>
<polygon fill="none" stroke="#2c3e50" points="785.5,-370 785.5,-395 911.5,-395 911.5,-370 785.5,-370"/>
<text text-anchor="start" x="790.5" y="-378.8" font-family="monospace" font-size="14.00" fill="#000000">relkind</text>
<polygon fill="#ffffff" stroke="none" points="911.5,-370 911.5,-395 1012.5,-395 1012.5,-370 911.5,-370"/>
<polygon fill="none" stroke="#2c3e50" points="911.5,-370 911.5,-395 1012.5,-395 1012.5,-370 911.5,-370"/>
<text text-anchor="start" x="916.5" y="-379.8" font-family="monospace" font-style="italic" font-size="14.00" fill="#95a5a6">quoted_char</text>
<polygon fill="#ffffff" stroke="none" points="785.5,-345 785.5,-370 911.5,-370 911.5,-345 785.5,-345"/>
<polygon fill="none" stroke="#2c3e50" points="785.5,-345 785.5,-370 911.5,-370 911.5,-345 785.5,-345"/>
<text text-anchor="start" x="790.5" y="-353.8" font-family="monospace" font-size="14.00" fill="#000000">relstorage</text>
<polygon fill="#ffffff" stroke="none" points="911.5,-345 911.5,-370 1012.5,-370 1012.5,-345 911.5,-345"/>
<polygon fill="none" stroke="#2c3e50" points="911.5,-345 911.5,-370 1012.5,-370 1012.5,-345 911.5,-345"/>
<text text-anchor="start" x="916.5" y="-354.8" font-family="monospace" font-style="italic" font-size="14.00" fill="#95a5a6">quoted_char</text>
<polygon fill="#ffffff" stroke="none" points="785.5,-320 785.5,-345 911.5,-345 911.5,-320 785.5,-320"/>
<polygon fill="none" stroke="#2c3e50" points="785.5,-320 785.5,-345 911.5,-345 911.5,-320 785.5,-320"/>
<text text-anchor="start" x="790.5" y="-328.8" font-family="monospace" font-size="14.00" fill="#000000">relnatts</text>
<polygon fill="#ffffff" stroke="none" points="911.5,-320 911.5,-345 1012.5,-345 1012.5,-320 911.5,-320"/>
<polygon fill="none" stroke="#2c3e50" points="911.5,-320 911.5,-345 1012.5,-345 1012.5,-320 911.5,-320"/>
<text text-anchor="start" x="916.5" y="-329.8" font-family="monospace" font-style="italic" font-size="14.00" fill="#95a5a6">smallint</text>
<polygon fill="#ffffff" stroke="none" points="785.5,-295 785.5,-320 911.5,-320 911.5,-295 785.5,-295"/>
<polygon fill="none" stroke="#2c3e50" points="785.5,-295 785.5,-320 911.5,-320 911.5,-295 785.5,-295"/>
<text text-anchor="start" x="790.5" y="-303.8" font-family="monospace" font-size="14.00" fill="#000000">relchecks</text>
<polygon fill="#ffffff" stroke="none" points="911.5,-295 911.5,-320 1012.5,-320 1012.5,-295 911.5,-295"/>
<polygon fill="none" stroke="#2c3e50" points="911.5,-295 911.5,-320 1012.5,-320 1012.5,-295 911.5,-295"/>
<text text-anchor="start" x="916.5" y="-304.8" font-family="monospace" font-style="italic" font-size="14.00" fill="#95a5a6">smallint</text>
<polygon fill="#ffffff" stroke="none" points="785.5,-270 785.5,-295 911.5,-295 911.5,-270 785.5,-270"/>
<polygon fill="none" stroke="#2c3e50" points="785.5,-270 785.5,-295 911.5,-295 911.5,-270 785.5,-270"/>
<text text-anchor="start" x="790.5" y="-278.8" font-family="monospace" font-size="14.00" fill="#000000">reltriggers</text>
<polygon fill="#ffffff" stroke="none" points="911.5,-270 911.5,-295 1012.5,-295 1012.5,-270 911.5,-270"/>
<polygon fill="none" stroke="#2c3e50" points="911.5,-270 911.5,-295 1012.5,-295 1012.5,-270 911.5,-270"/>
<text text-anchor="start" x="916.5" y="-279.8" font-family="monospace" font-style="italic" font-size="14.00" fill="#95a5a6">smallint</text>
<polygon fill="#ffffff" stroke="none" points="785.5,-245 785.5,-270 911.5,-270 911.5,-245 785.5,-245"/>
<polygon fill="none" stroke="#2c3e50" points="785.5,-245 785.5,-270 911.5,-270 911.5,-245 785.5,-245"/>
<text text-anchor="start" x="790.5" y="-253.8" font-family="monospace" font-size="14.00" fill="#000000">relukeys</text>
<polygon fill="#ffffff" stroke="none" points="911.5,-245 911.5,-270 1012.5,-270 1012.5,-245 911.5,-245"/>
<polygon fill="none" stroke="#2c3e50" points="911.5,-245 911.5,-270 1012.5,-270 1012.5,-245 911.5,-245"/>
<text text-anchor="start" x="916.5" y="-254.8" font-family="monospace" font-style="italic" font-size="14.00" fill="#95a5a6">smallint</text>
<polygon fill="#ffffff" stroke="none" points="785.5,-220 785.5,-245 911.5,-245 911.5,-220 785.5,-220"/>
<polygon fill="none" stroke="#2c3e50" points="785.5,-220 785.5,-245 911.5,-245 911.5,-220 785.5,-220"/>
<text text-anchor="start" x="790.5" y="-228.8" font-family="monospace" font-size="14.00" fill="#000000">relfkeys</text>
<polygon fill="#ffffff" stroke="none" points="911.5,-220 911.5,-245 1012.5,-245 1012.5,-220 911.5,-220"/>
<polygon fill="none" stroke="#2c3e50" points="911.5,-220 911.5,-245 1012.5,-245 1012.5,-220 911.5,-220"/>
<text text-anchor="start" x="916.5" y="-229.8" font-family="monospace" font-style="italic" font-size="14.00" fill="#95a5a6">smallint</text>
<polygon fill="#ffffff" stroke="none" points="785.5,-195 785.5,-220 911.5,-220 911.5,-195 785.5,-195"/>
<polygon fill="none" stroke="#2c3e50" points="785.5,-195 785.5,-220 911.5,-220 911.5,-195 785.5,-195"/>
<text text-anchor="start" x="790.5" y="-203.8" font-family="monospace" font-size="14.00" fill="#000000">relrefs</text>
<polygon fill="#ffffff" stroke="none" points="911.5,-195 911.5,-220 1012.5,-220 1012.5,-195 911.5,-195"/>
<polygon fill="none" stroke="#2c3e50" points="911.5,-195 911.5,-220 1012.5,-220 1012.5,-195 911.5,-195"/>
<text text-anchor="start" x="916.5" y="-204.8" font-family="monospace" font-style="italic" font-size="14.00" fill="#95a5a6">smallint</text>
<polygon fill="#ffffff" stroke="none" points="785.5,-170 785.5,-195 911.5,-195 911.5,-170 785.5,-170"/>
<polygon fill="none" stroke="#2c3e50" points="785.5,-170 785.5,-195 911.5,-195 911.5,-170 785.5,-170"/>
<text text-anchor="start" x="790.5" y="-178.8" font-family="monospace" font-size="14.00" fill="#000000">relhasoids</text>
<polygon fill="#ffffff" stroke="none" points="911.5,-170 911.5,-195 1012.5,-195 1012.5,-170 911.5,-170"/>
<polygon fill="none" stroke="#2c3e50" points="911.5,-170 911.5,-195 1012.5,-195 1012.5,-170 911.5,-170"/>
<text text-anchor="start" x="916.5" y="-179.8" font-family="monospace" font-style="italic" font-size="14.00" fill="#95a5a6">boolean</text>
<polygon fill="#ffffff" stroke="none" points="785.5,-145 785.5,-170 911.5,-170 911.5,-145 785.5,-145"/>
<polygon fill="none" stroke="#2c3e50" points="785.5,-145 785.5,-170 911.5,-170 911.5,-145 785.5,-145"/>
<text text-anchor="start" x="790.5" y="-153.8" font-family="monospace" font-size="14.00" fill="#000000">relhaspkey</text>
<polygon fill="#ffffff" stroke="none" points="911.5,-145 911.5,-170 1012.5,-170 1012.5,-145 911.5,-145"/>
<polygon fill="none" stroke="#2c3e50" points="911.5,-145 911.5,-170 1012.5,-170 1012.5,-145 911.5,-145"/>
<text text-anchor="start" x="916.5" y="-154.8" font-family="monospace" font-style="italic" font-size="14.00" fill="#95a5a6">boolean</text>
<polygon fill="#ffffff" stroke="none" points="785.5,-120 785.5,-145 911.5,-145 911.5,-120 785.5,-120"/>
<polygon fill="none" stroke="#2c3e50" points="785.5,-120 785.5,-145 911.5,-145 911.5,-120 785.5,-120"/>
<text text-anchor="start" x="790.5" y="-128.8" font-family="monospace" font-size="14.00" fill="#000000">relhasrules</text>
<polygon fill="#ffffff" stroke="none" points="911.5,-120 911.5,-145 1012.5,-145 1012.5,-120 911.5,-120"/>
<polygon fill="none" stroke="#2c3e50" points="911.5,-120 911.5,-145 1012.5,-145 1012.5,-120 911.5,-120"/>
<text text-anchor="start" x="916.5" y="-129.8" font-family="monospace" font-style="italic" font-size="14.00" fill="#95a5a6">boolean</text>
<polygon fill="#ffffff" stroke="none" points="785.5,-95 785.5,-120 911.5,-120 911.5,-95 785.5,-95"/>
<polygon fill="none" stroke="#2c3e50" points="785.5,-95 785.5,-120 911.5,-120 911.5,-95 785.5,-95"/>
<text text-anchor="start" x="790.5" y="-103.8" font-family="monospace" font-size="14.00" fill="#000000">relhassubclass</text>
<polygon fill="#ffffff" stroke="none" points="911.5,-95 911.5,-120 1012.5,-120 1012.5,-95 911.5,-95"/>
<polygon fill="none" stroke="#2c3e50" points="911.5,-95 911.5,-120 1012.5,-120 1012.5,-95 911.5,-95"/>
<text text-anchor="start" x="916.5" y="-104.8" font-family="monospace" font-style="italic" font-size="14.00" fill="#95a5a6">boolean</text>
<polygon fill="#ffffff" stroke="none" points="785.5,-70 785.5,-95 911.5,-95 911.5,-70 785.5,-70"/>
<polygon fill="none" stroke="#2c3e50" points="785.5,-70 785.5,-95 911.5,-95 911.5,-70 785.5,-70"/>
<text text-anchor="start" x="790.5" y="-78.8" font-family="monospace" font-size="14.00" fill="#000000">relfrozenxid</text>
<polygon fill="#ffffff" stroke="none" points="911.5,-70 911.5,-95 1012.5,-95 1012.5,-70 911.5,-70"/>
<polygon fill="none" stroke="#2c3e50" points="911.5,-70 911.5,-95 1012.5,-95 1012.5,-70 911.5,-70"/>
<text text-anchor="start" x="916.5" y="-79.8" font-family="monospace" font-style="italic" font-size="14.00" fill="#95a5a6">xid</text>
<polygon fill="#ffffff" stroke="none" points="785.5,-45 785.5,-70 911.5,-70 911.5,-45 785.5,-45"/>
<polygon fill="none" stroke="#2c3e50" points="785.5,-45 785.5,-70 911.5,-70 911.5,-45 785.5,-45"/>
<text text-anchor="start" x="790.5" y="-53.8" font-family="monospace" font-size="14.00" fill="#000000">relacl</text>
<polygon fill="#ffffff" stroke="none" points="911.5,-45 911.5,-70 1012.5,-70 1012.5,-45 911.5,-45"/>
<polygon fill="none" stroke="#2c3e50" points="911.5,-45 911.5,-70 1012.5,-70 1012.5,-45 911.5,-45"/>
<text text-anchor="start" x="916.5" y="-54.8" font-family="monospace" font-style="italic" font-size="14.00" fill="#95a5a6">aclitem[]</text>
<polygon fill="#ffffff" stroke="none" points="785.5,-20 785.5,-45 911.5,-45 911.5,-20 785.5,-20"/>
<polygon fill="none" stroke="#2c3e50" points="785.5,-20 785.5,-45 911.5,-45 911.5,-20 785.5,-20"/>
<text text-anchor="start" x="790.5" y="-28.8" font-family="monospace" font-size="14.00" fill="#000000">reloptions</text>
<polygon fill="#ffffff" stroke="none" points="911.5,-20 911.5,-45 1012.5,-45 1012.5,-20 911.5,-20"/>
<polygon fill="none" stroke="#2c3e50" points="911.5,-20 911.5,-45 1012.5,-45 1012.5,-20 911.5,-20"/>
<text text-anchor="start" x="916.5" y="-29.8" font-family="monospace" font-style="italic" font-size="14.00" fill="#95a5a6">text[]</text>
</g>
<!-- pg_inherits&#45;&gt;pg_class -->
<g id="edge1" class="edge"><title>pg_inherits:inhrelid_out&#45;&gt;pg_class:oid_in</title>
<path fill="none" stroke="#2c3e50" d="M370.5,-796C551.175,-796 598.661,-783.478 774.394,-783.013"/>
<polygon fill="#2c3e50" stroke="#2c3e50" points="774.505,-786.513 784.5,-783 774.495,-779.513 774.505,-786.513"/>
</g>
<!-- pg_inherits&#45;&gt;pg_class -->
<g id="edge2" class="edge"><title>pg_inherits:inhparent_out&#45;&gt;pg_class:oid_in</title>
<path fill="none" stroke="#2c3e50" d="M370.5,-770C551.175,-770 598.661,-782.522 774.394,-782.987"/>
<polygon fill="#2c3e50" stroke="#2c3e50" points="774.495,-786.487 784.5,-783 774.505,-779.487 774.495,-786.487"/>
</g>
</g>
</svg>
