<?xml version="1.0" encoding="UTF-8" standalone="no"?>
<!DOCTYPE svg PUBLIC "-//W3C//DTD SVG 1.1//EN"
 "http://www.w3.org/Graphics/SVG/1.1/DTD/svg11.dtd">
<!-- Generated by graphviz version 2.38.0 (20140413.2041)
 -->
<!-- Title: GPDB Pages: 1 -->
<svg width="1212pt" height="1016pt"
 viewBox="0.00 0.00 1212.00 1016.00" xmlns="http://www.w3.org/2000/svg" xmlns:xlink="http://www.w3.org/1999/xlink">
<g id="graph0" class="graph" transform="scale(1 1) rotate(0) translate(36 980)">
<title>GPDB</title>
<polygon fill="white" stroke="none" points="-36,36 -36,-980 1176,-980 1176,36 -36,36"/>
<text text-anchor="middle" x="570" y="-914.4" font-family="Helvetica,sans-Serif" font-size="32.00">Greenplum System Catalog: pg_index</text>
<g id="clust2" class="cluster"><title>cluster_selected</title>
</g>
<g id="clust3" class="cluster"><title>cluster_to</title>
</g>
<!-- pg_index -->
<g id="node1" class="node"><title>pg_index</title>
<polygon fill="#2c3e50" stroke="none" points="170.5,-807 170.5,-837 389.5,-837 389.5,-807 170.5,-807"/>
<polygon fill="none" stroke="black" points="170.5,-807 170.5,-837 389.5,-837 389.5,-807 170.5,-807"/>
<text text-anchor="start" x="237.5" y="-818.6" font-family="monospace" font-weight="bold" font-size="18.00" fill="#ffffff">pg_index</text>
<polygon fill="#ffffff" stroke="none" points="170.5,-782 170.5,-807 296.5,-807 296.5,-782 170.5,-782"/>
<polygon fill="none" stroke="#2c3e50" points="170.5,-782 170.5,-807 296.5,-807 296.5,-782 170.5,-782"/>
<text text-anchor="start" x="175.5" y="-790.8" font-family="monospace" font-size="14.00" fill="#000000">indexrelid</text>
<polygon fill="#18bc9c" stroke="none" points="296.5,-782 296.5,-807 389.5,-807 389.5,-782 296.5,-782"/>
<polygon fill="none" stroke="#2c3e50" points="296.5,-782 296.5,-807 389.5,-807 389.5,-782 296.5,-782"/>
<text text-anchor="start" x="301.5" y="-791.8" font-family="monospace" font-style="italic" font-size="14.00" fill="#ffffff">oid</text>
<polygon fill="#ffffff" stroke="none" points="170.5,-757 170.5,-782 296.5,-782 296.5,-757 170.5,-757"/>
<polygon fill="none" stroke="#2c3e50" points="170.5,-757 170.5,-782 296.5,-782 296.5,-757 170.5,-757"/>
<text text-anchor="start" x="175.5" y="-765.8" font-family="monospace" font-size="14.00" fill="#000000">indrelid</text>
<polygon fill="#18bc9c" stroke="none" points="296.5,-757 296.5,-782 389.5,-782 389.5,-757 296.5,-757"/>
<polygon fill="none" stroke="#2c3e50" points="296.5,-757 296.5,-782 389.5,-782 389.5,-757 296.5,-757"/>
<text text-anchor="start" x="301.5" y="-766.8" font-family="monospace" font-style="italic" font-size="14.00" fill="#ffffff">oid</text>
<polygon fill="#ffffff" stroke="none" points="170.5,-732 170.5,-757 296.5,-757 296.5,-732 170.5,-732"/>
<polygon fill="none" stroke="#2c3e50" points="170.5,-732 170.5,-757 296.5,-757 296.5,-732 170.5,-732"/>
<text text-anchor="start" x="175.5" y="-740.8" font-family="monospace" font-size="14.00" fill="#000000">indnatts</text>
<polygon fill="#ffffff" stroke="none" points="296.5,-732 296.5,-757 389.5,-757 389.5,-732 296.5,-732"/>
<polygon fill="none" stroke="#2c3e50" points="296.5,-732 296.5,-757 389.5,-757 389.5,-732 296.5,-732"/>
<text text-anchor="start" x="301.5" y="-741.8" font-family="monospace" font-style="italic" font-size="14.00" fill="#95a5a6">smallint</text>
<polygon fill="#ffffff" stroke="none" points="170.5,-707 170.5,-732 296.5,-732 296.5,-707 170.5,-707"/>
<polygon fill="none" stroke="#2c3e50" points="170.5,-707 170.5,-732 296.5,-732 296.5,-707 170.5,-707"/>
<text text-anchor="start" x="175.5" y="-715.8" font-family="monospace" font-size="14.00" fill="#000000">indisunique</text>
<polygon fill="#ffffff" stroke="none" points="296.5,-707 296.5,-732 389.5,-732 389.5,-707 296.5,-707"/>
<polygon fill="none" stroke="#2c3e50" points="296.5,-707 296.5,-732 389.5,-732 389.5,-707 296.5,-707"/>
<text text-anchor="start" x="301.5" y="-716.8" font-family="monospace" font-style="italic" font-size="14.00" fill="#95a5a6">boolean</text>
<polygon fill="#ffffff" stroke="none" points="170.5,-682 170.5,-707 296.5,-707 296.5,-682 170.5,-682"/>
<polygon fill="none" stroke="#2c3e50" points="170.5,-682 170.5,-707 296.5,-707 296.5,-682 170.5,-682"/>
<text text-anchor="start" x="175.5" y="-690.8" font-family="monospace" font-size="14.00" fill="#000000">indisprimary</text>
<polygon fill="#ffffff" stroke="none" points="296.5,-682 296.5,-707 389.5,-707 389.5,-682 296.5,-682"/>
<polygon fill="none" stroke="#2c3e50" points="296.5,-682 296.5,-707 389.5,-707 389.5,-682 296.5,-682"/>
<text text-anchor="start" x="301.5" y="-691.8" font-family="monospace" font-style="italic" font-size="14.00" fill="#95a5a6">boolean</text>
<polygon fill="#ffffff" stroke="none" points="170.5,-657 170.5,-682 296.5,-682 296.5,-657 170.5,-657"/>
<polygon fill="none" stroke="#2c3e50" points="170.5,-657 170.5,-682 296.5,-682 296.5,-657 170.5,-657"/>
<text text-anchor="start" x="175.5" y="-665.8" font-family="monospace" font-size="14.00" fill="#000000">indisclustered</text>
<polygon fill="#ffffff" stroke="none" points="296.5,-657 296.5,-682 389.5,-682 389.5,-657 296.5,-657"/>
<polygon fill="none" stroke="#2c3e50" points="296.5,-657 296.5,-682 389.5,-682 389.5,-657 296.5,-657"/>
<text text-anchor="start" x="301.5" y="-666.8" font-family="monospace" font-style="italic" font-size="14.00" fill="#95a5a6">boolean</text>
<polygon fill="#ffffff" stroke="none" points="170.5,-632 170.5,-657 296.5,-657 296.5,-632 170.5,-632"/>
<polygon fill="none" stroke="#2c3e50" points="170.5,-632 170.5,-657 296.5,-657 296.5,-632 170.5,-632"/>
<text text-anchor="start" x="175.5" y="-640.8" font-family="monospace" font-size="14.00" fill="#000000">indisvalid</text>
<polygon fill="#ffffff" stroke="none" points="296.5,-632 296.5,-657 389.5,-657 389.5,-632 296.5,-632"/>
<polygon fill="none" stroke="#2c3e50" points="296.5,-632 296.5,-657 389.5,-657 389.5,-632 296.5,-632"/>
<text text-anchor="start" x="301.5" y="-641.8" font-family="monospace" font-style="italic" font-size="14.00" fill="#95a5a6">boolean</text>
<polygon fill="#ffffff" stroke="none" points="170.5,-607 170.5,-632 296.5,-632 296.5,-607 170.5,-607"/>
<polygon fill="none" stroke="#2c3e50" points="170.5,-607 170.5,-632 296.5,-632 296.5,-607 170.5,-607"/>
<text text-anchor="start" x="175.5" y="-615.8" font-family="monospace" font-size="14.00" fill="#000000">indkey</text>
<polygon fill="#ffffff" stroke="none" points="296.5,-607 296.5,-632 389.5,-632 389.5,-607 296.5,-607"/>
<polygon fill="none" stroke="#2c3e50" points="296.5,-607 296.5,-632 389.5,-632 389.5,-607 296.5,-607"/>
<text text-anchor="start" x="301.5" y="-616.8" font-family="monospace" font-style="italic" font-size="14.00" fill="#95a5a6">int2vector</text>
<polygon fill="#ffffff" stroke="none" points="170.5,-582 170.5,-607 296.5,-607 296.5,-582 170.5,-582"/>
<polygon fill="none" stroke="#2c3e50" points="170.5,-582 170.5,-607 296.5,-607 296.5,-582 170.5,-582"/>
<text text-anchor="start" x="175.5" y="-590.8" font-family="monospace" font-size="14.00" fill="#000000">indclass</text>
<polygon fill="#ffffff" stroke="none" points="296.5,-582 296.5,-607 389.5,-607 389.5,-582 296.5,-582"/>
<polygon fill="none" stroke="#2c3e50" points="296.5,-582 296.5,-607 389.5,-607 389.5,-582 296.5,-582"/>
<text text-anchor="start" x="301.5" y="-591.8" font-family="monospace" font-style="italic" font-size="14.00" fill="#95a5a6">oidvector</text>
<polygon fill="#ffffff" stroke="none" points="170.5,-557 170.5,-582 296.5,-582 296.5,-557 170.5,-557"/>
<polygon fill="none" stroke="#2c3e50" points="170.5,-557 170.5,-582 296.5,-582 296.5,-557 170.5,-557"/>
<text text-anchor="start" x="175.5" y="-565.8" font-family="monospace" font-size="14.00" fill="#000000">indexprs</text>
<polygon fill="#ffffff" stroke="none" points="296.5,-557 296.5,-582 389.5,-582 389.5,-557 296.5,-557"/>
<polygon fill="none" stroke="#2c3e50" points="296.5,-557 296.5,-582 389.5,-582 389.5,-557 296.5,-557"/>
<text text-anchor="start" x="301.5" y="-566.8" font-family="monospace" font-style="italic" font-size="14.00" fill="#95a5a6">text</text>
<polygon fill="#ffffff" stroke="none" points="170.5,-532 170.5,-557 296.5,-557 296.5,-532 170.5,-532"/>
<polygon fill="none" stroke="#2c3e50" points="170.5,-532 170.5,-557 296.5,-557 296.5,-532 170.5,-532"/>
<text text-anchor="start" x="175.5" y="-540.8" font-family="monospace" font-size="14.00" fill="#000000">indpred</text>
<polygon fill="#ffffff" stroke="none" points="296.5,-532 296.5,-557 389.5,-557 389.5,-532 296.5,-532"/>
<polygon fill="none" stroke="#2c3e50" points="296.5,-532 296.5,-557 389.5,-557 389.5,-532 296.5,-532"/>
<text text-anchor="start" x="301.5" y="-541.8" font-family="monospace" font-style="italic" font-size="14.00" fill="#95a5a6">text</text>
</g>
<!-- pg_class -->
<g id="node2" class="node"><title>pg_class</title>
<polygon fill="#2c3e50" stroke="none" points="746.5,-795 746.5,-825 973.5,-825 973.5,-795 746.5,-795"/>
<polygon fill="none" stroke="black" points="746.5,-795 746.5,-825 973.5,-825 973.5,-795 746.5,-795"/>
<text text-anchor="start" x="817.5" y="-806.6" font-family="monospace" font-weight="bold" font-size="18.00" fill="#ffffff">pg_class</text>
<polygon fill="#18bc9c" stroke="none" points="746.5,-770 746.5,-795 872.5,-795 872.5,-770 746.5,-770"/>
<polygon fill="none" stroke="#2c3e50" points="746.5,-770 746.5,-795 872.5,-795 872.5,-770 746.5,-770"/>
<text text-anchor="start" x="751.5" y="-778.8" font-family="monospace" font-size="14.00" fill="#ffffff">oid</text>
<polygon fill="#ffffff" stroke="none" points="872.5,-770 872.5,-795 973.5,-795 973.5,-770 872.5,-770"/>
<polygon fill="none" stroke="#2c3e50" points="872.5,-770 872.5,-795 973.5,-795 973.5,-770 872.5,-770"/>
<text text-anchor="start" x="877.5" y="-779.8" font-family="monospace" font-style="italic" font-size="14.00" fill="#95a5a6">oid</text>
<polygon fill="#ffffff" stroke="none" points="746.5,-745 746.5,-770 872.5,-770 872.5,-745 746.5,-745"/>
<polygon fill="none" stroke="#2c3e50" points="746.5,-745 746.5,-770 872.5,-770 872.5,-745 746.5,-745"/>
<text text-anchor="start" x="751.5" y="-753.8" font-family="monospace" font-size="14.00" fill="#000000">relname</text>
<polygon fill="#ffffff" stroke="none" points="872.5,-745 872.5,-770 973.5,-770 973.5,-745 872.5,-745"/>
<polygon fill="none" stroke="#2c3e50" points="872.5,-745 872.5,-770 973.5,-770 973.5,-745 872.5,-745"/>
<text text-anchor="start" x="877.5" y="-754.8" font-family="monospace" font-style="italic" font-size="14.00" fill="#95a5a6">name</text>
<polygon fill="#ffffff" stroke="none" points="746.5,-720 746.5,-745 872.5,-745 872.5,-720 746.5,-720"/>
<polygon fill="none" stroke="#2c3e50" points="746.5,-720 746.5,-745 872.5,-745 872.5,-720 746.5,-720"/>
<text text-anchor="start" x="751.5" y="-728.8" font-family="monospace" font-size="14.00" fill="#000000">relnamespace</text>
<polygon fill="#ffffff" stroke="none" points="872.5,-720 872.5,-745 973.5,-745 973.5,-720 872.5,-720"/>
<polygon fill="none" stroke="#2c3e50" points="872.5,-720 872.5,-745 973.5,-745 973.5,-720 872.5,-720"/>
<text text-anchor="start" x="877.5" y="-729.8" font-family="monospace" font-style="italic" font-size="14.00" fill="#95a5a6">oid</text>
<polygon fill="#ffffff" stroke="none" points="746.5,-695 746.5,-720 872.5,-720 872.5,-695 746.5,-695"/>
<polygon fill="none" stroke="#2c3e50" points="746.5,-695 746.5,-720 872.5,-720 872.5,-695 746.5,-695"/>
<text text-anchor="start" x="751.5" y="-703.8" font-family="monospace" font-size="14.00" fill="#000000">reltype</text>
<polygon fill="#ffffff" stroke="none" points="872.5,-695 872.5,-720 973.5,-720 973.5,-695 872.5,-695"/>
<polygon fill="none" stroke="#2c3e50" points="872.5,-695 872.5,-720 973.5,-720 973.5,-695 872.5,-695"/>
<text text-anchor="start" x="877.5" y="-704.8" font-family="monospace" font-style="italic" font-size="14.00" fill="#95a5a6">oid</text>
<polygon fill="#ffffff" stroke="none" points="746.5,-670 746.5,-695 872.5,-695 872.5,-670 746.5,-670"/>
<polygon fill="none" stroke="#2c3e50" points="746.5,-670 746.5,-695 872.5,-695 872.5,-670 746.5,-670"/>
<text text-anchor="start" x="751.5" y="-678.8" font-family="monospace" font-size="14.00" fill="#000000">relowner</text>
<polygon fill="#ffffff" stroke="none" points="872.5,-670 872.5,-695 973.5,-695 973.5,-670 872.5,-670"/>
<polygon fill="none" stroke="#2c3e50" points="872.5,-670 872.5,-695 973.5,-695 973.5,-670 872.5,-670"/>
<text text-anchor="start" x="877.5" y="-679.8" font-family="monospace" font-style="italic" font-size="14.00" fill="#95a5a6">oid</text>
<polygon fill="#ffffff" stroke="none" points="746.5,-645 746.5,-670 872.5,-670 872.5,-645 746.5,-645"/>
<polygon fill="none" stroke="#2c3e50" points="746.5,-645 746.5,-670 872.5,-670 872.5,-645 746.5,-645"/>
<text text-anchor="start" x="751.5" y="-653.8" font-family="monospace" font-size="14.00" fill="#000000">relam</text>
<polygon fill="#ffffff" stroke="none" points="872.5,-645 872.5,-670 973.5,-670 973.5,-645 872.5,-645"/>
<polygon fill="none" stroke="#2c3e50" points="872.5,-645 872.5,-670 973.5,-670 973.5,-645 872.5,-645"/>
<text text-anchor="start" x="877.5" y="-654.8" font-family="monospace" font-style="italic" font-size="14.00" fill="#95a5a6">oid</text>
<polygon fill="#ffffff" stroke="none" points="746.5,-620 746.5,-645 872.5,-645 872.5,-620 746.5,-620"/>
<polygon fill="none" stroke="#2c3e50" points="746.5,-620 746.5,-645 872.5,-645 872.5,-620 746.5,-620"/>
<text text-anchor="start" x="751.5" y="-628.8" font-family="monospace" font-size="14.00" fill="#000000">relfilenode</text>
<polygon fill="#ffffff" stroke="none" points="872.5,-620 872.5,-645 973.5,-645 973.5,-620 872.5,-620"/>
<polygon fill="none" stroke="#2c3e50" points="872.5,-620 872.5,-645 973.5,-645 973.5,-620 872.5,-620"/>
<text text-anchor="start" x="877.5" y="-629.8" font-family="monospace" font-style="italic" font-size="14.00" fill="#95a5a6">oid</text>
<polygon fill="#ffffff" stroke="none" points="746.5,-595 746.5,-620 872.5,-620 872.5,-595 746.5,-595"/>
<polygon fill="none" stroke="#2c3e50" points="746.5,-595 746.5,-620 872.5,-620 872.5,-595 746.5,-595"/>
<text text-anchor="start" x="751.5" y="-603.8" font-family="monospace" font-size="14.00" fill="#000000">reltablespace</text>
<polygon fill="#ffffff" stroke="none" points="872.5,-595 872.5,-620 973.5,-620 973.5,-595 872.5,-595"/>
<polygon fill="none" stroke="#2c3e50" points="872.5,-595 872.5,-620 973.5,-620 973.5,-595 872.5,-595"/>
<text text-anchor="start" x="877.5" y="-604.8" font-family="monospace" font-style="italic" font-size="14.00" fill="#95a5a6">oid</text>
<polygon fill="#ffffff" stroke="none" points="746.5,-570 746.5,-595 872.5,-595 872.5,-570 746.5,-570"/>
<polygon fill="none" stroke="#2c3e50" points="746.5,-570 746.5,-595 872.5,-595 872.5,-570 746.5,-570"/>
<text text-anchor="start" x="751.5" y="-578.8" font-family="monospace" font-size="14.00" fill="#000000">relpages</text>
<polygon fill="#ffffff" stroke="none" points="872.5,-570 872.5,-595 973.5,-595 973.5,-570 872.5,-570"/>
<polygon fill="none" stroke="#2c3e50" points="872.5,-570 872.5,-595 973.5,-595 973.5,-570 872.5,-570"/>
<text text-anchor="start" x="877.5" y="-579.8" font-family="monospace" font-style="italic" font-size="14.00" fill="#95a5a6">integer</text>
<polygon fill="#ffffff" stroke="none" points="746.5,-545 746.5,-570 872.5,-570 872.5,-545 746.5,-545"/>
<polygon fill="none" stroke="#2c3e50" points="746.5,-545 746.5,-570 872.5,-570 872.5,-545 746.5,-545"/>
<text text-anchor="start" x="751.5" y="-553.8" font-family="monospace" font-size="14.00" fill="#000000">reltuples</text>
<polygon fill="#ffffff" stroke="none" points="872.5,-545 872.5,-570 973.5,-570 973.5,-545 872.5,-545"/>
<polygon fill="none" stroke="#2c3e50" points="872.5,-545 872.5,-570 973.5,-570 973.5,-545 872.5,-545"/>
<text text-anchor="start" x="877.5" y="-554.8" font-family="monospace" font-style="italic" font-size="14.00" fill="#95a5a6">real</text>
<polygon fill="#ffffff" stroke="none" points="746.5,-520 746.5,-545 872.5,-545 872.5,-520 746.5,-520"/>
<polygon fill="none" stroke="#2c3e50" points="746.5,-520 746.5,-545 872.5,-545 872.5,-520 746.5,-520"/>
<text text-anchor="start" x="751.5" y="-528.8" font-family="monospace" font-size="14.00" fill="#000000">reltoastrelid</text>
<polygon fill="#ffffff" stroke="none" points="872.5,-520 872.5,-545 973.5,-545 973.5,-520 872.5,-520"/>
<polygon fill="none" stroke="#2c3e50" points="872.5,-520 872.5,-545 973.5,-545 973.5,-520 872.5,-520"/>
<text text-anchor="start" x="877.5" y="-529.8" font-family="monospace" font-style="italic" font-size="14.00" fill="#95a5a6">oid</text>
<polygon fill="#ffffff" stroke="none" points="746.5,-495 746.5,-520 872.5,-520 872.5,-495 746.5,-495"/>
<polygon fill="none" stroke="#2c3e50" points="746.5,-495 746.5,-520 872.5,-520 872.5,-495 746.5,-495"/>
<text text-anchor="start" x="751.5" y="-503.8" font-family="monospace" font-size="14.00" fill="#000000">reltoastidxid</text>
<polygon fill="#ffffff" stroke="none" points="872.5,-495 872.5,-520 973.5,-520 973.5,-495 872.5,-495"/>
<polygon fill="none" stroke="#2c3e50" points="872.5,-495 872.5,-520 973.5,-520 973.5,-495 872.5,-495"/>
<text text-anchor="start" x="877.5" y="-504.8" font-family="monospace" font-style="italic" font-size="14.00" fill="#95a5a6">oid</text>
<polygon fill="#ffffff" stroke="none" points="746.5,-470 746.5,-495 872.5,-495 872.5,-470 746.5,-470"/>
<polygon fill="none" stroke="#2c3e50" points="746.5,-470 746.5,-495 872.5,-495 872.5,-470 746.5,-470"/>
<text text-anchor="start" x="751.5" y="-478.8" font-family="monospace" font-size="14.00" fill="#000000">relaosegrelid</text>
<polygon fill="#ffffff" stroke="none" points="872.5,-470 872.5,-495 973.5,-495 973.5,-470 872.5,-470"/>
<polygon fill="none" stroke="#2c3e50" points="872.5,-470 872.5,-495 973.5,-495 973.5,-470 872.5,-470"/>
<text text-anchor="start" x="877.5" y="-479.8" font-family="monospace" font-style="italic" font-size="14.00" fill="#95a5a6">oid</text>
<polygon fill="#ffffff" stroke="none" points="746.5,-445 746.5,-470 872.5,-470 872.5,-445 746.5,-445"/>
<polygon fill="none" stroke="#2c3e50" points="746.5,-445 746.5,-470 872.5,-470 872.5,-445 746.5,-445"/>
<text text-anchor="start" x="751.5" y="-453.8" font-family="monospace" font-size="14.00" fill="#000000">relaosegidxid</text>
<polygon fill="#ffffff" stroke="none" points="872.5,-445 872.5,-470 973.5,-470 973.5,-445 872.5,-445"/>
<polygon fill="none" stroke="#2c3e50" points="872.5,-445 872.5,-470 973.5,-470 973.5,-445 872.5,-445"/>
<text text-anchor="start" x="877.5" y="-454.8" font-family="monospace" font-style="italic" font-size="14.00" fill="#95a5a6">oid</text>
<polygon fill="#ffffff" stroke="none" points="746.5,-420 746.5,-445 872.5,-445 872.5,-420 746.5,-420"/>
<polygon fill="none" stroke="#2c3e50" points="746.5,-420 746.5,-445 872.5,-445 872.5,-420 746.5,-420"/>
<text text-anchor="start" x="751.5" y="-428.8" font-family="monospace" font-size="14.00" fill="#000000">relhasindex</text>
<polygon fill="#ffffff" stroke="none" points="872.5,-420 872.5,-445 973.5,-445 973.5,-420 872.5,-420"/>
<polygon fill="none" stroke="#2c3e50" points="872.5,-420 872.5,-445 973.5,-445 973.5,-420 872.5,-420"/>
<text text-anchor="start" x="877.5" y="-429.8" font-family="monospace" font-style="italic" font-size="14.00" fill="#95a5a6">boolean</text>
<polygon fill="#ffffff" stroke="none" points="746.5,-395 746.5,-420 872.5,-420 872.5,-395 746.5,-395"/>
<polygon fill="none" stroke="#2c3e50" points="746.5,-395 746.5,-420 872.5,-420 872.5,-395 746.5,-395"/>
<text text-anchor="start" x="751.5" y="-403.8" font-family="monospace" font-size="14.00" fill="#000000">relisshared</text>
<polygon fill="#ffffff" stroke="none" points="872.5,-395 872.5,-420 973.5,-420 973.5,-395 872.5,-395"/>
<polygon fill="none" stroke="#2c3e50" points="872.5,-395 872.5,-420 973.5,-420 973.5,-395 872.5,-395"/>
<text text-anchor="start" x="877.5" y="-404.8" font-family="monospace" font-style="italic" font-size="14.00" fill="#95a5a6">boolean</text>
<polygon fill="#ffffff" stroke="none" points="746.5,-370 746.5,-395 872.5,-395 872.5,-370 746.5,-370"/>
<polygon fill="none" stroke="#2c3e50" points="746.5,-370 746.5,-395 872.5,-395 872.5,-370 746.5,-370"/>
<text text-anchor="start" x="751.5" y="-378.8" font-family="monospace" font-size="14.00" fill="#000000">relkind</text>
<polygon fill="#ffffff" stroke="none" points="872.5,-370 872.5,-395 973.5,-395 973.5,-370 872.5,-370"/>
<polygon fill="none" stroke="#2c3e50" points="872.5,-370 872.5,-395 973.5,-395 973.5,-370 872.5,-370"/>
<text text-anchor="start" x="877.5" y="-379.8" font-family="monospace" font-style="italic" font-size="14.00" fill="#95a5a6">quoted_char</text>
<polygon fill="#ffffff" stroke="none" points="746.5,-345 746.5,-370 872.5,-370 872.5,-345 746.5,-345"/>
<polygon fill="none" stroke="#2c3e50" points="746.5,-345 746.5,-370 872.5,-370 872.5,-345 746.5,-345"/>
<text text-anchor="start" x="751.5" y="-353.8" font-family="monospace" font-size="14.00" fill="#000000">relstorage</text>
<polygon fill="#ffffff" stroke="none" points="872.5,-345 872.5,-370 973.5,-370 973.5,-345 872.5,-345"/>
<polygon fill="none" stroke="#2c3e50" points="872.5,-345 872.5,-370 973.5,-370 973.5,-345 872.5,-345"/>
<text text-anchor="start" x="877.5" y="-354.8" font-family="monospace" font-style="italic" font-size="14.00" fill="#95a5a6">quoted_char</text>
<polygon fill="#ffffff" stroke="none" points="746.5,-320 746.5,-345 872.5,-345 872.5,-320 746.5,-320"/>
<polygon fill="none" stroke="#2c3e50" points="746.5,-320 746.5,-345 872.5,-345 872.5,-320 746.5,-320"/>
<text text-anchor="start" x="751.5" y="-328.8" font-family="monospace" font-size="14.00" fill="#000000">relnatts</text>
<polygon fill="#ffffff" stroke="none" points="872.5,-320 872.5,-345 973.5,-345 973.5,-320 872.5,-320"/>
<polygon fill="none" stroke="#2c3e50" points="872.5,-320 872.5,-345 973.5,-345 973.5,-320 872.5,-320"/>
<text text-anchor="start" x="877.5" y="-329.8" font-family="monospace" font-style="italic" font-size="14.00" fill="#95a5a6">smallint</text>
<polygon fill="#ffffff" stroke="none" points="746.5,-295 746.5,-320 872.5,-320 872.5,-295 746.5,-295"/>
<polygon fill="none" stroke="#2c3e50" points="746.5,-295 746.5,-320 872.5,-320 872.5,-295 746.5,-295"/>
<text text-anchor="start" x="751.5" y="-303.8" font-family="monospace" font-size="14.00" fill="#000000">relchecks</text>
<polygon fill="#ffffff" stroke="none" points="872.5,-295 872.5,-320 973.5,-320 973.5,-295 872.5,-295"/>
<polygon fill="none" stroke="#2c3e50" points="872.5,-295 872.5,-320 973.5,-320 973.5,-295 872.5,-295"/>
<text text-anchor="start" x="877.5" y="-304.8" font-family="monospace" font-style="italic" font-size="14.00" fill="#95a5a6">smallint</text>
<polygon fill="#ffffff" stroke="none" points="746.5,-270 746.5,-295 872.5,-295 872.5,-270 746.5,-270"/>
<polygon fill="none" stroke="#2c3e50" points="746.5,-270 746.5,-295 872.5,-295 872.5,-270 746.5,-270"/>
<text text-anchor="start" x="751.5" y="-278.8" font-family="monospace" font-size="14.00" fill="#000000">reltriggers</text>
<polygon fill="#ffffff" stroke="none" points="872.5,-270 872.5,-295 973.5,-295 973.5,-270 872.5,-270"/>
<polygon fill="none" stroke="#2c3e50" points="872.5,-270 872.5,-295 973.5,-295 973.5,-270 872.5,-270"/>
<text text-anchor="start" x="877.5" y="-279.8" font-family="monospace" font-style="italic" font-size="14.00" fill="#95a5a6">smallint</text>
<polygon fill="#ffffff" stroke="none" points="746.5,-245 746.5,-270 872.5,-270 872.5,-245 746.5,-245"/>
<polygon fill="none" stroke="#2c3e50" points="746.5,-245 746.5,-270 872.5,-270 872.5,-245 746.5,-245"/>
<text text-anchor="start" x="751.5" y="-253.8" font-family="monospace" font-size="14.00" fill="#000000">relukeys</text>
<polygon fill="#ffffff" stroke="none" points="872.5,-245 872.5,-270 973.5,-270 973.5,-245 872.5,-245"/>
<polygon fill="none" stroke="#2c3e50" points="872.5,-245 872.5,-270 973.5,-270 973.5,-245 872.5,-245"/>
<text text-anchor="start" x="877.5" y="-254.8" font-family="monospace" font-style="italic" font-size="14.00" fill="#95a5a6">smallint</text>
<polygon fill="#ffffff" stroke="none" points="746.5,-220 746.5,-245 872.5,-245 872.5,-220 746.5,-220"/>
<polygon fill="none" stroke="#2c3e50" points="746.5,-220 746.5,-245 872.5,-245 872.5,-220 746.5,-220"/>
<text text-anchor="start" x="751.5" y="-228.8" font-family="monospace" font-size="14.00" fill="#000000">relfkeys</text>
<polygon fill="#ffffff" stroke="none" points="872.5,-220 872.5,-245 973.5,-245 973.5,-220 872.5,-220"/>
<polygon fill="none" stroke="#2c3e50" points="872.5,-220 872.5,-245 973.5,-245 973.5,-220 872.5,-220"/>
<text text-anchor="start" x="877.5" y="-229.8" font-family="monospace" font-style="italic" font-size="14.00" fill="#95a5a6">smallint</text>
<polygon fill="#ffffff" stroke="none" points="746.5,-195 746.5,-220 872.5,-220 872.5,-195 746.5,-195"/>
<polygon fill="none" stroke="#2c3e50" points="746.5,-195 746.5,-220 872.5,-220 872.5,-195 746.5,-195"/>
<text text-anchor="start" x="751.5" y="-203.8" font-family="monospace" font-size="14.00" fill="#000000">relrefs</text>
<polygon fill="#ffffff" stroke="none" points="872.5,-195 872.5,-220 973.5,-220 973.5,-195 872.5,-195"/>
<polygon fill="none" stroke="#2c3e50" points="872.5,-195 872.5,-220 973.5,-220 973.5,-195 872.5,-195"/>
<text text-anchor="start" x="877.5" y="-204.8" font-family="monospace" font-style="italic" font-size="14.00" fill="#95a5a6">smallint</text>
<polygon fill="#ffffff" stroke="none" points="746.5,-170 746.5,-195 872.5,-195 872.5,-170 746.5,-170"/>
<polygon fill="none" stroke="#2c3e50" points="746.5,-170 746.5,-195 872.5,-195 872.5,-170 746.5,-170"/>
<text text-anchor="start" x="751.5" y="-178.8" font-family="monospace" font-size="14.00" fill="#000000">relhasoids</text>
<polygon fill="#ffffff" stroke="none" points="872.5,-170 872.5,-195 973.5,-195 973.5,-170 872.5,-170"/>
<polygon fill="none" stroke="#2c3e50" points="872.5,-170 872.5,-195 973.5,-195 973.5,-170 872.5,-170"/>
<text text-anchor="start" x="877.5" y="-179.8" font-family="monospace" font-style="italic" font-size="14.00" fill="#95a5a6">boolean</text>
<polygon fill="#ffffff" stroke="none" points="746.5,-145 746.5,-170 872.5,-170 872.5,-145 746.5,-145"/>
<polygon fill="none" stroke="#2c3e50" points="746.5,-145 746.5,-170 872.5,-170 872.5,-145 746.5,-145"/>
<text text-anchor="start" x="751.5" y="-153.8" font-family="monospace" font-size="14.00" fill="#000000">relhaspkey</text>
<polygon fill="#ffffff" stroke="none" points="872.5,-145 872.5,-170 973.5,-170 973.5,-145 872.5,-145"/>
<polygon fill="none" stroke="#2c3e50" points="872.5,-145 872.5,-170 973.5,-170 973.5,-145 872.5,-145"/>
<text text-anchor="start" x="877.5" y="-154.8" font-family="monospace" font-style="italic" font-size="14.00" fill="#95a5a6">boolean</text>
<polygon fill="#ffffff" stroke="none" points="746.5,-120 746.5,-145 872.5,-145 872.5,-120 746.5,-120"/>
<polygon fill="none" stroke="#2c3e50" points="746.5,-120 746.5,-145 872.5,-145 872.5,-120 746.5,-120"/>
<text text-anchor="start" x="751.5" y="-128.8" font-family="monospace" font-size="14.00" fill="#000000">relhasrules</text>
<polygon fill="#ffffff" stroke="none" points="872.5,-120 872.5,-145 973.5,-145 973.5,-120 872.5,-120"/>
<polygon fill="none" stroke="#2c3e50" points="872.5,-120 872.5,-145 973.5,-145 973.5,-120 872.5,-120"/>
<text text-anchor="start" x="877.5" y="-129.8" font-family="monospace" font-style="italic" font-size="14.00" fill="#95a5a6">boolean</text>
<polygon fill="#ffffff" stroke="none" points="746.5,-95 746.5,-120 872.5,-120 872.5,-95 746.5,-95"/>
<polygon fill="none" stroke="#2c3e50" points="746.5,-95 746.5,-120 872.5,-120 872.5,-95 746.5,-95"/>
<text text-anchor="start" x="751.5" y="-103.8" font-family="monospace" font-size="14.00" fill="#000000">relhassubclass</text>
<polygon fill="#ffffff" stroke="none" points="872.5,-95 872.5,-120 973.5,-120 973.5,-95 872.5,-95"/>
<polygon fill="none" stroke="#2c3e50" points="872.5,-95 872.5,-120 973.5,-120 973.5,-95 872.5,-95"/>
<text text-anchor="start" x="877.5" y="-104.8" font-family="monospace" font-style="italic" font-size="14.00" fill="#95a5a6">boolean</text>
<polygon fill="#ffffff" stroke="none" points="746.5,-70 746.5,-95 872.5,-95 872.5,-70 746.5,-70"/>
<polygon fill="none" stroke="#2c3e50" points="746.5,-70 746.5,-95 872.5,-95 872.5,-70 746.5,-70"/>
<text text-anchor="start" x="751.5" y="-78.8" font-family="monospace" font-size="14.00" fill="#000000">relfrozenxid</text>
<polygon fill="#ffffff" stroke="none" points="872.5,-70 872.5,-95 973.5,-95 973.5,-70 872.5,-70"/>
<polygon fill="none" stroke="#2c3e50" points="872.5,-70 872.5,-95 973.5,-95 973.5,-70 872.5,-70"/>
<text text-anchor="start" x="877.5" y="-79.8" font-family="monospace" font-style="italic" font-size="14.00" fill="#95a5a6">xid</text>
<polygon fill="#ffffff" stroke="none" points="746.5,-45 746.5,-70 872.5,-70 872.5,-45 746.5,-45"/>
<polygon fill="none" stroke="#2c3e50" points="746.5,-45 746.5,-70 872.5,-70 872.5,-45 746.5,-45"/>
<text text-anchor="start" x="751.5" y="-53.8" font-family="monospace" font-size="14.00" fill="#000000">relacl</text>
<polygon fill="#ffffff" stroke="none" points="872.5,-45 872.5,-70 973.5,-70 973.5,-45 872.5,-45"/>
<polygon fill="none" stroke="#2c3e50" points="872.5,-45 872.5,-70 973.5,-70 973.5,-45 872.5,-45"/>
<text text-anchor="start" x="877.5" y="-54.8" font-family="monospace" font-style="italic" font-size="14.00" fill="#95a5a6">aclitem[]</text>
<polygon fill="#ffffff" stroke="none" points="746.5,-20 746.5,-45 872.5,-45 872.5,-20 746.5,-20"/>
<polygon fill="none" stroke="#2c3e50" points="746.5,-20 746.5,-45 872.5,-45 872.5,-20 746.5,-20"/>
<text text-anchor="start" x="751.5" y="-28.8" font-family="monospace" font-size="14.00" fill="#000000">reloptions</text>
<polygon fill="#ffffff" stroke="none" points="872.5,-20 872.5,-45 973.5,-45 973.5,-20 872.5,-20"/>
<polygon fill="none" stroke="#2c3e50" points="872.5,-20 872.5,-45 973.5,-45 973.5,-20 872.5,-20"/>
<text text-anchor="start" x="877.5" y="-29.8" font-family="monospace" font-style="italic" font-size="14.00" fill="#95a5a6">text[]</text>
</g>
<!-- pg_index&#45;&gt;pg_class -->
<g id="edge1" class="edge"><title>pg_index:indexrelid_out&#45;&gt;pg_class:oid_in</title>
<path fill="none" stroke="#2c3e50" d="M390.5,-795C544.976,-795 585.89,-783.51 735.487,-783.016"/>
<polygon fill="#2c3e50" stroke="#2c3e50" points="735.506,-786.516 745.5,-783 735.494,-779.516 735.506,-786.516"/>
</g>
<!-- pg_index&#45;&gt;pg_class -->
<g id="edge2" class="edge"><title>pg_index:indrelid_out&#45;&gt;pg_class:oid_in</title>
<path fill="none" stroke="#2c3e50" d="M390.5,-770C544.992,-770 585.876,-782.447 735.486,-782.982"/>
<polygon fill="#2c3e50" stroke="#2c3e50" points="735.494,-786.482 745.5,-783 735.506,-779.482 735.494,-786.482"/>
</g>
</g>
</svg>
