<?xml version="1.0" encoding="UTF-8" standalone="no"?>
<!DOCTYPE svg PUBLIC "-//W3C//DTD SVG 1.1//EN"
 "http://www.w3.org/Graphics/SVG/1.1/DTD/svg11.dtd">
<!-- Generated by graphviz version 2.38.0 (20140413.2041)
 -->
<!-- Title: GPDB Pages: 1 -->
<svg width="658pt" height="304pt"
 viewBox="0.00 0.00 658.00 304.00" xmlns="http://www.w3.org/2000/svg" xmlns:xlink="http://www.w3.org/1999/xlink">
<g id="graph0" class="graph" transform="scale(1 1) rotate(0) translate(36 268)">
<title>GPDB</title>
<polygon fill="white" stroke="none" points="-36,36 -36,-268 622,-268 622,36 -36,36"/>
<text text-anchor="middle" x="293" y="-202.4" font-family="Helvetica,sans-Serif" font-size="32.00">Greenplum System Catalog: pg_listener</text>
<g id="clust2" class="cluster"><title>cluster_selected</title>
</g>
<!-- pg_listener -->
<g id="node1" class="node"><title>pg_listener</title>
<polygon fill="#2c3e50" stroke="none" points="204,-95 204,-125 382,-125 382,-95 204,-95"/>
<polygon fill="none" stroke="black" points="204,-95 204,-125 382,-125 382,-95 204,-95"/>
<text text-anchor="start" x="235" y="-106.6" font-family="monospace" font-weight="bold" font-size="18.00" fill="#ffffff">pg_listener</text>
<polygon fill="#ffffff" stroke="none" points="204,-70 204,-95 314,-95 314,-70 204,-70"/>
<polygon fill="none" stroke="#2c3e50" points="204,-70 204,-95 314,-95 314,-70 204,-70"/>
<text text-anchor="start" x="209" y="-78.8" font-family="monospace" font-size="14.00" fill="#000000">relname</text>
<polygon fill="#ffffff" stroke="none" points="314,-70 314,-95 382,-95 382,-70 314,-70"/>
<polygon fill="none" stroke="#2c3e50" points="314,-70 314,-95 382,-95 382,-70 314,-70"/>
<text text-anchor="start" x="319" y="-79.8" font-family="monospace" font-style="italic" font-size="14.00" fill="#95a5a6">name</text>
<polygon fill="#ffffff" stroke="none" points="204,-45 204,-70 314,-70 314,-45 204,-45"/>
<polygon fill="none" stroke="#2c3e50" points="204,-45 204,-70 314,-70 314,-45 204,-45"/>
<text text-anchor="start" x="209" y="-53.8" font-family="monospace" font-size="14.00" fill="#000000">listenerpid</text>
<polygon fill="#ffffff" stroke="none" points="314,-45 314,-70 382,-70 382,-45 314,-45"/>
<polygon fill="none" stroke="#2c3e50" points="314,-45 314,-70 382,-70 382,-45 314,-45"/>
<text text-anchor="start" x="319" y="-54.8" font-family="monospace" font-style="italic" font-size="14.00" fill="#95a5a6">integer</text>
<polygon fill="#ffffff" stroke="none" points="204,-20 204,-45 314,-45 314,-20 204,-20"/>
<polygon fill="none" stroke="#2c3e50" points="204,-20 204,-45 314,-45 314,-20 204,-20"/>
<text text-anchor="start" x="209" y="-28.8" font-family="monospace" font-size="14.00" fill="#000000">notification</text>
<polygon fill="#ffffff" stroke="none" points="314,-20 314,-45 382,-45 382,-20 314,-20"/>
<polygon fill="none" stroke="#2c3e50" points="314,-20 314,-45 382,-45 382,-20 314,-20"/>
<text text-anchor="start" x="319" y="-29.8" font-family="monospace" font-style="italic" font-size="14.00" fill="#95a5a6">integer</text>
</g>
</g>
</svg>
