<?xml version="1.0" encoding="UTF-8" standalone="no"?>
<!DOCTYPE svg PUBLIC "-//W3C//DTD SVG 1.1//EN"
 "http://www.w3.org/Graphics/SVG/1.1/DTD/svg11.dtd">
<!-- Generated by graphviz version 2.38.0 (20140413.2041)
 -->
<!-- Title: GPDB Pages: 1 -->
<svg width="712pt" height="304pt"
 viewBox="0.00 0.00 712.00 304.00" xmlns="http://www.w3.org/2000/svg" xmlns:xlink="http://www.w3.org/1999/xlink">
<g id="graph0" class="graph" transform="scale(1 1) rotate(0) translate(36 268)">
<title>GPDB</title>
<polygon fill="white" stroke="none" points="-36,36 -36,-268 676,-268 676,36 -36,36"/>
<text text-anchor="middle" x="320" y="-202.4" font-family="Helvetica,sans-Serif" font-size="32.00">Greenplum System Catalog: pg_largeobject</text>
<g id="clust2" class="cluster"><title>cluster_selected</title>
</g>
<!-- pg_largeobject -->
<g id="node1" class="node"><title>pg_largeobject</title>
<g id="a_node1"><a xlink:href="pg_largeobject.svg" xlink:title="&lt;TABLE&gt;">
<polygon fill="#2c3e50" stroke="none" points="241,-95 241,-125 399,-125 399,-95 241,-95"/>
<polygon fill="none" stroke="black" points="241,-95 241,-125 399,-125 399,-95 241,-95"/>
<text text-anchor="start" x="246" y="-106.6" font-family="monospace" font-weight="bold" font-size="18.00" fill="#ffffff">pg_largeobject</text>
<polygon fill="#ffffff" stroke="none" points="241,-70 241,-95 316,-95 316,-70 241,-70"/>
<polygon fill="none" stroke="#2c3e50" points="241,-70 241,-95 316,-95 316,-70 241,-70"/>
<text text-anchor="start" x="246" y="-78.8" font-family="monospace" font-size="14.00" fill="#000000">loid</text>
<polygon fill="#ffffff" stroke="none" points="316,-70 316,-95 399,-95 399,-70 316,-70"/>
<polygon fill="none" stroke="#2c3e50" points="316,-70 316,-95 399,-95 399,-70 316,-70"/>
<text text-anchor="start" x="321" y="-79.8" font-family="monospace" font-style="italic" font-size="14.00" fill="#95a5a6">oid</text>
<polygon fill="#ffffff" stroke="none" points="241,-45 241,-70 316,-70 316,-45 241,-45"/>
<polygon fill="none" stroke="#2c3e50" points="241,-45 241,-70 316,-70 316,-45 241,-45"/>
<text text-anchor="start" x="246" y="-53.8" font-family="monospace" font-size="14.00" fill="#000000">pageno</text>
<polygon fill="#ffffff" stroke="none" points="316,-45 316,-70 399,-70 399,-45 316,-45"/>
<polygon fill="none" stroke="#2c3e50" points="316,-45 316,-70 399,-70 399,-45 316,-45"/>
<text text-anchor="start" x="321" y="-54.8" font-family="monospace" font-style="italic" font-size="14.00" fill="#95a5a6">integer</text>
<polygon fill="#ffffff" stroke="none" points="241,-20 241,-45 316,-45 316,-20 241,-20"/>
<polygon fill="none" stroke="#2c3e50" points="241,-20 241,-45 316,-45 316,-20 241,-20"/>
<text text-anchor="start" x="246" y="-28.8" font-family="monospace" font-size="14.00" fill="#000000">data</text>
<polygon fill="#ffffff" stroke="none" points="316,-20 316,-45 399,-45 399,-20 316,-20"/>
<polygon fill="none" stroke="#2c3e50" points="316,-20 316,-45 399,-45 399,-20 316,-20"/>
<text text-anchor="start" x="321" y="-29.8" font-family="monospace" font-style="italic" font-size="14.00" fill="#95a5a6">bytea</text>
</a>
</g>
</g>
</g>
</svg>
