<?xml version="1.0" encoding="UTF-8" standalone="no"?>
<!DOCTYPE svg PUBLIC "-//W3C//DTD SVG 1.1//EN"
 "http://www.w3.org/Graphics/SVG/1.1/DTD/svg11.dtd">
<!-- Generated by graphviz version 2.38.0 (20140413.2041)
 -->
<!-- Title: GPDB Pages: 1 -->
<svg width="1324pt" height="880pt"
 viewBox="0.00 0.00 1324.00 880.00" xmlns="http://www.w3.org/2000/svg" xmlns:xlink="http://www.w3.org/1999/xlink">
<g id="graph0" class="graph" transform="scale(1 1) rotate(0) translate(36 844)">
<title>GPDB</title>
<polygon fill="white" stroke="none" points="-36,36 -36,-844 1288,-844 1288,36 -36,36"/>
<text text-anchor="middle" x="626" y="-778.4" font-family="Helvetica,sans-Serif" font-size="32.00">Greenplum System Catalog: pg_language</text>
<g id="clust1" class="cluster"><title>cluster_from</title>
</g>
<g id="clust2" class="cluster"><title>cluster_selected</title>
</g>
<!-- pg_proc -->
<g id="node1" class="node"><title>pg_proc</title>
<polygon fill="#2c3e50" stroke="none" points="822,-570 822,-600 1066,-600 1066,-570 822,-570"/>
<polygon fill="none" stroke="black" points="822,-570 822,-600 1066,-600 1066,-570 822,-570"/>
<text text-anchor="start" x="907" y="-581.6" font-family="monospace" font-weight="bold" font-size="18.00" fill="#ffffff">pg_proc</text>
<polygon fill="#ffffff" stroke="none" points="822,-545 822,-570 948,-570 948,-545 822,-545"/>
<polygon fill="none" stroke="#2c3e50" points="822,-545 822,-570 948,-570 948,-545 822,-545"/>
<text text-anchor="start" x="827" y="-553.8" font-family="monospace" font-size="14.00" fill="#000000">oid</text>
<polygon fill="#18bc9c" stroke="none" points="948,-545 948,-570 1066,-570 1066,-545 948,-545"/>
<polygon fill="none" stroke="#2c3e50" points="948,-545 948,-570 1066,-570 1066,-545 948,-545"/>
<text text-anchor="start" x="953" y="-554.8" font-family="monospace" font-style="italic" font-size="14.00" fill="#ffffff">oid</text>
<polygon fill="#ffffff" stroke="none" points="822,-520 822,-545 948,-545 948,-520 822,-520"/>
<polygon fill="none" stroke="#2c3e50" points="822,-520 822,-545 948,-545 948,-520 822,-520"/>
<text text-anchor="start" x="827" y="-528.8" font-family="monospace" font-size="14.00" fill="#000000">proname</text>
<polygon fill="#ffffff" stroke="none" points="948,-520 948,-545 1066,-545 1066,-520 948,-520"/>
<polygon fill="none" stroke="#2c3e50" points="948,-520 948,-545 1066,-545 1066,-520 948,-520"/>
<text text-anchor="start" x="953" y="-529.8" font-family="monospace" font-style="italic" font-size="14.00" fill="#95a5a6">name</text>
<polygon fill="#ffffff" stroke="none" points="822,-495 822,-520 948,-520 948,-495 822,-495"/>
<polygon fill="none" stroke="#2c3e50" points="822,-495 822,-520 948,-520 948,-495 822,-495"/>
<text text-anchor="start" x="827" y="-503.8" font-family="monospace" font-size="14.00" fill="#000000">pronamespace</text>
<polygon fill="#ffffff" stroke="none" points="948,-495 948,-520 1066,-520 1066,-495 948,-495"/>
<polygon fill="none" stroke="#2c3e50" points="948,-495 948,-520 1066,-520 1066,-495 948,-495"/>
<text text-anchor="start" x="953" y="-504.8" font-family="monospace" font-style="italic" font-size="14.00" fill="#95a5a6">oid</text>
<polygon fill="#ffffff" stroke="none" points="822,-470 822,-495 948,-495 948,-470 822,-470"/>
<polygon fill="none" stroke="#2c3e50" points="822,-470 822,-495 948,-495 948,-470 822,-470"/>
<text text-anchor="start" x="827" y="-478.8" font-family="monospace" font-size="14.00" fill="#000000">proowner</text>
<polygon fill="#ffffff" stroke="none" points="948,-470 948,-495 1066,-495 1066,-470 948,-470"/>
<polygon fill="none" stroke="#2c3e50" points="948,-470 948,-495 1066,-495 1066,-470 948,-470"/>
<text text-anchor="start" x="953" y="-479.8" font-family="monospace" font-style="italic" font-size="14.00" fill="#95a5a6">oid</text>
<polygon fill="#ffffff" stroke="none" points="822,-445 822,-470 948,-470 948,-445 822,-445"/>
<polygon fill="none" stroke="#2c3e50" points="822,-445 822,-470 948,-470 948,-445 822,-445"/>
<text text-anchor="start" x="827" y="-453.8" font-family="monospace" font-size="14.00" fill="#000000">prolang</text>
<polygon fill="#18bc9c" stroke="none" points="948,-445 948,-470 1066,-470 1066,-445 948,-445"/>
<polygon fill="none" stroke="#2c3e50" points="948,-445 948,-470 1066,-470 1066,-445 948,-445"/>
<text text-anchor="start" x="953" y="-454.8" font-family="monospace" font-style="italic" font-size="14.00" fill="#ffffff">oid</text>
<polygon fill="#ffffff" stroke="none" points="822,-420 822,-445 948,-445 948,-420 822,-420"/>
<polygon fill="none" stroke="#2c3e50" points="822,-420 822,-445 948,-445 948,-420 822,-420"/>
<text text-anchor="start" x="827" y="-428.8" font-family="monospace" font-size="14.00" fill="#000000">proisagg</text>
<polygon fill="#ffffff" stroke="none" points="948,-420 948,-445 1066,-445 1066,-420 948,-420"/>
<polygon fill="none" stroke="#2c3e50" points="948,-420 948,-445 1066,-445 1066,-420 948,-420"/>
<text text-anchor="start" x="953" y="-429.8" font-family="monospace" font-style="italic" font-size="14.00" fill="#95a5a6">boolean</text>
<polygon fill="#ffffff" stroke="none" points="822,-395 822,-420 948,-420 948,-395 822,-395"/>
<polygon fill="none" stroke="#2c3e50" points="822,-395 822,-420 948,-420 948,-395 822,-395"/>
<text text-anchor="start" x="827" y="-403.8" font-family="monospace" font-size="14.00" fill="#000000">prosecdef</text>
<polygon fill="#ffffff" stroke="none" points="948,-395 948,-420 1066,-420 1066,-395 948,-395"/>
<polygon fill="none" stroke="#2c3e50" points="948,-395 948,-420 1066,-420 1066,-395 948,-395"/>
<text text-anchor="start" x="953" y="-404.8" font-family="monospace" font-style="italic" font-size="14.00" fill="#95a5a6">boolean</text>
<polygon fill="#ffffff" stroke="none" points="822,-370 822,-395 948,-395 948,-370 822,-370"/>
<polygon fill="none" stroke="#2c3e50" points="822,-370 822,-395 948,-395 948,-370 822,-370"/>
<text text-anchor="start" x="827" y="-378.8" font-family="monospace" font-size="14.00" fill="#000000">proisstrict</text>
<polygon fill="#ffffff" stroke="none" points="948,-370 948,-395 1066,-395 1066,-370 948,-370"/>
<polygon fill="none" stroke="#2c3e50" points="948,-370 948,-395 1066,-395 1066,-370 948,-370"/>
<text text-anchor="start" x="953" y="-379.8" font-family="monospace" font-style="italic" font-size="14.00" fill="#95a5a6">boolean</text>
<polygon fill="#ffffff" stroke="none" points="822,-345 822,-370 948,-370 948,-345 822,-345"/>
<polygon fill="none" stroke="#2c3e50" points="822,-345 822,-370 948,-370 948,-345 822,-345"/>
<text text-anchor="start" x="827" y="-353.8" font-family="monospace" font-size="14.00" fill="#000000">proretset</text>
<polygon fill="#ffffff" stroke="none" points="948,-345 948,-370 1066,-370 1066,-345 948,-345"/>
<polygon fill="none" stroke="#2c3e50" points="948,-345 948,-370 1066,-370 1066,-345 948,-345"/>
<text text-anchor="start" x="953" y="-354.8" font-family="monospace" font-style="italic" font-size="14.00" fill="#95a5a6">boolean</text>
<polygon fill="#ffffff" stroke="none" points="822,-320 822,-345 948,-345 948,-320 822,-320"/>
<polygon fill="none" stroke="#2c3e50" points="822,-320 822,-345 948,-345 948,-320 822,-320"/>
<text text-anchor="start" x="827" y="-328.8" font-family="monospace" font-size="14.00" fill="#000000">provolatile</text>
<polygon fill="#ffffff" stroke="none" points="948,-320 948,-345 1066,-345 1066,-320 948,-320"/>
<polygon fill="none" stroke="#2c3e50" points="948,-320 948,-345 1066,-345 1066,-320 948,-320"/>
<text text-anchor="start" x="953" y="-329.8" font-family="monospace" font-style="italic" font-size="14.00" fill="#95a5a6">quoted_char</text>
<polygon fill="#ffffff" stroke="none" points="822,-295 822,-320 948,-320 948,-295 822,-295"/>
<polygon fill="none" stroke="#2c3e50" points="822,-295 822,-320 948,-320 948,-295 822,-295"/>
<text text-anchor="start" x="827" y="-303.8" font-family="monospace" font-size="14.00" fill="#000000">pronargs</text>
<polygon fill="#ffffff" stroke="none" points="948,-295 948,-320 1066,-320 1066,-295 948,-295"/>
<polygon fill="none" stroke="#2c3e50" points="948,-295 948,-320 1066,-320 1066,-295 948,-295"/>
<text text-anchor="start" x="953" y="-304.8" font-family="monospace" font-style="italic" font-size="14.00" fill="#95a5a6">smallint</text>
<polygon fill="#ffffff" stroke="none" points="822,-270 822,-295 948,-295 948,-270 822,-270"/>
<polygon fill="none" stroke="#2c3e50" points="822,-270 822,-295 948,-295 948,-270 822,-270"/>
<text text-anchor="start" x="827" y="-278.8" font-family="monospace" font-size="14.00" fill="#000000">prorettype</text>
<polygon fill="#ffffff" stroke="none" points="948,-270 948,-295 1066,-295 1066,-270 948,-270"/>
<polygon fill="none" stroke="#2c3e50" points="948,-270 948,-295 1066,-295 1066,-270 948,-270"/>
<text text-anchor="start" x="953" y="-279.8" font-family="monospace" font-style="italic" font-size="14.00" fill="#95a5a6">oid</text>
<polygon fill="#ffffff" stroke="none" points="822,-245 822,-270 948,-270 948,-245 822,-245"/>
<polygon fill="none" stroke="#2c3e50" points="822,-245 822,-270 948,-270 948,-245 822,-245"/>
<text text-anchor="start" x="827" y="-253.8" font-family="monospace" font-size="14.00" fill="#000000">proiswin</text>
<polygon fill="#ffffff" stroke="none" points="948,-245 948,-270 1066,-270 1066,-245 948,-245"/>
<polygon fill="none" stroke="#2c3e50" points="948,-245 948,-270 1066,-270 1066,-245 948,-245"/>
<text text-anchor="start" x="953" y="-254.8" font-family="monospace" font-style="italic" font-size="14.00" fill="#95a5a6">boolean</text>
<polygon fill="#ffffff" stroke="none" points="822,-220 822,-245 948,-245 948,-220 822,-220"/>
<polygon fill="none" stroke="#2c3e50" points="822,-220 822,-245 948,-245 948,-220 822,-220"/>
<text text-anchor="start" x="827" y="-228.8" font-family="monospace" font-size="14.00" fill="#000000">proargtypes</text>
<polygon fill="#ffffff" stroke="none" points="948,-220 948,-245 1066,-245 1066,-220 948,-220"/>
<polygon fill="none" stroke="#2c3e50" points="948,-220 948,-245 1066,-245 1066,-220 948,-220"/>
<text text-anchor="start" x="953" y="-229.8" font-family="monospace" font-style="italic" font-size="14.00" fill="#95a5a6">oidvector</text>
<polygon fill="#ffffff" stroke="none" points="822,-195 822,-220 948,-220 948,-195 822,-195"/>
<polygon fill="none" stroke="#2c3e50" points="822,-195 822,-220 948,-220 948,-195 822,-195"/>
<text text-anchor="start" x="827" y="-203.8" font-family="monospace" font-size="14.00" fill="#000000">proallargtypes</text>
<polygon fill="#ffffff" stroke="none" points="948,-195 948,-220 1066,-220 1066,-195 948,-195"/>
<polygon fill="none" stroke="#2c3e50" points="948,-195 948,-220 1066,-220 1066,-195 948,-195"/>
<text text-anchor="start" x="953" y="-204.8" font-family="monospace" font-style="italic" font-size="14.00" fill="#95a5a6">oid[]</text>
<polygon fill="#ffffff" stroke="none" points="822,-170 822,-195 948,-195 948,-170 822,-170"/>
<polygon fill="none" stroke="#2c3e50" points="822,-170 822,-195 948,-195 948,-170 822,-170"/>
<text text-anchor="start" x="827" y="-178.8" font-family="monospace" font-size="14.00" fill="#000000">proargmodes</text>
<polygon fill="#ffffff" stroke="none" points="948,-170 948,-195 1066,-195 1066,-170 948,-170"/>
<polygon fill="none" stroke="#2c3e50" points="948,-170 948,-195 1066,-195 1066,-170 948,-170"/>
<text text-anchor="start" x="953" y="-179.8" font-family="monospace" font-style="italic" font-size="14.00" fill="#95a5a6">quoted_char[]</text>
<polygon fill="#ffffff" stroke="none" points="822,-145 822,-170 948,-170 948,-145 822,-145"/>
<polygon fill="none" stroke="#2c3e50" points="822,-145 822,-170 948,-170 948,-145 822,-145"/>
<text text-anchor="start" x="827" y="-153.8" font-family="monospace" font-size="14.00" fill="#000000">proargnames</text>
<polygon fill="#ffffff" stroke="none" points="948,-145 948,-170 1066,-170 1066,-145 948,-145"/>
<polygon fill="none" stroke="#2c3e50" points="948,-145 948,-170 1066,-170 1066,-145 948,-145"/>
<text text-anchor="start" x="953" y="-154.8" font-family="monospace" font-style="italic" font-size="14.00" fill="#95a5a6">text[]</text>
<polygon fill="#ffffff" stroke="none" points="822,-120 822,-145 948,-145 948,-120 822,-120"/>
<polygon fill="none" stroke="#2c3e50" points="822,-120 822,-145 948,-145 948,-120 822,-120"/>
<text text-anchor="start" x="827" y="-128.8" font-family="monospace" font-size="14.00" fill="#000000">prosrc</text>
<polygon fill="#ffffff" stroke="none" points="948,-120 948,-145 1066,-145 1066,-120 948,-120"/>
<polygon fill="none" stroke="#2c3e50" points="948,-120 948,-145 1066,-145 1066,-120 948,-120"/>
<text text-anchor="start" x="953" y="-129.8" font-family="monospace" font-style="italic" font-size="14.00" fill="#95a5a6">text</text>
<polygon fill="#ffffff" stroke="none" points="822,-95 822,-120 948,-120 948,-95 822,-95"/>
<polygon fill="none" stroke="#2c3e50" points="822,-95 822,-120 948,-120 948,-95 822,-95"/>
<text text-anchor="start" x="827" y="-103.8" font-family="monospace" font-size="14.00" fill="#000000">probin</text>
<polygon fill="#ffffff" stroke="none" points="948,-95 948,-120 1066,-120 1066,-95 948,-95"/>
<polygon fill="none" stroke="#2c3e50" points="948,-95 948,-120 1066,-120 1066,-95 948,-95"/>
<text text-anchor="start" x="953" y="-104.8" font-family="monospace" font-style="italic" font-size="14.00" fill="#95a5a6">bytea</text>
<polygon fill="#ffffff" stroke="none" points="822,-70 822,-95 948,-95 948,-70 822,-70"/>
<polygon fill="none" stroke="#2c3e50" points="822,-70 822,-95 948,-95 948,-70 822,-70"/>
<text text-anchor="start" x="827" y="-78.8" font-family="monospace" font-size="14.00" fill="#000000">proacl</text>
<polygon fill="#ffffff" stroke="none" points="948,-70 948,-95 1066,-95 1066,-70 948,-70"/>
<polygon fill="none" stroke="#2c3e50" points="948,-70 948,-95 1066,-95 1066,-70 948,-70"/>
<text text-anchor="start" x="953" y="-79.8" font-family="monospace" font-style="italic" font-size="14.00" fill="#95a5a6">aclitem[]</text>
<polygon fill="#ffffff" stroke="none" points="822,-45 822,-70 948,-70 948,-45 822,-45"/>
<polygon fill="none" stroke="#2c3e50" points="822,-45 822,-70 948,-70 948,-45 822,-45"/>
<text text-anchor="start" x="827" y="-53.8" font-family="monospace" font-size="14.00" fill="#000000">prodataaccess</text>
<polygon fill="#ffffff" stroke="none" points="948,-45 948,-70 1066,-70 1066,-45 948,-45"/>
<polygon fill="none" stroke="#2c3e50" points="948,-45 948,-70 1066,-70 1066,-45 948,-45"/>
<text text-anchor="start" x="953" y="-54.8" font-family="monospace" font-style="italic" font-size="14.00" fill="#95a5a6">quoted_char</text>
<polygon fill="#ffffff" stroke="none" points="822,-20 822,-45 948,-45 948,-20 822,-20"/>
<polygon fill="none" stroke="#2c3e50" points="822,-20 822,-45 948,-45 948,-20 822,-20"/>
<text text-anchor="start" x="827" y="-28.8" font-family="monospace" font-size="14.00" fill="#000000">provariadic</text>
<polygon fill="#ffffff" stroke="none" points="948,-20 948,-45 1066,-45 1066,-20 948,-20"/>
<polygon fill="none" stroke="#2c3e50" points="948,-20 948,-45 1066,-45 1066,-20 948,-20"/>
<text text-anchor="start" x="953" y="-29.8" font-family="monospace" font-style="italic" font-size="14.00" fill="#95a5a6">oid</text>
</g>
<!-- pg_language -->
<g id="node2" class="node"><title>pg_language</title>
<polygon fill="#2c3e50" stroke="none" points="206.5,-671 206.5,-701 409.5,-701 409.5,-671 206.5,-671"/>
<polygon fill="none" stroke="black" points="206.5,-671 206.5,-701 409.5,-701 409.5,-671 206.5,-671"/>
<text text-anchor="start" x="250" y="-682.6" font-family="monospace" font-weight="bold" font-size="18.00" fill="#ffffff">pg_language</text>
<polygon fill="#18bc9c" stroke="none" points="206.5,-646 206.5,-671 324.5,-671 324.5,-646 206.5,-646"/>
<polygon fill="none" stroke="#2c3e50" points="206.5,-646 206.5,-671 324.5,-671 324.5,-646 206.5,-646"/>
<text text-anchor="start" x="211.5" y="-654.8" font-family="monospace" font-size="14.00" fill="#ffffff">oid</text>
<polygon fill="#ffffff" stroke="none" points="324.5,-646 324.5,-671 409.5,-671 409.5,-646 324.5,-646"/>
<polygon fill="none" stroke="#2c3e50" points="324.5,-646 324.5,-671 409.5,-671 409.5,-646 324.5,-646"/>
<text text-anchor="start" x="329.5" y="-655.8" font-family="monospace" font-style="italic" font-size="14.00" fill="#95a5a6">oid</text>
<polygon fill="#ffffff" stroke="none" points="206.5,-621 206.5,-646 324.5,-646 324.5,-621 206.5,-621"/>
<polygon fill="none" stroke="#2c3e50" points="206.5,-621 206.5,-646 324.5,-646 324.5,-621 206.5,-621"/>
<text text-anchor="start" x="211.5" y="-629.8" font-family="monospace" font-size="14.00" fill="#000000">lanname</text>
<polygon fill="#ffffff" stroke="none" points="324.5,-621 324.5,-646 409.5,-646 409.5,-621 324.5,-621"/>
<polygon fill="none" stroke="#2c3e50" points="324.5,-621 324.5,-646 409.5,-646 409.5,-621 324.5,-621"/>
<text text-anchor="start" x="329.5" y="-630.8" font-family="monospace" font-style="italic" font-size="14.00" fill="#95a5a6">name</text>
<polygon fill="#ffffff" stroke="none" points="206.5,-596 206.5,-621 324.5,-621 324.5,-596 206.5,-596"/>
<polygon fill="none" stroke="#2c3e50" points="206.5,-596 206.5,-621 324.5,-621 324.5,-596 206.5,-596"/>
<text text-anchor="start" x="211.5" y="-604.8" font-family="monospace" font-size="14.00" fill="#000000">lanispl</text>
<polygon fill="#ffffff" stroke="none" points="324.5,-596 324.5,-621 409.5,-621 409.5,-596 324.5,-596"/>
<polygon fill="none" stroke="#2c3e50" points="324.5,-596 324.5,-621 409.5,-621 409.5,-596 324.5,-596"/>
<text text-anchor="start" x="329.5" y="-605.8" font-family="monospace" font-style="italic" font-size="14.00" fill="#95a5a6">boolean</text>
<polygon fill="#ffffff" stroke="none" points="206.5,-571 206.5,-596 324.5,-596 324.5,-571 206.5,-571"/>
<polygon fill="none" stroke="#2c3e50" points="206.5,-571 206.5,-596 324.5,-596 324.5,-571 206.5,-571"/>
<text text-anchor="start" x="211.5" y="-579.8" font-family="monospace" font-size="14.00" fill="#000000">lanpltrusted</text>
<polygon fill="#ffffff" stroke="none" points="324.5,-571 324.5,-596 409.5,-596 409.5,-571 324.5,-571"/>
<polygon fill="none" stroke="#2c3e50" points="324.5,-571 324.5,-596 409.5,-596 409.5,-571 324.5,-571"/>
<text text-anchor="start" x="329.5" y="-580.8" font-family="monospace" font-style="italic" font-size="14.00" fill="#95a5a6">boolean</text>
<polygon fill="#18bc9c" stroke="none" points="206.5,-546 206.5,-571 324.5,-571 324.5,-546 206.5,-546"/>
<polygon fill="none" stroke="#2c3e50" points="206.5,-546 206.5,-571 324.5,-571 324.5,-546 206.5,-546"/>
<text text-anchor="start" x="211.5" y="-554.8" font-family="monospace" font-size="14.00" fill="#ffffff">lanplcallfoid</text>
<polygon fill="#ffffff" stroke="none" points="324.5,-546 324.5,-571 409.5,-571 409.5,-546 324.5,-546"/>
<polygon fill="none" stroke="#2c3e50" points="324.5,-546 324.5,-571 409.5,-571 409.5,-546 324.5,-546"/>
<text text-anchor="start" x="329.5" y="-555.8" font-family="monospace" font-style="italic" font-size="14.00" fill="#95a5a6">oid</text>
<polygon fill="#18bc9c" stroke="none" points="206.5,-521 206.5,-546 324.5,-546 324.5,-521 206.5,-521"/>
<polygon fill="none" stroke="#2c3e50" points="206.5,-521 206.5,-546 324.5,-546 324.5,-521 206.5,-521"/>
<text text-anchor="start" x="211.5" y="-529.8" font-family="monospace" font-size="14.00" fill="#ffffff">lanvalidator</text>
<polygon fill="#ffffff" stroke="none" points="324.5,-521 324.5,-546 409.5,-546 409.5,-521 324.5,-521"/>
<polygon fill="none" stroke="#2c3e50" points="324.5,-521 324.5,-546 409.5,-546 409.5,-521 324.5,-521"/>
<text text-anchor="start" x="329.5" y="-530.8" font-family="monospace" font-style="italic" font-size="14.00" fill="#95a5a6">oid</text>
<polygon fill="#ffffff" stroke="none" points="206.5,-496 206.5,-521 324.5,-521 324.5,-496 206.5,-496"/>
<polygon fill="none" stroke="#2c3e50" points="206.5,-496 206.5,-521 324.5,-521 324.5,-496 206.5,-496"/>
<text text-anchor="start" x="211.5" y="-504.8" font-family="monospace" font-size="14.00" fill="#000000">lanacl</text>
<polygon fill="#ffffff" stroke="none" points="324.5,-496 324.5,-521 409.5,-521 409.5,-496 324.5,-496"/>
<polygon fill="none" stroke="#2c3e50" points="324.5,-496 324.5,-521 409.5,-521 409.5,-496 324.5,-496"/>
<text text-anchor="start" x="329.5" y="-505.8" font-family="monospace" font-style="italic" font-size="14.00" fill="#95a5a6">aclitem[]</text>
</g>
<!-- pg_proc&#45;&gt;pg_language -->
<g id="edge3" class="edge"><title>pg_proc:prolang_out&#45;&gt;pg_language:oid_in</title>
<path fill="none" stroke="#2c3e50" d="M1067,-458C1099.45,-458 1087.18,-579.421 1066,-604 875.419,-825.165 708.073,-682.876 417,-705.5 323.726,-712.75 273.361,-770.939 206.5,-705.5 194.728,-693.978 187.956,-671.291 196.151,-662.55"/>
<polygon fill="#2c3e50" stroke="#2c3e50" points="197.394,-665.822 205.5,-659 194.909,-659.278 197.394,-665.822"/>
</g>
<!-- pg_language&#45;&gt;pg_proc -->
<g id="edge1" class="edge"><title>pg_language:lanplcallfoid_in&#45;&gt;pg_proc:oid_out</title>
<path fill="none" stroke="#3498db" d="M205.5,-558C176.385,-558 185.756,-512.929 206.5,-492.5 273.157,-426.853 324.32,-479.732 417,-492.5 598.557,-517.512 632.443,-578.988 814,-604 924.952,-619.285 985.948,-682.331 1066,-604 1077.53,-592.715 1084.22,-570.599 1076.48,-561.77"/>
<polygon fill="#3498db" stroke="#3498db" points="1077.59,-558.443 1067,-558 1075,-564.947 1077.59,-558.443"/>
</g>
<!-- pg_language&#45;&gt;pg_proc -->
<g id="edge2" class="edge"><title>pg_language:lanvalidator_in&#45;&gt;pg_proc:oid_out</title>
<path fill="none" stroke="#3498db" d="M205.5,-533C187.495,-533 193.612,-505.074 206.5,-492.5 273.465,-427.168 324.32,-479.732 417,-492.5 598.557,-517.512 632.443,-578.988 814,-604 924.952,-619.285 985.948,-682.331 1066,-604 1077.53,-592.715 1084.22,-570.599 1076.48,-561.77"/>
<polygon fill="#3498db" stroke="#3498db" points="1077.59,-558.443 1067,-558 1075,-564.947 1077.59,-558.443"/>
</g>
</g>
</svg>
