<?xml version="1.0" encoding="UTF-8" standalone="no"?>
<!DOCTYPE svg PUBLIC "-//W3C//DTD SVG 1.1//EN"
 "http://www.w3.org/Graphics/SVG/1.1/DTD/svg11.dtd">
<!-- Generated by graphviz version 2.38.0 (20140413.2041)
 -->
<!-- Title: GPDB Pages: 1 -->
<svg width="1885pt" height="852pt"
 viewBox="0.00 0.00 1885.00 852.00" xmlns="http://www.w3.org/2000/svg" xmlns:xlink="http://www.w3.org/1999/xlink">
<g id="graph0" class="graph" transform="scale(1 1) rotate(0) translate(36 816)">
<title>GPDB</title>
<polygon fill="white" stroke="none" points="-36,36 -36,-816 1849,-816 1849,36 -36,36"/>
<text text-anchor="middle" x="906.5" y="-750.4" font-family="Helvetica,sans-Serif" font-size="32.00">Greenplum System Catalog: pg_opclass</text>
<g id="clust1" class="cluster"><title>cluster_from</title>
</g>
<g id="clust2" class="cluster"><title>cluster_selected</title>
</g>
<g id="clust3" class="cluster"><title>cluster_to</title>
</g>
<!-- pg_amop -->
<g id="node1" class="node"><title>pg_amop</title>
<g id="a_node1"><a xlink:href="pg_amop.svg" xlink:title="&lt;TABLE&gt;">
<polygon fill="#2c3e50" stroke="none" points="202.5,-625 202.5,-655 389.5,-655 389.5,-625 202.5,-625"/>
<polygon fill="none" stroke="black" points="202.5,-625 202.5,-655 389.5,-655 389.5,-625 202.5,-625"/>
<text text-anchor="start" x="259" y="-636.6" font-family="monospace" font-weight="bold" font-size="18.00" fill="#ffffff">pg_amop</text>
<polygon fill="#ffffff" stroke="none" points="202.5,-600 202.5,-625 312.5,-625 312.5,-600 202.5,-600"/>
<polygon fill="none" stroke="#2c3e50" points="202.5,-600 202.5,-625 312.5,-625 312.5,-600 202.5,-600"/>
<text text-anchor="start" x="207.5" y="-608.8" font-family="monospace" font-size="14.00" fill="#000000">amopclaid</text>
<polygon fill="#18bc9c" stroke="none" points="312.5,-600 312.5,-625 389.5,-625 389.5,-600 312.5,-600"/>
<polygon fill="none" stroke="#2c3e50" points="312.5,-600 312.5,-625 389.5,-625 389.5,-600 312.5,-600"/>
<text text-anchor="start" x="317.5" y="-609.8" font-family="monospace" font-style="italic" font-size="14.00" fill="#ffffff">oid</text>
<polygon fill="#ffffff" stroke="none" points="202.5,-575 202.5,-600 312.5,-600 312.5,-575 202.5,-575"/>
<polygon fill="none" stroke="#2c3e50" points="202.5,-575 202.5,-600 312.5,-600 312.5,-575 202.5,-575"/>
<text text-anchor="start" x="207.5" y="-583.8" font-family="monospace" font-size="14.00" fill="#000000">amopsubtype</text>
<polygon fill="#ffffff" stroke="none" points="312.5,-575 312.5,-600 389.5,-600 389.5,-575 312.5,-575"/>
<polygon fill="none" stroke="#2c3e50" points="312.5,-575 312.5,-600 389.5,-600 389.5,-575 312.5,-575"/>
<text text-anchor="start" x="317.5" y="-584.8" font-family="monospace" font-style="italic" font-size="14.00" fill="#95a5a6">oid</text>
<polygon fill="#ffffff" stroke="none" points="202.5,-550 202.5,-575 312.5,-575 312.5,-550 202.5,-550"/>
<polygon fill="none" stroke="#2c3e50" points="202.5,-550 202.5,-575 312.5,-575 312.5,-550 202.5,-550"/>
<text text-anchor="start" x="207.5" y="-558.8" font-family="monospace" font-size="14.00" fill="#000000">amopstrategy</text>
<polygon fill="#ffffff" stroke="none" points="312.5,-550 312.5,-575 389.5,-575 389.5,-550 312.5,-550"/>
<polygon fill="none" stroke="#2c3e50" points="312.5,-550 312.5,-575 389.5,-575 389.5,-550 312.5,-550"/>
<text text-anchor="start" x="317.5" y="-559.8" font-family="monospace" font-style="italic" font-size="14.00" fill="#95a5a6">smallint</text>
<polygon fill="#ffffff" stroke="none" points="202.5,-525 202.5,-550 312.5,-550 312.5,-525 202.5,-525"/>
<polygon fill="none" stroke="#2c3e50" points="202.5,-525 202.5,-550 312.5,-550 312.5,-525 202.5,-525"/>
<text text-anchor="start" x="207.5" y="-533.8" font-family="monospace" font-size="14.00" fill="#000000">amopreqcheck</text>
<polygon fill="#ffffff" stroke="none" points="312.5,-525 312.5,-550 389.5,-550 389.5,-525 312.5,-525"/>
<polygon fill="none" stroke="#2c3e50" points="312.5,-525 312.5,-550 389.5,-550 389.5,-525 312.5,-525"/>
<text text-anchor="start" x="317.5" y="-534.8" font-family="monospace" font-style="italic" font-size="14.00" fill="#95a5a6">boolean</text>
<polygon fill="#ffffff" stroke="none" points="202.5,-500 202.5,-525 312.5,-525 312.5,-500 202.5,-500"/>
<polygon fill="none" stroke="#2c3e50" points="202.5,-500 202.5,-525 312.5,-525 312.5,-500 202.5,-500"/>
<text text-anchor="start" x="207.5" y="-508.8" font-family="monospace" font-size="14.00" fill="#000000">amopopr</text>
<polygon fill="#ffffff" stroke="none" points="312.5,-500 312.5,-525 389.5,-525 389.5,-500 312.5,-500"/>
<polygon fill="none" stroke="#2c3e50" points="312.5,-500 312.5,-525 389.5,-525 389.5,-500 312.5,-500"/>
<text text-anchor="start" x="317.5" y="-509.8" font-family="monospace" font-style="italic" font-size="14.00" fill="#95a5a6">oid</text>
</a>
</g>
</g>
<!-- pg_opclass -->
<g id="node3" class="node"><title>pg_opclass</title>
<g id="a_node3"><a xlink:href="pg_opclass.svg" xlink:title="&lt;TABLE&gt;">
<polygon fill="#2c3e50" stroke="none" points="817,-589 817,-619 995,-619 995,-589 817,-589"/>
<polygon fill="none" stroke="black" points="817,-589 817,-619 995,-619 995,-589 817,-589"/>
<text text-anchor="start" x="853" y="-600.6" font-family="monospace" font-weight="bold" font-size="18.00" fill="#ffffff">pg_opclass</text>
<polygon fill="#18bc9c" stroke="none" points="817,-564 817,-589 927,-589 927,-564 817,-564"/>
<polygon fill="none" stroke="#2c3e50" points="817,-564 817,-589 927,-589 927,-564 817,-564"/>
<text text-anchor="start" x="822" y="-572.8" font-family="monospace" font-size="14.00" fill="#ffffff">oid</text>
<polygon fill="#ffffff" stroke="none" points="927,-564 927,-589 995,-589 995,-564 927,-564"/>
<polygon fill="none" stroke="#2c3e50" points="927,-564 927,-589 995,-589 995,-564 927,-564"/>
<text text-anchor="start" x="932" y="-573.8" font-family="monospace" font-style="italic" font-size="14.00" fill="#95a5a6">oid</text>
<polygon fill="#ffffff" stroke="none" points="817,-539 817,-564 927,-564 927,-539 817,-539"/>
<polygon fill="none" stroke="#2c3e50" points="817,-539 817,-564 927,-564 927,-539 817,-539"/>
<text text-anchor="start" x="822" y="-547.8" font-family="monospace" font-size="14.00" fill="#000000">opcamid</text>
<polygon fill="#ffffff" stroke="none" points="927,-539 927,-564 995,-564 995,-539 927,-539"/>
<polygon fill="none" stroke="#2c3e50" points="927,-539 927,-564 995,-564 995,-539 927,-539"/>
<text text-anchor="start" x="932" y="-548.8" font-family="monospace" font-style="italic" font-size="14.00" fill="#95a5a6">oid</text>
<polygon fill="#ffffff" stroke="none" points="817,-514 817,-539 927,-539 927,-514 817,-514"/>
<polygon fill="none" stroke="#2c3e50" points="817,-514 817,-539 927,-539 927,-514 817,-514"/>
<text text-anchor="start" x="822" y="-522.8" font-family="monospace" font-size="14.00" fill="#000000">opcname</text>
<polygon fill="#ffffff" stroke="none" points="927,-514 927,-539 995,-539 995,-514 927,-514"/>
<polygon fill="none" stroke="#2c3e50" points="927,-514 927,-539 995,-539 995,-514 927,-514"/>
<text text-anchor="start" x="932" y="-523.8" font-family="monospace" font-style="italic" font-size="14.00" fill="#95a5a6">name</text>
<polygon fill="#ffffff" stroke="none" points="817,-489 817,-514 927,-514 927,-489 817,-489"/>
<polygon fill="none" stroke="#2c3e50" points="817,-489 817,-514 927,-514 927,-489 817,-489"/>
<text text-anchor="start" x="822" y="-497.8" font-family="monospace" font-size="14.00" fill="#000000">opcnamespace</text>
<polygon fill="#18bc9c" stroke="none" points="927,-489 927,-514 995,-514 995,-489 927,-489"/>
<polygon fill="none" stroke="#2c3e50" points="927,-489 927,-514 995,-514 995,-489 927,-489"/>
<text text-anchor="start" x="932" y="-498.8" font-family="monospace" font-style="italic" font-size="14.00" fill="#ffffff">oid</text>
<polygon fill="#ffffff" stroke="none" points="817,-464 817,-489 927,-489 927,-464 817,-464"/>
<polygon fill="none" stroke="#2c3e50" points="817,-464 817,-489 927,-489 927,-464 817,-464"/>
<text text-anchor="start" x="822" y="-472.8" font-family="monospace" font-size="14.00" fill="#000000">opcowner</text>
<polygon fill="#18bc9c" stroke="none" points="927,-464 927,-489 995,-489 995,-464 927,-464"/>
<polygon fill="none" stroke="#2c3e50" points="927,-464 927,-489 995,-489 995,-464 927,-464"/>
<text text-anchor="start" x="932" y="-473.8" font-family="monospace" font-style="italic" font-size="14.00" fill="#ffffff">oid</text>
<polygon fill="#ffffff" stroke="none" points="817,-439 817,-464 927,-464 927,-439 817,-439"/>
<polygon fill="none" stroke="#2c3e50" points="817,-439 817,-464 927,-464 927,-439 817,-439"/>
<text text-anchor="start" x="822" y="-447.8" font-family="monospace" font-size="14.00" fill="#000000">opcintype</text>
<polygon fill="#ffffff" stroke="none" points="927,-439 927,-464 995,-464 995,-439 927,-439"/>
<polygon fill="none" stroke="#2c3e50" points="927,-439 927,-464 995,-464 995,-439 927,-439"/>
<text text-anchor="start" x="932" y="-448.8" font-family="monospace" font-style="italic" font-size="14.00" fill="#95a5a6">oid</text>
<polygon fill="#ffffff" stroke="none" points="817,-414 817,-439 927,-439 927,-414 817,-414"/>
<polygon fill="none" stroke="#2c3e50" points="817,-414 817,-439 927,-439 927,-414 817,-414"/>
<text text-anchor="start" x="822" y="-422.8" font-family="monospace" font-size="14.00" fill="#000000">opcdefault</text>
<polygon fill="#ffffff" stroke="none" points="927,-414 927,-439 995,-439 995,-414 927,-414"/>
<polygon fill="none" stroke="#2c3e50" points="927,-414 927,-439 995,-439 995,-414 927,-414"/>
<text text-anchor="start" x="932" y="-423.8" font-family="monospace" font-style="italic" font-size="14.00" fill="#95a5a6">boolean</text>
<polygon fill="#ffffff" stroke="none" points="817,-389 817,-414 927,-414 927,-389 817,-389"/>
<polygon fill="none" stroke="#2c3e50" points="817,-389 817,-414 927,-414 927,-389 817,-389"/>
<text text-anchor="start" x="822" y="-397.8" font-family="monospace" font-size="14.00" fill="#000000">opckeytype</text>
<polygon fill="#ffffff" stroke="none" points="927,-389 927,-414 995,-414 995,-389 927,-389"/>
<polygon fill="none" stroke="#2c3e50" points="927,-389 927,-414 995,-414 995,-389 927,-389"/>
<text text-anchor="start" x="932" y="-398.8" font-family="monospace" font-style="italic" font-size="14.00" fill="#95a5a6">oid</text>
</a>
</g>
</g>
<!-- pg_amop&#45;&gt;pg_opclass -->
<g id="edge1" class="edge"><title>pg_amop:amopclaid_out&#45;&gt;pg_opclass:oid_in</title>
<path fill="none" stroke="#2c3e50" d="M390.5,-613C576.858,-613 624.507,-578.289 805.853,-577.035"/>
<polygon fill="#2c3e50" stroke="#2c3e50" points="806.012,-580.534 816,-577 805.988,-573.534 806.012,-580.534"/>
</g>
<!-- pg_amproc -->
<g id="node2" class="node"><title>pg_amproc</title>
<g id="a_node2"><a xlink:href="pg_amproc.svg" xlink:title="&lt;TABLE&gt;">
<polygon fill="#2c3e50" stroke="none" points="198.5,-426 198.5,-456 393.5,-456 393.5,-426 198.5,-426"/>
<polygon fill="none" stroke="black" points="198.5,-426 198.5,-456 393.5,-456 393.5,-426 198.5,-426"/>
<text text-anchor="start" x="248.5" y="-437.6" font-family="monospace" font-weight="bold" font-size="18.00" fill="#ffffff">pg_amproc</text>
<polygon fill="#ffffff" stroke="none" points="198.5,-401 198.5,-426 316.5,-426 316.5,-401 198.5,-401"/>
<polygon fill="none" stroke="#2c3e50" points="198.5,-401 198.5,-426 316.5,-426 316.5,-401 198.5,-401"/>
<text text-anchor="start" x="203.5" y="-409.8" font-family="monospace" font-size="14.00" fill="#000000">amopclaid</text>
<polygon fill="#18bc9c" stroke="none" points="316.5,-401 316.5,-426 393.5,-426 393.5,-401 316.5,-401"/>
<polygon fill="none" stroke="#2c3e50" points="316.5,-401 316.5,-426 393.5,-426 393.5,-401 316.5,-401"/>
<text text-anchor="start" x="321.5" y="-410.8" font-family="monospace" font-style="italic" font-size="14.00" fill="#ffffff">oid</text>
<polygon fill="#ffffff" stroke="none" points="198.5,-376 198.5,-401 316.5,-401 316.5,-376 198.5,-376"/>
<polygon fill="none" stroke="#2c3e50" points="198.5,-376 198.5,-401 316.5,-401 316.5,-376 198.5,-376"/>
<text text-anchor="start" x="203.5" y="-384.8" font-family="monospace" font-size="14.00" fill="#000000">amprocsubtype</text>
<polygon fill="#ffffff" stroke="none" points="316.5,-376 316.5,-401 393.5,-401 393.5,-376 316.5,-376"/>
<polygon fill="none" stroke="#2c3e50" points="316.5,-376 316.5,-401 393.5,-401 393.5,-376 316.5,-376"/>
<text text-anchor="start" x="321.5" y="-385.8" font-family="monospace" font-style="italic" font-size="14.00" fill="#95a5a6">oid</text>
<polygon fill="#ffffff" stroke="none" points="198.5,-351 198.5,-376 316.5,-376 316.5,-351 198.5,-351"/>
<polygon fill="none" stroke="#2c3e50" points="198.5,-351 198.5,-376 316.5,-376 316.5,-351 198.5,-351"/>
<text text-anchor="start" x="203.5" y="-359.8" font-family="monospace" font-size="14.00" fill="#000000">amprocnum</text>
<polygon fill="#ffffff" stroke="none" points="316.5,-351 316.5,-376 393.5,-376 393.5,-351 316.5,-351"/>
<polygon fill="none" stroke="#2c3e50" points="316.5,-351 316.5,-376 393.5,-376 393.5,-351 316.5,-351"/>
<text text-anchor="start" x="321.5" y="-360.8" font-family="monospace" font-style="italic" font-size="14.00" fill="#95a5a6">smallint</text>
<polygon fill="#ffffff" stroke="none" points="198.5,-326 198.5,-351 316.5,-351 316.5,-326 198.5,-326"/>
<polygon fill="none" stroke="#2c3e50" points="198.5,-326 198.5,-351 316.5,-351 316.5,-326 198.5,-326"/>
<text text-anchor="start" x="203.5" y="-334.8" font-family="monospace" font-size="14.00" fill="#000000">amproc</text>
<polygon fill="#ffffff" stroke="none" points="316.5,-326 316.5,-351 393.5,-351 393.5,-326 316.5,-326"/>
<polygon fill="none" stroke="#2c3e50" points="316.5,-326 316.5,-351 393.5,-351 393.5,-326 316.5,-326"/>
<text text-anchor="start" x="321.5" y="-335.8" font-family="monospace" font-style="italic" font-size="14.00" fill="#95a5a6">regproc</text>
</a>
</g>
</g>
<!-- pg_amproc&#45;&gt;pg_opclass -->
<g id="edge2" class="edge"><title>pg_amproc:amopclaid_out&#45;&gt;pg_opclass:oid_in</title>
<path fill="none" stroke="#2c3e50" d="M394.5,-414C486.487,-414 505.076,-446.155 591,-479 689.6,-516.691 705.93,-573.215 805.745,-576.819"/>
<polygon fill="#2c3e50" stroke="#2c3e50" points="805.94,-580.323 816,-577 806.063,-573.324 805.94,-580.323"/>
</g>
<!-- pg_namespace -->
<g id="node4" class="node"><title>pg_namespace</title>
<g id="a_node4"><a xlink:href="pg_namespace.svg" xlink:title="&lt;TABLE&gt;">
<polygon fill="#2c3e50" stroke="none" points="1436,-644 1436,-674 1598,-674 1598,-644 1436,-644"/>
<polygon fill="none" stroke="black" points="1436,-644 1436,-674 1598,-674 1598,-644 1436,-644"/>
<text text-anchor="start" x="1453.5" y="-655.6" font-family="monospace" font-weight="bold" font-size="18.00" fill="#ffffff">pg_namespace</text>
<polygon fill="#18bc9c" stroke="none" points="1436,-619 1436,-644 1513,-644 1513,-619 1436,-619"/>
<polygon fill="none" stroke="#2c3e50" points="1436,-619 1436,-644 1513,-644 1513,-619 1436,-619"/>
<text text-anchor="start" x="1441" y="-627.8" font-family="monospace" font-size="14.00" fill="#ffffff">oid</text>
<polygon fill="#ffffff" stroke="none" points="1513,-619 1513,-644 1598,-644 1598,-619 1513,-619"/>
<polygon fill="none" stroke="#2c3e50" points="1513,-619 1513,-644 1598,-644 1598,-619 1513,-619"/>
<text text-anchor="start" x="1518" y="-628.8" font-family="monospace" font-style="italic" font-size="14.00" fill="#95a5a6">oid</text>
<polygon fill="#ffffff" stroke="none" points="1436,-594 1436,-619 1513,-619 1513,-594 1436,-594"/>
<polygon fill="none" stroke="#2c3e50" points="1436,-594 1436,-619 1513,-619 1513,-594 1436,-594"/>
<text text-anchor="start" x="1441" y="-602.8" font-family="monospace" font-size="14.00" fill="#000000">nspname</text>
<polygon fill="#ffffff" stroke="none" points="1513,-594 1513,-619 1598,-619 1598,-594 1513,-594"/>
<polygon fill="none" stroke="#2c3e50" points="1513,-594 1513,-619 1598,-619 1598,-594 1513,-594"/>
<text text-anchor="start" x="1518" y="-603.8" font-family="monospace" font-style="italic" font-size="14.00" fill="#95a5a6">name</text>
<polygon fill="#ffffff" stroke="none" points="1436,-569 1436,-594 1513,-594 1513,-569 1436,-569"/>
<polygon fill="none" stroke="#2c3e50" points="1436,-569 1436,-594 1513,-594 1513,-569 1436,-569"/>
<text text-anchor="start" x="1441" y="-577.8" font-family="monospace" font-size="14.00" fill="#000000">nspowner</text>
<polygon fill="#ffffff" stroke="none" points="1513,-569 1513,-594 1598,-594 1598,-569 1513,-569"/>
<polygon fill="none" stroke="#2c3e50" points="1513,-569 1513,-594 1598,-594 1598,-569 1513,-569"/>
<text text-anchor="start" x="1518" y="-578.8" font-family="monospace" font-style="italic" font-size="14.00" fill="#95a5a6">oid</text>
<polygon fill="#ffffff" stroke="none" points="1436,-544 1436,-569 1513,-569 1513,-544 1436,-544"/>
<polygon fill="none" stroke="#2c3e50" points="1436,-544 1436,-569 1513,-569 1513,-544 1436,-544"/>
<text text-anchor="start" x="1441" y="-552.8" font-family="monospace" font-size="14.00" fill="#000000">nspacl</text>
<polygon fill="#ffffff" stroke="none" points="1513,-544 1513,-569 1598,-569 1598,-544 1513,-544"/>
<polygon fill="none" stroke="#2c3e50" points="1513,-544 1513,-569 1598,-569 1598,-544 1513,-544"/>
<text text-anchor="start" x="1518" y="-553.8" font-family="monospace" font-style="italic" font-size="14.00" fill="#95a5a6">aclitem[]</text>
</a>
</g>
</g>
<!-- pg_opclass&#45;&gt;pg_namespace -->
<g id="edge3" class="edge"><title>pg_opclass:opcnamespace_out&#45;&gt;pg_namespace:oid_in</title>
<path fill="none" stroke="#2c3e50" d="M996,-501C1196.23,-501 1230.28,-627.686 1425,-631.893"/>
<polygon fill="#2c3e50" stroke="#2c3e50" points="1424.96,-635.393 1435,-632 1425.04,-628.393 1424.96,-635.393"/>
</g>
<!-- pg_authid -->
<g id="node5" class="node"><title>pg_authid</title>
<g id="a_node5"><a xlink:href="pg_authid.svg" xlink:title="&lt;TABLE&gt;">
<polygon fill="#2c3e50" stroke="none" points="1337,-470 1337,-500 1697,-500 1697,-470 1337,-470"/>
<polygon fill="none" stroke="black" points="1337,-470 1337,-500 1697,-500 1697,-470 1337,-470"/>
<text text-anchor="start" x="1469.5" y="-481.6" font-family="monospace" font-weight="bold" font-size="18.00" fill="#ffffff">pg_authid</text>
<polygon fill="#18bc9c" stroke="none" points="1337,-445 1337,-470 1488,-470 1488,-445 1337,-445"/>
<polygon fill="none" stroke="#2c3e50" points="1337,-445 1337,-470 1488,-470 1488,-445 1337,-445"/>
<text text-anchor="start" x="1342" y="-453.8" font-family="monospace" font-size="14.00" fill="#ffffff">oid</text>
<polygon fill="#ffffff" stroke="none" points="1488,-445 1488,-470 1697,-470 1697,-445 1488,-445"/>
<polygon fill="none" stroke="#2c3e50" points="1488,-445 1488,-470 1697,-470 1697,-445 1488,-445"/>
<text text-anchor="start" x="1493" y="-454.8" font-family="monospace" font-style="italic" font-size="14.00" fill="#95a5a6">oid</text>
<polygon fill="#ffffff" stroke="none" points="1337,-420 1337,-445 1488,-445 1488,-420 1337,-420"/>
<polygon fill="none" stroke="#2c3e50" points="1337,-420 1337,-445 1488,-445 1488,-420 1337,-420"/>
<text text-anchor="start" x="1342" y="-428.8" font-family="monospace" font-size="14.00" fill="#000000">rolname</text>
<polygon fill="#ffffff" stroke="none" points="1488,-420 1488,-445 1697,-445 1697,-420 1488,-420"/>
<polygon fill="none" stroke="#2c3e50" points="1488,-420 1488,-445 1697,-445 1697,-420 1488,-420"/>
<text text-anchor="start" x="1493" y="-429.8" font-family="monospace" font-style="italic" font-size="14.00" fill="#95a5a6">name</text>
<polygon fill="#ffffff" stroke="none" points="1337,-395 1337,-420 1488,-420 1488,-395 1337,-395"/>
<polygon fill="none" stroke="#2c3e50" points="1337,-395 1337,-420 1488,-420 1488,-395 1337,-395"/>
<text text-anchor="start" x="1342" y="-403.8" font-family="monospace" font-size="14.00" fill="#000000">rolsuper</text>
<polygon fill="#ffffff" stroke="none" points="1488,-395 1488,-420 1697,-420 1697,-395 1488,-395"/>
<polygon fill="none" stroke="#2c3e50" points="1488,-395 1488,-420 1697,-420 1697,-395 1488,-395"/>
<text text-anchor="start" x="1493" y="-404.8" font-family="monospace" font-style="italic" font-size="14.00" fill="#95a5a6">boolean</text>
<polygon fill="#ffffff" stroke="none" points="1337,-370 1337,-395 1488,-395 1488,-370 1337,-370"/>
<polygon fill="none" stroke="#2c3e50" points="1337,-370 1337,-395 1488,-395 1488,-370 1337,-370"/>
<text text-anchor="start" x="1342" y="-378.8" font-family="monospace" font-size="14.00" fill="#000000">rolinherit</text>
<polygon fill="#ffffff" stroke="none" points="1488,-370 1488,-395 1697,-395 1697,-370 1488,-370"/>
<polygon fill="none" stroke="#2c3e50" points="1488,-370 1488,-395 1697,-395 1697,-370 1488,-370"/>
<text text-anchor="start" x="1493" y="-379.8" font-family="monospace" font-style="italic" font-size="14.00" fill="#95a5a6">boolean</text>
<polygon fill="#ffffff" stroke="none" points="1337,-345 1337,-370 1488,-370 1488,-345 1337,-345"/>
<polygon fill="none" stroke="#2c3e50" points="1337,-345 1337,-370 1488,-370 1488,-345 1337,-345"/>
<text text-anchor="start" x="1342" y="-353.8" font-family="monospace" font-size="14.00" fill="#000000">rolcreaterole</text>
<polygon fill="#ffffff" stroke="none" points="1488,-345 1488,-370 1697,-370 1697,-345 1488,-345"/>
<polygon fill="none" stroke="#2c3e50" points="1488,-345 1488,-370 1697,-370 1697,-345 1488,-345"/>
<text text-anchor="start" x="1493" y="-354.8" font-family="monospace" font-style="italic" font-size="14.00" fill="#95a5a6">boolean</text>
<polygon fill="#ffffff" stroke="none" points="1337,-320 1337,-345 1488,-345 1488,-320 1337,-320"/>
<polygon fill="none" stroke="#2c3e50" points="1337,-320 1337,-345 1488,-345 1488,-320 1337,-320"/>
<text text-anchor="start" x="1342" y="-328.8" font-family="monospace" font-size="14.00" fill="#000000">rolcreatedb</text>
<polygon fill="#ffffff" stroke="none" points="1488,-320 1488,-345 1697,-345 1697,-320 1488,-320"/>
<polygon fill="none" stroke="#2c3e50" points="1488,-320 1488,-345 1697,-345 1697,-320 1488,-320"/>
<text text-anchor="start" x="1493" y="-329.8" font-family="monospace" font-style="italic" font-size="14.00" fill="#95a5a6">boolean</text>
<polygon fill="#ffffff" stroke="none" points="1337,-295 1337,-320 1488,-320 1488,-295 1337,-295"/>
<polygon fill="none" stroke="#2c3e50" points="1337,-295 1337,-320 1488,-320 1488,-295 1337,-295"/>
<text text-anchor="start" x="1342" y="-303.8" font-family="monospace" font-size="14.00" fill="#000000">rolcatupdate</text>
<polygon fill="#ffffff" stroke="none" points="1488,-295 1488,-320 1697,-320 1697,-295 1488,-295"/>
<polygon fill="none" stroke="#2c3e50" points="1488,-295 1488,-320 1697,-320 1697,-295 1488,-295"/>
<text text-anchor="start" x="1493" y="-304.8" font-family="monospace" font-style="italic" font-size="14.00" fill="#95a5a6">boolean</text>
<polygon fill="#ffffff" stroke="none" points="1337,-270 1337,-295 1488,-295 1488,-270 1337,-270"/>
<polygon fill="none" stroke="#2c3e50" points="1337,-270 1337,-295 1488,-295 1488,-270 1337,-270"/>
<text text-anchor="start" x="1342" y="-278.8" font-family="monospace" font-size="14.00" fill="#000000">rolcanlogin</text>
<polygon fill="#ffffff" stroke="none" points="1488,-270 1488,-295 1697,-295 1697,-270 1488,-270"/>
<polygon fill="none" stroke="#2c3e50" points="1488,-270 1488,-295 1697,-295 1697,-270 1488,-270"/>
<text text-anchor="start" x="1493" y="-279.8" font-family="monospace" font-style="italic" font-size="14.00" fill="#95a5a6">boolean</text>
<polygon fill="#ffffff" stroke="none" points="1337,-245 1337,-270 1488,-270 1488,-245 1337,-245"/>
<polygon fill="none" stroke="#2c3e50" points="1337,-245 1337,-270 1488,-270 1488,-245 1337,-245"/>
<text text-anchor="start" x="1342" y="-253.8" font-family="monospace" font-size="14.00" fill="#000000">rolconnlimit</text>
<polygon fill="#ffffff" stroke="none" points="1488,-245 1488,-270 1697,-270 1697,-245 1488,-245"/>
<polygon fill="none" stroke="#2c3e50" points="1488,-245 1488,-270 1697,-270 1697,-245 1488,-245"/>
<text text-anchor="start" x="1493" y="-254.8" font-family="monospace" font-style="italic" font-size="14.00" fill="#95a5a6">integer</text>
<polygon fill="#ffffff" stroke="none" points="1337,-220 1337,-245 1488,-245 1488,-220 1337,-220"/>
<polygon fill="none" stroke="#2c3e50" points="1337,-220 1337,-245 1488,-245 1488,-220 1337,-220"/>
<text text-anchor="start" x="1342" y="-228.8" font-family="monospace" font-size="14.00" fill="#000000">rolpassword</text>
<polygon fill="#ffffff" stroke="none" points="1488,-220 1488,-245 1697,-245 1697,-220 1488,-220"/>
<polygon fill="none" stroke="#2c3e50" points="1488,-220 1488,-245 1697,-245 1697,-220 1488,-220"/>
<text text-anchor="start" x="1493" y="-229.8" font-family="monospace" font-style="italic" font-size="14.00" fill="#95a5a6">text</text>
<polygon fill="#ffffff" stroke="none" points="1337,-195 1337,-220 1488,-220 1488,-195 1337,-195"/>
<polygon fill="none" stroke="#2c3e50" points="1337,-195 1337,-220 1488,-220 1488,-195 1337,-195"/>
<text text-anchor="start" x="1342" y="-203.8" font-family="monospace" font-size="14.00" fill="#000000">rolvaliduntil</text>
<polygon fill="#ffffff" stroke="none" points="1488,-195 1488,-220 1697,-220 1697,-195 1488,-195"/>
<polygon fill="none" stroke="#2c3e50" points="1488,-195 1488,-220 1697,-220 1697,-195 1488,-195"/>
<text text-anchor="start" x="1493" y="-204.8" font-family="monospace" font-style="italic" font-size="14.00" fill="#95a5a6">timestamp_with_time_zone</text>
<polygon fill="#ffffff" stroke="none" points="1337,-170 1337,-195 1488,-195 1488,-170 1337,-170"/>
<polygon fill="none" stroke="#2c3e50" points="1337,-170 1337,-195 1488,-195 1488,-170 1337,-170"/>
<text text-anchor="start" x="1342" y="-178.8" font-family="monospace" font-size="14.00" fill="#000000">rolconfig</text>
<polygon fill="#ffffff" stroke="none" points="1488,-170 1488,-195 1697,-195 1697,-170 1488,-170"/>
<polygon fill="none" stroke="#2c3e50" points="1488,-170 1488,-195 1697,-195 1697,-170 1488,-170"/>
<text text-anchor="start" x="1493" y="-179.8" font-family="monospace" font-style="italic" font-size="14.00" fill="#95a5a6">text[]</text>
<polygon fill="#ffffff" stroke="none" points="1337,-145 1337,-170 1488,-170 1488,-145 1337,-145"/>
<polygon fill="none" stroke="#2c3e50" points="1337,-145 1337,-170 1488,-170 1488,-145 1337,-145"/>
<text text-anchor="start" x="1342" y="-153.8" font-family="monospace" font-size="14.00" fill="#000000">rolresqueue</text>
<polygon fill="#ffffff" stroke="none" points="1488,-145 1488,-170 1697,-170 1697,-145 1488,-145"/>
<polygon fill="none" stroke="#2c3e50" points="1488,-145 1488,-170 1697,-170 1697,-145 1488,-145"/>
<text text-anchor="start" x="1493" y="-154.8" font-family="monospace" font-style="italic" font-size="14.00" fill="#95a5a6">oid</text>
<polygon fill="#ffffff" stroke="none" points="1337,-120 1337,-145 1488,-145 1488,-120 1337,-120"/>
<polygon fill="none" stroke="#2c3e50" points="1337,-120 1337,-145 1488,-145 1488,-120 1337,-120"/>
<text text-anchor="start" x="1342" y="-128.8" font-family="monospace" font-size="14.00" fill="#000000">rolcreaterextgpfd</text>
<polygon fill="#ffffff" stroke="none" points="1488,-120 1488,-145 1697,-145 1697,-120 1488,-120"/>
<polygon fill="none" stroke="#2c3e50" points="1488,-120 1488,-145 1697,-145 1697,-120 1488,-120"/>
<text text-anchor="start" x="1493" y="-129.8" font-family="monospace" font-style="italic" font-size="14.00" fill="#95a5a6">boolean</text>
<polygon fill="#ffffff" stroke="none" points="1337,-95 1337,-120 1488,-120 1488,-95 1337,-95"/>
<polygon fill="none" stroke="#2c3e50" points="1337,-95 1337,-120 1488,-120 1488,-95 1337,-95"/>
<text text-anchor="start" x="1342" y="-103.8" font-family="monospace" font-size="14.00" fill="#000000">rolcreaterexthttp</text>
<polygon fill="#ffffff" stroke="none" points="1488,-95 1488,-120 1697,-120 1697,-95 1488,-95"/>
<polygon fill="none" stroke="#2c3e50" points="1488,-95 1488,-120 1697,-120 1697,-95 1488,-95"/>
<text text-anchor="start" x="1493" y="-104.8" font-family="monospace" font-style="italic" font-size="14.00" fill="#95a5a6">boolean</text>
<polygon fill="#ffffff" stroke="none" points="1337,-70 1337,-95 1488,-95 1488,-70 1337,-70"/>
<polygon fill="none" stroke="#2c3e50" points="1337,-70 1337,-95 1488,-95 1488,-70 1337,-70"/>
<text text-anchor="start" x="1342" y="-78.8" font-family="monospace" font-size="14.00" fill="#000000">rolcreatewextgpfd</text>
<polygon fill="#ffffff" stroke="none" points="1488,-70 1488,-95 1697,-95 1697,-70 1488,-70"/>
<polygon fill="none" stroke="#2c3e50" points="1488,-70 1488,-95 1697,-95 1697,-70 1488,-70"/>
<text text-anchor="start" x="1493" y="-79.8" font-family="monospace" font-style="italic" font-size="14.00" fill="#95a5a6">boolean</text>
<polygon fill="#ffffff" stroke="none" points="1337,-45 1337,-70 1488,-70 1488,-45 1337,-45"/>
<polygon fill="none" stroke="#2c3e50" points="1337,-45 1337,-70 1488,-70 1488,-45 1337,-45"/>
<text text-anchor="start" x="1342" y="-53.8" font-family="monospace" font-size="14.00" fill="#000000">rolcreaterexthdfs</text>
<polygon fill="#ffffff" stroke="none" points="1488,-45 1488,-70 1697,-70 1697,-45 1488,-45"/>
<polygon fill="none" stroke="#2c3e50" points="1488,-45 1488,-70 1697,-70 1697,-45 1488,-45"/>
<text text-anchor="start" x="1493" y="-54.8" font-family="monospace" font-style="italic" font-size="14.00" fill="#95a5a6">boolean</text>
<polygon fill="#ffffff" stroke="none" points="1337,-20 1337,-45 1488,-45 1488,-20 1337,-20"/>
<polygon fill="none" stroke="#2c3e50" points="1337,-20 1337,-45 1488,-45 1488,-20 1337,-20"/>
<text text-anchor="start" x="1342" y="-28.8" font-family="monospace" font-size="14.00" fill="#000000">rolcreatewexthdfs</text>
<polygon fill="#ffffff" stroke="none" points="1488,-20 1488,-45 1697,-45 1697,-20 1488,-20"/>
<polygon fill="none" stroke="#2c3e50" points="1488,-20 1488,-45 1697,-45 1697,-20 1488,-20"/>
<text text-anchor="start" x="1493" y="-29.8" font-family="monospace" font-style="italic" font-size="14.00" fill="#95a5a6">boolean</text>
</a>
</g>
</g>
<!-- pg_opclass&#45;&gt;pg_authid -->
<g id="edge4" class="edge"><title>pg_opclass:opcowner_out&#45;&gt;pg_authid:oid_in</title>
<path fill="none" stroke="#2c3e50" d="M996,-476C1143.92,-476 1182.94,-458.8 1325.97,-458.027"/>
<polygon fill="#2c3e50" stroke="#2c3e50" points="1326.01,-461.527 1336,-458 1325.99,-454.527 1326.01,-461.527"/>
</g>
</g>
</svg>
