<?xml version="1.0" encoding="UTF-8" standalone="no"?>
<!DOCTYPE svg PUBLIC "-//W3C//DTD SVG 1.1//EN"
 "http://www.w3.org/Graphics/SVG/1.1/DTD/svg11.dtd">
<!-- Generated by graphviz version 2.38.0 (20140413.2041)
 -->
<!-- Title: GPDB Pages: 1 -->
<svg width="1448pt" height="792pt"
 viewBox="0.00 0.00 1448.00 792.00" xmlns="http://www.w3.org/2000/svg" xmlns:xlink="http://www.w3.org/1999/xlink">
<g id="graph0" class="graph" transform="scale(1 1) rotate(0) translate(36 756)">
<title>GPDB</title>
<polygon fill="white" stroke="none" points="-36,36 -36,-756 1412,-756 1412,36 -36,36"/>
<text text-anchor="middle" x="688" y="-690.4" font-family="Helvetica,sans-Serif" font-size="32.00">Greenplum System Catalog: pg_proc_callback</text>
<g id="clust2" class="cluster"><title>cluster_selected</title>
</g>
<g id="clust3" class="cluster"><title>cluster_to</title>
</g>
<!-- pg_proc_callback -->
<g id="node1" class="node"><title>pg_proc_callback</title>
<polygon fill="#2c3e50" stroke="none" points="238,-583 238,-613 440,-613 440,-583 238,-583"/>
<polygon fill="none" stroke="black" points="238,-583 238,-613 440,-613 440,-583 238,-583"/>
<text text-anchor="start" x="254.5" y="-594.6" font-family="monospace" font-weight="bold" font-size="18.00" fill="#ffffff">pg_proc_callback</text>
<polygon fill="#ffffff" stroke="none" points="238,-558 238,-583 339,-583 339,-558 238,-558"/>
<polygon fill="none" stroke="#2c3e50" points="238,-558 238,-583 339,-583 339,-558 238,-558"/>
<text text-anchor="start" x="243" y="-566.8" font-family="monospace" font-size="14.00" fill="#000000">profnoid</text>
<polygon fill="#18bc9c" stroke="none" points="339,-558 339,-583 440,-583 440,-558 339,-558"/>
<polygon fill="none" stroke="#2c3e50" points="339,-558 339,-583 440,-583 440,-558 339,-558"/>
<text text-anchor="start" x="344" y="-567.8" font-family="monospace" font-style="italic" font-size="14.00" fill="#ffffff">regproc</text>
<polygon fill="#ffffff" stroke="none" points="238,-533 238,-558 339,-558 339,-533 238,-533"/>
<polygon fill="none" stroke="#2c3e50" points="238,-533 238,-558 339,-558 339,-533 238,-533"/>
<text text-anchor="start" x="243" y="-541.8" font-family="monospace" font-size="14.00" fill="#000000">procallback</text>
<polygon fill="#18bc9c" stroke="none" points="339,-533 339,-558 440,-558 440,-533 339,-533"/>
<polygon fill="none" stroke="#2c3e50" points="339,-533 339,-558 440,-558 440,-533 339,-533"/>
<text text-anchor="start" x="344" y="-542.8" font-family="monospace" font-style="italic" font-size="14.00" fill="#ffffff">regproc</text>
<polygon fill="#ffffff" stroke="none" points="238,-508 238,-533 339,-533 339,-508 238,-508"/>
<polygon fill="none" stroke="#2c3e50" points="238,-508 238,-533 339,-533 339,-508 238,-508"/>
<text text-anchor="start" x="243" y="-516.8" font-family="monospace" font-size="14.00" fill="#000000">promethod</text>
<polygon fill="#ffffff" stroke="none" points="339,-508 339,-533 440,-533 440,-508 339,-508"/>
<polygon fill="none" stroke="#2c3e50" points="339,-508 339,-533 440,-533 440,-508 339,-508"/>
<text text-anchor="start" x="344" y="-517.8" font-family="monospace" font-style="italic" font-size="14.00" fill="#95a5a6">quoted_char</text>
</g>
<!-- pg_proc -->
<g id="node2" class="node"><title>pg_proc</title>
<polygon fill="#2c3e50" stroke="none" points="915,-570 915,-600 1159,-600 1159,-570 915,-570"/>
<polygon fill="none" stroke="black" points="915,-570 915,-600 1159,-600 1159,-570 915,-570"/>
<text text-anchor="start" x="1000" y="-581.6" font-family="monospace" font-weight="bold" font-size="18.00" fill="#ffffff">pg_proc</text>
<polygon fill="#18bc9c" stroke="none" points="915,-545 915,-570 1041,-570 1041,-545 915,-545"/>
<polygon fill="none" stroke="#2c3e50" points="915,-545 915,-570 1041,-570 1041,-545 915,-545"/>
<text text-anchor="start" x="920" y="-553.8" font-family="monospace" font-size="14.00" fill="#ffffff">oid</text>
<polygon fill="#ffffff" stroke="none" points="1041,-545 1041,-570 1159,-570 1159,-545 1041,-545"/>
<polygon fill="none" stroke="#2c3e50" points="1041,-545 1041,-570 1159,-570 1159,-545 1041,-545"/>
<text text-anchor="start" x="1046" y="-554.8" font-family="monospace" font-style="italic" font-size="14.00" fill="#95a5a6">oid</text>
<polygon fill="#ffffff" stroke="none" points="915,-520 915,-545 1041,-545 1041,-520 915,-520"/>
<polygon fill="none" stroke="#2c3e50" points="915,-520 915,-545 1041,-545 1041,-520 915,-520"/>
<text text-anchor="start" x="920" y="-528.8" font-family="monospace" font-size="14.00" fill="#000000">proname</text>
<polygon fill="#ffffff" stroke="none" points="1041,-520 1041,-545 1159,-545 1159,-520 1041,-520"/>
<polygon fill="none" stroke="#2c3e50" points="1041,-520 1041,-545 1159,-545 1159,-520 1041,-520"/>
<text text-anchor="start" x="1046" y="-529.8" font-family="monospace" font-style="italic" font-size="14.00" fill="#95a5a6">name</text>
<polygon fill="#ffffff" stroke="none" points="915,-495 915,-520 1041,-520 1041,-495 915,-495"/>
<polygon fill="none" stroke="#2c3e50" points="915,-495 915,-520 1041,-520 1041,-495 915,-495"/>
<text text-anchor="start" x="920" y="-503.8" font-family="monospace" font-size="14.00" fill="#000000">pronamespace</text>
<polygon fill="#ffffff" stroke="none" points="1041,-495 1041,-520 1159,-520 1159,-495 1041,-495"/>
<polygon fill="none" stroke="#2c3e50" points="1041,-495 1041,-520 1159,-520 1159,-495 1041,-495"/>
<text text-anchor="start" x="1046" y="-504.8" font-family="monospace" font-style="italic" font-size="14.00" fill="#95a5a6">oid</text>
<polygon fill="#ffffff" stroke="none" points="915,-470 915,-495 1041,-495 1041,-470 915,-470"/>
<polygon fill="none" stroke="#2c3e50" points="915,-470 915,-495 1041,-495 1041,-470 915,-470"/>
<text text-anchor="start" x="920" y="-478.8" font-family="monospace" font-size="14.00" fill="#000000">proowner</text>
<polygon fill="#ffffff" stroke="none" points="1041,-470 1041,-495 1159,-495 1159,-470 1041,-470"/>
<polygon fill="none" stroke="#2c3e50" points="1041,-470 1041,-495 1159,-495 1159,-470 1041,-470"/>
<text text-anchor="start" x="1046" y="-479.8" font-family="monospace" font-style="italic" font-size="14.00" fill="#95a5a6">oid</text>
<polygon fill="#ffffff" stroke="none" points="915,-445 915,-470 1041,-470 1041,-445 915,-445"/>
<polygon fill="none" stroke="#2c3e50" points="915,-445 915,-470 1041,-470 1041,-445 915,-445"/>
<text text-anchor="start" x="920" y="-453.8" font-family="monospace" font-size="14.00" fill="#000000">prolang</text>
<polygon fill="#ffffff" stroke="none" points="1041,-445 1041,-470 1159,-470 1159,-445 1041,-445"/>
<polygon fill="none" stroke="#2c3e50" points="1041,-445 1041,-470 1159,-470 1159,-445 1041,-445"/>
<text text-anchor="start" x="1046" y="-454.8" font-family="monospace" font-style="italic" font-size="14.00" fill="#95a5a6">oid</text>
<polygon fill="#ffffff" stroke="none" points="915,-420 915,-445 1041,-445 1041,-420 915,-420"/>
<polygon fill="none" stroke="#2c3e50" points="915,-420 915,-445 1041,-445 1041,-420 915,-420"/>
<text text-anchor="start" x="920" y="-428.8" font-family="monospace" font-size="14.00" fill="#000000">proisagg</text>
<polygon fill="#ffffff" stroke="none" points="1041,-420 1041,-445 1159,-445 1159,-420 1041,-420"/>
<polygon fill="none" stroke="#2c3e50" points="1041,-420 1041,-445 1159,-445 1159,-420 1041,-420"/>
<text text-anchor="start" x="1046" y="-429.8" font-family="monospace" font-style="italic" font-size="14.00" fill="#95a5a6">boolean</text>
<polygon fill="#ffffff" stroke="none" points="915,-395 915,-420 1041,-420 1041,-395 915,-395"/>
<polygon fill="none" stroke="#2c3e50" points="915,-395 915,-420 1041,-420 1041,-395 915,-395"/>
<text text-anchor="start" x="920" y="-403.8" font-family="monospace" font-size="14.00" fill="#000000">prosecdef</text>
<polygon fill="#ffffff" stroke="none" points="1041,-395 1041,-420 1159,-420 1159,-395 1041,-395"/>
<polygon fill="none" stroke="#2c3e50" points="1041,-395 1041,-420 1159,-420 1159,-395 1041,-395"/>
<text text-anchor="start" x="1046" y="-404.8" font-family="monospace" font-style="italic" font-size="14.00" fill="#95a5a6">boolean</text>
<polygon fill="#ffffff" stroke="none" points="915,-370 915,-395 1041,-395 1041,-370 915,-370"/>
<polygon fill="none" stroke="#2c3e50" points="915,-370 915,-395 1041,-395 1041,-370 915,-370"/>
<text text-anchor="start" x="920" y="-378.8" font-family="monospace" font-size="14.00" fill="#000000">proisstrict</text>
<polygon fill="#ffffff" stroke="none" points="1041,-370 1041,-395 1159,-395 1159,-370 1041,-370"/>
<polygon fill="none" stroke="#2c3e50" points="1041,-370 1041,-395 1159,-395 1159,-370 1041,-370"/>
<text text-anchor="start" x="1046" y="-379.8" font-family="monospace" font-style="italic" font-size="14.00" fill="#95a5a6">boolean</text>
<polygon fill="#ffffff" stroke="none" points="915,-345 915,-370 1041,-370 1041,-345 915,-345"/>
<polygon fill="none" stroke="#2c3e50" points="915,-345 915,-370 1041,-370 1041,-345 915,-345"/>
<text text-anchor="start" x="920" y="-353.8" font-family="monospace" font-size="14.00" fill="#000000">proretset</text>
<polygon fill="#ffffff" stroke="none" points="1041,-345 1041,-370 1159,-370 1159,-345 1041,-345"/>
<polygon fill="none" stroke="#2c3e50" points="1041,-345 1041,-370 1159,-370 1159,-345 1041,-345"/>
<text text-anchor="start" x="1046" y="-354.8" font-family="monospace" font-style="italic" font-size="14.00" fill="#95a5a6">boolean</text>
<polygon fill="#ffffff" stroke="none" points="915,-320 915,-345 1041,-345 1041,-320 915,-320"/>
<polygon fill="none" stroke="#2c3e50" points="915,-320 915,-345 1041,-345 1041,-320 915,-320"/>
<text text-anchor="start" x="920" y="-328.8" font-family="monospace" font-size="14.00" fill="#000000">provolatile</text>
<polygon fill="#ffffff" stroke="none" points="1041,-320 1041,-345 1159,-345 1159,-320 1041,-320"/>
<polygon fill="none" stroke="#2c3e50" points="1041,-320 1041,-345 1159,-345 1159,-320 1041,-320"/>
<text text-anchor="start" x="1046" y="-329.8" font-family="monospace" font-style="italic" font-size="14.00" fill="#95a5a6">quoted_char</text>
<polygon fill="#ffffff" stroke="none" points="915,-295 915,-320 1041,-320 1041,-295 915,-295"/>
<polygon fill="none" stroke="#2c3e50" points="915,-295 915,-320 1041,-320 1041,-295 915,-295"/>
<text text-anchor="start" x="920" y="-303.8" font-family="monospace" font-size="14.00" fill="#000000">pronargs</text>
<polygon fill="#ffffff" stroke="none" points="1041,-295 1041,-320 1159,-320 1159,-295 1041,-295"/>
<polygon fill="none" stroke="#2c3e50" points="1041,-295 1041,-320 1159,-320 1159,-295 1041,-295"/>
<text text-anchor="start" x="1046" y="-304.8" font-family="monospace" font-style="italic" font-size="14.00" fill="#95a5a6">smallint</text>
<polygon fill="#ffffff" stroke="none" points="915,-270 915,-295 1041,-295 1041,-270 915,-270"/>
<polygon fill="none" stroke="#2c3e50" points="915,-270 915,-295 1041,-295 1041,-270 915,-270"/>
<text text-anchor="start" x="920" y="-278.8" font-family="monospace" font-size="14.00" fill="#000000">prorettype</text>
<polygon fill="#ffffff" stroke="none" points="1041,-270 1041,-295 1159,-295 1159,-270 1041,-270"/>
<polygon fill="none" stroke="#2c3e50" points="1041,-270 1041,-295 1159,-295 1159,-270 1041,-270"/>
<text text-anchor="start" x="1046" y="-279.8" font-family="monospace" font-style="italic" font-size="14.00" fill="#95a5a6">oid</text>
<polygon fill="#ffffff" stroke="none" points="915,-245 915,-270 1041,-270 1041,-245 915,-245"/>
<polygon fill="none" stroke="#2c3e50" points="915,-245 915,-270 1041,-270 1041,-245 915,-245"/>
<text text-anchor="start" x="920" y="-253.8" font-family="monospace" font-size="14.00" fill="#000000">proiswin</text>
<polygon fill="#ffffff" stroke="none" points="1041,-245 1041,-270 1159,-270 1159,-245 1041,-245"/>
<polygon fill="none" stroke="#2c3e50" points="1041,-245 1041,-270 1159,-270 1159,-245 1041,-245"/>
<text text-anchor="start" x="1046" y="-254.8" font-family="monospace" font-style="italic" font-size="14.00" fill="#95a5a6">boolean</text>
<polygon fill="#ffffff" stroke="none" points="915,-220 915,-245 1041,-245 1041,-220 915,-220"/>
<polygon fill="none" stroke="#2c3e50" points="915,-220 915,-245 1041,-245 1041,-220 915,-220"/>
<text text-anchor="start" x="920" y="-228.8" font-family="monospace" font-size="14.00" fill="#000000">proargtypes</text>
<polygon fill="#ffffff" stroke="none" points="1041,-220 1041,-245 1159,-245 1159,-220 1041,-220"/>
<polygon fill="none" stroke="#2c3e50" points="1041,-220 1041,-245 1159,-245 1159,-220 1041,-220"/>
<text text-anchor="start" x="1046" y="-229.8" font-family="monospace" font-style="italic" font-size="14.00" fill="#95a5a6">oidvector</text>
<polygon fill="#ffffff" stroke="none" points="915,-195 915,-220 1041,-220 1041,-195 915,-195"/>
<polygon fill="none" stroke="#2c3e50" points="915,-195 915,-220 1041,-220 1041,-195 915,-195"/>
<text text-anchor="start" x="920" y="-203.8" font-family="monospace" font-size="14.00" fill="#000000">proallargtypes</text>
<polygon fill="#ffffff" stroke="none" points="1041,-195 1041,-220 1159,-220 1159,-195 1041,-195"/>
<polygon fill="none" stroke="#2c3e50" points="1041,-195 1041,-220 1159,-220 1159,-195 1041,-195"/>
<text text-anchor="start" x="1046" y="-204.8" font-family="monospace" font-style="italic" font-size="14.00" fill="#95a5a6">oid[]</text>
<polygon fill="#ffffff" stroke="none" points="915,-170 915,-195 1041,-195 1041,-170 915,-170"/>
<polygon fill="none" stroke="#2c3e50" points="915,-170 915,-195 1041,-195 1041,-170 915,-170"/>
<text text-anchor="start" x="920" y="-178.8" font-family="monospace" font-size="14.00" fill="#000000">proargmodes</text>
<polygon fill="#ffffff" stroke="none" points="1041,-170 1041,-195 1159,-195 1159,-170 1041,-170"/>
<polygon fill="none" stroke="#2c3e50" points="1041,-170 1041,-195 1159,-195 1159,-170 1041,-170"/>
<text text-anchor="start" x="1046" y="-179.8" font-family="monospace" font-style="italic" font-size="14.00" fill="#95a5a6">quoted_char[]</text>
<polygon fill="#ffffff" stroke="none" points="915,-145 915,-170 1041,-170 1041,-145 915,-145"/>
<polygon fill="none" stroke="#2c3e50" points="915,-145 915,-170 1041,-170 1041,-145 915,-145"/>
<text text-anchor="start" x="920" y="-153.8" font-family="monospace" font-size="14.00" fill="#000000">proargnames</text>
<polygon fill="#ffffff" stroke="none" points="1041,-145 1041,-170 1159,-170 1159,-145 1041,-145"/>
<polygon fill="none" stroke="#2c3e50" points="1041,-145 1041,-170 1159,-170 1159,-145 1041,-145"/>
<text text-anchor="start" x="1046" y="-154.8" font-family="monospace" font-style="italic" font-size="14.00" fill="#95a5a6">text[]</text>
<polygon fill="#ffffff" stroke="none" points="915,-120 915,-145 1041,-145 1041,-120 915,-120"/>
<polygon fill="none" stroke="#2c3e50" points="915,-120 915,-145 1041,-145 1041,-120 915,-120"/>
<text text-anchor="start" x="920" y="-128.8" font-family="monospace" font-size="14.00" fill="#000000">prosrc</text>
<polygon fill="#ffffff" stroke="none" points="1041,-120 1041,-145 1159,-145 1159,-120 1041,-120"/>
<polygon fill="none" stroke="#2c3e50" points="1041,-120 1041,-145 1159,-145 1159,-120 1041,-120"/>
<text text-anchor="start" x="1046" y="-129.8" font-family="monospace" font-style="italic" font-size="14.00" fill="#95a5a6">text</text>
<polygon fill="#ffffff" stroke="none" points="915,-95 915,-120 1041,-120 1041,-95 915,-95"/>
<polygon fill="none" stroke="#2c3e50" points="915,-95 915,-120 1041,-120 1041,-95 915,-95"/>
<text text-anchor="start" x="920" y="-103.8" font-family="monospace" font-size="14.00" fill="#000000">probin</text>
<polygon fill="#ffffff" stroke="none" points="1041,-95 1041,-120 1159,-120 1159,-95 1041,-95"/>
<polygon fill="none" stroke="#2c3e50" points="1041,-95 1041,-120 1159,-120 1159,-95 1041,-95"/>
<text text-anchor="start" x="1046" y="-104.8" font-family="monospace" font-style="italic" font-size="14.00" fill="#95a5a6">bytea</text>
<polygon fill="#ffffff" stroke="none" points="915,-70 915,-95 1041,-95 1041,-70 915,-70"/>
<polygon fill="none" stroke="#2c3e50" points="915,-70 915,-95 1041,-95 1041,-70 915,-70"/>
<text text-anchor="start" x="920" y="-78.8" font-family="monospace" font-size="14.00" fill="#000000">proacl</text>
<polygon fill="#ffffff" stroke="none" points="1041,-70 1041,-95 1159,-95 1159,-70 1041,-70"/>
<polygon fill="none" stroke="#2c3e50" points="1041,-70 1041,-95 1159,-95 1159,-70 1041,-70"/>
<text text-anchor="start" x="1046" y="-79.8" font-family="monospace" font-style="italic" font-size="14.00" fill="#95a5a6">aclitem[]</text>
<polygon fill="#ffffff" stroke="none" points="915,-45 915,-70 1041,-70 1041,-45 915,-45"/>
<polygon fill="none" stroke="#2c3e50" points="915,-45 915,-70 1041,-70 1041,-45 915,-45"/>
<text text-anchor="start" x="920" y="-53.8" font-family="monospace" font-size="14.00" fill="#000000">prodataaccess</text>
<polygon fill="#ffffff" stroke="none" points="1041,-45 1041,-70 1159,-70 1159,-45 1041,-45"/>
<polygon fill="none" stroke="#2c3e50" points="1041,-45 1041,-70 1159,-70 1159,-45 1041,-45"/>
<text text-anchor="start" x="1046" y="-54.8" font-family="monospace" font-style="italic" font-size="14.00" fill="#95a5a6">quoted_char</text>
<polygon fill="#ffffff" stroke="none" points="915,-20 915,-45 1041,-45 1041,-20 915,-20"/>
<polygon fill="none" stroke="#2c3e50" points="915,-20 915,-45 1041,-45 1041,-20 915,-20"/>
<text text-anchor="start" x="920" y="-28.8" font-family="monospace" font-size="14.00" fill="#000000">provariadic</text>
<polygon fill="#ffffff" stroke="none" points="1041,-20 1041,-45 1159,-45 1159,-20 1041,-20"/>
<polygon fill="none" stroke="#2c3e50" points="1041,-20 1041,-45 1159,-45 1159,-20 1041,-20"/>
<text text-anchor="start" x="1046" y="-29.8" font-family="monospace" font-style="italic" font-size="14.00" fill="#95a5a6">oid</text>
</g>
<!-- pg_proc_callback&#45;&gt;pg_proc -->
<g id="edge1" class="edge"><title>pg_proc_callback:profnoid_out&#45;&gt;pg_proc:oid_in</title>
<path fill="none" stroke="#2c3e50" d="M441,-571C647.913,-571 701.969,-558.416 903.956,-558.01"/>
<polygon fill="#2c3e50" stroke="#2c3e50" points="904.004,-561.51 914,-558 903.996,-554.51 904.004,-561.51"/>
</g>
<!-- pg_proc_callback&#45;&gt;pg_proc -->
<g id="edge2" class="edge"><title>pg_proc_callback:procallback_out&#45;&gt;pg_proc:oid_in</title>
<path fill="none" stroke="#2c3e50" d="M441,-545C647.913,-545 701.969,-557.584 903.956,-557.99"/>
<polygon fill="#2c3e50" stroke="#2c3e50" points="903.996,-561.49 914,-558 904.004,-554.49 903.996,-561.49"/>
</g>
</g>
</svg>
