<?xml version="1.0" encoding="UTF-8" standalone="no"?>
<!DOCTYPE svg PUBLIC "-//W3C//DTD SVG 1.1//EN"
 "http://www.w3.org/Graphics/SVG/1.1/DTD/svg11.dtd">
<!-- Generated by graphviz version 2.38.0 (20140413.2041)
 -->
<!-- Title: GPDB Pages: 1 -->
<svg width="704pt" height="378pt"
 viewBox="0.00 0.00 704.00 378.00" xmlns="http://www.w3.org/2000/svg" xmlns:xlink="http://www.w3.org/1999/xlink">
<g id="graph0" class="graph" transform="scale(1 1) rotate(0) translate(36 342)">
<title>GPDB</title>
<polygon fill="white" stroke="none" points="-36,36 -36,-342 668,-342 668,36 -36,36"/>
<text text-anchor="middle" x="316" y="-276.4" font-family="Helvetica,sans-Serif" font-size="32.00">Greenplum System Catalog: pg_pltemplate</text>
<g id="clust2" class="cluster"><title>cluster_selected</title>
</g>
<!-- pg_pltemplate -->
<g id="node1" class="node"><title>pg_pltemplate</title>
<polygon fill="#2c3e50" stroke="none" points="214.5,-170 214.5,-200 417.5,-200 417.5,-170 214.5,-170"/>
<polygon fill="none" stroke="black" points="214.5,-170 214.5,-200 417.5,-200 417.5,-170 214.5,-170"/>
<text text-anchor="start" x="247.5" y="-181.6" font-family="monospace" font-weight="bold" font-size="18.00" fill="#ffffff">pg_pltemplate</text>
<polygon fill="#ffffff" stroke="none" points="214.5,-145 214.5,-170 332.5,-170 332.5,-145 214.5,-145"/>
<polygon fill="none" stroke="#2c3e50" points="214.5,-145 214.5,-170 332.5,-170 332.5,-145 214.5,-145"/>
<text text-anchor="start" x="219.5" y="-153.8" font-family="monospace" font-size="14.00" fill="#000000">tmplname</text>
<polygon fill="#ffffff" stroke="none" points="332.5,-145 332.5,-170 417.5,-170 417.5,-145 332.5,-145"/>
<polygon fill="none" stroke="#2c3e50" points="332.5,-145 332.5,-170 417.5,-170 417.5,-145 332.5,-145"/>
<text text-anchor="start" x="337.5" y="-154.8" font-family="monospace" font-style="italic" font-size="14.00" fill="#95a5a6">name</text>
<polygon fill="#ffffff" stroke="none" points="214.5,-120 214.5,-145 332.5,-145 332.5,-120 214.5,-120"/>
<polygon fill="none" stroke="#2c3e50" points="214.5,-120 214.5,-145 332.5,-145 332.5,-120 214.5,-120"/>
<text text-anchor="start" x="219.5" y="-128.8" font-family="monospace" font-size="14.00" fill="#000000">tmpltrusted</text>
<polygon fill="#ffffff" stroke="none" points="332.5,-120 332.5,-145 417.5,-145 417.5,-120 332.5,-120"/>
<polygon fill="none" stroke="#2c3e50" points="332.5,-120 332.5,-145 417.5,-145 417.5,-120 332.5,-120"/>
<text text-anchor="start" x="337.5" y="-129.8" font-family="monospace" font-style="italic" font-size="14.00" fill="#95a5a6">boolean</text>
<polygon fill="#ffffff" stroke="none" points="214.5,-95 214.5,-120 332.5,-120 332.5,-95 214.5,-95"/>
<polygon fill="none" stroke="#2c3e50" points="214.5,-95 214.5,-120 332.5,-120 332.5,-95 214.5,-95"/>
<text text-anchor="start" x="219.5" y="-103.8" font-family="monospace" font-size="14.00" fill="#000000">tmplhandler</text>
<polygon fill="#ffffff" stroke="none" points="332.5,-95 332.5,-120 417.5,-120 417.5,-95 332.5,-95"/>
<polygon fill="none" stroke="#2c3e50" points="332.5,-95 332.5,-120 417.5,-120 417.5,-95 332.5,-95"/>
<text text-anchor="start" x="337.5" y="-104.8" font-family="monospace" font-style="italic" font-size="14.00" fill="#95a5a6">text</text>
<polygon fill="#ffffff" stroke="none" points="214.5,-70 214.5,-95 332.5,-95 332.5,-70 214.5,-70"/>
<polygon fill="none" stroke="#2c3e50" points="214.5,-70 214.5,-95 332.5,-95 332.5,-70 214.5,-70"/>
<text text-anchor="start" x="219.5" y="-78.8" font-family="monospace" font-size="14.00" fill="#000000">tmplvalidator</text>
<polygon fill="#ffffff" stroke="none" points="332.5,-70 332.5,-95 417.5,-95 417.5,-70 332.5,-70"/>
<polygon fill="none" stroke="#2c3e50" points="332.5,-70 332.5,-95 417.5,-95 417.5,-70 332.5,-70"/>
<text text-anchor="start" x="337.5" y="-79.8" font-family="monospace" font-style="italic" font-size="14.00" fill="#95a5a6">text</text>
<polygon fill="#ffffff" stroke="none" points="214.5,-45 214.5,-70 332.5,-70 332.5,-45 214.5,-45"/>
<polygon fill="none" stroke="#2c3e50" points="214.5,-45 214.5,-70 332.5,-70 332.5,-45 214.5,-45"/>
<text text-anchor="start" x="219.5" y="-53.8" font-family="monospace" font-size="14.00" fill="#000000">tmpllibrary</text>
<polygon fill="#ffffff" stroke="none" points="332.5,-45 332.5,-70 417.5,-70 417.5,-45 332.5,-45"/>
<polygon fill="none" stroke="#2c3e50" points="332.5,-45 332.5,-70 417.5,-70 417.5,-45 332.5,-45"/>
<text text-anchor="start" x="337.5" y="-54.8" font-family="monospace" font-style="italic" font-size="14.00" fill="#95a5a6">text</text>
<polygon fill="#ffffff" stroke="none" points="214.5,-20 214.5,-45 332.5,-45 332.5,-20 214.5,-20"/>
<polygon fill="none" stroke="#2c3e50" points="214.5,-20 214.5,-45 332.5,-45 332.5,-20 214.5,-20"/>
<text text-anchor="start" x="219.5" y="-28.8" font-family="monospace" font-size="14.00" fill="#000000">tmplacl</text>
<polygon fill="#ffffff" stroke="none" points="332.5,-20 332.5,-45 417.5,-45 417.5,-20 332.5,-20"/>
<polygon fill="none" stroke="#2c3e50" points="332.5,-20 332.5,-45 417.5,-45 417.5,-20 332.5,-20"/>
<text text-anchor="start" x="337.5" y="-29.8" font-family="monospace" font-style="italic" font-size="14.00" fill="#95a5a6">aclitem[]</text>
</g>
</g>
</svg>
