<?xml version="1.0" encoding="UTF-8" standalone="no"?>
<!DOCTYPE svg PUBLIC "-//W3C//DTD SVG 1.1//EN"
 "http://www.w3.org/Graphics/SVG/1.1/DTD/svg11.dtd">
<!-- Generated by graphviz version 2.38.0 (20140413.2041)
 -->
<!-- Title: GPDB Pages: 1 -->
<svg width="1559pt" height="1552pt"
 viewBox="0.00 0.00 1559.00 1552.00" xmlns="http://www.w3.org/2000/svg" xmlns:xlink="http://www.w3.org/1999/xlink">
<g id="graph0" class="graph" transform="scale(1 1) rotate(0) translate(36 1516)">
<title>GPDB</title>
<polygon fill="white" stroke="none" points="-36,36 -36,-1516 1523,-1516 1523,36 -36,36"/>
<text text-anchor="middle" x="743.5" y="-1450.4" font-family="Helvetica,sans-Serif" font-size="32.00">Greenplum System Catalog: pg_partition_rule</text>
<g id="clust2" class="cluster"><title>cluster_selected</title>
</g>
<g id="clust3" class="cluster"><title>cluster_to</title>
</g>
<!-- pg_partition_rule -->
<g id="node1" class="node"><title>pg_partition_rule</title>
<g id="a_node1"><a xlink:href="pg_partition_rule.svg" xlink:title="&lt;TABLE&gt;">
<polygon fill="#2c3e50" stroke="none" points="351,-1119 351,-1149 579,-1149 579,-1119 351,-1119"/>
<polygon fill="none" stroke="black" points="351,-1119 351,-1149 579,-1149 579,-1119 351,-1119"/>
<text text-anchor="start" x="375.5" y="-1130.6" font-family="monospace" font-weight="bold" font-size="18.00" fill="#ffffff">pg_partition_rule</text>
<polygon fill="#18bc9c" stroke="none" points="351,-1094 351,-1119 502,-1119 502,-1094 351,-1094"/>
<polygon fill="none" stroke="#2c3e50" points="351,-1094 351,-1119 502,-1119 502,-1094 351,-1094"/>
<text text-anchor="start" x="356" y="-1102.8" font-family="monospace" font-size="14.00" fill="#ffffff">oid</text>
<polygon fill="#ffffff" stroke="none" points="502,-1094 502,-1119 579,-1119 579,-1094 502,-1094"/>
<polygon fill="none" stroke="#2c3e50" points="502,-1094 502,-1119 579,-1119 579,-1094 502,-1094"/>
<text text-anchor="start" x="507" y="-1103.8" font-family="monospace" font-style="italic" font-size="14.00" fill="#95a5a6">oid</text>
<polygon fill="#ffffff" stroke="none" points="351,-1069 351,-1094 502,-1094 502,-1069 351,-1069"/>
<polygon fill="none" stroke="#2c3e50" points="351,-1069 351,-1094 502,-1094 502,-1069 351,-1069"/>
<text text-anchor="start" x="356" y="-1077.8" font-family="monospace" font-size="14.00" fill="#000000">paroid</text>
<polygon fill="#18bc9c" stroke="none" points="502,-1069 502,-1094 579,-1094 579,-1069 502,-1069"/>
<polygon fill="none" stroke="#2c3e50" points="502,-1069 502,-1094 579,-1094 579,-1069 502,-1069"/>
<text text-anchor="start" x="507" y="-1078.8" font-family="monospace" font-style="italic" font-size="14.00" fill="#ffffff">oid</text>
<polygon fill="#ffffff" stroke="none" points="351,-1044 351,-1069 502,-1069 502,-1044 351,-1044"/>
<polygon fill="none" stroke="#2c3e50" points="351,-1044 351,-1069 502,-1069 502,-1044 351,-1044"/>
<text text-anchor="start" x="356" y="-1052.8" font-family="monospace" font-size="14.00" fill="#000000">parchildrelid</text>
<polygon fill="#18bc9c" stroke="none" points="502,-1044 502,-1069 579,-1069 579,-1044 502,-1044"/>
<polygon fill="none" stroke="#2c3e50" points="502,-1044 502,-1069 579,-1069 579,-1044 502,-1044"/>
<text text-anchor="start" x="507" y="-1053.8" font-family="monospace" font-style="italic" font-size="14.00" fill="#ffffff">oid</text>
<polygon fill="#ffffff" stroke="none" points="351,-1019 351,-1044 502,-1044 502,-1019 351,-1019"/>
<polygon fill="none" stroke="#2c3e50" points="351,-1019 351,-1044 502,-1044 502,-1019 351,-1019"/>
<text text-anchor="start" x="356" y="-1027.8" font-family="monospace" font-size="14.00" fill="#000000">parparentrule</text>
<polygon fill="#18bc9c" stroke="none" points="502,-1019 502,-1044 579,-1044 579,-1019 502,-1019"/>
<polygon fill="none" stroke="#2c3e50" points="502,-1019 502,-1044 579,-1044 579,-1019 502,-1019"/>
<text text-anchor="start" x="507" y="-1028.8" font-family="monospace" font-style="italic" font-size="14.00" fill="#ffffff">oid</text>
<polygon fill="#ffffff" stroke="none" points="351,-994 351,-1019 502,-1019 502,-994 351,-994"/>
<polygon fill="none" stroke="#2c3e50" points="351,-994 351,-1019 502,-1019 502,-994 351,-994"/>
<text text-anchor="start" x="356" y="-1002.8" font-family="monospace" font-size="14.00" fill="#000000">parname</text>
<polygon fill="#ffffff" stroke="none" points="502,-994 502,-1019 579,-1019 579,-994 502,-994"/>
<polygon fill="none" stroke="#2c3e50" points="502,-994 502,-1019 579,-1019 579,-994 502,-994"/>
<text text-anchor="start" x="507" y="-1003.8" font-family="monospace" font-style="italic" font-size="14.00" fill="#95a5a6">name</text>
<polygon fill="#ffffff" stroke="none" points="351,-969 351,-994 502,-994 502,-969 351,-969"/>
<polygon fill="none" stroke="#2c3e50" points="351,-969 351,-994 502,-994 502,-969 351,-969"/>
<text text-anchor="start" x="356" y="-977.8" font-family="monospace" font-size="14.00" fill="#000000">parisdefault</text>
<polygon fill="#ffffff" stroke="none" points="502,-969 502,-994 579,-994 579,-969 502,-969"/>
<polygon fill="none" stroke="#2c3e50" points="502,-969 502,-994 579,-994 579,-969 502,-969"/>
<text text-anchor="start" x="507" y="-978.8" font-family="monospace" font-style="italic" font-size="14.00" fill="#95a5a6">boolean</text>
<polygon fill="#ffffff" stroke="none" points="351,-944 351,-969 502,-969 502,-944 351,-944"/>
<polygon fill="none" stroke="#2c3e50" points="351,-944 351,-969 502,-969 502,-944 351,-944"/>
<text text-anchor="start" x="356" y="-952.8" font-family="monospace" font-size="14.00" fill="#000000">parruleord</text>
<polygon fill="#ffffff" stroke="none" points="502,-944 502,-969 579,-969 579,-944 502,-944"/>
<polygon fill="none" stroke="#2c3e50" points="502,-944 502,-969 579,-969 579,-944 502,-944"/>
<text text-anchor="start" x="507" y="-953.8" font-family="monospace" font-style="italic" font-size="14.00" fill="#95a5a6">smallint</text>
<polygon fill="#ffffff" stroke="none" points="351,-919 351,-944 502,-944 502,-919 351,-919"/>
<polygon fill="none" stroke="#2c3e50" points="351,-919 351,-944 502,-944 502,-919 351,-919"/>
<text text-anchor="start" x="356" y="-927.8" font-family="monospace" font-size="14.00" fill="#000000">parrangestartincl</text>
<polygon fill="#ffffff" stroke="none" points="502,-919 502,-944 579,-944 579,-919 502,-919"/>
<polygon fill="none" stroke="#2c3e50" points="502,-919 502,-944 579,-944 579,-919 502,-919"/>
<text text-anchor="start" x="507" y="-928.8" font-family="monospace" font-style="italic" font-size="14.00" fill="#95a5a6">boolean</text>
<polygon fill="#ffffff" stroke="none" points="351,-894 351,-919 502,-919 502,-894 351,-894"/>
<polygon fill="none" stroke="#2c3e50" points="351,-894 351,-919 502,-919 502,-894 351,-894"/>
<text text-anchor="start" x="356" y="-902.8" font-family="monospace" font-size="14.00" fill="#000000">parrangeendincl</text>
<polygon fill="#ffffff" stroke="none" points="502,-894 502,-919 579,-919 579,-894 502,-894"/>
<polygon fill="none" stroke="#2c3e50" points="502,-894 502,-919 579,-919 579,-894 502,-894"/>
<text text-anchor="start" x="507" y="-903.8" font-family="monospace" font-style="italic" font-size="14.00" fill="#95a5a6">boolean</text>
<polygon fill="#ffffff" stroke="none" points="351,-869 351,-894 502,-894 502,-869 351,-869"/>
<polygon fill="none" stroke="#2c3e50" points="351,-869 351,-894 502,-894 502,-869 351,-869"/>
<text text-anchor="start" x="356" y="-877.8" font-family="monospace" font-size="14.00" fill="#000000">parrangestart</text>
<polygon fill="#ffffff" stroke="none" points="502,-869 502,-894 579,-894 579,-869 502,-869"/>
<polygon fill="none" stroke="#2c3e50" points="502,-869 502,-894 579,-894 579,-869 502,-869"/>
<text text-anchor="start" x="507" y="-878.8" font-family="monospace" font-style="italic" font-size="14.00" fill="#95a5a6">text</text>
<polygon fill="#ffffff" stroke="none" points="351,-844 351,-869 502,-869 502,-844 351,-844"/>
<polygon fill="none" stroke="#2c3e50" points="351,-844 351,-869 502,-869 502,-844 351,-844"/>
<text text-anchor="start" x="356" y="-852.8" font-family="monospace" font-size="14.00" fill="#000000">parrangeend</text>
<polygon fill="#ffffff" stroke="none" points="502,-844 502,-869 579,-869 579,-844 502,-844"/>
<polygon fill="none" stroke="#2c3e50" points="502,-844 502,-869 579,-869 579,-844 502,-844"/>
<text text-anchor="start" x="507" y="-853.8" font-family="monospace" font-style="italic" font-size="14.00" fill="#95a5a6">text</text>
<polygon fill="#ffffff" stroke="none" points="351,-819 351,-844 502,-844 502,-819 351,-819"/>
<polygon fill="none" stroke="#2c3e50" points="351,-819 351,-844 502,-844 502,-819 351,-819"/>
<text text-anchor="start" x="356" y="-827.8" font-family="monospace" font-size="14.00" fill="#000000">parrangeevery</text>
<polygon fill="#ffffff" stroke="none" points="502,-819 502,-844 579,-844 579,-819 502,-819"/>
<polygon fill="none" stroke="#2c3e50" points="502,-819 502,-844 579,-844 579,-819 502,-819"/>
<text text-anchor="start" x="507" y="-828.8" font-family="monospace" font-style="italic" font-size="14.00" fill="#95a5a6">text</text>
<polygon fill="#ffffff" stroke="none" points="351,-794 351,-819 502,-819 502,-794 351,-794"/>
<polygon fill="none" stroke="#2c3e50" points="351,-794 351,-819 502,-819 502,-794 351,-794"/>
<text text-anchor="start" x="356" y="-802.8" font-family="monospace" font-size="14.00" fill="#000000">parlistvalues</text>
<polygon fill="#ffffff" stroke="none" points="502,-794 502,-819 579,-819 579,-794 502,-794"/>
<polygon fill="none" stroke="#2c3e50" points="502,-794 502,-819 579,-819 579,-794 502,-794"/>
<text text-anchor="start" x="507" y="-803.8" font-family="monospace" font-style="italic" font-size="14.00" fill="#95a5a6">text</text>
<polygon fill="#ffffff" stroke="none" points="351,-769 351,-794 502,-794 502,-769 351,-769"/>
<polygon fill="none" stroke="#2c3e50" points="351,-769 351,-794 502,-794 502,-769 351,-769"/>
<text text-anchor="start" x="356" y="-777.8" font-family="monospace" font-size="14.00" fill="#000000">parreloptions</text>
<polygon fill="#ffffff" stroke="none" points="502,-769 502,-794 579,-794 579,-769 502,-769"/>
<polygon fill="none" stroke="#2c3e50" points="502,-769 502,-794 579,-794 579,-769 502,-769"/>
<text text-anchor="start" x="507" y="-778.8" font-family="monospace" font-style="italic" font-size="14.00" fill="#95a5a6">text[]</text>
<polygon fill="#ffffff" stroke="none" points="351,-744 351,-769 502,-769 502,-744 351,-744"/>
<polygon fill="none" stroke="#2c3e50" points="351,-744 351,-769 502,-769 502,-744 351,-744"/>
<text text-anchor="start" x="356" y="-752.8" font-family="monospace" font-size="14.00" fill="#000000">partemplatespace</text>
<polygon fill="#18bc9c" stroke="none" points="502,-744 502,-769 579,-769 579,-744 502,-744"/>
<polygon fill="none" stroke="#2c3e50" points="502,-744 502,-769 579,-769 579,-744 502,-744"/>
<text text-anchor="start" x="507" y="-753.8" font-family="monospace" font-style="italic" font-size="14.00" fill="#ffffff">oid</text>
</a>
</g>
</g>
<!-- pg_partition_rule&#45;&gt;pg_partition_rule -->
<g id="edge3" class="edge"><title>pg_partition_rule:parparentrule_out&#45;&gt;pg_partition_rule:oid_in</title>
<path fill="none" stroke="#e74c3c" d="M527.289,-1019C364.446,-874.656 0,-880.022 0,-1069.5 0,-1256.21 248.438,-1264.15 405.623,-1126.24"/>
<polygon fill="#e74c3c" stroke="#e74c3c" points="408.423,-1128.43 413.504,-1119.13 403.735,-1123.23 408.423,-1128.43"/>
</g>
<!-- pg_tablespace -->
<g id="node2" class="node"><title>pg_tablespace</title>
<g id="a_node2"><a xlink:href="pg_tablespace.svg" xlink:title="&lt;TABLE&gt;">
<polygon fill="#2c3e50" stroke="none" points="1043.5,-220 1043.5,-250 1262.5,-250 1262.5,-220 1043.5,-220"/>
<polygon fill="none" stroke="black" points="1043.5,-220 1043.5,-250 1262.5,-250 1262.5,-220 1043.5,-220"/>
<text text-anchor="start" x="1084.5" y="-231.6" font-family="monospace" font-weight="bold" font-size="18.00" fill="#ffffff">pg_tablespace</text>
<polygon fill="#18bc9c" stroke="none" points="1043.5,-195 1043.5,-220 1177.5,-220 1177.5,-195 1043.5,-195"/>
<polygon fill="none" stroke="#2c3e50" points="1043.5,-195 1043.5,-220 1177.5,-220 1177.5,-195 1043.5,-195"/>
<text text-anchor="start" x="1048.5" y="-203.8" font-family="monospace" font-size="14.00" fill="#ffffff">oid</text>
<polygon fill="#ffffff" stroke="none" points="1177.5,-195 1177.5,-220 1262.5,-220 1262.5,-195 1177.5,-195"/>
<polygon fill="none" stroke="#2c3e50" points="1177.5,-195 1177.5,-220 1262.5,-220 1262.5,-195 1177.5,-195"/>
<text text-anchor="start" x="1182.5" y="-204.8" font-family="monospace" font-style="italic" font-size="14.00" fill="#95a5a6">oid</text>
<polygon fill="#ffffff" stroke="none" points="1043.5,-170 1043.5,-195 1177.5,-195 1177.5,-170 1043.5,-170"/>
<polygon fill="none" stroke="#2c3e50" points="1043.5,-170 1043.5,-195 1177.5,-195 1177.5,-170 1043.5,-170"/>
<text text-anchor="start" x="1048.5" y="-178.8" font-family="monospace" font-size="14.00" fill="#000000">spcname</text>
<polygon fill="#ffffff" stroke="none" points="1177.5,-170 1177.5,-195 1262.5,-195 1262.5,-170 1177.5,-170"/>
<polygon fill="none" stroke="#2c3e50" points="1177.5,-170 1177.5,-195 1262.5,-195 1262.5,-170 1177.5,-170"/>
<text text-anchor="start" x="1182.5" y="-179.8" font-family="monospace" font-style="italic" font-size="14.00" fill="#95a5a6">name</text>
<polygon fill="#ffffff" stroke="none" points="1043.5,-145 1043.5,-170 1177.5,-170 1177.5,-145 1043.5,-145"/>
<polygon fill="none" stroke="#2c3e50" points="1043.5,-145 1043.5,-170 1177.5,-170 1177.5,-145 1043.5,-145"/>
<text text-anchor="start" x="1048.5" y="-153.8" font-family="monospace" font-size="14.00" fill="#000000">spcowner</text>
<polygon fill="#ffffff" stroke="none" points="1177.5,-145 1177.5,-170 1262.5,-170 1262.5,-145 1177.5,-145"/>
<polygon fill="none" stroke="#2c3e50" points="1177.5,-145 1177.5,-170 1262.5,-170 1262.5,-145 1177.5,-145"/>
<text text-anchor="start" x="1182.5" y="-154.8" font-family="monospace" font-style="italic" font-size="14.00" fill="#95a5a6">oid</text>
<polygon fill="#ffffff" stroke="none" points="1043.5,-120 1043.5,-145 1177.5,-145 1177.5,-120 1043.5,-120"/>
<polygon fill="none" stroke="#2c3e50" points="1043.5,-120 1043.5,-145 1177.5,-145 1177.5,-120 1043.5,-120"/>
<text text-anchor="start" x="1048.5" y="-128.8" font-family="monospace" font-size="14.00" fill="#000000">spclocation</text>
<polygon fill="#ffffff" stroke="none" points="1177.5,-120 1177.5,-145 1262.5,-145 1262.5,-120 1177.5,-120"/>
<polygon fill="none" stroke="#2c3e50" points="1177.5,-120 1177.5,-145 1262.5,-145 1262.5,-120 1177.5,-120"/>
<text text-anchor="start" x="1182.5" y="-129.8" font-family="monospace" font-style="italic" font-size="14.00" fill="#95a5a6">text</text>
<polygon fill="#ffffff" stroke="none" points="1043.5,-95 1043.5,-120 1177.5,-120 1177.5,-95 1043.5,-95"/>
<polygon fill="none" stroke="#2c3e50" points="1043.5,-95 1043.5,-120 1177.5,-120 1177.5,-95 1043.5,-95"/>
<text text-anchor="start" x="1048.5" y="-103.8" font-family="monospace" font-size="14.00" fill="#000000">spcacl</text>
<polygon fill="#ffffff" stroke="none" points="1177.5,-95 1177.5,-120 1262.5,-120 1262.5,-95 1177.5,-95"/>
<polygon fill="none" stroke="#2c3e50" points="1177.5,-95 1177.5,-120 1262.5,-120 1262.5,-95 1177.5,-95"/>
<text text-anchor="start" x="1182.5" y="-104.8" font-family="monospace" font-style="italic" font-size="14.00" fill="#95a5a6">aclitem[]</text>
<polygon fill="#ffffff" stroke="none" points="1043.5,-70 1043.5,-95 1177.5,-95 1177.5,-70 1043.5,-70"/>
<polygon fill="none" stroke="#2c3e50" points="1043.5,-70 1043.5,-95 1177.5,-95 1177.5,-70 1043.5,-70"/>
<text text-anchor="start" x="1048.5" y="-78.8" font-family="monospace" font-size="14.00" fill="#000000">spcprilocations</text>
<polygon fill="#ffffff" stroke="none" points="1177.5,-70 1177.5,-95 1262.5,-95 1262.5,-70 1177.5,-70"/>
<polygon fill="none" stroke="#2c3e50" points="1177.5,-70 1177.5,-95 1262.5,-95 1262.5,-70 1177.5,-70"/>
<text text-anchor="start" x="1182.5" y="-79.8" font-family="monospace" font-style="italic" font-size="14.00" fill="#95a5a6">text[]</text>
<polygon fill="#ffffff" stroke="none" points="1043.5,-45 1043.5,-70 1177.5,-70 1177.5,-45 1043.5,-45"/>
<polygon fill="none" stroke="#2c3e50" points="1043.5,-45 1043.5,-70 1177.5,-70 1177.5,-45 1043.5,-45"/>
<text text-anchor="start" x="1048.5" y="-53.8" font-family="monospace" font-size="14.00" fill="#000000">spcmirlocations</text>
<polygon fill="#ffffff" stroke="none" points="1177.5,-45 1177.5,-70 1262.5,-70 1262.5,-45 1177.5,-45"/>
<polygon fill="none" stroke="#2c3e50" points="1177.5,-45 1177.5,-70 1262.5,-70 1262.5,-45 1177.5,-45"/>
<text text-anchor="start" x="1182.5" y="-54.8" font-family="monospace" font-style="italic" font-size="14.00" fill="#95a5a6">text[]</text>
<polygon fill="#ffffff" stroke="none" points="1043.5,-20 1043.5,-45 1177.5,-45 1177.5,-20 1043.5,-20"/>
<polygon fill="none" stroke="#2c3e50" points="1043.5,-20 1043.5,-45 1177.5,-45 1177.5,-20 1043.5,-20"/>
<text text-anchor="start" x="1048.5" y="-28.8" font-family="monospace" font-size="14.00" fill="#000000">spcfsoid</text>
<polygon fill="#ffffff" stroke="none" points="1177.5,-20 1177.5,-45 1262.5,-45 1262.5,-20 1177.5,-20"/>
<polygon fill="none" stroke="#2c3e50" points="1177.5,-20 1177.5,-45 1262.5,-45 1262.5,-20 1177.5,-20"/>
<text text-anchor="start" x="1182.5" y="-29.8" font-family="monospace" font-style="italic" font-size="14.00" fill="#95a5a6">oid</text>
</a>
</g>
</g>
<!-- pg_partition_rule&#45;&gt;pg_tablespace -->
<g id="edge4" class="edge"><title>pg_partition_rule:partemplatespace_out&#45;&gt;pg_tablespace:oid_in</title>
<path fill="none" stroke="#2c3e50" d="M580,-756C819.51,-756 635.375,-426.775 819,-273 895.678,-208.787 936.303,-207.981 1032.4,-207.998"/>
<polygon fill="#2c3e50" stroke="#2c3e50" points="1032.5,-211.498 1042.5,-208 1032.5,-204.498 1032.5,-211.498"/>
</g>
<!-- pg_partition -->
<g id="node3" class="node"><title>pg_partition</title>
<g id="a_node3"><a xlink:href="pg_partition.svg" xlink:title="&lt;TABLE&gt;">
<polygon fill="#2c3e50" stroke="none" points="1043.5,-1344 1043.5,-1374 1262.5,-1374 1262.5,-1344 1043.5,-1344"/>
<polygon fill="none" stroke="black" points="1043.5,-1344 1043.5,-1374 1262.5,-1374 1262.5,-1344 1043.5,-1344"/>
<text text-anchor="start" x="1089.5" y="-1355.6" font-family="monospace" font-weight="bold" font-size="18.00" fill="#ffffff">pg_partition</text>
<polygon fill="#18bc9c" stroke="none" points="1043.5,-1319 1043.5,-1344 1161.5,-1344 1161.5,-1319 1043.5,-1319"/>
<polygon fill="none" stroke="#2c3e50" points="1043.5,-1319 1043.5,-1344 1161.5,-1344 1161.5,-1319 1043.5,-1319"/>
<text text-anchor="start" x="1048.5" y="-1327.8" font-family="monospace" font-size="14.00" fill="#ffffff">oid</text>
<polygon fill="#ffffff" stroke="none" points="1161.5,-1319 1161.5,-1344 1262.5,-1344 1262.5,-1319 1161.5,-1319"/>
<polygon fill="none" stroke="#2c3e50" points="1161.5,-1319 1161.5,-1344 1262.5,-1344 1262.5,-1319 1161.5,-1319"/>
<text text-anchor="start" x="1166.5" y="-1328.8" font-family="monospace" font-style="italic" font-size="14.00" fill="#95a5a6">oid</text>
<polygon fill="#ffffff" stroke="none" points="1043.5,-1294 1043.5,-1319 1161.5,-1319 1161.5,-1294 1043.5,-1294"/>
<polygon fill="none" stroke="#2c3e50" points="1043.5,-1294 1043.5,-1319 1161.5,-1319 1161.5,-1294 1043.5,-1294"/>
<text text-anchor="start" x="1048.5" y="-1302.8" font-family="monospace" font-size="14.00" fill="#000000">parrelid</text>
<polygon fill="#ffffff" stroke="none" points="1161.5,-1294 1161.5,-1319 1262.5,-1319 1262.5,-1294 1161.5,-1294"/>
<polygon fill="none" stroke="#2c3e50" points="1161.5,-1294 1161.5,-1319 1262.5,-1319 1262.5,-1294 1161.5,-1294"/>
<text text-anchor="start" x="1166.5" y="-1303.8" font-family="monospace" font-style="italic" font-size="14.00" fill="#95a5a6">oid</text>
<polygon fill="#ffffff" stroke="none" points="1043.5,-1269 1043.5,-1294 1161.5,-1294 1161.5,-1269 1043.5,-1269"/>
<polygon fill="none" stroke="#2c3e50" points="1043.5,-1269 1043.5,-1294 1161.5,-1294 1161.5,-1269 1043.5,-1269"/>
<text text-anchor="start" x="1048.5" y="-1277.8" font-family="monospace" font-size="14.00" fill="#000000">parkind</text>
<polygon fill="#ffffff" stroke="none" points="1161.5,-1269 1161.5,-1294 1262.5,-1294 1262.5,-1269 1161.5,-1269"/>
<polygon fill="none" stroke="#2c3e50" points="1161.5,-1269 1161.5,-1294 1262.5,-1294 1262.5,-1269 1161.5,-1269"/>
<text text-anchor="start" x="1166.5" y="-1278.8" font-family="monospace" font-style="italic" font-size="14.00" fill="#95a5a6">quoted_char</text>
<polygon fill="#ffffff" stroke="none" points="1043.5,-1244 1043.5,-1269 1161.5,-1269 1161.5,-1244 1043.5,-1244"/>
<polygon fill="none" stroke="#2c3e50" points="1043.5,-1244 1043.5,-1269 1161.5,-1269 1161.5,-1244 1043.5,-1244"/>
<text text-anchor="start" x="1048.5" y="-1252.8" font-family="monospace" font-size="14.00" fill="#000000">parlevel</text>
<polygon fill="#ffffff" stroke="none" points="1161.5,-1244 1161.5,-1269 1262.5,-1269 1262.5,-1244 1161.5,-1244"/>
<polygon fill="none" stroke="#2c3e50" points="1161.5,-1244 1161.5,-1269 1262.5,-1269 1262.5,-1244 1161.5,-1244"/>
<text text-anchor="start" x="1166.5" y="-1253.8" font-family="monospace" font-style="italic" font-size="14.00" fill="#95a5a6">smallint</text>
<polygon fill="#ffffff" stroke="none" points="1043.5,-1219 1043.5,-1244 1161.5,-1244 1161.5,-1219 1043.5,-1219"/>
<polygon fill="none" stroke="#2c3e50" points="1043.5,-1219 1043.5,-1244 1161.5,-1244 1161.5,-1219 1043.5,-1219"/>
<text text-anchor="start" x="1048.5" y="-1227.8" font-family="monospace" font-size="14.00" fill="#000000">paristemplate</text>
<polygon fill="#ffffff" stroke="none" points="1161.5,-1219 1161.5,-1244 1262.5,-1244 1262.5,-1219 1161.5,-1219"/>
<polygon fill="none" stroke="#2c3e50" points="1161.5,-1219 1161.5,-1244 1262.5,-1244 1262.5,-1219 1161.5,-1219"/>
<text text-anchor="start" x="1166.5" y="-1228.8" font-family="monospace" font-style="italic" font-size="14.00" fill="#95a5a6">boolean</text>
<polygon fill="#ffffff" stroke="none" points="1043.5,-1194 1043.5,-1219 1161.5,-1219 1161.5,-1194 1043.5,-1194"/>
<polygon fill="none" stroke="#2c3e50" points="1043.5,-1194 1043.5,-1219 1161.5,-1219 1161.5,-1194 1043.5,-1194"/>
<text text-anchor="start" x="1048.5" y="-1202.8" font-family="monospace" font-size="14.00" fill="#000000">parnatts</text>
<polygon fill="#ffffff" stroke="none" points="1161.5,-1194 1161.5,-1219 1262.5,-1219 1262.5,-1194 1161.5,-1194"/>
<polygon fill="none" stroke="#2c3e50" points="1161.5,-1194 1161.5,-1219 1262.5,-1219 1262.5,-1194 1161.5,-1194"/>
<text text-anchor="start" x="1166.5" y="-1203.8" font-family="monospace" font-style="italic" font-size="14.00" fill="#95a5a6">smallint</text>
<polygon fill="#ffffff" stroke="none" points="1043.5,-1169 1043.5,-1194 1161.5,-1194 1161.5,-1169 1043.5,-1169"/>
<polygon fill="none" stroke="#2c3e50" points="1043.5,-1169 1043.5,-1194 1161.5,-1194 1161.5,-1169 1043.5,-1169"/>
<text text-anchor="start" x="1048.5" y="-1177.8" font-family="monospace" font-size="14.00" fill="#000000">paratts</text>
<polygon fill="#ffffff" stroke="none" points="1161.5,-1169 1161.5,-1194 1262.5,-1194 1262.5,-1169 1161.5,-1169"/>
<polygon fill="none" stroke="#2c3e50" points="1161.5,-1169 1161.5,-1194 1262.5,-1194 1262.5,-1169 1161.5,-1169"/>
<text text-anchor="start" x="1166.5" y="-1178.8" font-family="monospace" font-style="italic" font-size="14.00" fill="#95a5a6">int2vector</text>
<polygon fill="#ffffff" stroke="none" points="1043.5,-1144 1043.5,-1169 1161.5,-1169 1161.5,-1144 1043.5,-1144"/>
<polygon fill="none" stroke="#2c3e50" points="1043.5,-1144 1043.5,-1169 1161.5,-1169 1161.5,-1144 1043.5,-1144"/>
<text text-anchor="start" x="1048.5" y="-1152.8" font-family="monospace" font-size="14.00" fill="#000000">parclass</text>
<polygon fill="#ffffff" stroke="none" points="1161.5,-1144 1161.5,-1169 1262.5,-1169 1262.5,-1144 1161.5,-1144"/>
<polygon fill="none" stroke="#2c3e50" points="1161.5,-1144 1161.5,-1169 1262.5,-1169 1262.5,-1144 1161.5,-1144"/>
<text text-anchor="start" x="1166.5" y="-1153.8" font-family="monospace" font-style="italic" font-size="14.00" fill="#95a5a6">oidvector</text>
</a>
</g>
</g>
<!-- pg_partition_rule&#45;&gt;pg_partition -->
<g id="edge1" class="edge"><title>pg_partition_rule:paroid_out&#45;&gt;pg_partition:oid_in</title>
<path fill="none" stroke="#2c3e50" d="M580,-1082C810.241,-1082 808.926,-1324.73 1032.38,-1331.84"/>
<polygon fill="#2c3e50" stroke="#2c3e50" points="1032.45,-1335.34 1042.5,-1332 1032.56,-1328.34 1032.45,-1335.34"/>
</g>
<!-- pg_class -->
<g id="node4" class="node"><title>pg_class</title>
<g id="a_node4"><a xlink:href="pg_class.svg" xlink:title="&lt;TABLE&gt;">
<polygon fill="#2c3e50" stroke="none" points="1039.5,-1069 1039.5,-1099 1266.5,-1099 1266.5,-1069 1039.5,-1069"/>
<polygon fill="none" stroke="black" points="1039.5,-1069 1039.5,-1099 1266.5,-1099 1266.5,-1069 1039.5,-1069"/>
<text text-anchor="start" x="1110.5" y="-1080.6" font-family="monospace" font-weight="bold" font-size="18.00" fill="#ffffff">pg_class</text>
<polygon fill="#18bc9c" stroke="none" points="1039.5,-1044 1039.5,-1069 1165.5,-1069 1165.5,-1044 1039.5,-1044"/>
<polygon fill="none" stroke="#2c3e50" points="1039.5,-1044 1039.5,-1069 1165.5,-1069 1165.5,-1044 1039.5,-1044"/>
<text text-anchor="start" x="1044.5" y="-1052.8" font-family="monospace" font-size="14.00" fill="#ffffff">oid</text>
<polygon fill="#ffffff" stroke="none" points="1165.5,-1044 1165.5,-1069 1266.5,-1069 1266.5,-1044 1165.5,-1044"/>
<polygon fill="none" stroke="#2c3e50" points="1165.5,-1044 1165.5,-1069 1266.5,-1069 1266.5,-1044 1165.5,-1044"/>
<text text-anchor="start" x="1170.5" y="-1053.8" font-family="monospace" font-style="italic" font-size="14.00" fill="#95a5a6">oid</text>
<polygon fill="#ffffff" stroke="none" points="1039.5,-1019 1039.5,-1044 1165.5,-1044 1165.5,-1019 1039.5,-1019"/>
<polygon fill="none" stroke="#2c3e50" points="1039.5,-1019 1039.5,-1044 1165.5,-1044 1165.5,-1019 1039.5,-1019"/>
<text text-anchor="start" x="1044.5" y="-1027.8" font-family="monospace" font-size="14.00" fill="#000000">relname</text>
<polygon fill="#ffffff" stroke="none" points="1165.5,-1019 1165.5,-1044 1266.5,-1044 1266.5,-1019 1165.5,-1019"/>
<polygon fill="none" stroke="#2c3e50" points="1165.5,-1019 1165.5,-1044 1266.5,-1044 1266.5,-1019 1165.5,-1019"/>
<text text-anchor="start" x="1170.5" y="-1028.8" font-family="monospace" font-style="italic" font-size="14.00" fill="#95a5a6">name</text>
<polygon fill="#ffffff" stroke="none" points="1039.5,-994 1039.5,-1019 1165.5,-1019 1165.5,-994 1039.5,-994"/>
<polygon fill="none" stroke="#2c3e50" points="1039.5,-994 1039.5,-1019 1165.5,-1019 1165.5,-994 1039.5,-994"/>
<text text-anchor="start" x="1044.5" y="-1002.8" font-family="monospace" font-size="14.00" fill="#000000">relnamespace</text>
<polygon fill="#ffffff" stroke="none" points="1165.5,-994 1165.5,-1019 1266.5,-1019 1266.5,-994 1165.5,-994"/>
<polygon fill="none" stroke="#2c3e50" points="1165.5,-994 1165.5,-1019 1266.5,-1019 1266.5,-994 1165.5,-994"/>
<text text-anchor="start" x="1170.5" y="-1003.8" font-family="monospace" font-style="italic" font-size="14.00" fill="#95a5a6">oid</text>
<polygon fill="#ffffff" stroke="none" points="1039.5,-969 1039.5,-994 1165.5,-994 1165.5,-969 1039.5,-969"/>
<polygon fill="none" stroke="#2c3e50" points="1039.5,-969 1039.5,-994 1165.5,-994 1165.5,-969 1039.5,-969"/>
<text text-anchor="start" x="1044.5" y="-977.8" font-family="monospace" font-size="14.00" fill="#000000">reltype</text>
<polygon fill="#ffffff" stroke="none" points="1165.5,-969 1165.5,-994 1266.5,-994 1266.5,-969 1165.5,-969"/>
<polygon fill="none" stroke="#2c3e50" points="1165.5,-969 1165.5,-994 1266.5,-994 1266.5,-969 1165.5,-969"/>
<text text-anchor="start" x="1170.5" y="-978.8" font-family="monospace" font-style="italic" font-size="14.00" fill="#95a5a6">oid</text>
<polygon fill="#ffffff" stroke="none" points="1039.5,-944 1039.5,-969 1165.5,-969 1165.5,-944 1039.5,-944"/>
<polygon fill="none" stroke="#2c3e50" points="1039.5,-944 1039.5,-969 1165.5,-969 1165.5,-944 1039.5,-944"/>
<text text-anchor="start" x="1044.5" y="-952.8" font-family="monospace" font-size="14.00" fill="#000000">relowner</text>
<polygon fill="#ffffff" stroke="none" points="1165.5,-944 1165.5,-969 1266.5,-969 1266.5,-944 1165.5,-944"/>
<polygon fill="none" stroke="#2c3e50" points="1165.5,-944 1165.5,-969 1266.5,-969 1266.5,-944 1165.5,-944"/>
<text text-anchor="start" x="1170.5" y="-953.8" font-family="monospace" font-style="italic" font-size="14.00" fill="#95a5a6">oid</text>
<polygon fill="#ffffff" stroke="none" points="1039.5,-919 1039.5,-944 1165.5,-944 1165.5,-919 1039.5,-919"/>
<polygon fill="none" stroke="#2c3e50" points="1039.5,-919 1039.5,-944 1165.5,-944 1165.5,-919 1039.5,-919"/>
<text text-anchor="start" x="1044.5" y="-927.8" font-family="monospace" font-size="14.00" fill="#000000">relam</text>
<polygon fill="#ffffff" stroke="none" points="1165.5,-919 1165.5,-944 1266.5,-944 1266.5,-919 1165.5,-919"/>
<polygon fill="none" stroke="#2c3e50" points="1165.5,-919 1165.5,-944 1266.5,-944 1266.5,-919 1165.5,-919"/>
<text text-anchor="start" x="1170.5" y="-928.8" font-family="monospace" font-style="italic" font-size="14.00" fill="#95a5a6">oid</text>
<polygon fill="#ffffff" stroke="none" points="1039.5,-894 1039.5,-919 1165.5,-919 1165.5,-894 1039.5,-894"/>
<polygon fill="none" stroke="#2c3e50" points="1039.5,-894 1039.5,-919 1165.5,-919 1165.5,-894 1039.5,-894"/>
<text text-anchor="start" x="1044.5" y="-902.8" font-family="monospace" font-size="14.00" fill="#000000">relfilenode</text>
<polygon fill="#ffffff" stroke="none" points="1165.5,-894 1165.5,-919 1266.5,-919 1266.5,-894 1165.5,-894"/>
<polygon fill="none" stroke="#2c3e50" points="1165.5,-894 1165.5,-919 1266.5,-919 1266.5,-894 1165.5,-894"/>
<text text-anchor="start" x="1170.5" y="-903.8" font-family="monospace" font-style="italic" font-size="14.00" fill="#95a5a6">oid</text>
<polygon fill="#ffffff" stroke="none" points="1039.5,-869 1039.5,-894 1165.5,-894 1165.5,-869 1039.5,-869"/>
<polygon fill="none" stroke="#2c3e50" points="1039.5,-869 1039.5,-894 1165.5,-894 1165.5,-869 1039.5,-869"/>
<text text-anchor="start" x="1044.5" y="-877.8" font-family="monospace" font-size="14.00" fill="#000000">reltablespace</text>
<polygon fill="#ffffff" stroke="none" points="1165.5,-869 1165.5,-894 1266.5,-894 1266.5,-869 1165.5,-869"/>
<polygon fill="none" stroke="#2c3e50" points="1165.5,-869 1165.5,-894 1266.5,-894 1266.5,-869 1165.5,-869"/>
<text text-anchor="start" x="1170.5" y="-878.8" font-family="monospace" font-style="italic" font-size="14.00" fill="#95a5a6">oid</text>
<polygon fill="#ffffff" stroke="none" points="1039.5,-844 1039.5,-869 1165.5,-869 1165.5,-844 1039.5,-844"/>
<polygon fill="none" stroke="#2c3e50" points="1039.5,-844 1039.5,-869 1165.5,-869 1165.5,-844 1039.5,-844"/>
<text text-anchor="start" x="1044.5" y="-852.8" font-family="monospace" font-size="14.00" fill="#000000">relpages</text>
<polygon fill="#ffffff" stroke="none" points="1165.5,-844 1165.5,-869 1266.5,-869 1266.5,-844 1165.5,-844"/>
<polygon fill="none" stroke="#2c3e50" points="1165.5,-844 1165.5,-869 1266.5,-869 1266.5,-844 1165.5,-844"/>
<text text-anchor="start" x="1170.5" y="-853.8" font-family="monospace" font-style="italic" font-size="14.00" fill="#95a5a6">integer</text>
<polygon fill="#ffffff" stroke="none" points="1039.5,-819 1039.5,-844 1165.5,-844 1165.5,-819 1039.5,-819"/>
<polygon fill="none" stroke="#2c3e50" points="1039.5,-819 1039.5,-844 1165.5,-844 1165.5,-819 1039.5,-819"/>
<text text-anchor="start" x="1044.5" y="-827.8" font-family="monospace" font-size="14.00" fill="#000000">reltuples</text>
<polygon fill="#ffffff" stroke="none" points="1165.5,-819 1165.5,-844 1266.5,-844 1266.5,-819 1165.5,-819"/>
<polygon fill="none" stroke="#2c3e50" points="1165.5,-819 1165.5,-844 1266.5,-844 1266.5,-819 1165.5,-819"/>
<text text-anchor="start" x="1170.5" y="-828.8" font-family="monospace" font-style="italic" font-size="14.00" fill="#95a5a6">real</text>
<polygon fill="#ffffff" stroke="none" points="1039.5,-794 1039.5,-819 1165.5,-819 1165.5,-794 1039.5,-794"/>
<polygon fill="none" stroke="#2c3e50" points="1039.5,-794 1039.5,-819 1165.5,-819 1165.5,-794 1039.5,-794"/>
<text text-anchor="start" x="1044.5" y="-802.8" font-family="monospace" font-size="14.00" fill="#000000">reltoastrelid</text>
<polygon fill="#ffffff" stroke="none" points="1165.5,-794 1165.5,-819 1266.5,-819 1266.5,-794 1165.5,-794"/>
<polygon fill="none" stroke="#2c3e50" points="1165.5,-794 1165.5,-819 1266.5,-819 1266.5,-794 1165.5,-794"/>
<text text-anchor="start" x="1170.5" y="-803.8" font-family="monospace" font-style="italic" font-size="14.00" fill="#95a5a6">oid</text>
<polygon fill="#ffffff" stroke="none" points="1039.5,-769 1039.5,-794 1165.5,-794 1165.5,-769 1039.5,-769"/>
<polygon fill="none" stroke="#2c3e50" points="1039.5,-769 1039.5,-794 1165.5,-794 1165.5,-769 1039.5,-769"/>
<text text-anchor="start" x="1044.5" y="-777.8" font-family="monospace" font-size="14.00" fill="#000000">reltoastidxid</text>
<polygon fill="#ffffff" stroke="none" points="1165.5,-769 1165.5,-794 1266.5,-794 1266.5,-769 1165.5,-769"/>
<polygon fill="none" stroke="#2c3e50" points="1165.5,-769 1165.5,-794 1266.5,-794 1266.5,-769 1165.5,-769"/>
<text text-anchor="start" x="1170.5" y="-778.8" font-family="monospace" font-style="italic" font-size="14.00" fill="#95a5a6">oid</text>
<polygon fill="#ffffff" stroke="none" points="1039.5,-744 1039.5,-769 1165.5,-769 1165.5,-744 1039.5,-744"/>
<polygon fill="none" stroke="#2c3e50" points="1039.5,-744 1039.5,-769 1165.5,-769 1165.5,-744 1039.5,-744"/>
<text text-anchor="start" x="1044.5" y="-752.8" font-family="monospace" font-size="14.00" fill="#000000">relaosegrelid</text>
<polygon fill="#ffffff" stroke="none" points="1165.5,-744 1165.5,-769 1266.5,-769 1266.5,-744 1165.5,-744"/>
<polygon fill="none" stroke="#2c3e50" points="1165.5,-744 1165.5,-769 1266.5,-769 1266.5,-744 1165.5,-744"/>
<text text-anchor="start" x="1170.5" y="-753.8" font-family="monospace" font-style="italic" font-size="14.00" fill="#95a5a6">oid</text>
<polygon fill="#ffffff" stroke="none" points="1039.5,-719 1039.5,-744 1165.5,-744 1165.5,-719 1039.5,-719"/>
<polygon fill="none" stroke="#2c3e50" points="1039.5,-719 1039.5,-744 1165.5,-744 1165.5,-719 1039.5,-719"/>
<text text-anchor="start" x="1044.5" y="-727.8" font-family="monospace" font-size="14.00" fill="#000000">relaosegidxid</text>
<polygon fill="#ffffff" stroke="none" points="1165.5,-719 1165.5,-744 1266.5,-744 1266.5,-719 1165.5,-719"/>
<polygon fill="none" stroke="#2c3e50" points="1165.5,-719 1165.5,-744 1266.5,-744 1266.5,-719 1165.5,-719"/>
<text text-anchor="start" x="1170.5" y="-728.8" font-family="monospace" font-style="italic" font-size="14.00" fill="#95a5a6">oid</text>
<polygon fill="#ffffff" stroke="none" points="1039.5,-694 1039.5,-719 1165.5,-719 1165.5,-694 1039.5,-694"/>
<polygon fill="none" stroke="#2c3e50" points="1039.5,-694 1039.5,-719 1165.5,-719 1165.5,-694 1039.5,-694"/>
<text text-anchor="start" x="1044.5" y="-702.8" font-family="monospace" font-size="14.00" fill="#000000">relhasindex</text>
<polygon fill="#ffffff" stroke="none" points="1165.5,-694 1165.5,-719 1266.5,-719 1266.5,-694 1165.5,-694"/>
<polygon fill="none" stroke="#2c3e50" points="1165.5,-694 1165.5,-719 1266.5,-719 1266.5,-694 1165.5,-694"/>
<text text-anchor="start" x="1170.5" y="-703.8" font-family="monospace" font-style="italic" font-size="14.00" fill="#95a5a6">boolean</text>
<polygon fill="#ffffff" stroke="none" points="1039.5,-669 1039.5,-694 1165.5,-694 1165.5,-669 1039.5,-669"/>
<polygon fill="none" stroke="#2c3e50" points="1039.5,-669 1039.5,-694 1165.5,-694 1165.5,-669 1039.5,-669"/>
<text text-anchor="start" x="1044.5" y="-677.8" font-family="monospace" font-size="14.00" fill="#000000">relisshared</text>
<polygon fill="#ffffff" stroke="none" points="1165.5,-669 1165.5,-694 1266.5,-694 1266.5,-669 1165.5,-669"/>
<polygon fill="none" stroke="#2c3e50" points="1165.5,-669 1165.5,-694 1266.5,-694 1266.5,-669 1165.5,-669"/>
<text text-anchor="start" x="1170.5" y="-678.8" font-family="monospace" font-style="italic" font-size="14.00" fill="#95a5a6">boolean</text>
<polygon fill="#ffffff" stroke="none" points="1039.5,-644 1039.5,-669 1165.5,-669 1165.5,-644 1039.5,-644"/>
<polygon fill="none" stroke="#2c3e50" points="1039.5,-644 1039.5,-669 1165.5,-669 1165.5,-644 1039.5,-644"/>
<text text-anchor="start" x="1044.5" y="-652.8" font-family="monospace" font-size="14.00" fill="#000000">relkind</text>
<polygon fill="#ffffff" stroke="none" points="1165.5,-644 1165.5,-669 1266.5,-669 1266.5,-644 1165.5,-644"/>
<polygon fill="none" stroke="#2c3e50" points="1165.5,-644 1165.5,-669 1266.5,-669 1266.5,-644 1165.5,-644"/>
<text text-anchor="start" x="1170.5" y="-653.8" font-family="monospace" font-style="italic" font-size="14.00" fill="#95a5a6">quoted_char</text>
<polygon fill="#ffffff" stroke="none" points="1039.5,-619 1039.5,-644 1165.5,-644 1165.5,-619 1039.5,-619"/>
<polygon fill="none" stroke="#2c3e50" points="1039.5,-619 1039.5,-644 1165.5,-644 1165.5,-619 1039.5,-619"/>
<text text-anchor="start" x="1044.5" y="-627.8" font-family="monospace" font-size="14.00" fill="#000000">relstorage</text>
<polygon fill="#ffffff" stroke="none" points="1165.5,-619 1165.5,-644 1266.5,-644 1266.5,-619 1165.5,-619"/>
<polygon fill="none" stroke="#2c3e50" points="1165.5,-619 1165.5,-644 1266.5,-644 1266.5,-619 1165.5,-619"/>
<text text-anchor="start" x="1170.5" y="-628.8" font-family="monospace" font-style="italic" font-size="14.00" fill="#95a5a6">quoted_char</text>
<polygon fill="#ffffff" stroke="none" points="1039.5,-594 1039.5,-619 1165.5,-619 1165.5,-594 1039.5,-594"/>
<polygon fill="none" stroke="#2c3e50" points="1039.5,-594 1039.5,-619 1165.5,-619 1165.5,-594 1039.5,-594"/>
<text text-anchor="start" x="1044.5" y="-602.8" font-family="monospace" font-size="14.00" fill="#000000">relnatts</text>
<polygon fill="#ffffff" stroke="none" points="1165.5,-594 1165.5,-619 1266.5,-619 1266.5,-594 1165.5,-594"/>
<polygon fill="none" stroke="#2c3e50" points="1165.5,-594 1165.5,-619 1266.5,-619 1266.5,-594 1165.5,-594"/>
<text text-anchor="start" x="1170.5" y="-603.8" font-family="monospace" font-style="italic" font-size="14.00" fill="#95a5a6">smallint</text>
<polygon fill="#ffffff" stroke="none" points="1039.5,-569 1039.5,-594 1165.5,-594 1165.5,-569 1039.5,-569"/>
<polygon fill="none" stroke="#2c3e50" points="1039.5,-569 1039.5,-594 1165.5,-594 1165.5,-569 1039.5,-569"/>
<text text-anchor="start" x="1044.5" y="-577.8" font-family="monospace" font-size="14.00" fill="#000000">relchecks</text>
<polygon fill="#ffffff" stroke="none" points="1165.5,-569 1165.5,-594 1266.5,-594 1266.5,-569 1165.5,-569"/>
<polygon fill="none" stroke="#2c3e50" points="1165.5,-569 1165.5,-594 1266.5,-594 1266.5,-569 1165.5,-569"/>
<text text-anchor="start" x="1170.5" y="-578.8" font-family="monospace" font-style="italic" font-size="14.00" fill="#95a5a6">smallint</text>
<polygon fill="#ffffff" stroke="none" points="1039.5,-544 1039.5,-569 1165.5,-569 1165.5,-544 1039.5,-544"/>
<polygon fill="none" stroke="#2c3e50" points="1039.5,-544 1039.5,-569 1165.5,-569 1165.5,-544 1039.5,-544"/>
<text text-anchor="start" x="1044.5" y="-552.8" font-family="monospace" font-size="14.00" fill="#000000">reltriggers</text>
<polygon fill="#ffffff" stroke="none" points="1165.5,-544 1165.5,-569 1266.5,-569 1266.5,-544 1165.5,-544"/>
<polygon fill="none" stroke="#2c3e50" points="1165.5,-544 1165.5,-569 1266.5,-569 1266.5,-544 1165.5,-544"/>
<text text-anchor="start" x="1170.5" y="-553.8" font-family="monospace" font-style="italic" font-size="14.00" fill="#95a5a6">smallint</text>
<polygon fill="#ffffff" stroke="none" points="1039.5,-519 1039.5,-544 1165.5,-544 1165.5,-519 1039.5,-519"/>
<polygon fill="none" stroke="#2c3e50" points="1039.5,-519 1039.5,-544 1165.5,-544 1165.5,-519 1039.5,-519"/>
<text text-anchor="start" x="1044.5" y="-527.8" font-family="monospace" font-size="14.00" fill="#000000">relukeys</text>
<polygon fill="#ffffff" stroke="none" points="1165.5,-519 1165.5,-544 1266.5,-544 1266.5,-519 1165.5,-519"/>
<polygon fill="none" stroke="#2c3e50" points="1165.5,-519 1165.5,-544 1266.5,-544 1266.5,-519 1165.5,-519"/>
<text text-anchor="start" x="1170.5" y="-528.8" font-family="monospace" font-style="italic" font-size="14.00" fill="#95a5a6">smallint</text>
<polygon fill="#ffffff" stroke="none" points="1039.5,-494 1039.5,-519 1165.5,-519 1165.5,-494 1039.5,-494"/>
<polygon fill="none" stroke="#2c3e50" points="1039.5,-494 1039.5,-519 1165.5,-519 1165.5,-494 1039.5,-494"/>
<text text-anchor="start" x="1044.5" y="-502.8" font-family="monospace" font-size="14.00" fill="#000000">relfkeys</text>
<polygon fill="#ffffff" stroke="none" points="1165.5,-494 1165.5,-519 1266.5,-519 1266.5,-494 1165.5,-494"/>
<polygon fill="none" stroke="#2c3e50" points="1165.5,-494 1165.5,-519 1266.5,-519 1266.5,-494 1165.5,-494"/>
<text text-anchor="start" x="1170.5" y="-503.8" font-family="monospace" font-style="italic" font-size="14.00" fill="#95a5a6">smallint</text>
<polygon fill="#ffffff" stroke="none" points="1039.5,-469 1039.5,-494 1165.5,-494 1165.5,-469 1039.5,-469"/>
<polygon fill="none" stroke="#2c3e50" points="1039.5,-469 1039.5,-494 1165.5,-494 1165.5,-469 1039.5,-469"/>
<text text-anchor="start" x="1044.5" y="-477.8" font-family="monospace" font-size="14.00" fill="#000000">relrefs</text>
<polygon fill="#ffffff" stroke="none" points="1165.5,-469 1165.5,-494 1266.5,-494 1266.5,-469 1165.5,-469"/>
<polygon fill="none" stroke="#2c3e50" points="1165.5,-469 1165.5,-494 1266.5,-494 1266.5,-469 1165.5,-469"/>
<text text-anchor="start" x="1170.5" y="-478.8" font-family="monospace" font-style="italic" font-size="14.00" fill="#95a5a6">smallint</text>
<polygon fill="#ffffff" stroke="none" points="1039.5,-444 1039.5,-469 1165.5,-469 1165.5,-444 1039.5,-444"/>
<polygon fill="none" stroke="#2c3e50" points="1039.5,-444 1039.5,-469 1165.5,-469 1165.5,-444 1039.5,-444"/>
<text text-anchor="start" x="1044.5" y="-452.8" font-family="monospace" font-size="14.00" fill="#000000">relhasoids</text>
<polygon fill="#ffffff" stroke="none" points="1165.5,-444 1165.5,-469 1266.5,-469 1266.5,-444 1165.5,-444"/>
<polygon fill="none" stroke="#2c3e50" points="1165.5,-444 1165.5,-469 1266.5,-469 1266.5,-444 1165.5,-444"/>
<text text-anchor="start" x="1170.5" y="-453.8" font-family="monospace" font-style="italic" font-size="14.00" fill="#95a5a6">boolean</text>
<polygon fill="#ffffff" stroke="none" points="1039.5,-419 1039.5,-444 1165.5,-444 1165.5,-419 1039.5,-419"/>
<polygon fill="none" stroke="#2c3e50" points="1039.5,-419 1039.5,-444 1165.5,-444 1165.5,-419 1039.5,-419"/>
<text text-anchor="start" x="1044.5" y="-427.8" font-family="monospace" font-size="14.00" fill="#000000">relhaspkey</text>
<polygon fill="#ffffff" stroke="none" points="1165.5,-419 1165.5,-444 1266.5,-444 1266.5,-419 1165.5,-419"/>
<polygon fill="none" stroke="#2c3e50" points="1165.5,-419 1165.5,-444 1266.5,-444 1266.5,-419 1165.5,-419"/>
<text text-anchor="start" x="1170.5" y="-428.8" font-family="monospace" font-style="italic" font-size="14.00" fill="#95a5a6">boolean</text>
<polygon fill="#ffffff" stroke="none" points="1039.5,-394 1039.5,-419 1165.5,-419 1165.5,-394 1039.5,-394"/>
<polygon fill="none" stroke="#2c3e50" points="1039.5,-394 1039.5,-419 1165.5,-419 1165.5,-394 1039.5,-394"/>
<text text-anchor="start" x="1044.5" y="-402.8" font-family="monospace" font-size="14.00" fill="#000000">relhasrules</text>
<polygon fill="#ffffff" stroke="none" points="1165.5,-394 1165.5,-419 1266.5,-419 1266.5,-394 1165.5,-394"/>
<polygon fill="none" stroke="#2c3e50" points="1165.5,-394 1165.5,-419 1266.5,-419 1266.5,-394 1165.5,-394"/>
<text text-anchor="start" x="1170.5" y="-403.8" font-family="monospace" font-style="italic" font-size="14.00" fill="#95a5a6">boolean</text>
<polygon fill="#ffffff" stroke="none" points="1039.5,-369 1039.5,-394 1165.5,-394 1165.5,-369 1039.5,-369"/>
<polygon fill="none" stroke="#2c3e50" points="1039.5,-369 1039.5,-394 1165.5,-394 1165.5,-369 1039.5,-369"/>
<text text-anchor="start" x="1044.5" y="-377.8" font-family="monospace" font-size="14.00" fill="#000000">relhassubclass</text>
<polygon fill="#ffffff" stroke="none" points="1165.5,-369 1165.5,-394 1266.5,-394 1266.5,-369 1165.5,-369"/>
<polygon fill="none" stroke="#2c3e50" points="1165.5,-369 1165.5,-394 1266.5,-394 1266.5,-369 1165.5,-369"/>
<text text-anchor="start" x="1170.5" y="-378.8" font-family="monospace" font-style="italic" font-size="14.00" fill="#95a5a6">boolean</text>
<polygon fill="#ffffff" stroke="none" points="1039.5,-344 1039.5,-369 1165.5,-369 1165.5,-344 1039.5,-344"/>
<polygon fill="none" stroke="#2c3e50" points="1039.5,-344 1039.5,-369 1165.5,-369 1165.5,-344 1039.5,-344"/>
<text text-anchor="start" x="1044.5" y="-352.8" font-family="monospace" font-size="14.00" fill="#000000">relfrozenxid</text>
<polygon fill="#ffffff" stroke="none" points="1165.5,-344 1165.5,-369 1266.5,-369 1266.5,-344 1165.5,-344"/>
<polygon fill="none" stroke="#2c3e50" points="1165.5,-344 1165.5,-369 1266.5,-369 1266.5,-344 1165.5,-344"/>
<text text-anchor="start" x="1170.5" y="-353.8" font-family="monospace" font-style="italic" font-size="14.00" fill="#95a5a6">xid</text>
<polygon fill="#ffffff" stroke="none" points="1039.5,-319 1039.5,-344 1165.5,-344 1165.5,-319 1039.5,-319"/>
<polygon fill="none" stroke="#2c3e50" points="1039.5,-319 1039.5,-344 1165.5,-344 1165.5,-319 1039.5,-319"/>
<text text-anchor="start" x="1044.5" y="-327.8" font-family="monospace" font-size="14.00" fill="#000000">relacl</text>
<polygon fill="#ffffff" stroke="none" points="1165.5,-319 1165.5,-344 1266.5,-344 1266.5,-319 1165.5,-319"/>
<polygon fill="none" stroke="#2c3e50" points="1165.5,-319 1165.5,-344 1266.5,-344 1266.5,-319 1165.5,-319"/>
<text text-anchor="start" x="1170.5" y="-328.8" font-family="monospace" font-style="italic" font-size="14.00" fill="#95a5a6">aclitem[]</text>
<polygon fill="#ffffff" stroke="none" points="1039.5,-294 1039.5,-319 1165.5,-319 1165.5,-294 1039.5,-294"/>
<polygon fill="none" stroke="#2c3e50" points="1039.5,-294 1039.5,-319 1165.5,-319 1165.5,-294 1039.5,-294"/>
<text text-anchor="start" x="1044.5" y="-302.8" font-family="monospace" font-size="14.00" fill="#000000">reloptions</text>
<polygon fill="#ffffff" stroke="none" points="1165.5,-294 1165.5,-319 1266.5,-319 1266.5,-294 1165.5,-294"/>
<polygon fill="none" stroke="#2c3e50" points="1165.5,-294 1165.5,-319 1266.5,-319 1266.5,-294 1165.5,-294"/>
<text text-anchor="start" x="1170.5" y="-303.8" font-family="monospace" font-style="italic" font-size="14.00" fill="#95a5a6">text[]</text>
</a>
</g>
</g>
<!-- pg_partition_rule&#45;&gt;pg_class -->
<g id="edge2" class="edge"><title>pg_partition_rule:parchildrelid_out&#45;&gt;pg_class:oid_in</title>
<path fill="none" stroke="#2c3e50" d="M580,-1057C780.395,-1057 832.989,-1057 1028.48,-1057"/>
<polygon fill="#2c3e50" stroke="#2c3e50" points="1028.5,-1060.5 1038.5,-1057 1028.5,-1053.5 1028.5,-1060.5"/>
</g>
</g>
</svg>
