<?xml version="1.0" encoding="UTF-8" standalone="no"?>
<!DOCTYPE svg PUBLIC "-//W3C//DTD SVG 1.1//EN"
 "http://www.w3.org/Graphics/SVG/1.1/DTD/svg11.dtd">
<!-- Generated by graphviz version 2.38.0 (20140413.2041)
 -->
<!-- Title: GPDB Pages: 1 -->
<svg width="1584pt" height="429pt"
 viewBox="0.00 0.00 1584.00 429.00" xmlns="http://www.w3.org/2000/svg" xmlns:xlink="http://www.w3.org/1999/xlink">
<g id="graph0" class="graph" transform="scale(1 1) rotate(0) translate(36 393)">
<title>GPDB</title>
<polygon fill="white" stroke="none" points="-36,36 -36,-393 1548,-393 1548,36 -36,36"/>
<text text-anchor="middle" x="756" y="-327.4" font-family="Helvetica,sans-Serif" font-size="32.00">Greenplum System Catalog: pg_partition_encoding</text>
<g id="clust2" class="cluster"><title>cluster_selected</title>
</g>
<g id="clust3" class="cluster"><title>cluster_to</title>
</g>
<!-- pg_partition_encoding -->
<g id="node1" class="node"><title>pg_partition_encoding</title>
<polygon fill="#2c3e50" stroke="none" points="257.5,-220 257.5,-250 488.5,-250 488.5,-220 257.5,-220"/>
<polygon fill="none" stroke="black" points="257.5,-220 257.5,-250 488.5,-250 488.5,-220 257.5,-220"/>
<text text-anchor="start" x="262.5" y="-231.6" font-family="monospace" font-weight="bold" font-size="18.00" fill="#ffffff">pg_partition_encoding</text>
<polygon fill="#ffffff" stroke="none" points="257.5,-195 257.5,-220 405.5,-220 405.5,-195 257.5,-195"/>
<polygon fill="none" stroke="#2c3e50" points="257.5,-195 257.5,-220 405.5,-220 405.5,-195 257.5,-195"/>
<text text-anchor="start" x="262.5" y="-203.8" font-family="monospace" font-size="14.00" fill="#000000">parencoid</text>
<polygon fill="#18bc9c" stroke="none" points="405.5,-195 405.5,-220 488.5,-220 488.5,-195 405.5,-195"/>
<polygon fill="none" stroke="#2c3e50" points="405.5,-195 405.5,-220 488.5,-220 488.5,-195 405.5,-195"/>
<text text-anchor="start" x="410.5" y="-204.8" font-family="monospace" font-style="italic" font-size="14.00" fill="#ffffff">oid</text>
<polygon fill="#ffffff" stroke="none" points="257.5,-170 257.5,-195 405.5,-195 405.5,-170 257.5,-170"/>
<polygon fill="none" stroke="#2c3e50" points="257.5,-170 257.5,-195 405.5,-195 405.5,-170 257.5,-170"/>
<text text-anchor="start" x="262.5" y="-178.8" font-family="monospace" font-size="14.00" fill="#000000">parencattnum</text>
<polygon fill="#ffffff" stroke="none" points="405.5,-170 405.5,-195 488.5,-195 488.5,-170 405.5,-170"/>
<polygon fill="none" stroke="#2c3e50" points="405.5,-170 405.5,-195 488.5,-195 488.5,-170 405.5,-170"/>
<text text-anchor="start" x="410.5" y="-179.8" font-family="monospace" font-style="italic" font-size="14.00" fill="#95a5a6">smallint</text>
<polygon fill="#ffffff" stroke="none" points="257.5,-145 257.5,-170 405.5,-170 405.5,-145 257.5,-145"/>
<polygon fill="none" stroke="#2c3e50" points="257.5,-145 257.5,-170 405.5,-170 405.5,-145 257.5,-145"/>
<text text-anchor="start" x="262.5" y="-153.8" font-family="monospace" font-size="14.00" fill="#000000">parencattoptions</text>
<polygon fill="#ffffff" stroke="none" points="405.5,-145 405.5,-170 488.5,-170 488.5,-145 405.5,-145"/>
<polygon fill="none" stroke="#2c3e50" points="405.5,-145 405.5,-170 488.5,-170 488.5,-145 405.5,-145"/>
<text text-anchor="start" x="410.5" y="-154.8" font-family="monospace" font-style="italic" font-size="14.00" fill="#95a5a6">text[]</text>
</g>
<!-- pg_partition -->
<g id="node2" class="node"><title>pg_partition</title>
<polygon fill="#2c3e50" stroke="none" points="1029.5,-220 1029.5,-250 1248.5,-250 1248.5,-220 1029.5,-220"/>
<polygon fill="none" stroke="black" points="1029.5,-220 1029.5,-250 1248.5,-250 1248.5,-220 1029.5,-220"/>
<text text-anchor="start" x="1075.5" y="-231.6" font-family="monospace" font-weight="bold" font-size="18.00" fill="#ffffff">pg_partition</text>
<polygon fill="#18bc9c" stroke="none" points="1029.5,-195 1029.5,-220 1147.5,-220 1147.5,-195 1029.5,-195"/>
<polygon fill="none" stroke="#2c3e50" points="1029.5,-195 1029.5,-220 1147.5,-220 1147.5,-195 1029.5,-195"/>
<text text-anchor="start" x="1034.5" y="-203.8" font-family="monospace" font-size="14.00" fill="#ffffff">oid</text>
<polygon fill="#ffffff" stroke="none" points="1147.5,-195 1147.5,-220 1248.5,-220 1248.5,-195 1147.5,-195"/>
<polygon fill="none" stroke="#2c3e50" points="1147.5,-195 1147.5,-220 1248.5,-220 1248.5,-195 1147.5,-195"/>
<text text-anchor="start" x="1152.5" y="-204.8" font-family="monospace" font-style="italic" font-size="14.00" fill="#95a5a6">oid</text>
<polygon fill="#ffffff" stroke="none" points="1029.5,-170 1029.5,-195 1147.5,-195 1147.5,-170 1029.5,-170"/>
<polygon fill="none" stroke="#2c3e50" points="1029.5,-170 1029.5,-195 1147.5,-195 1147.5,-170 1029.5,-170"/>
<text text-anchor="start" x="1034.5" y="-178.8" font-family="monospace" font-size="14.00" fill="#000000">parrelid</text>
<polygon fill="#ffffff" stroke="none" points="1147.5,-170 1147.5,-195 1248.5,-195 1248.5,-170 1147.5,-170"/>
<polygon fill="none" stroke="#2c3e50" points="1147.5,-170 1147.5,-195 1248.5,-195 1248.5,-170 1147.5,-170"/>
<text text-anchor="start" x="1152.5" y="-179.8" font-family="monospace" font-style="italic" font-size="14.00" fill="#95a5a6">oid</text>
<polygon fill="#ffffff" stroke="none" points="1029.5,-145 1029.5,-170 1147.5,-170 1147.5,-145 1029.5,-145"/>
<polygon fill="none" stroke="#2c3e50" points="1029.5,-145 1029.5,-170 1147.5,-170 1147.5,-145 1029.5,-145"/>
<text text-anchor="start" x="1034.5" y="-153.8" font-family="monospace" font-size="14.00" fill="#000000">parkind</text>
<polygon fill="#ffffff" stroke="none" points="1147.5,-145 1147.5,-170 1248.5,-170 1248.5,-145 1147.5,-145"/>
<polygon fill="none" stroke="#2c3e50" points="1147.5,-145 1147.5,-170 1248.5,-170 1248.5,-145 1147.5,-145"/>
<text text-anchor="start" x="1152.5" y="-154.8" font-family="monospace" font-style="italic" font-size="14.00" fill="#95a5a6">quoted_char</text>
<polygon fill="#ffffff" stroke="none" points="1029.5,-120 1029.5,-145 1147.5,-145 1147.5,-120 1029.5,-120"/>
<polygon fill="none" stroke="#2c3e50" points="1029.5,-120 1029.5,-145 1147.5,-145 1147.5,-120 1029.5,-120"/>
<text text-anchor="start" x="1034.5" y="-128.8" font-family="monospace" font-size="14.00" fill="#000000">parlevel</text>
<polygon fill="#ffffff" stroke="none" points="1147.5,-120 1147.5,-145 1248.5,-145 1248.5,-120 1147.5,-120"/>
<polygon fill="none" stroke="#2c3e50" points="1147.5,-120 1147.5,-145 1248.5,-145 1248.5,-120 1147.5,-120"/>
<text text-anchor="start" x="1152.5" y="-129.8" font-family="monospace" font-style="italic" font-size="14.00" fill="#95a5a6">smallint</text>
<polygon fill="#ffffff" stroke="none" points="1029.5,-95 1029.5,-120 1147.5,-120 1147.5,-95 1029.5,-95"/>
<polygon fill="none" stroke="#2c3e50" points="1029.5,-95 1029.5,-120 1147.5,-120 1147.5,-95 1029.5,-95"/>
<text text-anchor="start" x="1034.5" y="-103.8" font-family="monospace" font-size="14.00" fill="#000000">paristemplate</text>
<polygon fill="#ffffff" stroke="none" points="1147.5,-95 1147.5,-120 1248.5,-120 1248.5,-95 1147.5,-95"/>
<polygon fill="none" stroke="#2c3e50" points="1147.5,-95 1147.5,-120 1248.5,-120 1248.5,-95 1147.5,-95"/>
<text text-anchor="start" x="1152.5" y="-104.8" font-family="monospace" font-style="italic" font-size="14.00" fill="#95a5a6">boolean</text>
<polygon fill="#ffffff" stroke="none" points="1029.5,-70 1029.5,-95 1147.5,-95 1147.5,-70 1029.5,-70"/>
<polygon fill="none" stroke="#2c3e50" points="1029.5,-70 1029.5,-95 1147.5,-95 1147.5,-70 1029.5,-70"/>
<text text-anchor="start" x="1034.5" y="-78.8" font-family="monospace" font-size="14.00" fill="#000000">parnatts</text>
<polygon fill="#ffffff" stroke="none" points="1147.5,-70 1147.5,-95 1248.5,-95 1248.5,-70 1147.5,-70"/>
<polygon fill="none" stroke="#2c3e50" points="1147.5,-70 1147.5,-95 1248.5,-95 1248.5,-70 1147.5,-70"/>
<text text-anchor="start" x="1152.5" y="-79.8" font-family="monospace" font-style="italic" font-size="14.00" fill="#95a5a6">smallint</text>
<polygon fill="#ffffff" stroke="none" points="1029.5,-45 1029.5,-70 1147.5,-70 1147.5,-45 1029.5,-45"/>
<polygon fill="none" stroke="#2c3e50" points="1029.5,-45 1029.5,-70 1147.5,-70 1147.5,-45 1029.5,-45"/>
<text text-anchor="start" x="1034.5" y="-53.8" font-family="monospace" font-size="14.00" fill="#000000">paratts</text>
<polygon fill="#ffffff" stroke="none" points="1147.5,-45 1147.5,-70 1248.5,-70 1248.5,-45 1147.5,-45"/>
<polygon fill="none" stroke="#2c3e50" points="1147.5,-45 1147.5,-70 1248.5,-70 1248.5,-45 1147.5,-45"/>
<text text-anchor="start" x="1152.5" y="-54.8" font-family="monospace" font-style="italic" font-size="14.00" fill="#95a5a6">int2vector</text>
<polygon fill="#ffffff" stroke="none" points="1029.5,-20 1029.5,-45 1147.5,-45 1147.5,-20 1029.5,-20"/>
<polygon fill="none" stroke="#2c3e50" points="1029.5,-20 1029.5,-45 1147.5,-45 1147.5,-20 1029.5,-20"/>
<text text-anchor="start" x="1034.5" y="-28.8" font-family="monospace" font-size="14.00" fill="#000000">parclass</text>
<polygon fill="#ffffff" stroke="none" points="1147.5,-20 1147.5,-45 1248.5,-45 1248.5,-20 1147.5,-20"/>
<polygon fill="none" stroke="#2c3e50" points="1147.5,-20 1147.5,-45 1248.5,-45 1248.5,-20 1147.5,-20"/>
<text text-anchor="start" x="1152.5" y="-29.8" font-family="monospace" font-style="italic" font-size="14.00" fill="#95a5a6">oidvector</text>
</g>
<!-- pg_partition_encoding&#45;&gt;pg_partition -->
<g id="edge1" class="edge"><title>pg_partition_encoding:parencoid_out&#45;&gt;pg_partition:oid_in</title>
<path fill="none" stroke="#2c3e50" d="M489.5,-208C725.663,-208 787.212,-208 1018.43,-208"/>
<polygon fill="#2c3e50" stroke="#2c3e50" points="1018.5,-211.5 1028.5,-208 1018.5,-204.5 1018.5,-211.5"/>
</g>
</g>
</svg>
