<?xml version="1.0" encoding="UTF-8" standalone="no"?>
<!DOCTYPE svg PUBLIC "-//W3C//DTD SVG 1.1//EN"
 "http://www.w3.org/Graphics/SVG/1.1/DTD/svg11.dtd">
<!-- Generated by graphviz version 2.38.0 (20140413.2041)
 -->
<!-- Title: GPDB Pages: 1 -->
<svg width="1903pt" height="1266pt"
 viewBox="0.00 0.00 1903.00 1266.00" xmlns="http://www.w3.org/2000/svg" xmlns:xlink="http://www.w3.org/1999/xlink">
<g id="graph0" class="graph" transform="scale(1 1) rotate(0) translate(36 1230)">
<title>GPDB</title>
<polygon fill="white" stroke="none" points="-36,36 -36,-1230 1867,-1230 1867,36 -36,36"/>
<text text-anchor="middle" x="915.5" y="-1164.4" font-family="Helvetica,sans-Serif" font-size="32.00">Greenplum System Catalog: pg_partition</text>
<g id="clust1" class="cluster"><title>cluster_from</title>
</g>
<g id="clust2" class="cluster"><title>cluster_selected</title>
</g>
<g id="clust3" class="cluster"><title>cluster_to</title>
</g>
<!-- pg_partition_rule -->
<g id="node1" class="node"><title>pg_partition_rule</title>
<polygon fill="#2c3e50" stroke="none" points="184.5,-1057 184.5,-1087 412.5,-1087 412.5,-1057 184.5,-1057"/>
<polygon fill="none" stroke="black" points="184.5,-1057 184.5,-1087 412.5,-1087 412.5,-1057 184.5,-1057"/>
<text text-anchor="start" x="209" y="-1068.6" font-family="monospace" font-weight="bold" font-size="18.00" fill="#ffffff">pg_partition_rule</text>
<polygon fill="#ffffff" stroke="none" points="184.5,-1032 184.5,-1057 335.5,-1057 335.5,-1032 184.5,-1032"/>
<polygon fill="none" stroke="#2c3e50" points="184.5,-1032 184.5,-1057 335.5,-1057 335.5,-1032 184.5,-1032"/>
<text text-anchor="start" x="189.5" y="-1040.8" font-family="monospace" font-size="14.00" fill="#000000">oid</text>
<polygon fill="#ffffff" stroke="none" points="335.5,-1032 335.5,-1057 412.5,-1057 412.5,-1032 335.5,-1032"/>
<polygon fill="none" stroke="#2c3e50" points="335.5,-1032 335.5,-1057 412.5,-1057 412.5,-1032 335.5,-1032"/>
<text text-anchor="start" x="340.5" y="-1041.8" font-family="monospace" font-style="italic" font-size="14.00" fill="#95a5a6">oid</text>
<polygon fill="#ffffff" stroke="none" points="184.5,-1007 184.5,-1032 335.5,-1032 335.5,-1007 184.5,-1007"/>
<polygon fill="none" stroke="#2c3e50" points="184.5,-1007 184.5,-1032 335.5,-1032 335.5,-1007 184.5,-1007"/>
<text text-anchor="start" x="189.5" y="-1015.8" font-family="monospace" font-size="14.00" fill="#000000">paroid</text>
<polygon fill="#18bc9c" stroke="none" points="335.5,-1007 335.5,-1032 412.5,-1032 412.5,-1007 335.5,-1007"/>
<polygon fill="none" stroke="#2c3e50" points="335.5,-1007 335.5,-1032 412.5,-1032 412.5,-1007 335.5,-1007"/>
<text text-anchor="start" x="340.5" y="-1016.8" font-family="monospace" font-style="italic" font-size="14.00" fill="#ffffff">oid</text>
<polygon fill="#ffffff" stroke="none" points="184.5,-982 184.5,-1007 335.5,-1007 335.5,-982 184.5,-982"/>
<polygon fill="none" stroke="#2c3e50" points="184.5,-982 184.5,-1007 335.5,-1007 335.5,-982 184.5,-982"/>
<text text-anchor="start" x="189.5" y="-990.8" font-family="monospace" font-size="14.00" fill="#000000">parchildrelid</text>
<polygon fill="#ffffff" stroke="none" points="335.5,-982 335.5,-1007 412.5,-1007 412.5,-982 335.5,-982"/>
<polygon fill="none" stroke="#2c3e50" points="335.5,-982 335.5,-1007 412.5,-1007 412.5,-982 335.5,-982"/>
<text text-anchor="start" x="340.5" y="-991.8" font-family="monospace" font-style="italic" font-size="14.00" fill="#95a5a6">oid</text>
<polygon fill="#ffffff" stroke="none" points="184.5,-957 184.5,-982 335.5,-982 335.5,-957 184.5,-957"/>
<polygon fill="none" stroke="#2c3e50" points="184.5,-957 184.5,-982 335.5,-982 335.5,-957 184.5,-957"/>
<text text-anchor="start" x="189.5" y="-965.8" font-family="monospace" font-size="14.00" fill="#000000">parparentrule</text>
<polygon fill="#ffffff" stroke="none" points="335.5,-957 335.5,-982 412.5,-982 412.5,-957 335.5,-957"/>
<polygon fill="none" stroke="#2c3e50" points="335.5,-957 335.5,-982 412.5,-982 412.5,-957 335.5,-957"/>
<text text-anchor="start" x="340.5" y="-966.8" font-family="monospace" font-style="italic" font-size="14.00" fill="#95a5a6">oid</text>
<polygon fill="#ffffff" stroke="none" points="184.5,-932 184.5,-957 335.5,-957 335.5,-932 184.5,-932"/>
<polygon fill="none" stroke="#2c3e50" points="184.5,-932 184.5,-957 335.5,-957 335.5,-932 184.5,-932"/>
<text text-anchor="start" x="189.5" y="-940.8" font-family="monospace" font-size="14.00" fill="#000000">parname</text>
<polygon fill="#ffffff" stroke="none" points="335.5,-932 335.5,-957 412.5,-957 412.5,-932 335.5,-932"/>
<polygon fill="none" stroke="#2c3e50" points="335.5,-932 335.5,-957 412.5,-957 412.5,-932 335.5,-932"/>
<text text-anchor="start" x="340.5" y="-941.8" font-family="monospace" font-style="italic" font-size="14.00" fill="#95a5a6">name</text>
<polygon fill="#ffffff" stroke="none" points="184.5,-907 184.5,-932 335.5,-932 335.5,-907 184.5,-907"/>
<polygon fill="none" stroke="#2c3e50" points="184.5,-907 184.5,-932 335.5,-932 335.5,-907 184.5,-907"/>
<text text-anchor="start" x="189.5" y="-915.8" font-family="monospace" font-size="14.00" fill="#000000">parisdefault</text>
<polygon fill="#ffffff" stroke="none" points="335.5,-907 335.5,-932 412.5,-932 412.5,-907 335.5,-907"/>
<polygon fill="none" stroke="#2c3e50" points="335.5,-907 335.5,-932 412.5,-932 412.5,-907 335.5,-907"/>
<text text-anchor="start" x="340.5" y="-916.8" font-family="monospace" font-style="italic" font-size="14.00" fill="#95a5a6">boolean</text>
<polygon fill="#ffffff" stroke="none" points="184.5,-882 184.5,-907 335.5,-907 335.5,-882 184.5,-882"/>
<polygon fill="none" stroke="#2c3e50" points="184.5,-882 184.5,-907 335.5,-907 335.5,-882 184.5,-882"/>
<text text-anchor="start" x="189.5" y="-890.8" font-family="monospace" font-size="14.00" fill="#000000">parruleord</text>
<polygon fill="#ffffff" stroke="none" points="335.5,-882 335.5,-907 412.5,-907 412.5,-882 335.5,-882"/>
<polygon fill="none" stroke="#2c3e50" points="335.5,-882 335.5,-907 412.5,-907 412.5,-882 335.5,-882"/>
<text text-anchor="start" x="340.5" y="-891.8" font-family="monospace" font-style="italic" font-size="14.00" fill="#95a5a6">smallint</text>
<polygon fill="#ffffff" stroke="none" points="184.5,-857 184.5,-882 335.5,-882 335.5,-857 184.5,-857"/>
<polygon fill="none" stroke="#2c3e50" points="184.5,-857 184.5,-882 335.5,-882 335.5,-857 184.5,-857"/>
<text text-anchor="start" x="189.5" y="-865.8" font-family="monospace" font-size="14.00" fill="#000000">parrangestartincl</text>
<polygon fill="#ffffff" stroke="none" points="335.5,-857 335.5,-882 412.5,-882 412.5,-857 335.5,-857"/>
<polygon fill="none" stroke="#2c3e50" points="335.5,-857 335.5,-882 412.5,-882 412.5,-857 335.5,-857"/>
<text text-anchor="start" x="340.5" y="-866.8" font-family="monospace" font-style="italic" font-size="14.00" fill="#95a5a6">boolean</text>
<polygon fill="#ffffff" stroke="none" points="184.5,-832 184.5,-857 335.5,-857 335.5,-832 184.5,-832"/>
<polygon fill="none" stroke="#2c3e50" points="184.5,-832 184.5,-857 335.5,-857 335.5,-832 184.5,-832"/>
<text text-anchor="start" x="189.5" y="-840.8" font-family="monospace" font-size="14.00" fill="#000000">parrangeendincl</text>
<polygon fill="#ffffff" stroke="none" points="335.5,-832 335.5,-857 412.5,-857 412.5,-832 335.5,-832"/>
<polygon fill="none" stroke="#2c3e50" points="335.5,-832 335.5,-857 412.5,-857 412.5,-832 335.5,-832"/>
<text text-anchor="start" x="340.5" y="-841.8" font-family="monospace" font-style="italic" font-size="14.00" fill="#95a5a6">boolean</text>
<polygon fill="#ffffff" stroke="none" points="184.5,-807 184.5,-832 335.5,-832 335.5,-807 184.5,-807"/>
<polygon fill="none" stroke="#2c3e50" points="184.5,-807 184.5,-832 335.5,-832 335.5,-807 184.5,-807"/>
<text text-anchor="start" x="189.5" y="-815.8" font-family="monospace" font-size="14.00" fill="#000000">parrangestart</text>
<polygon fill="#ffffff" stroke="none" points="335.5,-807 335.5,-832 412.5,-832 412.5,-807 335.5,-807"/>
<polygon fill="none" stroke="#2c3e50" points="335.5,-807 335.5,-832 412.5,-832 412.5,-807 335.5,-807"/>
<text text-anchor="start" x="340.5" y="-816.8" font-family="monospace" font-style="italic" font-size="14.00" fill="#95a5a6">text</text>
<polygon fill="#ffffff" stroke="none" points="184.5,-782 184.5,-807 335.5,-807 335.5,-782 184.5,-782"/>
<polygon fill="none" stroke="#2c3e50" points="184.5,-782 184.5,-807 335.5,-807 335.5,-782 184.5,-782"/>
<text text-anchor="start" x="189.5" y="-790.8" font-family="monospace" font-size="14.00" fill="#000000">parrangeend</text>
<polygon fill="#ffffff" stroke="none" points="335.5,-782 335.5,-807 412.5,-807 412.5,-782 335.5,-782"/>
<polygon fill="none" stroke="#2c3e50" points="335.5,-782 335.5,-807 412.5,-807 412.5,-782 335.5,-782"/>
<text text-anchor="start" x="340.5" y="-791.8" font-family="monospace" font-style="italic" font-size="14.00" fill="#95a5a6">text</text>
<polygon fill="#ffffff" stroke="none" points="184.5,-757 184.5,-782 335.5,-782 335.5,-757 184.5,-757"/>
<polygon fill="none" stroke="#2c3e50" points="184.5,-757 184.5,-782 335.5,-782 335.5,-757 184.5,-757"/>
<text text-anchor="start" x="189.5" y="-765.8" font-family="monospace" font-size="14.00" fill="#000000">parrangeevery</text>
<polygon fill="#ffffff" stroke="none" points="335.5,-757 335.5,-782 412.5,-782 412.5,-757 335.5,-757"/>
<polygon fill="none" stroke="#2c3e50" points="335.5,-757 335.5,-782 412.5,-782 412.5,-757 335.5,-757"/>
<text text-anchor="start" x="340.5" y="-766.8" font-family="monospace" font-style="italic" font-size="14.00" fill="#95a5a6">text</text>
<polygon fill="#ffffff" stroke="none" points="184.5,-732 184.5,-757 335.5,-757 335.5,-732 184.5,-732"/>
<polygon fill="none" stroke="#2c3e50" points="184.5,-732 184.5,-757 335.5,-757 335.5,-732 184.5,-732"/>
<text text-anchor="start" x="189.5" y="-740.8" font-family="monospace" font-size="14.00" fill="#000000">parlistvalues</text>
<polygon fill="#ffffff" stroke="none" points="335.5,-732 335.5,-757 412.5,-757 412.5,-732 335.5,-732"/>
<polygon fill="none" stroke="#2c3e50" points="335.5,-732 335.5,-757 412.5,-757 412.5,-732 335.5,-732"/>
<text text-anchor="start" x="340.5" y="-741.8" font-family="monospace" font-style="italic" font-size="14.00" fill="#95a5a6">text</text>
<polygon fill="#ffffff" stroke="none" points="184.5,-707 184.5,-732 335.5,-732 335.5,-707 184.5,-707"/>
<polygon fill="none" stroke="#2c3e50" points="184.5,-707 184.5,-732 335.5,-732 335.5,-707 184.5,-707"/>
<text text-anchor="start" x="189.5" y="-715.8" font-family="monospace" font-size="14.00" fill="#000000">parreloptions</text>
<polygon fill="#ffffff" stroke="none" points="335.5,-707 335.5,-732 412.5,-732 412.5,-707 335.5,-707"/>
<polygon fill="none" stroke="#2c3e50" points="335.5,-707 335.5,-732 412.5,-732 412.5,-707 335.5,-707"/>
<text text-anchor="start" x="340.5" y="-716.8" font-family="monospace" font-style="italic" font-size="14.00" fill="#95a5a6">text[]</text>
<polygon fill="#ffffff" stroke="none" points="184.5,-682 184.5,-707 335.5,-707 335.5,-682 184.5,-682"/>
<polygon fill="none" stroke="#2c3e50" points="184.5,-682 184.5,-707 335.5,-707 335.5,-682 184.5,-682"/>
<text text-anchor="start" x="189.5" y="-690.8" font-family="monospace" font-size="14.00" fill="#000000">partemplatespace</text>
<polygon fill="#ffffff" stroke="none" points="335.5,-682 335.5,-707 412.5,-707 412.5,-682 335.5,-682"/>
<polygon fill="none" stroke="#2c3e50" points="335.5,-682 335.5,-707 412.5,-707 412.5,-682 335.5,-682"/>
<text text-anchor="start" x="340.5" y="-691.8" font-family="monospace" font-style="italic" font-size="14.00" fill="#95a5a6">oid</text>
</g>
<!-- pg_partition -->
<g id="node3" class="node"><title>pg_partition</title>
<polygon fill="#2c3e50" stroke="none" points="806.5,-820 806.5,-850 1025.5,-850 1025.5,-820 806.5,-820"/>
<polygon fill="none" stroke="black" points="806.5,-820 806.5,-850 1025.5,-850 1025.5,-820 806.5,-820"/>
<text text-anchor="start" x="852.5" y="-831.6" font-family="monospace" font-weight="bold" font-size="18.00" fill="#ffffff">pg_partition</text>
<polygon fill="#18bc9c" stroke="none" points="806.5,-795 806.5,-820 924.5,-820 924.5,-795 806.5,-795"/>
<polygon fill="none" stroke="#2c3e50" points="806.5,-795 806.5,-820 924.5,-820 924.5,-795 806.5,-795"/>
<text text-anchor="start" x="811.5" y="-803.8" font-family="monospace" font-size="14.00" fill="#ffffff">oid</text>
<polygon fill="#ffffff" stroke="none" points="924.5,-795 924.5,-820 1025.5,-820 1025.5,-795 924.5,-795"/>
<polygon fill="none" stroke="#2c3e50" points="924.5,-795 924.5,-820 1025.5,-820 1025.5,-795 924.5,-795"/>
<text text-anchor="start" x="929.5" y="-804.8" font-family="monospace" font-style="italic" font-size="14.00" fill="#95a5a6">oid</text>
<polygon fill="#ffffff" stroke="none" points="806.5,-770 806.5,-795 924.5,-795 924.5,-770 806.5,-770"/>
<polygon fill="none" stroke="#2c3e50" points="806.5,-770 806.5,-795 924.5,-795 924.5,-770 806.5,-770"/>
<text text-anchor="start" x="811.5" y="-778.8" font-family="monospace" font-size="14.00" fill="#000000">parrelid</text>
<polygon fill="#18bc9c" stroke="none" points="924.5,-770 924.5,-795 1025.5,-795 1025.5,-770 924.5,-770"/>
<polygon fill="none" stroke="#2c3e50" points="924.5,-770 924.5,-795 1025.5,-795 1025.5,-770 924.5,-770"/>
<text text-anchor="start" x="929.5" y="-779.8" font-family="monospace" font-style="italic" font-size="14.00" fill="#ffffff">oid</text>
<polygon fill="#ffffff" stroke="none" points="806.5,-745 806.5,-770 924.5,-770 924.5,-745 806.5,-745"/>
<polygon fill="none" stroke="#2c3e50" points="806.5,-745 806.5,-770 924.5,-770 924.5,-745 806.5,-745"/>
<text text-anchor="start" x="811.5" y="-753.8" font-family="monospace" font-size="14.00" fill="#000000">parkind</text>
<polygon fill="#ffffff" stroke="none" points="924.5,-745 924.5,-770 1025.5,-770 1025.5,-745 924.5,-745"/>
<polygon fill="none" stroke="#2c3e50" points="924.5,-745 924.5,-770 1025.5,-770 1025.5,-745 924.5,-745"/>
<text text-anchor="start" x="929.5" y="-754.8" font-family="monospace" font-style="italic" font-size="14.00" fill="#95a5a6">quoted_char</text>
<polygon fill="#ffffff" stroke="none" points="806.5,-720 806.5,-745 924.5,-745 924.5,-720 806.5,-720"/>
<polygon fill="none" stroke="#2c3e50" points="806.5,-720 806.5,-745 924.5,-745 924.5,-720 806.5,-720"/>
<text text-anchor="start" x="811.5" y="-728.8" font-family="monospace" font-size="14.00" fill="#000000">parlevel</text>
<polygon fill="#ffffff" stroke="none" points="924.5,-720 924.5,-745 1025.5,-745 1025.5,-720 924.5,-720"/>
<polygon fill="none" stroke="#2c3e50" points="924.5,-720 924.5,-745 1025.5,-745 1025.5,-720 924.5,-720"/>
<text text-anchor="start" x="929.5" y="-729.8" font-family="monospace" font-style="italic" font-size="14.00" fill="#95a5a6">smallint</text>
<polygon fill="#ffffff" stroke="none" points="806.5,-695 806.5,-720 924.5,-720 924.5,-695 806.5,-695"/>
<polygon fill="none" stroke="#2c3e50" points="806.5,-695 806.5,-720 924.5,-720 924.5,-695 806.5,-695"/>
<text text-anchor="start" x="811.5" y="-703.8" font-family="monospace" font-size="14.00" fill="#000000">paristemplate</text>
<polygon fill="#ffffff" stroke="none" points="924.5,-695 924.5,-720 1025.5,-720 1025.5,-695 924.5,-695"/>
<polygon fill="none" stroke="#2c3e50" points="924.5,-695 924.5,-720 1025.5,-720 1025.5,-695 924.5,-695"/>
<text text-anchor="start" x="929.5" y="-704.8" font-family="monospace" font-style="italic" font-size="14.00" fill="#95a5a6">boolean</text>
<polygon fill="#ffffff" stroke="none" points="806.5,-670 806.5,-695 924.5,-695 924.5,-670 806.5,-670"/>
<polygon fill="none" stroke="#2c3e50" points="806.5,-670 806.5,-695 924.5,-695 924.5,-670 806.5,-670"/>
<text text-anchor="start" x="811.5" y="-678.8" font-family="monospace" font-size="14.00" fill="#000000">parnatts</text>
<polygon fill="#ffffff" stroke="none" points="924.5,-670 924.5,-695 1025.5,-695 1025.5,-670 924.5,-670"/>
<polygon fill="none" stroke="#2c3e50" points="924.5,-670 924.5,-695 1025.5,-695 1025.5,-670 924.5,-670"/>
<text text-anchor="start" x="929.5" y="-679.8" font-family="monospace" font-style="italic" font-size="14.00" fill="#95a5a6">smallint</text>
<polygon fill="#ffffff" stroke="none" points="806.5,-645 806.5,-670 924.5,-670 924.5,-645 806.5,-645"/>
<polygon fill="none" stroke="#2c3e50" points="806.5,-645 806.5,-670 924.5,-670 924.5,-645 806.5,-645"/>
<text text-anchor="start" x="811.5" y="-653.8" font-family="monospace" font-size="14.00" fill="#000000">paratts</text>
<polygon fill="#ffffff" stroke="none" points="924.5,-645 924.5,-670 1025.5,-670 1025.5,-645 924.5,-645"/>
<polygon fill="none" stroke="#2c3e50" points="924.5,-645 924.5,-670 1025.5,-670 1025.5,-645 924.5,-645"/>
<text text-anchor="start" x="929.5" y="-654.8" font-family="monospace" font-style="italic" font-size="14.00" fill="#95a5a6">int2vector</text>
<polygon fill="#ffffff" stroke="none" points="806.5,-620 806.5,-645 924.5,-645 924.5,-620 806.5,-620"/>
<polygon fill="none" stroke="#2c3e50" points="806.5,-620 806.5,-645 924.5,-645 924.5,-620 806.5,-620"/>
<text text-anchor="start" x="811.5" y="-628.8" font-family="monospace" font-size="14.00" fill="#000000">parclass</text>
<polygon fill="#ffffff" stroke="none" points="924.5,-620 924.5,-645 1025.5,-645 1025.5,-620 924.5,-620"/>
<polygon fill="none" stroke="#2c3e50" points="924.5,-620 924.5,-645 1025.5,-645 1025.5,-620 924.5,-620"/>
<text text-anchor="start" x="929.5" y="-629.8" font-family="monospace" font-style="italic" font-size="14.00" fill="#95a5a6">oidvector</text>
</g>
<!-- pg_partition_rule&#45;&gt;pg_partition -->
<g id="edge3" class="edge"><title>pg_partition_rule:paroid_out&#45;&gt;pg_partition:oid_in</title>
<path fill="none" stroke="#2c3e50" d="M413.5,-1020C608.087,-1020 607.514,-815.388 795.24,-808.194"/>
<polygon fill="#2c3e50" stroke="#2c3e50" points="795.568,-811.689 805.5,-808 795.436,-804.69 795.568,-811.689"/>
</g>
<!-- pg_partition_encoding -->
<g id="node2" class="node"><title>pg_partition_encoding</title>
<polygon fill="#2c3e50" stroke="none" points="183.5,-608 183.5,-638 414.5,-638 414.5,-608 183.5,-608"/>
<polygon fill="none" stroke="black" points="183.5,-608 183.5,-638 414.5,-638 414.5,-608 183.5,-608"/>
<text text-anchor="start" x="188.5" y="-619.6" font-family="monospace" font-weight="bold" font-size="18.00" fill="#ffffff">pg_partition_encoding</text>
<polygon fill="#ffffff" stroke="none" points="183.5,-583 183.5,-608 331.5,-608 331.5,-583 183.5,-583"/>
<polygon fill="none" stroke="#2c3e50" points="183.5,-583 183.5,-608 331.5,-608 331.5,-583 183.5,-583"/>
<text text-anchor="start" x="188.5" y="-591.8" font-family="monospace" font-size="14.00" fill="#000000">parencoid</text>
<polygon fill="#18bc9c" stroke="none" points="331.5,-583 331.5,-608 414.5,-608 414.5,-583 331.5,-583"/>
<polygon fill="none" stroke="#2c3e50" points="331.5,-583 331.5,-608 414.5,-608 414.5,-583 331.5,-583"/>
<text text-anchor="start" x="336.5" y="-592.8" font-family="monospace" font-style="italic" font-size="14.00" fill="#ffffff">oid</text>
<polygon fill="#ffffff" stroke="none" points="183.5,-558 183.5,-583 331.5,-583 331.5,-558 183.5,-558"/>
<polygon fill="none" stroke="#2c3e50" points="183.5,-558 183.5,-583 331.5,-583 331.5,-558 183.5,-558"/>
<text text-anchor="start" x="188.5" y="-566.8" font-family="monospace" font-size="14.00" fill="#000000">parencattnum</text>
<polygon fill="#ffffff" stroke="none" points="331.5,-558 331.5,-583 414.5,-583 414.5,-558 331.5,-558"/>
<polygon fill="none" stroke="#2c3e50" points="331.5,-558 331.5,-583 414.5,-583 414.5,-558 331.5,-558"/>
<text text-anchor="start" x="336.5" y="-567.8" font-family="monospace" font-style="italic" font-size="14.00" fill="#95a5a6">smallint</text>
<polygon fill="#ffffff" stroke="none" points="183.5,-533 183.5,-558 331.5,-558 331.5,-533 183.5,-533"/>
<polygon fill="none" stroke="#2c3e50" points="183.5,-533 183.5,-558 331.5,-558 331.5,-533 183.5,-533"/>
<text text-anchor="start" x="188.5" y="-541.8" font-family="monospace" font-size="14.00" fill="#000000">parencattoptions</text>
<polygon fill="#ffffff" stroke="none" points="331.5,-533 331.5,-558 414.5,-558 414.5,-533 331.5,-533"/>
<polygon fill="none" stroke="#2c3e50" points="331.5,-533 331.5,-558 414.5,-558 414.5,-533 331.5,-533"/>
<text text-anchor="start" x="336.5" y="-542.8" font-family="monospace" font-style="italic" font-size="14.00" fill="#95a5a6">text[]</text>
</g>
<!-- pg_partition_encoding&#45;&gt;pg_partition -->
<g id="edge2" class="edge"><title>pg_partition_encoding:parencoid_out&#45;&gt;pg_partition:oid_in</title>
<path fill="none" stroke="#2c3e50" d="M415.5,-596C501.184,-596 520.959,-621.509 597,-661 694.478,-711.624 692.358,-802.12 795.212,-807.727"/>
<polygon fill="#2c3e50" stroke="#2c3e50" points="795.411,-811.233 805.5,-808 795.597,-804.236 795.411,-811.233"/>
</g>
<!-- pg_class -->
<g id="node4" class="node"><title>pg_class</title>
<polygon fill="#2c3e50" stroke="none" points="1419.5,-795 1419.5,-825 1646.5,-825 1646.5,-795 1419.5,-795"/>
<polygon fill="none" stroke="black" points="1419.5,-795 1419.5,-825 1646.5,-825 1646.5,-795 1419.5,-795"/>
<text text-anchor="start" x="1490.5" y="-806.6" font-family="monospace" font-weight="bold" font-size="18.00" fill="#ffffff">pg_class</text>
<polygon fill="#18bc9c" stroke="none" points="1419.5,-770 1419.5,-795 1545.5,-795 1545.5,-770 1419.5,-770"/>
<polygon fill="none" stroke="#2c3e50" points="1419.5,-770 1419.5,-795 1545.5,-795 1545.5,-770 1419.5,-770"/>
<text text-anchor="start" x="1424.5" y="-778.8" font-family="monospace" font-size="14.00" fill="#ffffff">oid</text>
<polygon fill="#ffffff" stroke="none" points="1545.5,-770 1545.5,-795 1646.5,-795 1646.5,-770 1545.5,-770"/>
<polygon fill="none" stroke="#2c3e50" points="1545.5,-770 1545.5,-795 1646.5,-795 1646.5,-770 1545.5,-770"/>
<text text-anchor="start" x="1550.5" y="-779.8" font-family="monospace" font-style="italic" font-size="14.00" fill="#95a5a6">oid</text>
<polygon fill="#ffffff" stroke="none" points="1419.5,-745 1419.5,-770 1545.5,-770 1545.5,-745 1419.5,-745"/>
<polygon fill="none" stroke="#2c3e50" points="1419.5,-745 1419.5,-770 1545.5,-770 1545.5,-745 1419.5,-745"/>
<text text-anchor="start" x="1424.5" y="-753.8" font-family="monospace" font-size="14.00" fill="#000000">relname</text>
<polygon fill="#ffffff" stroke="none" points="1545.5,-745 1545.5,-770 1646.5,-770 1646.5,-745 1545.5,-745"/>
<polygon fill="none" stroke="#2c3e50" points="1545.5,-745 1545.5,-770 1646.5,-770 1646.5,-745 1545.5,-745"/>
<text text-anchor="start" x="1550.5" y="-754.8" font-family="monospace" font-style="italic" font-size="14.00" fill="#95a5a6">name</text>
<polygon fill="#ffffff" stroke="none" points="1419.5,-720 1419.5,-745 1545.5,-745 1545.5,-720 1419.5,-720"/>
<polygon fill="none" stroke="#2c3e50" points="1419.5,-720 1419.5,-745 1545.5,-745 1545.5,-720 1419.5,-720"/>
<text text-anchor="start" x="1424.5" y="-728.8" font-family="monospace" font-size="14.00" fill="#000000">relnamespace</text>
<polygon fill="#ffffff" stroke="none" points="1545.5,-720 1545.5,-745 1646.5,-745 1646.5,-720 1545.5,-720"/>
<polygon fill="none" stroke="#2c3e50" points="1545.5,-720 1545.5,-745 1646.5,-745 1646.5,-720 1545.5,-720"/>
<text text-anchor="start" x="1550.5" y="-729.8" font-family="monospace" font-style="italic" font-size="14.00" fill="#95a5a6">oid</text>
<polygon fill="#ffffff" stroke="none" points="1419.5,-695 1419.5,-720 1545.5,-720 1545.5,-695 1419.5,-695"/>
<polygon fill="none" stroke="#2c3e50" points="1419.5,-695 1419.5,-720 1545.5,-720 1545.5,-695 1419.5,-695"/>
<text text-anchor="start" x="1424.5" y="-703.8" font-family="monospace" font-size="14.00" fill="#000000">reltype</text>
<polygon fill="#ffffff" stroke="none" points="1545.5,-695 1545.5,-720 1646.5,-720 1646.5,-695 1545.5,-695"/>
<polygon fill="none" stroke="#2c3e50" points="1545.5,-695 1545.5,-720 1646.5,-720 1646.5,-695 1545.5,-695"/>
<text text-anchor="start" x="1550.5" y="-704.8" font-family="monospace" font-style="italic" font-size="14.00" fill="#95a5a6">oid</text>
<polygon fill="#ffffff" stroke="none" points="1419.5,-670 1419.5,-695 1545.5,-695 1545.5,-670 1419.5,-670"/>
<polygon fill="none" stroke="#2c3e50" points="1419.5,-670 1419.5,-695 1545.5,-695 1545.5,-670 1419.5,-670"/>
<text text-anchor="start" x="1424.5" y="-678.8" font-family="monospace" font-size="14.00" fill="#000000">relowner</text>
<polygon fill="#ffffff" stroke="none" points="1545.5,-670 1545.5,-695 1646.5,-695 1646.5,-670 1545.5,-670"/>
<polygon fill="none" stroke="#2c3e50" points="1545.5,-670 1545.5,-695 1646.5,-695 1646.5,-670 1545.5,-670"/>
<text text-anchor="start" x="1550.5" y="-679.8" font-family="monospace" font-style="italic" font-size="14.00" fill="#95a5a6">oid</text>
<polygon fill="#ffffff" stroke="none" points="1419.5,-645 1419.5,-670 1545.5,-670 1545.5,-645 1419.5,-645"/>
<polygon fill="none" stroke="#2c3e50" points="1419.5,-645 1419.5,-670 1545.5,-670 1545.5,-645 1419.5,-645"/>
<text text-anchor="start" x="1424.5" y="-653.8" font-family="monospace" font-size="14.00" fill="#000000">relam</text>
<polygon fill="#ffffff" stroke="none" points="1545.5,-645 1545.5,-670 1646.5,-670 1646.5,-645 1545.5,-645"/>
<polygon fill="none" stroke="#2c3e50" points="1545.5,-645 1545.5,-670 1646.5,-670 1646.5,-645 1545.5,-645"/>
<text text-anchor="start" x="1550.5" y="-654.8" font-family="monospace" font-style="italic" font-size="14.00" fill="#95a5a6">oid</text>
<polygon fill="#ffffff" stroke="none" points="1419.5,-620 1419.5,-645 1545.5,-645 1545.5,-620 1419.5,-620"/>
<polygon fill="none" stroke="#2c3e50" points="1419.5,-620 1419.5,-645 1545.5,-645 1545.5,-620 1419.5,-620"/>
<text text-anchor="start" x="1424.5" y="-628.8" font-family="monospace" font-size="14.00" fill="#000000">relfilenode</text>
<polygon fill="#ffffff" stroke="none" points="1545.5,-620 1545.5,-645 1646.5,-645 1646.5,-620 1545.5,-620"/>
<polygon fill="none" stroke="#2c3e50" points="1545.5,-620 1545.5,-645 1646.5,-645 1646.5,-620 1545.5,-620"/>
<text text-anchor="start" x="1550.5" y="-629.8" font-family="monospace" font-style="italic" font-size="14.00" fill="#95a5a6">oid</text>
<polygon fill="#ffffff" stroke="none" points="1419.5,-595 1419.5,-620 1545.5,-620 1545.5,-595 1419.5,-595"/>
<polygon fill="none" stroke="#2c3e50" points="1419.5,-595 1419.5,-620 1545.5,-620 1545.5,-595 1419.5,-595"/>
<text text-anchor="start" x="1424.5" y="-603.8" font-family="monospace" font-size="14.00" fill="#000000">reltablespace</text>
<polygon fill="#ffffff" stroke="none" points="1545.5,-595 1545.5,-620 1646.5,-620 1646.5,-595 1545.5,-595"/>
<polygon fill="none" stroke="#2c3e50" points="1545.5,-595 1545.5,-620 1646.5,-620 1646.5,-595 1545.5,-595"/>
<text text-anchor="start" x="1550.5" y="-604.8" font-family="monospace" font-style="italic" font-size="14.00" fill="#95a5a6">oid</text>
<polygon fill="#ffffff" stroke="none" points="1419.5,-570 1419.5,-595 1545.5,-595 1545.5,-570 1419.5,-570"/>
<polygon fill="none" stroke="#2c3e50" points="1419.5,-570 1419.5,-595 1545.5,-595 1545.5,-570 1419.5,-570"/>
<text text-anchor="start" x="1424.5" y="-578.8" font-family="monospace" font-size="14.00" fill="#000000">relpages</text>
<polygon fill="#ffffff" stroke="none" points="1545.5,-570 1545.5,-595 1646.5,-595 1646.5,-570 1545.5,-570"/>
<polygon fill="none" stroke="#2c3e50" points="1545.5,-570 1545.5,-595 1646.5,-595 1646.5,-570 1545.5,-570"/>
<text text-anchor="start" x="1550.5" y="-579.8" font-family="monospace" font-style="italic" font-size="14.00" fill="#95a5a6">integer</text>
<polygon fill="#ffffff" stroke="none" points="1419.5,-545 1419.5,-570 1545.5,-570 1545.5,-545 1419.5,-545"/>
<polygon fill="none" stroke="#2c3e50" points="1419.5,-545 1419.5,-570 1545.5,-570 1545.5,-545 1419.5,-545"/>
<text text-anchor="start" x="1424.5" y="-553.8" font-family="monospace" font-size="14.00" fill="#000000">reltuples</text>
<polygon fill="#ffffff" stroke="none" points="1545.5,-545 1545.5,-570 1646.5,-570 1646.5,-545 1545.5,-545"/>
<polygon fill="none" stroke="#2c3e50" points="1545.5,-545 1545.5,-570 1646.5,-570 1646.5,-545 1545.5,-545"/>
<text text-anchor="start" x="1550.5" y="-554.8" font-family="monospace" font-style="italic" font-size="14.00" fill="#95a5a6">real</text>
<polygon fill="#ffffff" stroke="none" points="1419.5,-520 1419.5,-545 1545.5,-545 1545.5,-520 1419.5,-520"/>
<polygon fill="none" stroke="#2c3e50" points="1419.5,-520 1419.5,-545 1545.5,-545 1545.5,-520 1419.5,-520"/>
<text text-anchor="start" x="1424.5" y="-528.8" font-family="monospace" font-size="14.00" fill="#000000">reltoastrelid</text>
<polygon fill="#ffffff" stroke="none" points="1545.5,-520 1545.5,-545 1646.5,-545 1646.5,-520 1545.5,-520"/>
<polygon fill="none" stroke="#2c3e50" points="1545.5,-520 1545.5,-545 1646.5,-545 1646.5,-520 1545.5,-520"/>
<text text-anchor="start" x="1550.5" y="-529.8" font-family="monospace" font-style="italic" font-size="14.00" fill="#95a5a6">oid</text>
<polygon fill="#ffffff" stroke="none" points="1419.5,-495 1419.5,-520 1545.5,-520 1545.5,-495 1419.5,-495"/>
<polygon fill="none" stroke="#2c3e50" points="1419.5,-495 1419.5,-520 1545.5,-520 1545.5,-495 1419.5,-495"/>
<text text-anchor="start" x="1424.5" y="-503.8" font-family="monospace" font-size="14.00" fill="#000000">reltoastidxid</text>
<polygon fill="#ffffff" stroke="none" points="1545.5,-495 1545.5,-520 1646.5,-520 1646.5,-495 1545.5,-495"/>
<polygon fill="none" stroke="#2c3e50" points="1545.5,-495 1545.5,-520 1646.5,-520 1646.5,-495 1545.5,-495"/>
<text text-anchor="start" x="1550.5" y="-504.8" font-family="monospace" font-style="italic" font-size="14.00" fill="#95a5a6">oid</text>
<polygon fill="#ffffff" stroke="none" points="1419.5,-470 1419.5,-495 1545.5,-495 1545.5,-470 1419.5,-470"/>
<polygon fill="none" stroke="#2c3e50" points="1419.5,-470 1419.5,-495 1545.5,-495 1545.5,-470 1419.5,-470"/>
<text text-anchor="start" x="1424.5" y="-478.8" font-family="monospace" font-size="14.00" fill="#000000">relaosegrelid</text>
<polygon fill="#ffffff" stroke="none" points="1545.5,-470 1545.5,-495 1646.5,-495 1646.5,-470 1545.5,-470"/>
<polygon fill="none" stroke="#2c3e50" points="1545.5,-470 1545.5,-495 1646.5,-495 1646.5,-470 1545.5,-470"/>
<text text-anchor="start" x="1550.5" y="-479.8" font-family="monospace" font-style="italic" font-size="14.00" fill="#95a5a6">oid</text>
<polygon fill="#ffffff" stroke="none" points="1419.5,-445 1419.5,-470 1545.5,-470 1545.5,-445 1419.5,-445"/>
<polygon fill="none" stroke="#2c3e50" points="1419.5,-445 1419.5,-470 1545.5,-470 1545.5,-445 1419.5,-445"/>
<text text-anchor="start" x="1424.5" y="-453.8" font-family="monospace" font-size="14.00" fill="#000000">relaosegidxid</text>
<polygon fill="#ffffff" stroke="none" points="1545.5,-445 1545.5,-470 1646.5,-470 1646.5,-445 1545.5,-445"/>
<polygon fill="none" stroke="#2c3e50" points="1545.5,-445 1545.5,-470 1646.5,-470 1646.5,-445 1545.5,-445"/>
<text text-anchor="start" x="1550.5" y="-454.8" font-family="monospace" font-style="italic" font-size="14.00" fill="#95a5a6">oid</text>
<polygon fill="#ffffff" stroke="none" points="1419.5,-420 1419.5,-445 1545.5,-445 1545.5,-420 1419.5,-420"/>
<polygon fill="none" stroke="#2c3e50" points="1419.5,-420 1419.5,-445 1545.5,-445 1545.5,-420 1419.5,-420"/>
<text text-anchor="start" x="1424.5" y="-428.8" font-family="monospace" font-size="14.00" fill="#000000">relhasindex</text>
<polygon fill="#ffffff" stroke="none" points="1545.5,-420 1545.5,-445 1646.5,-445 1646.5,-420 1545.5,-420"/>
<polygon fill="none" stroke="#2c3e50" points="1545.5,-420 1545.5,-445 1646.5,-445 1646.5,-420 1545.5,-420"/>
<text text-anchor="start" x="1550.5" y="-429.8" font-family="monospace" font-style="italic" font-size="14.00" fill="#95a5a6">boolean</text>
<polygon fill="#ffffff" stroke="none" points="1419.5,-395 1419.5,-420 1545.5,-420 1545.5,-395 1419.5,-395"/>
<polygon fill="none" stroke="#2c3e50" points="1419.5,-395 1419.5,-420 1545.5,-420 1545.5,-395 1419.5,-395"/>
<text text-anchor="start" x="1424.5" y="-403.8" font-family="monospace" font-size="14.00" fill="#000000">relisshared</text>
<polygon fill="#ffffff" stroke="none" points="1545.5,-395 1545.5,-420 1646.5,-420 1646.5,-395 1545.5,-395"/>
<polygon fill="none" stroke="#2c3e50" points="1545.5,-395 1545.5,-420 1646.5,-420 1646.5,-395 1545.5,-395"/>
<text text-anchor="start" x="1550.5" y="-404.8" font-family="monospace" font-style="italic" font-size="14.00" fill="#95a5a6">boolean</text>
<polygon fill="#ffffff" stroke="none" points="1419.5,-370 1419.5,-395 1545.5,-395 1545.5,-370 1419.5,-370"/>
<polygon fill="none" stroke="#2c3e50" points="1419.5,-370 1419.5,-395 1545.5,-395 1545.5,-370 1419.5,-370"/>
<text text-anchor="start" x="1424.5" y="-378.8" font-family="monospace" font-size="14.00" fill="#000000">relkind</text>
<polygon fill="#ffffff" stroke="none" points="1545.5,-370 1545.5,-395 1646.5,-395 1646.5,-370 1545.5,-370"/>
<polygon fill="none" stroke="#2c3e50" points="1545.5,-370 1545.5,-395 1646.5,-395 1646.5,-370 1545.5,-370"/>
<text text-anchor="start" x="1550.5" y="-379.8" font-family="monospace" font-style="italic" font-size="14.00" fill="#95a5a6">quoted_char</text>
<polygon fill="#ffffff" stroke="none" points="1419.5,-345 1419.5,-370 1545.5,-370 1545.5,-345 1419.5,-345"/>
<polygon fill="none" stroke="#2c3e50" points="1419.5,-345 1419.5,-370 1545.5,-370 1545.5,-345 1419.5,-345"/>
<text text-anchor="start" x="1424.5" y="-353.8" font-family="monospace" font-size="14.00" fill="#000000">relstorage</text>
<polygon fill="#ffffff" stroke="none" points="1545.5,-345 1545.5,-370 1646.5,-370 1646.5,-345 1545.5,-345"/>
<polygon fill="none" stroke="#2c3e50" points="1545.5,-345 1545.5,-370 1646.5,-370 1646.5,-345 1545.5,-345"/>
<text text-anchor="start" x="1550.5" y="-354.8" font-family="monospace" font-style="italic" font-size="14.00" fill="#95a5a6">quoted_char</text>
<polygon fill="#ffffff" stroke="none" points="1419.5,-320 1419.5,-345 1545.5,-345 1545.5,-320 1419.5,-320"/>
<polygon fill="none" stroke="#2c3e50" points="1419.5,-320 1419.5,-345 1545.5,-345 1545.5,-320 1419.5,-320"/>
<text text-anchor="start" x="1424.5" y="-328.8" font-family="monospace" font-size="14.00" fill="#000000">relnatts</text>
<polygon fill="#ffffff" stroke="none" points="1545.5,-320 1545.5,-345 1646.5,-345 1646.5,-320 1545.5,-320"/>
<polygon fill="none" stroke="#2c3e50" points="1545.5,-320 1545.5,-345 1646.5,-345 1646.5,-320 1545.5,-320"/>
<text text-anchor="start" x="1550.5" y="-329.8" font-family="monospace" font-style="italic" font-size="14.00" fill="#95a5a6">smallint</text>
<polygon fill="#ffffff" stroke="none" points="1419.5,-295 1419.5,-320 1545.5,-320 1545.5,-295 1419.5,-295"/>
<polygon fill="none" stroke="#2c3e50" points="1419.5,-295 1419.5,-320 1545.5,-320 1545.5,-295 1419.5,-295"/>
<text text-anchor="start" x="1424.5" y="-303.8" font-family="monospace" font-size="14.00" fill="#000000">relchecks</text>
<polygon fill="#ffffff" stroke="none" points="1545.5,-295 1545.5,-320 1646.5,-320 1646.5,-295 1545.5,-295"/>
<polygon fill="none" stroke="#2c3e50" points="1545.5,-295 1545.5,-320 1646.5,-320 1646.5,-295 1545.5,-295"/>
<text text-anchor="start" x="1550.5" y="-304.8" font-family="monospace" font-style="italic" font-size="14.00" fill="#95a5a6">smallint</text>
<polygon fill="#ffffff" stroke="none" points="1419.5,-270 1419.5,-295 1545.5,-295 1545.5,-270 1419.5,-270"/>
<polygon fill="none" stroke="#2c3e50" points="1419.5,-270 1419.5,-295 1545.5,-295 1545.5,-270 1419.5,-270"/>
<text text-anchor="start" x="1424.5" y="-278.8" font-family="monospace" font-size="14.00" fill="#000000">reltriggers</text>
<polygon fill="#ffffff" stroke="none" points="1545.5,-270 1545.5,-295 1646.5,-295 1646.5,-270 1545.5,-270"/>
<polygon fill="none" stroke="#2c3e50" points="1545.5,-270 1545.5,-295 1646.5,-295 1646.5,-270 1545.5,-270"/>
<text text-anchor="start" x="1550.5" y="-279.8" font-family="monospace" font-style="italic" font-size="14.00" fill="#95a5a6">smallint</text>
<polygon fill="#ffffff" stroke="none" points="1419.5,-245 1419.5,-270 1545.5,-270 1545.5,-245 1419.5,-245"/>
<polygon fill="none" stroke="#2c3e50" points="1419.5,-245 1419.5,-270 1545.5,-270 1545.5,-245 1419.5,-245"/>
<text text-anchor="start" x="1424.5" y="-253.8" font-family="monospace" font-size="14.00" fill="#000000">relukeys</text>
<polygon fill="#ffffff" stroke="none" points="1545.5,-245 1545.5,-270 1646.5,-270 1646.5,-245 1545.5,-245"/>
<polygon fill="none" stroke="#2c3e50" points="1545.5,-245 1545.5,-270 1646.5,-270 1646.5,-245 1545.5,-245"/>
<text text-anchor="start" x="1550.5" y="-254.8" font-family="monospace" font-style="italic" font-size="14.00" fill="#95a5a6">smallint</text>
<polygon fill="#ffffff" stroke="none" points="1419.5,-220 1419.5,-245 1545.5,-245 1545.5,-220 1419.5,-220"/>
<polygon fill="none" stroke="#2c3e50" points="1419.5,-220 1419.5,-245 1545.5,-245 1545.5,-220 1419.5,-220"/>
<text text-anchor="start" x="1424.5" y="-228.8" font-family="monospace" font-size="14.00" fill="#000000">relfkeys</text>
<polygon fill="#ffffff" stroke="none" points="1545.5,-220 1545.5,-245 1646.5,-245 1646.5,-220 1545.5,-220"/>
<polygon fill="none" stroke="#2c3e50" points="1545.5,-220 1545.5,-245 1646.5,-245 1646.5,-220 1545.5,-220"/>
<text text-anchor="start" x="1550.5" y="-229.8" font-family="monospace" font-style="italic" font-size="14.00" fill="#95a5a6">smallint</text>
<polygon fill="#ffffff" stroke="none" points="1419.5,-195 1419.5,-220 1545.5,-220 1545.5,-195 1419.5,-195"/>
<polygon fill="none" stroke="#2c3e50" points="1419.5,-195 1419.5,-220 1545.5,-220 1545.5,-195 1419.5,-195"/>
<text text-anchor="start" x="1424.5" y="-203.8" font-family="monospace" font-size="14.00" fill="#000000">relrefs</text>
<polygon fill="#ffffff" stroke="none" points="1545.5,-195 1545.5,-220 1646.5,-220 1646.5,-195 1545.5,-195"/>
<polygon fill="none" stroke="#2c3e50" points="1545.5,-195 1545.5,-220 1646.5,-220 1646.5,-195 1545.5,-195"/>
<text text-anchor="start" x="1550.5" y="-204.8" font-family="monospace" font-style="italic" font-size="14.00" fill="#95a5a6">smallint</text>
<polygon fill="#ffffff" stroke="none" points="1419.5,-170 1419.5,-195 1545.5,-195 1545.5,-170 1419.5,-170"/>
<polygon fill="none" stroke="#2c3e50" points="1419.5,-170 1419.5,-195 1545.5,-195 1545.5,-170 1419.5,-170"/>
<text text-anchor="start" x="1424.5" y="-178.8" font-family="monospace" font-size="14.00" fill="#000000">relhasoids</text>
<polygon fill="#ffffff" stroke="none" points="1545.5,-170 1545.5,-195 1646.5,-195 1646.5,-170 1545.5,-170"/>
<polygon fill="none" stroke="#2c3e50" points="1545.5,-170 1545.5,-195 1646.5,-195 1646.5,-170 1545.5,-170"/>
<text text-anchor="start" x="1550.5" y="-179.8" font-family="monospace" font-style="italic" font-size="14.00" fill="#95a5a6">boolean</text>
<polygon fill="#ffffff" stroke="none" points="1419.5,-145 1419.5,-170 1545.5,-170 1545.5,-145 1419.5,-145"/>
<polygon fill="none" stroke="#2c3e50" points="1419.5,-145 1419.5,-170 1545.5,-170 1545.5,-145 1419.5,-145"/>
<text text-anchor="start" x="1424.5" y="-153.8" font-family="monospace" font-size="14.00" fill="#000000">relhaspkey</text>
<polygon fill="#ffffff" stroke="none" points="1545.5,-145 1545.5,-170 1646.5,-170 1646.5,-145 1545.5,-145"/>
<polygon fill="none" stroke="#2c3e50" points="1545.5,-145 1545.5,-170 1646.5,-170 1646.5,-145 1545.5,-145"/>
<text text-anchor="start" x="1550.5" y="-154.8" font-family="monospace" font-style="italic" font-size="14.00" fill="#95a5a6">boolean</text>
<polygon fill="#ffffff" stroke="none" points="1419.5,-120 1419.5,-145 1545.5,-145 1545.5,-120 1419.5,-120"/>
<polygon fill="none" stroke="#2c3e50" points="1419.5,-120 1419.5,-145 1545.5,-145 1545.5,-120 1419.5,-120"/>
<text text-anchor="start" x="1424.5" y="-128.8" font-family="monospace" font-size="14.00" fill="#000000">relhasrules</text>
<polygon fill="#ffffff" stroke="none" points="1545.5,-120 1545.5,-145 1646.5,-145 1646.5,-120 1545.5,-120"/>
<polygon fill="none" stroke="#2c3e50" points="1545.5,-120 1545.5,-145 1646.5,-145 1646.5,-120 1545.5,-120"/>
<text text-anchor="start" x="1550.5" y="-129.8" font-family="monospace" font-style="italic" font-size="14.00" fill="#95a5a6">boolean</text>
<polygon fill="#ffffff" stroke="none" points="1419.5,-95 1419.5,-120 1545.5,-120 1545.5,-95 1419.5,-95"/>
<polygon fill="none" stroke="#2c3e50" points="1419.5,-95 1419.5,-120 1545.5,-120 1545.5,-95 1419.5,-95"/>
<text text-anchor="start" x="1424.5" y="-103.8" font-family="monospace" font-size="14.00" fill="#000000">relhassubclass</text>
<polygon fill="#ffffff" stroke="none" points="1545.5,-95 1545.5,-120 1646.5,-120 1646.5,-95 1545.5,-95"/>
<polygon fill="none" stroke="#2c3e50" points="1545.5,-95 1545.5,-120 1646.5,-120 1646.5,-95 1545.5,-95"/>
<text text-anchor="start" x="1550.5" y="-104.8" font-family="monospace" font-style="italic" font-size="14.00" fill="#95a5a6">boolean</text>
<polygon fill="#ffffff" stroke="none" points="1419.5,-70 1419.5,-95 1545.5,-95 1545.5,-70 1419.5,-70"/>
<polygon fill="none" stroke="#2c3e50" points="1419.5,-70 1419.5,-95 1545.5,-95 1545.5,-70 1419.5,-70"/>
<text text-anchor="start" x="1424.5" y="-78.8" font-family="monospace" font-size="14.00" fill="#000000">relfrozenxid</text>
<polygon fill="#ffffff" stroke="none" points="1545.5,-70 1545.5,-95 1646.5,-95 1646.5,-70 1545.5,-70"/>
<polygon fill="none" stroke="#2c3e50" points="1545.5,-70 1545.5,-95 1646.5,-95 1646.5,-70 1545.5,-70"/>
<text text-anchor="start" x="1550.5" y="-79.8" font-family="monospace" font-style="italic" font-size="14.00" fill="#95a5a6">xid</text>
<polygon fill="#ffffff" stroke="none" points="1419.5,-45 1419.5,-70 1545.5,-70 1545.5,-45 1419.5,-45"/>
<polygon fill="none" stroke="#2c3e50" points="1419.5,-45 1419.5,-70 1545.5,-70 1545.5,-45 1419.5,-45"/>
<text text-anchor="start" x="1424.5" y="-53.8" font-family="monospace" font-size="14.00" fill="#000000">relacl</text>
<polygon fill="#ffffff" stroke="none" points="1545.5,-45 1545.5,-70 1646.5,-70 1646.5,-45 1545.5,-45"/>
<polygon fill="none" stroke="#2c3e50" points="1545.5,-45 1545.5,-70 1646.5,-70 1646.5,-45 1545.5,-45"/>
<text text-anchor="start" x="1550.5" y="-54.8" font-family="monospace" font-style="italic" font-size="14.00" fill="#95a5a6">aclitem[]</text>
<polygon fill="#ffffff" stroke="none" points="1419.5,-20 1419.5,-45 1545.5,-45 1545.5,-20 1419.5,-20"/>
<polygon fill="none" stroke="#2c3e50" points="1419.5,-20 1419.5,-45 1545.5,-45 1545.5,-20 1419.5,-20"/>
<text text-anchor="start" x="1424.5" y="-28.8" font-family="monospace" font-size="14.00" fill="#000000">reloptions</text>
<polygon fill="#ffffff" stroke="none" points="1545.5,-20 1545.5,-45 1646.5,-45 1646.5,-20 1545.5,-20"/>
<polygon fill="none" stroke="#2c3e50" points="1545.5,-20 1545.5,-45 1646.5,-45 1646.5,-20 1545.5,-20"/>
<text text-anchor="start" x="1550.5" y="-29.8" font-family="monospace" font-style="italic" font-size="14.00" fill="#95a5a6">text[]</text>
</g>
<!-- pg_partition&#45;&gt;pg_class -->
<g id="edge1" class="edge"><title>pg_partition:parrelid_out&#45;&gt;pg_class:oid_in</title>
<path fill="none" stroke="#2c3e50" d="M1026.5,-783C1197.32,-783 1242.53,-783 1408.44,-783"/>
<polygon fill="#2c3e50" stroke="#2c3e50" points="1408.5,-786.5 1418.5,-783 1408.5,-779.5 1408.5,-786.5"/>
</g>
</g>
</svg>
