<?xml version="1.0" encoding="UTF-8" standalone="no"?>
<!DOCTYPE svg PUBLIC "-//W3C//DTD SVG 1.1//EN"
 "http://www.w3.org/Graphics/SVG/1.1/DTD/svg11.dtd">
<!-- Generated by graphviz version 2.38.0 (20140413.2041)
 -->
<!-- Title: GPDB Pages: 1 -->
<svg width="1326pt" height="852pt"
 viewBox="0.00 0.00 1326.00 852.00" xmlns="http://www.w3.org/2000/svg" xmlns:xlink="http://www.w3.org/1999/xlink">
<g id="graph0" class="graph" transform="scale(1 1) rotate(0) translate(36 816)">
<title>GPDB</title>
<polygon fill="white" stroke="none" points="-36,36 -36,-816 1290,-816 1290,36 -36,36"/>
<text text-anchor="middle" x="627" y="-750.4" font-family="Helvetica,sans-Serif" font-size="32.00">Greenplum System Catalog: pg_resqueue</text>
<g id="clust1" class="cluster"><title>cluster_from</title>
</g>
<g id="clust2" class="cluster"><title>cluster_selected</title>
</g>
<!-- pg_resqueuecapability -->
<g id="node1" class="node"><title>pg_resqueuecapability</title>
<polygon fill="#2c3e50" stroke="none" points="193,-644 193,-674 424,-674 424,-644 193,-644"/>
<polygon fill="none" stroke="black" points="193,-644 193,-674 424,-674 424,-644 193,-644"/>
<text text-anchor="start" x="198" y="-655.6" font-family="monospace" font-weight="bold" font-size="18.00" fill="#ffffff">pg_resqueuecapability</text>
<polygon fill="#ffffff" stroke="none" points="193,-619 193,-644 316,-644 316,-619 193,-619"/>
<polygon fill="none" stroke="#2c3e50" points="193,-619 193,-644 316,-644 316,-619 193,-619"/>
<text text-anchor="start" x="198" y="-627.8" font-family="monospace" font-size="14.00" fill="#000000">oid</text>
<polygon fill="#ffffff" stroke="none" points="316,-619 316,-644 424,-644 424,-619 316,-619"/>
<polygon fill="none" stroke="#2c3e50" points="316,-619 316,-644 424,-644 424,-619 316,-619"/>
<text text-anchor="start" x="321" y="-628.8" font-family="monospace" font-style="italic" font-size="14.00" fill="#95a5a6">oid</text>
<polygon fill="#ffffff" stroke="none" points="193,-594 193,-619 316,-619 316,-594 193,-594"/>
<polygon fill="none" stroke="#2c3e50" points="193,-594 193,-619 316,-619 316,-594 193,-594"/>
<text text-anchor="start" x="198" y="-602.8" font-family="monospace" font-size="14.00" fill="#000000">resqueueid</text>
<polygon fill="#18bc9c" stroke="none" points="316,-594 316,-619 424,-619 424,-594 316,-594"/>
<polygon fill="none" stroke="#2c3e50" points="316,-594 316,-619 424,-619 424,-594 316,-594"/>
<text text-anchor="start" x="321" y="-603.8" font-family="monospace" font-style="italic" font-size="14.00" fill="#ffffff">oid</text>
<polygon fill="#ffffff" stroke="none" points="193,-569 193,-594 316,-594 316,-569 193,-569"/>
<polygon fill="none" stroke="#2c3e50" points="193,-569 193,-594 316,-594 316,-569 193,-569"/>
<text text-anchor="start" x="198" y="-577.8" font-family="monospace" font-size="14.00" fill="#000000">restypid</text>
<polygon fill="#ffffff" stroke="none" points="316,-569 316,-594 424,-594 424,-569 316,-569"/>
<polygon fill="none" stroke="#2c3e50" points="316,-569 316,-594 424,-594 424,-569 316,-569"/>
<text text-anchor="start" x="321" y="-578.8" font-family="monospace" font-style="italic" font-size="14.00" fill="#95a5a6">smallint</text>
<polygon fill="#ffffff" stroke="none" points="193,-544 193,-569 316,-569 316,-544 193,-544"/>
<polygon fill="none" stroke="#2c3e50" points="193,-544 193,-569 316,-569 316,-544 193,-544"/>
<text text-anchor="start" x="198" y="-552.8" font-family="monospace" font-size="14.00" fill="#000000">ressetting</text>
<polygon fill="#ffffff" stroke="none" points="316,-544 316,-569 424,-569 424,-544 316,-544"/>
<polygon fill="none" stroke="#2c3e50" points="316,-544 316,-569 424,-569 424,-544 316,-544"/>
<text text-anchor="start" x="321" y="-553.8" font-family="monospace" font-style="italic" font-size="14.00" fill="#95a5a6">text</text>
</g>
<!-- pg_resqueue -->
<g id="node3" class="node"><title>pg_resqueue</title>
<polygon fill="#2c3e50" stroke="none" points="832.5,-394 832.5,-424 1059.5,-424 1059.5,-394 832.5,-394"/>
<polygon fill="none" stroke="black" points="832.5,-394 832.5,-424 1059.5,-424 1059.5,-394 832.5,-394"/>
<text text-anchor="start" x="888" y="-405.6" font-family="monospace" font-weight="bold" font-size="18.00" fill="#ffffff">pg_resqueue</text>
<polygon fill="#18bc9c" stroke="none" points="832.5,-369 832.5,-394 991.5,-394 991.5,-369 832.5,-369"/>
<polygon fill="none" stroke="#2c3e50" points="832.5,-369 832.5,-394 991.5,-394 991.5,-369 832.5,-369"/>
<text text-anchor="start" x="837.5" y="-377.8" font-family="monospace" font-size="14.00" fill="#ffffff">oid</text>
<polygon fill="#ffffff" stroke="none" points="991.5,-369 991.5,-394 1059.5,-394 1059.5,-369 991.5,-369"/>
<polygon fill="none" stroke="#2c3e50" points="991.5,-369 991.5,-394 1059.5,-394 1059.5,-369 991.5,-369"/>
<text text-anchor="start" x="996.5" y="-378.8" font-family="monospace" font-style="italic" font-size="14.00" fill="#95a5a6">oid</text>
<polygon fill="#ffffff" stroke="none" points="832.5,-344 832.5,-369 991.5,-369 991.5,-344 832.5,-344"/>
<polygon fill="none" stroke="#2c3e50" points="832.5,-344 832.5,-369 991.5,-369 991.5,-344 832.5,-344"/>
<text text-anchor="start" x="837.5" y="-352.8" font-family="monospace" font-size="14.00" fill="#000000">rsqname</text>
<polygon fill="#ffffff" stroke="none" points="991.5,-344 991.5,-369 1059.5,-369 1059.5,-344 991.5,-344"/>
<polygon fill="none" stroke="#2c3e50" points="991.5,-344 991.5,-369 1059.5,-369 1059.5,-344 991.5,-344"/>
<text text-anchor="start" x="996.5" y="-353.8" font-family="monospace" font-style="italic" font-size="14.00" fill="#95a5a6">name</text>
<polygon fill="#ffffff" stroke="none" points="832.5,-319 832.5,-344 991.5,-344 991.5,-319 832.5,-319"/>
<polygon fill="none" stroke="#2c3e50" points="832.5,-319 832.5,-344 991.5,-344 991.5,-319 832.5,-319"/>
<text text-anchor="start" x="837.5" y="-327.8" font-family="monospace" font-size="14.00" fill="#000000">rsqcountlimit</text>
<polygon fill="#ffffff" stroke="none" points="991.5,-319 991.5,-344 1059.5,-344 1059.5,-319 991.5,-319"/>
<polygon fill="none" stroke="#2c3e50" points="991.5,-319 991.5,-344 1059.5,-344 1059.5,-319 991.5,-319"/>
<text text-anchor="start" x="996.5" y="-328.8" font-family="monospace" font-style="italic" font-size="14.00" fill="#95a5a6">real</text>
<polygon fill="#ffffff" stroke="none" points="832.5,-294 832.5,-319 991.5,-319 991.5,-294 832.5,-294"/>
<polygon fill="none" stroke="#2c3e50" points="832.5,-294 832.5,-319 991.5,-319 991.5,-294 832.5,-294"/>
<text text-anchor="start" x="837.5" y="-302.8" font-family="monospace" font-size="14.00" fill="#000000">rsqcostlimit</text>
<polygon fill="#ffffff" stroke="none" points="991.5,-294 991.5,-319 1059.5,-319 1059.5,-294 991.5,-294"/>
<polygon fill="none" stroke="#2c3e50" points="991.5,-294 991.5,-319 1059.5,-319 1059.5,-294 991.5,-294"/>
<text text-anchor="start" x="996.5" y="-303.8" font-family="monospace" font-style="italic" font-size="14.00" fill="#95a5a6">real</text>
<polygon fill="#ffffff" stroke="none" points="832.5,-269 832.5,-294 991.5,-294 991.5,-269 832.5,-269"/>
<polygon fill="none" stroke="#2c3e50" points="832.5,-269 832.5,-294 991.5,-294 991.5,-269 832.5,-269"/>
<text text-anchor="start" x="837.5" y="-277.8" font-family="monospace" font-size="14.00" fill="#000000">rsqovercommit</text>
<polygon fill="#ffffff" stroke="none" points="991.5,-269 991.5,-294 1059.5,-294 1059.5,-269 991.5,-269"/>
<polygon fill="none" stroke="#2c3e50" points="991.5,-269 991.5,-294 1059.5,-294 1059.5,-269 991.5,-269"/>
<text text-anchor="start" x="996.5" y="-278.8" font-family="monospace" font-style="italic" font-size="14.00" fill="#95a5a6">boolean</text>
<polygon fill="#ffffff" stroke="none" points="832.5,-244 832.5,-269 991.5,-269 991.5,-244 832.5,-244"/>
<polygon fill="none" stroke="#2c3e50" points="832.5,-244 832.5,-269 991.5,-269 991.5,-244 832.5,-244"/>
<text text-anchor="start" x="837.5" y="-252.8" font-family="monospace" font-size="14.00" fill="#000000">rsqignorecostlimit</text>
<polygon fill="#ffffff" stroke="none" points="991.5,-244 991.5,-269 1059.5,-269 1059.5,-244 991.5,-244"/>
<polygon fill="none" stroke="#2c3e50" points="991.5,-244 991.5,-269 1059.5,-269 1059.5,-244 991.5,-244"/>
<text text-anchor="start" x="996.5" y="-253.8" font-family="monospace" font-style="italic" font-size="14.00" fill="#95a5a6">real</text>
</g>
<!-- pg_resqueuecapability&#45;&gt;pg_resqueue -->
<g id="edge2" class="edge"><title>pg_resqueuecapability:resqueueid_out&#45;&gt;pg_resqueue:oid_in</title>
<path fill="none" stroke="#2c3e50" d="M425,-606C518.143,-606 535.052,-566.273 617,-522 714.127,-469.526 717.536,-387.171 821.467,-382.233"/>
<polygon fill="#2c3e50" stroke="#2c3e50" points="821.584,-385.731 831.5,-382 821.421,-378.733 821.584,-385.731"/>
</g>
<!-- pg_authid -->
<g id="node2" class="node"><title>pg_authid</title>
<polygon fill="#2c3e50" stroke="none" points="128,-470 128,-500 488,-500 488,-470 128,-470"/>
<polygon fill="none" stroke="black" points="128,-470 128,-500 488,-500 488,-470 128,-470"/>
<text text-anchor="start" x="260.5" y="-481.6" font-family="monospace" font-weight="bold" font-size="18.00" fill="#ffffff">pg_authid</text>
<polygon fill="#ffffff" stroke="none" points="128,-445 128,-470 279,-470 279,-445 128,-445"/>
<polygon fill="none" stroke="#2c3e50" points="128,-445 128,-470 279,-470 279,-445 128,-445"/>
<text text-anchor="start" x="133" y="-453.8" font-family="monospace" font-size="14.00" fill="#000000">oid</text>
<polygon fill="#ffffff" stroke="none" points="279,-445 279,-470 488,-470 488,-445 279,-445"/>
<polygon fill="none" stroke="#2c3e50" points="279,-445 279,-470 488,-470 488,-445 279,-445"/>
<text text-anchor="start" x="284" y="-454.8" font-family="monospace" font-style="italic" font-size="14.00" fill="#95a5a6">oid</text>
<polygon fill="#ffffff" stroke="none" points="128,-420 128,-445 279,-445 279,-420 128,-420"/>
<polygon fill="none" stroke="#2c3e50" points="128,-420 128,-445 279,-445 279,-420 128,-420"/>
<text text-anchor="start" x="133" y="-428.8" font-family="monospace" font-size="14.00" fill="#000000">rolname</text>
<polygon fill="#ffffff" stroke="none" points="279,-420 279,-445 488,-445 488,-420 279,-420"/>
<polygon fill="none" stroke="#2c3e50" points="279,-420 279,-445 488,-445 488,-420 279,-420"/>
<text text-anchor="start" x="284" y="-429.8" font-family="monospace" font-style="italic" font-size="14.00" fill="#95a5a6">name</text>
<polygon fill="#ffffff" stroke="none" points="128,-395 128,-420 279,-420 279,-395 128,-395"/>
<polygon fill="none" stroke="#2c3e50" points="128,-395 128,-420 279,-420 279,-395 128,-395"/>
<text text-anchor="start" x="133" y="-403.8" font-family="monospace" font-size="14.00" fill="#000000">rolsuper</text>
<polygon fill="#ffffff" stroke="none" points="279,-395 279,-420 488,-420 488,-395 279,-395"/>
<polygon fill="none" stroke="#2c3e50" points="279,-395 279,-420 488,-420 488,-395 279,-395"/>
<text text-anchor="start" x="284" y="-404.8" font-family="monospace" font-style="italic" font-size="14.00" fill="#95a5a6">boolean</text>
<polygon fill="#ffffff" stroke="none" points="128,-370 128,-395 279,-395 279,-370 128,-370"/>
<polygon fill="none" stroke="#2c3e50" points="128,-370 128,-395 279,-395 279,-370 128,-370"/>
<text text-anchor="start" x="133" y="-378.8" font-family="monospace" font-size="14.00" fill="#000000">rolinherit</text>
<polygon fill="#ffffff" stroke="none" points="279,-370 279,-395 488,-395 488,-370 279,-370"/>
<polygon fill="none" stroke="#2c3e50" points="279,-370 279,-395 488,-395 488,-370 279,-370"/>
<text text-anchor="start" x="284" y="-379.8" font-family="monospace" font-style="italic" font-size="14.00" fill="#95a5a6">boolean</text>
<polygon fill="#ffffff" stroke="none" points="128,-345 128,-370 279,-370 279,-345 128,-345"/>
<polygon fill="none" stroke="#2c3e50" points="128,-345 128,-370 279,-370 279,-345 128,-345"/>
<text text-anchor="start" x="133" y="-353.8" font-family="monospace" font-size="14.00" fill="#000000">rolcreaterole</text>
<polygon fill="#ffffff" stroke="none" points="279,-345 279,-370 488,-370 488,-345 279,-345"/>
<polygon fill="none" stroke="#2c3e50" points="279,-345 279,-370 488,-370 488,-345 279,-345"/>
<text text-anchor="start" x="284" y="-354.8" font-family="monospace" font-style="italic" font-size="14.00" fill="#95a5a6">boolean</text>
<polygon fill="#ffffff" stroke="none" points="128,-320 128,-345 279,-345 279,-320 128,-320"/>
<polygon fill="none" stroke="#2c3e50" points="128,-320 128,-345 279,-345 279,-320 128,-320"/>
<text text-anchor="start" x="133" y="-328.8" font-family="monospace" font-size="14.00" fill="#000000">rolcreatedb</text>
<polygon fill="#ffffff" stroke="none" points="279,-320 279,-345 488,-345 488,-320 279,-320"/>
<polygon fill="none" stroke="#2c3e50" points="279,-320 279,-345 488,-345 488,-320 279,-320"/>
<text text-anchor="start" x="284" y="-329.8" font-family="monospace" font-style="italic" font-size="14.00" fill="#95a5a6">boolean</text>
<polygon fill="#ffffff" stroke="none" points="128,-295 128,-320 279,-320 279,-295 128,-295"/>
<polygon fill="none" stroke="#2c3e50" points="128,-295 128,-320 279,-320 279,-295 128,-295"/>
<text text-anchor="start" x="133" y="-303.8" font-family="monospace" font-size="14.00" fill="#000000">rolcatupdate</text>
<polygon fill="#ffffff" stroke="none" points="279,-295 279,-320 488,-320 488,-295 279,-295"/>
<polygon fill="none" stroke="#2c3e50" points="279,-295 279,-320 488,-320 488,-295 279,-295"/>
<text text-anchor="start" x="284" y="-304.8" font-family="monospace" font-style="italic" font-size="14.00" fill="#95a5a6">boolean</text>
<polygon fill="#ffffff" stroke="none" points="128,-270 128,-295 279,-295 279,-270 128,-270"/>
<polygon fill="none" stroke="#2c3e50" points="128,-270 128,-295 279,-295 279,-270 128,-270"/>
<text text-anchor="start" x="133" y="-278.8" font-family="monospace" font-size="14.00" fill="#000000">rolcanlogin</text>
<polygon fill="#ffffff" stroke="none" points="279,-270 279,-295 488,-295 488,-270 279,-270"/>
<polygon fill="none" stroke="#2c3e50" points="279,-270 279,-295 488,-295 488,-270 279,-270"/>
<text text-anchor="start" x="284" y="-279.8" font-family="monospace" font-style="italic" font-size="14.00" fill="#95a5a6">boolean</text>
<polygon fill="#ffffff" stroke="none" points="128,-245 128,-270 279,-270 279,-245 128,-245"/>
<polygon fill="none" stroke="#2c3e50" points="128,-245 128,-270 279,-270 279,-245 128,-245"/>
<text text-anchor="start" x="133" y="-253.8" font-family="monospace" font-size="14.00" fill="#000000">rolconnlimit</text>
<polygon fill="#ffffff" stroke="none" points="279,-245 279,-270 488,-270 488,-245 279,-245"/>
<polygon fill="none" stroke="#2c3e50" points="279,-245 279,-270 488,-270 488,-245 279,-245"/>
<text text-anchor="start" x="284" y="-254.8" font-family="monospace" font-style="italic" font-size="14.00" fill="#95a5a6">integer</text>
<polygon fill="#ffffff" stroke="none" points="128,-220 128,-245 279,-245 279,-220 128,-220"/>
<polygon fill="none" stroke="#2c3e50" points="128,-220 128,-245 279,-245 279,-220 128,-220"/>
<text text-anchor="start" x="133" y="-228.8" font-family="monospace" font-size="14.00" fill="#000000">rolpassword</text>
<polygon fill="#ffffff" stroke="none" points="279,-220 279,-245 488,-245 488,-220 279,-220"/>
<polygon fill="none" stroke="#2c3e50" points="279,-220 279,-245 488,-245 488,-220 279,-220"/>
<text text-anchor="start" x="284" y="-229.8" font-family="monospace" font-style="italic" font-size="14.00" fill="#95a5a6">text</text>
<polygon fill="#ffffff" stroke="none" points="128,-195 128,-220 279,-220 279,-195 128,-195"/>
<polygon fill="none" stroke="#2c3e50" points="128,-195 128,-220 279,-220 279,-195 128,-195"/>
<text text-anchor="start" x="133" y="-203.8" font-family="monospace" font-size="14.00" fill="#000000">rolvaliduntil</text>
<polygon fill="#ffffff" stroke="none" points="279,-195 279,-220 488,-220 488,-195 279,-195"/>
<polygon fill="none" stroke="#2c3e50" points="279,-195 279,-220 488,-220 488,-195 279,-195"/>
<text text-anchor="start" x="284" y="-204.8" font-family="monospace" font-style="italic" font-size="14.00" fill="#95a5a6">timestamp_with_time_zone</text>
<polygon fill="#ffffff" stroke="none" points="128,-170 128,-195 279,-195 279,-170 128,-170"/>
<polygon fill="none" stroke="#2c3e50" points="128,-170 128,-195 279,-195 279,-170 128,-170"/>
<text text-anchor="start" x="133" y="-178.8" font-family="monospace" font-size="14.00" fill="#000000">rolconfig</text>
<polygon fill="#ffffff" stroke="none" points="279,-170 279,-195 488,-195 488,-170 279,-170"/>
<polygon fill="none" stroke="#2c3e50" points="279,-170 279,-195 488,-195 488,-170 279,-170"/>
<text text-anchor="start" x="284" y="-179.8" font-family="monospace" font-style="italic" font-size="14.00" fill="#95a5a6">text[]</text>
<polygon fill="#ffffff" stroke="none" points="128,-145 128,-170 279,-170 279,-145 128,-145"/>
<polygon fill="none" stroke="#2c3e50" points="128,-145 128,-170 279,-170 279,-145 128,-145"/>
<text text-anchor="start" x="133" y="-153.8" font-family="monospace" font-size="14.00" fill="#000000">rolresqueue</text>
<polygon fill="#18bc9c" stroke="none" points="279,-145 279,-170 488,-170 488,-145 279,-145"/>
<polygon fill="none" stroke="#2c3e50" points="279,-145 279,-170 488,-170 488,-145 279,-145"/>
<text text-anchor="start" x="284" y="-154.8" font-family="monospace" font-style="italic" font-size="14.00" fill="#ffffff">oid</text>
<polygon fill="#ffffff" stroke="none" points="128,-120 128,-145 279,-145 279,-120 128,-120"/>
<polygon fill="none" stroke="#2c3e50" points="128,-120 128,-145 279,-145 279,-120 128,-120"/>
<text text-anchor="start" x="133" y="-128.8" font-family="monospace" font-size="14.00" fill="#000000">rolcreaterextgpfd</text>
<polygon fill="#ffffff" stroke="none" points="279,-120 279,-145 488,-145 488,-120 279,-120"/>
<polygon fill="none" stroke="#2c3e50" points="279,-120 279,-145 488,-145 488,-120 279,-120"/>
<text text-anchor="start" x="284" y="-129.8" font-family="monospace" font-style="italic" font-size="14.00" fill="#95a5a6">boolean</text>
<polygon fill="#ffffff" stroke="none" points="128,-95 128,-120 279,-120 279,-95 128,-95"/>
<polygon fill="none" stroke="#2c3e50" points="128,-95 128,-120 279,-120 279,-95 128,-95"/>
<text text-anchor="start" x="133" y="-103.8" font-family="monospace" font-size="14.00" fill="#000000">rolcreaterexthttp</text>
<polygon fill="#ffffff" stroke="none" points="279,-95 279,-120 488,-120 488,-95 279,-95"/>
<polygon fill="none" stroke="#2c3e50" points="279,-95 279,-120 488,-120 488,-95 279,-95"/>
<text text-anchor="start" x="284" y="-104.8" font-family="monospace" font-style="italic" font-size="14.00" fill="#95a5a6">boolean</text>
<polygon fill="#ffffff" stroke="none" points="128,-70 128,-95 279,-95 279,-70 128,-70"/>
<polygon fill="none" stroke="#2c3e50" points="128,-70 128,-95 279,-95 279,-70 128,-70"/>
<text text-anchor="start" x="133" y="-78.8" font-family="monospace" font-size="14.00" fill="#000000">rolcreatewextgpfd</text>
<polygon fill="#ffffff" stroke="none" points="279,-70 279,-95 488,-95 488,-70 279,-70"/>
<polygon fill="none" stroke="#2c3e50" points="279,-70 279,-95 488,-95 488,-70 279,-70"/>
<text text-anchor="start" x="284" y="-79.8" font-family="monospace" font-style="italic" font-size="14.00" fill="#95a5a6">boolean</text>
<polygon fill="#ffffff" stroke="none" points="128,-45 128,-70 279,-70 279,-45 128,-45"/>
<polygon fill="none" stroke="#2c3e50" points="128,-45 128,-70 279,-70 279,-45 128,-45"/>
<text text-anchor="start" x="133" y="-53.8" font-family="monospace" font-size="14.00" fill="#000000">rolcreaterexthdfs</text>
<polygon fill="#ffffff" stroke="none" points="279,-45 279,-70 488,-70 488,-45 279,-45"/>
<polygon fill="none" stroke="#2c3e50" points="279,-45 279,-70 488,-70 488,-45 279,-45"/>
<text text-anchor="start" x="284" y="-54.8" font-family="monospace" font-style="italic" font-size="14.00" fill="#95a5a6">boolean</text>
<polygon fill="#ffffff" stroke="none" points="128,-20 128,-45 279,-45 279,-20 128,-20"/>
<polygon fill="none" stroke="#2c3e50" points="128,-20 128,-45 279,-45 279,-20 128,-20"/>
<text text-anchor="start" x="133" y="-28.8" font-family="monospace" font-size="14.00" fill="#000000">rolcreatewexthdfs</text>
<polygon fill="#ffffff" stroke="none" points="279,-20 279,-45 488,-45 488,-20 279,-20"/>
<polygon fill="none" stroke="#2c3e50" points="279,-20 279,-45 488,-45 488,-20 279,-20"/>
<text text-anchor="start" x="284" y="-29.8" font-family="monospace" font-style="italic" font-size="14.00" fill="#95a5a6">boolean</text>
</g>
<!-- pg_authid&#45;&gt;pg_resqueue -->
<g id="edge1" class="edge"><title>pg_authid:rolresqueue_out&#45;&gt;pg_resqueue:oid_in</title>
<path fill="none" stroke="#2c3e50" d="M489,-157C667.662,-157 650.124,-373.512 821.314,-381.758"/>
<polygon fill="#2c3e50" stroke="#2c3e50" points="821.42,-385.262 831.5,-382 821.586,-378.264 821.42,-385.262"/>
</g>
</g>
</svg>
