<?xml version="1.0" encoding="UTF-8" standalone="no"?>
<!DOCTYPE svg PUBLIC "-//W3C//DTD SVG 1.1//EN"
 "http://www.w3.org/Graphics/SVG/1.1/DTD/svg11.dtd">
<!-- Generated by graphviz version 2.38.0 (20140413.2041)
 -->
<!-- Title: GPDB Pages: 1 -->
<svg width="1428pt" height="429pt"
 viewBox="0.00 0.00 1428.00 429.00" xmlns="http://www.w3.org/2000/svg" xmlns:xlink="http://www.w3.org/1999/xlink">
<g id="graph0" class="graph" transform="scale(1 1) rotate(0) translate(36 393)">
<title>GPDB</title>
<polygon fill="white" stroke="none" points="-36,36 -36,-393 1392,-393 1392,36 -36,36"/>
<text text-anchor="middle" x="678" y="-327.4" font-family="Helvetica,sans-Serif" font-size="32.00">Greenplum System Catalog: pg_resourcetype</text>
<g id="clust1" class="cluster"><title>cluster_from</title>
</g>
<g id="clust2" class="cluster"><title>cluster_selected</title>
</g>
<!-- pg_resqueuecapability -->
<g id="node1" class="node"><title>pg_resqueuecapability</title>
<g id="a_node1"><a xlink:href="pg_resqueuecapability.svg" xlink:title="&lt;TABLE&gt;">
<polygon fill="#2c3e50" stroke="none" points="218.5,-221 218.5,-251 449.5,-251 449.5,-221 218.5,-221"/>
<polygon fill="none" stroke="black" points="218.5,-221 218.5,-251 449.5,-251 449.5,-221 218.5,-221"/>
<text text-anchor="start" x="223.5" y="-232.6" font-family="monospace" font-weight="bold" font-size="18.00" fill="#ffffff">pg_resqueuecapability</text>
<polygon fill="#ffffff" stroke="none" points="218.5,-196 218.5,-221 341.5,-221 341.5,-196 218.5,-196"/>
<polygon fill="none" stroke="#2c3e50" points="218.5,-196 218.5,-221 341.5,-221 341.5,-196 218.5,-196"/>
<text text-anchor="start" x="223.5" y="-204.8" font-family="monospace" font-size="14.00" fill="#000000">oid</text>
<polygon fill="#ffffff" stroke="none" points="341.5,-196 341.5,-221 449.5,-221 449.5,-196 341.5,-196"/>
<polygon fill="none" stroke="#2c3e50" points="341.5,-196 341.5,-221 449.5,-221 449.5,-196 341.5,-196"/>
<text text-anchor="start" x="346.5" y="-205.8" font-family="monospace" font-style="italic" font-size="14.00" fill="#95a5a6">oid</text>
<polygon fill="#ffffff" stroke="none" points="218.5,-171 218.5,-196 341.5,-196 341.5,-171 218.5,-171"/>
<polygon fill="none" stroke="#2c3e50" points="218.5,-171 218.5,-196 341.5,-196 341.5,-171 218.5,-171"/>
<text text-anchor="start" x="223.5" y="-179.8" font-family="monospace" font-size="14.00" fill="#000000">resqueueid</text>
<polygon fill="#ffffff" stroke="none" points="341.5,-171 341.5,-196 449.5,-196 449.5,-171 341.5,-171"/>
<polygon fill="none" stroke="#2c3e50" points="341.5,-171 341.5,-196 449.5,-196 449.5,-171 341.5,-171"/>
<text text-anchor="start" x="346.5" y="-180.8" font-family="monospace" font-style="italic" font-size="14.00" fill="#95a5a6">oid</text>
<polygon fill="#ffffff" stroke="none" points="218.5,-146 218.5,-171 341.5,-171 341.5,-146 218.5,-146"/>
<polygon fill="none" stroke="#2c3e50" points="218.5,-146 218.5,-171 341.5,-171 341.5,-146 218.5,-146"/>
<text text-anchor="start" x="223.5" y="-154.8" font-family="monospace" font-size="14.00" fill="#000000">restypid</text>
<polygon fill="#18bc9c" stroke="none" points="341.5,-146 341.5,-171 449.5,-171 449.5,-146 341.5,-146"/>
<polygon fill="none" stroke="#2c3e50" points="341.5,-146 341.5,-171 449.5,-171 449.5,-146 341.5,-146"/>
<text text-anchor="start" x="346.5" y="-155.8" font-family="monospace" font-style="italic" font-size="14.00" fill="#ffffff">smallint</text>
<polygon fill="#ffffff" stroke="none" points="218.5,-121 218.5,-146 341.5,-146 341.5,-121 218.5,-121"/>
<polygon fill="none" stroke="#2c3e50" points="218.5,-121 218.5,-146 341.5,-146 341.5,-121 218.5,-121"/>
<text text-anchor="start" x="223.5" y="-129.8" font-family="monospace" font-size="14.00" fill="#000000">ressetting</text>
<polygon fill="#ffffff" stroke="none" points="341.5,-121 341.5,-146 449.5,-146 449.5,-121 341.5,-121"/>
<polygon fill="none" stroke="#2c3e50" points="341.5,-121 341.5,-146 449.5,-146 449.5,-121 341.5,-121"/>
<text text-anchor="start" x="346.5" y="-130.8" font-family="monospace" font-style="italic" font-size="14.00" fill="#95a5a6">text</text>
</a>
</g>
</g>
<!-- pg_resourcetype -->
<g id="node2" class="node"><title>pg_resourcetype</title>
<g id="a_node2"><a xlink:href="pg_resourcetype.svg" xlink:title="&lt;TABLE&gt;">
<polygon fill="#2c3e50" stroke="none" points="904,-220 904,-250 1140,-250 1140,-220 904,-220"/>
<polygon fill="none" stroke="black" points="904,-220 904,-250 1140,-250 1140,-220 904,-220"/>
<text text-anchor="start" x="943" y="-231.6" font-family="monospace" font-weight="bold" font-size="18.00" fill="#ffffff">pg_resourcetype</text>
<polygon fill="#ffffff" stroke="none" points="904,-195 904,-220 1063,-220 1063,-195 904,-195"/>
<polygon fill="none" stroke="#2c3e50" points="904,-195 904,-220 1063,-220 1063,-195 904,-195"/>
<text text-anchor="start" x="909" y="-203.8" font-family="monospace" font-size="14.00" fill="#000000">oid</text>
<polygon fill="#ffffff" stroke="none" points="1063,-195 1063,-220 1140,-220 1140,-195 1063,-195"/>
<polygon fill="none" stroke="#2c3e50" points="1063,-195 1063,-220 1140,-220 1140,-195 1063,-195"/>
<text text-anchor="start" x="1068" y="-204.8" font-family="monospace" font-style="italic" font-size="14.00" fill="#95a5a6">oid</text>
<polygon fill="#ffffff" stroke="none" points="904,-170 904,-195 1063,-195 1063,-170 904,-170"/>
<polygon fill="none" stroke="#2c3e50" points="904,-170 904,-195 1063,-195 1063,-170 904,-170"/>
<text text-anchor="start" x="909" y="-178.8" font-family="monospace" font-size="14.00" fill="#000000">resname</text>
<polygon fill="#ffffff" stroke="none" points="1063,-170 1063,-195 1140,-195 1140,-170 1063,-170"/>
<polygon fill="none" stroke="#2c3e50" points="1063,-170 1063,-195 1140,-195 1140,-170 1063,-170"/>
<text text-anchor="start" x="1068" y="-179.8" font-family="monospace" font-style="italic" font-size="14.00" fill="#95a5a6">name</text>
<polygon fill="#18bc9c" stroke="none" points="904,-145 904,-170 1063,-170 1063,-145 904,-145"/>
<polygon fill="none" stroke="#2c3e50" points="904,-145 904,-170 1063,-170 1063,-145 904,-145"/>
<text text-anchor="start" x="909" y="-153.8" font-family="monospace" font-size="14.00" fill="#ffffff">restypid</text>
<polygon fill="#ffffff" stroke="none" points="1063,-145 1063,-170 1140,-170 1140,-145 1063,-145"/>
<polygon fill="none" stroke="#2c3e50" points="1063,-145 1063,-170 1140,-170 1140,-145 1063,-145"/>
<text text-anchor="start" x="1068" y="-154.8" font-family="monospace" font-style="italic" font-size="14.00" fill="#95a5a6">smallint</text>
<polygon fill="#ffffff" stroke="none" points="904,-120 904,-145 1063,-145 1063,-120 904,-120"/>
<polygon fill="none" stroke="#2c3e50" points="904,-120 904,-145 1063,-145 1063,-120 904,-120"/>
<text text-anchor="start" x="909" y="-128.8" font-family="monospace" font-size="14.00" fill="#000000">resrequired</text>
<polygon fill="#ffffff" stroke="none" points="1063,-120 1063,-145 1140,-145 1140,-120 1063,-120"/>
<polygon fill="none" stroke="#2c3e50" points="1063,-120 1063,-145 1140,-145 1140,-120 1063,-120"/>
<text text-anchor="start" x="1068" y="-129.8" font-family="monospace" font-style="italic" font-size="14.00" fill="#95a5a6">boolean</text>
<polygon fill="#ffffff" stroke="none" points="904,-95 904,-120 1063,-120 1063,-95 904,-95"/>
<polygon fill="none" stroke="#2c3e50" points="904,-95 904,-120 1063,-120 1063,-95 904,-95"/>
<text text-anchor="start" x="909" y="-103.8" font-family="monospace" font-size="14.00" fill="#000000">reshasdefault</text>
<polygon fill="#ffffff" stroke="none" points="1063,-95 1063,-120 1140,-120 1140,-95 1063,-95"/>
<polygon fill="none" stroke="#2c3e50" points="1063,-95 1063,-120 1140,-120 1140,-95 1063,-95"/>
<text text-anchor="start" x="1068" y="-104.8" font-family="monospace" font-style="italic" font-size="14.00" fill="#95a5a6">boolean</text>
<polygon fill="#ffffff" stroke="none" points="904,-70 904,-95 1063,-95 1063,-70 904,-70"/>
<polygon fill="none" stroke="#2c3e50" points="904,-70 904,-95 1063,-95 1063,-70 904,-70"/>
<text text-anchor="start" x="909" y="-78.8" font-family="monospace" font-size="14.00" fill="#000000">reshasdisable</text>
<polygon fill="#ffffff" stroke="none" points="1063,-70 1063,-95 1140,-95 1140,-70 1063,-70"/>
<polygon fill="none" stroke="#2c3e50" points="1063,-70 1063,-95 1140,-95 1140,-70 1063,-70"/>
<text text-anchor="start" x="1068" y="-79.8" font-family="monospace" font-style="italic" font-size="14.00" fill="#95a5a6">boolean</text>
<polygon fill="#ffffff" stroke="none" points="904,-45 904,-70 1063,-70 1063,-45 904,-45"/>
<polygon fill="none" stroke="#2c3e50" points="904,-45 904,-70 1063,-70 1063,-45 904,-45"/>
<text text-anchor="start" x="909" y="-53.8" font-family="monospace" font-size="14.00" fill="#000000">resdefaultsetting</text>
<polygon fill="#ffffff" stroke="none" points="1063,-45 1063,-70 1140,-70 1140,-45 1063,-45"/>
<polygon fill="none" stroke="#2c3e50" points="1063,-45 1063,-70 1140,-70 1140,-45 1063,-45"/>
<text text-anchor="start" x="1068" y="-54.8" font-family="monospace" font-style="italic" font-size="14.00" fill="#95a5a6">text</text>
<polygon fill="#ffffff" stroke="none" points="904,-20 904,-45 1063,-45 1063,-20 904,-20"/>
<polygon fill="none" stroke="#2c3e50" points="904,-20 904,-45 1063,-45 1063,-20 904,-20"/>
<text text-anchor="start" x="909" y="-28.8" font-family="monospace" font-size="14.00" fill="#000000">resdisabledsetting</text>
<polygon fill="#ffffff" stroke="none" points="1063,-20 1063,-45 1140,-45 1140,-20 1063,-20"/>
<polygon fill="none" stroke="#2c3e50" points="1063,-20 1063,-45 1140,-45 1140,-20 1063,-20"/>
<text text-anchor="start" x="1068" y="-29.8" font-family="monospace" font-style="italic" font-size="14.00" fill="#95a5a6">text</text>
</a>
</g>
</g>
<!-- pg_resqueuecapability&#45;&gt;pg_resourcetype -->
<g id="edge1" class="edge"><title>pg_resqueuecapability:restypid_out&#45;&gt;pg_resourcetype:restypid_in</title>
<path fill="none" stroke="#2c3e50" d="M450.5,-158C648.174,-158 700.126,-158 892.82,-158"/>
<polygon fill="#2c3e50" stroke="#2c3e50" points="893,-161.5 903,-158 893,-154.5 893,-161.5"/>
</g>
</g>
</svg>
