<?xml version="1.0" encoding="UTF-8" standalone="no"?>
<!DOCTYPE svg PUBLIC "-//W3C//DTD SVG 1.1//EN"
 "http://www.w3.org/Graphics/SVG/1.1/DTD/svg11.dtd">
<!-- Generated by graphviz version 2.38.0 (20140413.2041)
 -->
<!-- Title: GPDB Pages: 1 -->
<svg width="1250pt" height="703pt"
 viewBox="0.00 0.00 1250.00 703.00" xmlns="http://www.w3.org/2000/svg" xmlns:xlink="http://www.w3.org/1999/xlink">
<g id="graph0" class="graph" transform="scale(1 1) rotate(0) translate(36 667)">
<title>GPDB</title>
<polygon fill="white" stroke="none" points="-36,36 -36,-667 1214,-667 1214,36 -36,36"/>
<text text-anchor="middle" x="589" y="-601.4" font-family="Helvetica,sans-Serif" font-size="32.00">Greenplum System Catalog: pg_rewrite</text>
<g id="clust2" class="cluster"><title>cluster_selected</title>
</g>
<g id="clust3" class="cluster"><title>cluster_to</title>
</g>
<!-- pg_rewrite -->
<g id="node1" class="node"><title>pg_rewrite</title>
<polygon fill="#2c3e50" stroke="none" points="192,-495 192,-525 386,-525 386,-495 192,-495"/>
<polygon fill="none" stroke="black" points="192,-495 192,-525 386,-525 386,-495 192,-495"/>
<text text-anchor="start" x="236" y="-506.6" font-family="monospace" font-weight="bold" font-size="18.00" fill="#ffffff">pg_rewrite</text>
<polygon fill="#ffffff" stroke="none" points="192,-470 192,-495 285,-495 285,-470 192,-470"/>
<polygon fill="none" stroke="#2c3e50" points="192,-470 192,-495 285,-495 285,-470 192,-470"/>
<text text-anchor="start" x="197" y="-478.8" font-family="monospace" font-size="14.00" fill="#000000">oid</text>
<polygon fill="#ffffff" stroke="none" points="285,-470 285,-495 386,-495 386,-470 285,-470"/>
<polygon fill="none" stroke="#2c3e50" points="285,-470 285,-495 386,-495 386,-470 285,-470"/>
<text text-anchor="start" x="290" y="-479.8" font-family="monospace" font-style="italic" font-size="14.00" fill="#95a5a6">oid</text>
<polygon fill="#ffffff" stroke="none" points="192,-445 192,-470 285,-470 285,-445 192,-445"/>
<polygon fill="none" stroke="#2c3e50" points="192,-445 192,-470 285,-470 285,-445 192,-445"/>
<text text-anchor="start" x="197" y="-453.8" font-family="monospace" font-size="14.00" fill="#000000">rulename</text>
<polygon fill="#ffffff" stroke="none" points="285,-445 285,-470 386,-470 386,-445 285,-445"/>
<polygon fill="none" stroke="#2c3e50" points="285,-445 285,-470 386,-470 386,-445 285,-445"/>
<text text-anchor="start" x="290" y="-454.8" font-family="monospace" font-style="italic" font-size="14.00" fill="#95a5a6">name</text>
<polygon fill="#ffffff" stroke="none" points="192,-420 192,-445 285,-445 285,-420 192,-420"/>
<polygon fill="none" stroke="#2c3e50" points="192,-420 192,-445 285,-445 285,-420 192,-420"/>
<text text-anchor="start" x="197" y="-428.8" font-family="monospace" font-size="14.00" fill="#000000">ev_class</text>
<polygon fill="#18bc9c" stroke="none" points="285,-420 285,-445 386,-445 386,-420 285,-420"/>
<polygon fill="none" stroke="#2c3e50" points="285,-420 285,-445 386,-445 386,-420 285,-420"/>
<text text-anchor="start" x="290" y="-429.8" font-family="monospace" font-style="italic" font-size="14.00" fill="#ffffff">oid</text>
<polygon fill="#ffffff" stroke="none" points="192,-395 192,-420 285,-420 285,-395 192,-395"/>
<polygon fill="none" stroke="#2c3e50" points="192,-395 192,-420 285,-420 285,-395 192,-395"/>
<text text-anchor="start" x="197" y="-403.8" font-family="monospace" font-size="14.00" fill="#000000">ev_attr</text>
<polygon fill="#ffffff" stroke="none" points="285,-395 285,-420 386,-420 386,-395 285,-395"/>
<polygon fill="none" stroke="#2c3e50" points="285,-395 285,-420 386,-420 386,-395 285,-395"/>
<text text-anchor="start" x="290" y="-404.8" font-family="monospace" font-style="italic" font-size="14.00" fill="#95a5a6">smallint</text>
<polygon fill="#ffffff" stroke="none" points="192,-370 192,-395 285,-395 285,-370 192,-370"/>
<polygon fill="none" stroke="#2c3e50" points="192,-370 192,-395 285,-395 285,-370 192,-370"/>
<text text-anchor="start" x="197" y="-378.8" font-family="monospace" font-size="14.00" fill="#000000">ev_type</text>
<polygon fill="#ffffff" stroke="none" points="285,-370 285,-395 386,-395 386,-370 285,-370"/>
<polygon fill="none" stroke="#2c3e50" points="285,-370 285,-395 386,-395 386,-370 285,-370"/>
<text text-anchor="start" x="290" y="-379.8" font-family="monospace" font-style="italic" font-size="14.00" fill="#95a5a6">quoted_char</text>
<polygon fill="#ffffff" stroke="none" points="192,-345 192,-370 285,-370 285,-345 192,-345"/>
<polygon fill="none" stroke="#2c3e50" points="192,-345 192,-370 285,-370 285,-345 192,-345"/>
<text text-anchor="start" x="197" y="-353.8" font-family="monospace" font-size="14.00" fill="#000000">is_instead</text>
<polygon fill="#ffffff" stroke="none" points="285,-345 285,-370 386,-370 386,-345 285,-345"/>
<polygon fill="none" stroke="#2c3e50" points="285,-345 285,-370 386,-370 386,-345 285,-345"/>
<text text-anchor="start" x="290" y="-354.8" font-family="monospace" font-style="italic" font-size="14.00" fill="#95a5a6">boolean</text>
<polygon fill="#ffffff" stroke="none" points="192,-320 192,-345 285,-345 285,-320 192,-320"/>
<polygon fill="none" stroke="#2c3e50" points="192,-320 192,-345 285,-345 285,-320 192,-320"/>
<text text-anchor="start" x="197" y="-328.8" font-family="monospace" font-size="14.00" fill="#000000">ev_qual</text>
<polygon fill="#ffffff" stroke="none" points="285,-320 285,-345 386,-345 386,-320 285,-320"/>
<polygon fill="none" stroke="#2c3e50" points="285,-320 285,-345 386,-345 386,-320 285,-320"/>
<text text-anchor="start" x="290" y="-329.8" font-family="monospace" font-style="italic" font-size="14.00" fill="#95a5a6">text</text>
<polygon fill="#ffffff" stroke="none" points="192,-295 192,-320 285,-320 285,-295 192,-295"/>
<polygon fill="none" stroke="#2c3e50" points="192,-295 192,-320 285,-320 285,-295 192,-295"/>
<text text-anchor="start" x="197" y="-303.8" font-family="monospace" font-size="14.00" fill="#000000">ev_action</text>
<polygon fill="#ffffff" stroke="none" points="285,-295 285,-320 386,-320 386,-295 285,-295"/>
<polygon fill="none" stroke="#2c3e50" points="285,-295 285,-320 386,-320 386,-295 285,-295"/>
<text text-anchor="start" x="290" y="-304.8" font-family="monospace" font-style="italic" font-size="14.00" fill="#95a5a6">text</text>
</g>
<!-- pg_attribute -->
<g id="node2" class="node"><title>pg_attribute</title>
<polygon fill="#2c3e50" stroke="none" points="779.5,-470 779.5,-500 998.5,-500 998.5,-470 779.5,-470"/>
<polygon fill="none" stroke="black" points="779.5,-470 779.5,-500 998.5,-500 998.5,-470 779.5,-470"/>
<text text-anchor="start" x="825.5" y="-481.6" font-family="monospace" font-weight="bold" font-size="18.00" fill="#ffffff">pg_attribute</text>
<polygon fill="#ffffff" stroke="none" points="779.5,-445 779.5,-470 897.5,-470 897.5,-445 779.5,-445"/>
<polygon fill="none" stroke="#2c3e50" points="779.5,-445 779.5,-470 897.5,-470 897.5,-445 779.5,-445"/>
<text text-anchor="start" x="784.5" y="-453.8" font-family="monospace" font-size="14.00" fill="#000000">oid</text>
<polygon fill="#ffffff" stroke="none" points="897.5,-445 897.5,-470 998.5,-470 998.5,-445 897.5,-445"/>
<polygon fill="none" stroke="#2c3e50" points="897.5,-445 897.5,-470 998.5,-470 998.5,-445 897.5,-445"/>
<text text-anchor="start" x="902.5" y="-454.8" font-family="monospace" font-style="italic" font-size="14.00" fill="#95a5a6">oid</text>
<polygon fill="#18bc9c" stroke="none" points="779.5,-420 779.5,-445 897.5,-445 897.5,-420 779.5,-420"/>
<polygon fill="none" stroke="#2c3e50" points="779.5,-420 779.5,-445 897.5,-445 897.5,-420 779.5,-420"/>
<text text-anchor="start" x="784.5" y="-428.8" font-family="monospace" font-size="14.00" fill="#ffffff">attrelid</text>
<polygon fill="#ffffff" stroke="none" points="897.5,-420 897.5,-445 998.5,-445 998.5,-420 897.5,-420"/>
<polygon fill="none" stroke="#2c3e50" points="897.5,-420 897.5,-445 998.5,-445 998.5,-420 897.5,-420"/>
<text text-anchor="start" x="902.5" y="-429.8" font-family="monospace" font-style="italic" font-size="14.00" fill="#95a5a6">oid</text>
<polygon fill="#ffffff" stroke="none" points="779.5,-395 779.5,-420 897.5,-420 897.5,-395 779.5,-395"/>
<polygon fill="none" stroke="#2c3e50" points="779.5,-395 779.5,-420 897.5,-420 897.5,-395 779.5,-395"/>
<text text-anchor="start" x="784.5" y="-403.8" font-family="monospace" font-size="14.00" fill="#000000">attname</text>
<polygon fill="#ffffff" stroke="none" points="897.5,-395 897.5,-420 998.5,-420 998.5,-395 897.5,-395"/>
<polygon fill="none" stroke="#2c3e50" points="897.5,-395 897.5,-420 998.5,-420 998.5,-395 897.5,-395"/>
<text text-anchor="start" x="902.5" y="-404.8" font-family="monospace" font-style="italic" font-size="14.00" fill="#95a5a6">name</text>
<polygon fill="#ffffff" stroke="none" points="779.5,-370 779.5,-395 897.5,-395 897.5,-370 779.5,-370"/>
<polygon fill="none" stroke="#2c3e50" points="779.5,-370 779.5,-395 897.5,-395 897.5,-370 779.5,-370"/>
<text text-anchor="start" x="784.5" y="-378.8" font-family="monospace" font-size="14.00" fill="#000000">atttypid</text>
<polygon fill="#ffffff" stroke="none" points="897.5,-370 897.5,-395 998.5,-395 998.5,-370 897.5,-370"/>
<polygon fill="none" stroke="#2c3e50" points="897.5,-370 897.5,-395 998.5,-395 998.5,-370 897.5,-370"/>
<text text-anchor="start" x="902.5" y="-379.8" font-family="monospace" font-style="italic" font-size="14.00" fill="#95a5a6">oid</text>
<polygon fill="#ffffff" stroke="none" points="779.5,-345 779.5,-370 897.5,-370 897.5,-345 779.5,-345"/>
<polygon fill="none" stroke="#2c3e50" points="779.5,-345 779.5,-370 897.5,-370 897.5,-345 779.5,-345"/>
<text text-anchor="start" x="784.5" y="-353.8" font-family="monospace" font-size="14.00" fill="#000000">attstattarget</text>
<polygon fill="#ffffff" stroke="none" points="897.5,-345 897.5,-370 998.5,-370 998.5,-345 897.5,-345"/>
<polygon fill="none" stroke="#2c3e50" points="897.5,-345 897.5,-370 998.5,-370 998.5,-345 897.5,-345"/>
<text text-anchor="start" x="902.5" y="-354.8" font-family="monospace" font-style="italic" font-size="14.00" fill="#95a5a6">integer</text>
<polygon fill="#ffffff" stroke="none" points="779.5,-320 779.5,-345 897.5,-345 897.5,-320 779.5,-320"/>
<polygon fill="none" stroke="#2c3e50" points="779.5,-320 779.5,-345 897.5,-345 897.5,-320 779.5,-320"/>
<text text-anchor="start" x="784.5" y="-328.8" font-family="monospace" font-size="14.00" fill="#000000">attlen</text>
<polygon fill="#ffffff" stroke="none" points="897.5,-320 897.5,-345 998.5,-345 998.5,-320 897.5,-320"/>
<polygon fill="none" stroke="#2c3e50" points="897.5,-320 897.5,-345 998.5,-345 998.5,-320 897.5,-320"/>
<text text-anchor="start" x="902.5" y="-329.8" font-family="monospace" font-style="italic" font-size="14.00" fill="#95a5a6">smallint</text>
<polygon fill="#ffffff" stroke="none" points="779.5,-295 779.5,-320 897.5,-320 897.5,-295 779.5,-295"/>
<polygon fill="none" stroke="#2c3e50" points="779.5,-295 779.5,-320 897.5,-320 897.5,-295 779.5,-295"/>
<text text-anchor="start" x="784.5" y="-303.8" font-family="monospace" font-size="14.00" fill="#000000">attnum</text>
<polygon fill="#ffffff" stroke="none" points="897.5,-295 897.5,-320 998.5,-320 998.5,-295 897.5,-295"/>
<polygon fill="none" stroke="#2c3e50" points="897.5,-295 897.5,-320 998.5,-320 998.5,-295 897.5,-295"/>
<text text-anchor="start" x="902.5" y="-304.8" font-family="monospace" font-style="italic" font-size="14.00" fill="#95a5a6">smallint</text>
<polygon fill="#ffffff" stroke="none" points="779.5,-270 779.5,-295 897.5,-295 897.5,-270 779.5,-270"/>
<polygon fill="none" stroke="#2c3e50" points="779.5,-270 779.5,-295 897.5,-295 897.5,-270 779.5,-270"/>
<text text-anchor="start" x="784.5" y="-278.8" font-family="monospace" font-size="14.00" fill="#000000">attndims</text>
<polygon fill="#ffffff" stroke="none" points="897.5,-270 897.5,-295 998.5,-295 998.5,-270 897.5,-270"/>
<polygon fill="none" stroke="#2c3e50" points="897.5,-270 897.5,-295 998.5,-295 998.5,-270 897.5,-270"/>
<text text-anchor="start" x="902.5" y="-279.8" font-family="monospace" font-style="italic" font-size="14.00" fill="#95a5a6">integer</text>
<polygon fill="#ffffff" stroke="none" points="779.5,-245 779.5,-270 897.5,-270 897.5,-245 779.5,-245"/>
<polygon fill="none" stroke="#2c3e50" points="779.5,-245 779.5,-270 897.5,-270 897.5,-245 779.5,-245"/>
<text text-anchor="start" x="784.5" y="-253.8" font-family="monospace" font-size="14.00" fill="#000000">attcacheoff</text>
<polygon fill="#ffffff" stroke="none" points="897.5,-245 897.5,-270 998.5,-270 998.5,-245 897.5,-245"/>
<polygon fill="none" stroke="#2c3e50" points="897.5,-245 897.5,-270 998.5,-270 998.5,-245 897.5,-245"/>
<text text-anchor="start" x="902.5" y="-254.8" font-family="monospace" font-style="italic" font-size="14.00" fill="#95a5a6">integer</text>
<polygon fill="#ffffff" stroke="none" points="779.5,-220 779.5,-245 897.5,-245 897.5,-220 779.5,-220"/>
<polygon fill="none" stroke="#2c3e50" points="779.5,-220 779.5,-245 897.5,-245 897.5,-220 779.5,-220"/>
<text text-anchor="start" x="784.5" y="-228.8" font-family="monospace" font-size="14.00" fill="#000000">atttypmod</text>
<polygon fill="#ffffff" stroke="none" points="897.5,-220 897.5,-245 998.5,-245 998.5,-220 897.5,-220"/>
<polygon fill="none" stroke="#2c3e50" points="897.5,-220 897.5,-245 998.5,-245 998.5,-220 897.5,-220"/>
<text text-anchor="start" x="902.5" y="-229.8" font-family="monospace" font-style="italic" font-size="14.00" fill="#95a5a6">integer</text>
<polygon fill="#ffffff" stroke="none" points="779.5,-195 779.5,-220 897.5,-220 897.5,-195 779.5,-195"/>
<polygon fill="none" stroke="#2c3e50" points="779.5,-195 779.5,-220 897.5,-220 897.5,-195 779.5,-195"/>
<text text-anchor="start" x="784.5" y="-203.8" font-family="monospace" font-size="14.00" fill="#000000">attbyval</text>
<polygon fill="#ffffff" stroke="none" points="897.5,-195 897.5,-220 998.5,-220 998.5,-195 897.5,-195"/>
<polygon fill="none" stroke="#2c3e50" points="897.5,-195 897.5,-220 998.5,-220 998.5,-195 897.5,-195"/>
<text text-anchor="start" x="902.5" y="-204.8" font-family="monospace" font-style="italic" font-size="14.00" fill="#95a5a6">boolean</text>
<polygon fill="#ffffff" stroke="none" points="779.5,-170 779.5,-195 897.5,-195 897.5,-170 779.5,-170"/>
<polygon fill="none" stroke="#2c3e50" points="779.5,-170 779.5,-195 897.5,-195 897.5,-170 779.5,-170"/>
<text text-anchor="start" x="784.5" y="-178.8" font-family="monospace" font-size="14.00" fill="#000000">attstorage</text>
<polygon fill="#ffffff" stroke="none" points="897.5,-170 897.5,-195 998.5,-195 998.5,-170 897.5,-170"/>
<polygon fill="none" stroke="#2c3e50" points="897.5,-170 897.5,-195 998.5,-195 998.5,-170 897.5,-170"/>
<text text-anchor="start" x="902.5" y="-179.8" font-family="monospace" font-style="italic" font-size="14.00" fill="#95a5a6">quoted_char</text>
<polygon fill="#ffffff" stroke="none" points="779.5,-145 779.5,-170 897.5,-170 897.5,-145 779.5,-145"/>
<polygon fill="none" stroke="#2c3e50" points="779.5,-145 779.5,-170 897.5,-170 897.5,-145 779.5,-145"/>
<text text-anchor="start" x="784.5" y="-153.8" font-family="monospace" font-size="14.00" fill="#000000">attalign</text>
<polygon fill="#ffffff" stroke="none" points="897.5,-145 897.5,-170 998.5,-170 998.5,-145 897.5,-145"/>
<polygon fill="none" stroke="#2c3e50" points="897.5,-145 897.5,-170 998.5,-170 998.5,-145 897.5,-145"/>
<text text-anchor="start" x="902.5" y="-154.8" font-family="monospace" font-style="italic" font-size="14.00" fill="#95a5a6">quoted_char</text>
<polygon fill="#ffffff" stroke="none" points="779.5,-120 779.5,-145 897.5,-145 897.5,-120 779.5,-120"/>
<polygon fill="none" stroke="#2c3e50" points="779.5,-120 779.5,-145 897.5,-145 897.5,-120 779.5,-120"/>
<text text-anchor="start" x="784.5" y="-128.8" font-family="monospace" font-size="14.00" fill="#000000">attnotnull</text>
<polygon fill="#ffffff" stroke="none" points="897.5,-120 897.5,-145 998.5,-145 998.5,-120 897.5,-120"/>
<polygon fill="none" stroke="#2c3e50" points="897.5,-120 897.5,-145 998.5,-145 998.5,-120 897.5,-120"/>
<text text-anchor="start" x="902.5" y="-129.8" font-family="monospace" font-style="italic" font-size="14.00" fill="#95a5a6">boolean</text>
<polygon fill="#ffffff" stroke="none" points="779.5,-95 779.5,-120 897.5,-120 897.5,-95 779.5,-95"/>
<polygon fill="none" stroke="#2c3e50" points="779.5,-95 779.5,-120 897.5,-120 897.5,-95 779.5,-95"/>
<text text-anchor="start" x="784.5" y="-103.8" font-family="monospace" font-size="14.00" fill="#000000">atthasdef</text>
<polygon fill="#ffffff" stroke="none" points="897.5,-95 897.5,-120 998.5,-120 998.5,-95 897.5,-95"/>
<polygon fill="none" stroke="#2c3e50" points="897.5,-95 897.5,-120 998.5,-120 998.5,-95 897.5,-95"/>
<text text-anchor="start" x="902.5" y="-104.8" font-family="monospace" font-style="italic" font-size="14.00" fill="#95a5a6">boolean</text>
<polygon fill="#ffffff" stroke="none" points="779.5,-70 779.5,-95 897.5,-95 897.5,-70 779.5,-70"/>
<polygon fill="none" stroke="#2c3e50" points="779.5,-70 779.5,-95 897.5,-95 897.5,-70 779.5,-70"/>
<text text-anchor="start" x="784.5" y="-78.8" font-family="monospace" font-size="14.00" fill="#000000">attisdropped</text>
<polygon fill="#ffffff" stroke="none" points="897.5,-70 897.5,-95 998.5,-95 998.5,-70 897.5,-70"/>
<polygon fill="none" stroke="#2c3e50" points="897.5,-70 897.5,-95 998.5,-95 998.5,-70 897.5,-70"/>
<text text-anchor="start" x="902.5" y="-79.8" font-family="monospace" font-style="italic" font-size="14.00" fill="#95a5a6">boolean</text>
<polygon fill="#ffffff" stroke="none" points="779.5,-45 779.5,-70 897.5,-70 897.5,-45 779.5,-45"/>
<polygon fill="none" stroke="#2c3e50" points="779.5,-45 779.5,-70 897.5,-70 897.5,-45 779.5,-45"/>
<text text-anchor="start" x="784.5" y="-53.8" font-family="monospace" font-size="14.00" fill="#000000">attislocal</text>
<polygon fill="#ffffff" stroke="none" points="897.5,-45 897.5,-70 998.5,-70 998.5,-45 897.5,-45"/>
<polygon fill="none" stroke="#2c3e50" points="897.5,-45 897.5,-70 998.5,-70 998.5,-45 897.5,-45"/>
<text text-anchor="start" x="902.5" y="-54.8" font-family="monospace" font-style="italic" font-size="14.00" fill="#95a5a6">boolean</text>
<polygon fill="#ffffff" stroke="none" points="779.5,-20 779.5,-45 897.5,-45 897.5,-20 779.5,-20"/>
<polygon fill="none" stroke="#2c3e50" points="779.5,-20 779.5,-45 897.5,-45 897.5,-20 779.5,-20"/>
<text text-anchor="start" x="784.5" y="-28.8" font-family="monospace" font-size="14.00" fill="#000000">attinhcount</text>
<polygon fill="#ffffff" stroke="none" points="897.5,-20 897.5,-45 998.5,-45 998.5,-20 897.5,-20"/>
<polygon fill="none" stroke="#2c3e50" points="897.5,-20 897.5,-45 998.5,-45 998.5,-20 897.5,-20"/>
<text text-anchor="start" x="902.5" y="-29.8" font-family="monospace" font-style="italic" font-size="14.00" fill="#95a5a6">integer</text>
</g>
<!-- pg_rewrite&#45;&gt;pg_attribute -->
<g id="edge1" class="edge"><title>pg_rewrite:ev_class_out&#45;&gt;pg_attribute:attrelid_in</title>
<path fill="none" stroke="#2c3e50" d="M387,-433C557.602,-433 602.751,-433 768.452,-433"/>
<polygon fill="#2c3e50" stroke="#2c3e50" points="768.5,-436.5 778.5,-433 768.5,-429.5 768.5,-436.5"/>
</g>
</g>
</svg>
