<?xml version="1.0" encoding="UTF-8" standalone="no"?>
<!DOCTYPE svg PUBLIC "-//W3C//DTD SVG 1.1//EN"
 "http://www.w3.org/Graphics/SVG/1.1/DTD/svg11.dtd">
<!-- Generated by graphviz version 2.38.0 (20140413.2041)
 -->
<!-- Title: GPDB Pages: 1 -->
<svg width="1592pt" height="652pt"
 viewBox="0.00 0.00 1592.00 652.00" xmlns="http://www.w3.org/2000/svg" xmlns:xlink="http://www.w3.org/1999/xlink">
<g id="graph0" class="graph" transform="scale(1 1) rotate(0) translate(36 616)">
<title>GPDB</title>
<polygon fill="white" stroke="none" points="-36,36 -36,-616 1556,-616 1556,36 -36,36"/>
<text text-anchor="middle" x="760" y="-550.4" font-family="Helvetica,sans-Serif" font-size="32.00">Greenplum System Catalog: pg_resqueuecapability</text>
<g id="clust2" class="cluster"><title>cluster_selected</title>
</g>
<g id="clust3" class="cluster"><title>cluster_to</title>
</g>
<!-- pg_resqueuecapability -->
<g id="node1" class="node"><title>pg_resqueuecapability</title>
<polygon fill="#2c3e50" stroke="none" points="259.5,-332 259.5,-362 490.5,-362 490.5,-332 259.5,-332"/>
<polygon fill="none" stroke="black" points="259.5,-332 259.5,-362 490.5,-362 490.5,-332 259.5,-332"/>
<text text-anchor="start" x="264.5" y="-343.6" font-family="monospace" font-weight="bold" font-size="18.00" fill="#ffffff">pg_resqueuecapability</text>
<polygon fill="#ffffff" stroke="none" points="259.5,-307 259.5,-332 382.5,-332 382.5,-307 259.5,-307"/>
<polygon fill="none" stroke="#2c3e50" points="259.5,-307 259.5,-332 382.5,-332 382.5,-307 259.5,-307"/>
<text text-anchor="start" x="264.5" y="-315.8" font-family="monospace" font-size="14.00" fill="#000000">oid</text>
<polygon fill="#ffffff" stroke="none" points="382.5,-307 382.5,-332 490.5,-332 490.5,-307 382.5,-307"/>
<polygon fill="none" stroke="#2c3e50" points="382.5,-307 382.5,-332 490.5,-332 490.5,-307 382.5,-307"/>
<text text-anchor="start" x="387.5" y="-316.8" font-family="monospace" font-style="italic" font-size="14.00" fill="#95a5a6">oid</text>
<polygon fill="#ffffff" stroke="none" points="259.5,-282 259.5,-307 382.5,-307 382.5,-282 259.5,-282"/>
<polygon fill="none" stroke="#2c3e50" points="259.5,-282 259.5,-307 382.5,-307 382.5,-282 259.5,-282"/>
<text text-anchor="start" x="264.5" y="-290.8" font-family="monospace" font-size="14.00" fill="#000000">resqueueid</text>
<polygon fill="#18bc9c" stroke="none" points="382.5,-282 382.5,-307 490.5,-307 490.5,-282 382.5,-282"/>
<polygon fill="none" stroke="#2c3e50" points="382.5,-282 382.5,-307 490.5,-307 490.5,-282 382.5,-282"/>
<text text-anchor="start" x="387.5" y="-291.8" font-family="monospace" font-style="italic" font-size="14.00" fill="#ffffff">oid</text>
<polygon fill="#ffffff" stroke="none" points="259.5,-257 259.5,-282 382.5,-282 382.5,-257 259.5,-257"/>
<polygon fill="none" stroke="#2c3e50" points="259.5,-257 259.5,-282 382.5,-282 382.5,-257 259.5,-257"/>
<text text-anchor="start" x="264.5" y="-265.8" font-family="monospace" font-size="14.00" fill="#000000">restypid</text>
<polygon fill="#18bc9c" stroke="none" points="382.5,-257 382.5,-282 490.5,-282 490.5,-257 382.5,-257"/>
<polygon fill="none" stroke="#2c3e50" points="382.5,-257 382.5,-282 490.5,-282 490.5,-257 382.5,-257"/>
<text text-anchor="start" x="387.5" y="-266.8" font-family="monospace" font-style="italic" font-size="14.00" fill="#ffffff">smallint</text>
<polygon fill="#ffffff" stroke="none" points="259.5,-232 259.5,-257 382.5,-257 382.5,-232 259.5,-232"/>
<polygon fill="none" stroke="#2c3e50" points="259.5,-232 259.5,-257 382.5,-257 382.5,-232 259.5,-232"/>
<text text-anchor="start" x="264.5" y="-240.8" font-family="monospace" font-size="14.00" fill="#000000">ressetting</text>
<polygon fill="#ffffff" stroke="none" points="382.5,-232 382.5,-257 490.5,-257 490.5,-232 382.5,-232"/>
<polygon fill="none" stroke="#2c3e50" points="382.5,-232 382.5,-257 490.5,-257 490.5,-232 382.5,-232"/>
<text text-anchor="start" x="387.5" y="-241.8" font-family="monospace" font-style="italic" font-size="14.00" fill="#95a5a6">text</text>
</g>
<!-- pg_resqueue -->
<g id="node2" class="node"><title>pg_resqueue</title>
<polygon fill="#2c3e50" stroke="none" points="1032,-444 1032,-474 1259,-474 1259,-444 1032,-444"/>
<polygon fill="none" stroke="black" points="1032,-444 1032,-474 1259,-474 1259,-444 1032,-444"/>
<text text-anchor="start" x="1087.5" y="-455.6" font-family="monospace" font-weight="bold" font-size="18.00" fill="#ffffff">pg_resqueue</text>
<polygon fill="#18bc9c" stroke="none" points="1032,-419 1032,-444 1191,-444 1191,-419 1032,-419"/>
<polygon fill="none" stroke="#2c3e50" points="1032,-419 1032,-444 1191,-444 1191,-419 1032,-419"/>
<text text-anchor="start" x="1037" y="-427.8" font-family="monospace" font-size="14.00" fill="#ffffff">oid</text>
<polygon fill="#ffffff" stroke="none" points="1191,-419 1191,-444 1259,-444 1259,-419 1191,-419"/>
<polygon fill="none" stroke="#2c3e50" points="1191,-419 1191,-444 1259,-444 1259,-419 1191,-419"/>
<text text-anchor="start" x="1196" y="-428.8" font-family="monospace" font-style="italic" font-size="14.00" fill="#95a5a6">oid</text>
<polygon fill="#ffffff" stroke="none" points="1032,-394 1032,-419 1191,-419 1191,-394 1032,-394"/>
<polygon fill="none" stroke="#2c3e50" points="1032,-394 1032,-419 1191,-419 1191,-394 1032,-394"/>
<text text-anchor="start" x="1037" y="-402.8" font-family="monospace" font-size="14.00" fill="#000000">rsqname</text>
<polygon fill="#ffffff" stroke="none" points="1191,-394 1191,-419 1259,-419 1259,-394 1191,-394"/>
<polygon fill="none" stroke="#2c3e50" points="1191,-394 1191,-419 1259,-419 1259,-394 1191,-394"/>
<text text-anchor="start" x="1196" y="-403.8" font-family="monospace" font-style="italic" font-size="14.00" fill="#95a5a6">name</text>
<polygon fill="#ffffff" stroke="none" points="1032,-369 1032,-394 1191,-394 1191,-369 1032,-369"/>
<polygon fill="none" stroke="#2c3e50" points="1032,-369 1032,-394 1191,-394 1191,-369 1032,-369"/>
<text text-anchor="start" x="1037" y="-377.8" font-family="monospace" font-size="14.00" fill="#000000">rsqcountlimit</text>
<polygon fill="#ffffff" stroke="none" points="1191,-369 1191,-394 1259,-394 1259,-369 1191,-369"/>
<polygon fill="none" stroke="#2c3e50" points="1191,-369 1191,-394 1259,-394 1259,-369 1191,-369"/>
<text text-anchor="start" x="1196" y="-378.8" font-family="monospace" font-style="italic" font-size="14.00" fill="#95a5a6">real</text>
<polygon fill="#ffffff" stroke="none" points="1032,-344 1032,-369 1191,-369 1191,-344 1032,-344"/>
<polygon fill="none" stroke="#2c3e50" points="1032,-344 1032,-369 1191,-369 1191,-344 1032,-344"/>
<text text-anchor="start" x="1037" y="-352.8" font-family="monospace" font-size="14.00" fill="#000000">rsqcostlimit</text>
<polygon fill="#ffffff" stroke="none" points="1191,-344 1191,-369 1259,-369 1259,-344 1191,-344"/>
<polygon fill="none" stroke="#2c3e50" points="1191,-344 1191,-369 1259,-369 1259,-344 1191,-344"/>
<text text-anchor="start" x="1196" y="-353.8" font-family="monospace" font-style="italic" font-size="14.00" fill="#95a5a6">real</text>
<polygon fill="#ffffff" stroke="none" points="1032,-319 1032,-344 1191,-344 1191,-319 1032,-319"/>
<polygon fill="none" stroke="#2c3e50" points="1032,-319 1032,-344 1191,-344 1191,-319 1032,-319"/>
<text text-anchor="start" x="1037" y="-327.8" font-family="monospace" font-size="14.00" fill="#000000">rsqovercommit</text>
<polygon fill="#ffffff" stroke="none" points="1191,-319 1191,-344 1259,-344 1259,-319 1191,-319"/>
<polygon fill="none" stroke="#2c3e50" points="1191,-319 1191,-344 1259,-344 1259,-319 1191,-319"/>
<text text-anchor="start" x="1196" y="-328.8" font-family="monospace" font-style="italic" font-size="14.00" fill="#95a5a6">boolean</text>
<polygon fill="#ffffff" stroke="none" points="1032,-294 1032,-319 1191,-319 1191,-294 1032,-294"/>
<polygon fill="none" stroke="#2c3e50" points="1032,-294 1032,-319 1191,-319 1191,-294 1032,-294"/>
<text text-anchor="start" x="1037" y="-302.8" font-family="monospace" font-size="14.00" fill="#000000">rsqignorecostlimit</text>
<polygon fill="#ffffff" stroke="none" points="1191,-294 1191,-319 1259,-319 1259,-294 1191,-294"/>
<polygon fill="none" stroke="#2c3e50" points="1191,-294 1191,-319 1259,-319 1259,-294 1191,-294"/>
<text text-anchor="start" x="1196" y="-303.8" font-family="monospace" font-style="italic" font-size="14.00" fill="#95a5a6">real</text>
</g>
<!-- pg_resqueuecapability&#45;&gt;pg_resqueue -->
<g id="edge1" class="edge"><title>pg_resqueuecapability:resqueueid_out&#45;&gt;pg_resqueue:oid_in</title>
<path fill="none" stroke="#2c3e50" d="M491.5,-294C735.614,-294 782.247,-428.252 1020.96,-431.923"/>
<polygon fill="#2c3e50" stroke="#2c3e50" points="1020.97,-435.423 1031,-432 1021.03,-428.424 1020.97,-435.423"/>
</g>
<!-- pg_resourcetype -->
<g id="node3" class="node"><title>pg_resourcetype</title>
<polygon fill="#2c3e50" stroke="none" points="1027,-220 1027,-250 1263,-250 1263,-220 1027,-220"/>
<polygon fill="none" stroke="black" points="1027,-220 1027,-250 1263,-250 1263,-220 1027,-220"/>
<text text-anchor="start" x="1066" y="-231.6" font-family="monospace" font-weight="bold" font-size="18.00" fill="#ffffff">pg_resourcetype</text>
<polygon fill="#ffffff" stroke="none" points="1027,-195 1027,-220 1186,-220 1186,-195 1027,-195"/>
<polygon fill="none" stroke="#2c3e50" points="1027,-195 1027,-220 1186,-220 1186,-195 1027,-195"/>
<text text-anchor="start" x="1032" y="-203.8" font-family="monospace" font-size="14.00" fill="#000000">oid</text>
<polygon fill="#ffffff" stroke="none" points="1186,-195 1186,-220 1263,-220 1263,-195 1186,-195"/>
<polygon fill="none" stroke="#2c3e50" points="1186,-195 1186,-220 1263,-220 1263,-195 1186,-195"/>
<text text-anchor="start" x="1191" y="-204.8" font-family="monospace" font-style="italic" font-size="14.00" fill="#95a5a6">oid</text>
<polygon fill="#ffffff" stroke="none" points="1027,-170 1027,-195 1186,-195 1186,-170 1027,-170"/>
<polygon fill="none" stroke="#2c3e50" points="1027,-170 1027,-195 1186,-195 1186,-170 1027,-170"/>
<text text-anchor="start" x="1032" y="-178.8" font-family="monospace" font-size="14.00" fill="#000000">resname</text>
<polygon fill="#ffffff" stroke="none" points="1186,-170 1186,-195 1263,-195 1263,-170 1186,-170"/>
<polygon fill="none" stroke="#2c3e50" points="1186,-170 1186,-195 1263,-195 1263,-170 1186,-170"/>
<text text-anchor="start" x="1191" y="-179.8" font-family="monospace" font-style="italic" font-size="14.00" fill="#95a5a6">name</text>
<polygon fill="#18bc9c" stroke="none" points="1027,-145 1027,-170 1186,-170 1186,-145 1027,-145"/>
<polygon fill="none" stroke="#2c3e50" points="1027,-145 1027,-170 1186,-170 1186,-145 1027,-145"/>
<text text-anchor="start" x="1032" y="-153.8" font-family="monospace" font-size="14.00" fill="#ffffff">restypid</text>
<polygon fill="#ffffff" stroke="none" points="1186,-145 1186,-170 1263,-170 1263,-145 1186,-145"/>
<polygon fill="none" stroke="#2c3e50" points="1186,-145 1186,-170 1263,-170 1263,-145 1186,-145"/>
<text text-anchor="start" x="1191" y="-154.8" font-family="monospace" font-style="italic" font-size="14.00" fill="#95a5a6">smallint</text>
<polygon fill="#ffffff" stroke="none" points="1027,-120 1027,-145 1186,-145 1186,-120 1027,-120"/>
<polygon fill="none" stroke="#2c3e50" points="1027,-120 1027,-145 1186,-145 1186,-120 1027,-120"/>
<text text-anchor="start" x="1032" y="-128.8" font-family="monospace" font-size="14.00" fill="#000000">resrequired</text>
<polygon fill="#ffffff" stroke="none" points="1186,-120 1186,-145 1263,-145 1263,-120 1186,-120"/>
<polygon fill="none" stroke="#2c3e50" points="1186,-120 1186,-145 1263,-145 1263,-120 1186,-120"/>
<text text-anchor="start" x="1191" y="-129.8" font-family="monospace" font-style="italic" font-size="14.00" fill="#95a5a6">boolean</text>
<polygon fill="#ffffff" stroke="none" points="1027,-95 1027,-120 1186,-120 1186,-95 1027,-95"/>
<polygon fill="none" stroke="#2c3e50" points="1027,-95 1027,-120 1186,-120 1186,-95 1027,-95"/>
<text text-anchor="start" x="1032" y="-103.8" font-family="monospace" font-size="14.00" fill="#000000">reshasdefault</text>
<polygon fill="#ffffff" stroke="none" points="1186,-95 1186,-120 1263,-120 1263,-95 1186,-95"/>
<polygon fill="none" stroke="#2c3e50" points="1186,-95 1186,-120 1263,-120 1263,-95 1186,-95"/>
<text text-anchor="start" x="1191" y="-104.8" font-family="monospace" font-style="italic" font-size="14.00" fill="#95a5a6">boolean</text>
<polygon fill="#ffffff" stroke="none" points="1027,-70 1027,-95 1186,-95 1186,-70 1027,-70"/>
<polygon fill="none" stroke="#2c3e50" points="1027,-70 1027,-95 1186,-95 1186,-70 1027,-70"/>
<text text-anchor="start" x="1032" y="-78.8" font-family="monospace" font-size="14.00" fill="#000000">reshasdisable</text>
<polygon fill="#ffffff" stroke="none" points="1186,-70 1186,-95 1263,-95 1263,-70 1186,-70"/>
<polygon fill="none" stroke="#2c3e50" points="1186,-70 1186,-95 1263,-95 1263,-70 1186,-70"/>
<text text-anchor="start" x="1191" y="-79.8" font-family="monospace" font-style="italic" font-size="14.00" fill="#95a5a6">boolean</text>
<polygon fill="#ffffff" stroke="none" points="1027,-45 1027,-70 1186,-70 1186,-45 1027,-45"/>
<polygon fill="none" stroke="#2c3e50" points="1027,-45 1027,-70 1186,-70 1186,-45 1027,-45"/>
<text text-anchor="start" x="1032" y="-53.8" font-family="monospace" font-size="14.00" fill="#000000">resdefaultsetting</text>
<polygon fill="#ffffff" stroke="none" points="1186,-45 1186,-70 1263,-70 1263,-45 1186,-45"/>
<polygon fill="none" stroke="#2c3e50" points="1186,-45 1186,-70 1263,-70 1263,-45 1186,-45"/>
<text text-anchor="start" x="1191" y="-54.8" font-family="monospace" font-style="italic" font-size="14.00" fill="#95a5a6">text</text>
<polygon fill="#ffffff" stroke="none" points="1027,-20 1027,-45 1186,-45 1186,-20 1027,-20"/>
<polygon fill="none" stroke="#2c3e50" points="1027,-20 1027,-45 1186,-45 1186,-20 1027,-20"/>
<text text-anchor="start" x="1032" y="-28.8" font-family="monospace" font-size="14.00" fill="#000000">resdisabledsetting</text>
<polygon fill="#ffffff" stroke="none" points="1186,-20 1186,-45 1263,-45 1263,-20 1186,-20"/>
<polygon fill="none" stroke="#2c3e50" points="1186,-20 1186,-45 1263,-45 1263,-20 1186,-20"/>
<text text-anchor="start" x="1191" y="-29.8" font-family="monospace" font-style="italic" font-size="14.00" fill="#95a5a6">text</text>
</g>
<!-- pg_resqueuecapability&#45;&gt;pg_resourcetype -->
<g id="edge2" class="edge"><title>pg_resqueuecapability:restypid_out&#45;&gt;pg_resourcetype:restypid_in</title>
<path fill="none" stroke="#2c3e50" d="M491.5,-269C730.688,-269 781.942,-161.121 1015.81,-158.066"/>
<polygon fill="#2c3e50" stroke="#2c3e50" points="1016.02,-161.565 1026,-158 1015.98,-154.565 1016.02,-161.565"/>
</g>
</g>
</svg>
