<?xml version="1.0" encoding="UTF-8" standalone="no"?>
<!DOCTYPE svg PUBLIC "-//W3C//DTD SVG 1.1//EN"
 "http://www.w3.org/Graphics/SVG/1.1/DTD/svg11.dtd">
<!-- Generated by graphviz version 2.38.0 (20140413.2041)
 -->
<!-- Title: GPDB Pages: 1 -->
<svg width="1668pt" height="1528pt"
 viewBox="0.00 0.00 1668.00 1528.00" xmlns="http://www.w3.org/2000/svg" xmlns:xlink="http://www.w3.org/1999/xlink">
<g id="graph0" class="graph" transform="scale(1 1) rotate(0) translate(36 1492)">
<title>GPDB</title>
<polygon fill="white" stroke="none" points="-36,36 -36,-1492 1632,-1492 1632,36 -36,36"/>
<text text-anchor="middle" x="798" y="-1426.4" font-family="Helvetica,sans-Serif" font-size="32.00">Greenplum System Catalog: pg_stat_last_shoperation</text>
<g id="clust2" class="cluster"><title>cluster_selected</title>
</g>
<g id="clust3" class="cluster"><title>cluster_to</title>
</g>
<!-- pg_stat_last_shoperation -->
<g id="node1" class="node"><title>pg_stat_last_shoperation</title>
<g id="a_node1"><a xlink:href="pg_stat_last_shoperation.svg" xlink:title="&lt;TABLE&gt;">
<polygon fill="#2c3e50" stroke="none" points="230.5,-932 230.5,-962 557.5,-962 557.5,-932 230.5,-932"/>
<polygon fill="none" stroke="black" points="230.5,-932 230.5,-962 557.5,-962 557.5,-932 230.5,-932"/>
<text text-anchor="start" x="267.5" y="-943.6" font-family="monospace" font-weight="bold" font-size="18.00" fill="#ffffff">pg_stat_last_shoperation</text>
<polygon fill="#ffffff" stroke="none" points="230.5,-907 230.5,-932 348.5,-932 348.5,-907 230.5,-907"/>
<polygon fill="none" stroke="#2c3e50" points="230.5,-907 230.5,-932 348.5,-932 348.5,-907 230.5,-907"/>
<text text-anchor="start" x="235.5" y="-915.8" font-family="monospace" font-size="14.00" fill="#000000">classid</text>
<polygon fill="#18bc9c" stroke="none" points="348.5,-907 348.5,-932 557.5,-932 557.5,-907 348.5,-907"/>
<polygon fill="none" stroke="#2c3e50" points="348.5,-907 348.5,-932 557.5,-932 557.5,-907 348.5,-907"/>
<text text-anchor="start" x="353.5" y="-916.8" font-family="monospace" font-style="italic" font-size="14.00" fill="#ffffff">oid</text>
<polygon fill="#ffffff" stroke="none" points="230.5,-882 230.5,-907 348.5,-907 348.5,-882 230.5,-882"/>
<polygon fill="none" stroke="#2c3e50" points="230.5,-882 230.5,-907 348.5,-907 348.5,-882 230.5,-882"/>
<text text-anchor="start" x="235.5" y="-890.8" font-family="monospace" font-size="14.00" fill="#000000">objid</text>
<polygon fill="#ffffff" stroke="none" points="348.5,-882 348.5,-907 557.5,-907 557.5,-882 348.5,-882"/>
<polygon fill="none" stroke="#2c3e50" points="348.5,-882 348.5,-907 557.5,-907 557.5,-882 348.5,-882"/>
<text text-anchor="start" x="353.5" y="-891.8" font-family="monospace" font-style="italic" font-size="14.00" fill="#95a5a6">oid</text>
<polygon fill="#ffffff" stroke="none" points="230.5,-857 230.5,-882 348.5,-882 348.5,-857 230.5,-857"/>
<polygon fill="none" stroke="#2c3e50" points="230.5,-857 230.5,-882 348.5,-882 348.5,-857 230.5,-857"/>
<text text-anchor="start" x="235.5" y="-865.8" font-family="monospace" font-size="14.00" fill="#000000">staactionname</text>
<polygon fill="#ffffff" stroke="none" points="348.5,-857 348.5,-882 557.5,-882 557.5,-857 348.5,-857"/>
<polygon fill="none" stroke="#2c3e50" points="348.5,-857 348.5,-882 557.5,-882 557.5,-857 348.5,-857"/>
<text text-anchor="start" x="353.5" y="-866.8" font-family="monospace" font-style="italic" font-size="14.00" fill="#95a5a6">name</text>
<polygon fill="#ffffff" stroke="none" points="230.5,-832 230.5,-857 348.5,-857 348.5,-832 230.5,-832"/>
<polygon fill="none" stroke="#2c3e50" points="230.5,-832 230.5,-857 348.5,-857 348.5,-832 230.5,-832"/>
<text text-anchor="start" x="235.5" y="-840.8" font-family="monospace" font-size="14.00" fill="#000000">stasysid</text>
<polygon fill="#18bc9c" stroke="none" points="348.5,-832 348.5,-857 557.5,-857 557.5,-832 348.5,-832"/>
<polygon fill="none" stroke="#2c3e50" points="348.5,-832 348.5,-857 557.5,-857 557.5,-832 348.5,-832"/>
<text text-anchor="start" x="353.5" y="-841.8" font-family="monospace" font-style="italic" font-size="14.00" fill="#ffffff">oid</text>
<polygon fill="#ffffff" stroke="none" points="230.5,-807 230.5,-832 348.5,-832 348.5,-807 230.5,-807"/>
<polygon fill="none" stroke="#2c3e50" points="230.5,-807 230.5,-832 348.5,-832 348.5,-807 230.5,-807"/>
<text text-anchor="start" x="235.5" y="-815.8" font-family="monospace" font-size="14.00" fill="#000000">stausename</text>
<polygon fill="#ffffff" stroke="none" points="348.5,-807 348.5,-832 557.5,-832 557.5,-807 348.5,-807"/>
<polygon fill="none" stroke="#2c3e50" points="348.5,-807 348.5,-832 557.5,-832 557.5,-807 348.5,-807"/>
<text text-anchor="start" x="353.5" y="-816.8" font-family="monospace" font-style="italic" font-size="14.00" fill="#95a5a6">name</text>
<polygon fill="#ffffff" stroke="none" points="230.5,-782 230.5,-807 348.5,-807 348.5,-782 230.5,-782"/>
<polygon fill="none" stroke="#2c3e50" points="230.5,-782 230.5,-807 348.5,-807 348.5,-782 230.5,-782"/>
<text text-anchor="start" x="235.5" y="-790.8" font-family="monospace" font-size="14.00" fill="#000000">stasubtype</text>
<polygon fill="#ffffff" stroke="none" points="348.5,-782 348.5,-807 557.5,-807 557.5,-782 348.5,-782"/>
<polygon fill="none" stroke="#2c3e50" points="348.5,-782 348.5,-807 557.5,-807 557.5,-782 348.5,-782"/>
<text text-anchor="start" x="353.5" y="-791.8" font-family="monospace" font-style="italic" font-size="14.00" fill="#95a5a6">text</text>
<polygon fill="#ffffff" stroke="none" points="230.5,-757 230.5,-782 348.5,-782 348.5,-757 230.5,-757"/>
<polygon fill="none" stroke="#2c3e50" points="230.5,-757 230.5,-782 348.5,-782 348.5,-757 230.5,-757"/>
<text text-anchor="start" x="235.5" y="-765.8" font-family="monospace" font-size="14.00" fill="#000000">statime</text>
<polygon fill="#ffffff" stroke="none" points="348.5,-757 348.5,-782 557.5,-782 557.5,-757 348.5,-757"/>
<polygon fill="none" stroke="#2c3e50" points="348.5,-757 348.5,-782 557.5,-782 557.5,-757 348.5,-757"/>
<text text-anchor="start" x="353.5" y="-766.8" font-family="monospace" font-style="italic" font-size="14.00" fill="#95a5a6">timestamp_with_time_zone</text>
</a>
</g>
</g>
<!-- pg_class -->
<g id="node2" class="node"><title>pg_class</title>
<g id="a_node2"><a xlink:href="pg_class.svg" xlink:title="&lt;TABLE&gt;">
<polygon fill="#2c3e50" stroke="none" points="1089,-1319 1089,-1349 1316,-1349 1316,-1319 1089,-1319"/>
<polygon fill="none" stroke="black" points="1089,-1319 1089,-1349 1316,-1349 1316,-1319 1089,-1319"/>
<text text-anchor="start" x="1160" y="-1330.6" font-family="monospace" font-weight="bold" font-size="18.00" fill="#ffffff">pg_class</text>
<polygon fill="#18bc9c" stroke="none" points="1089,-1294 1089,-1319 1215,-1319 1215,-1294 1089,-1294"/>
<polygon fill="none" stroke="#2c3e50" points="1089,-1294 1089,-1319 1215,-1319 1215,-1294 1089,-1294"/>
<text text-anchor="start" x="1094" y="-1302.8" font-family="monospace" font-size="14.00" fill="#ffffff">oid</text>
<polygon fill="#ffffff" stroke="none" points="1215,-1294 1215,-1319 1316,-1319 1316,-1294 1215,-1294"/>
<polygon fill="none" stroke="#2c3e50" points="1215,-1294 1215,-1319 1316,-1319 1316,-1294 1215,-1294"/>
<text text-anchor="start" x="1220" y="-1303.8" font-family="monospace" font-style="italic" font-size="14.00" fill="#95a5a6">oid</text>
<polygon fill="#ffffff" stroke="none" points="1089,-1269 1089,-1294 1215,-1294 1215,-1269 1089,-1269"/>
<polygon fill="none" stroke="#2c3e50" points="1089,-1269 1089,-1294 1215,-1294 1215,-1269 1089,-1269"/>
<text text-anchor="start" x="1094" y="-1277.8" font-family="monospace" font-size="14.00" fill="#000000">relname</text>
<polygon fill="#ffffff" stroke="none" points="1215,-1269 1215,-1294 1316,-1294 1316,-1269 1215,-1269"/>
<polygon fill="none" stroke="#2c3e50" points="1215,-1269 1215,-1294 1316,-1294 1316,-1269 1215,-1269"/>
<text text-anchor="start" x="1220" y="-1278.8" font-family="monospace" font-style="italic" font-size="14.00" fill="#95a5a6">name</text>
<polygon fill="#ffffff" stroke="none" points="1089,-1244 1089,-1269 1215,-1269 1215,-1244 1089,-1244"/>
<polygon fill="none" stroke="#2c3e50" points="1089,-1244 1089,-1269 1215,-1269 1215,-1244 1089,-1244"/>
<text text-anchor="start" x="1094" y="-1252.8" font-family="monospace" font-size="14.00" fill="#000000">relnamespace</text>
<polygon fill="#ffffff" stroke="none" points="1215,-1244 1215,-1269 1316,-1269 1316,-1244 1215,-1244"/>
<polygon fill="none" stroke="#2c3e50" points="1215,-1244 1215,-1269 1316,-1269 1316,-1244 1215,-1244"/>
<text text-anchor="start" x="1220" y="-1253.8" font-family="monospace" font-style="italic" font-size="14.00" fill="#95a5a6">oid</text>
<polygon fill="#ffffff" stroke="none" points="1089,-1219 1089,-1244 1215,-1244 1215,-1219 1089,-1219"/>
<polygon fill="none" stroke="#2c3e50" points="1089,-1219 1089,-1244 1215,-1244 1215,-1219 1089,-1219"/>
<text text-anchor="start" x="1094" y="-1227.8" font-family="monospace" font-size="14.00" fill="#000000">reltype</text>
<polygon fill="#ffffff" stroke="none" points="1215,-1219 1215,-1244 1316,-1244 1316,-1219 1215,-1219"/>
<polygon fill="none" stroke="#2c3e50" points="1215,-1219 1215,-1244 1316,-1244 1316,-1219 1215,-1219"/>
<text text-anchor="start" x="1220" y="-1228.8" font-family="monospace" font-style="italic" font-size="14.00" fill="#95a5a6">oid</text>
<polygon fill="#ffffff" stroke="none" points="1089,-1194 1089,-1219 1215,-1219 1215,-1194 1089,-1194"/>
<polygon fill="none" stroke="#2c3e50" points="1089,-1194 1089,-1219 1215,-1219 1215,-1194 1089,-1194"/>
<text text-anchor="start" x="1094" y="-1202.8" font-family="monospace" font-size="14.00" fill="#000000">relowner</text>
<polygon fill="#ffffff" stroke="none" points="1215,-1194 1215,-1219 1316,-1219 1316,-1194 1215,-1194"/>
<polygon fill="none" stroke="#2c3e50" points="1215,-1194 1215,-1219 1316,-1219 1316,-1194 1215,-1194"/>
<text text-anchor="start" x="1220" y="-1203.8" font-family="monospace" font-style="italic" font-size="14.00" fill="#95a5a6">oid</text>
<polygon fill="#ffffff" stroke="none" points="1089,-1169 1089,-1194 1215,-1194 1215,-1169 1089,-1169"/>
<polygon fill="none" stroke="#2c3e50" points="1089,-1169 1089,-1194 1215,-1194 1215,-1169 1089,-1169"/>
<text text-anchor="start" x="1094" y="-1177.8" font-family="monospace" font-size="14.00" fill="#000000">relam</text>
<polygon fill="#ffffff" stroke="none" points="1215,-1169 1215,-1194 1316,-1194 1316,-1169 1215,-1169"/>
<polygon fill="none" stroke="#2c3e50" points="1215,-1169 1215,-1194 1316,-1194 1316,-1169 1215,-1169"/>
<text text-anchor="start" x="1220" y="-1178.8" font-family="monospace" font-style="italic" font-size="14.00" fill="#95a5a6">oid</text>
<polygon fill="#ffffff" stroke="none" points="1089,-1144 1089,-1169 1215,-1169 1215,-1144 1089,-1144"/>
<polygon fill="none" stroke="#2c3e50" points="1089,-1144 1089,-1169 1215,-1169 1215,-1144 1089,-1144"/>
<text text-anchor="start" x="1094" y="-1152.8" font-family="monospace" font-size="14.00" fill="#000000">relfilenode</text>
<polygon fill="#ffffff" stroke="none" points="1215,-1144 1215,-1169 1316,-1169 1316,-1144 1215,-1144"/>
<polygon fill="none" stroke="#2c3e50" points="1215,-1144 1215,-1169 1316,-1169 1316,-1144 1215,-1144"/>
<text text-anchor="start" x="1220" y="-1153.8" font-family="monospace" font-style="italic" font-size="14.00" fill="#95a5a6">oid</text>
<polygon fill="#ffffff" stroke="none" points="1089,-1119 1089,-1144 1215,-1144 1215,-1119 1089,-1119"/>
<polygon fill="none" stroke="#2c3e50" points="1089,-1119 1089,-1144 1215,-1144 1215,-1119 1089,-1119"/>
<text text-anchor="start" x="1094" y="-1127.8" font-family="monospace" font-size="14.00" fill="#000000">reltablespace</text>
<polygon fill="#ffffff" stroke="none" points="1215,-1119 1215,-1144 1316,-1144 1316,-1119 1215,-1119"/>
<polygon fill="none" stroke="#2c3e50" points="1215,-1119 1215,-1144 1316,-1144 1316,-1119 1215,-1119"/>
<text text-anchor="start" x="1220" y="-1128.8" font-family="monospace" font-style="italic" font-size="14.00" fill="#95a5a6">oid</text>
<polygon fill="#ffffff" stroke="none" points="1089,-1094 1089,-1119 1215,-1119 1215,-1094 1089,-1094"/>
<polygon fill="none" stroke="#2c3e50" points="1089,-1094 1089,-1119 1215,-1119 1215,-1094 1089,-1094"/>
<text text-anchor="start" x="1094" y="-1102.8" font-family="monospace" font-size="14.00" fill="#000000">relpages</text>
<polygon fill="#ffffff" stroke="none" points="1215,-1094 1215,-1119 1316,-1119 1316,-1094 1215,-1094"/>
<polygon fill="none" stroke="#2c3e50" points="1215,-1094 1215,-1119 1316,-1119 1316,-1094 1215,-1094"/>
<text text-anchor="start" x="1220" y="-1103.8" font-family="monospace" font-style="italic" font-size="14.00" fill="#95a5a6">integer</text>
<polygon fill="#ffffff" stroke="none" points="1089,-1069 1089,-1094 1215,-1094 1215,-1069 1089,-1069"/>
<polygon fill="none" stroke="#2c3e50" points="1089,-1069 1089,-1094 1215,-1094 1215,-1069 1089,-1069"/>
<text text-anchor="start" x="1094" y="-1077.8" font-family="monospace" font-size="14.00" fill="#000000">reltuples</text>
<polygon fill="#ffffff" stroke="none" points="1215,-1069 1215,-1094 1316,-1094 1316,-1069 1215,-1069"/>
<polygon fill="none" stroke="#2c3e50" points="1215,-1069 1215,-1094 1316,-1094 1316,-1069 1215,-1069"/>
<text text-anchor="start" x="1220" y="-1078.8" font-family="monospace" font-style="italic" font-size="14.00" fill="#95a5a6">real</text>
<polygon fill="#ffffff" stroke="none" points="1089,-1044 1089,-1069 1215,-1069 1215,-1044 1089,-1044"/>
<polygon fill="none" stroke="#2c3e50" points="1089,-1044 1089,-1069 1215,-1069 1215,-1044 1089,-1044"/>
<text text-anchor="start" x="1094" y="-1052.8" font-family="monospace" font-size="14.00" fill="#000000">reltoastrelid</text>
<polygon fill="#ffffff" stroke="none" points="1215,-1044 1215,-1069 1316,-1069 1316,-1044 1215,-1044"/>
<polygon fill="none" stroke="#2c3e50" points="1215,-1044 1215,-1069 1316,-1069 1316,-1044 1215,-1044"/>
<text text-anchor="start" x="1220" y="-1053.8" font-family="monospace" font-style="italic" font-size="14.00" fill="#95a5a6">oid</text>
<polygon fill="#ffffff" stroke="none" points="1089,-1019 1089,-1044 1215,-1044 1215,-1019 1089,-1019"/>
<polygon fill="none" stroke="#2c3e50" points="1089,-1019 1089,-1044 1215,-1044 1215,-1019 1089,-1019"/>
<text text-anchor="start" x="1094" y="-1027.8" font-family="monospace" font-size="14.00" fill="#000000">reltoastidxid</text>
<polygon fill="#ffffff" stroke="none" points="1215,-1019 1215,-1044 1316,-1044 1316,-1019 1215,-1019"/>
<polygon fill="none" stroke="#2c3e50" points="1215,-1019 1215,-1044 1316,-1044 1316,-1019 1215,-1019"/>
<text text-anchor="start" x="1220" y="-1028.8" font-family="monospace" font-style="italic" font-size="14.00" fill="#95a5a6">oid</text>
<polygon fill="#ffffff" stroke="none" points="1089,-994 1089,-1019 1215,-1019 1215,-994 1089,-994"/>
<polygon fill="none" stroke="#2c3e50" points="1089,-994 1089,-1019 1215,-1019 1215,-994 1089,-994"/>
<text text-anchor="start" x="1094" y="-1002.8" font-family="monospace" font-size="14.00" fill="#000000">relaosegrelid</text>
<polygon fill="#ffffff" stroke="none" points="1215,-994 1215,-1019 1316,-1019 1316,-994 1215,-994"/>
<polygon fill="none" stroke="#2c3e50" points="1215,-994 1215,-1019 1316,-1019 1316,-994 1215,-994"/>
<text text-anchor="start" x="1220" y="-1003.8" font-family="monospace" font-style="italic" font-size="14.00" fill="#95a5a6">oid</text>
<polygon fill="#ffffff" stroke="none" points="1089,-969 1089,-994 1215,-994 1215,-969 1089,-969"/>
<polygon fill="none" stroke="#2c3e50" points="1089,-969 1089,-994 1215,-994 1215,-969 1089,-969"/>
<text text-anchor="start" x="1094" y="-977.8" font-family="monospace" font-size="14.00" fill="#000000">relaosegidxid</text>
<polygon fill="#ffffff" stroke="none" points="1215,-969 1215,-994 1316,-994 1316,-969 1215,-969"/>
<polygon fill="none" stroke="#2c3e50" points="1215,-969 1215,-994 1316,-994 1316,-969 1215,-969"/>
<text text-anchor="start" x="1220" y="-978.8" font-family="monospace" font-style="italic" font-size="14.00" fill="#95a5a6">oid</text>
<polygon fill="#ffffff" stroke="none" points="1089,-944 1089,-969 1215,-969 1215,-944 1089,-944"/>
<polygon fill="none" stroke="#2c3e50" points="1089,-944 1089,-969 1215,-969 1215,-944 1089,-944"/>
<text text-anchor="start" x="1094" y="-952.8" font-family="monospace" font-size="14.00" fill="#000000">relhasindex</text>
<polygon fill="#ffffff" stroke="none" points="1215,-944 1215,-969 1316,-969 1316,-944 1215,-944"/>
<polygon fill="none" stroke="#2c3e50" points="1215,-944 1215,-969 1316,-969 1316,-944 1215,-944"/>
<text text-anchor="start" x="1220" y="-953.8" font-family="monospace" font-style="italic" font-size="14.00" fill="#95a5a6">boolean</text>
<polygon fill="#ffffff" stroke="none" points="1089,-919 1089,-944 1215,-944 1215,-919 1089,-919"/>
<polygon fill="none" stroke="#2c3e50" points="1089,-919 1089,-944 1215,-944 1215,-919 1089,-919"/>
<text text-anchor="start" x="1094" y="-927.8" font-family="monospace" font-size="14.00" fill="#000000">relisshared</text>
<polygon fill="#ffffff" stroke="none" points="1215,-919 1215,-944 1316,-944 1316,-919 1215,-919"/>
<polygon fill="none" stroke="#2c3e50" points="1215,-919 1215,-944 1316,-944 1316,-919 1215,-919"/>
<text text-anchor="start" x="1220" y="-928.8" font-family="monospace" font-style="italic" font-size="14.00" fill="#95a5a6">boolean</text>
<polygon fill="#ffffff" stroke="none" points="1089,-894 1089,-919 1215,-919 1215,-894 1089,-894"/>
<polygon fill="none" stroke="#2c3e50" points="1089,-894 1089,-919 1215,-919 1215,-894 1089,-894"/>
<text text-anchor="start" x="1094" y="-902.8" font-family="monospace" font-size="14.00" fill="#000000">relkind</text>
<polygon fill="#ffffff" stroke="none" points="1215,-894 1215,-919 1316,-919 1316,-894 1215,-894"/>
<polygon fill="none" stroke="#2c3e50" points="1215,-894 1215,-919 1316,-919 1316,-894 1215,-894"/>
<text text-anchor="start" x="1220" y="-903.8" font-family="monospace" font-style="italic" font-size="14.00" fill="#95a5a6">quoted_char</text>
<polygon fill="#ffffff" stroke="none" points="1089,-869 1089,-894 1215,-894 1215,-869 1089,-869"/>
<polygon fill="none" stroke="#2c3e50" points="1089,-869 1089,-894 1215,-894 1215,-869 1089,-869"/>
<text text-anchor="start" x="1094" y="-877.8" font-family="monospace" font-size="14.00" fill="#000000">relstorage</text>
<polygon fill="#ffffff" stroke="none" points="1215,-869 1215,-894 1316,-894 1316,-869 1215,-869"/>
<polygon fill="none" stroke="#2c3e50" points="1215,-869 1215,-894 1316,-894 1316,-869 1215,-869"/>
<text text-anchor="start" x="1220" y="-878.8" font-family="monospace" font-style="italic" font-size="14.00" fill="#95a5a6">quoted_char</text>
<polygon fill="#ffffff" stroke="none" points="1089,-844 1089,-869 1215,-869 1215,-844 1089,-844"/>
<polygon fill="none" stroke="#2c3e50" points="1089,-844 1089,-869 1215,-869 1215,-844 1089,-844"/>
<text text-anchor="start" x="1094" y="-852.8" font-family="monospace" font-size="14.00" fill="#000000">relnatts</text>
<polygon fill="#ffffff" stroke="none" points="1215,-844 1215,-869 1316,-869 1316,-844 1215,-844"/>
<polygon fill="none" stroke="#2c3e50" points="1215,-844 1215,-869 1316,-869 1316,-844 1215,-844"/>
<text text-anchor="start" x="1220" y="-853.8" font-family="monospace" font-style="italic" font-size="14.00" fill="#95a5a6">smallint</text>
<polygon fill="#ffffff" stroke="none" points="1089,-819 1089,-844 1215,-844 1215,-819 1089,-819"/>
<polygon fill="none" stroke="#2c3e50" points="1089,-819 1089,-844 1215,-844 1215,-819 1089,-819"/>
<text text-anchor="start" x="1094" y="-827.8" font-family="monospace" font-size="14.00" fill="#000000">relchecks</text>
<polygon fill="#ffffff" stroke="none" points="1215,-819 1215,-844 1316,-844 1316,-819 1215,-819"/>
<polygon fill="none" stroke="#2c3e50" points="1215,-819 1215,-844 1316,-844 1316,-819 1215,-819"/>
<text text-anchor="start" x="1220" y="-828.8" font-family="monospace" font-style="italic" font-size="14.00" fill="#95a5a6">smallint</text>
<polygon fill="#ffffff" stroke="none" points="1089,-794 1089,-819 1215,-819 1215,-794 1089,-794"/>
<polygon fill="none" stroke="#2c3e50" points="1089,-794 1089,-819 1215,-819 1215,-794 1089,-794"/>
<text text-anchor="start" x="1094" y="-802.8" font-family="monospace" font-size="14.00" fill="#000000">reltriggers</text>
<polygon fill="#ffffff" stroke="none" points="1215,-794 1215,-819 1316,-819 1316,-794 1215,-794"/>
<polygon fill="none" stroke="#2c3e50" points="1215,-794 1215,-819 1316,-819 1316,-794 1215,-794"/>
<text text-anchor="start" x="1220" y="-803.8" font-family="monospace" font-style="italic" font-size="14.00" fill="#95a5a6">smallint</text>
<polygon fill="#ffffff" stroke="none" points="1089,-769 1089,-794 1215,-794 1215,-769 1089,-769"/>
<polygon fill="none" stroke="#2c3e50" points="1089,-769 1089,-794 1215,-794 1215,-769 1089,-769"/>
<text text-anchor="start" x="1094" y="-777.8" font-family="monospace" font-size="14.00" fill="#000000">relukeys</text>
<polygon fill="#ffffff" stroke="none" points="1215,-769 1215,-794 1316,-794 1316,-769 1215,-769"/>
<polygon fill="none" stroke="#2c3e50" points="1215,-769 1215,-794 1316,-794 1316,-769 1215,-769"/>
<text text-anchor="start" x="1220" y="-778.8" font-family="monospace" font-style="italic" font-size="14.00" fill="#95a5a6">smallint</text>
<polygon fill="#ffffff" stroke="none" points="1089,-744 1089,-769 1215,-769 1215,-744 1089,-744"/>
<polygon fill="none" stroke="#2c3e50" points="1089,-744 1089,-769 1215,-769 1215,-744 1089,-744"/>
<text text-anchor="start" x="1094" y="-752.8" font-family="monospace" font-size="14.00" fill="#000000">relfkeys</text>
<polygon fill="#ffffff" stroke="none" points="1215,-744 1215,-769 1316,-769 1316,-744 1215,-744"/>
<polygon fill="none" stroke="#2c3e50" points="1215,-744 1215,-769 1316,-769 1316,-744 1215,-744"/>
<text text-anchor="start" x="1220" y="-753.8" font-family="monospace" font-style="italic" font-size="14.00" fill="#95a5a6">smallint</text>
<polygon fill="#ffffff" stroke="none" points="1089,-719 1089,-744 1215,-744 1215,-719 1089,-719"/>
<polygon fill="none" stroke="#2c3e50" points="1089,-719 1089,-744 1215,-744 1215,-719 1089,-719"/>
<text text-anchor="start" x="1094" y="-727.8" font-family="monospace" font-size="14.00" fill="#000000">relrefs</text>
<polygon fill="#ffffff" stroke="none" points="1215,-719 1215,-744 1316,-744 1316,-719 1215,-719"/>
<polygon fill="none" stroke="#2c3e50" points="1215,-719 1215,-744 1316,-744 1316,-719 1215,-719"/>
<text text-anchor="start" x="1220" y="-728.8" font-family="monospace" font-style="italic" font-size="14.00" fill="#95a5a6">smallint</text>
<polygon fill="#ffffff" stroke="none" points="1089,-694 1089,-719 1215,-719 1215,-694 1089,-694"/>
<polygon fill="none" stroke="#2c3e50" points="1089,-694 1089,-719 1215,-719 1215,-694 1089,-694"/>
<text text-anchor="start" x="1094" y="-702.8" font-family="monospace" font-size="14.00" fill="#000000">relhasoids</text>
<polygon fill="#ffffff" stroke="none" points="1215,-694 1215,-719 1316,-719 1316,-694 1215,-694"/>
<polygon fill="none" stroke="#2c3e50" points="1215,-694 1215,-719 1316,-719 1316,-694 1215,-694"/>
<text text-anchor="start" x="1220" y="-703.8" font-family="monospace" font-style="italic" font-size="14.00" fill="#95a5a6">boolean</text>
<polygon fill="#ffffff" stroke="none" points="1089,-669 1089,-694 1215,-694 1215,-669 1089,-669"/>
<polygon fill="none" stroke="#2c3e50" points="1089,-669 1089,-694 1215,-694 1215,-669 1089,-669"/>
<text text-anchor="start" x="1094" y="-677.8" font-family="monospace" font-size="14.00" fill="#000000">relhaspkey</text>
<polygon fill="#ffffff" stroke="none" points="1215,-669 1215,-694 1316,-694 1316,-669 1215,-669"/>
<polygon fill="none" stroke="#2c3e50" points="1215,-669 1215,-694 1316,-694 1316,-669 1215,-669"/>
<text text-anchor="start" x="1220" y="-678.8" font-family="monospace" font-style="italic" font-size="14.00" fill="#95a5a6">boolean</text>
<polygon fill="#ffffff" stroke="none" points="1089,-644 1089,-669 1215,-669 1215,-644 1089,-644"/>
<polygon fill="none" stroke="#2c3e50" points="1089,-644 1089,-669 1215,-669 1215,-644 1089,-644"/>
<text text-anchor="start" x="1094" y="-652.8" font-family="monospace" font-size="14.00" fill="#000000">relhasrules</text>
<polygon fill="#ffffff" stroke="none" points="1215,-644 1215,-669 1316,-669 1316,-644 1215,-644"/>
<polygon fill="none" stroke="#2c3e50" points="1215,-644 1215,-669 1316,-669 1316,-644 1215,-644"/>
<text text-anchor="start" x="1220" y="-653.8" font-family="monospace" font-style="italic" font-size="14.00" fill="#95a5a6">boolean</text>
<polygon fill="#ffffff" stroke="none" points="1089,-619 1089,-644 1215,-644 1215,-619 1089,-619"/>
<polygon fill="none" stroke="#2c3e50" points="1089,-619 1089,-644 1215,-644 1215,-619 1089,-619"/>
<text text-anchor="start" x="1094" y="-627.8" font-family="monospace" font-size="14.00" fill="#000000">relhassubclass</text>
<polygon fill="#ffffff" stroke="none" points="1215,-619 1215,-644 1316,-644 1316,-619 1215,-619"/>
<polygon fill="none" stroke="#2c3e50" points="1215,-619 1215,-644 1316,-644 1316,-619 1215,-619"/>
<text text-anchor="start" x="1220" y="-628.8" font-family="monospace" font-style="italic" font-size="14.00" fill="#95a5a6">boolean</text>
<polygon fill="#ffffff" stroke="none" points="1089,-594 1089,-619 1215,-619 1215,-594 1089,-594"/>
<polygon fill="none" stroke="#2c3e50" points="1089,-594 1089,-619 1215,-619 1215,-594 1089,-594"/>
<text text-anchor="start" x="1094" y="-602.8" font-family="monospace" font-size="14.00" fill="#000000">relfrozenxid</text>
<polygon fill="#ffffff" stroke="none" points="1215,-594 1215,-619 1316,-619 1316,-594 1215,-594"/>
<polygon fill="none" stroke="#2c3e50" points="1215,-594 1215,-619 1316,-619 1316,-594 1215,-594"/>
<text text-anchor="start" x="1220" y="-603.8" font-family="monospace" font-style="italic" font-size="14.00" fill="#95a5a6">xid</text>
<polygon fill="#ffffff" stroke="none" points="1089,-569 1089,-594 1215,-594 1215,-569 1089,-569"/>
<polygon fill="none" stroke="#2c3e50" points="1089,-569 1089,-594 1215,-594 1215,-569 1089,-569"/>
<text text-anchor="start" x="1094" y="-577.8" font-family="monospace" font-size="14.00" fill="#000000">relacl</text>
<polygon fill="#ffffff" stroke="none" points="1215,-569 1215,-594 1316,-594 1316,-569 1215,-569"/>
<polygon fill="none" stroke="#2c3e50" points="1215,-569 1215,-594 1316,-594 1316,-569 1215,-569"/>
<text text-anchor="start" x="1220" y="-578.8" font-family="monospace" font-style="italic" font-size="14.00" fill="#95a5a6">aclitem[]</text>
<polygon fill="#ffffff" stroke="none" points="1089,-544 1089,-569 1215,-569 1215,-544 1089,-544"/>
<polygon fill="none" stroke="#2c3e50" points="1089,-544 1089,-569 1215,-569 1215,-544 1089,-544"/>
<text text-anchor="start" x="1094" y="-552.8" font-family="monospace" font-size="14.00" fill="#000000">reloptions</text>
<polygon fill="#ffffff" stroke="none" points="1215,-544 1215,-569 1316,-569 1316,-544 1215,-544"/>
<polygon fill="none" stroke="#2c3e50" points="1215,-544 1215,-569 1316,-569 1316,-544 1215,-544"/>
<text text-anchor="start" x="1220" y="-553.8" font-family="monospace" font-style="italic" font-size="14.00" fill="#95a5a6">text[]</text>
</a>
</g>
</g>
<!-- pg_stat_last_shoperation&#45;&gt;pg_class -->
<g id="edge1" class="edge"><title>pg_stat_last_shoperation:classid_out&#45;&gt;pg_class:oid_in</title>
<path fill="none" stroke="#2c3e50" d="M558.5,-920C846.573,-920 797.717,-1297.98 1077.89,-1306.84"/>
<polygon fill="#2c3e50" stroke="#2c3e50" points="1077.95,-1310.34 1088,-1307 1078.06,-1303.34 1077.95,-1310.34"/>
</g>
<!-- pg_authid -->
<g id="node3" class="node"><title>pg_authid</title>
<g id="a_node3"><a xlink:href="pg_authid.svg" xlink:title="&lt;TABLE&gt;">
<polygon fill="#2c3e50" stroke="none" points="1022,-470 1022,-500 1382,-500 1382,-470 1022,-470"/>
<polygon fill="none" stroke="black" points="1022,-470 1022,-500 1382,-500 1382,-470 1022,-470"/>
<text text-anchor="start" x="1154.5" y="-481.6" font-family="monospace" font-weight="bold" font-size="18.00" fill="#ffffff">pg_authid</text>
<polygon fill="#18bc9c" stroke="none" points="1022,-445 1022,-470 1173,-470 1173,-445 1022,-445"/>
<polygon fill="none" stroke="#2c3e50" points="1022,-445 1022,-470 1173,-470 1173,-445 1022,-445"/>
<text text-anchor="start" x="1027" y="-453.8" font-family="monospace" font-size="14.00" fill="#ffffff">oid</text>
<polygon fill="#ffffff" stroke="none" points="1173,-445 1173,-470 1382,-470 1382,-445 1173,-445"/>
<polygon fill="none" stroke="#2c3e50" points="1173,-445 1173,-470 1382,-470 1382,-445 1173,-445"/>
<text text-anchor="start" x="1178" y="-454.8" font-family="monospace" font-style="italic" font-size="14.00" fill="#95a5a6">oid</text>
<polygon fill="#ffffff" stroke="none" points="1022,-420 1022,-445 1173,-445 1173,-420 1022,-420"/>
<polygon fill="none" stroke="#2c3e50" points="1022,-420 1022,-445 1173,-445 1173,-420 1022,-420"/>
<text text-anchor="start" x="1027" y="-428.8" font-family="monospace" font-size="14.00" fill="#000000">rolname</text>
<polygon fill="#ffffff" stroke="none" points="1173,-420 1173,-445 1382,-445 1382,-420 1173,-420"/>
<polygon fill="none" stroke="#2c3e50" points="1173,-420 1173,-445 1382,-445 1382,-420 1173,-420"/>
<text text-anchor="start" x="1178" y="-429.8" font-family="monospace" font-style="italic" font-size="14.00" fill="#95a5a6">name</text>
<polygon fill="#ffffff" stroke="none" points="1022,-395 1022,-420 1173,-420 1173,-395 1022,-395"/>
<polygon fill="none" stroke="#2c3e50" points="1022,-395 1022,-420 1173,-420 1173,-395 1022,-395"/>
<text text-anchor="start" x="1027" y="-403.8" font-family="monospace" font-size="14.00" fill="#000000">rolsuper</text>
<polygon fill="#ffffff" stroke="none" points="1173,-395 1173,-420 1382,-420 1382,-395 1173,-395"/>
<polygon fill="none" stroke="#2c3e50" points="1173,-395 1173,-420 1382,-420 1382,-395 1173,-395"/>
<text text-anchor="start" x="1178" y="-404.8" font-family="monospace" font-style="italic" font-size="14.00" fill="#95a5a6">boolean</text>
<polygon fill="#ffffff" stroke="none" points="1022,-370 1022,-395 1173,-395 1173,-370 1022,-370"/>
<polygon fill="none" stroke="#2c3e50" points="1022,-370 1022,-395 1173,-395 1173,-370 1022,-370"/>
<text text-anchor="start" x="1027" y="-378.8" font-family="monospace" font-size="14.00" fill="#000000">rolinherit</text>
<polygon fill="#ffffff" stroke="none" points="1173,-370 1173,-395 1382,-395 1382,-370 1173,-370"/>
<polygon fill="none" stroke="#2c3e50" points="1173,-370 1173,-395 1382,-395 1382,-370 1173,-370"/>
<text text-anchor="start" x="1178" y="-379.8" font-family="monospace" font-style="italic" font-size="14.00" fill="#95a5a6">boolean</text>
<polygon fill="#ffffff" stroke="none" points="1022,-345 1022,-370 1173,-370 1173,-345 1022,-345"/>
<polygon fill="none" stroke="#2c3e50" points="1022,-345 1022,-370 1173,-370 1173,-345 1022,-345"/>
<text text-anchor="start" x="1027" y="-353.8" font-family="monospace" font-size="14.00" fill="#000000">rolcreaterole</text>
<polygon fill="#ffffff" stroke="none" points="1173,-345 1173,-370 1382,-370 1382,-345 1173,-345"/>
<polygon fill="none" stroke="#2c3e50" points="1173,-345 1173,-370 1382,-370 1382,-345 1173,-345"/>
<text text-anchor="start" x="1178" y="-354.8" font-family="monospace" font-style="italic" font-size="14.00" fill="#95a5a6">boolean</text>
<polygon fill="#ffffff" stroke="none" points="1022,-320 1022,-345 1173,-345 1173,-320 1022,-320"/>
<polygon fill="none" stroke="#2c3e50" points="1022,-320 1022,-345 1173,-345 1173,-320 1022,-320"/>
<text text-anchor="start" x="1027" y="-328.8" font-family="monospace" font-size="14.00" fill="#000000">rolcreatedb</text>
<polygon fill="#ffffff" stroke="none" points="1173,-320 1173,-345 1382,-345 1382,-320 1173,-320"/>
<polygon fill="none" stroke="#2c3e50" points="1173,-320 1173,-345 1382,-345 1382,-320 1173,-320"/>
<text text-anchor="start" x="1178" y="-329.8" font-family="monospace" font-style="italic" font-size="14.00" fill="#95a5a6">boolean</text>
<polygon fill="#ffffff" stroke="none" points="1022,-295 1022,-320 1173,-320 1173,-295 1022,-295"/>
<polygon fill="none" stroke="#2c3e50" points="1022,-295 1022,-320 1173,-320 1173,-295 1022,-295"/>
<text text-anchor="start" x="1027" y="-303.8" font-family="monospace" font-size="14.00" fill="#000000">rolcatupdate</text>
<polygon fill="#ffffff" stroke="none" points="1173,-295 1173,-320 1382,-320 1382,-295 1173,-295"/>
<polygon fill="none" stroke="#2c3e50" points="1173,-295 1173,-320 1382,-320 1382,-295 1173,-295"/>
<text text-anchor="start" x="1178" y="-304.8" font-family="monospace" font-style="italic" font-size="14.00" fill="#95a5a6">boolean</text>
<polygon fill="#ffffff" stroke="none" points="1022,-270 1022,-295 1173,-295 1173,-270 1022,-270"/>
<polygon fill="none" stroke="#2c3e50" points="1022,-270 1022,-295 1173,-295 1173,-270 1022,-270"/>
<text text-anchor="start" x="1027" y="-278.8" font-family="monospace" font-size="14.00" fill="#000000">rolcanlogin</text>
<polygon fill="#ffffff" stroke="none" points="1173,-270 1173,-295 1382,-295 1382,-270 1173,-270"/>
<polygon fill="none" stroke="#2c3e50" points="1173,-270 1173,-295 1382,-295 1382,-270 1173,-270"/>
<text text-anchor="start" x="1178" y="-279.8" font-family="monospace" font-style="italic" font-size="14.00" fill="#95a5a6">boolean</text>
<polygon fill="#ffffff" stroke="none" points="1022,-245 1022,-270 1173,-270 1173,-245 1022,-245"/>
<polygon fill="none" stroke="#2c3e50" points="1022,-245 1022,-270 1173,-270 1173,-245 1022,-245"/>
<text text-anchor="start" x="1027" y="-253.8" font-family="monospace" font-size="14.00" fill="#000000">rolconnlimit</text>
<polygon fill="#ffffff" stroke="none" points="1173,-245 1173,-270 1382,-270 1382,-245 1173,-245"/>
<polygon fill="none" stroke="#2c3e50" points="1173,-245 1173,-270 1382,-270 1382,-245 1173,-245"/>
<text text-anchor="start" x="1178" y="-254.8" font-family="monospace" font-style="italic" font-size="14.00" fill="#95a5a6">integer</text>
<polygon fill="#ffffff" stroke="none" points="1022,-220 1022,-245 1173,-245 1173,-220 1022,-220"/>
<polygon fill="none" stroke="#2c3e50" points="1022,-220 1022,-245 1173,-245 1173,-220 1022,-220"/>
<text text-anchor="start" x="1027" y="-228.8" font-family="monospace" font-size="14.00" fill="#000000">rolpassword</text>
<polygon fill="#ffffff" stroke="none" points="1173,-220 1173,-245 1382,-245 1382,-220 1173,-220"/>
<polygon fill="none" stroke="#2c3e50" points="1173,-220 1173,-245 1382,-245 1382,-220 1173,-220"/>
<text text-anchor="start" x="1178" y="-229.8" font-family="monospace" font-style="italic" font-size="14.00" fill="#95a5a6">text</text>
<polygon fill="#ffffff" stroke="none" points="1022,-195 1022,-220 1173,-220 1173,-195 1022,-195"/>
<polygon fill="none" stroke="#2c3e50" points="1022,-195 1022,-220 1173,-220 1173,-195 1022,-195"/>
<text text-anchor="start" x="1027" y="-203.8" font-family="monospace" font-size="14.00" fill="#000000">rolvaliduntil</text>
<polygon fill="#ffffff" stroke="none" points="1173,-195 1173,-220 1382,-220 1382,-195 1173,-195"/>
<polygon fill="none" stroke="#2c3e50" points="1173,-195 1173,-220 1382,-220 1382,-195 1173,-195"/>
<text text-anchor="start" x="1178" y="-204.8" font-family="monospace" font-style="italic" font-size="14.00" fill="#95a5a6">timestamp_with_time_zone</text>
<polygon fill="#ffffff" stroke="none" points="1022,-170 1022,-195 1173,-195 1173,-170 1022,-170"/>
<polygon fill="none" stroke="#2c3e50" points="1022,-170 1022,-195 1173,-195 1173,-170 1022,-170"/>
<text text-anchor="start" x="1027" y="-178.8" font-family="monospace" font-size="14.00" fill="#000000">rolconfig</text>
<polygon fill="#ffffff" stroke="none" points="1173,-170 1173,-195 1382,-195 1382,-170 1173,-170"/>
<polygon fill="none" stroke="#2c3e50" points="1173,-170 1173,-195 1382,-195 1382,-170 1173,-170"/>
<text text-anchor="start" x="1178" y="-179.8" font-family="monospace" font-style="italic" font-size="14.00" fill="#95a5a6">text[]</text>
<polygon fill="#ffffff" stroke="none" points="1022,-145 1022,-170 1173,-170 1173,-145 1022,-145"/>
<polygon fill="none" stroke="#2c3e50" points="1022,-145 1022,-170 1173,-170 1173,-145 1022,-145"/>
<text text-anchor="start" x="1027" y="-153.8" font-family="monospace" font-size="14.00" fill="#000000">rolresqueue</text>
<polygon fill="#ffffff" stroke="none" points="1173,-145 1173,-170 1382,-170 1382,-145 1173,-145"/>
<polygon fill="none" stroke="#2c3e50" points="1173,-145 1173,-170 1382,-170 1382,-145 1173,-145"/>
<text text-anchor="start" x="1178" y="-154.8" font-family="monospace" font-style="italic" font-size="14.00" fill="#95a5a6">oid</text>
<polygon fill="#ffffff" stroke="none" points="1022,-120 1022,-145 1173,-145 1173,-120 1022,-120"/>
<polygon fill="none" stroke="#2c3e50" points="1022,-120 1022,-145 1173,-145 1173,-120 1022,-120"/>
<text text-anchor="start" x="1027" y="-128.8" font-family="monospace" font-size="14.00" fill="#000000">rolcreaterextgpfd</text>
<polygon fill="#ffffff" stroke="none" points="1173,-120 1173,-145 1382,-145 1382,-120 1173,-120"/>
<polygon fill="none" stroke="#2c3e50" points="1173,-120 1173,-145 1382,-145 1382,-120 1173,-120"/>
<text text-anchor="start" x="1178" y="-129.8" font-family="monospace" font-style="italic" font-size="14.00" fill="#95a5a6">boolean</text>
<polygon fill="#ffffff" stroke="none" points="1022,-95 1022,-120 1173,-120 1173,-95 1022,-95"/>
<polygon fill="none" stroke="#2c3e50" points="1022,-95 1022,-120 1173,-120 1173,-95 1022,-95"/>
<text text-anchor="start" x="1027" y="-103.8" font-family="monospace" font-size="14.00" fill="#000000">rolcreaterexthttp</text>
<polygon fill="#ffffff" stroke="none" points="1173,-95 1173,-120 1382,-120 1382,-95 1173,-95"/>
<polygon fill="none" stroke="#2c3e50" points="1173,-95 1173,-120 1382,-120 1382,-95 1173,-95"/>
<text text-anchor="start" x="1178" y="-104.8" font-family="monospace" font-style="italic" font-size="14.00" fill="#95a5a6">boolean</text>
<polygon fill="#ffffff" stroke="none" points="1022,-70 1022,-95 1173,-95 1173,-70 1022,-70"/>
<polygon fill="none" stroke="#2c3e50" points="1022,-70 1022,-95 1173,-95 1173,-70 1022,-70"/>
<text text-anchor="start" x="1027" y="-78.8" font-family="monospace" font-size="14.00" fill="#000000">rolcreatewextgpfd</text>
<polygon fill="#ffffff" stroke="none" points="1173,-70 1173,-95 1382,-95 1382,-70 1173,-70"/>
<polygon fill="none" stroke="#2c3e50" points="1173,-70 1173,-95 1382,-95 1382,-70 1173,-70"/>
<text text-anchor="start" x="1178" y="-79.8" font-family="monospace" font-style="italic" font-size="14.00" fill="#95a5a6">boolean</text>
<polygon fill="#ffffff" stroke="none" points="1022,-45 1022,-70 1173,-70 1173,-45 1022,-45"/>
<polygon fill="none" stroke="#2c3e50" points="1022,-45 1022,-70 1173,-70 1173,-45 1022,-45"/>
<text text-anchor="start" x="1027" y="-53.8" font-family="monospace" font-size="14.00" fill="#000000">rolcreaterexthdfs</text>
<polygon fill="#ffffff" stroke="none" points="1173,-45 1173,-70 1382,-70 1382,-45 1173,-45"/>
<polygon fill="none" stroke="#2c3e50" points="1173,-45 1173,-70 1382,-70 1382,-45 1173,-45"/>
<text text-anchor="start" x="1178" y="-54.8" font-family="monospace" font-style="italic" font-size="14.00" fill="#95a5a6">boolean</text>
<polygon fill="#ffffff" stroke="none" points="1022,-20 1022,-45 1173,-45 1173,-20 1022,-20"/>
<polygon fill="none" stroke="#2c3e50" points="1022,-20 1022,-45 1173,-45 1173,-20 1022,-20"/>
<text text-anchor="start" x="1027" y="-28.8" font-family="monospace" font-size="14.00" fill="#000000">rolcreatewexthdfs</text>
<polygon fill="#ffffff" stroke="none" points="1173,-20 1173,-45 1382,-45 1382,-20 1173,-20"/>
<polygon fill="none" stroke="#2c3e50" points="1173,-20 1173,-45 1382,-45 1382,-20 1173,-20"/>
<text text-anchor="start" x="1178" y="-29.8" font-family="monospace" font-style="italic" font-size="14.00" fill="#95a5a6">boolean</text>
</a>
</g>
</g>
<!-- pg_stat_last_shoperation&#45;&gt;pg_authid -->
<g id="edge2" class="edge"><title>pg_stat_last_shoperation:stasysid_out&#45;&gt;pg_authid:oid_in</title>
<path fill="none" stroke="#2c3e50" d="M558.5,-844C739.193,-844 659.188,-625.494 808,-523 886.648,-468.832 919.677,-458.681 1010.8,-458.035"/>
<polygon fill="#2c3e50" stroke="#2c3e50" points="1011.01,-461.534 1021,-458 1010.99,-454.534 1011.01,-461.534"/>
</g>
</g>
</svg>
