<?xml version="1.0" encoding="UTF-8" standalone="no"?>
<!DOCTYPE svg PUBLIC "-//W3C//DTD SVG 1.1//EN"
 "http://www.w3.org/Graphics/SVG/1.1/DTD/svg11.dtd">
<!-- Generated by graphviz version 2.38.0 (20140413.2041)
 -->
<!-- Title: GPDB Pages: 1 -->
<svg width="1270pt" height="1202pt"
 viewBox="0.00 0.00 1270.00 1202.00" xmlns="http://www.w3.org/2000/svg" xmlns:xlink="http://www.w3.org/1999/xlink">
<g id="graph0" class="graph" transform="scale(1 1) rotate(0) translate(36 1166)">
<title>GPDB</title>
<polygon fill="white" stroke="none" points="-36,36 -36,-1166 1234,-1166 1234,36 -36,36"/>
<text text-anchor="middle" x="599" y="-1100.4" font-family="Helvetica,sans-Serif" font-size="32.00">Greenplum System Catalog: pg_statistic</text>
<g id="clust2" class="cluster"><title>cluster_selected</title>
</g>
<g id="clust3" class="cluster"><title>cluster_to</title>
</g>
<!-- pg_statistic -->
<g id="node1" class="node"><title>pg_statistic</title>
<g id="a_node1"><a xlink:href="pg_statistic.svg" xlink:title="&lt;TABLE&gt;">
<polygon fill="#2c3e50" stroke="none" points="205,-746 205,-776 383,-776 383,-746 205,-746"/>
<polygon fill="none" stroke="black" points="205,-746 205,-776 383,-776 383,-746 205,-746"/>
<text text-anchor="start" x="230.5" y="-757.6" font-family="monospace" font-weight="bold" font-size="18.00" fill="#ffffff">pg_statistic</text>
<polygon fill="#ffffff" stroke="none" points="205,-721 205,-746 306,-746 306,-721 205,-721"/>
<polygon fill="none" stroke="#2c3e50" points="205,-721 205,-746 306,-746 306,-721 205,-721"/>
<text text-anchor="start" x="210" y="-729.8" font-family="monospace" font-size="14.00" fill="#000000">starelid</text>
<polygon fill="#18bc9c" stroke="none" points="306,-721 306,-746 383,-746 383,-721 306,-721"/>
<polygon fill="none" stroke="#2c3e50" points="306,-721 306,-746 383,-746 383,-721 306,-721"/>
<text text-anchor="start" x="311" y="-730.8" font-family="monospace" font-style="italic" font-size="14.00" fill="#ffffff">oid</text>
<polygon fill="#ffffff" stroke="none" points="205,-696 205,-721 306,-721 306,-696 205,-696"/>
<polygon fill="none" stroke="#2c3e50" points="205,-696 205,-721 306,-721 306,-696 205,-696"/>
<text text-anchor="start" x="210" y="-704.8" font-family="monospace" font-size="14.00" fill="#000000">staattnum</text>
<polygon fill="#ffffff" stroke="none" points="306,-696 306,-721 383,-721 383,-696 306,-696"/>
<polygon fill="none" stroke="#2c3e50" points="306,-696 306,-721 383,-721 383,-696 306,-696"/>
<text text-anchor="start" x="311" y="-705.8" font-family="monospace" font-style="italic" font-size="14.00" fill="#95a5a6">smallint</text>
<polygon fill="#ffffff" stroke="none" points="205,-671 205,-696 306,-696 306,-671 205,-671"/>
<polygon fill="none" stroke="#2c3e50" points="205,-671 205,-696 306,-696 306,-671 205,-671"/>
<text text-anchor="start" x="210" y="-679.8" font-family="monospace" font-size="14.00" fill="#000000">stanullfrac</text>
<polygon fill="#ffffff" stroke="none" points="306,-671 306,-696 383,-696 383,-671 306,-671"/>
<polygon fill="none" stroke="#2c3e50" points="306,-671 306,-696 383,-696 383,-671 306,-671"/>
<text text-anchor="start" x="311" y="-680.8" font-family="monospace" font-style="italic" font-size="14.00" fill="#95a5a6">real</text>
<polygon fill="#ffffff" stroke="none" points="205,-646 205,-671 306,-671 306,-646 205,-646"/>
<polygon fill="none" stroke="#2c3e50" points="205,-646 205,-671 306,-671 306,-646 205,-646"/>
<text text-anchor="start" x="210" y="-654.8" font-family="monospace" font-size="14.00" fill="#000000">stawidth</text>
<polygon fill="#ffffff" stroke="none" points="306,-646 306,-671 383,-671 383,-646 306,-646"/>
<polygon fill="none" stroke="#2c3e50" points="306,-646 306,-671 383,-671 383,-646 306,-646"/>
<text text-anchor="start" x="311" y="-655.8" font-family="monospace" font-style="italic" font-size="14.00" fill="#95a5a6">integer</text>
<polygon fill="#ffffff" stroke="none" points="205,-621 205,-646 306,-646 306,-621 205,-621"/>
<polygon fill="none" stroke="#2c3e50" points="205,-621 205,-646 306,-646 306,-621 205,-621"/>
<text text-anchor="start" x="210" y="-629.8" font-family="monospace" font-size="14.00" fill="#000000">stadistinct</text>
<polygon fill="#ffffff" stroke="none" points="306,-621 306,-646 383,-646 383,-621 306,-621"/>
<polygon fill="none" stroke="#2c3e50" points="306,-621 306,-646 383,-646 383,-621 306,-621"/>
<text text-anchor="start" x="311" y="-630.8" font-family="monospace" font-style="italic" font-size="14.00" fill="#95a5a6">real</text>
<polygon fill="#ffffff" stroke="none" points="205,-596 205,-621 306,-621 306,-596 205,-596"/>
<polygon fill="none" stroke="#2c3e50" points="205,-596 205,-621 306,-621 306,-596 205,-596"/>
<text text-anchor="start" x="210" y="-604.8" font-family="monospace" font-size="14.00" fill="#000000">stakind1</text>
<polygon fill="#ffffff" stroke="none" points="306,-596 306,-621 383,-621 383,-596 306,-596"/>
<polygon fill="none" stroke="#2c3e50" points="306,-596 306,-621 383,-621 383,-596 306,-596"/>
<text text-anchor="start" x="311" y="-605.8" font-family="monospace" font-style="italic" font-size="14.00" fill="#95a5a6">smallint</text>
<polygon fill="#ffffff" stroke="none" points="205,-571 205,-596 306,-596 306,-571 205,-571"/>
<polygon fill="none" stroke="#2c3e50" points="205,-571 205,-596 306,-596 306,-571 205,-571"/>
<text text-anchor="start" x="210" y="-579.8" font-family="monospace" font-size="14.00" fill="#000000">stakind2</text>
<polygon fill="#ffffff" stroke="none" points="306,-571 306,-596 383,-596 383,-571 306,-571"/>
<polygon fill="none" stroke="#2c3e50" points="306,-571 306,-596 383,-596 383,-571 306,-571"/>
<text text-anchor="start" x="311" y="-580.8" font-family="monospace" font-style="italic" font-size="14.00" fill="#95a5a6">smallint</text>
<polygon fill="#ffffff" stroke="none" points="205,-546 205,-571 306,-571 306,-546 205,-546"/>
<polygon fill="none" stroke="#2c3e50" points="205,-546 205,-571 306,-571 306,-546 205,-546"/>
<text text-anchor="start" x="210" y="-554.8" font-family="monospace" font-size="14.00" fill="#000000">stakind3</text>
<polygon fill="#ffffff" stroke="none" points="306,-546 306,-571 383,-571 383,-546 306,-546"/>
<polygon fill="none" stroke="#2c3e50" points="306,-546 306,-571 383,-571 383,-546 306,-546"/>
<text text-anchor="start" x="311" y="-555.8" font-family="monospace" font-style="italic" font-size="14.00" fill="#95a5a6">smallint</text>
<polygon fill="#ffffff" stroke="none" points="205,-521 205,-546 306,-546 306,-521 205,-521"/>
<polygon fill="none" stroke="#2c3e50" points="205,-521 205,-546 306,-546 306,-521 205,-521"/>
<text text-anchor="start" x="210" y="-529.8" font-family="monospace" font-size="14.00" fill="#000000">stakind4</text>
<polygon fill="#ffffff" stroke="none" points="306,-521 306,-546 383,-546 383,-521 306,-521"/>
<polygon fill="none" stroke="#2c3e50" points="306,-521 306,-546 383,-546 383,-521 306,-521"/>
<text text-anchor="start" x="311" y="-530.8" font-family="monospace" font-style="italic" font-size="14.00" fill="#95a5a6">smallint</text>
<polygon fill="#ffffff" stroke="none" points="205,-496 205,-521 306,-521 306,-496 205,-496"/>
<polygon fill="none" stroke="#2c3e50" points="205,-496 205,-521 306,-521 306,-496 205,-496"/>
<text text-anchor="start" x="210" y="-504.8" font-family="monospace" font-size="14.00" fill="#000000">staop1</text>
<polygon fill="#18bc9c" stroke="none" points="306,-496 306,-521 383,-521 383,-496 306,-496"/>
<polygon fill="none" stroke="#2c3e50" points="306,-496 306,-521 383,-521 383,-496 306,-496"/>
<text text-anchor="start" x="311" y="-505.8" font-family="monospace" font-style="italic" font-size="14.00" fill="#ffffff">oid</text>
<polygon fill="#ffffff" stroke="none" points="205,-471 205,-496 306,-496 306,-471 205,-471"/>
<polygon fill="none" stroke="#2c3e50" points="205,-471 205,-496 306,-496 306,-471 205,-471"/>
<text text-anchor="start" x="210" y="-479.8" font-family="monospace" font-size="14.00" fill="#000000">staop2</text>
<polygon fill="#18bc9c" stroke="none" points="306,-471 306,-496 383,-496 383,-471 306,-471"/>
<polygon fill="none" stroke="#2c3e50" points="306,-471 306,-496 383,-496 383,-471 306,-471"/>
<text text-anchor="start" x="311" y="-480.8" font-family="monospace" font-style="italic" font-size="14.00" fill="#ffffff">oid</text>
<polygon fill="#ffffff" stroke="none" points="205,-446 205,-471 306,-471 306,-446 205,-446"/>
<polygon fill="none" stroke="#2c3e50" points="205,-446 205,-471 306,-471 306,-446 205,-446"/>
<text text-anchor="start" x="210" y="-454.8" font-family="monospace" font-size="14.00" fill="#000000">staop3</text>
<polygon fill="#18bc9c" stroke="none" points="306,-446 306,-471 383,-471 383,-446 306,-446"/>
<polygon fill="none" stroke="#2c3e50" points="306,-446 306,-471 383,-471 383,-446 306,-446"/>
<text text-anchor="start" x="311" y="-455.8" font-family="monospace" font-style="italic" font-size="14.00" fill="#ffffff">oid</text>
<polygon fill="#ffffff" stroke="none" points="205,-421 205,-446 306,-446 306,-421 205,-421"/>
<polygon fill="none" stroke="#2c3e50" points="205,-421 205,-446 306,-446 306,-421 205,-421"/>
<text text-anchor="start" x="210" y="-429.8" font-family="monospace" font-size="14.00" fill="#000000">staop4</text>
<polygon fill="#18bc9c" stroke="none" points="306,-421 306,-446 383,-446 383,-421 306,-421"/>
<polygon fill="none" stroke="#2c3e50" points="306,-421 306,-446 383,-446 383,-421 306,-421"/>
<text text-anchor="start" x="311" y="-430.8" font-family="monospace" font-style="italic" font-size="14.00" fill="#ffffff">oid</text>
<polygon fill="#ffffff" stroke="none" points="205,-396 205,-421 306,-421 306,-396 205,-396"/>
<polygon fill="none" stroke="#2c3e50" points="205,-396 205,-421 306,-421 306,-396 205,-396"/>
<text text-anchor="start" x="210" y="-404.8" font-family="monospace" font-size="14.00" fill="#000000">stanumbers1</text>
<polygon fill="#ffffff" stroke="none" points="306,-396 306,-421 383,-421 383,-396 306,-396"/>
<polygon fill="none" stroke="#2c3e50" points="306,-396 306,-421 383,-421 383,-396 306,-396"/>
<text text-anchor="start" x="311" y="-405.8" font-family="monospace" font-style="italic" font-size="14.00" fill="#95a5a6">real[]</text>
<polygon fill="#ffffff" stroke="none" points="205,-371 205,-396 306,-396 306,-371 205,-371"/>
<polygon fill="none" stroke="#2c3e50" points="205,-371 205,-396 306,-396 306,-371 205,-371"/>
<text text-anchor="start" x="210" y="-379.8" font-family="monospace" font-size="14.00" fill="#000000">stanumbers2</text>
<polygon fill="#ffffff" stroke="none" points="306,-371 306,-396 383,-396 383,-371 306,-371"/>
<polygon fill="none" stroke="#2c3e50" points="306,-371 306,-396 383,-396 383,-371 306,-371"/>
<text text-anchor="start" x="311" y="-380.8" font-family="monospace" font-style="italic" font-size="14.00" fill="#95a5a6">real[]</text>
<polygon fill="#ffffff" stroke="none" points="205,-346 205,-371 306,-371 306,-346 205,-346"/>
<polygon fill="none" stroke="#2c3e50" points="205,-346 205,-371 306,-371 306,-346 205,-346"/>
<text text-anchor="start" x="210" y="-354.8" font-family="monospace" font-size="14.00" fill="#000000">stanumbers3</text>
<polygon fill="#ffffff" stroke="none" points="306,-346 306,-371 383,-371 383,-346 306,-346"/>
<polygon fill="none" stroke="#2c3e50" points="306,-346 306,-371 383,-371 383,-346 306,-346"/>
<text text-anchor="start" x="311" y="-355.8" font-family="monospace" font-style="italic" font-size="14.00" fill="#95a5a6">real[]</text>
<polygon fill="#ffffff" stroke="none" points="205,-321 205,-346 306,-346 306,-321 205,-321"/>
<polygon fill="none" stroke="#2c3e50" points="205,-321 205,-346 306,-346 306,-321 205,-321"/>
<text text-anchor="start" x="210" y="-329.8" font-family="monospace" font-size="14.00" fill="#000000">stanumbers4</text>
<polygon fill="#ffffff" stroke="none" points="306,-321 306,-346 383,-346 383,-321 306,-321"/>
<polygon fill="none" stroke="#2c3e50" points="306,-321 306,-346 383,-346 383,-321 306,-321"/>
<text text-anchor="start" x="311" y="-330.8" font-family="monospace" font-style="italic" font-size="14.00" fill="#95a5a6">real[]</text>
<polygon fill="#ffffff" stroke="none" points="205,-296 205,-321 306,-321 306,-296 205,-296"/>
<polygon fill="none" stroke="#2c3e50" points="205,-296 205,-321 306,-321 306,-296 205,-296"/>
<text text-anchor="start" x="210" y="-304.8" font-family="monospace" font-size="14.00" fill="#000000">stavalues1</text>
<polygon fill="#ffffff" stroke="none" points="306,-296 306,-321 383,-321 383,-296 306,-296"/>
<polygon fill="none" stroke="#2c3e50" points="306,-296 306,-321 383,-321 383,-296 306,-296"/>
<text text-anchor="start" x="311" y="-305.8" font-family="monospace" font-style="italic" font-size="14.00" fill="#95a5a6">text</text>
<polygon fill="#ffffff" stroke="none" points="205,-271 205,-296 306,-296 306,-271 205,-271"/>
<polygon fill="none" stroke="#2c3e50" points="205,-271 205,-296 306,-296 306,-271 205,-271"/>
<text text-anchor="start" x="210" y="-279.8" font-family="monospace" font-size="14.00" fill="#000000">stavalues2</text>
<polygon fill="#ffffff" stroke="none" points="306,-271 306,-296 383,-296 383,-271 306,-271"/>
<polygon fill="none" stroke="#2c3e50" points="306,-271 306,-296 383,-296 383,-271 306,-271"/>
<text text-anchor="start" x="311" y="-280.8" font-family="monospace" font-style="italic" font-size="14.00" fill="#95a5a6">text</text>
<polygon fill="#ffffff" stroke="none" points="205,-246 205,-271 306,-271 306,-246 205,-246"/>
<polygon fill="none" stroke="#2c3e50" points="205,-246 205,-271 306,-271 306,-246 205,-246"/>
<text text-anchor="start" x="210" y="-254.8" font-family="monospace" font-size="14.00" fill="#000000">stavalues3</text>
<polygon fill="#ffffff" stroke="none" points="306,-246 306,-271 383,-271 383,-246 306,-246"/>
<polygon fill="none" stroke="#2c3e50" points="306,-246 306,-271 383,-271 383,-246 306,-246"/>
<text text-anchor="start" x="311" y="-255.8" font-family="monospace" font-style="italic" font-size="14.00" fill="#95a5a6">text</text>
<polygon fill="#ffffff" stroke="none" points="205,-221 205,-246 306,-246 306,-221 205,-221"/>
<polygon fill="none" stroke="#2c3e50" points="205,-221 205,-246 306,-246 306,-221 205,-221"/>
<text text-anchor="start" x="210" y="-229.8" font-family="monospace" font-size="14.00" fill="#000000">stavalues4</text>
<polygon fill="#ffffff" stroke="none" points="306,-221 306,-246 383,-246 383,-221 306,-221"/>
<polygon fill="none" stroke="#2c3e50" points="306,-221 306,-246 383,-246 383,-221 306,-221"/>
<text text-anchor="start" x="311" y="-230.8" font-family="monospace" font-style="italic" font-size="14.00" fill="#95a5a6">text</text>
</a>
</g>
</g>
<!-- pg_attribute -->
<g id="node2" class="node"><title>pg_attribute</title>
<g id="a_node2"><a xlink:href="pg_attribute.svg" xlink:title="&lt;TABLE&gt;">
<polygon fill="#2c3e50" stroke="none" points="794.5,-994 794.5,-1024 1013.5,-1024 1013.5,-994 794.5,-994"/>
<polygon fill="none" stroke="black" points="794.5,-994 794.5,-1024 1013.5,-1024 1013.5,-994 794.5,-994"/>
<text text-anchor="start" x="840.5" y="-1005.6" font-family="monospace" font-weight="bold" font-size="18.00" fill="#ffffff">pg_attribute</text>
<polygon fill="#ffffff" stroke="none" points="794.5,-969 794.5,-994 912.5,-994 912.5,-969 794.5,-969"/>
<polygon fill="none" stroke="#2c3e50" points="794.5,-969 794.5,-994 912.5,-994 912.5,-969 794.5,-969"/>
<text text-anchor="start" x="799.5" y="-977.8" font-family="monospace" font-size="14.00" fill="#000000">oid</text>
<polygon fill="#ffffff" stroke="none" points="912.5,-969 912.5,-994 1013.5,-994 1013.5,-969 912.5,-969"/>
<polygon fill="none" stroke="#2c3e50" points="912.5,-969 912.5,-994 1013.5,-994 1013.5,-969 912.5,-969"/>
<text text-anchor="start" x="917.5" y="-978.8" font-family="monospace" font-style="italic" font-size="14.00" fill="#95a5a6">oid</text>
<polygon fill="#18bc9c" stroke="none" points="794.5,-944 794.5,-969 912.5,-969 912.5,-944 794.5,-944"/>
<polygon fill="none" stroke="#2c3e50" points="794.5,-944 794.5,-969 912.5,-969 912.5,-944 794.5,-944"/>
<text text-anchor="start" x="799.5" y="-952.8" font-family="monospace" font-size="14.00" fill="#ffffff">attrelid</text>
<polygon fill="#ffffff" stroke="none" points="912.5,-944 912.5,-969 1013.5,-969 1013.5,-944 912.5,-944"/>
<polygon fill="none" stroke="#2c3e50" points="912.5,-944 912.5,-969 1013.5,-969 1013.5,-944 912.5,-944"/>
<text text-anchor="start" x="917.5" y="-953.8" font-family="monospace" font-style="italic" font-size="14.00" fill="#95a5a6">oid</text>
<polygon fill="#ffffff" stroke="none" points="794.5,-919 794.5,-944 912.5,-944 912.5,-919 794.5,-919"/>
<polygon fill="none" stroke="#2c3e50" points="794.5,-919 794.5,-944 912.5,-944 912.5,-919 794.5,-919"/>
<text text-anchor="start" x="799.5" y="-927.8" font-family="monospace" font-size="14.00" fill="#000000">attname</text>
<polygon fill="#ffffff" stroke="none" points="912.5,-919 912.5,-944 1013.5,-944 1013.5,-919 912.5,-919"/>
<polygon fill="none" stroke="#2c3e50" points="912.5,-919 912.5,-944 1013.5,-944 1013.5,-919 912.5,-919"/>
<text text-anchor="start" x="917.5" y="-928.8" font-family="monospace" font-style="italic" font-size="14.00" fill="#95a5a6">name</text>
<polygon fill="#ffffff" stroke="none" points="794.5,-894 794.5,-919 912.5,-919 912.5,-894 794.5,-894"/>
<polygon fill="none" stroke="#2c3e50" points="794.5,-894 794.5,-919 912.5,-919 912.5,-894 794.5,-894"/>
<text text-anchor="start" x="799.5" y="-902.8" font-family="monospace" font-size="14.00" fill="#000000">atttypid</text>
<polygon fill="#ffffff" stroke="none" points="912.5,-894 912.5,-919 1013.5,-919 1013.5,-894 912.5,-894"/>
<polygon fill="none" stroke="#2c3e50" points="912.5,-894 912.5,-919 1013.5,-919 1013.5,-894 912.5,-894"/>
<text text-anchor="start" x="917.5" y="-903.8" font-family="monospace" font-style="italic" font-size="14.00" fill="#95a5a6">oid</text>
<polygon fill="#ffffff" stroke="none" points="794.5,-869 794.5,-894 912.5,-894 912.5,-869 794.5,-869"/>
<polygon fill="none" stroke="#2c3e50" points="794.5,-869 794.5,-894 912.5,-894 912.5,-869 794.5,-869"/>
<text text-anchor="start" x="799.5" y="-877.8" font-family="monospace" font-size="14.00" fill="#000000">attstattarget</text>
<polygon fill="#ffffff" stroke="none" points="912.5,-869 912.5,-894 1013.5,-894 1013.5,-869 912.5,-869"/>
<polygon fill="none" stroke="#2c3e50" points="912.5,-869 912.5,-894 1013.5,-894 1013.5,-869 912.5,-869"/>
<text text-anchor="start" x="917.5" y="-878.8" font-family="monospace" font-style="italic" font-size="14.00" fill="#95a5a6">integer</text>
<polygon fill="#ffffff" stroke="none" points="794.5,-844 794.5,-869 912.5,-869 912.5,-844 794.5,-844"/>
<polygon fill="none" stroke="#2c3e50" points="794.5,-844 794.5,-869 912.5,-869 912.5,-844 794.5,-844"/>
<text text-anchor="start" x="799.5" y="-852.8" font-family="monospace" font-size="14.00" fill="#000000">attlen</text>
<polygon fill="#ffffff" stroke="none" points="912.5,-844 912.5,-869 1013.5,-869 1013.5,-844 912.5,-844"/>
<polygon fill="none" stroke="#2c3e50" points="912.5,-844 912.5,-869 1013.5,-869 1013.5,-844 912.5,-844"/>
<text text-anchor="start" x="917.5" y="-853.8" font-family="monospace" font-style="italic" font-size="14.00" fill="#95a5a6">smallint</text>
<polygon fill="#ffffff" stroke="none" points="794.5,-819 794.5,-844 912.5,-844 912.5,-819 794.5,-819"/>
<polygon fill="none" stroke="#2c3e50" points="794.5,-819 794.5,-844 912.5,-844 912.5,-819 794.5,-819"/>
<text text-anchor="start" x="799.5" y="-827.8" font-family="monospace" font-size="14.00" fill="#000000">attnum</text>
<polygon fill="#ffffff" stroke="none" points="912.5,-819 912.5,-844 1013.5,-844 1013.5,-819 912.5,-819"/>
<polygon fill="none" stroke="#2c3e50" points="912.5,-819 912.5,-844 1013.5,-844 1013.5,-819 912.5,-819"/>
<text text-anchor="start" x="917.5" y="-828.8" font-family="monospace" font-style="italic" font-size="14.00" fill="#95a5a6">smallint</text>
<polygon fill="#ffffff" stroke="none" points="794.5,-794 794.5,-819 912.5,-819 912.5,-794 794.5,-794"/>
<polygon fill="none" stroke="#2c3e50" points="794.5,-794 794.5,-819 912.5,-819 912.5,-794 794.5,-794"/>
<text text-anchor="start" x="799.5" y="-802.8" font-family="monospace" font-size="14.00" fill="#000000">attndims</text>
<polygon fill="#ffffff" stroke="none" points="912.5,-794 912.5,-819 1013.5,-819 1013.5,-794 912.5,-794"/>
<polygon fill="none" stroke="#2c3e50" points="912.5,-794 912.5,-819 1013.5,-819 1013.5,-794 912.5,-794"/>
<text text-anchor="start" x="917.5" y="-803.8" font-family="monospace" font-style="italic" font-size="14.00" fill="#95a5a6">integer</text>
<polygon fill="#ffffff" stroke="none" points="794.5,-769 794.5,-794 912.5,-794 912.5,-769 794.5,-769"/>
<polygon fill="none" stroke="#2c3e50" points="794.5,-769 794.5,-794 912.5,-794 912.5,-769 794.5,-769"/>
<text text-anchor="start" x="799.5" y="-777.8" font-family="monospace" font-size="14.00" fill="#000000">attcacheoff</text>
<polygon fill="#ffffff" stroke="none" points="912.5,-769 912.5,-794 1013.5,-794 1013.5,-769 912.5,-769"/>
<polygon fill="none" stroke="#2c3e50" points="912.5,-769 912.5,-794 1013.5,-794 1013.5,-769 912.5,-769"/>
<text text-anchor="start" x="917.5" y="-778.8" font-family="monospace" font-style="italic" font-size="14.00" fill="#95a5a6">integer</text>
<polygon fill="#ffffff" stroke="none" points="794.5,-744 794.5,-769 912.5,-769 912.5,-744 794.5,-744"/>
<polygon fill="none" stroke="#2c3e50" points="794.5,-744 794.5,-769 912.5,-769 912.5,-744 794.5,-744"/>
<text text-anchor="start" x="799.5" y="-752.8" font-family="monospace" font-size="14.00" fill="#000000">atttypmod</text>
<polygon fill="#ffffff" stroke="none" points="912.5,-744 912.5,-769 1013.5,-769 1013.5,-744 912.5,-744"/>
<polygon fill="none" stroke="#2c3e50" points="912.5,-744 912.5,-769 1013.5,-769 1013.5,-744 912.5,-744"/>
<text text-anchor="start" x="917.5" y="-753.8" font-family="monospace" font-style="italic" font-size="14.00" fill="#95a5a6">integer</text>
<polygon fill="#ffffff" stroke="none" points="794.5,-719 794.5,-744 912.5,-744 912.5,-719 794.5,-719"/>
<polygon fill="none" stroke="#2c3e50" points="794.5,-719 794.5,-744 912.5,-744 912.5,-719 794.5,-719"/>
<text text-anchor="start" x="799.5" y="-727.8" font-family="monospace" font-size="14.00" fill="#000000">attbyval</text>
<polygon fill="#ffffff" stroke="none" points="912.5,-719 912.5,-744 1013.5,-744 1013.5,-719 912.5,-719"/>
<polygon fill="none" stroke="#2c3e50" points="912.5,-719 912.5,-744 1013.5,-744 1013.5,-719 912.5,-719"/>
<text text-anchor="start" x="917.5" y="-728.8" font-family="monospace" font-style="italic" font-size="14.00" fill="#95a5a6">boolean</text>
<polygon fill="#ffffff" stroke="none" points="794.5,-694 794.5,-719 912.5,-719 912.5,-694 794.5,-694"/>
<polygon fill="none" stroke="#2c3e50" points="794.5,-694 794.5,-719 912.5,-719 912.5,-694 794.5,-694"/>
<text text-anchor="start" x="799.5" y="-702.8" font-family="monospace" font-size="14.00" fill="#000000">attstorage</text>
<polygon fill="#ffffff" stroke="none" points="912.5,-694 912.5,-719 1013.5,-719 1013.5,-694 912.5,-694"/>
<polygon fill="none" stroke="#2c3e50" points="912.5,-694 912.5,-719 1013.5,-719 1013.5,-694 912.5,-694"/>
<text text-anchor="start" x="917.5" y="-703.8" font-family="monospace" font-style="italic" font-size="14.00" fill="#95a5a6">quoted_char</text>
<polygon fill="#ffffff" stroke="none" points="794.5,-669 794.5,-694 912.5,-694 912.5,-669 794.5,-669"/>
<polygon fill="none" stroke="#2c3e50" points="794.5,-669 794.5,-694 912.5,-694 912.5,-669 794.5,-669"/>
<text text-anchor="start" x="799.5" y="-677.8" font-family="monospace" font-size="14.00" fill="#000000">attalign</text>
<polygon fill="#ffffff" stroke="none" points="912.5,-669 912.5,-694 1013.5,-694 1013.5,-669 912.5,-669"/>
<polygon fill="none" stroke="#2c3e50" points="912.5,-669 912.5,-694 1013.5,-694 1013.5,-669 912.5,-669"/>
<text text-anchor="start" x="917.5" y="-678.8" font-family="monospace" font-style="italic" font-size="14.00" fill="#95a5a6">quoted_char</text>
<polygon fill="#ffffff" stroke="none" points="794.5,-644 794.5,-669 912.5,-669 912.5,-644 794.5,-644"/>
<polygon fill="none" stroke="#2c3e50" points="794.5,-644 794.5,-669 912.5,-669 912.5,-644 794.5,-644"/>
<text text-anchor="start" x="799.5" y="-652.8" font-family="monospace" font-size="14.00" fill="#000000">attnotnull</text>
<polygon fill="#ffffff" stroke="none" points="912.5,-644 912.5,-669 1013.5,-669 1013.5,-644 912.5,-644"/>
<polygon fill="none" stroke="#2c3e50" points="912.5,-644 912.5,-669 1013.5,-669 1013.5,-644 912.5,-644"/>
<text text-anchor="start" x="917.5" y="-653.8" font-family="monospace" font-style="italic" font-size="14.00" fill="#95a5a6">boolean</text>
<polygon fill="#ffffff" stroke="none" points="794.5,-619 794.5,-644 912.5,-644 912.5,-619 794.5,-619"/>
<polygon fill="none" stroke="#2c3e50" points="794.5,-619 794.5,-644 912.5,-644 912.5,-619 794.5,-619"/>
<text text-anchor="start" x="799.5" y="-627.8" font-family="monospace" font-size="14.00" fill="#000000">atthasdef</text>
<polygon fill="#ffffff" stroke="none" points="912.5,-619 912.5,-644 1013.5,-644 1013.5,-619 912.5,-619"/>
<polygon fill="none" stroke="#2c3e50" points="912.5,-619 912.5,-644 1013.5,-644 1013.5,-619 912.5,-619"/>
<text text-anchor="start" x="917.5" y="-628.8" font-family="monospace" font-style="italic" font-size="14.00" fill="#95a5a6">boolean</text>
<polygon fill="#ffffff" stroke="none" points="794.5,-594 794.5,-619 912.5,-619 912.5,-594 794.5,-594"/>
<polygon fill="none" stroke="#2c3e50" points="794.5,-594 794.5,-619 912.5,-619 912.5,-594 794.5,-594"/>
<text text-anchor="start" x="799.5" y="-602.8" font-family="monospace" font-size="14.00" fill="#000000">attisdropped</text>
<polygon fill="#ffffff" stroke="none" points="912.5,-594 912.5,-619 1013.5,-619 1013.5,-594 912.5,-594"/>
<polygon fill="none" stroke="#2c3e50" points="912.5,-594 912.5,-619 1013.5,-619 1013.5,-594 912.5,-594"/>
<text text-anchor="start" x="917.5" y="-603.8" font-family="monospace" font-style="italic" font-size="14.00" fill="#95a5a6">boolean</text>
<polygon fill="#ffffff" stroke="none" points="794.5,-569 794.5,-594 912.5,-594 912.5,-569 794.5,-569"/>
<polygon fill="none" stroke="#2c3e50" points="794.5,-569 794.5,-594 912.5,-594 912.5,-569 794.5,-569"/>
<text text-anchor="start" x="799.5" y="-577.8" font-family="monospace" font-size="14.00" fill="#000000">attislocal</text>
<polygon fill="#ffffff" stroke="none" points="912.5,-569 912.5,-594 1013.5,-594 1013.5,-569 912.5,-569"/>
<polygon fill="none" stroke="#2c3e50" points="912.5,-569 912.5,-594 1013.5,-594 1013.5,-569 912.5,-569"/>
<text text-anchor="start" x="917.5" y="-578.8" font-family="monospace" font-style="italic" font-size="14.00" fill="#95a5a6">boolean</text>
<polygon fill="#ffffff" stroke="none" points="794.5,-544 794.5,-569 912.5,-569 912.5,-544 794.5,-544"/>
<polygon fill="none" stroke="#2c3e50" points="794.5,-544 794.5,-569 912.5,-569 912.5,-544 794.5,-544"/>
<text text-anchor="start" x="799.5" y="-552.8" font-family="monospace" font-size="14.00" fill="#000000">attinhcount</text>
<polygon fill="#ffffff" stroke="none" points="912.5,-544 912.5,-569 1013.5,-569 1013.5,-544 912.5,-544"/>
<polygon fill="none" stroke="#2c3e50" points="912.5,-544 912.5,-569 1013.5,-569 1013.5,-544 912.5,-544"/>
<text text-anchor="start" x="917.5" y="-553.8" font-family="monospace" font-style="italic" font-size="14.00" fill="#95a5a6">integer</text>
</a>
</g>
</g>
<!-- pg_statistic&#45;&gt;pg_attribute -->
<g id="edge1" class="edge"><title>pg_statistic:starelid_out&#45;&gt;pg_attribute:attrelid_in</title>
<path fill="none" stroke="#2c3e50" d="M384,-734C587.796,-734 586.37,-949.657 783.352,-956.818"/>
<polygon fill="#2c3e50" stroke="#2c3e50" points="783.439,-960.32 793.5,-957 783.565,-953.321 783.439,-960.32"/>
</g>
<!-- pg_operator -->
<g id="node3" class="node"><title>pg_operator</title>
<g id="a_node3"><a xlink:href="pg_operator.svg" xlink:title="&lt;TABLE&gt;">
<polygon fill="#2c3e50" stroke="none" points="798.5,-470 798.5,-500 1009.5,-500 1009.5,-470 798.5,-470"/>
<polygon fill="none" stroke="black" points="798.5,-470 798.5,-500 1009.5,-500 1009.5,-470 798.5,-470"/>
<text text-anchor="start" x="846" y="-481.6" font-family="monospace" font-weight="bold" font-size="18.00" fill="#ffffff">pg_operator</text>
<polygon fill="#18bc9c" stroke="none" points="798.5,-445 798.5,-470 908.5,-470 908.5,-445 798.5,-445"/>
<polygon fill="none" stroke="#2c3e50" points="798.5,-445 798.5,-470 908.5,-470 908.5,-445 798.5,-445"/>
<text text-anchor="start" x="803.5" y="-453.8" font-family="monospace" font-size="14.00" fill="#ffffff">oid</text>
<polygon fill="#ffffff" stroke="none" points="908.5,-445 908.5,-470 1009.5,-470 1009.5,-445 908.5,-445"/>
<polygon fill="none" stroke="#2c3e50" points="908.5,-445 908.5,-470 1009.5,-470 1009.5,-445 908.5,-445"/>
<text text-anchor="start" x="913.5" y="-454.8" font-family="monospace" font-style="italic" font-size="14.00" fill="#95a5a6">oid</text>
<polygon fill="#ffffff" stroke="none" points="798.5,-420 798.5,-445 908.5,-445 908.5,-420 798.5,-420"/>
<polygon fill="none" stroke="#2c3e50" points="798.5,-420 798.5,-445 908.5,-445 908.5,-420 798.5,-420"/>
<text text-anchor="start" x="803.5" y="-428.8" font-family="monospace" font-size="14.00" fill="#000000">oprname</text>
<polygon fill="#ffffff" stroke="none" points="908.5,-420 908.5,-445 1009.5,-445 1009.5,-420 908.5,-420"/>
<polygon fill="none" stroke="#2c3e50" points="908.5,-420 908.5,-445 1009.5,-445 1009.5,-420 908.5,-420"/>
<text text-anchor="start" x="913.5" y="-429.8" font-family="monospace" font-style="italic" font-size="14.00" fill="#95a5a6">name</text>
<polygon fill="#ffffff" stroke="none" points="798.5,-395 798.5,-420 908.5,-420 908.5,-395 798.5,-395"/>
<polygon fill="none" stroke="#2c3e50" points="798.5,-395 798.5,-420 908.5,-420 908.5,-395 798.5,-395"/>
<text text-anchor="start" x="803.5" y="-403.8" font-family="monospace" font-size="14.00" fill="#000000">oprnamespace</text>
<polygon fill="#ffffff" stroke="none" points="908.5,-395 908.5,-420 1009.5,-420 1009.5,-395 908.5,-395"/>
<polygon fill="none" stroke="#2c3e50" points="908.5,-395 908.5,-420 1009.5,-420 1009.5,-395 908.5,-395"/>
<text text-anchor="start" x="913.5" y="-404.8" font-family="monospace" font-style="italic" font-size="14.00" fill="#95a5a6">oid</text>
<polygon fill="#ffffff" stroke="none" points="798.5,-370 798.5,-395 908.5,-395 908.5,-370 798.5,-370"/>
<polygon fill="none" stroke="#2c3e50" points="798.5,-370 798.5,-395 908.5,-395 908.5,-370 798.5,-370"/>
<text text-anchor="start" x="803.5" y="-378.8" font-family="monospace" font-size="14.00" fill="#000000">oprowner</text>
<polygon fill="#ffffff" stroke="none" points="908.5,-370 908.5,-395 1009.5,-395 1009.5,-370 908.5,-370"/>
<polygon fill="none" stroke="#2c3e50" points="908.5,-370 908.5,-395 1009.5,-395 1009.5,-370 908.5,-370"/>
<text text-anchor="start" x="913.5" y="-379.8" font-family="monospace" font-style="italic" font-size="14.00" fill="#95a5a6">oid</text>
<polygon fill="#ffffff" stroke="none" points="798.5,-345 798.5,-370 908.5,-370 908.5,-345 798.5,-345"/>
<polygon fill="none" stroke="#2c3e50" points="798.5,-345 798.5,-370 908.5,-370 908.5,-345 798.5,-345"/>
<text text-anchor="start" x="803.5" y="-353.8" font-family="monospace" font-size="14.00" fill="#000000">oprkind</text>
<polygon fill="#ffffff" stroke="none" points="908.5,-345 908.5,-370 1009.5,-370 1009.5,-345 908.5,-345"/>
<polygon fill="none" stroke="#2c3e50" points="908.5,-345 908.5,-370 1009.5,-370 1009.5,-345 908.5,-345"/>
<text text-anchor="start" x="913.5" y="-354.8" font-family="monospace" font-style="italic" font-size="14.00" fill="#95a5a6">quoted_char</text>
<polygon fill="#ffffff" stroke="none" points="798.5,-320 798.5,-345 908.5,-345 908.5,-320 798.5,-320"/>
<polygon fill="none" stroke="#2c3e50" points="798.5,-320 798.5,-345 908.5,-345 908.5,-320 798.5,-320"/>
<text text-anchor="start" x="803.5" y="-328.8" font-family="monospace" font-size="14.00" fill="#000000">oprcanhash</text>
<polygon fill="#ffffff" stroke="none" points="908.5,-320 908.5,-345 1009.5,-345 1009.5,-320 908.5,-320"/>
<polygon fill="none" stroke="#2c3e50" points="908.5,-320 908.5,-345 1009.5,-345 1009.5,-320 908.5,-320"/>
<text text-anchor="start" x="913.5" y="-329.8" font-family="monospace" font-style="italic" font-size="14.00" fill="#95a5a6">boolean</text>
<polygon fill="#ffffff" stroke="none" points="798.5,-295 798.5,-320 908.5,-320 908.5,-295 798.5,-295"/>
<polygon fill="none" stroke="#2c3e50" points="798.5,-295 798.5,-320 908.5,-320 908.5,-295 798.5,-295"/>
<text text-anchor="start" x="803.5" y="-303.8" font-family="monospace" font-size="14.00" fill="#000000">oprleft</text>
<polygon fill="#ffffff" stroke="none" points="908.5,-295 908.5,-320 1009.5,-320 1009.5,-295 908.5,-295"/>
<polygon fill="none" stroke="#2c3e50" points="908.5,-295 908.5,-320 1009.5,-320 1009.5,-295 908.5,-295"/>
<text text-anchor="start" x="913.5" y="-304.8" font-family="monospace" font-style="italic" font-size="14.00" fill="#95a5a6">oid</text>
<polygon fill="#ffffff" stroke="none" points="798.5,-270 798.5,-295 908.5,-295 908.5,-270 798.5,-270"/>
<polygon fill="none" stroke="#2c3e50" points="798.5,-270 798.5,-295 908.5,-295 908.5,-270 798.5,-270"/>
<text text-anchor="start" x="803.5" y="-278.8" font-family="monospace" font-size="14.00" fill="#000000">oprright</text>
<polygon fill="#ffffff" stroke="none" points="908.5,-270 908.5,-295 1009.5,-295 1009.5,-270 908.5,-270"/>
<polygon fill="none" stroke="#2c3e50" points="908.5,-270 908.5,-295 1009.5,-295 1009.5,-270 908.5,-270"/>
<text text-anchor="start" x="913.5" y="-279.8" font-family="monospace" font-style="italic" font-size="14.00" fill="#95a5a6">oid</text>
<polygon fill="#ffffff" stroke="none" points="798.5,-245 798.5,-270 908.5,-270 908.5,-245 798.5,-245"/>
<polygon fill="none" stroke="#2c3e50" points="798.5,-245 798.5,-270 908.5,-270 908.5,-245 798.5,-245"/>
<text text-anchor="start" x="803.5" y="-253.8" font-family="monospace" font-size="14.00" fill="#000000">oprresult</text>
<polygon fill="#ffffff" stroke="none" points="908.5,-245 908.5,-270 1009.5,-270 1009.5,-245 908.5,-245"/>
<polygon fill="none" stroke="#2c3e50" points="908.5,-245 908.5,-270 1009.5,-270 1009.5,-245 908.5,-245"/>
<text text-anchor="start" x="913.5" y="-254.8" font-family="monospace" font-style="italic" font-size="14.00" fill="#95a5a6">oid</text>
<polygon fill="#ffffff" stroke="none" points="798.5,-220 798.5,-245 908.5,-245 908.5,-220 798.5,-220"/>
<polygon fill="none" stroke="#2c3e50" points="798.5,-220 798.5,-245 908.5,-245 908.5,-220 798.5,-220"/>
<text text-anchor="start" x="803.5" y="-228.8" font-family="monospace" font-size="14.00" fill="#000000">oprcom</text>
<polygon fill="#ffffff" stroke="none" points="908.5,-220 908.5,-245 1009.5,-245 1009.5,-220 908.5,-220"/>
<polygon fill="none" stroke="#2c3e50" points="908.5,-220 908.5,-245 1009.5,-245 1009.5,-220 908.5,-220"/>
<text text-anchor="start" x="913.5" y="-229.8" font-family="monospace" font-style="italic" font-size="14.00" fill="#95a5a6">oid</text>
<polygon fill="#ffffff" stroke="none" points="798.5,-195 798.5,-220 908.5,-220 908.5,-195 798.5,-195"/>
<polygon fill="none" stroke="#2c3e50" points="798.5,-195 798.5,-220 908.5,-220 908.5,-195 798.5,-195"/>
<text text-anchor="start" x="803.5" y="-203.8" font-family="monospace" font-size="14.00" fill="#000000">oprnegate</text>
<polygon fill="#ffffff" stroke="none" points="908.5,-195 908.5,-220 1009.5,-220 1009.5,-195 908.5,-195"/>
<polygon fill="none" stroke="#2c3e50" points="908.5,-195 908.5,-220 1009.5,-220 1009.5,-195 908.5,-195"/>
<text text-anchor="start" x="913.5" y="-204.8" font-family="monospace" font-style="italic" font-size="14.00" fill="#95a5a6">oid</text>
<polygon fill="#ffffff" stroke="none" points="798.5,-170 798.5,-195 908.5,-195 908.5,-170 798.5,-170"/>
<polygon fill="none" stroke="#2c3e50" points="798.5,-170 798.5,-195 908.5,-195 908.5,-170 798.5,-170"/>
<text text-anchor="start" x="803.5" y="-178.8" font-family="monospace" font-size="14.00" fill="#000000">oprlsortop</text>
<polygon fill="#ffffff" stroke="none" points="908.5,-170 908.5,-195 1009.5,-195 1009.5,-170 908.5,-170"/>
<polygon fill="none" stroke="#2c3e50" points="908.5,-170 908.5,-195 1009.5,-195 1009.5,-170 908.5,-170"/>
<text text-anchor="start" x="913.5" y="-179.8" font-family="monospace" font-style="italic" font-size="14.00" fill="#95a5a6">oid</text>
<polygon fill="#ffffff" stroke="none" points="798.5,-145 798.5,-170 908.5,-170 908.5,-145 798.5,-145"/>
<polygon fill="none" stroke="#2c3e50" points="798.5,-145 798.5,-170 908.5,-170 908.5,-145 798.5,-145"/>
<text text-anchor="start" x="803.5" y="-153.8" font-family="monospace" font-size="14.00" fill="#000000">oprrsortop</text>
<polygon fill="#ffffff" stroke="none" points="908.5,-145 908.5,-170 1009.5,-170 1009.5,-145 908.5,-145"/>
<polygon fill="none" stroke="#2c3e50" points="908.5,-145 908.5,-170 1009.5,-170 1009.5,-145 908.5,-145"/>
<text text-anchor="start" x="913.5" y="-154.8" font-family="monospace" font-style="italic" font-size="14.00" fill="#95a5a6">oid</text>
<polygon fill="#ffffff" stroke="none" points="798.5,-120 798.5,-145 908.5,-145 908.5,-120 798.5,-120"/>
<polygon fill="none" stroke="#2c3e50" points="798.5,-120 798.5,-145 908.5,-145 908.5,-120 798.5,-120"/>
<text text-anchor="start" x="803.5" y="-128.8" font-family="monospace" font-size="14.00" fill="#000000">oprltcmpop</text>
<polygon fill="#ffffff" stroke="none" points="908.5,-120 908.5,-145 1009.5,-145 1009.5,-120 908.5,-120"/>
<polygon fill="none" stroke="#2c3e50" points="908.5,-120 908.5,-145 1009.5,-145 1009.5,-120 908.5,-120"/>
<text text-anchor="start" x="913.5" y="-129.8" font-family="monospace" font-style="italic" font-size="14.00" fill="#95a5a6">oid</text>
<polygon fill="#ffffff" stroke="none" points="798.5,-95 798.5,-120 908.5,-120 908.5,-95 798.5,-95"/>
<polygon fill="none" stroke="#2c3e50" points="798.5,-95 798.5,-120 908.5,-120 908.5,-95 798.5,-95"/>
<text text-anchor="start" x="803.5" y="-103.8" font-family="monospace" font-size="14.00" fill="#000000">oprgtcmpop</text>
<polygon fill="#ffffff" stroke="none" points="908.5,-95 908.5,-120 1009.5,-120 1009.5,-95 908.5,-95"/>
<polygon fill="none" stroke="#2c3e50" points="908.5,-95 908.5,-120 1009.5,-120 1009.5,-95 908.5,-95"/>
<text text-anchor="start" x="913.5" y="-104.8" font-family="monospace" font-style="italic" font-size="14.00" fill="#95a5a6">oid</text>
<polygon fill="#ffffff" stroke="none" points="798.5,-70 798.5,-95 908.5,-95 908.5,-70 798.5,-70"/>
<polygon fill="none" stroke="#2c3e50" points="798.5,-70 798.5,-95 908.5,-95 908.5,-70 798.5,-70"/>
<text text-anchor="start" x="803.5" y="-78.8" font-family="monospace" font-size="14.00" fill="#000000">oprcode</text>
<polygon fill="#ffffff" stroke="none" points="908.5,-70 908.5,-95 1009.5,-95 1009.5,-70 908.5,-70"/>
<polygon fill="none" stroke="#2c3e50" points="908.5,-70 908.5,-95 1009.5,-95 1009.5,-70 908.5,-70"/>
<text text-anchor="start" x="913.5" y="-79.8" font-family="monospace" font-style="italic" font-size="14.00" fill="#95a5a6">regproc</text>
<polygon fill="#ffffff" stroke="none" points="798.5,-45 798.5,-70 908.5,-70 908.5,-45 798.5,-45"/>
<polygon fill="none" stroke="#2c3e50" points="798.5,-45 798.5,-70 908.5,-70 908.5,-45 798.5,-45"/>
<text text-anchor="start" x="803.5" y="-53.8" font-family="monospace" font-size="14.00" fill="#000000">oprrest</text>
<polygon fill="#ffffff" stroke="none" points="908.5,-45 908.5,-70 1009.5,-70 1009.5,-45 908.5,-45"/>
<polygon fill="none" stroke="#2c3e50" points="908.5,-45 908.5,-70 1009.5,-70 1009.5,-45 908.5,-45"/>
<text text-anchor="start" x="913.5" y="-54.8" font-family="monospace" font-style="italic" font-size="14.00" fill="#95a5a6">regproc</text>
<polygon fill="#ffffff" stroke="none" points="798.5,-20 798.5,-45 908.5,-45 908.5,-20 798.5,-20"/>
<polygon fill="none" stroke="#2c3e50" points="798.5,-20 798.5,-45 908.5,-45 908.5,-20 798.5,-20"/>
<text text-anchor="start" x="803.5" y="-28.8" font-family="monospace" font-size="14.00" fill="#000000">oprjoin</text>
<polygon fill="#ffffff" stroke="none" points="908.5,-20 908.5,-45 1009.5,-45 1009.5,-20 908.5,-20"/>
<polygon fill="none" stroke="#2c3e50" points="908.5,-20 908.5,-45 1009.5,-45 1009.5,-20 908.5,-20"/>
<text text-anchor="start" x="913.5" y="-29.8" font-family="monospace" font-style="italic" font-size="14.00" fill="#95a5a6">regproc</text>
</a>
</g>
</g>
<!-- pg_statistic&#45;&gt;pg_operator -->
<g id="edge2" class="edge"><title>pg_statistic:staop1_out&#45;&gt;pg_operator:oid_in</title>
<path fill="none" stroke="#2c3e50" d="M384,-509C565.735,-509 610.679,-459.875 787.338,-458.052"/>
<polygon fill="#2c3e50" stroke="#2c3e50" points="787.518,-461.551 797.5,-458 787.482,-454.551 787.518,-461.551"/>
</g>
<!-- pg_statistic&#45;&gt;pg_operator -->
<g id="edge3" class="edge"><title>pg_statistic:staop2_out&#45;&gt;pg_operator:oid_in</title>
<path fill="none" stroke="#2c3e50" d="M384,-483C564.697,-483 611.659,-458.919 787.393,-458.026"/>
<polygon fill="#2c3e50" stroke="#2c3e50" points="787.509,-461.525 797.5,-458 787.491,-454.525 787.509,-461.525"/>
</g>
<!-- pg_statistic&#45;&gt;pg_operator -->
<g id="edge4" class="edge"><title>pg_statistic:staop3_out&#45;&gt;pg_operator:oid_in</title>
<path fill="none" stroke="#2c3e50" d="M384,-458C564.368,-458 611.97,-458 787.411,-458"/>
<polygon fill="#2c3e50" stroke="#2c3e50" points="787.5,-461.5 797.5,-458 787.5,-454.5 787.5,-461.5"/>
</g>
<!-- pg_statistic&#45;&gt;pg_operator -->
<g id="edge5" class="edge"><title>pg_statistic:staop4_out&#45;&gt;pg_operator:oid_in</title>
<path fill="none" stroke="#2c3e50" d="M384,-433C564.697,-433 611.659,-457.081 787.393,-457.974"/>
<polygon fill="#2c3e50" stroke="#2c3e50" points="787.491,-461.475 797.5,-458 787.509,-454.475 787.491,-461.475"/>
</g>
</g>
</svg>
