<?xml version="1.0" encoding="UTF-8" standalone="no"?>
<!DOCTYPE svg PUBLIC "-//W3C//DTD SVG 1.1//EN"
 "http://www.w3.org/Graphics/SVG/1.1/DTD/svg11.dtd">
<!-- Generated by graphviz version 2.38.0 (20140413.2041)
 -->
<!-- Title: GPDB Pages: 1 -->
<svg width="1342pt" height="1378pt"
 viewBox="0.00 0.00 1342.00 1378.00" xmlns="http://www.w3.org/2000/svg" xmlns:xlink="http://www.w3.org/1999/xlink">
<g id="graph0" class="graph" transform="scale(1 1) rotate(0) translate(36 1342)">
<title>GPDB</title>
<polygon fill="white" stroke="none" points="-36,36 -36,-1342 1306,-1342 1306,36 -36,36"/>
<text text-anchor="middle" x="635" y="-1276.4" font-family="Helvetica,sans-Serif" font-size="32.00">Greenplum System Catalog: pg_shdepend</text>
<g id="clust2" class="cluster"><title>cluster_selected</title>
</g>
<g id="clust3" class="cluster"><title>cluster_to</title>
</g>
<!-- pg_shdepend -->
<g id="node1" class="node"><title>pg_shdepend</title>
<polygon fill="#2c3e50" stroke="none" points="215,-871 215,-901 409,-901 409,-871 215,-871"/>
<polygon fill="none" stroke="black" points="215,-871 215,-901 409,-901 409,-871 215,-871"/>
<text text-anchor="start" x="254" y="-882.6" font-family="monospace" font-weight="bold" font-size="18.00" fill="#ffffff">pg_shdepend</text>
<polygon fill="#ffffff" stroke="none" points="215,-846 215,-871 308,-871 308,-846 215,-846"/>
<polygon fill="none" stroke="#2c3e50" points="215,-846 215,-871 308,-871 308,-846 215,-846"/>
<text text-anchor="start" x="220" y="-854.8" font-family="monospace" font-size="14.00" fill="#000000">dbid</text>
<polygon fill="#18bc9c" stroke="none" points="308,-846 308,-871 409,-871 409,-846 308,-846"/>
<polygon fill="none" stroke="#2c3e50" points="308,-846 308,-871 409,-871 409,-846 308,-846"/>
<text text-anchor="start" x="313" y="-855.8" font-family="monospace" font-style="italic" font-size="14.00" fill="#ffffff">oid</text>
<polygon fill="#ffffff" stroke="none" points="215,-821 215,-846 308,-846 308,-821 215,-821"/>
<polygon fill="none" stroke="#2c3e50" points="215,-821 215,-846 308,-846 308,-821 215,-821"/>
<text text-anchor="start" x="220" y="-829.8" font-family="monospace" font-size="14.00" fill="#000000">classid</text>
<polygon fill="#18bc9c" stroke="none" points="308,-821 308,-846 409,-846 409,-821 308,-821"/>
<polygon fill="none" stroke="#2c3e50" points="308,-821 308,-846 409,-846 409,-821 308,-821"/>
<text text-anchor="start" x="313" y="-830.8" font-family="monospace" font-style="italic" font-size="14.00" fill="#ffffff">oid</text>
<polygon fill="#ffffff" stroke="none" points="215,-796 215,-821 308,-821 308,-796 215,-796"/>
<polygon fill="none" stroke="#2c3e50" points="215,-796 215,-821 308,-821 308,-796 215,-796"/>
<text text-anchor="start" x="220" y="-804.8" font-family="monospace" font-size="14.00" fill="#000000">objid</text>
<polygon fill="#ffffff" stroke="none" points="308,-796 308,-821 409,-821 409,-796 308,-796"/>
<polygon fill="none" stroke="#2c3e50" points="308,-796 308,-821 409,-821 409,-796 308,-796"/>
<text text-anchor="start" x="313" y="-805.8" font-family="monospace" font-style="italic" font-size="14.00" fill="#95a5a6">oid</text>
<polygon fill="#ffffff" stroke="none" points="215,-771 215,-796 308,-796 308,-771 215,-771"/>
<polygon fill="none" stroke="#2c3e50" points="215,-771 215,-796 308,-796 308,-771 215,-771"/>
<text text-anchor="start" x="220" y="-779.8" font-family="monospace" font-size="14.00" fill="#000000">refclassid</text>
<polygon fill="#18bc9c" stroke="none" points="308,-771 308,-796 409,-796 409,-771 308,-771"/>
<polygon fill="none" stroke="#2c3e50" points="308,-771 308,-796 409,-796 409,-771 308,-771"/>
<text text-anchor="start" x="313" y="-780.8" font-family="monospace" font-style="italic" font-size="14.00" fill="#ffffff">oid</text>
<polygon fill="#ffffff" stroke="none" points="215,-746 215,-771 308,-771 308,-746 215,-746"/>
<polygon fill="none" stroke="#2c3e50" points="215,-746 215,-771 308,-771 308,-746 215,-746"/>
<text text-anchor="start" x="220" y="-754.8" font-family="monospace" font-size="14.00" fill="#000000">refobjid</text>
<polygon fill="#ffffff" stroke="none" points="308,-746 308,-771 409,-771 409,-746 308,-746"/>
<polygon fill="none" stroke="#2c3e50" points="308,-746 308,-771 409,-771 409,-746 308,-746"/>
<text text-anchor="start" x="313" y="-755.8" font-family="monospace" font-style="italic" font-size="14.00" fill="#95a5a6">oid</text>
<polygon fill="#ffffff" stroke="none" points="215,-721 215,-746 308,-746 308,-721 215,-721"/>
<polygon fill="none" stroke="#2c3e50" points="215,-721 215,-746 308,-746 308,-721 215,-721"/>
<text text-anchor="start" x="220" y="-729.8" font-family="monospace" font-size="14.00" fill="#000000">deptype</text>
<polygon fill="#ffffff" stroke="none" points="308,-721 308,-746 409,-746 409,-721 308,-721"/>
<polygon fill="none" stroke="#2c3e50" points="308,-721 308,-746 409,-746 409,-721 308,-721"/>
<text text-anchor="start" x="313" y="-730.8" font-family="monospace" font-style="italic" font-size="14.00" fill="#95a5a6">quoted_char</text>
</g>
<!-- pg_database -->
<g id="node2" class="node"><title>pg_database</title>
<polygon fill="#2c3e50" stroke="none" points="856.5,-1170 856.5,-1200 1059.5,-1200 1059.5,-1170 856.5,-1170"/>
<polygon fill="none" stroke="black" points="856.5,-1170 856.5,-1200 1059.5,-1200 1059.5,-1170 856.5,-1170"/>
<text text-anchor="start" x="900" y="-1181.6" font-family="monospace" font-weight="bold" font-size="18.00" fill="#ffffff">pg_database</text>
<polygon fill="#18bc9c" stroke="none" points="856.5,-1145 856.5,-1170 974.5,-1170 974.5,-1145 856.5,-1145"/>
<polygon fill="none" stroke="#2c3e50" points="856.5,-1145 856.5,-1170 974.5,-1170 974.5,-1145 856.5,-1145"/>
<text text-anchor="start" x="861.5" y="-1153.8" font-family="monospace" font-size="14.00" fill="#ffffff">oid</text>
<polygon fill="#ffffff" stroke="none" points="974.5,-1145 974.5,-1170 1059.5,-1170 1059.5,-1145 974.5,-1145"/>
<polygon fill="none" stroke="#2c3e50" points="974.5,-1145 974.5,-1170 1059.5,-1170 1059.5,-1145 974.5,-1145"/>
<text text-anchor="start" x="979.5" y="-1154.8" font-family="monospace" font-style="italic" font-size="14.00" fill="#95a5a6">oid</text>
<polygon fill="#ffffff" stroke="none" points="856.5,-1120 856.5,-1145 974.5,-1145 974.5,-1120 856.5,-1120"/>
<polygon fill="none" stroke="#2c3e50" points="856.5,-1120 856.5,-1145 974.5,-1145 974.5,-1120 856.5,-1120"/>
<text text-anchor="start" x="861.5" y="-1128.8" font-family="monospace" font-size="14.00" fill="#000000">datname</text>
<polygon fill="#ffffff" stroke="none" points="974.5,-1120 974.5,-1145 1059.5,-1145 1059.5,-1120 974.5,-1120"/>
<polygon fill="none" stroke="#2c3e50" points="974.5,-1120 974.5,-1145 1059.5,-1145 1059.5,-1120 974.5,-1120"/>
<text text-anchor="start" x="979.5" y="-1129.8" font-family="monospace" font-style="italic" font-size="14.00" fill="#95a5a6">name</text>
<polygon fill="#ffffff" stroke="none" points="856.5,-1095 856.5,-1120 974.5,-1120 974.5,-1095 856.5,-1095"/>
<polygon fill="none" stroke="#2c3e50" points="856.5,-1095 856.5,-1120 974.5,-1120 974.5,-1095 856.5,-1095"/>
<text text-anchor="start" x="861.5" y="-1103.8" font-family="monospace" font-size="14.00" fill="#000000">datdba</text>
<polygon fill="#ffffff" stroke="none" points="974.5,-1095 974.5,-1120 1059.5,-1120 1059.5,-1095 974.5,-1095"/>
<polygon fill="none" stroke="#2c3e50" points="974.5,-1095 974.5,-1120 1059.5,-1120 1059.5,-1095 974.5,-1095"/>
<text text-anchor="start" x="979.5" y="-1104.8" font-family="monospace" font-style="italic" font-size="14.00" fill="#95a5a6">oid</text>
<polygon fill="#ffffff" stroke="none" points="856.5,-1070 856.5,-1095 974.5,-1095 974.5,-1070 856.5,-1070"/>
<polygon fill="none" stroke="#2c3e50" points="856.5,-1070 856.5,-1095 974.5,-1095 974.5,-1070 856.5,-1070"/>
<text text-anchor="start" x="861.5" y="-1078.8" font-family="monospace" font-size="14.00" fill="#000000">encoding</text>
<polygon fill="#ffffff" stroke="none" points="974.5,-1070 974.5,-1095 1059.5,-1095 1059.5,-1070 974.5,-1070"/>
<polygon fill="none" stroke="#2c3e50" points="974.5,-1070 974.5,-1095 1059.5,-1095 1059.5,-1070 974.5,-1070"/>
<text text-anchor="start" x="979.5" y="-1079.8" font-family="monospace" font-style="italic" font-size="14.00" fill="#95a5a6">integer</text>
<polygon fill="#ffffff" stroke="none" points="856.5,-1045 856.5,-1070 974.5,-1070 974.5,-1045 856.5,-1045"/>
<polygon fill="none" stroke="#2c3e50" points="856.5,-1045 856.5,-1070 974.5,-1070 974.5,-1045 856.5,-1045"/>
<text text-anchor="start" x="861.5" y="-1053.8" font-family="monospace" font-size="14.00" fill="#000000">datistemplate</text>
<polygon fill="#ffffff" stroke="none" points="974.5,-1045 974.5,-1070 1059.5,-1070 1059.5,-1045 974.5,-1045"/>
<polygon fill="none" stroke="#2c3e50" points="974.5,-1045 974.5,-1070 1059.5,-1070 1059.5,-1045 974.5,-1045"/>
<text text-anchor="start" x="979.5" y="-1054.8" font-family="monospace" font-style="italic" font-size="14.00" fill="#95a5a6">boolean</text>
<polygon fill="#ffffff" stroke="none" points="856.5,-1020 856.5,-1045 974.5,-1045 974.5,-1020 856.5,-1020"/>
<polygon fill="none" stroke="#2c3e50" points="856.5,-1020 856.5,-1045 974.5,-1045 974.5,-1020 856.5,-1020"/>
<text text-anchor="start" x="861.5" y="-1028.8" font-family="monospace" font-size="14.00" fill="#000000">datallowconn</text>
<polygon fill="#ffffff" stroke="none" points="974.5,-1020 974.5,-1045 1059.5,-1045 1059.5,-1020 974.5,-1020"/>
<polygon fill="none" stroke="#2c3e50" points="974.5,-1020 974.5,-1045 1059.5,-1045 1059.5,-1020 974.5,-1020"/>
<text text-anchor="start" x="979.5" y="-1029.8" font-family="monospace" font-style="italic" font-size="14.00" fill="#95a5a6">boolean</text>
<polygon fill="#ffffff" stroke="none" points="856.5,-995 856.5,-1020 974.5,-1020 974.5,-995 856.5,-995"/>
<polygon fill="none" stroke="#2c3e50" points="856.5,-995 856.5,-1020 974.5,-1020 974.5,-995 856.5,-995"/>
<text text-anchor="start" x="861.5" y="-1003.8" font-family="monospace" font-size="14.00" fill="#000000">datconnlimit</text>
<polygon fill="#ffffff" stroke="none" points="974.5,-995 974.5,-1020 1059.5,-1020 1059.5,-995 974.5,-995"/>
<polygon fill="none" stroke="#2c3e50" points="974.5,-995 974.5,-1020 1059.5,-1020 1059.5,-995 974.5,-995"/>
<text text-anchor="start" x="979.5" y="-1004.8" font-family="monospace" font-style="italic" font-size="14.00" fill="#95a5a6">integer</text>
<polygon fill="#ffffff" stroke="none" points="856.5,-970 856.5,-995 974.5,-995 974.5,-970 856.5,-970"/>
<polygon fill="none" stroke="#2c3e50" points="856.5,-970 856.5,-995 974.5,-995 974.5,-970 856.5,-970"/>
<text text-anchor="start" x="861.5" y="-978.8" font-family="monospace" font-size="14.00" fill="#000000">datlastsysoid</text>
<polygon fill="#ffffff" stroke="none" points="974.5,-970 974.5,-995 1059.5,-995 1059.5,-970 974.5,-970"/>
<polygon fill="none" stroke="#2c3e50" points="974.5,-970 974.5,-995 1059.5,-995 1059.5,-970 974.5,-970"/>
<text text-anchor="start" x="979.5" y="-979.8" font-family="monospace" font-style="italic" font-size="14.00" fill="#95a5a6">oid</text>
<polygon fill="#ffffff" stroke="none" points="856.5,-945 856.5,-970 974.5,-970 974.5,-945 856.5,-945"/>
<polygon fill="none" stroke="#2c3e50" points="856.5,-945 856.5,-970 974.5,-970 974.5,-945 856.5,-945"/>
<text text-anchor="start" x="861.5" y="-953.8" font-family="monospace" font-size="14.00" fill="#000000">datfrozenxid</text>
<polygon fill="#ffffff" stroke="none" points="974.5,-945 974.5,-970 1059.5,-970 1059.5,-945 974.5,-945"/>
<polygon fill="none" stroke="#2c3e50" points="974.5,-945 974.5,-970 1059.5,-970 1059.5,-945 974.5,-945"/>
<text text-anchor="start" x="979.5" y="-954.8" font-family="monospace" font-style="italic" font-size="14.00" fill="#95a5a6">xid</text>
<polygon fill="#ffffff" stroke="none" points="856.5,-920 856.5,-945 974.5,-945 974.5,-920 856.5,-920"/>
<polygon fill="none" stroke="#2c3e50" points="856.5,-920 856.5,-945 974.5,-945 974.5,-920 856.5,-920"/>
<text text-anchor="start" x="861.5" y="-928.8" font-family="monospace" font-size="14.00" fill="#000000">dattablespace</text>
<polygon fill="#ffffff" stroke="none" points="974.5,-920 974.5,-945 1059.5,-945 1059.5,-920 974.5,-920"/>
<polygon fill="none" stroke="#2c3e50" points="974.5,-920 974.5,-945 1059.5,-945 1059.5,-920 974.5,-920"/>
<text text-anchor="start" x="979.5" y="-929.8" font-family="monospace" font-style="italic" font-size="14.00" fill="#95a5a6">oid</text>
<polygon fill="#ffffff" stroke="none" points="856.5,-895 856.5,-920 974.5,-920 974.5,-895 856.5,-895"/>
<polygon fill="none" stroke="#2c3e50" points="856.5,-895 856.5,-920 974.5,-920 974.5,-895 856.5,-895"/>
<text text-anchor="start" x="861.5" y="-903.8" font-family="monospace" font-size="14.00" fill="#000000">datconfig</text>
<polygon fill="#ffffff" stroke="none" points="974.5,-895 974.5,-920 1059.5,-920 1059.5,-895 974.5,-895"/>
<polygon fill="none" stroke="#2c3e50" points="974.5,-895 974.5,-920 1059.5,-920 1059.5,-895 974.5,-895"/>
<text text-anchor="start" x="979.5" y="-904.8" font-family="monospace" font-style="italic" font-size="14.00" fill="#95a5a6">text[]</text>
<polygon fill="#ffffff" stroke="none" points="856.5,-870 856.5,-895 974.5,-895 974.5,-870 856.5,-870"/>
<polygon fill="none" stroke="#2c3e50" points="856.5,-870 856.5,-895 974.5,-895 974.5,-870 856.5,-870"/>
<text text-anchor="start" x="861.5" y="-878.8" font-family="monospace" font-size="14.00" fill="#000000">datacl</text>
<polygon fill="#ffffff" stroke="none" points="974.5,-870 974.5,-895 1059.5,-895 1059.5,-870 974.5,-870"/>
<polygon fill="none" stroke="#2c3e50" points="974.5,-870 974.5,-895 1059.5,-895 1059.5,-870 974.5,-870"/>
<text text-anchor="start" x="979.5" y="-879.8" font-family="monospace" font-style="italic" font-size="14.00" fill="#95a5a6">aclitem[]</text>
</g>
<!-- pg_shdepend&#45;&gt;pg_database -->
<g id="edge1" class="edge"><title>pg_shdepend:dbid_out&#45;&gt;pg_database:oid_in</title>
<path fill="none" stroke="#2c3e50" d="M410,-859C644.968,-859 617.902,-1149.3 845.193,-1157.81"/>
<polygon fill="#2c3e50" stroke="#2c3e50" points="845.437,-1161.31 855.5,-1158 845.566,-1154.32 845.437,-1161.31"/>
</g>
<!-- pg_class -->
<g id="node3" class="node"><title>pg_class</title>
<polygon fill="#2c3e50" stroke="none" points="844.5,-795 844.5,-825 1071.5,-825 1071.5,-795 844.5,-795"/>
<polygon fill="none" stroke="black" points="844.5,-795 844.5,-825 1071.5,-825 1071.5,-795 844.5,-795"/>
<text text-anchor="start" x="915.5" y="-806.6" font-family="monospace" font-weight="bold" font-size="18.00" fill="#ffffff">pg_class</text>
<polygon fill="#18bc9c" stroke="none" points="844.5,-770 844.5,-795 970.5,-795 970.5,-770 844.5,-770"/>
<polygon fill="none" stroke="#2c3e50" points="844.5,-770 844.5,-795 970.5,-795 970.5,-770 844.5,-770"/>
<text text-anchor="start" x="849.5" y="-778.8" font-family="monospace" font-size="14.00" fill="#ffffff">oid</text>
<polygon fill="#ffffff" stroke="none" points="970.5,-770 970.5,-795 1071.5,-795 1071.5,-770 970.5,-770"/>
<polygon fill="none" stroke="#2c3e50" points="970.5,-770 970.5,-795 1071.5,-795 1071.5,-770 970.5,-770"/>
<text text-anchor="start" x="975.5" y="-779.8" font-family="monospace" font-style="italic" font-size="14.00" fill="#95a5a6">oid</text>
<polygon fill="#ffffff" stroke="none" points="844.5,-745 844.5,-770 970.5,-770 970.5,-745 844.5,-745"/>
<polygon fill="none" stroke="#2c3e50" points="844.5,-745 844.5,-770 970.5,-770 970.5,-745 844.5,-745"/>
<text text-anchor="start" x="849.5" y="-753.8" font-family="monospace" font-size="14.00" fill="#000000">relname</text>
<polygon fill="#ffffff" stroke="none" points="970.5,-745 970.5,-770 1071.5,-770 1071.5,-745 970.5,-745"/>
<polygon fill="none" stroke="#2c3e50" points="970.5,-745 970.5,-770 1071.5,-770 1071.5,-745 970.5,-745"/>
<text text-anchor="start" x="975.5" y="-754.8" font-family="monospace" font-style="italic" font-size="14.00" fill="#95a5a6">name</text>
<polygon fill="#ffffff" stroke="none" points="844.5,-720 844.5,-745 970.5,-745 970.5,-720 844.5,-720"/>
<polygon fill="none" stroke="#2c3e50" points="844.5,-720 844.5,-745 970.5,-745 970.5,-720 844.5,-720"/>
<text text-anchor="start" x="849.5" y="-728.8" font-family="monospace" font-size="14.00" fill="#000000">relnamespace</text>
<polygon fill="#ffffff" stroke="none" points="970.5,-720 970.5,-745 1071.5,-745 1071.5,-720 970.5,-720"/>
<polygon fill="none" stroke="#2c3e50" points="970.5,-720 970.5,-745 1071.5,-745 1071.5,-720 970.5,-720"/>
<text text-anchor="start" x="975.5" y="-729.8" font-family="monospace" font-style="italic" font-size="14.00" fill="#95a5a6">oid</text>
<polygon fill="#ffffff" stroke="none" points="844.5,-695 844.5,-720 970.5,-720 970.5,-695 844.5,-695"/>
<polygon fill="none" stroke="#2c3e50" points="844.5,-695 844.5,-720 970.5,-720 970.5,-695 844.5,-695"/>
<text text-anchor="start" x="849.5" y="-703.8" font-family="monospace" font-size="14.00" fill="#000000">reltype</text>
<polygon fill="#ffffff" stroke="none" points="970.5,-695 970.5,-720 1071.5,-720 1071.5,-695 970.5,-695"/>
<polygon fill="none" stroke="#2c3e50" points="970.5,-695 970.5,-720 1071.5,-720 1071.5,-695 970.5,-695"/>
<text text-anchor="start" x="975.5" y="-704.8" font-family="monospace" font-style="italic" font-size="14.00" fill="#95a5a6">oid</text>
<polygon fill="#ffffff" stroke="none" points="844.5,-670 844.5,-695 970.5,-695 970.5,-670 844.5,-670"/>
<polygon fill="none" stroke="#2c3e50" points="844.5,-670 844.5,-695 970.5,-695 970.5,-670 844.5,-670"/>
<text text-anchor="start" x="849.5" y="-678.8" font-family="monospace" font-size="14.00" fill="#000000">relowner</text>
<polygon fill="#ffffff" stroke="none" points="970.5,-670 970.5,-695 1071.5,-695 1071.5,-670 970.5,-670"/>
<polygon fill="none" stroke="#2c3e50" points="970.5,-670 970.5,-695 1071.5,-695 1071.5,-670 970.5,-670"/>
<text text-anchor="start" x="975.5" y="-679.8" font-family="monospace" font-style="italic" font-size="14.00" fill="#95a5a6">oid</text>
<polygon fill="#ffffff" stroke="none" points="844.5,-645 844.5,-670 970.5,-670 970.5,-645 844.5,-645"/>
<polygon fill="none" stroke="#2c3e50" points="844.5,-645 844.5,-670 970.5,-670 970.5,-645 844.5,-645"/>
<text text-anchor="start" x="849.5" y="-653.8" font-family="monospace" font-size="14.00" fill="#000000">relam</text>
<polygon fill="#ffffff" stroke="none" points="970.5,-645 970.5,-670 1071.5,-670 1071.5,-645 970.5,-645"/>
<polygon fill="none" stroke="#2c3e50" points="970.5,-645 970.5,-670 1071.5,-670 1071.5,-645 970.5,-645"/>
<text text-anchor="start" x="975.5" y="-654.8" font-family="monospace" font-style="italic" font-size="14.00" fill="#95a5a6">oid</text>
<polygon fill="#ffffff" stroke="none" points="844.5,-620 844.5,-645 970.5,-645 970.5,-620 844.5,-620"/>
<polygon fill="none" stroke="#2c3e50" points="844.5,-620 844.5,-645 970.5,-645 970.5,-620 844.5,-620"/>
<text text-anchor="start" x="849.5" y="-628.8" font-family="monospace" font-size="14.00" fill="#000000">relfilenode</text>
<polygon fill="#ffffff" stroke="none" points="970.5,-620 970.5,-645 1071.5,-645 1071.5,-620 970.5,-620"/>
<polygon fill="none" stroke="#2c3e50" points="970.5,-620 970.5,-645 1071.5,-645 1071.5,-620 970.5,-620"/>
<text text-anchor="start" x="975.5" y="-629.8" font-family="monospace" font-style="italic" font-size="14.00" fill="#95a5a6">oid</text>
<polygon fill="#ffffff" stroke="none" points="844.5,-595 844.5,-620 970.5,-620 970.5,-595 844.5,-595"/>
<polygon fill="none" stroke="#2c3e50" points="844.5,-595 844.5,-620 970.5,-620 970.5,-595 844.5,-595"/>
<text text-anchor="start" x="849.5" y="-603.8" font-family="monospace" font-size="14.00" fill="#000000">reltablespace</text>
<polygon fill="#ffffff" stroke="none" points="970.5,-595 970.5,-620 1071.5,-620 1071.5,-595 970.5,-595"/>
<polygon fill="none" stroke="#2c3e50" points="970.5,-595 970.5,-620 1071.5,-620 1071.5,-595 970.5,-595"/>
<text text-anchor="start" x="975.5" y="-604.8" font-family="monospace" font-style="italic" font-size="14.00" fill="#95a5a6">oid</text>
<polygon fill="#ffffff" stroke="none" points="844.5,-570 844.5,-595 970.5,-595 970.5,-570 844.5,-570"/>
<polygon fill="none" stroke="#2c3e50" points="844.5,-570 844.5,-595 970.5,-595 970.5,-570 844.5,-570"/>
<text text-anchor="start" x="849.5" y="-578.8" font-family="monospace" font-size="14.00" fill="#000000">relpages</text>
<polygon fill="#ffffff" stroke="none" points="970.5,-570 970.5,-595 1071.5,-595 1071.5,-570 970.5,-570"/>
<polygon fill="none" stroke="#2c3e50" points="970.5,-570 970.5,-595 1071.5,-595 1071.5,-570 970.5,-570"/>
<text text-anchor="start" x="975.5" y="-579.8" font-family="monospace" font-style="italic" font-size="14.00" fill="#95a5a6">integer</text>
<polygon fill="#ffffff" stroke="none" points="844.5,-545 844.5,-570 970.5,-570 970.5,-545 844.5,-545"/>
<polygon fill="none" stroke="#2c3e50" points="844.5,-545 844.5,-570 970.5,-570 970.5,-545 844.5,-545"/>
<text text-anchor="start" x="849.5" y="-553.8" font-family="monospace" font-size="14.00" fill="#000000">reltuples</text>
<polygon fill="#ffffff" stroke="none" points="970.5,-545 970.5,-570 1071.5,-570 1071.5,-545 970.5,-545"/>
<polygon fill="none" stroke="#2c3e50" points="970.5,-545 970.5,-570 1071.5,-570 1071.5,-545 970.5,-545"/>
<text text-anchor="start" x="975.5" y="-554.8" font-family="monospace" font-style="italic" font-size="14.00" fill="#95a5a6">real</text>
<polygon fill="#ffffff" stroke="none" points="844.5,-520 844.5,-545 970.5,-545 970.5,-520 844.5,-520"/>
<polygon fill="none" stroke="#2c3e50" points="844.5,-520 844.5,-545 970.5,-545 970.5,-520 844.5,-520"/>
<text text-anchor="start" x="849.5" y="-528.8" font-family="monospace" font-size="14.00" fill="#000000">reltoastrelid</text>
<polygon fill="#ffffff" stroke="none" points="970.5,-520 970.5,-545 1071.5,-545 1071.5,-520 970.5,-520"/>
<polygon fill="none" stroke="#2c3e50" points="970.5,-520 970.5,-545 1071.5,-545 1071.5,-520 970.5,-520"/>
<text text-anchor="start" x="975.5" y="-529.8" font-family="monospace" font-style="italic" font-size="14.00" fill="#95a5a6">oid</text>
<polygon fill="#ffffff" stroke="none" points="844.5,-495 844.5,-520 970.5,-520 970.5,-495 844.5,-495"/>
<polygon fill="none" stroke="#2c3e50" points="844.5,-495 844.5,-520 970.5,-520 970.5,-495 844.5,-495"/>
<text text-anchor="start" x="849.5" y="-503.8" font-family="monospace" font-size="14.00" fill="#000000">reltoastidxid</text>
<polygon fill="#ffffff" stroke="none" points="970.5,-495 970.5,-520 1071.5,-520 1071.5,-495 970.5,-495"/>
<polygon fill="none" stroke="#2c3e50" points="970.5,-495 970.5,-520 1071.5,-520 1071.5,-495 970.5,-495"/>
<text text-anchor="start" x="975.5" y="-504.8" font-family="monospace" font-style="italic" font-size="14.00" fill="#95a5a6">oid</text>
<polygon fill="#ffffff" stroke="none" points="844.5,-470 844.5,-495 970.5,-495 970.5,-470 844.5,-470"/>
<polygon fill="none" stroke="#2c3e50" points="844.5,-470 844.5,-495 970.5,-495 970.5,-470 844.5,-470"/>
<text text-anchor="start" x="849.5" y="-478.8" font-family="monospace" font-size="14.00" fill="#000000">relaosegrelid</text>
<polygon fill="#ffffff" stroke="none" points="970.5,-470 970.5,-495 1071.5,-495 1071.5,-470 970.5,-470"/>
<polygon fill="none" stroke="#2c3e50" points="970.5,-470 970.5,-495 1071.5,-495 1071.5,-470 970.5,-470"/>
<text text-anchor="start" x="975.5" y="-479.8" font-family="monospace" font-style="italic" font-size="14.00" fill="#95a5a6">oid</text>
<polygon fill="#ffffff" stroke="none" points="844.5,-445 844.5,-470 970.5,-470 970.5,-445 844.5,-445"/>
<polygon fill="none" stroke="#2c3e50" points="844.5,-445 844.5,-470 970.5,-470 970.5,-445 844.5,-445"/>
<text text-anchor="start" x="849.5" y="-453.8" font-family="monospace" font-size="14.00" fill="#000000">relaosegidxid</text>
<polygon fill="#ffffff" stroke="none" points="970.5,-445 970.5,-470 1071.5,-470 1071.5,-445 970.5,-445"/>
<polygon fill="none" stroke="#2c3e50" points="970.5,-445 970.5,-470 1071.5,-470 1071.5,-445 970.5,-445"/>
<text text-anchor="start" x="975.5" y="-454.8" font-family="monospace" font-style="italic" font-size="14.00" fill="#95a5a6">oid</text>
<polygon fill="#ffffff" stroke="none" points="844.5,-420 844.5,-445 970.5,-445 970.5,-420 844.5,-420"/>
<polygon fill="none" stroke="#2c3e50" points="844.5,-420 844.5,-445 970.5,-445 970.5,-420 844.5,-420"/>
<text text-anchor="start" x="849.5" y="-428.8" font-family="monospace" font-size="14.00" fill="#000000">relhasindex</text>
<polygon fill="#ffffff" stroke="none" points="970.5,-420 970.5,-445 1071.5,-445 1071.5,-420 970.5,-420"/>
<polygon fill="none" stroke="#2c3e50" points="970.5,-420 970.5,-445 1071.5,-445 1071.5,-420 970.5,-420"/>
<text text-anchor="start" x="975.5" y="-429.8" font-family="monospace" font-style="italic" font-size="14.00" fill="#95a5a6">boolean</text>
<polygon fill="#ffffff" stroke="none" points="844.5,-395 844.5,-420 970.5,-420 970.5,-395 844.5,-395"/>
<polygon fill="none" stroke="#2c3e50" points="844.5,-395 844.5,-420 970.5,-420 970.5,-395 844.5,-395"/>
<text text-anchor="start" x="849.5" y="-403.8" font-family="monospace" font-size="14.00" fill="#000000">relisshared</text>
<polygon fill="#ffffff" stroke="none" points="970.5,-395 970.5,-420 1071.5,-420 1071.5,-395 970.5,-395"/>
<polygon fill="none" stroke="#2c3e50" points="970.5,-395 970.5,-420 1071.5,-420 1071.5,-395 970.5,-395"/>
<text text-anchor="start" x="975.5" y="-404.8" font-family="monospace" font-style="italic" font-size="14.00" fill="#95a5a6">boolean</text>
<polygon fill="#ffffff" stroke="none" points="844.5,-370 844.5,-395 970.5,-395 970.5,-370 844.5,-370"/>
<polygon fill="none" stroke="#2c3e50" points="844.5,-370 844.5,-395 970.5,-395 970.5,-370 844.5,-370"/>
<text text-anchor="start" x="849.5" y="-378.8" font-family="monospace" font-size="14.00" fill="#000000">relkind</text>
<polygon fill="#ffffff" stroke="none" points="970.5,-370 970.5,-395 1071.5,-395 1071.5,-370 970.5,-370"/>
<polygon fill="none" stroke="#2c3e50" points="970.5,-370 970.5,-395 1071.5,-395 1071.5,-370 970.5,-370"/>
<text text-anchor="start" x="975.5" y="-379.8" font-family="monospace" font-style="italic" font-size="14.00" fill="#95a5a6">quoted_char</text>
<polygon fill="#ffffff" stroke="none" points="844.5,-345 844.5,-370 970.5,-370 970.5,-345 844.5,-345"/>
<polygon fill="none" stroke="#2c3e50" points="844.5,-345 844.5,-370 970.5,-370 970.5,-345 844.5,-345"/>
<text text-anchor="start" x="849.5" y="-353.8" font-family="monospace" font-size="14.00" fill="#000000">relstorage</text>
<polygon fill="#ffffff" stroke="none" points="970.5,-345 970.5,-370 1071.5,-370 1071.5,-345 970.5,-345"/>
<polygon fill="none" stroke="#2c3e50" points="970.5,-345 970.5,-370 1071.5,-370 1071.5,-345 970.5,-345"/>
<text text-anchor="start" x="975.5" y="-354.8" font-family="monospace" font-style="italic" font-size="14.00" fill="#95a5a6">quoted_char</text>
<polygon fill="#ffffff" stroke="none" points="844.5,-320 844.5,-345 970.5,-345 970.5,-320 844.5,-320"/>
<polygon fill="none" stroke="#2c3e50" points="844.5,-320 844.5,-345 970.5,-345 970.5,-320 844.5,-320"/>
<text text-anchor="start" x="849.5" y="-328.8" font-family="monospace" font-size="14.00" fill="#000000">relnatts</text>
<polygon fill="#ffffff" stroke="none" points="970.5,-320 970.5,-345 1071.5,-345 1071.5,-320 970.5,-320"/>
<polygon fill="none" stroke="#2c3e50" points="970.5,-320 970.5,-345 1071.5,-345 1071.5,-320 970.5,-320"/>
<text text-anchor="start" x="975.5" y="-329.8" font-family="monospace" font-style="italic" font-size="14.00" fill="#95a5a6">smallint</text>
<polygon fill="#ffffff" stroke="none" points="844.5,-295 844.5,-320 970.5,-320 970.5,-295 844.5,-295"/>
<polygon fill="none" stroke="#2c3e50" points="844.5,-295 844.5,-320 970.5,-320 970.5,-295 844.5,-295"/>
<text text-anchor="start" x="849.5" y="-303.8" font-family="monospace" font-size="14.00" fill="#000000">relchecks</text>
<polygon fill="#ffffff" stroke="none" points="970.5,-295 970.5,-320 1071.5,-320 1071.5,-295 970.5,-295"/>
<polygon fill="none" stroke="#2c3e50" points="970.5,-295 970.5,-320 1071.5,-320 1071.5,-295 970.5,-295"/>
<text text-anchor="start" x="975.5" y="-304.8" font-family="monospace" font-style="italic" font-size="14.00" fill="#95a5a6">smallint</text>
<polygon fill="#ffffff" stroke="none" points="844.5,-270 844.5,-295 970.5,-295 970.5,-270 844.5,-270"/>
<polygon fill="none" stroke="#2c3e50" points="844.5,-270 844.5,-295 970.5,-295 970.5,-270 844.5,-270"/>
<text text-anchor="start" x="849.5" y="-278.8" font-family="monospace" font-size="14.00" fill="#000000">reltriggers</text>
<polygon fill="#ffffff" stroke="none" points="970.5,-270 970.5,-295 1071.5,-295 1071.5,-270 970.5,-270"/>
<polygon fill="none" stroke="#2c3e50" points="970.5,-270 970.5,-295 1071.5,-295 1071.5,-270 970.5,-270"/>
<text text-anchor="start" x="975.5" y="-279.8" font-family="monospace" font-style="italic" font-size="14.00" fill="#95a5a6">smallint</text>
<polygon fill="#ffffff" stroke="none" points="844.5,-245 844.5,-270 970.5,-270 970.5,-245 844.5,-245"/>
<polygon fill="none" stroke="#2c3e50" points="844.5,-245 844.5,-270 970.5,-270 970.5,-245 844.5,-245"/>
<text text-anchor="start" x="849.5" y="-253.8" font-family="monospace" font-size="14.00" fill="#000000">relukeys</text>
<polygon fill="#ffffff" stroke="none" points="970.5,-245 970.5,-270 1071.5,-270 1071.5,-245 970.5,-245"/>
<polygon fill="none" stroke="#2c3e50" points="970.5,-245 970.5,-270 1071.5,-270 1071.5,-245 970.5,-245"/>
<text text-anchor="start" x="975.5" y="-254.8" font-family="monospace" font-style="italic" font-size="14.00" fill="#95a5a6">smallint</text>
<polygon fill="#ffffff" stroke="none" points="844.5,-220 844.5,-245 970.5,-245 970.5,-220 844.5,-220"/>
<polygon fill="none" stroke="#2c3e50" points="844.5,-220 844.5,-245 970.5,-245 970.5,-220 844.5,-220"/>
<text text-anchor="start" x="849.5" y="-228.8" font-family="monospace" font-size="14.00" fill="#000000">relfkeys</text>
<polygon fill="#ffffff" stroke="none" points="970.5,-220 970.5,-245 1071.5,-245 1071.5,-220 970.5,-220"/>
<polygon fill="none" stroke="#2c3e50" points="970.5,-220 970.5,-245 1071.5,-245 1071.5,-220 970.5,-220"/>
<text text-anchor="start" x="975.5" y="-229.8" font-family="monospace" font-style="italic" font-size="14.00" fill="#95a5a6">smallint</text>
<polygon fill="#ffffff" stroke="none" points="844.5,-195 844.5,-220 970.5,-220 970.5,-195 844.5,-195"/>
<polygon fill="none" stroke="#2c3e50" points="844.5,-195 844.5,-220 970.5,-220 970.5,-195 844.5,-195"/>
<text text-anchor="start" x="849.5" y="-203.8" font-family="monospace" font-size="14.00" fill="#000000">relrefs</text>
<polygon fill="#ffffff" stroke="none" points="970.5,-195 970.5,-220 1071.5,-220 1071.5,-195 970.5,-195"/>
<polygon fill="none" stroke="#2c3e50" points="970.5,-195 970.5,-220 1071.5,-220 1071.5,-195 970.5,-195"/>
<text text-anchor="start" x="975.5" y="-204.8" font-family="monospace" font-style="italic" font-size="14.00" fill="#95a5a6">smallint</text>
<polygon fill="#ffffff" stroke="none" points="844.5,-170 844.5,-195 970.5,-195 970.5,-170 844.5,-170"/>
<polygon fill="none" stroke="#2c3e50" points="844.5,-170 844.5,-195 970.5,-195 970.5,-170 844.5,-170"/>
<text text-anchor="start" x="849.5" y="-178.8" font-family="monospace" font-size="14.00" fill="#000000">relhasoids</text>
<polygon fill="#ffffff" stroke="none" points="970.5,-170 970.5,-195 1071.5,-195 1071.5,-170 970.5,-170"/>
<polygon fill="none" stroke="#2c3e50" points="970.5,-170 970.5,-195 1071.5,-195 1071.5,-170 970.5,-170"/>
<text text-anchor="start" x="975.5" y="-179.8" font-family="monospace" font-style="italic" font-size="14.00" fill="#95a5a6">boolean</text>
<polygon fill="#ffffff" stroke="none" points="844.5,-145 844.5,-170 970.5,-170 970.5,-145 844.5,-145"/>
<polygon fill="none" stroke="#2c3e50" points="844.5,-145 844.5,-170 970.5,-170 970.5,-145 844.5,-145"/>
<text text-anchor="start" x="849.5" y="-153.8" font-family="monospace" font-size="14.00" fill="#000000">relhaspkey</text>
<polygon fill="#ffffff" stroke="none" points="970.5,-145 970.5,-170 1071.5,-170 1071.5,-145 970.5,-145"/>
<polygon fill="none" stroke="#2c3e50" points="970.5,-145 970.5,-170 1071.5,-170 1071.5,-145 970.5,-145"/>
<text text-anchor="start" x="975.5" y="-154.8" font-family="monospace" font-style="italic" font-size="14.00" fill="#95a5a6">boolean</text>
<polygon fill="#ffffff" stroke="none" points="844.5,-120 844.5,-145 970.5,-145 970.5,-120 844.5,-120"/>
<polygon fill="none" stroke="#2c3e50" points="844.5,-120 844.5,-145 970.5,-145 970.5,-120 844.5,-120"/>
<text text-anchor="start" x="849.5" y="-128.8" font-family="monospace" font-size="14.00" fill="#000000">relhasrules</text>
<polygon fill="#ffffff" stroke="none" points="970.5,-120 970.5,-145 1071.5,-145 1071.5,-120 970.5,-120"/>
<polygon fill="none" stroke="#2c3e50" points="970.5,-120 970.5,-145 1071.5,-145 1071.5,-120 970.5,-120"/>
<text text-anchor="start" x="975.5" y="-129.8" font-family="monospace" font-style="italic" font-size="14.00" fill="#95a5a6">boolean</text>
<polygon fill="#ffffff" stroke="none" points="844.5,-95 844.5,-120 970.5,-120 970.5,-95 844.5,-95"/>
<polygon fill="none" stroke="#2c3e50" points="844.5,-95 844.5,-120 970.5,-120 970.5,-95 844.5,-95"/>
<text text-anchor="start" x="849.5" y="-103.8" font-family="monospace" font-size="14.00" fill="#000000">relhassubclass</text>
<polygon fill="#ffffff" stroke="none" points="970.5,-95 970.5,-120 1071.5,-120 1071.5,-95 970.5,-95"/>
<polygon fill="none" stroke="#2c3e50" points="970.5,-95 970.5,-120 1071.5,-120 1071.5,-95 970.5,-95"/>
<text text-anchor="start" x="975.5" y="-104.8" font-family="monospace" font-style="italic" font-size="14.00" fill="#95a5a6">boolean</text>
<polygon fill="#ffffff" stroke="none" points="844.5,-70 844.5,-95 970.5,-95 970.5,-70 844.5,-70"/>
<polygon fill="none" stroke="#2c3e50" points="844.5,-70 844.5,-95 970.5,-95 970.5,-70 844.5,-70"/>
<text text-anchor="start" x="849.5" y="-78.8" font-family="monospace" font-size="14.00" fill="#000000">relfrozenxid</text>
<polygon fill="#ffffff" stroke="none" points="970.5,-70 970.5,-95 1071.5,-95 1071.5,-70 970.5,-70"/>
<polygon fill="none" stroke="#2c3e50" points="970.5,-70 970.5,-95 1071.5,-95 1071.5,-70 970.5,-70"/>
<text text-anchor="start" x="975.5" y="-79.8" font-family="monospace" font-style="italic" font-size="14.00" fill="#95a5a6">xid</text>
<polygon fill="#ffffff" stroke="none" points="844.5,-45 844.5,-70 970.5,-70 970.5,-45 844.5,-45"/>
<polygon fill="none" stroke="#2c3e50" points="844.5,-45 844.5,-70 970.5,-70 970.5,-45 844.5,-45"/>
<text text-anchor="start" x="849.5" y="-53.8" font-family="monospace" font-size="14.00" fill="#000000">relacl</text>
<polygon fill="#ffffff" stroke="none" points="970.5,-45 970.5,-70 1071.5,-70 1071.5,-45 970.5,-45"/>
<polygon fill="none" stroke="#2c3e50" points="970.5,-45 970.5,-70 1071.5,-70 1071.5,-45 970.5,-45"/>
<text text-anchor="start" x="975.5" y="-54.8" font-family="monospace" font-style="italic" font-size="14.00" fill="#95a5a6">aclitem[]</text>
<polygon fill="#ffffff" stroke="none" points="844.5,-20 844.5,-45 970.5,-45 970.5,-20 844.5,-20"/>
<polygon fill="none" stroke="#2c3e50" points="844.5,-20 844.5,-45 970.5,-45 970.5,-20 844.5,-20"/>
<text text-anchor="start" x="849.5" y="-28.8" font-family="monospace" font-size="14.00" fill="#000000">reloptions</text>
<polygon fill="#ffffff" stroke="none" points="970.5,-20 970.5,-45 1071.5,-45 1071.5,-20 970.5,-20"/>
<polygon fill="none" stroke="#2c3e50" points="970.5,-20 970.5,-45 1071.5,-45 1071.5,-20 970.5,-20"/>
<text text-anchor="start" x="975.5" y="-29.8" font-family="monospace" font-style="italic" font-size="14.00" fill="#95a5a6">text[]</text>
</g>
<!-- pg_shdepend&#45;&gt;pg_class -->
<g id="edge2" class="edge"><title>pg_shdepend:classid_out&#45;&gt;pg_class:oid_in</title>
<path fill="none" stroke="#2c3e50" d="M410,-834C600.585,-834 647.859,-784.777 833.406,-783.047"/>
<polygon fill="#2c3e50" stroke="#2c3e50" points="833.516,-786.546 843.5,-783 833.484,-779.546 833.516,-786.546"/>
</g>
<!-- pg_shdepend&#45;&gt;pg_class -->
<g id="edge3" class="edge"><title>pg_shdepend:refclassid_out&#45;&gt;pg_class:oid_in</title>
<path fill="none" stroke="#2c3e50" d="M410,-783C599.28,-783 649.095,-783 833.472,-783"/>
<polygon fill="#2c3e50" stroke="#2c3e50" points="833.5,-786.5 843.5,-783 833.5,-779.5 833.5,-786.5"/>
</g>
</g>
</svg>
