<?xml version="1.0" encoding="UTF-8" standalone="no"?>
<!DOCTYPE svg PUBLIC "-//W3C//DTD SVG 1.1//EN"
 "http://www.w3.org/Graphics/SVG/1.1/DTD/svg11.dtd">
<!-- Generated by graphviz version 2.38.0 (20140413.2041)
 -->
<!-- Title: GPDB Pages: 1 -->
<svg width="1602pt" height="1528pt"
 viewBox="0.00 0.00 1602.00 1528.00" xmlns="http://www.w3.org/2000/svg" xmlns:xlink="http://www.w3.org/1999/xlink">
<g id="graph0" class="graph" transform="scale(1 1) rotate(0) translate(36 1492)">
<title>GPDB</title>
<polygon fill="white" stroke="none" points="-36,36 -36,-1492 1566,-1492 1566,36 -36,36"/>
<text text-anchor="middle" x="765" y="-1426.4" font-family="Helvetica,sans-Serif" font-size="32.00">Greenplum System Catalog: pg_stat_last_operation</text>
<g id="clust2" class="cluster"><title>cluster_selected</title>
</g>
<g id="clust3" class="cluster"><title>cluster_to</title>
</g>
<!-- pg_stat_last_operation -->
<g id="node1" class="node"><title>pg_stat_last_operation</title>
<polygon fill="#2c3e50" stroke="none" points="214.5,-932 214.5,-962 541.5,-962 541.5,-932 214.5,-932"/>
<polygon fill="none" stroke="black" points="214.5,-932 214.5,-962 541.5,-962 541.5,-932 214.5,-932"/>
<text text-anchor="start" x="262" y="-943.6" font-family="monospace" font-weight="bold" font-size="18.00" fill="#ffffff">pg_stat_last_operation</text>
<polygon fill="#ffffff" stroke="none" points="214.5,-907 214.5,-932 332.5,-932 332.5,-907 214.5,-907"/>
<polygon fill="none" stroke="#2c3e50" points="214.5,-907 214.5,-932 332.5,-932 332.5,-907 214.5,-907"/>
<text text-anchor="start" x="219.5" y="-915.8" font-family="monospace" font-size="14.00" fill="#000000">classid</text>
<polygon fill="#18bc9c" stroke="none" points="332.5,-907 332.5,-932 541.5,-932 541.5,-907 332.5,-907"/>
<polygon fill="none" stroke="#2c3e50" points="332.5,-907 332.5,-932 541.5,-932 541.5,-907 332.5,-907"/>
<text text-anchor="start" x="337.5" y="-916.8" font-family="monospace" font-style="italic" font-size="14.00" fill="#ffffff">oid</text>
<polygon fill="#ffffff" stroke="none" points="214.5,-882 214.5,-907 332.5,-907 332.5,-882 214.5,-882"/>
<polygon fill="none" stroke="#2c3e50" points="214.5,-882 214.5,-907 332.5,-907 332.5,-882 214.5,-882"/>
<text text-anchor="start" x="219.5" y="-890.8" font-family="monospace" font-size="14.00" fill="#000000">objid</text>
<polygon fill="#ffffff" stroke="none" points="332.5,-882 332.5,-907 541.5,-907 541.5,-882 332.5,-882"/>
<polygon fill="none" stroke="#2c3e50" points="332.5,-882 332.5,-907 541.5,-907 541.5,-882 332.5,-882"/>
<text text-anchor="start" x="337.5" y="-891.8" font-family="monospace" font-style="italic" font-size="14.00" fill="#95a5a6">oid</text>
<polygon fill="#ffffff" stroke="none" points="214.5,-857 214.5,-882 332.5,-882 332.5,-857 214.5,-857"/>
<polygon fill="none" stroke="#2c3e50" points="214.5,-857 214.5,-882 332.5,-882 332.5,-857 214.5,-857"/>
<text text-anchor="start" x="219.5" y="-865.8" font-family="monospace" font-size="14.00" fill="#000000">staactionname</text>
<polygon fill="#ffffff" stroke="none" points="332.5,-857 332.5,-882 541.5,-882 541.5,-857 332.5,-857"/>
<polygon fill="none" stroke="#2c3e50" points="332.5,-857 332.5,-882 541.5,-882 541.5,-857 332.5,-857"/>
<text text-anchor="start" x="337.5" y="-866.8" font-family="monospace" font-style="italic" font-size="14.00" fill="#95a5a6">name</text>
<polygon fill="#ffffff" stroke="none" points="214.5,-832 214.5,-857 332.5,-857 332.5,-832 214.5,-832"/>
<polygon fill="none" stroke="#2c3e50" points="214.5,-832 214.5,-857 332.5,-857 332.5,-832 214.5,-832"/>
<text text-anchor="start" x="219.5" y="-840.8" font-family="monospace" font-size="14.00" fill="#000000">stasysid</text>
<polygon fill="#18bc9c" stroke="none" points="332.5,-832 332.5,-857 541.5,-857 541.5,-832 332.5,-832"/>
<polygon fill="none" stroke="#2c3e50" points="332.5,-832 332.5,-857 541.5,-857 541.5,-832 332.5,-832"/>
<text text-anchor="start" x="337.5" y="-841.8" font-family="monospace" font-style="italic" font-size="14.00" fill="#ffffff">oid</text>
<polygon fill="#ffffff" stroke="none" points="214.5,-807 214.5,-832 332.5,-832 332.5,-807 214.5,-807"/>
<polygon fill="none" stroke="#2c3e50" points="214.5,-807 214.5,-832 332.5,-832 332.5,-807 214.5,-807"/>
<text text-anchor="start" x="219.5" y="-815.8" font-family="monospace" font-size="14.00" fill="#000000">stausename</text>
<polygon fill="#ffffff" stroke="none" points="332.5,-807 332.5,-832 541.5,-832 541.5,-807 332.5,-807"/>
<polygon fill="none" stroke="#2c3e50" points="332.5,-807 332.5,-832 541.5,-832 541.5,-807 332.5,-807"/>
<text text-anchor="start" x="337.5" y="-816.8" font-family="monospace" font-style="italic" font-size="14.00" fill="#95a5a6">name</text>
<polygon fill="#ffffff" stroke="none" points="214.5,-782 214.5,-807 332.5,-807 332.5,-782 214.5,-782"/>
<polygon fill="none" stroke="#2c3e50" points="214.5,-782 214.5,-807 332.5,-807 332.5,-782 214.5,-782"/>
<text text-anchor="start" x="219.5" y="-790.8" font-family="monospace" font-size="14.00" fill="#000000">stasubtype</text>
<polygon fill="#ffffff" stroke="none" points="332.5,-782 332.5,-807 541.5,-807 541.5,-782 332.5,-782"/>
<polygon fill="none" stroke="#2c3e50" points="332.5,-782 332.5,-807 541.5,-807 541.5,-782 332.5,-782"/>
<text text-anchor="start" x="337.5" y="-791.8" font-family="monospace" font-style="italic" font-size="14.00" fill="#95a5a6">text</text>
<polygon fill="#ffffff" stroke="none" points="214.5,-757 214.5,-782 332.5,-782 332.5,-757 214.5,-757"/>
<polygon fill="none" stroke="#2c3e50" points="214.5,-757 214.5,-782 332.5,-782 332.5,-757 214.5,-757"/>
<text text-anchor="start" x="219.5" y="-765.8" font-family="monospace" font-size="14.00" fill="#000000">statime</text>
<polygon fill="#ffffff" stroke="none" points="332.5,-757 332.5,-782 541.5,-782 541.5,-757 332.5,-757"/>
<polygon fill="none" stroke="#2c3e50" points="332.5,-757 332.5,-782 541.5,-782 541.5,-757 332.5,-757"/>
<text text-anchor="start" x="337.5" y="-766.8" font-family="monospace" font-style="italic" font-size="14.00" fill="#95a5a6">timestamp_with_time_zone</text>
</g>
<!-- pg_class -->
<g id="node2" class="node"><title>pg_class</title>
<polygon fill="#2c3e50" stroke="none" points="1039,-1319 1039,-1349 1266,-1349 1266,-1319 1039,-1319"/>
<polygon fill="none" stroke="black" points="1039,-1319 1039,-1349 1266,-1349 1266,-1319 1039,-1319"/>
<text text-anchor="start" x="1110" y="-1330.6" font-family="monospace" font-weight="bold" font-size="18.00" fill="#ffffff">pg_class</text>
<polygon fill="#18bc9c" stroke="none" points="1039,-1294 1039,-1319 1165,-1319 1165,-1294 1039,-1294"/>
<polygon fill="none" stroke="#2c3e50" points="1039,-1294 1039,-1319 1165,-1319 1165,-1294 1039,-1294"/>
<text text-anchor="start" x="1044" y="-1302.8" font-family="monospace" font-size="14.00" fill="#ffffff">oid</text>
<polygon fill="#ffffff" stroke="none" points="1165,-1294 1165,-1319 1266,-1319 1266,-1294 1165,-1294"/>
<polygon fill="none" stroke="#2c3e50" points="1165,-1294 1165,-1319 1266,-1319 1266,-1294 1165,-1294"/>
<text text-anchor="start" x="1170" y="-1303.8" font-family="monospace" font-style="italic" font-size="14.00" fill="#95a5a6">oid</text>
<polygon fill="#ffffff" stroke="none" points="1039,-1269 1039,-1294 1165,-1294 1165,-1269 1039,-1269"/>
<polygon fill="none" stroke="#2c3e50" points="1039,-1269 1039,-1294 1165,-1294 1165,-1269 1039,-1269"/>
<text text-anchor="start" x="1044" y="-1277.8" font-family="monospace" font-size="14.00" fill="#000000">relname</text>
<polygon fill="#ffffff" stroke="none" points="1165,-1269 1165,-1294 1266,-1294 1266,-1269 1165,-1269"/>
<polygon fill="none" stroke="#2c3e50" points="1165,-1269 1165,-1294 1266,-1294 1266,-1269 1165,-1269"/>
<text text-anchor="start" x="1170" y="-1278.8" font-family="monospace" font-style="italic" font-size="14.00" fill="#95a5a6">name</text>
<polygon fill="#ffffff" stroke="none" points="1039,-1244 1039,-1269 1165,-1269 1165,-1244 1039,-1244"/>
<polygon fill="none" stroke="#2c3e50" points="1039,-1244 1039,-1269 1165,-1269 1165,-1244 1039,-1244"/>
<text text-anchor="start" x="1044" y="-1252.8" font-family="monospace" font-size="14.00" fill="#000000">relnamespace</text>
<polygon fill="#ffffff" stroke="none" points="1165,-1244 1165,-1269 1266,-1269 1266,-1244 1165,-1244"/>
<polygon fill="none" stroke="#2c3e50" points="1165,-1244 1165,-1269 1266,-1269 1266,-1244 1165,-1244"/>
<text text-anchor="start" x="1170" y="-1253.8" font-family="monospace" font-style="italic" font-size="14.00" fill="#95a5a6">oid</text>
<polygon fill="#ffffff" stroke="none" points="1039,-1219 1039,-1244 1165,-1244 1165,-1219 1039,-1219"/>
<polygon fill="none" stroke="#2c3e50" points="1039,-1219 1039,-1244 1165,-1244 1165,-1219 1039,-1219"/>
<text text-anchor="start" x="1044" y="-1227.8" font-family="monospace" font-size="14.00" fill="#000000">reltype</text>
<polygon fill="#ffffff" stroke="none" points="1165,-1219 1165,-1244 1266,-1244 1266,-1219 1165,-1219"/>
<polygon fill="none" stroke="#2c3e50" points="1165,-1219 1165,-1244 1266,-1244 1266,-1219 1165,-1219"/>
<text text-anchor="start" x="1170" y="-1228.8" font-family="monospace" font-style="italic" font-size="14.00" fill="#95a5a6">oid</text>
<polygon fill="#ffffff" stroke="none" points="1039,-1194 1039,-1219 1165,-1219 1165,-1194 1039,-1194"/>
<polygon fill="none" stroke="#2c3e50" points="1039,-1194 1039,-1219 1165,-1219 1165,-1194 1039,-1194"/>
<text text-anchor="start" x="1044" y="-1202.8" font-family="monospace" font-size="14.00" fill="#000000">relowner</text>
<polygon fill="#ffffff" stroke="none" points="1165,-1194 1165,-1219 1266,-1219 1266,-1194 1165,-1194"/>
<polygon fill="none" stroke="#2c3e50" points="1165,-1194 1165,-1219 1266,-1219 1266,-1194 1165,-1194"/>
<text text-anchor="start" x="1170" y="-1203.8" font-family="monospace" font-style="italic" font-size="14.00" fill="#95a5a6">oid</text>
<polygon fill="#ffffff" stroke="none" points="1039,-1169 1039,-1194 1165,-1194 1165,-1169 1039,-1169"/>
<polygon fill="none" stroke="#2c3e50" points="1039,-1169 1039,-1194 1165,-1194 1165,-1169 1039,-1169"/>
<text text-anchor="start" x="1044" y="-1177.8" font-family="monospace" font-size="14.00" fill="#000000">relam</text>
<polygon fill="#ffffff" stroke="none" points="1165,-1169 1165,-1194 1266,-1194 1266,-1169 1165,-1169"/>
<polygon fill="none" stroke="#2c3e50" points="1165,-1169 1165,-1194 1266,-1194 1266,-1169 1165,-1169"/>
<text text-anchor="start" x="1170" y="-1178.8" font-family="monospace" font-style="italic" font-size="14.00" fill="#95a5a6">oid</text>
<polygon fill="#ffffff" stroke="none" points="1039,-1144 1039,-1169 1165,-1169 1165,-1144 1039,-1144"/>
<polygon fill="none" stroke="#2c3e50" points="1039,-1144 1039,-1169 1165,-1169 1165,-1144 1039,-1144"/>
<text text-anchor="start" x="1044" y="-1152.8" font-family="monospace" font-size="14.00" fill="#000000">relfilenode</text>
<polygon fill="#ffffff" stroke="none" points="1165,-1144 1165,-1169 1266,-1169 1266,-1144 1165,-1144"/>
<polygon fill="none" stroke="#2c3e50" points="1165,-1144 1165,-1169 1266,-1169 1266,-1144 1165,-1144"/>
<text text-anchor="start" x="1170" y="-1153.8" font-family="monospace" font-style="italic" font-size="14.00" fill="#95a5a6">oid</text>
<polygon fill="#ffffff" stroke="none" points="1039,-1119 1039,-1144 1165,-1144 1165,-1119 1039,-1119"/>
<polygon fill="none" stroke="#2c3e50" points="1039,-1119 1039,-1144 1165,-1144 1165,-1119 1039,-1119"/>
<text text-anchor="start" x="1044" y="-1127.8" font-family="monospace" font-size="14.00" fill="#000000">reltablespace</text>
<polygon fill="#ffffff" stroke="none" points="1165,-1119 1165,-1144 1266,-1144 1266,-1119 1165,-1119"/>
<polygon fill="none" stroke="#2c3e50" points="1165,-1119 1165,-1144 1266,-1144 1266,-1119 1165,-1119"/>
<text text-anchor="start" x="1170" y="-1128.8" font-family="monospace" font-style="italic" font-size="14.00" fill="#95a5a6">oid</text>
<polygon fill="#ffffff" stroke="none" points="1039,-1094 1039,-1119 1165,-1119 1165,-1094 1039,-1094"/>
<polygon fill="none" stroke="#2c3e50" points="1039,-1094 1039,-1119 1165,-1119 1165,-1094 1039,-1094"/>
<text text-anchor="start" x="1044" y="-1102.8" font-family="monospace" font-size="14.00" fill="#000000">relpages</text>
<polygon fill="#ffffff" stroke="none" points="1165,-1094 1165,-1119 1266,-1119 1266,-1094 1165,-1094"/>
<polygon fill="none" stroke="#2c3e50" points="1165,-1094 1165,-1119 1266,-1119 1266,-1094 1165,-1094"/>
<text text-anchor="start" x="1170" y="-1103.8" font-family="monospace" font-style="italic" font-size="14.00" fill="#95a5a6">integer</text>
<polygon fill="#ffffff" stroke="none" points="1039,-1069 1039,-1094 1165,-1094 1165,-1069 1039,-1069"/>
<polygon fill="none" stroke="#2c3e50" points="1039,-1069 1039,-1094 1165,-1094 1165,-1069 1039,-1069"/>
<text text-anchor="start" x="1044" y="-1077.8" font-family="monospace" font-size="14.00" fill="#000000">reltuples</text>
<polygon fill="#ffffff" stroke="none" points="1165,-1069 1165,-1094 1266,-1094 1266,-1069 1165,-1069"/>
<polygon fill="none" stroke="#2c3e50" points="1165,-1069 1165,-1094 1266,-1094 1266,-1069 1165,-1069"/>
<text text-anchor="start" x="1170" y="-1078.8" font-family="monospace" font-style="italic" font-size="14.00" fill="#95a5a6">real</text>
<polygon fill="#ffffff" stroke="none" points="1039,-1044 1039,-1069 1165,-1069 1165,-1044 1039,-1044"/>
<polygon fill="none" stroke="#2c3e50" points="1039,-1044 1039,-1069 1165,-1069 1165,-1044 1039,-1044"/>
<text text-anchor="start" x="1044" y="-1052.8" font-family="monospace" font-size="14.00" fill="#000000">reltoastrelid</text>
<polygon fill="#ffffff" stroke="none" points="1165,-1044 1165,-1069 1266,-1069 1266,-1044 1165,-1044"/>
<polygon fill="none" stroke="#2c3e50" points="1165,-1044 1165,-1069 1266,-1069 1266,-1044 1165,-1044"/>
<text text-anchor="start" x="1170" y="-1053.8" font-family="monospace" font-style="italic" font-size="14.00" fill="#95a5a6">oid</text>
<polygon fill="#ffffff" stroke="none" points="1039,-1019 1039,-1044 1165,-1044 1165,-1019 1039,-1019"/>
<polygon fill="none" stroke="#2c3e50" points="1039,-1019 1039,-1044 1165,-1044 1165,-1019 1039,-1019"/>
<text text-anchor="start" x="1044" y="-1027.8" font-family="monospace" font-size="14.00" fill="#000000">reltoastidxid</text>
<polygon fill="#ffffff" stroke="none" points="1165,-1019 1165,-1044 1266,-1044 1266,-1019 1165,-1019"/>
<polygon fill="none" stroke="#2c3e50" points="1165,-1019 1165,-1044 1266,-1044 1266,-1019 1165,-1019"/>
<text text-anchor="start" x="1170" y="-1028.8" font-family="monospace" font-style="italic" font-size="14.00" fill="#95a5a6">oid</text>
<polygon fill="#ffffff" stroke="none" points="1039,-994 1039,-1019 1165,-1019 1165,-994 1039,-994"/>
<polygon fill="none" stroke="#2c3e50" points="1039,-994 1039,-1019 1165,-1019 1165,-994 1039,-994"/>
<text text-anchor="start" x="1044" y="-1002.8" font-family="monospace" font-size="14.00" fill="#000000">relaosegrelid</text>
<polygon fill="#ffffff" stroke="none" points="1165,-994 1165,-1019 1266,-1019 1266,-994 1165,-994"/>
<polygon fill="none" stroke="#2c3e50" points="1165,-994 1165,-1019 1266,-1019 1266,-994 1165,-994"/>
<text text-anchor="start" x="1170" y="-1003.8" font-family="monospace" font-style="italic" font-size="14.00" fill="#95a5a6">oid</text>
<polygon fill="#ffffff" stroke="none" points="1039,-969 1039,-994 1165,-994 1165,-969 1039,-969"/>
<polygon fill="none" stroke="#2c3e50" points="1039,-969 1039,-994 1165,-994 1165,-969 1039,-969"/>
<text text-anchor="start" x="1044" y="-977.8" font-family="monospace" font-size="14.00" fill="#000000">relaosegidxid</text>
<polygon fill="#ffffff" stroke="none" points="1165,-969 1165,-994 1266,-994 1266,-969 1165,-969"/>
<polygon fill="none" stroke="#2c3e50" points="1165,-969 1165,-994 1266,-994 1266,-969 1165,-969"/>
<text text-anchor="start" x="1170" y="-978.8" font-family="monospace" font-style="italic" font-size="14.00" fill="#95a5a6">oid</text>
<polygon fill="#ffffff" stroke="none" points="1039,-944 1039,-969 1165,-969 1165,-944 1039,-944"/>
<polygon fill="none" stroke="#2c3e50" points="1039,-944 1039,-969 1165,-969 1165,-944 1039,-944"/>
<text text-anchor="start" x="1044" y="-952.8" font-family="monospace" font-size="14.00" fill="#000000">relhasindex</text>
<polygon fill="#ffffff" stroke="none" points="1165,-944 1165,-969 1266,-969 1266,-944 1165,-944"/>
<polygon fill="none" stroke="#2c3e50" points="1165,-944 1165,-969 1266,-969 1266,-944 1165,-944"/>
<text text-anchor="start" x="1170" y="-953.8" font-family="monospace" font-style="italic" font-size="14.00" fill="#95a5a6">boolean</text>
<polygon fill="#ffffff" stroke="none" points="1039,-919 1039,-944 1165,-944 1165,-919 1039,-919"/>
<polygon fill="none" stroke="#2c3e50" points="1039,-919 1039,-944 1165,-944 1165,-919 1039,-919"/>
<text text-anchor="start" x="1044" y="-927.8" font-family="monospace" font-size="14.00" fill="#000000">relisshared</text>
<polygon fill="#ffffff" stroke="none" points="1165,-919 1165,-944 1266,-944 1266,-919 1165,-919"/>
<polygon fill="none" stroke="#2c3e50" points="1165,-919 1165,-944 1266,-944 1266,-919 1165,-919"/>
<text text-anchor="start" x="1170" y="-928.8" font-family="monospace" font-style="italic" font-size="14.00" fill="#95a5a6">boolean</text>
<polygon fill="#ffffff" stroke="none" points="1039,-894 1039,-919 1165,-919 1165,-894 1039,-894"/>
<polygon fill="none" stroke="#2c3e50" points="1039,-894 1039,-919 1165,-919 1165,-894 1039,-894"/>
<text text-anchor="start" x="1044" y="-902.8" font-family="monospace" font-size="14.00" fill="#000000">relkind</text>
<polygon fill="#ffffff" stroke="none" points="1165,-894 1165,-919 1266,-919 1266,-894 1165,-894"/>
<polygon fill="none" stroke="#2c3e50" points="1165,-894 1165,-919 1266,-919 1266,-894 1165,-894"/>
<text text-anchor="start" x="1170" y="-903.8" font-family="monospace" font-style="italic" font-size="14.00" fill="#95a5a6">quoted_char</text>
<polygon fill="#ffffff" stroke="none" points="1039,-869 1039,-894 1165,-894 1165,-869 1039,-869"/>
<polygon fill="none" stroke="#2c3e50" points="1039,-869 1039,-894 1165,-894 1165,-869 1039,-869"/>
<text text-anchor="start" x="1044" y="-877.8" font-family="monospace" font-size="14.00" fill="#000000">relstorage</text>
<polygon fill="#ffffff" stroke="none" points="1165,-869 1165,-894 1266,-894 1266,-869 1165,-869"/>
<polygon fill="none" stroke="#2c3e50" points="1165,-869 1165,-894 1266,-894 1266,-869 1165,-869"/>
<text text-anchor="start" x="1170" y="-878.8" font-family="monospace" font-style="italic" font-size="14.00" fill="#95a5a6">quoted_char</text>
<polygon fill="#ffffff" stroke="none" points="1039,-844 1039,-869 1165,-869 1165,-844 1039,-844"/>
<polygon fill="none" stroke="#2c3e50" points="1039,-844 1039,-869 1165,-869 1165,-844 1039,-844"/>
<text text-anchor="start" x="1044" y="-852.8" font-family="monospace" font-size="14.00" fill="#000000">relnatts</text>
<polygon fill="#ffffff" stroke="none" points="1165,-844 1165,-869 1266,-869 1266,-844 1165,-844"/>
<polygon fill="none" stroke="#2c3e50" points="1165,-844 1165,-869 1266,-869 1266,-844 1165,-844"/>
<text text-anchor="start" x="1170" y="-853.8" font-family="monospace" font-style="italic" font-size="14.00" fill="#95a5a6">smallint</text>
<polygon fill="#ffffff" stroke="none" points="1039,-819 1039,-844 1165,-844 1165,-819 1039,-819"/>
<polygon fill="none" stroke="#2c3e50" points="1039,-819 1039,-844 1165,-844 1165,-819 1039,-819"/>
<text text-anchor="start" x="1044" y="-827.8" font-family="monospace" font-size="14.00" fill="#000000">relchecks</text>
<polygon fill="#ffffff" stroke="none" points="1165,-819 1165,-844 1266,-844 1266,-819 1165,-819"/>
<polygon fill="none" stroke="#2c3e50" points="1165,-819 1165,-844 1266,-844 1266,-819 1165,-819"/>
<text text-anchor="start" x="1170" y="-828.8" font-family="monospace" font-style="italic" font-size="14.00" fill="#95a5a6">smallint</text>
<polygon fill="#ffffff" stroke="none" points="1039,-794 1039,-819 1165,-819 1165,-794 1039,-794"/>
<polygon fill="none" stroke="#2c3e50" points="1039,-794 1039,-819 1165,-819 1165,-794 1039,-794"/>
<text text-anchor="start" x="1044" y="-802.8" font-family="monospace" font-size="14.00" fill="#000000">reltriggers</text>
<polygon fill="#ffffff" stroke="none" points="1165,-794 1165,-819 1266,-819 1266,-794 1165,-794"/>
<polygon fill="none" stroke="#2c3e50" points="1165,-794 1165,-819 1266,-819 1266,-794 1165,-794"/>
<text text-anchor="start" x="1170" y="-803.8" font-family="monospace" font-style="italic" font-size="14.00" fill="#95a5a6">smallint</text>
<polygon fill="#ffffff" stroke="none" points="1039,-769 1039,-794 1165,-794 1165,-769 1039,-769"/>
<polygon fill="none" stroke="#2c3e50" points="1039,-769 1039,-794 1165,-794 1165,-769 1039,-769"/>
<text text-anchor="start" x="1044" y="-777.8" font-family="monospace" font-size="14.00" fill="#000000">relukeys</text>
<polygon fill="#ffffff" stroke="none" points="1165,-769 1165,-794 1266,-794 1266,-769 1165,-769"/>
<polygon fill="none" stroke="#2c3e50" points="1165,-769 1165,-794 1266,-794 1266,-769 1165,-769"/>
<text text-anchor="start" x="1170" y="-778.8" font-family="monospace" font-style="italic" font-size="14.00" fill="#95a5a6">smallint</text>
<polygon fill="#ffffff" stroke="none" points="1039,-744 1039,-769 1165,-769 1165,-744 1039,-744"/>
<polygon fill="none" stroke="#2c3e50" points="1039,-744 1039,-769 1165,-769 1165,-744 1039,-744"/>
<text text-anchor="start" x="1044" y="-752.8" font-family="monospace" font-size="14.00" fill="#000000">relfkeys</text>
<polygon fill="#ffffff" stroke="none" points="1165,-744 1165,-769 1266,-769 1266,-744 1165,-744"/>
<polygon fill="none" stroke="#2c3e50" points="1165,-744 1165,-769 1266,-769 1266,-744 1165,-744"/>
<text text-anchor="start" x="1170" y="-753.8" font-family="monospace" font-style="italic" font-size="14.00" fill="#95a5a6">smallint</text>
<polygon fill="#ffffff" stroke="none" points="1039,-719 1039,-744 1165,-744 1165,-719 1039,-719"/>
<polygon fill="none" stroke="#2c3e50" points="1039,-719 1039,-744 1165,-744 1165,-719 1039,-719"/>
<text text-anchor="start" x="1044" y="-727.8" font-family="monospace" font-size="14.00" fill="#000000">relrefs</text>
<polygon fill="#ffffff" stroke="none" points="1165,-719 1165,-744 1266,-744 1266,-719 1165,-719"/>
<polygon fill="none" stroke="#2c3e50" points="1165,-719 1165,-744 1266,-744 1266,-719 1165,-719"/>
<text text-anchor="start" x="1170" y="-728.8" font-family="monospace" font-style="italic" font-size="14.00" fill="#95a5a6">smallint</text>
<polygon fill="#ffffff" stroke="none" points="1039,-694 1039,-719 1165,-719 1165,-694 1039,-694"/>
<polygon fill="none" stroke="#2c3e50" points="1039,-694 1039,-719 1165,-719 1165,-694 1039,-694"/>
<text text-anchor="start" x="1044" y="-702.8" font-family="monospace" font-size="14.00" fill="#000000">relhasoids</text>
<polygon fill="#ffffff" stroke="none" points="1165,-694 1165,-719 1266,-719 1266,-694 1165,-694"/>
<polygon fill="none" stroke="#2c3e50" points="1165,-694 1165,-719 1266,-719 1266,-694 1165,-694"/>
<text text-anchor="start" x="1170" y="-703.8" font-family="monospace" font-style="italic" font-size="14.00" fill="#95a5a6">boolean</text>
<polygon fill="#ffffff" stroke="none" points="1039,-669 1039,-694 1165,-694 1165,-669 1039,-669"/>
<polygon fill="none" stroke="#2c3e50" points="1039,-669 1039,-694 1165,-694 1165,-669 1039,-669"/>
<text text-anchor="start" x="1044" y="-677.8" font-family="monospace" font-size="14.00" fill="#000000">relhaspkey</text>
<polygon fill="#ffffff" stroke="none" points="1165,-669 1165,-694 1266,-694 1266,-669 1165,-669"/>
<polygon fill="none" stroke="#2c3e50" points="1165,-669 1165,-694 1266,-694 1266,-669 1165,-669"/>
<text text-anchor="start" x="1170" y="-678.8" font-family="monospace" font-style="italic" font-size="14.00" fill="#95a5a6">boolean</text>
<polygon fill="#ffffff" stroke="none" points="1039,-644 1039,-669 1165,-669 1165,-644 1039,-644"/>
<polygon fill="none" stroke="#2c3e50" points="1039,-644 1039,-669 1165,-669 1165,-644 1039,-644"/>
<text text-anchor="start" x="1044" y="-652.8" font-family="monospace" font-size="14.00" fill="#000000">relhasrules</text>
<polygon fill="#ffffff" stroke="none" points="1165,-644 1165,-669 1266,-669 1266,-644 1165,-644"/>
<polygon fill="none" stroke="#2c3e50" points="1165,-644 1165,-669 1266,-669 1266,-644 1165,-644"/>
<text text-anchor="start" x="1170" y="-653.8" font-family="monospace" font-style="italic" font-size="14.00" fill="#95a5a6">boolean</text>
<polygon fill="#ffffff" stroke="none" points="1039,-619 1039,-644 1165,-644 1165,-619 1039,-619"/>
<polygon fill="none" stroke="#2c3e50" points="1039,-619 1039,-644 1165,-644 1165,-619 1039,-619"/>
<text text-anchor="start" x="1044" y="-627.8" font-family="monospace" font-size="14.00" fill="#000000">relhassubclass</text>
<polygon fill="#ffffff" stroke="none" points="1165,-619 1165,-644 1266,-644 1266,-619 1165,-619"/>
<polygon fill="none" stroke="#2c3e50" points="1165,-619 1165,-644 1266,-644 1266,-619 1165,-619"/>
<text text-anchor="start" x="1170" y="-628.8" font-family="monospace" font-style="italic" font-size="14.00" fill="#95a5a6">boolean</text>
<polygon fill="#ffffff" stroke="none" points="1039,-594 1039,-619 1165,-619 1165,-594 1039,-594"/>
<polygon fill="none" stroke="#2c3e50" points="1039,-594 1039,-619 1165,-619 1165,-594 1039,-594"/>
<text text-anchor="start" x="1044" y="-602.8" font-family="monospace" font-size="14.00" fill="#000000">relfrozenxid</text>
<polygon fill="#ffffff" stroke="none" points="1165,-594 1165,-619 1266,-619 1266,-594 1165,-594"/>
<polygon fill="none" stroke="#2c3e50" points="1165,-594 1165,-619 1266,-619 1266,-594 1165,-594"/>
<text text-anchor="start" x="1170" y="-603.8" font-family="monospace" font-style="italic" font-size="14.00" fill="#95a5a6">xid</text>
<polygon fill="#ffffff" stroke="none" points="1039,-569 1039,-594 1165,-594 1165,-569 1039,-569"/>
<polygon fill="none" stroke="#2c3e50" points="1039,-569 1039,-594 1165,-594 1165,-569 1039,-569"/>
<text text-anchor="start" x="1044" y="-577.8" font-family="monospace" font-size="14.00" fill="#000000">relacl</text>
<polygon fill="#ffffff" stroke="none" points="1165,-569 1165,-594 1266,-594 1266,-569 1165,-569"/>
<polygon fill="none" stroke="#2c3e50" points="1165,-569 1165,-594 1266,-594 1266,-569 1165,-569"/>
<text text-anchor="start" x="1170" y="-578.8" font-family="monospace" font-style="italic" font-size="14.00" fill="#95a5a6">aclitem[]</text>
<polygon fill="#ffffff" stroke="none" points="1039,-544 1039,-569 1165,-569 1165,-544 1039,-544"/>
<polygon fill="none" stroke="#2c3e50" points="1039,-544 1039,-569 1165,-569 1165,-544 1039,-544"/>
<text text-anchor="start" x="1044" y="-552.8" font-family="monospace" font-size="14.00" fill="#000000">reloptions</text>
<polygon fill="#ffffff" stroke="none" points="1165,-544 1165,-569 1266,-569 1266,-544 1165,-544"/>
<polygon fill="none" stroke="#2c3e50" points="1165,-544 1165,-569 1266,-569 1266,-544 1165,-544"/>
<text text-anchor="start" x="1170" y="-553.8" font-family="monospace" font-style="italic" font-size="14.00" fill="#95a5a6">text[]</text>
</g>
<!-- pg_stat_last_operation&#45;&gt;pg_class -->
<g id="edge1" class="edge"><title>pg_stat_last_operation:classid_out&#45;&gt;pg_class:oid_in</title>
<path fill="none" stroke="#2c3e50" d="M542.5,-920C818.52,-920 760.065,-1297.61 1027.92,-1306.83"/>
<polygon fill="#2c3e50" stroke="#2c3e50" points="1027.94,-1310.33 1038,-1307 1028.06,-1303.33 1027.94,-1310.33"/>
</g>
<!-- pg_authid -->
<g id="node3" class="node"><title>pg_authid</title>
<polygon fill="#2c3e50" stroke="none" points="972,-470 972,-500 1332,-500 1332,-470 972,-470"/>
<polygon fill="none" stroke="black" points="972,-470 972,-500 1332,-500 1332,-470 972,-470"/>
<text text-anchor="start" x="1104.5" y="-481.6" font-family="monospace" font-weight="bold" font-size="18.00" fill="#ffffff">pg_authid</text>
<polygon fill="#18bc9c" stroke="none" points="972,-445 972,-470 1123,-470 1123,-445 972,-445"/>
<polygon fill="none" stroke="#2c3e50" points="972,-445 972,-470 1123,-470 1123,-445 972,-445"/>
<text text-anchor="start" x="977" y="-453.8" font-family="monospace" font-size="14.00" fill="#ffffff">oid</text>
<polygon fill="#ffffff" stroke="none" points="1123,-445 1123,-470 1332,-470 1332,-445 1123,-445"/>
<polygon fill="none" stroke="#2c3e50" points="1123,-445 1123,-470 1332,-470 1332,-445 1123,-445"/>
<text text-anchor="start" x="1128" y="-454.8" font-family="monospace" font-style="italic" font-size="14.00" fill="#95a5a6">oid</text>
<polygon fill="#ffffff" stroke="none" points="972,-420 972,-445 1123,-445 1123,-420 972,-420"/>
<polygon fill="none" stroke="#2c3e50" points="972,-420 972,-445 1123,-445 1123,-420 972,-420"/>
<text text-anchor="start" x="977" y="-428.8" font-family="monospace" font-size="14.00" fill="#000000">rolname</text>
<polygon fill="#ffffff" stroke="none" points="1123,-420 1123,-445 1332,-445 1332,-420 1123,-420"/>
<polygon fill="none" stroke="#2c3e50" points="1123,-420 1123,-445 1332,-445 1332,-420 1123,-420"/>
<text text-anchor="start" x="1128" y="-429.8" font-family="monospace" font-style="italic" font-size="14.00" fill="#95a5a6">name</text>
<polygon fill="#ffffff" stroke="none" points="972,-395 972,-420 1123,-420 1123,-395 972,-395"/>
<polygon fill="none" stroke="#2c3e50" points="972,-395 972,-420 1123,-420 1123,-395 972,-395"/>
<text text-anchor="start" x="977" y="-403.8" font-family="monospace" font-size="14.00" fill="#000000">rolsuper</text>
<polygon fill="#ffffff" stroke="none" points="1123,-395 1123,-420 1332,-420 1332,-395 1123,-395"/>
<polygon fill="none" stroke="#2c3e50" points="1123,-395 1123,-420 1332,-420 1332,-395 1123,-395"/>
<text text-anchor="start" x="1128" y="-404.8" font-family="monospace" font-style="italic" font-size="14.00" fill="#95a5a6">boolean</text>
<polygon fill="#ffffff" stroke="none" points="972,-370 972,-395 1123,-395 1123,-370 972,-370"/>
<polygon fill="none" stroke="#2c3e50" points="972,-370 972,-395 1123,-395 1123,-370 972,-370"/>
<text text-anchor="start" x="977" y="-378.8" font-family="monospace" font-size="14.00" fill="#000000">rolinherit</text>
<polygon fill="#ffffff" stroke="none" points="1123,-370 1123,-395 1332,-395 1332,-370 1123,-370"/>
<polygon fill="none" stroke="#2c3e50" points="1123,-370 1123,-395 1332,-395 1332,-370 1123,-370"/>
<text text-anchor="start" x="1128" y="-379.8" font-family="monospace" font-style="italic" font-size="14.00" fill="#95a5a6">boolean</text>
<polygon fill="#ffffff" stroke="none" points="972,-345 972,-370 1123,-370 1123,-345 972,-345"/>
<polygon fill="none" stroke="#2c3e50" points="972,-345 972,-370 1123,-370 1123,-345 972,-345"/>
<text text-anchor="start" x="977" y="-353.8" font-family="monospace" font-size="14.00" fill="#000000">rolcreaterole</text>
<polygon fill="#ffffff" stroke="none" points="1123,-345 1123,-370 1332,-370 1332,-345 1123,-345"/>
<polygon fill="none" stroke="#2c3e50" points="1123,-345 1123,-370 1332,-370 1332,-345 1123,-345"/>
<text text-anchor="start" x="1128" y="-354.8" font-family="monospace" font-style="italic" font-size="14.00" fill="#95a5a6">boolean</text>
<polygon fill="#ffffff" stroke="none" points="972,-320 972,-345 1123,-345 1123,-320 972,-320"/>
<polygon fill="none" stroke="#2c3e50" points="972,-320 972,-345 1123,-345 1123,-320 972,-320"/>
<text text-anchor="start" x="977" y="-328.8" font-family="monospace" font-size="14.00" fill="#000000">rolcreatedb</text>
<polygon fill="#ffffff" stroke="none" points="1123,-320 1123,-345 1332,-345 1332,-320 1123,-320"/>
<polygon fill="none" stroke="#2c3e50" points="1123,-320 1123,-345 1332,-345 1332,-320 1123,-320"/>
<text text-anchor="start" x="1128" y="-329.8" font-family="monospace" font-style="italic" font-size="14.00" fill="#95a5a6">boolean</text>
<polygon fill="#ffffff" stroke="none" points="972,-295 972,-320 1123,-320 1123,-295 972,-295"/>
<polygon fill="none" stroke="#2c3e50" points="972,-295 972,-320 1123,-320 1123,-295 972,-295"/>
<text text-anchor="start" x="977" y="-303.8" font-family="monospace" font-size="14.00" fill="#000000">rolcatupdate</text>
<polygon fill="#ffffff" stroke="none" points="1123,-295 1123,-320 1332,-320 1332,-295 1123,-295"/>
<polygon fill="none" stroke="#2c3e50" points="1123,-295 1123,-320 1332,-320 1332,-295 1123,-295"/>
<text text-anchor="start" x="1128" y="-304.8" font-family="monospace" font-style="italic" font-size="14.00" fill="#95a5a6">boolean</text>
<polygon fill="#ffffff" stroke="none" points="972,-270 972,-295 1123,-295 1123,-270 972,-270"/>
<polygon fill="none" stroke="#2c3e50" points="972,-270 972,-295 1123,-295 1123,-270 972,-270"/>
<text text-anchor="start" x="977" y="-278.8" font-family="monospace" font-size="14.00" fill="#000000">rolcanlogin</text>
<polygon fill="#ffffff" stroke="none" points="1123,-270 1123,-295 1332,-295 1332,-270 1123,-270"/>
<polygon fill="none" stroke="#2c3e50" points="1123,-270 1123,-295 1332,-295 1332,-270 1123,-270"/>
<text text-anchor="start" x="1128" y="-279.8" font-family="monospace" font-style="italic" font-size="14.00" fill="#95a5a6">boolean</text>
<polygon fill="#ffffff" stroke="none" points="972,-245 972,-270 1123,-270 1123,-245 972,-245"/>
<polygon fill="none" stroke="#2c3e50" points="972,-245 972,-270 1123,-270 1123,-245 972,-245"/>
<text text-anchor="start" x="977" y="-253.8" font-family="monospace" font-size="14.00" fill="#000000">rolconnlimit</text>
<polygon fill="#ffffff" stroke="none" points="1123,-245 1123,-270 1332,-270 1332,-245 1123,-245"/>
<polygon fill="none" stroke="#2c3e50" points="1123,-245 1123,-270 1332,-270 1332,-245 1123,-245"/>
<text text-anchor="start" x="1128" y="-254.8" font-family="monospace" font-style="italic" font-size="14.00" fill="#95a5a6">integer</text>
<polygon fill="#ffffff" stroke="none" points="972,-220 972,-245 1123,-245 1123,-220 972,-220"/>
<polygon fill="none" stroke="#2c3e50" points="972,-220 972,-245 1123,-245 1123,-220 972,-220"/>
<text text-anchor="start" x="977" y="-228.8" font-family="monospace" font-size="14.00" fill="#000000">rolpassword</text>
<polygon fill="#ffffff" stroke="none" points="1123,-220 1123,-245 1332,-245 1332,-220 1123,-220"/>
<polygon fill="none" stroke="#2c3e50" points="1123,-220 1123,-245 1332,-245 1332,-220 1123,-220"/>
<text text-anchor="start" x="1128" y="-229.8" font-family="monospace" font-style="italic" font-size="14.00" fill="#95a5a6">text</text>
<polygon fill="#ffffff" stroke="none" points="972,-195 972,-220 1123,-220 1123,-195 972,-195"/>
<polygon fill="none" stroke="#2c3e50" points="972,-195 972,-220 1123,-220 1123,-195 972,-195"/>
<text text-anchor="start" x="977" y="-203.8" font-family="monospace" font-size="14.00" fill="#000000">rolvaliduntil</text>
<polygon fill="#ffffff" stroke="none" points="1123,-195 1123,-220 1332,-220 1332,-195 1123,-195"/>
<polygon fill="none" stroke="#2c3e50" points="1123,-195 1123,-220 1332,-220 1332,-195 1123,-195"/>
<text text-anchor="start" x="1128" y="-204.8" font-family="monospace" font-style="italic" font-size="14.00" fill="#95a5a6">timestamp_with_time_zone</text>
<polygon fill="#ffffff" stroke="none" points="972,-170 972,-195 1123,-195 1123,-170 972,-170"/>
<polygon fill="none" stroke="#2c3e50" points="972,-170 972,-195 1123,-195 1123,-170 972,-170"/>
<text text-anchor="start" x="977" y="-178.8" font-family="monospace" font-size="14.00" fill="#000000">rolconfig</text>
<polygon fill="#ffffff" stroke="none" points="1123,-170 1123,-195 1332,-195 1332,-170 1123,-170"/>
<polygon fill="none" stroke="#2c3e50" points="1123,-170 1123,-195 1332,-195 1332,-170 1123,-170"/>
<text text-anchor="start" x="1128" y="-179.8" font-family="monospace" font-style="italic" font-size="14.00" fill="#95a5a6">text[]</text>
<polygon fill="#ffffff" stroke="none" points="972,-145 972,-170 1123,-170 1123,-145 972,-145"/>
<polygon fill="none" stroke="#2c3e50" points="972,-145 972,-170 1123,-170 1123,-145 972,-145"/>
<text text-anchor="start" x="977" y="-153.8" font-family="monospace" font-size="14.00" fill="#000000">rolresqueue</text>
<polygon fill="#ffffff" stroke="none" points="1123,-145 1123,-170 1332,-170 1332,-145 1123,-145"/>
<polygon fill="none" stroke="#2c3e50" points="1123,-145 1123,-170 1332,-170 1332,-145 1123,-145"/>
<text text-anchor="start" x="1128" y="-154.8" font-family="monospace" font-style="italic" font-size="14.00" fill="#95a5a6">oid</text>
<polygon fill="#ffffff" stroke="none" points="972,-120 972,-145 1123,-145 1123,-120 972,-120"/>
<polygon fill="none" stroke="#2c3e50" points="972,-120 972,-145 1123,-145 1123,-120 972,-120"/>
<text text-anchor="start" x="977" y="-128.8" font-family="monospace" font-size="14.00" fill="#000000">rolcreaterextgpfd</text>
<polygon fill="#ffffff" stroke="none" points="1123,-120 1123,-145 1332,-145 1332,-120 1123,-120"/>
<polygon fill="none" stroke="#2c3e50" points="1123,-120 1123,-145 1332,-145 1332,-120 1123,-120"/>
<text text-anchor="start" x="1128" y="-129.8" font-family="monospace" font-style="italic" font-size="14.00" fill="#95a5a6">boolean</text>
<polygon fill="#ffffff" stroke="none" points="972,-95 972,-120 1123,-120 1123,-95 972,-95"/>
<polygon fill="none" stroke="#2c3e50" points="972,-95 972,-120 1123,-120 1123,-95 972,-95"/>
<text text-anchor="start" x="977" y="-103.8" font-family="monospace" font-size="14.00" fill="#000000">rolcreaterexthttp</text>
<polygon fill="#ffffff" stroke="none" points="1123,-95 1123,-120 1332,-120 1332,-95 1123,-95"/>
<polygon fill="none" stroke="#2c3e50" points="1123,-95 1123,-120 1332,-120 1332,-95 1123,-95"/>
<text text-anchor="start" x="1128" y="-104.8" font-family="monospace" font-style="italic" font-size="14.00" fill="#95a5a6">boolean</text>
<polygon fill="#ffffff" stroke="none" points="972,-70 972,-95 1123,-95 1123,-70 972,-70"/>
<polygon fill="none" stroke="#2c3e50" points="972,-70 972,-95 1123,-95 1123,-70 972,-70"/>
<text text-anchor="start" x="977" y="-78.8" font-family="monospace" font-size="14.00" fill="#000000">rolcreatewextgpfd</text>
<polygon fill="#ffffff" stroke="none" points="1123,-70 1123,-95 1332,-95 1332,-70 1123,-70"/>
<polygon fill="none" stroke="#2c3e50" points="1123,-70 1123,-95 1332,-95 1332,-70 1123,-70"/>
<text text-anchor="start" x="1128" y="-79.8" font-family="monospace" font-style="italic" font-size="14.00" fill="#95a5a6">boolean</text>
<polygon fill="#ffffff" stroke="none" points="972,-45 972,-70 1123,-70 1123,-45 972,-45"/>
<polygon fill="none" stroke="#2c3e50" points="972,-45 972,-70 1123,-70 1123,-45 972,-45"/>
<text text-anchor="start" x="977" y="-53.8" font-family="monospace" font-size="14.00" fill="#000000">rolcreaterexthdfs</text>
<polygon fill="#ffffff" stroke="none" points="1123,-45 1123,-70 1332,-70 1332,-45 1123,-45"/>
<polygon fill="none" stroke="#2c3e50" points="1123,-45 1123,-70 1332,-70 1332,-45 1123,-45"/>
<text text-anchor="start" x="1128" y="-54.8" font-family="monospace" font-style="italic" font-size="14.00" fill="#95a5a6">boolean</text>
<polygon fill="#ffffff" stroke="none" points="972,-20 972,-45 1123,-45 1123,-20 972,-20"/>
<polygon fill="none" stroke="#2c3e50" points="972,-20 972,-45 1123,-45 1123,-20 972,-20"/>
<text text-anchor="start" x="977" y="-28.8" font-family="monospace" font-size="14.00" fill="#000000">rolcreatewexthdfs</text>
<polygon fill="#ffffff" stroke="none" points="1123,-20 1123,-45 1332,-45 1332,-20 1123,-20"/>
<polygon fill="none" stroke="#2c3e50" points="1123,-20 1123,-45 1332,-45 1332,-20 1123,-20"/>
<text text-anchor="start" x="1128" y="-29.8" font-family="monospace" font-style="italic" font-size="14.00" fill="#95a5a6">boolean</text>
</g>
<!-- pg_stat_last_operation&#45;&gt;pg_authid -->
<g id="edge2" class="edge"><title>pg_stat_last_operation:stasysid_out&#45;&gt;pg_authid:oid_in</title>
<path fill="none" stroke="#2c3e50" d="M542.5,-844C718.658,-844 632.876,-627.079 775,-523 846.225,-470.841 876.861,-458.884 960.776,-458.049"/>
<polygon fill="#2c3e50" stroke="#2c3e50" points="961.017,-461.548 971,-458 960.983,-454.548 961.017,-461.548"/>
</g>
</g>
</svg>
