<?xml version="1.0" encoding="UTF-8" standalone="no"?>
<!DOCTYPE svg PUBLIC "-//W3C//DTD SVG 1.1//EN"
 "http://www.w3.org/Graphics/SVG/1.1/DTD/svg11.dtd">
<!-- Generated by graphviz version 2.38.0 (20140413.2041)
 -->
<!-- Title: GPDB Pages: 1 -->
<svg width="1434pt" height="1030pt"
 viewBox="0.00 0.00 1434.00 1030.00" xmlns="http://www.w3.org/2000/svg" xmlns:xlink="http://www.w3.org/1999/xlink">
<g id="graph0" class="graph" transform="scale(1 1) rotate(0) translate(36 994)">
<title>GPDB</title>
<polygon fill="white" stroke="none" points="-36,36 -36,-994 1398,-994 1398,36 -36,36"/>
<text text-anchor="middle" x="681" y="-928.4" font-family="Helvetica,sans-Serif" font-size="32.00">Greenplum System Catalog: pg_shdescription</text>
<g id="clust2" class="cluster"><title>cluster_selected</title>
</g>
<g id="clust3" class="cluster"><title>cluster_to</title>
</g>
<!-- pg_shdescription -->
<g id="node1" class="node"><title>pg_shdescription</title>
<g id="a_node1"><a xlink:href="pg_shdescription.svg" xlink:title="&lt;TABLE&gt;">
<polygon fill="#2c3e50" stroke="none" points="246.5,-821 246.5,-851 425.5,-851 425.5,-821 246.5,-821"/>
<polygon fill="none" stroke="black" points="246.5,-821 246.5,-851 425.5,-851 425.5,-821 246.5,-821"/>
<text text-anchor="start" x="251.5" y="-832.6" font-family="monospace" font-weight="bold" font-size="18.00" fill="#ffffff">pg_shdescription</text>
<polygon fill="#ffffff" stroke="none" points="246.5,-796 246.5,-821 364.5,-821 364.5,-796 246.5,-796"/>
<polygon fill="none" stroke="#2c3e50" points="246.5,-796 246.5,-821 364.5,-821 364.5,-796 246.5,-796"/>
<text text-anchor="start" x="251.5" y="-804.8" font-family="monospace" font-size="14.00" fill="#000000">objoid</text>
<polygon fill="#ffffff" stroke="none" points="364.5,-796 364.5,-821 425.5,-821 425.5,-796 364.5,-796"/>
<polygon fill="none" stroke="#2c3e50" points="364.5,-796 364.5,-821 425.5,-821 425.5,-796 364.5,-796"/>
<text text-anchor="start" x="369.5" y="-805.8" font-family="monospace" font-style="italic" font-size="14.00" fill="#95a5a6">oid</text>
<polygon fill="#ffffff" stroke="none" points="246.5,-771 246.5,-796 364.5,-796 364.5,-771 246.5,-771"/>
<polygon fill="none" stroke="#2c3e50" points="246.5,-771 246.5,-796 364.5,-796 364.5,-771 246.5,-771"/>
<text text-anchor="start" x="251.5" y="-779.8" font-family="monospace" font-size="14.00" fill="#000000">classoid</text>
<polygon fill="#18bc9c" stroke="none" points="364.5,-771 364.5,-796 425.5,-796 425.5,-771 364.5,-771"/>
<polygon fill="none" stroke="#2c3e50" points="364.5,-771 364.5,-796 425.5,-796 425.5,-771 364.5,-771"/>
<text text-anchor="start" x="369.5" y="-780.8" font-family="monospace" font-style="italic" font-size="14.00" fill="#ffffff">oid</text>
<polygon fill="#ffffff" stroke="none" points="246.5,-746 246.5,-771 364.5,-771 364.5,-746 246.5,-746"/>
<polygon fill="none" stroke="#2c3e50" points="246.5,-746 246.5,-771 364.5,-771 364.5,-746 246.5,-746"/>
<text text-anchor="start" x="251.5" y="-754.8" font-family="monospace" font-size="14.00" fill="#000000">description</text>
<polygon fill="#ffffff" stroke="none" points="364.5,-746 364.5,-771 425.5,-771 425.5,-746 364.5,-746"/>
<polygon fill="none" stroke="#2c3e50" points="364.5,-746 364.5,-771 425.5,-771 425.5,-746 364.5,-746"/>
<text text-anchor="start" x="369.5" y="-755.8" font-family="monospace" font-style="italic" font-size="14.00" fill="#95a5a6">text</text>
</a>
</g>
</g>
<!-- pg_class -->
<g id="node2" class="node"><title>pg_class</title>
<g id="a_node2"><a xlink:href="pg_class.svg" xlink:title="&lt;TABLE&gt;">
<polygon fill="#2c3e50" stroke="none" points="913.5,-795 913.5,-825 1140.5,-825 1140.5,-795 913.5,-795"/>
<polygon fill="none" stroke="black" points="913.5,-795 913.5,-825 1140.5,-825 1140.5,-795 913.5,-795"/>
<text text-anchor="start" x="984.5" y="-806.6" font-family="monospace" font-weight="bold" font-size="18.00" fill="#ffffff">pg_class</text>
<polygon fill="#18bc9c" stroke="none" points="913.5,-770 913.5,-795 1039.5,-795 1039.5,-770 913.5,-770"/>
<polygon fill="none" stroke="#2c3e50" points="913.5,-770 913.5,-795 1039.5,-795 1039.5,-770 913.5,-770"/>
<text text-anchor="start" x="918.5" y="-778.8" font-family="monospace" font-size="14.00" fill="#ffffff">oid</text>
<polygon fill="#ffffff" stroke="none" points="1039.5,-770 1039.5,-795 1140.5,-795 1140.5,-770 1039.5,-770"/>
<polygon fill="none" stroke="#2c3e50" points="1039.5,-770 1039.5,-795 1140.5,-795 1140.5,-770 1039.5,-770"/>
<text text-anchor="start" x="1044.5" y="-779.8" font-family="monospace" font-style="italic" font-size="14.00" fill="#95a5a6">oid</text>
<polygon fill="#ffffff" stroke="none" points="913.5,-745 913.5,-770 1039.5,-770 1039.5,-745 913.5,-745"/>
<polygon fill="none" stroke="#2c3e50" points="913.5,-745 913.5,-770 1039.5,-770 1039.5,-745 913.5,-745"/>
<text text-anchor="start" x="918.5" y="-753.8" font-family="monospace" font-size="14.00" fill="#000000">relname</text>
<polygon fill="#ffffff" stroke="none" points="1039.5,-745 1039.5,-770 1140.5,-770 1140.5,-745 1039.5,-745"/>
<polygon fill="none" stroke="#2c3e50" points="1039.5,-745 1039.5,-770 1140.5,-770 1140.5,-745 1039.5,-745"/>
<text text-anchor="start" x="1044.5" y="-754.8" font-family="monospace" font-style="italic" font-size="14.00" fill="#95a5a6">name</text>
<polygon fill="#ffffff" stroke="none" points="913.5,-720 913.5,-745 1039.5,-745 1039.5,-720 913.5,-720"/>
<polygon fill="none" stroke="#2c3e50" points="913.5,-720 913.5,-745 1039.5,-745 1039.5,-720 913.5,-720"/>
<text text-anchor="start" x="918.5" y="-728.8" font-family="monospace" font-size="14.00" fill="#000000">relnamespace</text>
<polygon fill="#ffffff" stroke="none" points="1039.5,-720 1039.5,-745 1140.5,-745 1140.5,-720 1039.5,-720"/>
<polygon fill="none" stroke="#2c3e50" points="1039.5,-720 1039.5,-745 1140.5,-745 1140.5,-720 1039.5,-720"/>
<text text-anchor="start" x="1044.5" y="-729.8" font-family="monospace" font-style="italic" font-size="14.00" fill="#95a5a6">oid</text>
<polygon fill="#ffffff" stroke="none" points="913.5,-695 913.5,-720 1039.5,-720 1039.5,-695 913.5,-695"/>
<polygon fill="none" stroke="#2c3e50" points="913.5,-695 913.5,-720 1039.5,-720 1039.5,-695 913.5,-695"/>
<text text-anchor="start" x="918.5" y="-703.8" font-family="monospace" font-size="14.00" fill="#000000">reltype</text>
<polygon fill="#ffffff" stroke="none" points="1039.5,-695 1039.5,-720 1140.5,-720 1140.5,-695 1039.5,-695"/>
<polygon fill="none" stroke="#2c3e50" points="1039.5,-695 1039.5,-720 1140.5,-720 1140.5,-695 1039.5,-695"/>
<text text-anchor="start" x="1044.5" y="-704.8" font-family="monospace" font-style="italic" font-size="14.00" fill="#95a5a6">oid</text>
<polygon fill="#ffffff" stroke="none" points="913.5,-670 913.5,-695 1039.5,-695 1039.5,-670 913.5,-670"/>
<polygon fill="none" stroke="#2c3e50" points="913.5,-670 913.5,-695 1039.5,-695 1039.5,-670 913.5,-670"/>
<text text-anchor="start" x="918.5" y="-678.8" font-family="monospace" font-size="14.00" fill="#000000">relowner</text>
<polygon fill="#ffffff" stroke="none" points="1039.5,-670 1039.5,-695 1140.5,-695 1140.5,-670 1039.5,-670"/>
<polygon fill="none" stroke="#2c3e50" points="1039.5,-670 1039.5,-695 1140.5,-695 1140.5,-670 1039.5,-670"/>
<text text-anchor="start" x="1044.5" y="-679.8" font-family="monospace" font-style="italic" font-size="14.00" fill="#95a5a6">oid</text>
<polygon fill="#ffffff" stroke="none" points="913.5,-645 913.5,-670 1039.5,-670 1039.5,-645 913.5,-645"/>
<polygon fill="none" stroke="#2c3e50" points="913.5,-645 913.5,-670 1039.5,-670 1039.5,-645 913.5,-645"/>
<text text-anchor="start" x="918.5" y="-653.8" font-family="monospace" font-size="14.00" fill="#000000">relam</text>
<polygon fill="#ffffff" stroke="none" points="1039.5,-645 1039.5,-670 1140.5,-670 1140.5,-645 1039.5,-645"/>
<polygon fill="none" stroke="#2c3e50" points="1039.5,-645 1039.5,-670 1140.5,-670 1140.5,-645 1039.5,-645"/>
<text text-anchor="start" x="1044.5" y="-654.8" font-family="monospace" font-style="italic" font-size="14.00" fill="#95a5a6">oid</text>
<polygon fill="#ffffff" stroke="none" points="913.5,-620 913.5,-645 1039.5,-645 1039.5,-620 913.5,-620"/>
<polygon fill="none" stroke="#2c3e50" points="913.5,-620 913.5,-645 1039.5,-645 1039.5,-620 913.5,-620"/>
<text text-anchor="start" x="918.5" y="-628.8" font-family="monospace" font-size="14.00" fill="#000000">relfilenode</text>
<polygon fill="#ffffff" stroke="none" points="1039.5,-620 1039.5,-645 1140.5,-645 1140.5,-620 1039.5,-620"/>
<polygon fill="none" stroke="#2c3e50" points="1039.5,-620 1039.5,-645 1140.5,-645 1140.5,-620 1039.5,-620"/>
<text text-anchor="start" x="1044.5" y="-629.8" font-family="monospace" font-style="italic" font-size="14.00" fill="#95a5a6">oid</text>
<polygon fill="#ffffff" stroke="none" points="913.5,-595 913.5,-620 1039.5,-620 1039.5,-595 913.5,-595"/>
<polygon fill="none" stroke="#2c3e50" points="913.5,-595 913.5,-620 1039.5,-620 1039.5,-595 913.5,-595"/>
<text text-anchor="start" x="918.5" y="-603.8" font-family="monospace" font-size="14.00" fill="#000000">reltablespace</text>
<polygon fill="#ffffff" stroke="none" points="1039.5,-595 1039.5,-620 1140.5,-620 1140.5,-595 1039.5,-595"/>
<polygon fill="none" stroke="#2c3e50" points="1039.5,-595 1039.5,-620 1140.5,-620 1140.5,-595 1039.5,-595"/>
<text text-anchor="start" x="1044.5" y="-604.8" font-family="monospace" font-style="italic" font-size="14.00" fill="#95a5a6">oid</text>
<polygon fill="#ffffff" stroke="none" points="913.5,-570 913.5,-595 1039.5,-595 1039.5,-570 913.5,-570"/>
<polygon fill="none" stroke="#2c3e50" points="913.5,-570 913.5,-595 1039.5,-595 1039.5,-570 913.5,-570"/>
<text text-anchor="start" x="918.5" y="-578.8" font-family="monospace" font-size="14.00" fill="#000000">relpages</text>
<polygon fill="#ffffff" stroke="none" points="1039.5,-570 1039.5,-595 1140.5,-595 1140.5,-570 1039.5,-570"/>
<polygon fill="none" stroke="#2c3e50" points="1039.5,-570 1039.5,-595 1140.5,-595 1140.5,-570 1039.5,-570"/>
<text text-anchor="start" x="1044.5" y="-579.8" font-family="monospace" font-style="italic" font-size="14.00" fill="#95a5a6">integer</text>
<polygon fill="#ffffff" stroke="none" points="913.5,-545 913.5,-570 1039.5,-570 1039.5,-545 913.5,-545"/>
<polygon fill="none" stroke="#2c3e50" points="913.5,-545 913.5,-570 1039.5,-570 1039.5,-545 913.5,-545"/>
<text text-anchor="start" x="918.5" y="-553.8" font-family="monospace" font-size="14.00" fill="#000000">reltuples</text>
<polygon fill="#ffffff" stroke="none" points="1039.5,-545 1039.5,-570 1140.5,-570 1140.5,-545 1039.5,-545"/>
<polygon fill="none" stroke="#2c3e50" points="1039.5,-545 1039.5,-570 1140.5,-570 1140.5,-545 1039.5,-545"/>
<text text-anchor="start" x="1044.5" y="-554.8" font-family="monospace" font-style="italic" font-size="14.00" fill="#95a5a6">real</text>
<polygon fill="#ffffff" stroke="none" points="913.5,-520 913.5,-545 1039.5,-545 1039.5,-520 913.5,-520"/>
<polygon fill="none" stroke="#2c3e50" points="913.5,-520 913.5,-545 1039.5,-545 1039.5,-520 913.5,-520"/>
<text text-anchor="start" x="918.5" y="-528.8" font-family="monospace" font-size="14.00" fill="#000000">reltoastrelid</text>
<polygon fill="#ffffff" stroke="none" points="1039.5,-520 1039.5,-545 1140.5,-545 1140.5,-520 1039.5,-520"/>
<polygon fill="none" stroke="#2c3e50" points="1039.5,-520 1039.5,-545 1140.5,-545 1140.5,-520 1039.5,-520"/>
<text text-anchor="start" x="1044.5" y="-529.8" font-family="monospace" font-style="italic" font-size="14.00" fill="#95a5a6">oid</text>
<polygon fill="#ffffff" stroke="none" points="913.5,-495 913.5,-520 1039.5,-520 1039.5,-495 913.5,-495"/>
<polygon fill="none" stroke="#2c3e50" points="913.5,-495 913.5,-520 1039.5,-520 1039.5,-495 913.5,-495"/>
<text text-anchor="start" x="918.5" y="-503.8" font-family="monospace" font-size="14.00" fill="#000000">reltoastidxid</text>
<polygon fill="#ffffff" stroke="none" points="1039.5,-495 1039.5,-520 1140.5,-520 1140.5,-495 1039.5,-495"/>
<polygon fill="none" stroke="#2c3e50" points="1039.5,-495 1039.5,-520 1140.5,-520 1140.5,-495 1039.5,-495"/>
<text text-anchor="start" x="1044.5" y="-504.8" font-family="monospace" font-style="italic" font-size="14.00" fill="#95a5a6">oid</text>
<polygon fill="#ffffff" stroke="none" points="913.5,-470 913.5,-495 1039.5,-495 1039.5,-470 913.5,-470"/>
<polygon fill="none" stroke="#2c3e50" points="913.5,-470 913.5,-495 1039.5,-495 1039.5,-470 913.5,-470"/>
<text text-anchor="start" x="918.5" y="-478.8" font-family="monospace" font-size="14.00" fill="#000000">relaosegrelid</text>
<polygon fill="#ffffff" stroke="none" points="1039.5,-470 1039.5,-495 1140.5,-495 1140.5,-470 1039.5,-470"/>
<polygon fill="none" stroke="#2c3e50" points="1039.5,-470 1039.5,-495 1140.5,-495 1140.5,-470 1039.5,-470"/>
<text text-anchor="start" x="1044.5" y="-479.8" font-family="monospace" font-style="italic" font-size="14.00" fill="#95a5a6">oid</text>
<polygon fill="#ffffff" stroke="none" points="913.5,-445 913.5,-470 1039.5,-470 1039.5,-445 913.5,-445"/>
<polygon fill="none" stroke="#2c3e50" points="913.5,-445 913.5,-470 1039.5,-470 1039.5,-445 913.5,-445"/>
<text text-anchor="start" x="918.5" y="-453.8" font-family="monospace" font-size="14.00" fill="#000000">relaosegidxid</text>
<polygon fill="#ffffff" stroke="none" points="1039.5,-445 1039.5,-470 1140.5,-470 1140.5,-445 1039.5,-445"/>
<polygon fill="none" stroke="#2c3e50" points="1039.5,-445 1039.5,-470 1140.5,-470 1140.5,-445 1039.5,-445"/>
<text text-anchor="start" x="1044.5" y="-454.8" font-family="monospace" font-style="italic" font-size="14.00" fill="#95a5a6">oid</text>
<polygon fill="#ffffff" stroke="none" points="913.5,-420 913.5,-445 1039.5,-445 1039.5,-420 913.5,-420"/>
<polygon fill="none" stroke="#2c3e50" points="913.5,-420 913.5,-445 1039.5,-445 1039.5,-420 913.5,-420"/>
<text text-anchor="start" x="918.5" y="-428.8" font-family="monospace" font-size="14.00" fill="#000000">relhasindex</text>
<polygon fill="#ffffff" stroke="none" points="1039.5,-420 1039.5,-445 1140.5,-445 1140.5,-420 1039.5,-420"/>
<polygon fill="none" stroke="#2c3e50" points="1039.5,-420 1039.5,-445 1140.5,-445 1140.5,-420 1039.5,-420"/>
<text text-anchor="start" x="1044.5" y="-429.8" font-family="monospace" font-style="italic" font-size="14.00" fill="#95a5a6">boolean</text>
<polygon fill="#ffffff" stroke="none" points="913.5,-395 913.5,-420 1039.5,-420 1039.5,-395 913.5,-395"/>
<polygon fill="none" stroke="#2c3e50" points="913.5,-395 913.5,-420 1039.5,-420 1039.5,-395 913.5,-395"/>
<text text-anchor="start" x="918.5" y="-403.8" font-family="monospace" font-size="14.00" fill="#000000">relisshared</text>
<polygon fill="#ffffff" stroke="none" points="1039.5,-395 1039.5,-420 1140.5,-420 1140.5,-395 1039.5,-395"/>
<polygon fill="none" stroke="#2c3e50" points="1039.5,-395 1039.5,-420 1140.5,-420 1140.5,-395 1039.5,-395"/>
<text text-anchor="start" x="1044.5" y="-404.8" font-family="monospace" font-style="italic" font-size="14.00" fill="#95a5a6">boolean</text>
<polygon fill="#ffffff" stroke="none" points="913.5,-370 913.5,-395 1039.5,-395 1039.5,-370 913.5,-370"/>
<polygon fill="none" stroke="#2c3e50" points="913.5,-370 913.5,-395 1039.5,-395 1039.5,-370 913.5,-370"/>
<text text-anchor="start" x="918.5" y="-378.8" font-family="monospace" font-size="14.00" fill="#000000">relkind</text>
<polygon fill="#ffffff" stroke="none" points="1039.5,-370 1039.5,-395 1140.5,-395 1140.5,-370 1039.5,-370"/>
<polygon fill="none" stroke="#2c3e50" points="1039.5,-370 1039.5,-395 1140.5,-395 1140.5,-370 1039.5,-370"/>
<text text-anchor="start" x="1044.5" y="-379.8" font-family="monospace" font-style="italic" font-size="14.00" fill="#95a5a6">quoted_char</text>
<polygon fill="#ffffff" stroke="none" points="913.5,-345 913.5,-370 1039.5,-370 1039.5,-345 913.5,-345"/>
<polygon fill="none" stroke="#2c3e50" points="913.5,-345 913.5,-370 1039.5,-370 1039.5,-345 913.5,-345"/>
<text text-anchor="start" x="918.5" y="-353.8" font-family="monospace" font-size="14.00" fill="#000000">relstorage</text>
<polygon fill="#ffffff" stroke="none" points="1039.5,-345 1039.5,-370 1140.5,-370 1140.5,-345 1039.5,-345"/>
<polygon fill="none" stroke="#2c3e50" points="1039.5,-345 1039.5,-370 1140.5,-370 1140.5,-345 1039.5,-345"/>
<text text-anchor="start" x="1044.5" y="-354.8" font-family="monospace" font-style="italic" font-size="14.00" fill="#95a5a6">quoted_char</text>
<polygon fill="#ffffff" stroke="none" points="913.5,-320 913.5,-345 1039.5,-345 1039.5,-320 913.5,-320"/>
<polygon fill="none" stroke="#2c3e50" points="913.5,-320 913.5,-345 1039.5,-345 1039.5,-320 913.5,-320"/>
<text text-anchor="start" x="918.5" y="-328.8" font-family="monospace" font-size="14.00" fill="#000000">relnatts</text>
<polygon fill="#ffffff" stroke="none" points="1039.5,-320 1039.5,-345 1140.5,-345 1140.5,-320 1039.5,-320"/>
<polygon fill="none" stroke="#2c3e50" points="1039.5,-320 1039.5,-345 1140.5,-345 1140.5,-320 1039.5,-320"/>
<text text-anchor="start" x="1044.5" y="-329.8" font-family="monospace" font-style="italic" font-size="14.00" fill="#95a5a6">smallint</text>
<polygon fill="#ffffff" stroke="none" points="913.5,-295 913.5,-320 1039.5,-320 1039.5,-295 913.5,-295"/>
<polygon fill="none" stroke="#2c3e50" points="913.5,-295 913.5,-320 1039.5,-320 1039.5,-295 913.5,-295"/>
<text text-anchor="start" x="918.5" y="-303.8" font-family="monospace" font-size="14.00" fill="#000000">relchecks</text>
<polygon fill="#ffffff" stroke="none" points="1039.5,-295 1039.5,-320 1140.5,-320 1140.5,-295 1039.5,-295"/>
<polygon fill="none" stroke="#2c3e50" points="1039.5,-295 1039.5,-320 1140.5,-320 1140.5,-295 1039.5,-295"/>
<text text-anchor="start" x="1044.5" y="-304.8" font-family="monospace" font-style="italic" font-size="14.00" fill="#95a5a6">smallint</text>
<polygon fill="#ffffff" stroke="none" points="913.5,-270 913.5,-295 1039.5,-295 1039.5,-270 913.5,-270"/>
<polygon fill="none" stroke="#2c3e50" points="913.5,-270 913.5,-295 1039.5,-295 1039.5,-270 913.5,-270"/>
<text text-anchor="start" x="918.5" y="-278.8" font-family="monospace" font-size="14.00" fill="#000000">reltriggers</text>
<polygon fill="#ffffff" stroke="none" points="1039.5,-270 1039.5,-295 1140.5,-295 1140.5,-270 1039.5,-270"/>
<polygon fill="none" stroke="#2c3e50" points="1039.5,-270 1039.5,-295 1140.5,-295 1140.5,-270 1039.5,-270"/>
<text text-anchor="start" x="1044.5" y="-279.8" font-family="monospace" font-style="italic" font-size="14.00" fill="#95a5a6">smallint</text>
<polygon fill="#ffffff" stroke="none" points="913.5,-245 913.5,-270 1039.5,-270 1039.5,-245 913.5,-245"/>
<polygon fill="none" stroke="#2c3e50" points="913.5,-245 913.5,-270 1039.5,-270 1039.5,-245 913.5,-245"/>
<text text-anchor="start" x="918.5" y="-253.8" font-family="monospace" font-size="14.00" fill="#000000">relukeys</text>
<polygon fill="#ffffff" stroke="none" points="1039.5,-245 1039.5,-270 1140.5,-270 1140.5,-245 1039.5,-245"/>
<polygon fill="none" stroke="#2c3e50" points="1039.5,-245 1039.5,-270 1140.5,-270 1140.5,-245 1039.5,-245"/>
<text text-anchor="start" x="1044.5" y="-254.8" font-family="monospace" font-style="italic" font-size="14.00" fill="#95a5a6">smallint</text>
<polygon fill="#ffffff" stroke="none" points="913.5,-220 913.5,-245 1039.5,-245 1039.5,-220 913.5,-220"/>
<polygon fill="none" stroke="#2c3e50" points="913.5,-220 913.5,-245 1039.5,-245 1039.5,-220 913.5,-220"/>
<text text-anchor="start" x="918.5" y="-228.8" font-family="monospace" font-size="14.00" fill="#000000">relfkeys</text>
<polygon fill="#ffffff" stroke="none" points="1039.5,-220 1039.5,-245 1140.5,-245 1140.5,-220 1039.5,-220"/>
<polygon fill="none" stroke="#2c3e50" points="1039.5,-220 1039.5,-245 1140.5,-245 1140.5,-220 1039.5,-220"/>
<text text-anchor="start" x="1044.5" y="-229.8" font-family="monospace" font-style="italic" font-size="14.00" fill="#95a5a6">smallint</text>
<polygon fill="#ffffff" stroke="none" points="913.5,-195 913.5,-220 1039.5,-220 1039.5,-195 913.5,-195"/>
<polygon fill="none" stroke="#2c3e50" points="913.5,-195 913.5,-220 1039.5,-220 1039.5,-195 913.5,-195"/>
<text text-anchor="start" x="918.5" y="-203.8" font-family="monospace" font-size="14.00" fill="#000000">relrefs</text>
<polygon fill="#ffffff" stroke="none" points="1039.5,-195 1039.5,-220 1140.5,-220 1140.5,-195 1039.5,-195"/>
<polygon fill="none" stroke="#2c3e50" points="1039.5,-195 1039.5,-220 1140.5,-220 1140.5,-195 1039.5,-195"/>
<text text-anchor="start" x="1044.5" y="-204.8" font-family="monospace" font-style="italic" font-size="14.00" fill="#95a5a6">smallint</text>
<polygon fill="#ffffff" stroke="none" points="913.5,-170 913.5,-195 1039.5,-195 1039.5,-170 913.5,-170"/>
<polygon fill="none" stroke="#2c3e50" points="913.5,-170 913.5,-195 1039.5,-195 1039.5,-170 913.5,-170"/>
<text text-anchor="start" x="918.5" y="-178.8" font-family="monospace" font-size="14.00" fill="#000000">relhasoids</text>
<polygon fill="#ffffff" stroke="none" points="1039.5,-170 1039.5,-195 1140.5,-195 1140.5,-170 1039.5,-170"/>
<polygon fill="none" stroke="#2c3e50" points="1039.5,-170 1039.5,-195 1140.5,-195 1140.5,-170 1039.5,-170"/>
<text text-anchor="start" x="1044.5" y="-179.8" font-family="monospace" font-style="italic" font-size="14.00" fill="#95a5a6">boolean</text>
<polygon fill="#ffffff" stroke="none" points="913.5,-145 913.5,-170 1039.5,-170 1039.5,-145 913.5,-145"/>
<polygon fill="none" stroke="#2c3e50" points="913.5,-145 913.5,-170 1039.5,-170 1039.5,-145 913.5,-145"/>
<text text-anchor="start" x="918.5" y="-153.8" font-family="monospace" font-size="14.00" fill="#000000">relhaspkey</text>
<polygon fill="#ffffff" stroke="none" points="1039.5,-145 1039.5,-170 1140.5,-170 1140.5,-145 1039.5,-145"/>
<polygon fill="none" stroke="#2c3e50" points="1039.5,-145 1039.5,-170 1140.5,-170 1140.5,-145 1039.5,-145"/>
<text text-anchor="start" x="1044.5" y="-154.8" font-family="monospace" font-style="italic" font-size="14.00" fill="#95a5a6">boolean</text>
<polygon fill="#ffffff" stroke="none" points="913.5,-120 913.5,-145 1039.5,-145 1039.5,-120 913.5,-120"/>
<polygon fill="none" stroke="#2c3e50" points="913.5,-120 913.5,-145 1039.5,-145 1039.5,-120 913.5,-120"/>
<text text-anchor="start" x="918.5" y="-128.8" font-family="monospace" font-size="14.00" fill="#000000">relhasrules</text>
<polygon fill="#ffffff" stroke="none" points="1039.5,-120 1039.5,-145 1140.5,-145 1140.5,-120 1039.5,-120"/>
<polygon fill="none" stroke="#2c3e50" points="1039.5,-120 1039.5,-145 1140.5,-145 1140.5,-120 1039.5,-120"/>
<text text-anchor="start" x="1044.5" y="-129.8" font-family="monospace" font-style="italic" font-size="14.00" fill="#95a5a6">boolean</text>
<polygon fill="#ffffff" stroke="none" points="913.5,-95 913.5,-120 1039.5,-120 1039.5,-95 913.5,-95"/>
<polygon fill="none" stroke="#2c3e50" points="913.5,-95 913.5,-120 1039.5,-120 1039.5,-95 913.5,-95"/>
<text text-anchor="start" x="918.5" y="-103.8" font-family="monospace" font-size="14.00" fill="#000000">relhassubclass</text>
<polygon fill="#ffffff" stroke="none" points="1039.5,-95 1039.5,-120 1140.5,-120 1140.5,-95 1039.5,-95"/>
<polygon fill="none" stroke="#2c3e50" points="1039.5,-95 1039.5,-120 1140.5,-120 1140.5,-95 1039.5,-95"/>
<text text-anchor="start" x="1044.5" y="-104.8" font-family="monospace" font-style="italic" font-size="14.00" fill="#95a5a6">boolean</text>
<polygon fill="#ffffff" stroke="none" points="913.5,-70 913.5,-95 1039.5,-95 1039.5,-70 913.5,-70"/>
<polygon fill="none" stroke="#2c3e50" points="913.5,-70 913.5,-95 1039.5,-95 1039.5,-70 913.5,-70"/>
<text text-anchor="start" x="918.5" y="-78.8" font-family="monospace" font-size="14.00" fill="#000000">relfrozenxid</text>
<polygon fill="#ffffff" stroke="none" points="1039.5,-70 1039.5,-95 1140.5,-95 1140.5,-70 1039.5,-70"/>
<polygon fill="none" stroke="#2c3e50" points="1039.5,-70 1039.5,-95 1140.5,-95 1140.5,-70 1039.5,-70"/>
<text text-anchor="start" x="1044.5" y="-79.8" font-family="monospace" font-style="italic" font-size="14.00" fill="#95a5a6">xid</text>
<polygon fill="#ffffff" stroke="none" points="913.5,-45 913.5,-70 1039.5,-70 1039.5,-45 913.5,-45"/>
<polygon fill="none" stroke="#2c3e50" points="913.5,-45 913.5,-70 1039.5,-70 1039.5,-45 913.5,-45"/>
<text text-anchor="start" x="918.5" y="-53.8" font-family="monospace" font-size="14.00" fill="#000000">relacl</text>
<polygon fill="#ffffff" stroke="none" points="1039.5,-45 1039.5,-70 1140.5,-70 1140.5,-45 1039.5,-45"/>
<polygon fill="none" stroke="#2c3e50" points="1039.5,-45 1039.5,-70 1140.5,-70 1140.5,-45 1039.5,-45"/>
<text text-anchor="start" x="1044.5" y="-54.8" font-family="monospace" font-style="italic" font-size="14.00" fill="#95a5a6">aclitem[]</text>
<polygon fill="#ffffff" stroke="none" points="913.5,-20 913.5,-45 1039.5,-45 1039.5,-20 913.5,-20"/>
<polygon fill="none" stroke="#2c3e50" points="913.5,-20 913.5,-45 1039.5,-45 1039.5,-20 913.5,-20"/>
<text text-anchor="start" x="918.5" y="-28.8" font-family="monospace" font-size="14.00" fill="#000000">reloptions</text>
<polygon fill="#ffffff" stroke="none" points="1039.5,-20 1039.5,-45 1140.5,-45 1140.5,-20 1039.5,-20"/>
<polygon fill="none" stroke="#2c3e50" points="1039.5,-20 1039.5,-45 1140.5,-45 1140.5,-20 1039.5,-20"/>
<text text-anchor="start" x="1044.5" y="-29.8" font-family="monospace" font-style="italic" font-size="14.00" fill="#95a5a6">text[]</text>
</a>
</g>
</g>
<!-- pg_shdescription&#45;&gt;pg_class -->
<g id="edge1" class="edge"><title>pg_shdescription:classoid_out&#45;&gt;pg_class:oid_in</title>
<path fill="none" stroke="#2c3e50" d="M426.5,-783C639.125,-783 694.773,-783 902.492,-783"/>
<polygon fill="#2c3e50" stroke="#2c3e50" points="902.5,-786.5 912.5,-783 902.5,-779.5 902.5,-786.5"/>
</g>
</g>
</svg>
