<?xml version="1.0" encoding="UTF-8" standalone="no"?>
<!DOCTYPE svg PUBLIC "-//W3C//DTD SVG 1.1//EN"
 "http://www.w3.org/Graphics/SVG/1.1/DTD/svg11.dtd">
<!-- Generated by graphviz version 2.38.0 (20140413.2041)
 -->
<!-- Title: GPDB Pages: 1 -->
<svg width="1476pt" height="829pt"
 viewBox="0.00 0.00 1476.00 829.00" xmlns="http://www.w3.org/2000/svg" xmlns:xlink="http://www.w3.org/1999/xlink">
<g id="graph0" class="graph" transform="scale(1 1) rotate(0) translate(36 793)">
<title>GPDB</title>
<polygon fill="white" stroke="none" points="-36,36 -36,-793 1440,-793 1440,36 -36,36"/>
<text text-anchor="middle" x="702" y="-727.4" font-family="Helvetica,sans-Serif" font-size="32.00">Greenplum System Catalog: pg_type_encoding</text>
<g id="clust2" class="cluster"><title>cluster_selected</title>
</g>
<g id="clust3" class="cluster"><title>cluster_to</title>
</g>
<!-- pg_type_encoding -->
<g id="node1" class="node"><title>pg_type_encoding</title>
<polygon fill="#2c3e50" stroke="none" points="256.5,-621 256.5,-651 435.5,-651 435.5,-621 256.5,-621"/>
<polygon fill="none" stroke="black" points="256.5,-621 256.5,-651 435.5,-651 435.5,-621 256.5,-621"/>
<text text-anchor="start" x="261.5" y="-632.6" font-family="monospace" font-weight="bold" font-size="18.00" fill="#ffffff">pg_type_encoding</text>
<polygon fill="#ffffff" stroke="none" points="256.5,-596 256.5,-621 362.5,-621 362.5,-596 256.5,-596"/>
<polygon fill="none" stroke="#2c3e50" points="256.5,-596 256.5,-621 362.5,-621 362.5,-596 256.5,-596"/>
<text text-anchor="start" x="261.5" y="-604.8" font-family="monospace" font-size="14.00" fill="#000000">typid</text>
<polygon fill="#18bc9c" stroke="none" points="362.5,-596 362.5,-621 435.5,-621 435.5,-596 362.5,-596"/>
<polygon fill="none" stroke="#2c3e50" points="362.5,-596 362.5,-621 435.5,-621 435.5,-596 362.5,-596"/>
<text text-anchor="start" x="367.5" y="-605.8" font-family="monospace" font-style="italic" font-size="14.00" fill="#ffffff">oid</text>
<polygon fill="#ffffff" stroke="none" points="256.5,-571 256.5,-596 362.5,-596 362.5,-571 256.5,-571"/>
<polygon fill="none" stroke="#2c3e50" points="256.5,-571 256.5,-596 362.5,-596 362.5,-571 256.5,-571"/>
<text text-anchor="start" x="261.5" y="-579.8" font-family="monospace" font-size="14.00" fill="#000000">typoptions</text>
<polygon fill="#ffffff" stroke="none" points="362.5,-571 362.5,-596 435.5,-596 435.5,-571 362.5,-571"/>
<polygon fill="none" stroke="#2c3e50" points="362.5,-571 362.5,-596 435.5,-596 435.5,-571 362.5,-571"/>
<text text-anchor="start" x="367.5" y="-580.8" font-family="monospace" font-style="italic" font-size="14.00" fill="#95a5a6">text[]</text>
</g>
<!-- pg_type -->
<g id="node2" class="node"><title>pg_type</title>
<polygon fill="#2c3e50" stroke="none" points="948.5,-620 948.5,-650 1167.5,-650 1167.5,-620 948.5,-620"/>
<polygon fill="none" stroke="black" points="948.5,-620 948.5,-650 1167.5,-650 1167.5,-620 948.5,-620"/>
<text text-anchor="start" x="1021" y="-631.6" font-family="monospace" font-weight="bold" font-size="18.00" fill="#ffffff">pg_type</text>
<polygon fill="#18bc9c" stroke="none" points="948.5,-595 948.5,-620 1066.5,-620 1066.5,-595 948.5,-595"/>
<polygon fill="none" stroke="#2c3e50" points="948.5,-595 948.5,-620 1066.5,-620 1066.5,-595 948.5,-595"/>
<text text-anchor="start" x="953.5" y="-603.8" font-family="monospace" font-size="14.00" fill="#ffffff">oid</text>
<polygon fill="#ffffff" stroke="none" points="1066.5,-595 1066.5,-620 1167.5,-620 1167.5,-595 1066.5,-595"/>
<polygon fill="none" stroke="#2c3e50" points="1066.5,-595 1066.5,-620 1167.5,-620 1167.5,-595 1066.5,-595"/>
<text text-anchor="start" x="1071.5" y="-604.8" font-family="monospace" font-style="italic" font-size="14.00" fill="#95a5a6">oid</text>
<polygon fill="#ffffff" stroke="none" points="948.5,-570 948.5,-595 1066.5,-595 1066.5,-570 948.5,-570"/>
<polygon fill="none" stroke="#2c3e50" points="948.5,-570 948.5,-595 1066.5,-595 1066.5,-570 948.5,-570"/>
<text text-anchor="start" x="953.5" y="-578.8" font-family="monospace" font-size="14.00" fill="#000000">typname</text>
<polygon fill="#ffffff" stroke="none" points="1066.5,-570 1066.5,-595 1167.5,-595 1167.5,-570 1066.5,-570"/>
<polygon fill="none" stroke="#2c3e50" points="1066.5,-570 1066.5,-595 1167.5,-595 1167.5,-570 1066.5,-570"/>
<text text-anchor="start" x="1071.5" y="-579.8" font-family="monospace" font-style="italic" font-size="14.00" fill="#95a5a6">name</text>
<polygon fill="#ffffff" stroke="none" points="948.5,-545 948.5,-570 1066.5,-570 1066.5,-545 948.5,-545"/>
<polygon fill="none" stroke="#2c3e50" points="948.5,-545 948.5,-570 1066.5,-570 1066.5,-545 948.5,-545"/>
<text text-anchor="start" x="953.5" y="-553.8" font-family="monospace" font-size="14.00" fill="#000000">typnamespace</text>
<polygon fill="#ffffff" stroke="none" points="1066.5,-545 1066.5,-570 1167.5,-570 1167.5,-545 1066.5,-545"/>
<polygon fill="none" stroke="#2c3e50" points="1066.5,-545 1066.5,-570 1167.5,-570 1167.5,-545 1066.5,-545"/>
<text text-anchor="start" x="1071.5" y="-554.8" font-family="monospace" font-style="italic" font-size="14.00" fill="#95a5a6">oid</text>
<polygon fill="#ffffff" stroke="none" points="948.5,-520 948.5,-545 1066.5,-545 1066.5,-520 948.5,-520"/>
<polygon fill="none" stroke="#2c3e50" points="948.5,-520 948.5,-545 1066.5,-545 1066.5,-520 948.5,-520"/>
<text text-anchor="start" x="953.5" y="-528.8" font-family="monospace" font-size="14.00" fill="#000000">typowner</text>
<polygon fill="#ffffff" stroke="none" points="1066.5,-520 1066.5,-545 1167.5,-545 1167.5,-520 1066.5,-520"/>
<polygon fill="none" stroke="#2c3e50" points="1066.5,-520 1066.5,-545 1167.5,-545 1167.5,-520 1066.5,-520"/>
<text text-anchor="start" x="1071.5" y="-529.8" font-family="monospace" font-style="italic" font-size="14.00" fill="#95a5a6">oid</text>
<polygon fill="#ffffff" stroke="none" points="948.5,-495 948.5,-520 1066.5,-520 1066.5,-495 948.5,-495"/>
<polygon fill="none" stroke="#2c3e50" points="948.5,-495 948.5,-520 1066.5,-520 1066.5,-495 948.5,-495"/>
<text text-anchor="start" x="953.5" y="-503.8" font-family="monospace" font-size="14.00" fill="#000000">typlen</text>
<polygon fill="#ffffff" stroke="none" points="1066.5,-495 1066.5,-520 1167.5,-520 1167.5,-495 1066.5,-495"/>
<polygon fill="none" stroke="#2c3e50" points="1066.5,-495 1066.5,-520 1167.5,-520 1167.5,-495 1066.5,-495"/>
<text text-anchor="start" x="1071.5" y="-504.8" font-family="monospace" font-style="italic" font-size="14.00" fill="#95a5a6">smallint</text>
<polygon fill="#ffffff" stroke="none" points="948.5,-470 948.5,-495 1066.5,-495 1066.5,-470 948.5,-470"/>
<polygon fill="none" stroke="#2c3e50" points="948.5,-470 948.5,-495 1066.5,-495 1066.5,-470 948.5,-470"/>
<text text-anchor="start" x="953.5" y="-478.8" font-family="monospace" font-size="14.00" fill="#000000">typbyval</text>
<polygon fill="#ffffff" stroke="none" points="1066.5,-470 1066.5,-495 1167.5,-495 1167.5,-470 1066.5,-470"/>
<polygon fill="none" stroke="#2c3e50" points="1066.5,-470 1066.5,-495 1167.5,-495 1167.5,-470 1066.5,-470"/>
<text text-anchor="start" x="1071.5" y="-479.8" font-family="monospace" font-style="italic" font-size="14.00" fill="#95a5a6">boolean</text>
<polygon fill="#ffffff" stroke="none" points="948.5,-445 948.5,-470 1066.5,-470 1066.5,-445 948.5,-445"/>
<polygon fill="none" stroke="#2c3e50" points="948.5,-445 948.5,-470 1066.5,-470 1066.5,-445 948.5,-445"/>
<text text-anchor="start" x="953.5" y="-453.8" font-family="monospace" font-size="14.00" fill="#000000">typtype</text>
<polygon fill="#ffffff" stroke="none" points="1066.5,-445 1066.5,-470 1167.5,-470 1167.5,-445 1066.5,-445"/>
<polygon fill="none" stroke="#2c3e50" points="1066.5,-445 1066.5,-470 1167.5,-470 1167.5,-445 1066.5,-445"/>
<text text-anchor="start" x="1071.5" y="-454.8" font-family="monospace" font-style="italic" font-size="14.00" fill="#95a5a6">quoted_char</text>
<polygon fill="#ffffff" stroke="none" points="948.5,-420 948.5,-445 1066.5,-445 1066.5,-420 948.5,-420"/>
<polygon fill="none" stroke="#2c3e50" points="948.5,-420 948.5,-445 1066.5,-445 1066.5,-420 948.5,-420"/>
<text text-anchor="start" x="953.5" y="-428.8" font-family="monospace" font-size="14.00" fill="#000000">typisdefined</text>
<polygon fill="#ffffff" stroke="none" points="1066.5,-420 1066.5,-445 1167.5,-445 1167.5,-420 1066.5,-420"/>
<polygon fill="none" stroke="#2c3e50" points="1066.5,-420 1066.5,-445 1167.5,-445 1167.5,-420 1066.5,-420"/>
<text text-anchor="start" x="1071.5" y="-429.8" font-family="monospace" font-style="italic" font-size="14.00" fill="#95a5a6">boolean</text>
<polygon fill="#ffffff" stroke="none" points="948.5,-395 948.5,-420 1066.5,-420 1066.5,-395 948.5,-395"/>
<polygon fill="none" stroke="#2c3e50" points="948.5,-395 948.5,-420 1066.5,-420 1066.5,-395 948.5,-395"/>
<text text-anchor="start" x="953.5" y="-403.8" font-family="monospace" font-size="14.00" fill="#000000">typdelim</text>
<polygon fill="#ffffff" stroke="none" points="1066.5,-395 1066.5,-420 1167.5,-420 1167.5,-395 1066.5,-395"/>
<polygon fill="none" stroke="#2c3e50" points="1066.5,-395 1066.5,-420 1167.5,-420 1167.5,-395 1066.5,-395"/>
<text text-anchor="start" x="1071.5" y="-404.8" font-family="monospace" font-style="italic" font-size="14.00" fill="#95a5a6">quoted_char</text>
<polygon fill="#ffffff" stroke="none" points="948.5,-370 948.5,-395 1066.5,-395 1066.5,-370 948.5,-370"/>
<polygon fill="none" stroke="#2c3e50" points="948.5,-370 948.5,-395 1066.5,-395 1066.5,-370 948.5,-370"/>
<text text-anchor="start" x="953.5" y="-378.8" font-family="monospace" font-size="14.00" fill="#000000">typrelid</text>
<polygon fill="#ffffff" stroke="none" points="1066.5,-370 1066.5,-395 1167.5,-395 1167.5,-370 1066.5,-370"/>
<polygon fill="none" stroke="#2c3e50" points="1066.5,-370 1066.5,-395 1167.5,-395 1167.5,-370 1066.5,-370"/>
<text text-anchor="start" x="1071.5" y="-379.8" font-family="monospace" font-style="italic" font-size="14.00" fill="#95a5a6">oid</text>
<polygon fill="#ffffff" stroke="none" points="948.5,-345 948.5,-370 1066.5,-370 1066.5,-345 948.5,-345"/>
<polygon fill="none" stroke="#2c3e50" points="948.5,-345 948.5,-370 1066.5,-370 1066.5,-345 948.5,-345"/>
<text text-anchor="start" x="953.5" y="-353.8" font-family="monospace" font-size="14.00" fill="#000000">typelem</text>
<polygon fill="#ffffff" stroke="none" points="1066.5,-345 1066.5,-370 1167.5,-370 1167.5,-345 1066.5,-345"/>
<polygon fill="none" stroke="#2c3e50" points="1066.5,-345 1066.5,-370 1167.5,-370 1167.5,-345 1066.5,-345"/>
<text text-anchor="start" x="1071.5" y="-354.8" font-family="monospace" font-style="italic" font-size="14.00" fill="#95a5a6">oid</text>
<polygon fill="#ffffff" stroke="none" points="948.5,-320 948.5,-345 1066.5,-345 1066.5,-320 948.5,-320"/>
<polygon fill="none" stroke="#2c3e50" points="948.5,-320 948.5,-345 1066.5,-345 1066.5,-320 948.5,-320"/>
<text text-anchor="start" x="953.5" y="-328.8" font-family="monospace" font-size="14.00" fill="#000000">typinput</text>
<polygon fill="#ffffff" stroke="none" points="1066.5,-320 1066.5,-345 1167.5,-345 1167.5,-320 1066.5,-320"/>
<polygon fill="none" stroke="#2c3e50" points="1066.5,-320 1066.5,-345 1167.5,-345 1167.5,-320 1066.5,-320"/>
<text text-anchor="start" x="1071.5" y="-329.8" font-family="monospace" font-style="italic" font-size="14.00" fill="#95a5a6">regproc</text>
<polygon fill="#ffffff" stroke="none" points="948.5,-295 948.5,-320 1066.5,-320 1066.5,-295 948.5,-295"/>
<polygon fill="none" stroke="#2c3e50" points="948.5,-295 948.5,-320 1066.5,-320 1066.5,-295 948.5,-295"/>
<text text-anchor="start" x="953.5" y="-303.8" font-family="monospace" font-size="14.00" fill="#000000">typoutput</text>
<polygon fill="#ffffff" stroke="none" points="1066.5,-295 1066.5,-320 1167.5,-320 1167.5,-295 1066.5,-295"/>
<polygon fill="none" stroke="#2c3e50" points="1066.5,-295 1066.5,-320 1167.5,-320 1167.5,-295 1066.5,-295"/>
<text text-anchor="start" x="1071.5" y="-304.8" font-family="monospace" font-style="italic" font-size="14.00" fill="#95a5a6">regproc</text>
<polygon fill="#ffffff" stroke="none" points="948.5,-270 948.5,-295 1066.5,-295 1066.5,-270 948.5,-270"/>
<polygon fill="none" stroke="#2c3e50" points="948.5,-270 948.5,-295 1066.5,-295 1066.5,-270 948.5,-270"/>
<text text-anchor="start" x="953.5" y="-278.8" font-family="monospace" font-size="14.00" fill="#000000">typreceive</text>
<polygon fill="#ffffff" stroke="none" points="1066.5,-270 1066.5,-295 1167.5,-295 1167.5,-270 1066.5,-270"/>
<polygon fill="none" stroke="#2c3e50" points="1066.5,-270 1066.5,-295 1167.5,-295 1167.5,-270 1066.5,-270"/>
<text text-anchor="start" x="1071.5" y="-279.8" font-family="monospace" font-style="italic" font-size="14.00" fill="#95a5a6">regproc</text>
<polygon fill="#ffffff" stroke="none" points="948.5,-245 948.5,-270 1066.5,-270 1066.5,-245 948.5,-245"/>
<polygon fill="none" stroke="#2c3e50" points="948.5,-245 948.5,-270 1066.5,-270 1066.5,-245 948.5,-245"/>
<text text-anchor="start" x="953.5" y="-253.8" font-family="monospace" font-size="14.00" fill="#000000">typsend</text>
<polygon fill="#ffffff" stroke="none" points="1066.5,-245 1066.5,-270 1167.5,-270 1167.5,-245 1066.5,-245"/>
<polygon fill="none" stroke="#2c3e50" points="1066.5,-245 1066.5,-270 1167.5,-270 1167.5,-245 1066.5,-245"/>
<text text-anchor="start" x="1071.5" y="-254.8" font-family="monospace" font-style="italic" font-size="14.00" fill="#95a5a6">regproc</text>
<polygon fill="#ffffff" stroke="none" points="948.5,-220 948.5,-245 1066.5,-245 1066.5,-220 948.5,-220"/>
<polygon fill="none" stroke="#2c3e50" points="948.5,-220 948.5,-245 1066.5,-245 1066.5,-220 948.5,-220"/>
<text text-anchor="start" x="953.5" y="-228.8" font-family="monospace" font-size="14.00" fill="#000000">typanalyze</text>
<polygon fill="#ffffff" stroke="none" points="1066.5,-220 1066.5,-245 1167.5,-245 1167.5,-220 1066.5,-220"/>
<polygon fill="none" stroke="#2c3e50" points="1066.5,-220 1066.5,-245 1167.5,-245 1167.5,-220 1066.5,-220"/>
<text text-anchor="start" x="1071.5" y="-229.8" font-family="monospace" font-style="italic" font-size="14.00" fill="#95a5a6">regproc</text>
<polygon fill="#ffffff" stroke="none" points="948.5,-195 948.5,-220 1066.5,-220 1066.5,-195 948.5,-195"/>
<polygon fill="none" stroke="#2c3e50" points="948.5,-195 948.5,-220 1066.5,-220 1066.5,-195 948.5,-195"/>
<text text-anchor="start" x="953.5" y="-203.8" font-family="monospace" font-size="14.00" fill="#000000">typalign</text>
<polygon fill="#ffffff" stroke="none" points="1066.5,-195 1066.5,-220 1167.5,-220 1167.5,-195 1066.5,-195"/>
<polygon fill="none" stroke="#2c3e50" points="1066.5,-195 1066.5,-220 1167.5,-220 1167.5,-195 1066.5,-195"/>
<text text-anchor="start" x="1071.5" y="-204.8" font-family="monospace" font-style="italic" font-size="14.00" fill="#95a5a6">quoted_char</text>
<polygon fill="#ffffff" stroke="none" points="948.5,-170 948.5,-195 1066.5,-195 1066.5,-170 948.5,-170"/>
<polygon fill="none" stroke="#2c3e50" points="948.5,-170 948.5,-195 1066.5,-195 1066.5,-170 948.5,-170"/>
<text text-anchor="start" x="953.5" y="-178.8" font-family="monospace" font-size="14.00" fill="#000000">typstorage</text>
<polygon fill="#ffffff" stroke="none" points="1066.5,-170 1066.5,-195 1167.5,-195 1167.5,-170 1066.5,-170"/>
<polygon fill="none" stroke="#2c3e50" points="1066.5,-170 1066.5,-195 1167.5,-195 1167.5,-170 1066.5,-170"/>
<text text-anchor="start" x="1071.5" y="-179.8" font-family="monospace" font-style="italic" font-size="14.00" fill="#95a5a6">quoted_char</text>
<polygon fill="#ffffff" stroke="none" points="948.5,-145 948.5,-170 1066.5,-170 1066.5,-145 948.5,-145"/>
<polygon fill="none" stroke="#2c3e50" points="948.5,-145 948.5,-170 1066.5,-170 1066.5,-145 948.5,-145"/>
<text text-anchor="start" x="953.5" y="-153.8" font-family="monospace" font-size="14.00" fill="#000000">typnotnull</text>
<polygon fill="#ffffff" stroke="none" points="1066.5,-145 1066.5,-170 1167.5,-170 1167.5,-145 1066.5,-145"/>
<polygon fill="none" stroke="#2c3e50" points="1066.5,-145 1066.5,-170 1167.5,-170 1167.5,-145 1066.5,-145"/>
<text text-anchor="start" x="1071.5" y="-154.8" font-family="monospace" font-style="italic" font-size="14.00" fill="#95a5a6">boolean</text>
<polygon fill="#ffffff" stroke="none" points="948.5,-120 948.5,-145 1066.5,-145 1066.5,-120 948.5,-120"/>
<polygon fill="none" stroke="#2c3e50" points="948.5,-120 948.5,-145 1066.5,-145 1066.5,-120 948.5,-120"/>
<text text-anchor="start" x="953.5" y="-128.8" font-family="monospace" font-size="14.00" fill="#000000">typbasetype</text>
<polygon fill="#ffffff" stroke="none" points="1066.5,-120 1066.5,-145 1167.5,-145 1167.5,-120 1066.5,-120"/>
<polygon fill="none" stroke="#2c3e50" points="1066.5,-120 1066.5,-145 1167.5,-145 1167.5,-120 1066.5,-120"/>
<text text-anchor="start" x="1071.5" y="-129.8" font-family="monospace" font-style="italic" font-size="14.00" fill="#95a5a6">oid</text>
<polygon fill="#ffffff" stroke="none" points="948.5,-95 948.5,-120 1066.5,-120 1066.5,-95 948.5,-95"/>
<polygon fill="none" stroke="#2c3e50" points="948.5,-95 948.5,-120 1066.5,-120 1066.5,-95 948.5,-95"/>
<text text-anchor="start" x="953.5" y="-103.8" font-family="monospace" font-size="14.00" fill="#000000">typtypmod</text>
<polygon fill="#ffffff" stroke="none" points="1066.5,-95 1066.5,-120 1167.5,-120 1167.5,-95 1066.5,-95"/>
<polygon fill="none" stroke="#2c3e50" points="1066.5,-95 1066.5,-120 1167.5,-120 1167.5,-95 1066.5,-95"/>
<text text-anchor="start" x="1071.5" y="-104.8" font-family="monospace" font-style="italic" font-size="14.00" fill="#95a5a6">integer</text>
<polygon fill="#ffffff" stroke="none" points="948.5,-70 948.5,-95 1066.5,-95 1066.5,-70 948.5,-70"/>
<polygon fill="none" stroke="#2c3e50" points="948.5,-70 948.5,-95 1066.5,-95 1066.5,-70 948.5,-70"/>
<text text-anchor="start" x="953.5" y="-78.8" font-family="monospace" font-size="14.00" fill="#000000">typndims</text>
<polygon fill="#ffffff" stroke="none" points="1066.5,-70 1066.5,-95 1167.5,-95 1167.5,-70 1066.5,-70"/>
<polygon fill="none" stroke="#2c3e50" points="1066.5,-70 1066.5,-95 1167.5,-95 1167.5,-70 1066.5,-70"/>
<text text-anchor="start" x="1071.5" y="-79.8" font-family="monospace" font-style="italic" font-size="14.00" fill="#95a5a6">integer</text>
<polygon fill="#ffffff" stroke="none" points="948.5,-45 948.5,-70 1066.5,-70 1066.5,-45 948.5,-45"/>
<polygon fill="none" stroke="#2c3e50" points="948.5,-45 948.5,-70 1066.5,-70 1066.5,-45 948.5,-45"/>
<text text-anchor="start" x="953.5" y="-53.8" font-family="monospace" font-size="14.00" fill="#000000">typdefaultbin</text>
<polygon fill="#ffffff" stroke="none" points="1066.5,-45 1066.5,-70 1167.5,-70 1167.5,-45 1066.5,-45"/>
<polygon fill="none" stroke="#2c3e50" points="1066.5,-45 1066.5,-70 1167.5,-70 1167.5,-45 1066.5,-45"/>
<text text-anchor="start" x="1071.5" y="-54.8" font-family="monospace" font-style="italic" font-size="14.00" fill="#95a5a6">text</text>
<polygon fill="#ffffff" stroke="none" points="948.5,-20 948.5,-45 1066.5,-45 1066.5,-20 948.5,-20"/>
<polygon fill="none" stroke="#2c3e50" points="948.5,-20 948.5,-45 1066.5,-45 1066.5,-20 948.5,-20"/>
<text text-anchor="start" x="953.5" y="-28.8" font-family="monospace" font-size="14.00" fill="#000000">typdefault</text>
<polygon fill="#ffffff" stroke="none" points="1066.5,-20 1066.5,-45 1167.5,-45 1167.5,-20 1066.5,-20"/>
<polygon fill="none" stroke="#2c3e50" points="1066.5,-20 1066.5,-45 1167.5,-45 1167.5,-20 1066.5,-20"/>
<text text-anchor="start" x="1071.5" y="-29.8" font-family="monospace" font-style="italic" font-size="14.00" fill="#95a5a6">text</text>
</g>
<!-- pg_type_encoding&#45;&gt;pg_type -->
<g id="edge1" class="edge"><title>pg_type_encoding:typid_out&#45;&gt;pg_type:oid_in</title>
<path fill="none" stroke="#2c3e50" d="M436.5,-608C660.173,-608 718.631,-608 937.303,-608"/>
<polygon fill="#2c3e50" stroke="#2c3e50" points="937.5,-611.5 947.5,-608 937.5,-604.5 937.5,-611.5"/>
</g>
</g>
</svg>
