<?xml version="1.0" encoding="UTF-8" standalone="no"?>
<!DOCTYPE svg PUBLIC "-//W3C//DTD SVG 1.1//EN"
 "http://www.w3.org/Graphics/SVG/1.1/DTD/svg11.dtd">
<!-- Generated by graphviz version 2.38.0 (20140413.2041)
 -->
<!-- Title: GPDB Pages: 1 -->
<svg width="1240pt" height="1628pt"
 viewBox="0.00 0.00 1240.00 1628.00" xmlns="http://www.w3.org/2000/svg" xmlns:xlink="http://www.w3.org/1999/xlink">
<g id="graph0" class="graph" transform="scale(1 1) rotate(0) translate(36 1592)">
<title>GPDB</title>
<polygon fill="white" stroke="none" points="-36,36 -36,-1592 1204,-1592 1204,36 -36,36"/>
<text text-anchor="middle" x="584" y="-1526.4" font-family="Helvetica,sans-Serif" font-size="32.00">Greenplum System Catalog: pg_trigger</text>
<g id="clust2" class="cluster"><title>cluster_selected</title>
</g>
<g id="clust3" class="cluster"><title>cluster_to</title>
</g>
<!-- pg_trigger -->
<g id="node1" class="node"><title>pg_trigger</title>
<polygon fill="#2c3e50" stroke="none" points="177.5,-996 177.5,-1026 396.5,-1026 396.5,-996 177.5,-996"/>
<polygon fill="none" stroke="black" points="177.5,-996 177.5,-1026 396.5,-1026 396.5,-996 177.5,-996"/>
<text text-anchor="start" x="234" y="-1007.6" font-family="monospace" font-weight="bold" font-size="18.00" fill="#ffffff">pg_trigger</text>
<polygon fill="#ffffff" stroke="none" points="177.5,-971 177.5,-996 303.5,-996 303.5,-971 177.5,-971"/>
<polygon fill="none" stroke="#2c3e50" points="177.5,-971 177.5,-996 303.5,-996 303.5,-971 177.5,-971"/>
<text text-anchor="start" x="182.5" y="-979.8" font-family="monospace" font-size="14.00" fill="#000000">oid</text>
<polygon fill="#ffffff" stroke="none" points="303.5,-971 303.5,-996 396.5,-996 396.5,-971 303.5,-971"/>
<polygon fill="none" stroke="#2c3e50" points="303.5,-971 303.5,-996 396.5,-996 396.5,-971 303.5,-971"/>
<text text-anchor="start" x="308.5" y="-980.8" font-family="monospace" font-style="italic" font-size="14.00" fill="#95a5a6">oid</text>
<polygon fill="#ffffff" stroke="none" points="177.5,-946 177.5,-971 303.5,-971 303.5,-946 177.5,-946"/>
<polygon fill="none" stroke="#2c3e50" points="177.5,-946 177.5,-971 303.5,-971 303.5,-946 177.5,-946"/>
<text text-anchor="start" x="182.5" y="-954.8" font-family="monospace" font-size="14.00" fill="#000000">tgrelid</text>
<polygon fill="#18bc9c" stroke="none" points="303.5,-946 303.5,-971 396.5,-971 396.5,-946 303.5,-946"/>
<polygon fill="none" stroke="#2c3e50" points="303.5,-946 303.5,-971 396.5,-971 396.5,-946 303.5,-946"/>
<text text-anchor="start" x="308.5" y="-955.8" font-family="monospace" font-style="italic" font-size="14.00" fill="#ffffff">oid</text>
<polygon fill="#ffffff" stroke="none" points="177.5,-921 177.5,-946 303.5,-946 303.5,-921 177.5,-921"/>
<polygon fill="none" stroke="#2c3e50" points="177.5,-921 177.5,-946 303.5,-946 303.5,-921 177.5,-921"/>
<text text-anchor="start" x="182.5" y="-929.8" font-family="monospace" font-size="14.00" fill="#000000">tgname</text>
<polygon fill="#ffffff" stroke="none" points="303.5,-921 303.5,-946 396.5,-946 396.5,-921 303.5,-921"/>
<polygon fill="none" stroke="#2c3e50" points="303.5,-921 303.5,-946 396.5,-946 396.5,-921 303.5,-921"/>
<text text-anchor="start" x="308.5" y="-930.8" font-family="monospace" font-style="italic" font-size="14.00" fill="#95a5a6">name</text>
<polygon fill="#ffffff" stroke="none" points="177.5,-896 177.5,-921 303.5,-921 303.5,-896 177.5,-896"/>
<polygon fill="none" stroke="#2c3e50" points="177.5,-896 177.5,-921 303.5,-921 303.5,-896 177.5,-896"/>
<text text-anchor="start" x="182.5" y="-904.8" font-family="monospace" font-size="14.00" fill="#000000">tgfoid</text>
<polygon fill="#18bc9c" stroke="none" points="303.5,-896 303.5,-921 396.5,-921 396.5,-896 303.5,-896"/>
<polygon fill="none" stroke="#2c3e50" points="303.5,-896 303.5,-921 396.5,-921 396.5,-896 303.5,-896"/>
<text text-anchor="start" x="308.5" y="-905.8" font-family="monospace" font-style="italic" font-size="14.00" fill="#ffffff">oid</text>
<polygon fill="#ffffff" stroke="none" points="177.5,-871 177.5,-896 303.5,-896 303.5,-871 177.5,-871"/>
<polygon fill="none" stroke="#2c3e50" points="177.5,-871 177.5,-896 303.5,-896 303.5,-871 177.5,-871"/>
<text text-anchor="start" x="182.5" y="-879.8" font-family="monospace" font-size="14.00" fill="#000000">tgtype</text>
<polygon fill="#ffffff" stroke="none" points="303.5,-871 303.5,-896 396.5,-896 396.5,-871 303.5,-871"/>
<polygon fill="none" stroke="#2c3e50" points="303.5,-871 303.5,-896 396.5,-896 396.5,-871 303.5,-871"/>
<text text-anchor="start" x="308.5" y="-880.8" font-family="monospace" font-style="italic" font-size="14.00" fill="#95a5a6">smallint</text>
<polygon fill="#ffffff" stroke="none" points="177.5,-846 177.5,-871 303.5,-871 303.5,-846 177.5,-846"/>
<polygon fill="none" stroke="#2c3e50" points="177.5,-846 177.5,-871 303.5,-871 303.5,-846 177.5,-846"/>
<text text-anchor="start" x="182.5" y="-854.8" font-family="monospace" font-size="14.00" fill="#000000">tgenabled</text>
<polygon fill="#ffffff" stroke="none" points="303.5,-846 303.5,-871 396.5,-871 396.5,-846 303.5,-846"/>
<polygon fill="none" stroke="#2c3e50" points="303.5,-846 303.5,-871 396.5,-871 396.5,-846 303.5,-846"/>
<text text-anchor="start" x="308.5" y="-855.8" font-family="monospace" font-style="italic" font-size="14.00" fill="#95a5a6">boolean</text>
<polygon fill="#ffffff" stroke="none" points="177.5,-821 177.5,-846 303.5,-846 303.5,-821 177.5,-821"/>
<polygon fill="none" stroke="#2c3e50" points="177.5,-821 177.5,-846 303.5,-846 303.5,-821 177.5,-821"/>
<text text-anchor="start" x="182.5" y="-829.8" font-family="monospace" font-size="14.00" fill="#000000">tgisconstraint</text>
<polygon fill="#ffffff" stroke="none" points="303.5,-821 303.5,-846 396.5,-846 396.5,-821 303.5,-821"/>
<polygon fill="none" stroke="#2c3e50" points="303.5,-821 303.5,-846 396.5,-846 396.5,-821 303.5,-821"/>
<text text-anchor="start" x="308.5" y="-830.8" font-family="monospace" font-style="italic" font-size="14.00" fill="#95a5a6">boolean</text>
<polygon fill="#ffffff" stroke="none" points="177.5,-796 177.5,-821 303.5,-821 303.5,-796 177.5,-796"/>
<polygon fill="none" stroke="#2c3e50" points="177.5,-796 177.5,-821 303.5,-821 303.5,-796 177.5,-796"/>
<text text-anchor="start" x="182.5" y="-804.8" font-family="monospace" font-size="14.00" fill="#000000">tgconstrname</text>
<polygon fill="#ffffff" stroke="none" points="303.5,-796 303.5,-821 396.5,-821 396.5,-796 303.5,-796"/>
<polygon fill="none" stroke="#2c3e50" points="303.5,-796 303.5,-821 396.5,-821 396.5,-796 303.5,-796"/>
<text text-anchor="start" x="308.5" y="-805.8" font-family="monospace" font-style="italic" font-size="14.00" fill="#95a5a6">name</text>
<polygon fill="#ffffff" stroke="none" points="177.5,-771 177.5,-796 303.5,-796 303.5,-771 177.5,-771"/>
<polygon fill="none" stroke="#2c3e50" points="177.5,-771 177.5,-796 303.5,-796 303.5,-771 177.5,-771"/>
<text text-anchor="start" x="182.5" y="-779.8" font-family="monospace" font-size="14.00" fill="#000000">tgconstrrelid</text>
<polygon fill="#18bc9c" stroke="none" points="303.5,-771 303.5,-796 396.5,-796 396.5,-771 303.5,-771"/>
<polygon fill="none" stroke="#2c3e50" points="303.5,-771 303.5,-796 396.5,-796 396.5,-771 303.5,-771"/>
<text text-anchor="start" x="308.5" y="-780.8" font-family="monospace" font-style="italic" font-size="14.00" fill="#ffffff">oid</text>
<polygon fill="#ffffff" stroke="none" points="177.5,-746 177.5,-771 303.5,-771 303.5,-746 177.5,-746"/>
<polygon fill="none" stroke="#2c3e50" points="177.5,-746 177.5,-771 303.5,-771 303.5,-746 177.5,-746"/>
<text text-anchor="start" x="182.5" y="-754.8" font-family="monospace" font-size="14.00" fill="#000000">tgdeferrable</text>
<polygon fill="#ffffff" stroke="none" points="303.5,-746 303.5,-771 396.5,-771 396.5,-746 303.5,-746"/>
<polygon fill="none" stroke="#2c3e50" points="303.5,-746 303.5,-771 396.5,-771 396.5,-746 303.5,-746"/>
<text text-anchor="start" x="308.5" y="-755.8" font-family="monospace" font-style="italic" font-size="14.00" fill="#95a5a6">boolean</text>
<polygon fill="#ffffff" stroke="none" points="177.5,-721 177.5,-746 303.5,-746 303.5,-721 177.5,-721"/>
<polygon fill="none" stroke="#2c3e50" points="177.5,-721 177.5,-746 303.5,-746 303.5,-721 177.5,-721"/>
<text text-anchor="start" x="182.5" y="-729.8" font-family="monospace" font-size="14.00" fill="#000000">tginitdeferred</text>
<polygon fill="#ffffff" stroke="none" points="303.5,-721 303.5,-746 396.5,-746 396.5,-721 303.5,-721"/>
<polygon fill="none" stroke="#2c3e50" points="303.5,-721 303.5,-746 396.5,-746 396.5,-721 303.5,-721"/>
<text text-anchor="start" x="308.5" y="-730.8" font-family="monospace" font-style="italic" font-size="14.00" fill="#95a5a6">boolean</text>
<polygon fill="#ffffff" stroke="none" points="177.5,-696 177.5,-721 303.5,-721 303.5,-696 177.5,-696"/>
<polygon fill="none" stroke="#2c3e50" points="177.5,-696 177.5,-721 303.5,-721 303.5,-696 177.5,-696"/>
<text text-anchor="start" x="182.5" y="-704.8" font-family="monospace" font-size="14.00" fill="#000000">tgnargs</text>
<polygon fill="#ffffff" stroke="none" points="303.5,-696 303.5,-721 396.5,-721 396.5,-696 303.5,-696"/>
<polygon fill="none" stroke="#2c3e50" points="303.5,-696 303.5,-721 396.5,-721 396.5,-696 303.5,-696"/>
<text text-anchor="start" x="308.5" y="-705.8" font-family="monospace" font-style="italic" font-size="14.00" fill="#95a5a6">smallint</text>
<polygon fill="#ffffff" stroke="none" points="177.5,-671 177.5,-696 303.5,-696 303.5,-671 177.5,-671"/>
<polygon fill="none" stroke="#2c3e50" points="177.5,-671 177.5,-696 303.5,-696 303.5,-671 177.5,-671"/>
<text text-anchor="start" x="182.5" y="-679.8" font-family="monospace" font-size="14.00" fill="#000000">tgattr</text>
<polygon fill="#ffffff" stroke="none" points="303.5,-671 303.5,-696 396.5,-696 396.5,-671 303.5,-671"/>
<polygon fill="none" stroke="#2c3e50" points="303.5,-671 303.5,-696 396.5,-696 396.5,-671 303.5,-671"/>
<text text-anchor="start" x="308.5" y="-680.8" font-family="monospace" font-style="italic" font-size="14.00" fill="#95a5a6">int2vector</text>
<polygon fill="#ffffff" stroke="none" points="177.5,-646 177.5,-671 303.5,-671 303.5,-646 177.5,-646"/>
<polygon fill="none" stroke="#2c3e50" points="177.5,-646 177.5,-671 303.5,-671 303.5,-646 177.5,-646"/>
<text text-anchor="start" x="182.5" y="-654.8" font-family="monospace" font-size="14.00" fill="#000000">tgargs</text>
<polygon fill="#ffffff" stroke="none" points="303.5,-646 303.5,-671 396.5,-671 396.5,-646 303.5,-646"/>
<polygon fill="none" stroke="#2c3e50" points="303.5,-646 303.5,-671 396.5,-671 396.5,-646 303.5,-646"/>
<text text-anchor="start" x="308.5" y="-655.8" font-family="monospace" font-style="italic" font-size="14.00" fill="#95a5a6">bytea</text>
</g>
<!-- pg_class -->
<g id="node2" class="node"><title>pg_class</title>
<polygon fill="#2c3e50" stroke="none" points="768,-795 768,-825 995,-825 995,-795 768,-795"/>
<polygon fill="none" stroke="black" points="768,-795 768,-825 995,-825 995,-795 768,-795"/>
<text text-anchor="start" x="839" y="-806.6" font-family="monospace" font-weight="bold" font-size="18.00" fill="#ffffff">pg_class</text>
<polygon fill="#18bc9c" stroke="none" points="768,-770 768,-795 894,-795 894,-770 768,-770"/>
<polygon fill="none" stroke="#2c3e50" points="768,-770 768,-795 894,-795 894,-770 768,-770"/>
<text text-anchor="start" x="773" y="-778.8" font-family="monospace" font-size="14.00" fill="#ffffff">oid</text>
<polygon fill="#ffffff" stroke="none" points="894,-770 894,-795 995,-795 995,-770 894,-770"/>
<polygon fill="none" stroke="#2c3e50" points="894,-770 894,-795 995,-795 995,-770 894,-770"/>
<text text-anchor="start" x="899" y="-779.8" font-family="monospace" font-style="italic" font-size="14.00" fill="#95a5a6">oid</text>
<polygon fill="#ffffff" stroke="none" points="768,-745 768,-770 894,-770 894,-745 768,-745"/>
<polygon fill="none" stroke="#2c3e50" points="768,-745 768,-770 894,-770 894,-745 768,-745"/>
<text text-anchor="start" x="773" y="-753.8" font-family="monospace" font-size="14.00" fill="#000000">relname</text>
<polygon fill="#ffffff" stroke="none" points="894,-745 894,-770 995,-770 995,-745 894,-745"/>
<polygon fill="none" stroke="#2c3e50" points="894,-745 894,-770 995,-770 995,-745 894,-745"/>
<text text-anchor="start" x="899" y="-754.8" font-family="monospace" font-style="italic" font-size="14.00" fill="#95a5a6">name</text>
<polygon fill="#ffffff" stroke="none" points="768,-720 768,-745 894,-745 894,-720 768,-720"/>
<polygon fill="none" stroke="#2c3e50" points="768,-720 768,-745 894,-745 894,-720 768,-720"/>
<text text-anchor="start" x="773" y="-728.8" font-family="monospace" font-size="14.00" fill="#000000">relnamespace</text>
<polygon fill="#ffffff" stroke="none" points="894,-720 894,-745 995,-745 995,-720 894,-720"/>
<polygon fill="none" stroke="#2c3e50" points="894,-720 894,-745 995,-745 995,-720 894,-720"/>
<text text-anchor="start" x="899" y="-729.8" font-family="monospace" font-style="italic" font-size="14.00" fill="#95a5a6">oid</text>
<polygon fill="#ffffff" stroke="none" points="768,-695 768,-720 894,-720 894,-695 768,-695"/>
<polygon fill="none" stroke="#2c3e50" points="768,-695 768,-720 894,-720 894,-695 768,-695"/>
<text text-anchor="start" x="773" y="-703.8" font-family="monospace" font-size="14.00" fill="#000000">reltype</text>
<polygon fill="#ffffff" stroke="none" points="894,-695 894,-720 995,-720 995,-695 894,-695"/>
<polygon fill="none" stroke="#2c3e50" points="894,-695 894,-720 995,-720 995,-695 894,-695"/>
<text text-anchor="start" x="899" y="-704.8" font-family="monospace" font-style="italic" font-size="14.00" fill="#95a5a6">oid</text>
<polygon fill="#ffffff" stroke="none" points="768,-670 768,-695 894,-695 894,-670 768,-670"/>
<polygon fill="none" stroke="#2c3e50" points="768,-670 768,-695 894,-695 894,-670 768,-670"/>
<text text-anchor="start" x="773" y="-678.8" font-family="monospace" font-size="14.00" fill="#000000">relowner</text>
<polygon fill="#ffffff" stroke="none" points="894,-670 894,-695 995,-695 995,-670 894,-670"/>
<polygon fill="none" stroke="#2c3e50" points="894,-670 894,-695 995,-695 995,-670 894,-670"/>
<text text-anchor="start" x="899" y="-679.8" font-family="monospace" font-style="italic" font-size="14.00" fill="#95a5a6">oid</text>
<polygon fill="#ffffff" stroke="none" points="768,-645 768,-670 894,-670 894,-645 768,-645"/>
<polygon fill="none" stroke="#2c3e50" points="768,-645 768,-670 894,-670 894,-645 768,-645"/>
<text text-anchor="start" x="773" y="-653.8" font-family="monospace" font-size="14.00" fill="#000000">relam</text>
<polygon fill="#ffffff" stroke="none" points="894,-645 894,-670 995,-670 995,-645 894,-645"/>
<polygon fill="none" stroke="#2c3e50" points="894,-645 894,-670 995,-670 995,-645 894,-645"/>
<text text-anchor="start" x="899" y="-654.8" font-family="monospace" font-style="italic" font-size="14.00" fill="#95a5a6">oid</text>
<polygon fill="#ffffff" stroke="none" points="768,-620 768,-645 894,-645 894,-620 768,-620"/>
<polygon fill="none" stroke="#2c3e50" points="768,-620 768,-645 894,-645 894,-620 768,-620"/>
<text text-anchor="start" x="773" y="-628.8" font-family="monospace" font-size="14.00" fill="#000000">relfilenode</text>
<polygon fill="#ffffff" stroke="none" points="894,-620 894,-645 995,-645 995,-620 894,-620"/>
<polygon fill="none" stroke="#2c3e50" points="894,-620 894,-645 995,-645 995,-620 894,-620"/>
<text text-anchor="start" x="899" y="-629.8" font-family="monospace" font-style="italic" font-size="14.00" fill="#95a5a6">oid</text>
<polygon fill="#ffffff" stroke="none" points="768,-595 768,-620 894,-620 894,-595 768,-595"/>
<polygon fill="none" stroke="#2c3e50" points="768,-595 768,-620 894,-620 894,-595 768,-595"/>
<text text-anchor="start" x="773" y="-603.8" font-family="monospace" font-size="14.00" fill="#000000">reltablespace</text>
<polygon fill="#ffffff" stroke="none" points="894,-595 894,-620 995,-620 995,-595 894,-595"/>
<polygon fill="none" stroke="#2c3e50" points="894,-595 894,-620 995,-620 995,-595 894,-595"/>
<text text-anchor="start" x="899" y="-604.8" font-family="monospace" font-style="italic" font-size="14.00" fill="#95a5a6">oid</text>
<polygon fill="#ffffff" stroke="none" points="768,-570 768,-595 894,-595 894,-570 768,-570"/>
<polygon fill="none" stroke="#2c3e50" points="768,-570 768,-595 894,-595 894,-570 768,-570"/>
<text text-anchor="start" x="773" y="-578.8" font-family="monospace" font-size="14.00" fill="#000000">relpages</text>
<polygon fill="#ffffff" stroke="none" points="894,-570 894,-595 995,-595 995,-570 894,-570"/>
<polygon fill="none" stroke="#2c3e50" points="894,-570 894,-595 995,-595 995,-570 894,-570"/>
<text text-anchor="start" x="899" y="-579.8" font-family="monospace" font-style="italic" font-size="14.00" fill="#95a5a6">integer</text>
<polygon fill="#ffffff" stroke="none" points="768,-545 768,-570 894,-570 894,-545 768,-545"/>
<polygon fill="none" stroke="#2c3e50" points="768,-545 768,-570 894,-570 894,-545 768,-545"/>
<text text-anchor="start" x="773" y="-553.8" font-family="monospace" font-size="14.00" fill="#000000">reltuples</text>
<polygon fill="#ffffff" stroke="none" points="894,-545 894,-570 995,-570 995,-545 894,-545"/>
<polygon fill="none" stroke="#2c3e50" points="894,-545 894,-570 995,-570 995,-545 894,-545"/>
<text text-anchor="start" x="899" y="-554.8" font-family="monospace" font-style="italic" font-size="14.00" fill="#95a5a6">real</text>
<polygon fill="#ffffff" stroke="none" points="768,-520 768,-545 894,-545 894,-520 768,-520"/>
<polygon fill="none" stroke="#2c3e50" points="768,-520 768,-545 894,-545 894,-520 768,-520"/>
<text text-anchor="start" x="773" y="-528.8" font-family="monospace" font-size="14.00" fill="#000000">reltoastrelid</text>
<polygon fill="#ffffff" stroke="none" points="894,-520 894,-545 995,-545 995,-520 894,-520"/>
<polygon fill="none" stroke="#2c3e50" points="894,-520 894,-545 995,-545 995,-520 894,-520"/>
<text text-anchor="start" x="899" y="-529.8" font-family="monospace" font-style="italic" font-size="14.00" fill="#95a5a6">oid</text>
<polygon fill="#ffffff" stroke="none" points="768,-495 768,-520 894,-520 894,-495 768,-495"/>
<polygon fill="none" stroke="#2c3e50" points="768,-495 768,-520 894,-520 894,-495 768,-495"/>
<text text-anchor="start" x="773" y="-503.8" font-family="monospace" font-size="14.00" fill="#000000">reltoastidxid</text>
<polygon fill="#ffffff" stroke="none" points="894,-495 894,-520 995,-520 995,-495 894,-495"/>
<polygon fill="none" stroke="#2c3e50" points="894,-495 894,-520 995,-520 995,-495 894,-495"/>
<text text-anchor="start" x="899" y="-504.8" font-family="monospace" font-style="italic" font-size="14.00" fill="#95a5a6">oid</text>
<polygon fill="#ffffff" stroke="none" points="768,-470 768,-495 894,-495 894,-470 768,-470"/>
<polygon fill="none" stroke="#2c3e50" points="768,-470 768,-495 894,-495 894,-470 768,-470"/>
<text text-anchor="start" x="773" y="-478.8" font-family="monospace" font-size="14.00" fill="#000000">relaosegrelid</text>
<polygon fill="#ffffff" stroke="none" points="894,-470 894,-495 995,-495 995,-470 894,-470"/>
<polygon fill="none" stroke="#2c3e50" points="894,-470 894,-495 995,-495 995,-470 894,-470"/>
<text text-anchor="start" x="899" y="-479.8" font-family="monospace" font-style="italic" font-size="14.00" fill="#95a5a6">oid</text>
<polygon fill="#ffffff" stroke="none" points="768,-445 768,-470 894,-470 894,-445 768,-445"/>
<polygon fill="none" stroke="#2c3e50" points="768,-445 768,-470 894,-470 894,-445 768,-445"/>
<text text-anchor="start" x="773" y="-453.8" font-family="monospace" font-size="14.00" fill="#000000">relaosegidxid</text>
<polygon fill="#ffffff" stroke="none" points="894,-445 894,-470 995,-470 995,-445 894,-445"/>
<polygon fill="none" stroke="#2c3e50" points="894,-445 894,-470 995,-470 995,-445 894,-445"/>
<text text-anchor="start" x="899" y="-454.8" font-family="monospace" font-style="italic" font-size="14.00" fill="#95a5a6">oid</text>
<polygon fill="#ffffff" stroke="none" points="768,-420 768,-445 894,-445 894,-420 768,-420"/>
<polygon fill="none" stroke="#2c3e50" points="768,-420 768,-445 894,-445 894,-420 768,-420"/>
<text text-anchor="start" x="773" y="-428.8" font-family="monospace" font-size="14.00" fill="#000000">relhasindex</text>
<polygon fill="#ffffff" stroke="none" points="894,-420 894,-445 995,-445 995,-420 894,-420"/>
<polygon fill="none" stroke="#2c3e50" points="894,-420 894,-445 995,-445 995,-420 894,-420"/>
<text text-anchor="start" x="899" y="-429.8" font-family="monospace" font-style="italic" font-size="14.00" fill="#95a5a6">boolean</text>
<polygon fill="#ffffff" stroke="none" points="768,-395 768,-420 894,-420 894,-395 768,-395"/>
<polygon fill="none" stroke="#2c3e50" points="768,-395 768,-420 894,-420 894,-395 768,-395"/>
<text text-anchor="start" x="773" y="-403.8" font-family="monospace" font-size="14.00" fill="#000000">relisshared</text>
<polygon fill="#ffffff" stroke="none" points="894,-395 894,-420 995,-420 995,-395 894,-395"/>
<polygon fill="none" stroke="#2c3e50" points="894,-395 894,-420 995,-420 995,-395 894,-395"/>
<text text-anchor="start" x="899" y="-404.8" font-family="monospace" font-style="italic" font-size="14.00" fill="#95a5a6">boolean</text>
<polygon fill="#ffffff" stroke="none" points="768,-370 768,-395 894,-395 894,-370 768,-370"/>
<polygon fill="none" stroke="#2c3e50" points="768,-370 768,-395 894,-395 894,-370 768,-370"/>
<text text-anchor="start" x="773" y="-378.8" font-family="monospace" font-size="14.00" fill="#000000">relkind</text>
<polygon fill="#ffffff" stroke="none" points="894,-370 894,-395 995,-395 995,-370 894,-370"/>
<polygon fill="none" stroke="#2c3e50" points="894,-370 894,-395 995,-395 995,-370 894,-370"/>
<text text-anchor="start" x="899" y="-379.8" font-family="monospace" font-style="italic" font-size="14.00" fill="#95a5a6">quoted_char</text>
<polygon fill="#ffffff" stroke="none" points="768,-345 768,-370 894,-370 894,-345 768,-345"/>
<polygon fill="none" stroke="#2c3e50" points="768,-345 768,-370 894,-370 894,-345 768,-345"/>
<text text-anchor="start" x="773" y="-353.8" font-family="monospace" font-size="14.00" fill="#000000">relstorage</text>
<polygon fill="#ffffff" stroke="none" points="894,-345 894,-370 995,-370 995,-345 894,-345"/>
<polygon fill="none" stroke="#2c3e50" points="894,-345 894,-370 995,-370 995,-345 894,-345"/>
<text text-anchor="start" x="899" y="-354.8" font-family="monospace" font-style="italic" font-size="14.00" fill="#95a5a6">quoted_char</text>
<polygon fill="#ffffff" stroke="none" points="768,-320 768,-345 894,-345 894,-320 768,-320"/>
<polygon fill="none" stroke="#2c3e50" points="768,-320 768,-345 894,-345 894,-320 768,-320"/>
<text text-anchor="start" x="773" y="-328.8" font-family="monospace" font-size="14.00" fill="#000000">relnatts</text>
<polygon fill="#ffffff" stroke="none" points="894,-320 894,-345 995,-345 995,-320 894,-320"/>
<polygon fill="none" stroke="#2c3e50" points="894,-320 894,-345 995,-345 995,-320 894,-320"/>
<text text-anchor="start" x="899" y="-329.8" font-family="monospace" font-style="italic" font-size="14.00" fill="#95a5a6">smallint</text>
<polygon fill="#ffffff" stroke="none" points="768,-295 768,-320 894,-320 894,-295 768,-295"/>
<polygon fill="none" stroke="#2c3e50" points="768,-295 768,-320 894,-320 894,-295 768,-295"/>
<text text-anchor="start" x="773" y="-303.8" font-family="monospace" font-size="14.00" fill="#000000">relchecks</text>
<polygon fill="#ffffff" stroke="none" points="894,-295 894,-320 995,-320 995,-295 894,-295"/>
<polygon fill="none" stroke="#2c3e50" points="894,-295 894,-320 995,-320 995,-295 894,-295"/>
<text text-anchor="start" x="899" y="-304.8" font-family="monospace" font-style="italic" font-size="14.00" fill="#95a5a6">smallint</text>
<polygon fill="#ffffff" stroke="none" points="768,-270 768,-295 894,-295 894,-270 768,-270"/>
<polygon fill="none" stroke="#2c3e50" points="768,-270 768,-295 894,-295 894,-270 768,-270"/>
<text text-anchor="start" x="773" y="-278.8" font-family="monospace" font-size="14.00" fill="#000000">reltriggers</text>
<polygon fill="#ffffff" stroke="none" points="894,-270 894,-295 995,-295 995,-270 894,-270"/>
<polygon fill="none" stroke="#2c3e50" points="894,-270 894,-295 995,-295 995,-270 894,-270"/>
<text text-anchor="start" x="899" y="-279.8" font-family="monospace" font-style="italic" font-size="14.00" fill="#95a5a6">smallint</text>
<polygon fill="#ffffff" stroke="none" points="768,-245 768,-270 894,-270 894,-245 768,-245"/>
<polygon fill="none" stroke="#2c3e50" points="768,-245 768,-270 894,-270 894,-245 768,-245"/>
<text text-anchor="start" x="773" y="-253.8" font-family="monospace" font-size="14.00" fill="#000000">relukeys</text>
<polygon fill="#ffffff" stroke="none" points="894,-245 894,-270 995,-270 995,-245 894,-245"/>
<polygon fill="none" stroke="#2c3e50" points="894,-245 894,-270 995,-270 995,-245 894,-245"/>
<text text-anchor="start" x="899" y="-254.8" font-family="monospace" font-style="italic" font-size="14.00" fill="#95a5a6">smallint</text>
<polygon fill="#ffffff" stroke="none" points="768,-220 768,-245 894,-245 894,-220 768,-220"/>
<polygon fill="none" stroke="#2c3e50" points="768,-220 768,-245 894,-245 894,-220 768,-220"/>
<text text-anchor="start" x="773" y="-228.8" font-family="monospace" font-size="14.00" fill="#000000">relfkeys</text>
<polygon fill="#ffffff" stroke="none" points="894,-220 894,-245 995,-245 995,-220 894,-220"/>
<polygon fill="none" stroke="#2c3e50" points="894,-220 894,-245 995,-245 995,-220 894,-220"/>
<text text-anchor="start" x="899" y="-229.8" font-family="monospace" font-style="italic" font-size="14.00" fill="#95a5a6">smallint</text>
<polygon fill="#ffffff" stroke="none" points="768,-195 768,-220 894,-220 894,-195 768,-195"/>
<polygon fill="none" stroke="#2c3e50" points="768,-195 768,-220 894,-220 894,-195 768,-195"/>
<text text-anchor="start" x="773" y="-203.8" font-family="monospace" font-size="14.00" fill="#000000">relrefs</text>
<polygon fill="#ffffff" stroke="none" points="894,-195 894,-220 995,-220 995,-195 894,-195"/>
<polygon fill="none" stroke="#2c3e50" points="894,-195 894,-220 995,-220 995,-195 894,-195"/>
<text text-anchor="start" x="899" y="-204.8" font-family="monospace" font-style="italic" font-size="14.00" fill="#95a5a6">smallint</text>
<polygon fill="#ffffff" stroke="none" points="768,-170 768,-195 894,-195 894,-170 768,-170"/>
<polygon fill="none" stroke="#2c3e50" points="768,-170 768,-195 894,-195 894,-170 768,-170"/>
<text text-anchor="start" x="773" y="-178.8" font-family="monospace" font-size="14.00" fill="#000000">relhasoids</text>
<polygon fill="#ffffff" stroke="none" points="894,-170 894,-195 995,-195 995,-170 894,-170"/>
<polygon fill="none" stroke="#2c3e50" points="894,-170 894,-195 995,-195 995,-170 894,-170"/>
<text text-anchor="start" x="899" y="-179.8" font-family="monospace" font-style="italic" font-size="14.00" fill="#95a5a6">boolean</text>
<polygon fill="#ffffff" stroke="none" points="768,-145 768,-170 894,-170 894,-145 768,-145"/>
<polygon fill="none" stroke="#2c3e50" points="768,-145 768,-170 894,-170 894,-145 768,-145"/>
<text text-anchor="start" x="773" y="-153.8" font-family="monospace" font-size="14.00" fill="#000000">relhaspkey</text>
<polygon fill="#ffffff" stroke="none" points="894,-145 894,-170 995,-170 995,-145 894,-145"/>
<polygon fill="none" stroke="#2c3e50" points="894,-145 894,-170 995,-170 995,-145 894,-145"/>
<text text-anchor="start" x="899" y="-154.8" font-family="monospace" font-style="italic" font-size="14.00" fill="#95a5a6">boolean</text>
<polygon fill="#ffffff" stroke="none" points="768,-120 768,-145 894,-145 894,-120 768,-120"/>
<polygon fill="none" stroke="#2c3e50" points="768,-120 768,-145 894,-145 894,-120 768,-120"/>
<text text-anchor="start" x="773" y="-128.8" font-family="monospace" font-size="14.00" fill="#000000">relhasrules</text>
<polygon fill="#ffffff" stroke="none" points="894,-120 894,-145 995,-145 995,-120 894,-120"/>
<polygon fill="none" stroke="#2c3e50" points="894,-120 894,-145 995,-145 995,-120 894,-120"/>
<text text-anchor="start" x="899" y="-129.8" font-family="monospace" font-style="italic" font-size="14.00" fill="#95a5a6">boolean</text>
<polygon fill="#ffffff" stroke="none" points="768,-95 768,-120 894,-120 894,-95 768,-95"/>
<polygon fill="none" stroke="#2c3e50" points="768,-95 768,-120 894,-120 894,-95 768,-95"/>
<text text-anchor="start" x="773" y="-103.8" font-family="monospace" font-size="14.00" fill="#000000">relhassubclass</text>
<polygon fill="#ffffff" stroke="none" points="894,-95 894,-120 995,-120 995,-95 894,-95"/>
<polygon fill="none" stroke="#2c3e50" points="894,-95 894,-120 995,-120 995,-95 894,-95"/>
<text text-anchor="start" x="899" y="-104.8" font-family="monospace" font-style="italic" font-size="14.00" fill="#95a5a6">boolean</text>
<polygon fill="#ffffff" stroke="none" points="768,-70 768,-95 894,-95 894,-70 768,-70"/>
<polygon fill="none" stroke="#2c3e50" points="768,-70 768,-95 894,-95 894,-70 768,-70"/>
<text text-anchor="start" x="773" y="-78.8" font-family="monospace" font-size="14.00" fill="#000000">relfrozenxid</text>
<polygon fill="#ffffff" stroke="none" points="894,-70 894,-95 995,-95 995,-70 894,-70"/>
<polygon fill="none" stroke="#2c3e50" points="894,-70 894,-95 995,-95 995,-70 894,-70"/>
<text text-anchor="start" x="899" y="-79.8" font-family="monospace" font-style="italic" font-size="14.00" fill="#95a5a6">xid</text>
<polygon fill="#ffffff" stroke="none" points="768,-45 768,-70 894,-70 894,-45 768,-45"/>
<polygon fill="none" stroke="#2c3e50" points="768,-45 768,-70 894,-70 894,-45 768,-45"/>
<text text-anchor="start" x="773" y="-53.8" font-family="monospace" font-size="14.00" fill="#000000">relacl</text>
<polygon fill="#ffffff" stroke="none" points="894,-45 894,-70 995,-70 995,-45 894,-45"/>
<polygon fill="none" stroke="#2c3e50" points="894,-45 894,-70 995,-70 995,-45 894,-45"/>
<text text-anchor="start" x="899" y="-54.8" font-family="monospace" font-style="italic" font-size="14.00" fill="#95a5a6">aclitem[]</text>
<polygon fill="#ffffff" stroke="none" points="768,-20 768,-45 894,-45 894,-20 768,-20"/>
<polygon fill="none" stroke="#2c3e50" points="768,-20 768,-45 894,-45 894,-20 768,-20"/>
<text text-anchor="start" x="773" y="-28.8" font-family="monospace" font-size="14.00" fill="#000000">reloptions</text>
<polygon fill="#ffffff" stroke="none" points="894,-20 894,-45 995,-45 995,-20 894,-20"/>
<polygon fill="none" stroke="#2c3e50" points="894,-20 894,-45 995,-45 995,-20 894,-20"/>
<text text-anchor="start" x="899" y="-29.8" font-family="monospace" font-style="italic" font-size="14.00" fill="#95a5a6">text[]</text>
</g>
<!-- pg_trigger&#45;&gt;pg_class -->
<g id="edge1" class="edge"><title>pg_trigger:tgrelid_out&#45;&gt;pg_class:oid_in</title>
<path fill="none" stroke="#2c3e50" d="M397.5,-959C497.804,-959 503.114,-890.433 594,-848 665.227,-814.746 683.343,-785.608 756.766,-783.166"/>
<polygon fill="#2c3e50" stroke="#2c3e50" points="757.058,-786.661 767,-783 756.945,-779.662 757.058,-786.661"/>
</g>
<!-- pg_trigger&#45;&gt;pg_class -->
<g id="edge3" class="edge"><title>pg_trigger:tgconstrrelid_out&#45;&gt;pg_class:oid_in</title>
<path fill="none" stroke="#2c3e50" d="M397.5,-783C558.194,-783 600.957,-783 756.583,-783"/>
<polygon fill="#2c3e50" stroke="#2c3e50" points="757,-786.5 767,-783 757,-779.5 757,-786.5"/>
</g>
<!-- pg_proc -->
<g id="node3" class="node"><title>pg_proc</title>
<polygon fill="#2c3e50" stroke="none" points="759,-1420 759,-1450 1003,-1450 1003,-1420 759,-1420"/>
<polygon fill="none" stroke="black" points="759,-1420 759,-1450 1003,-1450 1003,-1420 759,-1420"/>
<text text-anchor="start" x="844" y="-1431.6" font-family="monospace" font-weight="bold" font-size="18.00" fill="#ffffff">pg_proc</text>
<polygon fill="#18bc9c" stroke="none" points="759,-1395 759,-1420 885,-1420 885,-1395 759,-1395"/>
<polygon fill="none" stroke="#2c3e50" points="759,-1395 759,-1420 885,-1420 885,-1395 759,-1395"/>
<text text-anchor="start" x="764" y="-1403.8" font-family="monospace" font-size="14.00" fill="#ffffff">oid</text>
<polygon fill="#ffffff" stroke="none" points="885,-1395 885,-1420 1003,-1420 1003,-1395 885,-1395"/>
<polygon fill="none" stroke="#2c3e50" points="885,-1395 885,-1420 1003,-1420 1003,-1395 885,-1395"/>
<text text-anchor="start" x="890" y="-1404.8" font-family="monospace" font-style="italic" font-size="14.00" fill="#95a5a6">oid</text>
<polygon fill="#ffffff" stroke="none" points="759,-1370 759,-1395 885,-1395 885,-1370 759,-1370"/>
<polygon fill="none" stroke="#2c3e50" points="759,-1370 759,-1395 885,-1395 885,-1370 759,-1370"/>
<text text-anchor="start" x="764" y="-1378.8" font-family="monospace" font-size="14.00" fill="#000000">proname</text>
<polygon fill="#ffffff" stroke="none" points="885,-1370 885,-1395 1003,-1395 1003,-1370 885,-1370"/>
<polygon fill="none" stroke="#2c3e50" points="885,-1370 885,-1395 1003,-1395 1003,-1370 885,-1370"/>
<text text-anchor="start" x="890" y="-1379.8" font-family="monospace" font-style="italic" font-size="14.00" fill="#95a5a6">name</text>
<polygon fill="#ffffff" stroke="none" points="759,-1345 759,-1370 885,-1370 885,-1345 759,-1345"/>
<polygon fill="none" stroke="#2c3e50" points="759,-1345 759,-1370 885,-1370 885,-1345 759,-1345"/>
<text text-anchor="start" x="764" y="-1353.8" font-family="monospace" font-size="14.00" fill="#000000">pronamespace</text>
<polygon fill="#ffffff" stroke="none" points="885,-1345 885,-1370 1003,-1370 1003,-1345 885,-1345"/>
<polygon fill="none" stroke="#2c3e50" points="885,-1345 885,-1370 1003,-1370 1003,-1345 885,-1345"/>
<text text-anchor="start" x="890" y="-1354.8" font-family="monospace" font-style="italic" font-size="14.00" fill="#95a5a6">oid</text>
<polygon fill="#ffffff" stroke="none" points="759,-1320 759,-1345 885,-1345 885,-1320 759,-1320"/>
<polygon fill="none" stroke="#2c3e50" points="759,-1320 759,-1345 885,-1345 885,-1320 759,-1320"/>
<text text-anchor="start" x="764" y="-1328.8" font-family="monospace" font-size="14.00" fill="#000000">proowner</text>
<polygon fill="#ffffff" stroke="none" points="885,-1320 885,-1345 1003,-1345 1003,-1320 885,-1320"/>
<polygon fill="none" stroke="#2c3e50" points="885,-1320 885,-1345 1003,-1345 1003,-1320 885,-1320"/>
<text text-anchor="start" x="890" y="-1329.8" font-family="monospace" font-style="italic" font-size="14.00" fill="#95a5a6">oid</text>
<polygon fill="#ffffff" stroke="none" points="759,-1295 759,-1320 885,-1320 885,-1295 759,-1295"/>
<polygon fill="none" stroke="#2c3e50" points="759,-1295 759,-1320 885,-1320 885,-1295 759,-1295"/>
<text text-anchor="start" x="764" y="-1303.8" font-family="monospace" font-size="14.00" fill="#000000">prolang</text>
<polygon fill="#ffffff" stroke="none" points="885,-1295 885,-1320 1003,-1320 1003,-1295 885,-1295"/>
<polygon fill="none" stroke="#2c3e50" points="885,-1295 885,-1320 1003,-1320 1003,-1295 885,-1295"/>
<text text-anchor="start" x="890" y="-1304.8" font-family="monospace" font-style="italic" font-size="14.00" fill="#95a5a6">oid</text>
<polygon fill="#ffffff" stroke="none" points="759,-1270 759,-1295 885,-1295 885,-1270 759,-1270"/>
<polygon fill="none" stroke="#2c3e50" points="759,-1270 759,-1295 885,-1295 885,-1270 759,-1270"/>
<text text-anchor="start" x="764" y="-1278.8" font-family="monospace" font-size="14.00" fill="#000000">proisagg</text>
<polygon fill="#ffffff" stroke="none" points="885,-1270 885,-1295 1003,-1295 1003,-1270 885,-1270"/>
<polygon fill="none" stroke="#2c3e50" points="885,-1270 885,-1295 1003,-1295 1003,-1270 885,-1270"/>
<text text-anchor="start" x="890" y="-1279.8" font-family="monospace" font-style="italic" font-size="14.00" fill="#95a5a6">boolean</text>
<polygon fill="#ffffff" stroke="none" points="759,-1245 759,-1270 885,-1270 885,-1245 759,-1245"/>
<polygon fill="none" stroke="#2c3e50" points="759,-1245 759,-1270 885,-1270 885,-1245 759,-1245"/>
<text text-anchor="start" x="764" y="-1253.8" font-family="monospace" font-size="14.00" fill="#000000">prosecdef</text>
<polygon fill="#ffffff" stroke="none" points="885,-1245 885,-1270 1003,-1270 1003,-1245 885,-1245"/>
<polygon fill="none" stroke="#2c3e50" points="885,-1245 885,-1270 1003,-1270 1003,-1245 885,-1245"/>
<text text-anchor="start" x="890" y="-1254.8" font-family="monospace" font-style="italic" font-size="14.00" fill="#95a5a6">boolean</text>
<polygon fill="#ffffff" stroke="none" points="759,-1220 759,-1245 885,-1245 885,-1220 759,-1220"/>
<polygon fill="none" stroke="#2c3e50" points="759,-1220 759,-1245 885,-1245 885,-1220 759,-1220"/>
<text text-anchor="start" x="764" y="-1228.8" font-family="monospace" font-size="14.00" fill="#000000">proisstrict</text>
<polygon fill="#ffffff" stroke="none" points="885,-1220 885,-1245 1003,-1245 1003,-1220 885,-1220"/>
<polygon fill="none" stroke="#2c3e50" points="885,-1220 885,-1245 1003,-1245 1003,-1220 885,-1220"/>
<text text-anchor="start" x="890" y="-1229.8" font-family="monospace" font-style="italic" font-size="14.00" fill="#95a5a6">boolean</text>
<polygon fill="#ffffff" stroke="none" points="759,-1195 759,-1220 885,-1220 885,-1195 759,-1195"/>
<polygon fill="none" stroke="#2c3e50" points="759,-1195 759,-1220 885,-1220 885,-1195 759,-1195"/>
<text text-anchor="start" x="764" y="-1203.8" font-family="monospace" font-size="14.00" fill="#000000">proretset</text>
<polygon fill="#ffffff" stroke="none" points="885,-1195 885,-1220 1003,-1220 1003,-1195 885,-1195"/>
<polygon fill="none" stroke="#2c3e50" points="885,-1195 885,-1220 1003,-1220 1003,-1195 885,-1195"/>
<text text-anchor="start" x="890" y="-1204.8" font-family="monospace" font-style="italic" font-size="14.00" fill="#95a5a6">boolean</text>
<polygon fill="#ffffff" stroke="none" points="759,-1170 759,-1195 885,-1195 885,-1170 759,-1170"/>
<polygon fill="none" stroke="#2c3e50" points="759,-1170 759,-1195 885,-1195 885,-1170 759,-1170"/>
<text text-anchor="start" x="764" y="-1178.8" font-family="monospace" font-size="14.00" fill="#000000">provolatile</text>
<polygon fill="#ffffff" stroke="none" points="885,-1170 885,-1195 1003,-1195 1003,-1170 885,-1170"/>
<polygon fill="none" stroke="#2c3e50" points="885,-1170 885,-1195 1003,-1195 1003,-1170 885,-1170"/>
<text text-anchor="start" x="890" y="-1179.8" font-family="monospace" font-style="italic" font-size="14.00" fill="#95a5a6">quoted_char</text>
<polygon fill="#ffffff" stroke="none" points="759,-1145 759,-1170 885,-1170 885,-1145 759,-1145"/>
<polygon fill="none" stroke="#2c3e50" points="759,-1145 759,-1170 885,-1170 885,-1145 759,-1145"/>
<text text-anchor="start" x="764" y="-1153.8" font-family="monospace" font-size="14.00" fill="#000000">pronargs</text>
<polygon fill="#ffffff" stroke="none" points="885,-1145 885,-1170 1003,-1170 1003,-1145 885,-1145"/>
<polygon fill="none" stroke="#2c3e50" points="885,-1145 885,-1170 1003,-1170 1003,-1145 885,-1145"/>
<text text-anchor="start" x="890" y="-1154.8" font-family="monospace" font-style="italic" font-size="14.00" fill="#95a5a6">smallint</text>
<polygon fill="#ffffff" stroke="none" points="759,-1120 759,-1145 885,-1145 885,-1120 759,-1120"/>
<polygon fill="none" stroke="#2c3e50" points="759,-1120 759,-1145 885,-1145 885,-1120 759,-1120"/>
<text text-anchor="start" x="764" y="-1128.8" font-family="monospace" font-size="14.00" fill="#000000">prorettype</text>
<polygon fill="#ffffff" stroke="none" points="885,-1120 885,-1145 1003,-1145 1003,-1120 885,-1120"/>
<polygon fill="none" stroke="#2c3e50" points="885,-1120 885,-1145 1003,-1145 1003,-1120 885,-1120"/>
<text text-anchor="start" x="890" y="-1129.8" font-family="monospace" font-style="italic" font-size="14.00" fill="#95a5a6">oid</text>
<polygon fill="#ffffff" stroke="none" points="759,-1095 759,-1120 885,-1120 885,-1095 759,-1095"/>
<polygon fill="none" stroke="#2c3e50" points="759,-1095 759,-1120 885,-1120 885,-1095 759,-1095"/>
<text text-anchor="start" x="764" y="-1103.8" font-family="monospace" font-size="14.00" fill="#000000">proiswin</text>
<polygon fill="#ffffff" stroke="none" points="885,-1095 885,-1120 1003,-1120 1003,-1095 885,-1095"/>
<polygon fill="none" stroke="#2c3e50" points="885,-1095 885,-1120 1003,-1120 1003,-1095 885,-1095"/>
<text text-anchor="start" x="890" y="-1104.8" font-family="monospace" font-style="italic" font-size="14.00" fill="#95a5a6">boolean</text>
<polygon fill="#ffffff" stroke="none" points="759,-1070 759,-1095 885,-1095 885,-1070 759,-1070"/>
<polygon fill="none" stroke="#2c3e50" points="759,-1070 759,-1095 885,-1095 885,-1070 759,-1070"/>
<text text-anchor="start" x="764" y="-1078.8" font-family="monospace" font-size="14.00" fill="#000000">proargtypes</text>
<polygon fill="#ffffff" stroke="none" points="885,-1070 885,-1095 1003,-1095 1003,-1070 885,-1070"/>
<polygon fill="none" stroke="#2c3e50" points="885,-1070 885,-1095 1003,-1095 1003,-1070 885,-1070"/>
<text text-anchor="start" x="890" y="-1079.8" font-family="monospace" font-style="italic" font-size="14.00" fill="#95a5a6">oidvector</text>
<polygon fill="#ffffff" stroke="none" points="759,-1045 759,-1070 885,-1070 885,-1045 759,-1045"/>
<polygon fill="none" stroke="#2c3e50" points="759,-1045 759,-1070 885,-1070 885,-1045 759,-1045"/>
<text text-anchor="start" x="764" y="-1053.8" font-family="monospace" font-size="14.00" fill="#000000">proallargtypes</text>
<polygon fill="#ffffff" stroke="none" points="885,-1045 885,-1070 1003,-1070 1003,-1045 885,-1045"/>
<polygon fill="none" stroke="#2c3e50" points="885,-1045 885,-1070 1003,-1070 1003,-1045 885,-1045"/>
<text text-anchor="start" x="890" y="-1054.8" font-family="monospace" font-style="italic" font-size="14.00" fill="#95a5a6">oid[]</text>
<polygon fill="#ffffff" stroke="none" points="759,-1020 759,-1045 885,-1045 885,-1020 759,-1020"/>
<polygon fill="none" stroke="#2c3e50" points="759,-1020 759,-1045 885,-1045 885,-1020 759,-1020"/>
<text text-anchor="start" x="764" y="-1028.8" font-family="monospace" font-size="14.00" fill="#000000">proargmodes</text>
<polygon fill="#ffffff" stroke="none" points="885,-1020 885,-1045 1003,-1045 1003,-1020 885,-1020"/>
<polygon fill="none" stroke="#2c3e50" points="885,-1020 885,-1045 1003,-1045 1003,-1020 885,-1020"/>
<text text-anchor="start" x="890" y="-1029.8" font-family="monospace" font-style="italic" font-size="14.00" fill="#95a5a6">quoted_char[]</text>
<polygon fill="#ffffff" stroke="none" points="759,-995 759,-1020 885,-1020 885,-995 759,-995"/>
<polygon fill="none" stroke="#2c3e50" points="759,-995 759,-1020 885,-1020 885,-995 759,-995"/>
<text text-anchor="start" x="764" y="-1003.8" font-family="monospace" font-size="14.00" fill="#000000">proargnames</text>
<polygon fill="#ffffff" stroke="none" points="885,-995 885,-1020 1003,-1020 1003,-995 885,-995"/>
<polygon fill="none" stroke="#2c3e50" points="885,-995 885,-1020 1003,-1020 1003,-995 885,-995"/>
<text text-anchor="start" x="890" y="-1004.8" font-family="monospace" font-style="italic" font-size="14.00" fill="#95a5a6">text[]</text>
<polygon fill="#ffffff" stroke="none" points="759,-970 759,-995 885,-995 885,-970 759,-970"/>
<polygon fill="none" stroke="#2c3e50" points="759,-970 759,-995 885,-995 885,-970 759,-970"/>
<text text-anchor="start" x="764" y="-978.8" font-family="monospace" font-size="14.00" fill="#000000">prosrc</text>
<polygon fill="#ffffff" stroke="none" points="885,-970 885,-995 1003,-995 1003,-970 885,-970"/>
<polygon fill="none" stroke="#2c3e50" points="885,-970 885,-995 1003,-995 1003,-970 885,-970"/>
<text text-anchor="start" x="890" y="-979.8" font-family="monospace" font-style="italic" font-size="14.00" fill="#95a5a6">text</text>
<polygon fill="#ffffff" stroke="none" points="759,-945 759,-970 885,-970 885,-945 759,-945"/>
<polygon fill="none" stroke="#2c3e50" points="759,-945 759,-970 885,-970 885,-945 759,-945"/>
<text text-anchor="start" x="764" y="-953.8" font-family="monospace" font-size="14.00" fill="#000000">probin</text>
<polygon fill="#ffffff" stroke="none" points="885,-945 885,-970 1003,-970 1003,-945 885,-945"/>
<polygon fill="none" stroke="#2c3e50" points="885,-945 885,-970 1003,-970 1003,-945 885,-945"/>
<text text-anchor="start" x="890" y="-954.8" font-family="monospace" font-style="italic" font-size="14.00" fill="#95a5a6">bytea</text>
<polygon fill="#ffffff" stroke="none" points="759,-920 759,-945 885,-945 885,-920 759,-920"/>
<polygon fill="none" stroke="#2c3e50" points="759,-920 759,-945 885,-945 885,-920 759,-920"/>
<text text-anchor="start" x="764" y="-928.8" font-family="monospace" font-size="14.00" fill="#000000">proacl</text>
<polygon fill="#ffffff" stroke="none" points="885,-920 885,-945 1003,-945 1003,-920 885,-920"/>
<polygon fill="none" stroke="#2c3e50" points="885,-920 885,-945 1003,-945 1003,-920 885,-920"/>
<text text-anchor="start" x="890" y="-929.8" font-family="monospace" font-style="italic" font-size="14.00" fill="#95a5a6">aclitem[]</text>
<polygon fill="#ffffff" stroke="none" points="759,-895 759,-920 885,-920 885,-895 759,-895"/>
<polygon fill="none" stroke="#2c3e50" points="759,-895 759,-920 885,-920 885,-895 759,-895"/>
<text text-anchor="start" x="764" y="-903.8" font-family="monospace" font-size="14.00" fill="#000000">prodataaccess</text>
<polygon fill="#ffffff" stroke="none" points="885,-895 885,-920 1003,-920 1003,-895 885,-895"/>
<polygon fill="none" stroke="#2c3e50" points="885,-895 885,-920 1003,-920 1003,-895 885,-895"/>
<text text-anchor="start" x="890" y="-904.8" font-family="monospace" font-style="italic" font-size="14.00" fill="#95a5a6">quoted_char</text>
<polygon fill="#ffffff" stroke="none" points="759,-870 759,-895 885,-895 885,-870 759,-870"/>
<polygon fill="none" stroke="#2c3e50" points="759,-870 759,-895 885,-895 885,-870 759,-870"/>
<text text-anchor="start" x="764" y="-878.8" font-family="monospace" font-size="14.00" fill="#000000">provariadic</text>
<polygon fill="#ffffff" stroke="none" points="885,-870 885,-895 1003,-895 1003,-870 885,-870"/>
<polygon fill="none" stroke="#2c3e50" points="885,-870 885,-895 1003,-895 1003,-870 885,-870"/>
<text text-anchor="start" x="890" y="-879.8" font-family="monospace" font-style="italic" font-size="14.00" fill="#95a5a6">oid</text>
</g>
<!-- pg_trigger&#45;&gt;pg_proc -->
<g id="edge2" class="edge"><title>pg_trigger:tgfoid_out&#45;&gt;pg_proc:oid_in</title>
<path fill="none" stroke="#2c3e50" d="M397.5,-909C667.626,-909 489.067,-1395.41 747.8,-1407.76"/>
<polygon fill="#2c3e50" stroke="#2c3e50" points="747.921,-1411.26 758,-1408 748.085,-1404.27 747.921,-1411.26"/>
</g>
</g>
</svg>
