<?xml version="1.0" encoding="UTF-8" standalone="no"?>
<!DOCTYPE svg PUBLIC "-//W3C//DTD SVG 1.1//EN"
 "http://www.w3.org/Graphics/SVG/1.1/DTD/svg11.dtd">
<!-- Generated by graphviz version 2.38.0 (20140413.2041)
 -->
<!-- Title: GPDB Pages: 1 -->
<svg width="1466pt" height="952pt"
 viewBox="0.00 0.00 1466.00 952.00" xmlns="http://www.w3.org/2000/svg" xmlns:xlink="http://www.w3.org/1999/xlink">
<g id="graph0" class="graph" transform="scale(1 1) rotate(0) translate(36 916)">
<title>GPDB</title>
<polygon fill="white" stroke="none" points="-36,36 -36,-916 1430,-916 1430,36 -36,36"/>
<text text-anchor="middle" x="697" y="-850.4" font-family="Helvetica,sans-Serif" font-size="32.00">Greenplum System Catalog: pg_user_mapping</text>
<g id="clust2" class="cluster"><title>cluster_selected</title>
</g>
<g id="clust3" class="cluster"><title>cluster_to</title>
</g>
<!-- pg_user_mapping -->
<g id="node1" class="node"><title>pg_user_mapping</title>
<g id="a_node1"><a xlink:href="pg_user_mapping.svg" xlink:title="&lt;TABLE&gt;">
<polygon fill="#2c3e50" stroke="none" points="259,-507 259,-537 427,-537 427,-507 259,-507"/>
<polygon fill="none" stroke="black" points="259,-507 259,-537 427,-537 427,-507 259,-507"/>
<text text-anchor="start" x="264" y="-518.6" font-family="monospace" font-weight="bold" font-size="18.00" fill="#ffffff">pg_user_mapping</text>
<polygon fill="#ffffff" stroke="none" points="259,-482 259,-507 355,-507 355,-482 259,-482"/>
<polygon fill="none" stroke="#2c3e50" points="259,-482 259,-507 355,-507 355,-482 259,-482"/>
<text text-anchor="start" x="264" y="-490.8" font-family="monospace" font-size="14.00" fill="#000000">oid</text>
<polygon fill="#ffffff" stroke="none" points="355,-482 355,-507 427,-507 427,-482 355,-482"/>
<polygon fill="none" stroke="#2c3e50" points="355,-482 355,-507 427,-507 427,-482 355,-482"/>
<text text-anchor="start" x="360" y="-491.8" font-family="monospace" font-style="italic" font-size="14.00" fill="#95a5a6">oid</text>
<polygon fill="#ffffff" stroke="none" points="259,-457 259,-482 355,-482 355,-457 259,-457"/>
<polygon fill="none" stroke="#2c3e50" points="259,-457 259,-482 355,-482 355,-457 259,-457"/>
<text text-anchor="start" x="264" y="-465.8" font-family="monospace" font-size="14.00" fill="#000000">umuser</text>
<polygon fill="#18bc9c" stroke="none" points="355,-457 355,-482 427,-482 427,-457 355,-457"/>
<polygon fill="none" stroke="#2c3e50" points="355,-457 355,-482 427,-482 427,-457 355,-457"/>
<text text-anchor="start" x="360" y="-466.8" font-family="monospace" font-style="italic" font-size="14.00" fill="#ffffff">oid</text>
<polygon fill="#ffffff" stroke="none" points="259,-432 259,-457 355,-457 355,-432 259,-432"/>
<polygon fill="none" stroke="#2c3e50" points="259,-432 259,-457 355,-457 355,-432 259,-432"/>
<text text-anchor="start" x="264" y="-440.8" font-family="monospace" font-size="14.00" fill="#000000">umserver</text>
<polygon fill="#18bc9c" stroke="none" points="355,-432 355,-457 427,-457 427,-432 355,-432"/>
<polygon fill="none" stroke="#2c3e50" points="355,-432 355,-457 427,-457 427,-432 355,-432"/>
<text text-anchor="start" x="360" y="-441.8" font-family="monospace" font-style="italic" font-size="14.00" fill="#ffffff">oid</text>
<polygon fill="#ffffff" stroke="none" points="259,-407 259,-432 355,-432 355,-407 259,-407"/>
<polygon fill="none" stroke="#2c3e50" points="259,-407 259,-432 355,-432 355,-407 259,-407"/>
<text text-anchor="start" x="264" y="-415.8" font-family="monospace" font-size="14.00" fill="#000000">umoptions</text>
<polygon fill="#ffffff" stroke="none" points="355,-407 355,-432 427,-432 427,-407 355,-407"/>
<polygon fill="none" stroke="#2c3e50" points="355,-407 355,-432 427,-432 427,-407 355,-407"/>
<text text-anchor="start" x="360" y="-416.8" font-family="monospace" font-style="italic" font-size="14.00" fill="#95a5a6">text[]</text>
</a>
</g>
</g>
<!-- pg_foreign_server -->
<g id="node2" class="node"><title>pg_foreign_server</title>
<g id="a_node2"><a xlink:href="pg_foreign_server.svg" xlink:title="&lt;TABLE&gt;">
<polygon fill="#2c3e50" stroke="none" points="956,-220 956,-250 1145,-250 1145,-220 956,-220"/>
<polygon fill="none" stroke="black" points="956,-220 956,-250 1145,-250 1145,-220 956,-220"/>
<text text-anchor="start" x="961" y="-231.6" font-family="monospace" font-weight="bold" font-size="18.00" fill="#ffffff">pg_foreign_server</text>
<polygon fill="#18bc9c" stroke="none" points="956,-195 956,-220 1054,-220 1054,-195 956,-195"/>
<polygon fill="none" stroke="#2c3e50" points="956,-195 956,-220 1054,-220 1054,-195 956,-195"/>
<text text-anchor="start" x="961" y="-203.8" font-family="monospace" font-size="14.00" fill="#ffffff">oid</text>
<polygon fill="#ffffff" stroke="none" points="1054,-195 1054,-220 1145,-220 1145,-195 1054,-195"/>
<polygon fill="none" stroke="#2c3e50" points="1054,-195 1054,-220 1145,-220 1145,-195 1054,-195"/>
<text text-anchor="start" x="1059" y="-204.8" font-family="monospace" font-style="italic" font-size="14.00" fill="#95a5a6">oid</text>
<polygon fill="#ffffff" stroke="none" points="956,-170 956,-195 1054,-195 1054,-170 956,-170"/>
<polygon fill="none" stroke="#2c3e50" points="956,-170 956,-195 1054,-195 1054,-170 956,-170"/>
<text text-anchor="start" x="961" y="-178.8" font-family="monospace" font-size="14.00" fill="#000000">srvname</text>
<polygon fill="#ffffff" stroke="none" points="1054,-170 1054,-195 1145,-195 1145,-170 1054,-170"/>
<polygon fill="none" stroke="#2c3e50" points="1054,-170 1054,-195 1145,-195 1145,-170 1054,-170"/>
<text text-anchor="start" x="1059" y="-179.8" font-family="monospace" font-style="italic" font-size="14.00" fill="#95a5a6">name</text>
<polygon fill="#ffffff" stroke="none" points="956,-145 956,-170 1054,-170 1054,-145 956,-145"/>
<polygon fill="none" stroke="#2c3e50" points="956,-145 956,-170 1054,-170 1054,-145 956,-145"/>
<text text-anchor="start" x="961" y="-153.8" font-family="monospace" font-size="14.00" fill="#000000">srvowner</text>
<polygon fill="#ffffff" stroke="none" points="1054,-145 1054,-170 1145,-170 1145,-145 1054,-145"/>
<polygon fill="none" stroke="#2c3e50" points="1054,-145 1054,-170 1145,-170 1145,-145 1054,-145"/>
<text text-anchor="start" x="1059" y="-154.8" font-family="monospace" font-style="italic" font-size="14.00" fill="#95a5a6">oid</text>
<polygon fill="#ffffff" stroke="none" points="956,-120 956,-145 1054,-145 1054,-120 956,-120"/>
<polygon fill="none" stroke="#2c3e50" points="956,-120 956,-145 1054,-145 1054,-120 956,-120"/>
<text text-anchor="start" x="961" y="-128.8" font-family="monospace" font-size="14.00" fill="#000000">srvfdw</text>
<polygon fill="#ffffff" stroke="none" points="1054,-120 1054,-145 1145,-145 1145,-120 1054,-120"/>
<polygon fill="none" stroke="#2c3e50" points="1054,-120 1054,-145 1145,-145 1145,-120 1054,-120"/>
<text text-anchor="start" x="1059" y="-129.8" font-family="monospace" font-style="italic" font-size="14.00" fill="#95a5a6">oid</text>
<polygon fill="#ffffff" stroke="none" points="956,-95 956,-120 1054,-120 1054,-95 956,-95"/>
<polygon fill="none" stroke="#2c3e50" points="956,-95 956,-120 1054,-120 1054,-95 956,-95"/>
<text text-anchor="start" x="961" y="-103.8" font-family="monospace" font-size="14.00" fill="#000000">srvtype</text>
<polygon fill="#ffffff" stroke="none" points="1054,-95 1054,-120 1145,-120 1145,-95 1054,-95"/>
<polygon fill="none" stroke="#2c3e50" points="1054,-95 1054,-120 1145,-120 1145,-95 1054,-95"/>
<text text-anchor="start" x="1059" y="-104.8" font-family="monospace" font-style="italic" font-size="14.00" fill="#95a5a6">text</text>
<polygon fill="#ffffff" stroke="none" points="956,-70 956,-95 1054,-95 1054,-70 956,-70"/>
<polygon fill="none" stroke="#2c3e50" points="956,-70 956,-95 1054,-95 1054,-70 956,-70"/>
<text text-anchor="start" x="961" y="-78.8" font-family="monospace" font-size="14.00" fill="#000000">srvversion</text>
<polygon fill="#ffffff" stroke="none" points="1054,-70 1054,-95 1145,-95 1145,-70 1054,-70"/>
<polygon fill="none" stroke="#2c3e50" points="1054,-70 1054,-95 1145,-95 1145,-70 1054,-70"/>
<text text-anchor="start" x="1059" y="-79.8" font-family="monospace" font-style="italic" font-size="14.00" fill="#95a5a6">text</text>
<polygon fill="#ffffff" stroke="none" points="956,-45 956,-70 1054,-70 1054,-45 956,-45"/>
<polygon fill="none" stroke="#2c3e50" points="956,-45 956,-70 1054,-70 1054,-45 956,-45"/>
<text text-anchor="start" x="961" y="-53.8" font-family="monospace" font-size="14.00" fill="#000000">srvacl</text>
<polygon fill="#ffffff" stroke="none" points="1054,-45 1054,-70 1145,-70 1145,-45 1054,-45"/>
<polygon fill="none" stroke="#2c3e50" points="1054,-45 1054,-70 1145,-70 1145,-45 1054,-45"/>
<text text-anchor="start" x="1059" y="-54.8" font-family="monospace" font-style="italic" font-size="14.00" fill="#95a5a6">aclitem[]</text>
<polygon fill="#ffffff" stroke="none" points="956,-20 956,-45 1054,-45 1054,-20 956,-20"/>
<polygon fill="none" stroke="#2c3e50" points="956,-20 956,-45 1054,-45 1054,-20 956,-20"/>
<text text-anchor="start" x="961" y="-28.8" font-family="monospace" font-size="14.00" fill="#000000">srvoptions</text>
<polygon fill="#ffffff" stroke="none" points="1054,-20 1054,-45 1145,-45 1145,-20 1054,-20"/>
<polygon fill="none" stroke="#2c3e50" points="1054,-20 1054,-45 1145,-45 1145,-20 1054,-20"/>
<text text-anchor="start" x="1059" y="-29.8" font-family="monospace" font-style="italic" font-size="14.00" fill="#95a5a6">text[]</text>
</a>
</g>
</g>
<!-- pg_user_mapping&#45;&gt;pg_foreign_server -->
<g id="edge2" class="edge"><title>pg_user_mapping:umserver_out&#45;&gt;pg_foreign_server:oid_in</title>
<path fill="none" stroke="#2c3e50" d="M428,-444C573.67,-444 572.972,-329.062 707,-272 808.565,-228.759 839.316,-209.198 944.889,-208.054"/>
<polygon fill="#2c3e50" stroke="#2c3e50" points="945.019,-211.553 955,-208 944.982,-204.553 945.019,-211.553"/>
</g>
<!-- pg_authid -->
<g id="node3" class="node"><title>pg_authid</title>
<g id="a_node3"><a xlink:href="pg_authid.svg" xlink:title="&lt;TABLE&gt;">
<polygon fill="#2c3e50" stroke="none" points="870,-744 870,-774 1230,-774 1230,-744 870,-744"/>
<polygon fill="none" stroke="black" points="870,-744 870,-774 1230,-774 1230,-744 870,-744"/>
<text text-anchor="start" x="1002.5" y="-755.6" font-family="monospace" font-weight="bold" font-size="18.00" fill="#ffffff">pg_authid</text>
<polygon fill="#18bc9c" stroke="none" points="870,-719 870,-744 1021,-744 1021,-719 870,-719"/>
<polygon fill="none" stroke="#2c3e50" points="870,-719 870,-744 1021,-744 1021,-719 870,-719"/>
<text text-anchor="start" x="875" y="-727.8" font-family="monospace" font-size="14.00" fill="#ffffff">oid</text>
<polygon fill="#ffffff" stroke="none" points="1021,-719 1021,-744 1230,-744 1230,-719 1021,-719"/>
<polygon fill="none" stroke="#2c3e50" points="1021,-719 1021,-744 1230,-744 1230,-719 1021,-719"/>
<text text-anchor="start" x="1026" y="-728.8" font-family="monospace" font-style="italic" font-size="14.00" fill="#95a5a6">oid</text>
<polygon fill="#ffffff" stroke="none" points="870,-694 870,-719 1021,-719 1021,-694 870,-694"/>
<polygon fill="none" stroke="#2c3e50" points="870,-694 870,-719 1021,-719 1021,-694 870,-694"/>
<text text-anchor="start" x="875" y="-702.8" font-family="monospace" font-size="14.00" fill="#000000">rolname</text>
<polygon fill="#ffffff" stroke="none" points="1021,-694 1021,-719 1230,-719 1230,-694 1021,-694"/>
<polygon fill="none" stroke="#2c3e50" points="1021,-694 1021,-719 1230,-719 1230,-694 1021,-694"/>
<text text-anchor="start" x="1026" y="-703.8" font-family="monospace" font-style="italic" font-size="14.00" fill="#95a5a6">name</text>
<polygon fill="#ffffff" stroke="none" points="870,-669 870,-694 1021,-694 1021,-669 870,-669"/>
<polygon fill="none" stroke="#2c3e50" points="870,-669 870,-694 1021,-694 1021,-669 870,-669"/>
<text text-anchor="start" x="875" y="-677.8" font-family="monospace" font-size="14.00" fill="#000000">rolsuper</text>
<polygon fill="#ffffff" stroke="none" points="1021,-669 1021,-694 1230,-694 1230,-669 1021,-669"/>
<polygon fill="none" stroke="#2c3e50" points="1021,-669 1021,-694 1230,-694 1230,-669 1021,-669"/>
<text text-anchor="start" x="1026" y="-678.8" font-family="monospace" font-style="italic" font-size="14.00" fill="#95a5a6">boolean</text>
<polygon fill="#ffffff" stroke="none" points="870,-644 870,-669 1021,-669 1021,-644 870,-644"/>
<polygon fill="none" stroke="#2c3e50" points="870,-644 870,-669 1021,-669 1021,-644 870,-644"/>
<text text-anchor="start" x="875" y="-652.8" font-family="monospace" font-size="14.00" fill="#000000">rolinherit</text>
<polygon fill="#ffffff" stroke="none" points="1021,-644 1021,-669 1230,-669 1230,-644 1021,-644"/>
<polygon fill="none" stroke="#2c3e50" points="1021,-644 1021,-669 1230,-669 1230,-644 1021,-644"/>
<text text-anchor="start" x="1026" y="-653.8" font-family="monospace" font-style="italic" font-size="14.00" fill="#95a5a6">boolean</text>
<polygon fill="#ffffff" stroke="none" points="870,-619 870,-644 1021,-644 1021,-619 870,-619"/>
<polygon fill="none" stroke="#2c3e50" points="870,-619 870,-644 1021,-644 1021,-619 870,-619"/>
<text text-anchor="start" x="875" y="-627.8" font-family="monospace" font-size="14.00" fill="#000000">rolcreaterole</text>
<polygon fill="#ffffff" stroke="none" points="1021,-619 1021,-644 1230,-644 1230,-619 1021,-619"/>
<polygon fill="none" stroke="#2c3e50" points="1021,-619 1021,-644 1230,-644 1230,-619 1021,-619"/>
<text text-anchor="start" x="1026" y="-628.8" font-family="monospace" font-style="italic" font-size="14.00" fill="#95a5a6">boolean</text>
<polygon fill="#ffffff" stroke="none" points="870,-594 870,-619 1021,-619 1021,-594 870,-594"/>
<polygon fill="none" stroke="#2c3e50" points="870,-594 870,-619 1021,-619 1021,-594 870,-594"/>
<text text-anchor="start" x="875" y="-602.8" font-family="monospace" font-size="14.00" fill="#000000">rolcreatedb</text>
<polygon fill="#ffffff" stroke="none" points="1021,-594 1021,-619 1230,-619 1230,-594 1021,-594"/>
<polygon fill="none" stroke="#2c3e50" points="1021,-594 1021,-619 1230,-619 1230,-594 1021,-594"/>
<text text-anchor="start" x="1026" y="-603.8" font-family="monospace" font-style="italic" font-size="14.00" fill="#95a5a6">boolean</text>
<polygon fill="#ffffff" stroke="none" points="870,-569 870,-594 1021,-594 1021,-569 870,-569"/>
<polygon fill="none" stroke="#2c3e50" points="870,-569 870,-594 1021,-594 1021,-569 870,-569"/>
<text text-anchor="start" x="875" y="-577.8" font-family="monospace" font-size="14.00" fill="#000000">rolcatupdate</text>
<polygon fill="#ffffff" stroke="none" points="1021,-569 1021,-594 1230,-594 1230,-569 1021,-569"/>
<polygon fill="none" stroke="#2c3e50" points="1021,-569 1021,-594 1230,-594 1230,-569 1021,-569"/>
<text text-anchor="start" x="1026" y="-578.8" font-family="monospace" font-style="italic" font-size="14.00" fill="#95a5a6">boolean</text>
<polygon fill="#ffffff" stroke="none" points="870,-544 870,-569 1021,-569 1021,-544 870,-544"/>
<polygon fill="none" stroke="#2c3e50" points="870,-544 870,-569 1021,-569 1021,-544 870,-544"/>
<text text-anchor="start" x="875" y="-552.8" font-family="monospace" font-size="14.00" fill="#000000">rolcanlogin</text>
<polygon fill="#ffffff" stroke="none" points="1021,-544 1021,-569 1230,-569 1230,-544 1021,-544"/>
<polygon fill="none" stroke="#2c3e50" points="1021,-544 1021,-569 1230,-569 1230,-544 1021,-544"/>
<text text-anchor="start" x="1026" y="-553.8" font-family="monospace" font-style="italic" font-size="14.00" fill="#95a5a6">boolean</text>
<polygon fill="#ffffff" stroke="none" points="870,-519 870,-544 1021,-544 1021,-519 870,-519"/>
<polygon fill="none" stroke="#2c3e50" points="870,-519 870,-544 1021,-544 1021,-519 870,-519"/>
<text text-anchor="start" x="875" y="-527.8" font-family="monospace" font-size="14.00" fill="#000000">rolconnlimit</text>
<polygon fill="#ffffff" stroke="none" points="1021,-519 1021,-544 1230,-544 1230,-519 1021,-519"/>
<polygon fill="none" stroke="#2c3e50" points="1021,-519 1021,-544 1230,-544 1230,-519 1021,-519"/>
<text text-anchor="start" x="1026" y="-528.8" font-family="monospace" font-style="italic" font-size="14.00" fill="#95a5a6">integer</text>
<polygon fill="#ffffff" stroke="none" points="870,-494 870,-519 1021,-519 1021,-494 870,-494"/>
<polygon fill="none" stroke="#2c3e50" points="870,-494 870,-519 1021,-519 1021,-494 870,-494"/>
<text text-anchor="start" x="875" y="-502.8" font-family="monospace" font-size="14.00" fill="#000000">rolpassword</text>
<polygon fill="#ffffff" stroke="none" points="1021,-494 1021,-519 1230,-519 1230,-494 1021,-494"/>
<polygon fill="none" stroke="#2c3e50" points="1021,-494 1021,-519 1230,-519 1230,-494 1021,-494"/>
<text text-anchor="start" x="1026" y="-503.8" font-family="monospace" font-style="italic" font-size="14.00" fill="#95a5a6">text</text>
<polygon fill="#ffffff" stroke="none" points="870,-469 870,-494 1021,-494 1021,-469 870,-469"/>
<polygon fill="none" stroke="#2c3e50" points="870,-469 870,-494 1021,-494 1021,-469 870,-469"/>
<text text-anchor="start" x="875" y="-477.8" font-family="monospace" font-size="14.00" fill="#000000">rolvaliduntil</text>
<polygon fill="#ffffff" stroke="none" points="1021,-469 1021,-494 1230,-494 1230,-469 1021,-469"/>
<polygon fill="none" stroke="#2c3e50" points="1021,-469 1021,-494 1230,-494 1230,-469 1021,-469"/>
<text text-anchor="start" x="1026" y="-478.8" font-family="monospace" font-style="italic" font-size="14.00" fill="#95a5a6">timestamp_with_time_zone</text>
<polygon fill="#ffffff" stroke="none" points="870,-444 870,-469 1021,-469 1021,-444 870,-444"/>
<polygon fill="none" stroke="#2c3e50" points="870,-444 870,-469 1021,-469 1021,-444 870,-444"/>
<text text-anchor="start" x="875" y="-452.8" font-family="monospace" font-size="14.00" fill="#000000">rolconfig</text>
<polygon fill="#ffffff" stroke="none" points="1021,-444 1021,-469 1230,-469 1230,-444 1021,-444"/>
<polygon fill="none" stroke="#2c3e50" points="1021,-444 1021,-469 1230,-469 1230,-444 1021,-444"/>
<text text-anchor="start" x="1026" y="-453.8" font-family="monospace" font-style="italic" font-size="14.00" fill="#95a5a6">text[]</text>
<polygon fill="#ffffff" stroke="none" points="870,-419 870,-444 1021,-444 1021,-419 870,-419"/>
<polygon fill="none" stroke="#2c3e50" points="870,-419 870,-444 1021,-444 1021,-419 870,-419"/>
<text text-anchor="start" x="875" y="-427.8" font-family="monospace" font-size="14.00" fill="#000000">rolresqueue</text>
<polygon fill="#ffffff" stroke="none" points="1021,-419 1021,-444 1230,-444 1230,-419 1021,-419"/>
<polygon fill="none" stroke="#2c3e50" points="1021,-419 1021,-444 1230,-444 1230,-419 1021,-419"/>
<text text-anchor="start" x="1026" y="-428.8" font-family="monospace" font-style="italic" font-size="14.00" fill="#95a5a6">oid</text>
<polygon fill="#ffffff" stroke="none" points="870,-394 870,-419 1021,-419 1021,-394 870,-394"/>
<polygon fill="none" stroke="#2c3e50" points="870,-394 870,-419 1021,-419 1021,-394 870,-394"/>
<text text-anchor="start" x="875" y="-402.8" font-family="monospace" font-size="14.00" fill="#000000">rolcreaterextgpfd</text>
<polygon fill="#ffffff" stroke="none" points="1021,-394 1021,-419 1230,-419 1230,-394 1021,-394"/>
<polygon fill="none" stroke="#2c3e50" points="1021,-394 1021,-419 1230,-419 1230,-394 1021,-394"/>
<text text-anchor="start" x="1026" y="-403.8" font-family="monospace" font-style="italic" font-size="14.00" fill="#95a5a6">boolean</text>
<polygon fill="#ffffff" stroke="none" points="870,-369 870,-394 1021,-394 1021,-369 870,-369"/>
<polygon fill="none" stroke="#2c3e50" points="870,-369 870,-394 1021,-394 1021,-369 870,-369"/>
<text text-anchor="start" x="875" y="-377.8" font-family="monospace" font-size="14.00" fill="#000000">rolcreaterexthttp</text>
<polygon fill="#ffffff" stroke="none" points="1021,-369 1021,-394 1230,-394 1230,-369 1021,-369"/>
<polygon fill="none" stroke="#2c3e50" points="1021,-369 1021,-394 1230,-394 1230,-369 1021,-369"/>
<text text-anchor="start" x="1026" y="-378.8" font-family="monospace" font-style="italic" font-size="14.00" fill="#95a5a6">boolean</text>
<polygon fill="#ffffff" stroke="none" points="870,-344 870,-369 1021,-369 1021,-344 870,-344"/>
<polygon fill="none" stroke="#2c3e50" points="870,-344 870,-369 1021,-369 1021,-344 870,-344"/>
<text text-anchor="start" x="875" y="-352.8" font-family="monospace" font-size="14.00" fill="#000000">rolcreatewextgpfd</text>
<polygon fill="#ffffff" stroke="none" points="1021,-344 1021,-369 1230,-369 1230,-344 1021,-344"/>
<polygon fill="none" stroke="#2c3e50" points="1021,-344 1021,-369 1230,-369 1230,-344 1021,-344"/>
<text text-anchor="start" x="1026" y="-353.8" font-family="monospace" font-style="italic" font-size="14.00" fill="#95a5a6">boolean</text>
<polygon fill="#ffffff" stroke="none" points="870,-319 870,-344 1021,-344 1021,-319 870,-319"/>
<polygon fill="none" stroke="#2c3e50" points="870,-319 870,-344 1021,-344 1021,-319 870,-319"/>
<text text-anchor="start" x="875" y="-327.8" font-family="monospace" font-size="14.00" fill="#000000">rolcreaterexthdfs</text>
<polygon fill="#ffffff" stroke="none" points="1021,-319 1021,-344 1230,-344 1230,-319 1021,-319"/>
<polygon fill="none" stroke="#2c3e50" points="1021,-319 1021,-344 1230,-344 1230,-319 1021,-319"/>
<text text-anchor="start" x="1026" y="-328.8" font-family="monospace" font-style="italic" font-size="14.00" fill="#95a5a6">boolean</text>
<polygon fill="#ffffff" stroke="none" points="870,-294 870,-319 1021,-319 1021,-294 870,-294"/>
<polygon fill="none" stroke="#2c3e50" points="870,-294 870,-319 1021,-319 1021,-294 870,-294"/>
<text text-anchor="start" x="875" y="-302.8" font-family="monospace" font-size="14.00" fill="#000000">rolcreatewexthdfs</text>
<polygon fill="#ffffff" stroke="none" points="1021,-294 1021,-319 1230,-319 1230,-294 1021,-294"/>
<polygon fill="none" stroke="#2c3e50" points="1021,-294 1021,-319 1230,-319 1230,-294 1021,-294"/>
<text text-anchor="start" x="1026" y="-303.8" font-family="monospace" font-style="italic" font-size="14.00" fill="#95a5a6">boolean</text>
</a>
</g>
</g>
<!-- pg_user_mapping&#45;&gt;pg_authid -->
<g id="edge1" class="edge"><title>pg_user_mapping:umuser_out&#45;&gt;pg_authid:oid_in</title>
<path fill="none" stroke="#2c3e50" d="M428,-469C652.754,-469 641.203,-724.098 858.803,-731.821"/>
<polygon fill="#2c3e50" stroke="#2c3e50" points="858.94,-735.324 869,-732 859.063,-728.325 858.94,-735.324"/>
</g>
</g>
</svg>
