<?xml version="1.0" encoding="UTF-8" standalone="no"?>
<!DOCTYPE svg PUBLIC "-//W3C//DTD SVG 1.1//EN"
 "http://www.w3.org/Graphics/SVG/1.1/DTD/svg11.dtd">
<!-- Generated by graphviz version 2.38.0 (20140413.2041)
 -->
<!-- Title: GPDB Pages: 1 -->
<svg width="1272pt" height="917pt"
 viewBox="0.00 0.00 1272.00 917.00" xmlns="http://www.w3.org/2000/svg" xmlns:xlink="http://www.w3.org/1999/xlink">
<g id="graph0" class="graph" transform="scale(1 1) rotate(0) translate(36 881)">
<title>GPDB</title>
<polygon fill="white" stroke="none" points="-36,36 -36,-881 1236,-881 1236,36 -36,36"/>
<text text-anchor="middle" x="600" y="-815.4" font-family="Helvetica,sans-Serif" font-size="32.00">Greenplum System Catalog: pg_window</text>
<g id="clust2" class="cluster"><title>cluster_selected</title>
</g>
<g id="clust3" class="cluster"><title>cluster_to</title>
</g>
<!-- pg_window -->
<g id="node1" class="node"><title>pg_window</title>
<polygon fill="#2c3e50" stroke="none" points="169,-708 169,-738 421,-738 421,-708 169,-708"/>
<polygon fill="none" stroke="black" points="169,-708 169,-738 421,-738 421,-708 169,-708"/>
<text text-anchor="start" x="247.5" y="-719.6" font-family="monospace" font-weight="bold" font-size="18.00" fill="#ffffff">pg_window</text>
<polygon fill="#ffffff" stroke="none" points="169,-683 169,-708 320,-708 320,-683 169,-683"/>
<polygon fill="none" stroke="#2c3e50" points="169,-683 169,-708 320,-708 320,-683 169,-683"/>
<text text-anchor="start" x="174" y="-691.8" font-family="monospace" font-size="14.00" fill="#000000">winfnoid</text>
<polygon fill="#18bc9c" stroke="none" points="320,-683 320,-708 421,-708 421,-683 320,-683"/>
<polygon fill="none" stroke="#2c3e50" points="320,-683 320,-708 421,-708 421,-683 320,-683"/>
<text text-anchor="start" x="325" y="-692.8" font-family="monospace" font-style="italic" font-size="14.00" fill="#ffffff">regproc</text>
<polygon fill="#ffffff" stroke="none" points="169,-658 169,-683 320,-683 320,-658 169,-658"/>
<polygon fill="none" stroke="#2c3e50" points="169,-658 169,-683 320,-683 320,-658 169,-658"/>
<text text-anchor="start" x="174" y="-666.8" font-family="monospace" font-size="14.00" fill="#000000">winrequireorder</text>
<polygon fill="#ffffff" stroke="none" points="320,-658 320,-683 421,-683 421,-658 320,-658"/>
<polygon fill="none" stroke="#2c3e50" points="320,-658 320,-683 421,-683 421,-658 320,-658"/>
<text text-anchor="start" x="325" y="-667.8" font-family="monospace" font-style="italic" font-size="14.00" fill="#95a5a6">boolean</text>
<polygon fill="#ffffff" stroke="none" points="169,-633 169,-658 320,-658 320,-633 169,-633"/>
<polygon fill="none" stroke="#2c3e50" points="169,-633 169,-658 320,-658 320,-633 169,-633"/>
<text text-anchor="start" x="174" y="-641.8" font-family="monospace" font-size="14.00" fill="#000000">winallowframe</text>
<polygon fill="#ffffff" stroke="none" points="320,-633 320,-658 421,-658 421,-633 320,-633"/>
<polygon fill="none" stroke="#2c3e50" points="320,-633 320,-658 421,-658 421,-633 320,-633"/>
<text text-anchor="start" x="325" y="-642.8" font-family="monospace" font-style="italic" font-size="14.00" fill="#95a5a6">boolean</text>
<polygon fill="#ffffff" stroke="none" points="169,-608 169,-633 320,-633 320,-608 169,-608"/>
<polygon fill="none" stroke="#2c3e50" points="169,-608 169,-633 320,-633 320,-608 169,-608"/>
<text text-anchor="start" x="174" y="-616.8" font-family="monospace" font-size="14.00" fill="#000000">winpeercount</text>
<polygon fill="#ffffff" stroke="none" points="320,-608 320,-633 421,-633 421,-608 320,-608"/>
<polygon fill="none" stroke="#2c3e50" points="320,-608 320,-633 421,-633 421,-608 320,-608"/>
<text text-anchor="start" x="325" y="-617.8" font-family="monospace" font-style="italic" font-size="14.00" fill="#95a5a6">boolean</text>
<polygon fill="#ffffff" stroke="none" points="169,-583 169,-608 320,-608 320,-583 169,-583"/>
<polygon fill="none" stroke="#2c3e50" points="169,-583 169,-608 320,-608 320,-583 169,-583"/>
<text text-anchor="start" x="174" y="-591.8" font-family="monospace" font-size="14.00" fill="#000000">wincount</text>
<polygon fill="#ffffff" stroke="none" points="320,-583 320,-608 421,-608 421,-583 320,-583"/>
<polygon fill="none" stroke="#2c3e50" points="320,-583 320,-608 421,-608 421,-583 320,-583"/>
<text text-anchor="start" x="325" y="-592.8" font-family="monospace" font-style="italic" font-size="14.00" fill="#95a5a6">boolean</text>
<polygon fill="#ffffff" stroke="none" points="169,-558 169,-583 320,-583 320,-558 169,-558"/>
<polygon fill="none" stroke="#2c3e50" points="169,-558 169,-583 320,-583 320,-558 169,-558"/>
<text text-anchor="start" x="174" y="-566.8" font-family="monospace" font-size="14.00" fill="#000000">winfunc</text>
<polygon fill="#18bc9c" stroke="none" points="320,-558 320,-583 421,-583 421,-558 320,-558"/>
<polygon fill="none" stroke="#2c3e50" points="320,-558 320,-583 421,-583 421,-558 320,-558"/>
<text text-anchor="start" x="325" y="-567.8" font-family="monospace" font-style="italic" font-size="14.00" fill="#ffffff">regproc</text>
<polygon fill="#ffffff" stroke="none" points="169,-533 169,-558 320,-558 320,-533 169,-533"/>
<polygon fill="none" stroke="#2c3e50" points="169,-533 169,-558 320,-558 320,-533 169,-533"/>
<text text-anchor="start" x="174" y="-541.8" font-family="monospace" font-size="14.00" fill="#000000">winprefunc</text>
<polygon fill="#18bc9c" stroke="none" points="320,-533 320,-558 421,-558 421,-533 320,-533"/>
<polygon fill="none" stroke="#2c3e50" points="320,-533 320,-558 421,-558 421,-533 320,-533"/>
<text text-anchor="start" x="325" y="-542.8" font-family="monospace" font-style="italic" font-size="14.00" fill="#ffffff">regproc</text>
<polygon fill="#ffffff" stroke="none" points="169,-508 169,-533 320,-533 320,-508 169,-508"/>
<polygon fill="none" stroke="#2c3e50" points="169,-508 169,-533 320,-533 320,-508 169,-508"/>
<text text-anchor="start" x="174" y="-516.8" font-family="monospace" font-size="14.00" fill="#000000">winpretype</text>
<polygon fill="#ffffff" stroke="none" points="320,-508 320,-533 421,-533 421,-508 320,-508"/>
<polygon fill="none" stroke="#2c3e50" points="320,-508 320,-533 421,-533 421,-508 320,-508"/>
<text text-anchor="start" x="325" y="-517.8" font-family="monospace" font-style="italic" font-size="14.00" fill="#95a5a6">oid</text>
<polygon fill="#ffffff" stroke="none" points="169,-483 169,-508 320,-508 320,-483 169,-483"/>
<polygon fill="none" stroke="#2c3e50" points="169,-483 169,-508 320,-508 320,-483 169,-483"/>
<text text-anchor="start" x="174" y="-491.8" font-family="monospace" font-size="14.00" fill="#000000">winfinfunc</text>
<polygon fill="#18bc9c" stroke="none" points="320,-483 320,-508 421,-508 421,-483 320,-483"/>
<polygon fill="none" stroke="#2c3e50" points="320,-483 320,-508 421,-508 421,-483 320,-483"/>
<text text-anchor="start" x="325" y="-492.8" font-family="monospace" font-style="italic" font-size="14.00" fill="#ffffff">regproc</text>
<polygon fill="#ffffff" stroke="none" points="169,-458 169,-483 320,-483 320,-458 169,-458"/>
<polygon fill="none" stroke="#2c3e50" points="169,-458 169,-483 320,-483 320,-458 169,-458"/>
<text text-anchor="start" x="174" y="-466.8" font-family="monospace" font-size="14.00" fill="#000000">winkind</text>
<polygon fill="#ffffff" stroke="none" points="320,-458 320,-483 421,-483 421,-458 320,-458"/>
<polygon fill="none" stroke="#2c3e50" points="320,-458 320,-483 421,-483 421,-458 320,-458"/>
<text text-anchor="start" x="325" y="-467.8" font-family="monospace" font-style="italic" font-size="14.00" fill="#95a5a6">quoted_char</text>
<polygon fill="#ffffff" stroke="none" points="169,-433 169,-458 320,-458 320,-433 169,-433"/>
<polygon fill="none" stroke="#2c3e50" points="169,-433 169,-458 320,-458 320,-433 169,-433"/>
<text text-anchor="start" x="174" y="-441.8" font-family="monospace" font-size="14.00" fill="#000000">winframemakerfunc</text>
<polygon fill="#ffffff" stroke="none" points="320,-433 320,-458 421,-458 421,-433 320,-433"/>
<polygon fill="none" stroke="#2c3e50" points="320,-433 320,-458 421,-458 421,-433 320,-433"/>
<text text-anchor="start" x="325" y="-442.8" font-family="monospace" font-style="italic" font-size="14.00" fill="#95a5a6">regproc</text>
</g>
<!-- pg_proc -->
<g id="node2" class="node"><title>pg_proc</title>
<polygon fill="#2c3e50" stroke="none" points="783,-570 783,-600 1027,-600 1027,-570 783,-570"/>
<polygon fill="none" stroke="black" points="783,-570 783,-600 1027,-600 1027,-570 783,-570"/>
<text text-anchor="start" x="868" y="-581.6" font-family="monospace" font-weight="bold" font-size="18.00" fill="#ffffff">pg_proc</text>
<polygon fill="#18bc9c" stroke="none" points="783,-545 783,-570 909,-570 909,-545 783,-545"/>
<polygon fill="none" stroke="#2c3e50" points="783,-545 783,-570 909,-570 909,-545 783,-545"/>
<text text-anchor="start" x="788" y="-553.8" font-family="monospace" font-size="14.00" fill="#ffffff">oid</text>
<polygon fill="#ffffff" stroke="none" points="909,-545 909,-570 1027,-570 1027,-545 909,-545"/>
<polygon fill="none" stroke="#2c3e50" points="909,-545 909,-570 1027,-570 1027,-545 909,-545"/>
<text text-anchor="start" x="914" y="-554.8" font-family="monospace" font-style="italic" font-size="14.00" fill="#95a5a6">oid</text>
<polygon fill="#ffffff" stroke="none" points="783,-520 783,-545 909,-545 909,-520 783,-520"/>
<polygon fill="none" stroke="#2c3e50" points="783,-520 783,-545 909,-545 909,-520 783,-520"/>
<text text-anchor="start" x="788" y="-528.8" font-family="monospace" font-size="14.00" fill="#000000">proname</text>
<polygon fill="#ffffff" stroke="none" points="909,-520 909,-545 1027,-545 1027,-520 909,-520"/>
<polygon fill="none" stroke="#2c3e50" points="909,-520 909,-545 1027,-545 1027,-520 909,-520"/>
<text text-anchor="start" x="914" y="-529.8" font-family="monospace" font-style="italic" font-size="14.00" fill="#95a5a6">name</text>
<polygon fill="#ffffff" stroke="none" points="783,-495 783,-520 909,-520 909,-495 783,-495"/>
<polygon fill="none" stroke="#2c3e50" points="783,-495 783,-520 909,-520 909,-495 783,-495"/>
<text text-anchor="start" x="788" y="-503.8" font-family="monospace" font-size="14.00" fill="#000000">pronamespace</text>
<polygon fill="#ffffff" stroke="none" points="909,-495 909,-520 1027,-520 1027,-495 909,-495"/>
<polygon fill="none" stroke="#2c3e50" points="909,-495 909,-520 1027,-520 1027,-495 909,-495"/>
<text text-anchor="start" x="914" y="-504.8" font-family="monospace" font-style="italic" font-size="14.00" fill="#95a5a6">oid</text>
<polygon fill="#ffffff" stroke="none" points="783,-470 783,-495 909,-495 909,-470 783,-470"/>
<polygon fill="none" stroke="#2c3e50" points="783,-470 783,-495 909,-495 909,-470 783,-470"/>
<text text-anchor="start" x="788" y="-478.8" font-family="monospace" font-size="14.00" fill="#000000">proowner</text>
<polygon fill="#ffffff" stroke="none" points="909,-470 909,-495 1027,-495 1027,-470 909,-470"/>
<polygon fill="none" stroke="#2c3e50" points="909,-470 909,-495 1027,-495 1027,-470 909,-470"/>
<text text-anchor="start" x="914" y="-479.8" font-family="monospace" font-style="italic" font-size="14.00" fill="#95a5a6">oid</text>
<polygon fill="#ffffff" stroke="none" points="783,-445 783,-470 909,-470 909,-445 783,-445"/>
<polygon fill="none" stroke="#2c3e50" points="783,-445 783,-470 909,-470 909,-445 783,-445"/>
<text text-anchor="start" x="788" y="-453.8" font-family="monospace" font-size="14.00" fill="#000000">prolang</text>
<polygon fill="#ffffff" stroke="none" points="909,-445 909,-470 1027,-470 1027,-445 909,-445"/>
<polygon fill="none" stroke="#2c3e50" points="909,-445 909,-470 1027,-470 1027,-445 909,-445"/>
<text text-anchor="start" x="914" y="-454.8" font-family="monospace" font-style="italic" font-size="14.00" fill="#95a5a6">oid</text>
<polygon fill="#ffffff" stroke="none" points="783,-420 783,-445 909,-445 909,-420 783,-420"/>
<polygon fill="none" stroke="#2c3e50" points="783,-420 783,-445 909,-445 909,-420 783,-420"/>
<text text-anchor="start" x="788" y="-428.8" font-family="monospace" font-size="14.00" fill="#000000">proisagg</text>
<polygon fill="#ffffff" stroke="none" points="909,-420 909,-445 1027,-445 1027,-420 909,-420"/>
<polygon fill="none" stroke="#2c3e50" points="909,-420 909,-445 1027,-445 1027,-420 909,-420"/>
<text text-anchor="start" x="914" y="-429.8" font-family="monospace" font-style="italic" font-size="14.00" fill="#95a5a6">boolean</text>
<polygon fill="#ffffff" stroke="none" points="783,-395 783,-420 909,-420 909,-395 783,-395"/>
<polygon fill="none" stroke="#2c3e50" points="783,-395 783,-420 909,-420 909,-395 783,-395"/>
<text text-anchor="start" x="788" y="-403.8" font-family="monospace" font-size="14.00" fill="#000000">prosecdef</text>
<polygon fill="#ffffff" stroke="none" points="909,-395 909,-420 1027,-420 1027,-395 909,-395"/>
<polygon fill="none" stroke="#2c3e50" points="909,-395 909,-420 1027,-420 1027,-395 909,-395"/>
<text text-anchor="start" x="914" y="-404.8" font-family="monospace" font-style="italic" font-size="14.00" fill="#95a5a6">boolean</text>
<polygon fill="#ffffff" stroke="none" points="783,-370 783,-395 909,-395 909,-370 783,-370"/>
<polygon fill="none" stroke="#2c3e50" points="783,-370 783,-395 909,-395 909,-370 783,-370"/>
<text text-anchor="start" x="788" y="-378.8" font-family="monospace" font-size="14.00" fill="#000000">proisstrict</text>
<polygon fill="#ffffff" stroke="none" points="909,-370 909,-395 1027,-395 1027,-370 909,-370"/>
<polygon fill="none" stroke="#2c3e50" points="909,-370 909,-395 1027,-395 1027,-370 909,-370"/>
<text text-anchor="start" x="914" y="-379.8" font-family="monospace" font-style="italic" font-size="14.00" fill="#95a5a6">boolean</text>
<polygon fill="#ffffff" stroke="none" points="783,-345 783,-370 909,-370 909,-345 783,-345"/>
<polygon fill="none" stroke="#2c3e50" points="783,-345 783,-370 909,-370 909,-345 783,-345"/>
<text text-anchor="start" x="788" y="-353.8" font-family="monospace" font-size="14.00" fill="#000000">proretset</text>
<polygon fill="#ffffff" stroke="none" points="909,-345 909,-370 1027,-370 1027,-345 909,-345"/>
<polygon fill="none" stroke="#2c3e50" points="909,-345 909,-370 1027,-370 1027,-345 909,-345"/>
<text text-anchor="start" x="914" y="-354.8" font-family="monospace" font-style="italic" font-size="14.00" fill="#95a5a6">boolean</text>
<polygon fill="#ffffff" stroke="none" points="783,-320 783,-345 909,-345 909,-320 783,-320"/>
<polygon fill="none" stroke="#2c3e50" points="783,-320 783,-345 909,-345 909,-320 783,-320"/>
<text text-anchor="start" x="788" y="-328.8" font-family="monospace" font-size="14.00" fill="#000000">provolatile</text>
<polygon fill="#ffffff" stroke="none" points="909,-320 909,-345 1027,-345 1027,-320 909,-320"/>
<polygon fill="none" stroke="#2c3e50" points="909,-320 909,-345 1027,-345 1027,-320 909,-320"/>
<text text-anchor="start" x="914" y="-329.8" font-family="monospace" font-style="italic" font-size="14.00" fill="#95a5a6">quoted_char</text>
<polygon fill="#ffffff" stroke="none" points="783,-295 783,-320 909,-320 909,-295 783,-295"/>
<polygon fill="none" stroke="#2c3e50" points="783,-295 783,-320 909,-320 909,-295 783,-295"/>
<text text-anchor="start" x="788" y="-303.8" font-family="monospace" font-size="14.00" fill="#000000">pronargs</text>
<polygon fill="#ffffff" stroke="none" points="909,-295 909,-320 1027,-320 1027,-295 909,-295"/>
<polygon fill="none" stroke="#2c3e50" points="909,-295 909,-320 1027,-320 1027,-295 909,-295"/>
<text text-anchor="start" x="914" y="-304.8" font-family="monospace" font-style="italic" font-size="14.00" fill="#95a5a6">smallint</text>
<polygon fill="#ffffff" stroke="none" points="783,-270 783,-295 909,-295 909,-270 783,-270"/>
<polygon fill="none" stroke="#2c3e50" points="783,-270 783,-295 909,-295 909,-270 783,-270"/>
<text text-anchor="start" x="788" y="-278.8" font-family="monospace" font-size="14.00" fill="#000000">prorettype</text>
<polygon fill="#ffffff" stroke="none" points="909,-270 909,-295 1027,-295 1027,-270 909,-270"/>
<polygon fill="none" stroke="#2c3e50" points="909,-270 909,-295 1027,-295 1027,-270 909,-270"/>
<text text-anchor="start" x="914" y="-279.8" font-family="monospace" font-style="italic" font-size="14.00" fill="#95a5a6">oid</text>
<polygon fill="#ffffff" stroke="none" points="783,-245 783,-270 909,-270 909,-245 783,-245"/>
<polygon fill="none" stroke="#2c3e50" points="783,-245 783,-270 909,-270 909,-245 783,-245"/>
<text text-anchor="start" x="788" y="-253.8" font-family="monospace" font-size="14.00" fill="#000000">proiswin</text>
<polygon fill="#ffffff" stroke="none" points="909,-245 909,-270 1027,-270 1027,-245 909,-245"/>
<polygon fill="none" stroke="#2c3e50" points="909,-245 909,-270 1027,-270 1027,-245 909,-245"/>
<text text-anchor="start" x="914" y="-254.8" font-family="monospace" font-style="italic" font-size="14.00" fill="#95a5a6">boolean</text>
<polygon fill="#ffffff" stroke="none" points="783,-220 783,-245 909,-245 909,-220 783,-220"/>
<polygon fill="none" stroke="#2c3e50" points="783,-220 783,-245 909,-245 909,-220 783,-220"/>
<text text-anchor="start" x="788" y="-228.8" font-family="monospace" font-size="14.00" fill="#000000">proargtypes</text>
<polygon fill="#ffffff" stroke="none" points="909,-220 909,-245 1027,-245 1027,-220 909,-220"/>
<polygon fill="none" stroke="#2c3e50" points="909,-220 909,-245 1027,-245 1027,-220 909,-220"/>
<text text-anchor="start" x="914" y="-229.8" font-family="monospace" font-style="italic" font-size="14.00" fill="#95a5a6">oidvector</text>
<polygon fill="#ffffff" stroke="none" points="783,-195 783,-220 909,-220 909,-195 783,-195"/>
<polygon fill="none" stroke="#2c3e50" points="783,-195 783,-220 909,-220 909,-195 783,-195"/>
<text text-anchor="start" x="788" y="-203.8" font-family="monospace" font-size="14.00" fill="#000000">proallargtypes</text>
<polygon fill="#ffffff" stroke="none" points="909,-195 909,-220 1027,-220 1027,-195 909,-195"/>
<polygon fill="none" stroke="#2c3e50" points="909,-195 909,-220 1027,-220 1027,-195 909,-195"/>
<text text-anchor="start" x="914" y="-204.8" font-family="monospace" font-style="italic" font-size="14.00" fill="#95a5a6">oid[]</text>
<polygon fill="#ffffff" stroke="none" points="783,-170 783,-195 909,-195 909,-170 783,-170"/>
<polygon fill="none" stroke="#2c3e50" points="783,-170 783,-195 909,-195 909,-170 783,-170"/>
<text text-anchor="start" x="788" y="-178.8" font-family="monospace" font-size="14.00" fill="#000000">proargmodes</text>
<polygon fill="#ffffff" stroke="none" points="909,-170 909,-195 1027,-195 1027,-170 909,-170"/>
<polygon fill="none" stroke="#2c3e50" points="909,-170 909,-195 1027,-195 1027,-170 909,-170"/>
<text text-anchor="start" x="914" y="-179.8" font-family="monospace" font-style="italic" font-size="14.00" fill="#95a5a6">quoted_char[]</text>
<polygon fill="#ffffff" stroke="none" points="783,-145 783,-170 909,-170 909,-145 783,-145"/>
<polygon fill="none" stroke="#2c3e50" points="783,-145 783,-170 909,-170 909,-145 783,-145"/>
<text text-anchor="start" x="788" y="-153.8" font-family="monospace" font-size="14.00" fill="#000000">proargnames</text>
<polygon fill="#ffffff" stroke="none" points="909,-145 909,-170 1027,-170 1027,-145 909,-145"/>
<polygon fill="none" stroke="#2c3e50" points="909,-145 909,-170 1027,-170 1027,-145 909,-145"/>
<text text-anchor="start" x="914" y="-154.8" font-family="monospace" font-style="italic" font-size="14.00" fill="#95a5a6">text[]</text>
<polygon fill="#ffffff" stroke="none" points="783,-120 783,-145 909,-145 909,-120 783,-120"/>
<polygon fill="none" stroke="#2c3e50" points="783,-120 783,-145 909,-145 909,-120 783,-120"/>
<text text-anchor="start" x="788" y="-128.8" font-family="monospace" font-size="14.00" fill="#000000">prosrc</text>
<polygon fill="#ffffff" stroke="none" points="909,-120 909,-145 1027,-145 1027,-120 909,-120"/>
<polygon fill="none" stroke="#2c3e50" points="909,-120 909,-145 1027,-145 1027,-120 909,-120"/>
<text text-anchor="start" x="914" y="-129.8" font-family="monospace" font-style="italic" font-size="14.00" fill="#95a5a6">text</text>
<polygon fill="#ffffff" stroke="none" points="783,-95 783,-120 909,-120 909,-95 783,-95"/>
<polygon fill="none" stroke="#2c3e50" points="783,-95 783,-120 909,-120 909,-95 783,-95"/>
<text text-anchor="start" x="788" y="-103.8" font-family="monospace" font-size="14.00" fill="#000000">probin</text>
<polygon fill="#ffffff" stroke="none" points="909,-95 909,-120 1027,-120 1027,-95 909,-95"/>
<polygon fill="none" stroke="#2c3e50" points="909,-95 909,-120 1027,-120 1027,-95 909,-95"/>
<text text-anchor="start" x="914" y="-104.8" font-family="monospace" font-style="italic" font-size="14.00" fill="#95a5a6">bytea</text>
<polygon fill="#ffffff" stroke="none" points="783,-70 783,-95 909,-95 909,-70 783,-70"/>
<polygon fill="none" stroke="#2c3e50" points="783,-70 783,-95 909,-95 909,-70 783,-70"/>
<text text-anchor="start" x="788" y="-78.8" font-family="monospace" font-size="14.00" fill="#000000">proacl</text>
<polygon fill="#ffffff" stroke="none" points="909,-70 909,-95 1027,-95 1027,-70 909,-70"/>
<polygon fill="none" stroke="#2c3e50" points="909,-70 909,-95 1027,-95 1027,-70 909,-70"/>
<text text-anchor="start" x="914" y="-79.8" font-family="monospace" font-style="italic" font-size="14.00" fill="#95a5a6">aclitem[]</text>
<polygon fill="#ffffff" stroke="none" points="783,-45 783,-70 909,-70 909,-45 783,-45"/>
<polygon fill="none" stroke="#2c3e50" points="783,-45 783,-70 909,-70 909,-45 783,-45"/>
<text text-anchor="start" x="788" y="-53.8" font-family="monospace" font-size="14.00" fill="#000000">prodataaccess</text>
<polygon fill="#ffffff" stroke="none" points="909,-45 909,-70 1027,-70 1027,-45 909,-45"/>
<polygon fill="none" stroke="#2c3e50" points="909,-45 909,-70 1027,-70 1027,-45 909,-45"/>
<text text-anchor="start" x="914" y="-54.8" font-family="monospace" font-style="italic" font-size="14.00" fill="#95a5a6">quoted_char</text>
<polygon fill="#ffffff" stroke="none" points="783,-20 783,-45 909,-45 909,-20 783,-20"/>
<polygon fill="none" stroke="#2c3e50" points="783,-20 783,-45 909,-45 909,-20 783,-20"/>
<text text-anchor="start" x="788" y="-28.8" font-family="monospace" font-size="14.00" fill="#000000">provariadic</text>
<polygon fill="#ffffff" stroke="none" points="909,-20 909,-45 1027,-45 1027,-20 909,-20"/>
<polygon fill="none" stroke="#2c3e50" points="909,-20 909,-45 1027,-45 1027,-20 909,-20"/>
<text text-anchor="start" x="914" y="-29.8" font-family="monospace" font-style="italic" font-size="14.00" fill="#95a5a6">oid</text>
</g>
<!-- pg_window&#45;&gt;pg_proc -->
<g id="edge1" class="edge"><title>pg_window:winfnoid_out&#45;&gt;pg_proc:oid_in</title>
<path fill="none" stroke="#2c3e50" d="M422,-696C589.839,-696 609.873,-563.602 771.65,-558.172"/>
<polygon fill="#2c3e50" stroke="#2c3e50" points="772.059,-561.666 782,-558 771.943,-554.666 772.059,-561.666"/>
</g>
<!-- pg_window&#45;&gt;pg_proc -->
<g id="edge2" class="edge"><title>pg_window:winfunc_out&#45;&gt;pg_proc:oid_in</title>
<path fill="none" stroke="#2c3e50" d="M422,-570C578.649,-570 620.145,-558.51 771.846,-558.016"/>
<polygon fill="#2c3e50" stroke="#2c3e50" points="772.006,-561.516 782,-558 771.994,-554.516 772.006,-561.516"/>
</g>
<!-- pg_window&#45;&gt;pg_proc -->
<g id="edge3" class="edge"><title>pg_window:winprefunc_out&#45;&gt;pg_proc:oid_in</title>
<path fill="none" stroke="#2c3e50" d="M422,-545C578.665,-545 620.13,-557.447 771.845,-557.982"/>
<polygon fill="#2c3e50" stroke="#2c3e50" points="771.994,-561.482 782,-558 772.006,-554.482 771.994,-561.482"/>
</g>
<!-- pg_window&#45;&gt;pg_proc -->
<g id="edge4" class="edge"><title>pg_window:winfinfunc_out&#45;&gt;pg_proc:oid_in</title>
<path fill="none" stroke="#2c3e50" d="M422,-495C580.942,-495 618,-555.322 771.705,-557.914"/>
<polygon fill="#2c3e50" stroke="#2c3e50" points="771.971,-561.416 782,-558 772.03,-554.417 771.971,-561.416"/>
</g>
</g>
</svg>
